<svg width="553" height="570" viewBox="0 0 553 570" fill="none" xmlns="http://www.w3.org/2000/svg">
<path d="M335.38 564.35V560.962H337.834V564.35H335.38Z" fill="white"/>
<path d="M326.541 564.787C324.292 564.787 322.043 563.795 320.787 561.663C320.671 561.458 320.554 561.224 320.437 560.991L322.102 560.261C322.189 560.465 322.277 560.67 322.394 560.874C323.27 562.393 324.788 563.181 326.57 563.181C328.556 563.181 329.958 562.159 329.958 560.611C329.958 559.034 329.228 558.684 326.95 558.1L325.168 557.632C322.51 556.931 321.342 555.705 321.342 553.952C321.342 551.675 323.357 550.039 326.161 550.039C328.264 550.039 330.045 550.915 331.213 552.434C331.36 552.638 331.506 552.843 331.622 553.047L330.045 553.865C329.958 553.69 329.841 553.514 329.724 553.339C328.994 552.288 327.709 551.645 326.161 551.645C324.175 551.645 323.182 552.551 323.182 553.806C323.182 554.653 323.562 555.354 325.606 555.851L327.621 556.347C330.834 557.136 331.798 558.45 331.798 560.524C331.798 562.977 329.52 564.787 326.541 564.787Z" fill="white"/>
<path d="M311.875 564.787C307.99 564.787 305.304 561.604 305.304 557.457C305.304 553.252 307.99 550.039 311.845 550.039C315.905 550.039 317.978 553.719 317.978 557.194V557.486H307.319C307.377 560.962 309.071 563.123 311.845 563.123C313.715 563.123 315.116 562.363 315.963 560.64C316.051 560.465 316.109 560.29 316.197 560.086L317.832 560.582C317.745 560.757 317.686 560.932 317.599 561.078C316.372 563.444 314.445 564.787 311.875 564.787ZM307.406 555.997H316.051C315.759 553.719 314.532 551.675 311.816 551.675C309.246 551.675 307.728 553.398 307.406 555.997Z" fill="white"/>
<path d="M299.312 564.35V550.477H301.21V564.35H299.312ZM299.283 547.119V543.906H301.239V547.119H299.283Z" fill="white"/>
<path d="M287.762 569.168C285.338 569.168 283.206 568.176 282.242 567.095L283.381 565.752C284.695 567.007 285.981 567.533 287.645 567.533C290.507 567.533 292.23 566.452 292.23 563.97V560.845C291.442 562.802 289.719 564.204 287.587 564.204C284.053 564.204 281.775 561.166 281.775 557.224C281.775 553.223 284.199 550.127 287.704 550.127C289.894 550.127 291.559 551.47 292.289 553.485V550.477H294.129V563.912C294.129 567.037 291.588 569.168 287.762 569.168ZM283.761 557.224C283.761 560.378 285.163 562.51 287.937 562.51C290.624 562.51 292.26 560.436 292.26 557.224C292.26 553.894 290.712 551.821 288.054 551.821C285.25 551.821 283.761 554.04 283.761 557.224Z" fill="white"/>
<path d="M272.287 564.787C268.578 564.787 265.745 561.663 265.745 557.428C265.745 553.222 268.578 550.039 272.287 550.039C275.967 550.039 278.8 553.222 278.8 557.428C278.8 561.663 275.967 564.787 272.287 564.787ZM267.819 557.428C267.819 560.874 269.483 563.152 272.287 563.152C275.091 563.152 276.726 560.874 276.726 557.428C276.726 553.923 275.091 551.675 272.287 551.675C269.483 551.675 267.819 553.923 267.819 557.428Z" fill="white"/>
<path d="M259.783 564.35V543.906H261.681V564.35H259.783Z" fill="white"/>
<path d="M249.214 564.787C245.505 564.787 242.672 561.663 242.672 557.428C242.672 553.222 245.505 550.039 249.214 550.039C252.894 550.039 255.727 553.222 255.727 557.428C255.727 561.663 252.894 564.787 249.214 564.787ZM244.746 557.428C244.746 560.874 246.411 563.152 249.214 563.152C252.018 563.152 253.653 560.874 253.653 557.428C253.653 553.923 252.018 551.675 249.214 551.675C246.411 551.675 244.746 553.923 244.746 557.428Z" fill="white"/>
<path d="M227.868 564.349V550.476H229.708V553.28C230.468 551.323 231.928 550.097 234.148 550.097C237.126 550.097 238.82 552.199 238.82 555.266V564.349H236.922V555.5C236.922 553.163 235.958 551.761 233.709 551.761C231.198 551.761 229.767 553.601 229.767 556.785V564.349H227.868Z" fill="white"/>
<path d="M211.926 564.35V543.906H213.824V553.135C214.583 551.266 216.044 550.098 218.205 550.098C221.184 550.098 222.877 552.2 222.877 555.267V564.35H220.979V555.501C220.979 553.164 219.986 551.762 217.767 551.762C215.255 551.762 213.824 553.602 213.824 556.786V564.35H211.926Z" fill="white"/>
<path d="M202.183 564.787C198.299 564.787 195.699 561.604 195.699 557.428C195.699 553.222 198.299 550.039 202.183 550.039C205.191 550.039 206.943 551.821 207.907 554.186C207.936 554.303 207.995 554.42 208.024 554.537L206.272 555.179C206.213 555.004 206.184 554.858 206.126 554.712C205.308 552.667 204.052 551.704 202.154 551.704C199.379 551.704 197.715 554.099 197.715 557.428C197.715 560.728 199.379 563.123 202.154 563.123C204.052 563.123 205.454 562.217 206.126 560.173C206.184 559.998 206.213 559.881 206.272 559.647L207.995 560.29L207.819 560.757C206.797 563.327 204.899 564.787 202.183 564.787Z" fill="white"/>
<path d="M186.699 564.787C182.815 564.787 180.128 561.604 180.128 557.457C180.128 553.252 182.815 550.039 186.67 550.039C190.729 550.039 192.803 553.719 192.803 557.194V557.486H182.143C182.202 560.962 183.895 563.123 186.67 563.123C188.539 563.123 189.941 562.363 190.788 560.64C190.875 560.465 190.934 560.29 191.021 560.086L192.657 560.582C192.569 560.757 192.511 560.932 192.423 561.078C191.197 563.444 189.269 564.787 186.699 564.787ZM182.231 555.997H190.875C190.583 553.719 189.357 551.675 186.641 551.675C184.071 551.675 182.552 553.398 182.231 555.997Z" fill="white"/>
<path d="M175.34 564.495C173.997 564.495 173.092 564.086 172.624 563.21C172.391 562.772 172.274 562.217 172.274 561.545V551.995H169.47V550.477H172.274V545.22H174.172V550.477H177.589V551.995H174.172V561.107C174.172 561.604 174.23 561.954 174.377 562.217C174.61 562.684 175.048 562.859 175.662 562.859C176.421 562.859 177.326 562.655 177.823 562.421V564.086C177.034 564.378 176.07 564.495 175.34 564.495Z" fill="white"/>
<path d="M156.739 564.35V543.906H158.637V564.35H156.739Z" fill="white"/>
<path d="M144.948 564.787C142.757 564.787 140.771 563.444 140.771 560.903C140.771 558.947 141.881 557.194 145.619 556.435L149.679 555.588V554.741C149.679 552.989 148.861 551.645 146.554 551.645C144.51 551.645 143.371 552.609 143.049 554.04H141.005C141.648 551.616 143.75 550.039 146.671 550.039C149.679 550.039 151.577 551.879 151.577 554.566V561.371C151.577 562.539 152.044 563.094 152.921 563.094C153.242 563.094 153.446 563.035 153.738 562.918V564.32C153.475 564.495 153.067 564.671 152.453 564.671C150.847 564.671 149.854 563.59 149.737 561.75C148.569 563.765 146.875 564.787 144.948 564.787ZM142.757 560.786C142.757 562.539 144.072 563.152 145.561 563.152C147.547 563.152 149.708 561.458 149.708 559.18V556.873L146.437 557.632C143.575 558.304 142.757 559.531 142.757 560.786Z" fill="white"/>
<path d="M135.697 564.495C134.354 564.495 133.448 564.086 132.981 563.21C132.747 562.772 132.631 562.217 132.631 561.545V551.995H129.827V550.477H132.631V545.22H134.529V550.477H137.946V551.995H134.529V561.107C134.529 561.604 134.587 561.954 134.733 562.217C134.967 562.684 135.405 562.859 136.018 562.859C136.778 562.859 137.683 562.655 138.179 562.421V564.086C137.391 564.378 136.427 564.495 135.697 564.495Z" fill="white"/>
<path d="M124.682 564.35V550.477H126.58V564.35H124.682ZM124.653 547.119V543.906H126.61V547.119H124.653Z" fill="white"/>
<path d="M113.132 569.168C110.708 569.168 108.576 568.176 107.613 567.095L108.752 565.752C110.066 567.007 111.351 567.533 113.015 567.533C115.877 567.533 117.601 566.452 117.601 563.97V560.845C116.812 562.802 115.089 564.204 112.957 564.204C109.423 564.204 107.145 561.166 107.145 557.224C107.145 553.223 109.569 550.127 113.074 550.127C115.264 550.127 116.929 551.47 117.659 553.485V550.477H119.499V563.912C119.499 567.037 116.958 569.168 113.132 569.168ZM109.131 557.224C109.131 560.378 110.533 562.51 113.307 562.51C115.994 562.51 117.63 560.436 117.63 557.224C117.63 553.894 116.082 551.821 113.424 551.821C110.621 551.821 109.131 554.04 109.131 557.224Z" fill="white"/>
<path d="M101.124 564.35V550.477H103.023V564.35H101.124ZM101.095 547.119V543.906H103.052V547.119H101.095Z" fill="white"/>
<path d="M89.3979 564.788C86.0101 564.788 83.6153 561.692 83.6153 557.457C83.6153 553.252 86.0685 550.039 89.5147 550.039C91.5298 550.039 93.3113 551.383 94.0414 553.456V543.906H95.9397V564.35H94.0998V561.312C93.2529 563.357 91.4422 564.788 89.3979 564.788ZM85.6305 557.457C85.6305 560.903 87.2075 563.094 89.7483 563.094C92.3768 563.094 94.0706 560.874 94.0706 557.457C94.0706 553.953 92.4352 551.733 89.8651 551.733C87.2659 551.733 85.6305 554.011 85.6305 557.457Z" fill="white"/>
<path d="M66.5431 564.787C62.6588 564.787 59.972 561.604 59.972 557.457C59.972 553.252 62.6588 550.039 66.5139 550.039C70.5733 550.039 72.6469 553.719 72.6469 557.194V557.486H61.9871C62.0455 560.962 63.7394 563.123 66.5139 563.123C68.383 563.123 69.7848 562.363 70.6317 560.64C70.7194 560.465 70.7778 560.29 70.8654 560.086L72.5009 560.582C72.4132 560.757 72.3548 560.932 72.2672 561.078C71.0406 563.444 69.1131 564.787 66.5431 564.787ZM62.0747 555.997H70.7194C70.4273 553.719 69.2007 551.675 66.4847 551.675C63.9146 551.675 62.396 553.398 62.0747 555.997Z" fill="white"/>
<path d="M45.1389 564.35V543.906H47.0372V553.135C47.7966 551.266 49.2568 550.098 51.418 550.098C54.3968 550.098 56.0907 552.2 56.0907 555.267V564.35H54.1924V555.501C54.1924 553.164 53.1995 551.762 50.9799 551.762C48.4683 551.762 47.0372 553.602 47.0372 556.786V564.35H45.1389Z" fill="white"/>
<path d="M39.0132 564.495C37.6698 564.495 36.7645 564.086 36.2972 563.21C36.0635 562.772 35.9467 562.217 35.9467 561.545V551.995H33.1431V550.477H35.9467V545.22H37.845V550.477H41.262V551.995H37.845V561.107C37.845 561.604 37.9034 561.954 38.0495 562.217C38.2831 562.684 38.7212 562.859 39.3345 562.859C40.0938 562.859 40.9992 562.655 41.4956 562.421V564.086C40.7071 564.378 39.7433 564.495 39.0132 564.495Z" fill="white"/>
<path d="M19.6338 547.177C19.6338 544.753 20.656 543.468 23.0508 543.468C23.8393 543.468 24.5694 543.585 24.9491 543.672V545.249C24.3942 545.132 23.8393 545.045 23.226 545.045C21.941 545.045 21.5321 545.746 21.5321 547.177V550.477H24.9491V551.996H21.5321V564.349H19.6338V551.996H16.8301V550.477H19.6338V547.177Z" fill="white"/>
<path d="M8.38881 564.787C4.6798 564.787 1.84694 561.663 1.84694 557.428C1.84694 553.222 4.6798 550.039 8.38881 550.039C12.0686 550.039 14.9015 553.222 14.9015 557.428C14.9015 561.663 12.0686 564.787 8.38881 564.787ZM3.92048 557.428C3.92048 560.874 5.58515 563.152 8.38881 563.152C11.1925 563.152 12.8279 560.874 12.8279 557.428C12.8279 553.923 11.1925 551.675 8.38881 551.675C5.58515 551.675 3.92048 553.923 3.92048 557.428Z" fill="white"/>
<path d="M542.048 525.966V505.522H543.946V514.751C544.706 512.882 546.166 511.714 548.327 511.714C551.306 511.714 553 513.817 553 516.883V525.966H551.102V517.117C551.102 514.78 550.109 513.379 547.889 513.379C545.378 513.379 543.946 515.218 543.946 518.402V525.966H542.048Z" fill="white"/>
<path d="M535.922 526.113C534.579 526.113 533.674 525.704 533.206 524.828C532.973 524.39 532.856 523.835 532.856 523.163V513.613H530.052V512.095H532.856V506.838H534.754V512.095H538.171V513.613H534.754V522.725C534.754 523.222 534.813 523.572 534.959 523.835C535.192 524.302 535.63 524.478 536.244 524.478C537.003 524.478 537.908 524.273 538.405 524.04V525.704C537.616 525.996 536.653 526.113 535.922 526.113Z" fill="white"/>
<path d="M521.285 525.966V512.094H523.125V516.241C524.527 513.584 526.893 512.153 528.616 511.919V514.109C526.718 514.109 523.184 515.862 523.184 518.811V525.966H521.285Z" fill="white"/>
<path d="M514.184 525.966V512.094H516.082V525.966H514.184ZM514.155 508.735V505.522H516.111V508.735H514.155Z" fill="white"/>
<path d="M504.297 526.404C502.165 526.404 500.413 525.002 499.625 522.958V525.966H497.785V505.522H499.683V515.102C500.442 513.057 502.399 511.685 504.414 511.685C507.86 511.685 510.109 514.81 510.109 519.044C510.109 523.25 507.51 526.404 504.297 526.404ZM499.654 519.044C499.654 522.49 501.318 524.71 503.947 524.71C506.488 524.71 508.094 522.461 508.094 519.044C508.094 515.598 506.575 513.379 503.976 513.379C501.406 513.379 499.654 515.598 499.654 519.044Z" fill="white"/>
<path d="M479.603 526.404C475.718 526.404 473.031 523.22 473.031 519.073C473.031 514.868 475.718 511.655 479.573 511.655C483.633 511.655 485.706 515.335 485.706 518.81V519.102H475.047C475.105 522.578 476.799 524.739 479.573 524.739C481.442 524.739 482.844 523.98 483.691 522.257C483.779 522.081 483.837 521.906 483.925 521.702L485.56 522.198C485.473 522.373 485.414 522.549 485.327 522.695C484.1 525.06 482.173 526.404 479.603 526.404ZM475.134 517.613H483.779C483.487 515.335 482.26 513.291 479.544 513.291C476.974 513.291 475.456 515.014 475.134 517.613Z" fill="white"/>
<path d="M458.198 525.966V505.522H460.097V514.751C460.856 512.882 462.316 511.714 464.477 511.714C467.456 511.714 469.15 513.817 469.15 516.883V525.966H467.252V517.117C467.252 514.78 466.259 513.379 464.039 513.379C461.528 513.379 460.097 515.218 460.097 518.402V525.966H458.198Z" fill="white"/>
<path d="M452.073 526.113C450.729 526.113 449.824 525.704 449.357 524.828C449.123 524.39 449.006 523.835 449.006 523.163V513.613H446.203V512.095H449.006V506.838H450.905V512.095H454.322V513.613H450.905V522.725C450.905 523.222 450.963 523.572 451.109 523.835C451.343 524.302 451.781 524.478 452.394 524.478C453.153 524.478 454.059 524.273 454.555 524.04V525.704C453.767 525.996 452.803 526.113 452.073 526.113Z" fill="white"/>
<path d="M417.785 525.965V512.093H419.625V514.838C420.297 512.91 421.553 511.713 423.539 511.713C425.583 511.713 426.868 512.998 427.335 514.955C428.007 512.969 429.379 511.713 431.482 511.713C434.111 511.713 435.571 513.786 435.571 516.561V525.965H433.673V516.795C433.673 514.721 432.855 513.378 430.957 513.378C428.854 513.378 427.627 515.217 427.627 518.401V525.965H425.729V516.795C425.729 514.75 424.94 513.378 423.013 513.378C420.91 513.378 419.683 515.217 419.683 518.401V525.965H417.785Z" fill="white"/>
<path d="M407.217 526.404C403.508 526.404 400.675 523.279 400.675 519.044C400.675 514.839 403.508 511.655 407.217 511.655C410.897 511.655 413.729 514.839 413.729 519.044C413.729 523.279 410.897 526.404 407.217 526.404ZM402.748 519.044C402.748 522.49 404.413 524.768 407.217 524.768C410.02 524.768 411.656 522.49 411.656 519.044C411.656 515.54 410.02 513.291 407.217 513.291C404.413 513.291 402.748 515.54 402.748 519.044Z" fill="white"/>
<path d="M391.546 525.966V512.094H393.386V516.241C394.788 513.584 397.154 512.153 398.877 511.919V514.109C396.979 514.109 393.445 515.862 393.445 518.811V525.966H391.546Z" fill="white"/>
<path d="M383.039 508.793C383.039 506.369 384.062 505.084 386.456 505.084C387.245 505.084 387.975 505.201 388.355 505.288V506.865C387.8 506.749 387.245 506.661 386.632 506.661C385.347 506.661 384.938 507.362 384.938 508.793V512.093H388.355V513.612H384.938V525.965H383.039V513.612H380.236V512.093H383.039V508.793Z" fill="white"/>
<path d="M364.872 526.404C362.623 526.404 360.374 525.411 359.119 523.279C359.002 523.074 358.885 522.841 358.768 522.607L360.433 521.877C360.52 522.081 360.608 522.286 360.725 522.49C361.601 524.009 363.12 524.797 364.901 524.797C366.887 524.797 368.289 523.775 368.289 522.227C368.289 520.65 367.559 520.3 365.281 519.716L363.499 519.249C360.842 518.548 359.674 517.321 359.674 515.569C359.674 513.291 361.689 511.655 364.492 511.655C366.595 511.655 368.377 512.531 369.545 514.05C369.691 514.254 369.837 514.459 369.954 514.663L368.377 515.481C368.289 515.306 368.172 515.131 368.055 514.955C367.325 513.904 366.04 513.262 364.492 513.262C362.506 513.262 361.513 514.167 361.513 515.423C361.513 516.27 361.893 516.971 363.937 517.467L365.953 517.964C369.165 518.752 370.129 520.066 370.129 522.14C370.129 524.593 367.851 526.404 364.872 526.404Z" fill="white"/>
<path d="M351.097 526.404C348.848 526.404 346.599 525.411 345.343 523.279C345.227 523.074 345.11 522.841 344.993 522.607L346.658 521.877C346.745 522.081 346.833 522.286 346.95 522.49C347.826 524.009 349.344 524.797 351.126 524.797C353.112 524.797 354.514 523.775 354.514 522.227C354.514 520.65 353.784 520.3 351.506 519.716L349.724 519.249C347.066 518.548 345.898 517.321 345.898 515.569C345.898 513.291 347.913 511.655 350.717 511.655C352.82 511.655 354.601 512.531 355.769 514.05C355.915 514.254 356.062 514.459 356.178 514.663L354.601 515.481C354.514 515.306 354.397 515.131 354.28 514.955C353.55 513.904 352.265 513.262 350.717 513.262C348.731 513.262 347.738 514.167 347.738 515.423C347.738 516.27 348.118 516.971 350.162 517.467L352.177 517.964C355.39 518.752 356.354 520.066 356.354 522.14C356.354 524.593 354.076 526.404 351.097 526.404Z" fill="white"/>
<path d="M336.431 526.404C332.546 526.404 329.86 523.22 329.86 519.073C329.86 514.868 332.546 511.655 336.401 511.655C340.461 511.655 342.534 515.335 342.534 518.81V519.102H331.875C331.933 522.578 333.627 524.739 336.401 524.739C338.271 524.739 339.672 523.98 340.519 522.257C340.607 522.081 340.665 521.906 340.753 521.702L342.388 522.198C342.301 522.373 342.242 522.549 342.155 522.695C340.928 525.06 339.001 526.404 336.431 526.404ZM331.962 517.613H340.607C340.315 515.335 339.088 513.291 336.372 513.291C333.802 513.291 332.284 515.014 331.962 517.613Z" fill="white"/>
<path d="M321.227 526.404C317.342 526.404 314.743 523.22 314.743 519.044C314.743 514.839 317.342 511.655 321.227 511.655C324.235 511.655 325.987 513.437 326.951 515.802C326.98 515.919 327.038 516.036 327.068 516.153L325.315 516.795C325.257 516.62 325.228 516.474 325.169 516.328C324.352 514.284 323.096 513.32 321.197 513.32C318.423 513.32 316.758 515.715 316.758 519.044C316.758 522.344 318.423 524.739 321.197 524.739C323.096 524.739 324.498 523.834 325.169 521.789C325.228 521.614 325.257 521.497 325.315 521.264L327.038 521.906L326.863 522.373C325.841 524.943 323.943 526.404 321.227 526.404Z" fill="white"/>
<path d="M305.314 526.404C301.605 526.404 298.772 523.279 298.772 519.044C298.772 514.839 301.605 511.655 305.314 511.655C308.993 511.655 311.826 514.839 311.826 519.044C311.826 523.279 308.993 526.404 305.314 526.404ZM300.845 519.044C300.845 522.49 302.51 524.768 305.314 524.768C308.117 524.768 309.753 522.49 309.753 519.044C309.753 515.54 308.117 513.291 305.314 513.291C302.51 513.291 300.845 515.54 300.845 519.044Z" fill="white"/>
<path d="M289.643 525.966V512.094H291.483V516.241C292.885 513.584 295.251 512.153 296.974 511.919V514.109C295.076 514.109 291.542 515.862 291.542 518.811V525.966H289.643Z" fill="white"/>
<path d="M273.244 530.638V512.093H275.084V515.277C275.814 513.116 277.8 511.685 279.874 511.685C283.32 511.685 285.569 514.839 285.569 519.073C285.569 523.25 282.97 526.404 279.757 526.404C277.654 526.404 275.96 525.06 275.143 523.104V530.638H273.244ZM275.113 519.073C275.113 522.49 276.778 524.71 279.407 524.71C281.947 524.71 283.554 522.461 283.554 519.073C283.554 515.598 282.035 513.378 279.436 513.378C276.866 513.378 275.113 515.598 275.113 519.073Z" fill="white"/>
<path d="M249.259 525.965V512.093H251.099V514.896C251.858 512.939 253.318 511.713 255.538 511.713C258.517 511.713 260.211 513.816 260.211 516.882V525.965H258.312V517.116C258.312 514.779 257.348 513.378 255.1 513.378C252.588 513.378 251.157 515.217 251.157 518.401V525.965H249.259Z" fill="white"/>
<path d="M238.69 526.404C234.981 526.404 232.148 523.279 232.148 519.044C232.148 514.839 234.981 511.655 238.69 511.655C242.37 511.655 245.203 514.839 245.203 519.044C245.203 523.279 242.37 526.404 238.69 526.404ZM234.222 519.044C234.222 522.49 235.887 524.768 238.69 524.768C241.494 524.768 243.129 522.49 243.129 519.044C243.129 515.54 241.494 513.291 238.69 513.291C235.887 513.291 234.222 515.54 234.222 519.044Z" fill="white"/>
<path d="M226.186 525.966V512.094H228.084V525.966H226.186ZM226.157 508.735V505.522H228.113V508.735H226.157Z" fill="white"/>
<path d="M220.06 526.113C218.717 526.113 217.811 525.704 217.344 524.828C217.11 524.39 216.994 523.835 216.994 523.163V513.613H214.19V512.095H216.994V506.838H218.892V512.095H222.309V513.613H218.892V522.725C218.892 523.222 218.95 523.572 219.096 523.835C219.33 524.302 219.768 524.478 220.381 524.478C221.141 524.478 222.046 524.273 222.543 524.04V525.704C221.754 525.996 220.79 526.113 220.06 526.113Z" fill="white"/>
<path d="M204.355 526.404C202.165 526.404 200.179 525.06 200.179 522.519C200.179 520.563 201.289 518.81 205.027 518.051L209.087 517.204V516.357C209.087 514.605 208.269 513.262 205.962 513.262C203.917 513.262 202.778 514.225 202.457 515.656H200.413C201.055 513.232 203.158 511.655 206.079 511.655C209.087 511.655 210.985 513.495 210.985 516.182V522.987C210.985 524.155 211.452 524.71 212.328 524.71C212.65 524.71 212.854 524.651 213.146 524.535V525.936C212.883 526.112 212.474 526.287 211.861 526.287C210.255 526.287 209.262 525.206 209.145 523.366C207.977 525.382 206.283 526.404 204.355 526.404ZM202.165 522.403C202.165 524.155 203.479 524.768 204.969 524.768C206.955 524.768 209.116 523.074 209.116 520.796V518.489L205.845 519.249C202.983 519.92 202.165 521.147 202.165 522.403Z" fill="white"/>
<path d="M195.105 526.113C193.761 526.113 192.856 525.704 192.389 524.828C192.155 524.39 192.038 523.835 192.038 523.163V513.613H189.235V512.095H192.038V506.838H193.937V512.095H197.354V513.613H193.937V522.725C193.937 523.222 193.995 523.572 194.141 523.835C194.375 524.302 194.813 524.478 195.426 524.478C196.185 524.478 197.091 524.273 197.587 524.04V525.704C196.799 525.996 195.835 526.113 195.105 526.113Z" fill="white"/>
<path d="M175.363 525.965V512.093H177.203V514.896C177.962 512.939 179.422 511.713 181.642 511.713C184.621 511.713 186.314 513.816 186.314 516.882V525.965H184.416V517.116C184.416 514.779 183.452 513.378 181.204 513.378C178.692 513.378 177.261 515.217 177.261 518.401V525.965H175.363Z" fill="white"/>
<path d="M165.223 526.404C161.339 526.404 158.652 523.22 158.652 519.073C158.652 514.868 161.339 511.655 165.194 511.655C169.254 511.655 171.327 515.335 171.327 518.81V519.102H160.667C160.726 522.578 162.42 524.739 165.194 524.739C167.063 524.739 168.465 523.98 169.312 522.257C169.4 522.081 169.458 521.906 169.546 521.702L171.181 522.198C171.093 522.373 171.035 522.549 170.947 522.695C169.721 525.06 167.793 526.404 165.223 526.404ZM160.755 517.613H169.4C169.108 515.335 167.881 513.291 165.165 513.291C162.595 513.291 161.076 515.014 160.755 517.613Z" fill="white"/>
<path d="M136.974 525.965V512.093H138.814V514.838C139.486 512.91 140.742 511.713 142.728 511.713C144.772 511.713 146.057 512.998 146.524 514.955C147.196 512.969 148.569 511.713 150.671 511.713C153.3 511.713 154.76 513.786 154.76 516.561V525.965H152.862V516.795C152.862 514.721 152.044 513.378 150.146 513.378C148.043 513.378 146.816 515.217 146.816 518.401V525.965H144.918V516.795C144.918 514.75 144.129 513.378 142.202 513.378C140.099 513.378 138.873 515.217 138.873 518.401V525.965H136.974Z" fill="white"/>
<path d="M129.873 525.966V512.094H131.771V525.966H129.873ZM129.844 508.735V505.522H131.8V508.735H129.844Z" fill="white"/>
<path d="M119.149 525.966V512.094H120.989V516.241C122.391 513.584 124.756 512.153 126.48 511.919V514.109C124.581 514.109 121.047 515.862 121.047 518.811V525.966H119.149Z" fill="white"/>
<path d="M109.01 526.404C105.126 526.404 102.439 523.22 102.439 519.073C102.439 514.868 105.126 511.655 108.981 511.655C113.04 511.655 115.114 515.335 115.114 518.81V519.102H104.454C104.512 522.578 106.206 524.739 108.981 524.739C110.85 524.739 112.252 523.98 113.098 522.257C113.186 522.081 113.244 521.906 113.332 521.702L114.968 522.198C114.88 522.373 114.822 522.549 114.734 522.695C113.507 525.06 111.58 526.404 109.01 526.404ZM104.541 517.613H113.186C112.894 515.335 111.667 513.291 108.951 513.291C106.381 513.291 104.863 515.014 104.541 517.613Z" fill="white"/>
<path d="M87.1493 530.638V512.093H88.9892V515.277C89.7193 513.116 91.7053 511.685 93.7788 511.685C97.225 511.685 99.4737 514.839 99.4737 519.073C99.4737 523.25 96.8745 526.404 93.662 526.404C91.5592 526.404 89.8654 525.06 89.0476 523.104V530.638H87.1493ZM89.0184 519.073C89.0184 522.49 90.6831 524.71 93.3115 524.71C95.8523 524.71 97.4586 522.461 97.4586 519.073C97.4586 515.598 95.94 513.378 93.3407 513.378C90.7707 513.378 89.0184 515.598 89.0184 519.073Z" fill="white"/>
<path d="M71.674 525.966L76.6972 518.84L72.0536 512.094H74.244L77.8362 517.555L81.3116 512.094H83.5311L78.9168 518.84L83.9108 525.966H81.6912L77.807 520.125L73.8935 525.966H71.674Z" fill="white"/>
<path d="M63.7481 526.404C59.8638 526.404 57.177 523.22 57.177 519.073C57.177 514.868 59.8638 511.655 63.7189 511.655C67.7783 511.655 69.8519 515.335 69.8519 518.81V519.102H59.1921C59.2505 522.578 60.9444 524.739 63.7189 524.739C65.588 524.739 66.9898 523.98 67.8368 522.257C67.9244 522.081 67.9828 521.906 68.0704 521.702L69.7059 522.198C69.6182 522.373 69.5598 522.549 69.4722 522.695C68.2456 525.06 66.3181 526.404 63.7481 526.404ZM59.2798 517.613H67.9244C67.6323 515.335 66.4057 513.291 63.6897 513.291C61.1197 513.291 59.601 515.014 59.2798 517.613Z" fill="white"/>
<path d="M38.5177 526.404C35.1299 526.404 32.7351 523.308 32.7351 519.073C32.7351 514.868 35.1883 511.655 38.6345 511.655C40.6496 511.655 42.4311 512.999 43.1612 515.072V505.522H45.0595V525.966H43.2196V522.929C42.3727 524.973 40.562 526.404 38.5177 526.404ZM34.7502 519.073C34.7502 522.52 36.3273 524.71 38.8681 524.71C41.4966 524.71 43.1904 522.49 43.1904 519.073C43.1904 515.569 41.555 513.349 38.9849 513.349C36.3857 513.349 34.7502 515.627 34.7502 519.073Z" fill="white"/>
<path d="M17.902 525.965V512.093H19.7419V514.896C20.5013 512.939 21.9615 511.713 24.1811 511.713C27.16 511.713 28.8538 513.816 28.8538 516.882V525.965H26.9555V517.116C26.9555 514.779 25.9918 513.378 23.743 513.378C21.2314 513.378 19.8004 515.217 19.8004 518.401V525.965H17.902Z" fill="white"/>
<path d="M6.11084 526.404C3.92048 526.404 1.93455 525.06 1.93455 522.519C1.93455 520.563 3.04433 518.81 6.78255 518.051L10.842 517.204V516.357C10.842 514.605 10.0243 513.262 7.7171 513.262C5.67276 513.262 4.53378 514.225 4.21253 515.656H2.16819C2.81069 513.232 4.91344 511.655 7.83392 511.655C10.842 511.655 12.7403 513.495 12.7403 516.182V522.987C12.7403 524.155 13.2076 524.71 14.0837 524.71C14.405 524.71 14.6094 524.651 14.9015 524.535V525.936C14.6386 526.112 14.2298 526.287 13.6165 526.287C12.0102 526.287 11.0172 525.206 10.9004 523.366C9.73223 525.382 8.03835 526.404 6.11084 526.404ZM3.92048 522.403C3.92048 524.155 5.23469 524.768 6.72414 524.768C8.71006 524.768 10.8712 523.074 10.8712 520.796V518.489L7.60028 519.249C4.73821 519.92 3.92048 521.147 3.92048 522.403Z" fill="white"/>
<path d="M541.278 487.583V467.14H543.176V476.368C543.936 474.499 545.396 473.331 547.557 473.331C550.536 473.331 552.23 475.434 552.23 478.5V487.583H550.332V478.734C550.332 476.398 549.339 474.996 547.119 474.996C544.607 474.996 543.176 476.836 543.176 480.019V487.583H541.278Z" fill="white"/>
<path d="M531.535 488.02C527.651 488.02 525.052 484.837 525.052 480.66C525.052 476.455 527.651 473.271 531.535 473.271C534.543 473.271 536.296 475.053 537.259 477.419C537.289 477.535 537.347 477.652 537.376 477.769L535.624 478.412C535.566 478.236 535.536 478.09 535.478 477.944C534.66 475.9 533.404 474.936 531.506 474.936C528.732 474.936 527.067 477.331 527.067 480.66C527.067 483.96 528.732 486.355 531.506 486.355C533.404 486.355 534.806 485.45 535.478 483.406C535.536 483.23 535.566 483.113 535.624 482.88L537.347 483.522L537.172 483.99C536.15 486.56 534.251 488.02 531.535 488.02Z" fill="white"/>
<path d="M515.924 487.582V473.709H517.763V477.856C519.165 475.199 521.531 473.768 523.254 473.534V475.725C521.356 475.725 517.822 477.477 517.822 480.427V487.582H515.924Z" fill="white"/>
<path d="M504.132 488.02C501.942 488.02 499.956 486.676 499.956 484.136C499.956 482.179 501.066 480.427 504.804 479.667L508.864 478.82V477.973C508.864 476.221 508.046 474.878 505.739 474.878C503.694 474.878 502.555 475.842 502.234 477.273H500.19C500.832 474.849 502.935 473.271 505.855 473.271C508.864 473.271 510.762 475.111 510.762 477.798V484.603C510.762 485.771 511.229 486.326 512.105 486.326C512.426 486.326 512.631 486.268 512.923 486.151V487.553C512.66 487.728 512.251 487.903 511.638 487.903C510.032 487.903 509.039 486.822 508.922 484.983C507.754 486.998 506.06 488.02 504.132 488.02ZM501.942 484.019C501.942 485.771 503.256 486.384 504.746 486.384C506.732 486.384 508.893 484.691 508.893 482.413V480.105L505.622 480.865C502.76 481.536 501.942 482.763 501.942 484.019Z" fill="white"/>
<path d="M490.868 488.02C486.984 488.02 484.297 484.837 484.297 480.689C484.297 476.484 486.984 473.271 490.839 473.271C494.898 473.271 496.972 476.951 496.972 480.427V480.719H486.312C486.371 484.194 488.064 486.355 490.839 486.355C492.708 486.355 494.11 485.596 494.957 483.873C495.044 483.698 495.103 483.522 495.19 483.318L496.826 483.814C496.738 483.99 496.68 484.165 496.592 484.311C495.366 486.676 493.438 488.02 490.868 488.02ZM486.4 479.229H495.044C494.752 476.951 493.526 474.907 490.81 474.907C488.24 474.907 486.721 476.63 486.4 479.229Z" fill="white"/>
<path d="M476.158 488.02C473.91 488.02 471.661 487.027 470.405 484.895C470.288 484.691 470.171 484.457 470.054 484.223L471.719 483.493C471.807 483.698 471.894 483.902 472.011 484.106C472.887 485.625 474.406 486.414 476.188 486.414C478.173 486.414 479.575 485.391 479.575 483.844C479.575 482.267 478.845 481.916 476.567 481.332L474.786 480.865C472.128 480.164 470.96 478.937 470.96 477.185C470.96 474.907 472.975 473.271 475.779 473.271C477.881 473.271 479.663 474.148 480.831 475.666C480.977 475.871 481.123 476.075 481.24 476.28L479.663 477.097C479.575 476.922 479.458 476.747 479.342 476.572C478.611 475.52 477.327 474.878 475.779 474.878C473.793 474.878 472.8 475.783 472.8 477.039C472.8 477.886 473.179 478.587 475.224 479.083L477.239 479.58C480.451 480.368 481.415 481.682 481.415 483.756C481.415 486.209 479.137 488.02 476.158 488.02Z" fill="white"/>
<path d="M461.492 488.02C457.608 488.02 454.921 484.837 454.921 480.689C454.921 476.484 457.608 473.271 461.463 473.271C465.522 473.271 467.596 476.951 467.596 480.427V480.719H456.936C456.995 484.194 458.689 486.355 461.463 486.355C463.332 486.355 464.734 485.596 465.581 483.873C465.668 483.698 465.727 483.522 465.815 483.318L467.45 483.814C467.362 483.99 467.304 484.165 467.216 484.311C465.99 486.676 464.062 488.02 461.492 488.02ZM457.024 479.229H465.668C465.376 476.951 464.15 474.907 461.434 474.907C458.864 474.907 457.345 476.63 457.024 479.229Z" fill="white"/>
<path d="M445.764 487.582V473.709H447.603V477.856C449.005 475.199 451.371 473.768 453.094 473.534V475.725C451.196 475.725 447.662 477.477 447.662 480.427V487.582H445.764Z" fill="white"/>
<path d="M427.582 488.02C423.697 488.02 421.01 484.837 421.01 480.689C421.01 476.484 423.697 473.271 427.552 473.271C431.612 473.271 433.685 476.951 433.685 480.427V480.719H423.026C423.084 484.194 424.778 486.355 427.552 486.355C429.421 486.355 430.823 485.596 431.67 483.873C431.758 483.698 431.816 483.522 431.904 483.318L433.539 483.814C433.452 483.99 433.393 484.165 433.306 484.311C432.079 486.676 430.152 488.02 427.582 488.02ZM423.113 479.229H431.758C431.466 476.951 430.239 474.907 427.523 474.907C424.953 474.907 423.434 476.63 423.113 479.229Z" fill="white"/>
<path d="M406.177 487.583V467.14H408.076V476.368C408.835 474.499 410.295 473.331 412.456 473.331C415.435 473.331 417.129 475.434 417.129 478.5V487.583H415.231V478.734C415.231 476.398 414.238 474.996 412.018 474.996C409.507 474.996 408.076 476.836 408.076 480.019V487.583H406.177Z" fill="white"/>
<path d="M400.052 487.728C398.708 487.728 397.803 487.319 397.336 486.443C397.102 486.005 396.985 485.45 396.985 484.779V475.229H394.182V473.71H396.985V468.453H398.884V473.71H402.3V475.229H398.884V484.341C398.884 484.837 398.942 485.187 399.088 485.45C399.322 485.918 399.76 486.093 400.373 486.093C401.132 486.093 402.038 485.888 402.534 485.655V487.319C401.746 487.611 400.782 487.728 400.052 487.728Z" fill="white"/>
<path d="M380.672 470.409C380.672 467.985 381.694 466.7 384.089 466.7C384.878 466.7 385.608 466.817 385.988 466.905V468.482C385.433 468.365 384.878 468.277 384.264 468.277C382.979 468.277 382.571 468.978 382.571 470.409V473.709H385.988V475.228H382.571V487.582H380.672V475.228H377.869V473.709H380.672V470.409Z" fill="white"/>
<path d="M369.427 488.02C365.718 488.02 362.885 484.895 362.885 480.66C362.885 476.455 365.718 473.271 369.427 473.271C373.107 473.271 375.94 476.455 375.94 480.66C375.94 484.895 373.107 488.02 369.427 488.02ZM364.959 480.66C364.959 484.106 366.624 486.384 369.427 486.384C372.231 486.384 373.866 484.106 373.866 480.66C373.866 477.156 372.231 474.907 369.427 474.907C366.624 474.907 364.959 477.156 364.959 480.66Z" fill="white"/>
<path d="M345.842 488.02C341.958 488.02 339.271 484.837 339.271 480.689C339.271 476.484 341.958 473.271 345.813 473.271C349.873 473.271 351.946 476.951 351.946 480.427V480.719H341.286C341.345 484.194 343.039 486.355 345.813 486.355C347.682 486.355 349.084 485.596 349.931 483.873C350.019 483.698 350.077 483.522 350.165 483.318L351.8 483.814C351.712 483.99 351.654 484.165 351.566 484.311C350.34 486.676 348.412 488.02 345.842 488.02ZM341.374 479.229H350.019C349.727 476.951 348.5 474.907 345.784 474.907C343.214 474.907 341.695 476.63 341.374 479.229Z" fill="white"/>
<path d="M324.438 487.583V473.711H326.278V476.514C327.038 474.558 328.498 473.331 330.717 473.331C333.696 473.331 335.39 475.434 335.39 478.5V487.583H333.492V478.734C333.492 476.398 332.528 474.996 330.279 474.996C327.768 474.996 326.337 476.836 326.337 480.019V487.583H324.438Z" fill="white"/>
<path d="M317.337 487.583V473.711H319.235V487.583H317.337ZM317.307 470.352V467.14H319.264V470.352H317.307Z" fill="white"/>
<path d="M310.235 487.583V467.14H312.133V487.583H310.235Z" fill="white"/>
<path d="M300.096 488.02C296.212 488.02 293.525 484.837 293.525 480.689C293.525 476.484 296.212 473.271 300.067 473.271C304.126 473.271 306.2 476.951 306.2 480.427V480.719H295.54C295.598 484.194 297.292 486.355 300.067 486.355C301.936 486.355 303.338 485.596 304.184 483.873C304.272 483.698 304.33 483.522 304.418 483.318L306.054 483.814C305.966 483.99 305.908 484.165 305.82 484.311C304.593 486.676 302.666 488.02 300.096 488.02ZM295.627 479.229H304.272C303.98 476.951 302.753 474.907 300.037 474.907C297.467 474.907 295.949 476.63 295.627 479.229Z" fill="white"/>
<path d="M271.847 487.583V473.711H273.687V476.456C274.358 474.528 275.614 473.331 277.6 473.331C279.644 473.331 280.929 474.616 281.397 476.573C282.068 474.587 283.441 473.331 285.544 473.331C288.172 473.331 289.632 475.405 289.632 478.179V487.583H287.734V478.413C287.734 476.339 286.916 474.996 285.018 474.996C282.915 474.996 281.689 476.836 281.689 480.019V487.583H279.79V478.413C279.79 476.368 279.002 474.996 277.074 474.996C274.972 474.996 273.745 476.836 273.745 480.019V487.583H271.847Z" fill="white"/>
<path d="M264.745 487.583V473.711H266.644V487.583H264.745ZM264.716 470.352V467.14H266.673V470.352H264.716Z" fill="white"/>
<path d="M258.619 487.728C257.276 487.728 256.371 487.319 255.903 486.443C255.67 486.005 255.553 485.45 255.553 484.779V475.229H252.749V473.71H255.553V468.453H257.451V473.71H260.868V475.229H257.451V484.341C257.451 484.837 257.51 485.187 257.656 485.45C257.889 485.918 258.327 486.093 258.941 486.093C259.7 486.093 260.605 485.888 261.102 485.655V487.319C260.313 487.611 259.35 487.728 258.619 487.728Z" fill="white"/>
<path d="M235.328 488.02C233.138 488.02 231.152 486.676 231.152 484.136C231.152 482.179 232.262 480.427 236 479.667L240.06 478.82V477.973C240.06 476.221 239.242 474.878 236.935 474.878C234.89 474.878 233.751 475.842 233.43 477.273H231.386C232.028 474.849 234.131 473.271 237.052 473.271C240.06 473.271 241.958 475.111 241.958 477.798V484.603C241.958 485.771 242.425 486.326 243.301 486.326C243.623 486.326 243.827 486.268 244.119 486.151V487.553C243.856 487.728 243.447 487.903 242.834 487.903C241.228 487.903 240.235 486.822 240.118 484.983C238.95 486.998 237.256 488.02 235.328 488.02ZM233.138 484.019C233.138 485.771 234.452 486.384 235.942 486.384C237.928 486.384 240.089 484.691 240.089 482.413V480.105L236.818 480.865C233.956 481.536 233.138 482.763 233.138 484.019Z" fill="white"/>
<path d="M217.707 490.971C218.496 490.679 218.904 489.861 218.904 488.342V487.583H217.707V484.195H220.16V488.226C220.16 491.234 218.875 492.197 217.707 492.489V490.971Z" fill="white"/>
<path d="M211.386 487.845C209.517 487.845 208.203 487.29 207.531 486.18C207.181 485.596 206.976 484.837 206.976 483.902V475.959H204.318V473.389H206.976V468.453H210.773V473.389H214.277V475.959H210.773V482.939C210.773 483.494 210.831 483.932 211.036 484.224C211.328 484.72 211.853 484.895 212.554 484.895C213.284 484.895 214.044 484.749 214.511 484.516V487.29C213.401 487.699 212.554 487.845 211.386 487.845Z" fill="white"/>
<path d="M188.897 487.583V473.39H192.606V475.989C193.541 474.061 195.06 473.068 197.075 473.068C200.054 473.068 201.894 475.171 201.894 478.384V487.583H198.097V478.88C198.097 477.099 197.338 475.989 195.585 475.989C193.687 475.989 192.694 477.332 192.694 479.581V487.583H188.897Z" fill="white"/>
<path d="M178.977 488.108C174.713 488.108 171.734 485.041 171.734 480.573C171.734 476.104 174.713 473.009 178.889 473.009C183.27 473.009 185.723 476.397 185.723 480.427V481.157H175.56C175.648 483.727 177.02 485.246 179.094 485.246C180.408 485.246 181.547 484.603 182.16 483.406C182.248 483.23 182.365 483.026 182.423 482.822L185.577 483.493C185.519 483.669 185.431 483.844 185.344 484.048C184.146 486.677 181.868 488.108 178.977 488.108ZM175.648 478.85H182.073C181.868 477.097 180.904 475.696 178.977 475.696C177.137 475.696 175.94 476.864 175.648 478.85Z" fill="white"/>
<path d="M163.247 488.108C160.151 488.108 157.786 486.91 156.53 484.808L156.18 484.107L159.188 482.997C159.275 483.172 159.363 483.347 159.48 483.523C160.268 484.72 161.699 485.508 163.276 485.508C164.824 485.508 165.846 484.808 165.846 483.698C165.846 482.676 165.087 482.413 163.393 482.033L161.407 481.624C158.312 480.982 157.085 479.609 157.085 477.448C157.085 474.819 159.538 473.009 163.014 473.009C165.496 473.009 167.599 473.973 168.942 475.637C169.088 475.871 169.263 476.134 169.409 476.397L166.547 477.506C166.46 477.331 166.343 477.156 166.168 476.981C165.379 476.134 164.24 475.608 163.043 475.608C161.466 475.608 160.531 476.309 160.531 477.243C160.531 478.032 161.028 478.441 162.4 478.675L164.853 479.083C167.54 479.551 169.585 480.573 169.585 483.318C169.585 486.268 166.869 488.108 163.247 488.108Z" fill="white"/>
<path d="M147.69 488.108C143.426 488.108 140.447 485.041 140.447 480.573C140.447 476.104 143.426 473.009 147.603 473.009C151.983 473.009 154.436 476.397 154.436 480.427V481.157H144.273C144.361 483.727 145.733 485.246 147.807 485.246C149.121 485.246 150.26 484.603 150.873 483.406C150.961 483.23 151.078 483.026 151.136 482.822L154.29 483.493C154.232 483.669 154.144 483.844 154.057 484.048C152.859 486.677 150.581 488.108 147.69 488.108ZM144.361 478.85H150.786C150.581 477.097 149.618 475.696 147.69 475.696C145.85 475.696 144.653 476.864 144.361 478.85Z" fill="white"/>
<path d="M130.06 487.582V473.389H133.769V477.478C135.054 474.44 136.66 473.301 139.114 473.155V476.835C136.368 476.747 133.857 478.178 133.857 480.953V487.582H130.06Z" fill="white"/>
<path d="M112.606 492.256V473.39H116.315V476.485C117.016 474.412 118.855 473.039 121.075 473.039C124.55 473.039 126.828 476.164 126.828 480.545C126.828 484.779 124.258 488.109 120.9 488.109C118.68 488.109 117.162 486.882 116.402 485.071V492.256H112.606ZM116.373 480.545C116.373 483.465 117.6 485.217 119.673 485.217C121.718 485.217 122.915 483.436 122.915 480.545C122.915 477.741 121.747 475.96 119.702 475.96C117.658 475.96 116.373 477.741 116.373 480.545Z" fill="white"/>
<path d="M95.2984 488.108C91.0345 488.108 88.0556 485.041 88.0556 480.573C88.0556 476.104 91.0345 473.009 95.2108 473.009C99.5915 473.009 102.045 476.397 102.045 480.427V481.157H91.8814C91.969 483.727 93.3417 485.246 95.4152 485.246C96.7294 485.246 97.8684 484.603 98.4817 483.406C98.5693 483.23 98.6861 483.026 98.7446 482.822L101.899 483.493C101.84 483.669 101.753 483.844 101.665 484.048C100.468 486.677 98.1897 488.108 95.2984 488.108ZM91.969 478.85H98.3941C98.1897 477.097 97.2259 475.696 95.2984 475.696C93.4585 475.696 92.2611 476.864 91.969 478.85Z" fill="white"/>
<path d="M72.0212 487.583V467.14H75.8179V475.813C76.7524 474.003 78.2419 473.068 80.1986 473.068C83.1775 473.068 85.0174 475.171 85.0174 478.383V487.583H81.2208V478.88C81.2208 477.098 80.4614 475.989 78.7091 475.989C76.8108 475.989 75.8179 477.332 75.8179 479.581V487.583H72.0212Z" fill="white"/>
<path d="M65.8755 487.845C64.0064 487.845 62.6921 487.29 62.0204 486.18C61.67 485.596 61.4655 484.837 61.4655 483.902V475.959H58.8079V473.389H61.4655V468.453H65.2622V473.389H68.7667V475.959H65.2622V482.939C65.2622 483.494 65.3206 483.932 65.525 484.224C65.8171 484.72 66.3427 484.895 67.0437 484.895C67.7738 484.895 68.5331 484.749 69.0004 484.516V487.29C67.8906 487.699 67.0437 487.845 65.8755 487.845Z" fill="white"/>
<path d="M40.5948 488.109C37.0319 488.109 34.6663 484.925 34.6663 480.603C34.6663 476.31 37.1779 473.01 40.7993 473.01C42.8144 473.01 44.3915 474.266 45.1216 476.193V467.14H48.9182V487.583H45.2092V484.663C44.4499 486.678 42.7268 488.109 40.5948 488.109ZM38.5797 480.603C38.5797 483.494 39.7771 485.217 41.7922 485.217C43.8658 485.217 45.1508 483.465 45.1508 480.603C45.1508 477.683 43.9242 475.959 41.8799 475.959C39.8063 475.959 38.5797 477.741 38.5797 480.603Z" fill="white"/>
<path d="M18.6027 487.583V473.39H22.3117V475.989C23.2463 474.061 24.7649 473.068 26.7801 473.068C29.759 473.068 31.5989 475.171 31.5989 478.384V487.583H27.8022V478.88C27.8022 477.099 27.0429 475.989 25.2906 475.989C23.3923 475.989 22.3994 477.332 22.3994 479.581V487.583H18.6027Z" fill="white"/>
<path d="M6.25687 488.02C3.54082 488.02 1.5841 486.472 1.5841 483.785C1.5841 481.391 3.10275 479.93 6.40289 479.288L10.4624 478.558V478.09C10.4624 476.601 9.84905 475.579 8.06756 475.579C6.54891 475.579 5.67277 476.367 5.46834 477.448H1.78853C2.43104 474.849 4.73822 473.009 8.35961 473.009C12.1562 473.009 14.1422 474.761 14.1422 477.915V483.902C14.1422 484.808 14.4926 485.187 15.2227 485.187C15.4564 485.187 15.6316 485.158 15.8944 485.041V487.524C15.2811 487.757 14.6678 487.903 13.9085 487.903C12.0978 487.903 11.0172 487.056 10.6376 485.567C9.55701 487.202 8.09677 488.02 6.25687 488.02ZM5.20549 483.581C5.20549 484.808 6.11084 485.421 7.36665 485.421C8.94371 485.421 10.4916 484.369 10.4916 482.53V480.602L7.7171 481.215C5.96482 481.624 5.20549 482.384 5.20549 483.581Z" fill="white"/>
<path d="M477.11 449.462C475.241 449.462 473.926 448.907 473.255 447.798C472.904 447.214 472.7 446.454 472.7 445.52V437.576H470.042V435.006H472.7V430.07H476.496V435.006H480.001V437.576H476.496V444.556C476.496 445.111 476.555 445.549 476.759 445.841C477.051 446.337 477.577 446.513 478.278 446.513C479.008 446.513 479.767 446.367 480.235 446.133V448.907C479.125 449.316 478.278 449.462 477.11 449.462Z" fill="white"/>
<path d="M462.168 449.725C459.073 449.725 456.707 448.527 455.451 446.425L455.101 445.724L458.109 444.614C458.197 444.789 458.284 444.964 458.401 445.14C459.19 446.337 460.621 447.126 462.198 447.126C463.746 447.126 464.768 446.425 464.768 445.315C464.768 444.293 464.008 444.03 462.314 443.65L460.329 443.241C457.233 442.599 456.006 441.226 456.006 439.065C456.006 436.437 458.459 434.626 461.935 434.626C464.417 434.626 466.52 435.59 467.863 437.254C468.009 437.488 468.185 437.751 468.331 438.014L465.469 439.124C465.381 438.948 465.264 438.773 465.089 438.598C464.3 437.751 463.161 437.225 461.964 437.225C460.387 437.225 459.452 437.926 459.452 438.861C459.452 439.649 459.949 440.058 461.322 440.292L463.775 440.701C466.462 441.168 468.506 442.19 468.506 444.935C468.506 447.885 465.79 449.725 462.168 449.725Z" fill="white"/>
<path d="M444.186 449.637C441.47 449.637 439.513 448.089 439.513 445.403C439.513 443.008 441.032 441.548 444.332 440.905L448.392 440.175V439.708C448.392 438.218 447.778 437.196 445.997 437.196C444.478 437.196 443.602 437.985 443.398 439.065H439.718C440.36 436.466 442.667 434.626 446.289 434.626C450.085 434.626 452.071 436.378 452.071 439.532V445.519C452.071 446.425 452.422 446.804 453.152 446.804C453.386 446.804 453.561 446.775 453.824 446.658V449.141C453.21 449.374 452.597 449.52 451.838 449.52C450.027 449.52 448.946 448.673 448.567 447.184C447.486 448.82 446.026 449.637 444.186 449.637ZM443.135 445.198C443.135 446.425 444.04 447.038 445.296 447.038C446.873 447.038 448.421 445.987 448.421 444.147V442.219L445.646 442.833C443.894 443.241 443.135 444.001 443.135 445.198Z" fill="white"/>
<path d="M422.935 453.872V435.006H426.644V438.101C427.345 436.028 429.185 434.655 431.404 434.655C434.88 434.655 437.158 437.78 437.158 442.161C437.158 446.396 434.588 449.725 431.229 449.725C429.01 449.725 427.491 448.498 426.732 446.688V453.872H422.935ZM426.702 442.161C426.702 445.081 427.929 446.834 430.003 446.834C432.047 446.834 433.244 445.052 433.244 442.161C433.244 439.357 432.076 437.576 430.032 437.576C427.987 437.576 426.702 439.357 426.702 442.161Z" fill="white"/>
<path d="M405.279 449.637C401.394 449.637 398.708 446.454 398.708 442.307C398.708 438.101 401.394 434.889 405.249 434.889C409.309 434.889 411.382 438.568 411.382 442.044V442.336H400.723C400.781 445.811 402.475 447.972 405.249 447.972C407.119 447.972 408.52 447.213 409.367 445.49C409.455 445.315 409.513 445.14 409.601 444.935L411.236 445.432C411.149 445.607 411.09 445.782 411.003 445.928C409.776 448.294 407.849 449.637 405.279 449.637ZM400.81 440.846H409.455C409.163 438.568 407.936 436.524 405.22 436.524C402.65 436.524 401.132 438.247 400.81 440.846Z" fill="white"/>
<path d="M383.875 449.199V428.756H385.773V437.985C386.532 436.115 387.992 434.947 390.154 434.947C393.132 434.947 394.826 437.05 394.826 440.117V449.199H392.928V440.35C392.928 438.014 391.935 436.612 389.715 436.612C387.204 436.612 385.773 438.452 385.773 441.635V449.199H383.875Z" fill="white"/>
<path d="M377.749 449.345C376.405 449.345 375.5 448.937 375.033 448.06C374.799 447.622 374.682 447.068 374.682 446.396V436.846H371.879V435.327H374.682V430.07H376.581V435.327H379.998V436.846H376.581V445.958C376.581 446.454 376.639 446.805 376.785 447.068C377.019 447.535 377.457 447.71 378.07 447.71C378.829 447.71 379.735 447.506 380.231 447.272V448.937C379.443 449.229 378.479 449.345 377.749 449.345Z" fill="white"/>
<path d="M350.306 449.199V435.327H352.146V438.131C352.905 436.174 354.366 434.947 356.585 434.947C359.564 434.947 361.258 437.05 361.258 440.117V449.199H359.36V440.35C359.36 438.014 358.396 436.612 356.147 436.612C353.635 436.612 352.204 438.452 352.204 441.635V449.199H350.306Z" fill="white"/>
<path d="M340.167 449.637C336.283 449.637 333.596 446.454 333.596 442.307C333.596 438.101 336.283 434.889 340.138 434.889C344.197 434.889 346.271 438.568 346.271 442.044V442.336H335.611C335.669 445.811 337.363 447.972 340.138 447.972C342.007 447.972 343.409 447.213 344.256 445.49C344.343 445.315 344.402 445.14 344.489 444.935L346.125 445.432C346.037 445.607 345.979 445.782 345.891 445.928C344.664 448.294 342.737 449.637 340.167 449.637ZM335.698 440.846H344.343C344.051 438.568 342.824 436.524 340.108 436.524C337.538 436.524 336.02 438.247 335.698 440.846Z" fill="white"/>
<path d="M324.566 449.637C320.682 449.637 317.995 446.454 317.995 442.307C317.995 438.101 320.682 434.889 324.537 434.889C328.596 434.889 330.67 438.568 330.67 442.044V442.336H320.01C320.069 445.811 321.763 447.972 324.537 447.972C326.406 447.972 327.808 447.213 328.655 445.49C328.742 445.315 328.801 445.14 328.888 444.935L330.524 445.432C330.436 445.607 330.378 445.782 330.29 445.928C329.064 448.294 327.136 449.637 324.566 449.637ZM320.098 440.846H328.742C328.45 438.568 327.224 436.524 324.508 436.524C321.938 436.524 320.419 438.247 320.098 440.846Z" fill="white"/>
<path d="M300.796 449.199L296.678 435.327H298.664L301.701 446.659L305.031 435.327H307.104L310.58 446.717L313.617 435.327H315.574L311.427 449.199H309.733L306.053 437.225L302.49 449.199H300.796Z" fill="white"/>
<path d="M292.188 449.345C290.844 449.345 289.939 448.937 289.472 448.06C289.238 447.622 289.121 447.068 289.121 446.396V436.846H286.318V435.327H289.121V430.07H291.02V435.327H294.437V436.846H291.02V445.958C291.02 446.454 291.078 446.805 291.224 447.068C291.458 447.535 291.896 447.71 292.509 447.71C293.268 447.71 294.174 447.506 294.67 447.272V448.937C293.882 449.229 292.918 449.345 292.188 449.345Z" fill="white"/>
<path d="M278.278 449.637C274.393 449.637 271.707 446.454 271.707 442.307C271.707 438.101 274.393 434.889 278.249 434.889C282.308 434.889 284.382 438.568 284.382 442.044V442.336H273.722C273.78 445.811 275.474 447.972 278.249 447.972C280.118 447.972 281.519 447.213 282.366 445.49C282.454 445.315 282.512 445.14 282.6 444.935L284.235 445.432C284.148 445.607 284.089 445.782 284.002 445.928C282.775 448.294 280.848 449.637 278.278 449.637ZM273.809 440.846H282.454C282.162 438.568 280.935 436.524 278.219 436.524C275.649 436.524 274.131 438.247 273.809 440.846Z" fill="white"/>
<path d="M262.93 449.637C260.798 449.637 259.046 448.235 258.257 446.191V449.199H256.417V428.756H258.316V438.335C259.075 436.291 261.032 434.918 263.047 434.918C266.493 434.918 268.742 438.043 268.742 442.278C268.742 446.483 266.143 449.637 262.93 449.637ZM258.286 442.278C258.286 445.724 259.951 447.943 262.58 447.943C265.12 447.943 266.727 445.695 266.727 442.278C266.727 438.832 265.208 436.612 262.609 436.612C260.039 436.612 258.286 438.832 258.286 442.278Z" fill="white"/>
<path d="M242.249 449.345C240.905 449.345 240 448.937 239.533 448.06C239.299 447.622 239.182 447.068 239.182 446.396V436.846H236.379V435.327H239.182V430.07H241.081V435.327H244.498V436.846H241.081V445.958C241.081 446.454 241.139 446.805 241.285 447.068C241.519 447.535 241.957 447.71 242.57 447.71C243.329 447.71 244.235 447.506 244.731 447.272V448.937C243.943 449.229 242.979 449.345 242.249 449.345Z" fill="white"/>
<path d="M222.507 449.199V435.327H224.347V438.131C225.106 436.174 226.566 434.947 228.786 434.947C231.765 434.947 233.458 437.05 233.458 440.117V449.199H231.56V440.35C231.56 438.014 230.596 436.612 228.348 436.612C225.836 436.612 224.405 438.452 224.405 441.635V449.199H222.507Z" fill="white"/>
<path d="M215.405 449.199V435.327H217.303V449.199H215.405ZM215.376 431.968V428.756H217.333V431.968H215.376Z" fill="white"/>
<path d="M204.837 449.637C201.128 449.637 198.295 446.512 198.295 442.277C198.295 438.072 201.128 434.889 204.837 434.889C208.516 434.889 211.349 438.072 211.349 442.277C211.349 446.512 208.516 449.637 204.837 449.637ZM200.368 442.277C200.368 445.724 202.033 448.002 204.837 448.002C207.64 448.002 209.276 445.724 209.276 442.277C209.276 438.773 207.64 436.524 204.837 436.524C202.033 436.524 200.368 438.773 200.368 442.277Z" fill="white"/>
<path d="M183.035 453.872V435.327H184.874V438.51C185.605 436.349 187.591 434.918 189.664 434.918C193.11 434.918 195.359 438.072 195.359 442.307C195.359 446.483 192.76 449.637 189.547 449.637C187.444 449.637 185.751 448.294 184.933 446.337V453.872H183.035ZM184.904 442.307C184.904 445.724 186.568 447.943 189.197 447.943C191.738 447.943 193.344 445.695 193.344 442.307C193.344 438.831 191.825 436.612 189.226 436.612C186.656 436.612 184.904 438.831 184.904 442.307Z" fill="white"/>
<path d="M163.442 454.018C161.018 454.018 158.886 453.025 157.922 451.945L159.061 450.601C160.376 451.857 161.661 452.383 163.325 452.383C166.187 452.383 167.91 451.302 167.91 448.82V445.695C167.122 447.651 165.399 449.053 163.267 449.053C159.733 449.053 157.455 446.016 157.455 442.073C157.455 438.072 159.879 434.977 163.384 434.977C165.574 434.977 167.239 436.32 167.969 438.335V435.327H169.809V448.761C169.809 451.886 167.268 454.018 163.442 454.018ZM159.441 442.073C159.441 445.227 160.843 447.359 163.617 447.359C166.304 447.359 167.94 445.286 167.94 442.073C167.94 438.744 166.392 436.67 163.734 436.67C160.93 436.67 159.441 438.89 159.441 442.073Z" fill="white"/>
<path d="M142.593 449.199V435.327H144.433V438.131C145.192 436.174 146.652 434.947 148.872 434.947C151.851 434.947 153.545 437.05 153.545 440.117V449.199H151.646V440.35C151.646 438.014 150.683 436.612 148.434 436.612C145.922 436.612 144.491 438.452 144.491 441.635V449.199H142.593Z" fill="white"/>
<path d="M135.491 449.199V435.327H137.39V449.199H135.491ZM135.462 431.968V428.756H137.419V431.968H135.462Z" fill="white"/>
<path d="M129.366 449.345C128.022 449.345 127.117 448.937 126.65 448.06C126.416 447.622 126.299 447.068 126.299 446.396V436.846H123.495V435.327H126.299V430.07H128.197V435.327H131.614V436.846H128.197V445.958C128.197 446.454 128.256 446.805 128.402 447.068C128.635 447.535 129.074 447.71 129.687 447.71C130.446 447.71 131.351 447.506 131.848 447.272V448.937C131.059 449.229 130.096 449.345 129.366 449.345Z" fill="white"/>
<path d="M115.455 449.637C111.571 449.637 108.884 446.454 108.884 442.307C108.884 438.101 111.571 434.889 115.426 434.889C119.486 434.889 121.559 438.568 121.559 442.044V442.336H110.899C110.958 445.811 112.652 447.972 115.426 447.972C117.295 447.972 118.697 447.213 119.544 445.49C119.632 445.315 119.69 445.14 119.778 444.935L121.413 445.432C121.326 445.607 121.267 445.782 121.18 445.928C119.953 448.294 118.025 449.637 115.455 449.637ZM110.987 440.846H119.632C119.34 438.568 118.113 436.524 115.397 436.524C112.827 436.524 111.308 438.247 110.987 440.846Z" fill="white"/>
<path d="M99.8548 449.637C95.9705 449.637 93.2837 446.454 93.2837 442.307C93.2837 438.101 95.9705 434.889 99.8256 434.889C103.885 434.889 105.959 438.568 105.959 442.044V442.336H95.2988C95.3572 445.811 97.0511 447.972 99.8256 447.972C101.695 447.972 103.097 447.213 103.943 445.49C104.031 445.315 104.089 445.14 104.177 444.935L105.813 445.432C105.725 445.607 105.667 445.782 105.579 445.928C104.352 448.294 102.425 449.637 99.8548 449.637ZM95.3864 440.846H104.031C103.739 438.568 102.512 436.524 99.7964 436.524C97.2264 436.524 95.7077 438.247 95.3864 440.846Z" fill="white"/>
<path d="M71.6058 449.199V435.327H73.4457V438.072C74.1174 436.145 75.3732 434.947 77.3591 434.947C79.4034 434.947 80.6884 436.232 81.1557 438.189C81.8274 436.203 83.2001 434.947 85.3028 434.947C87.9312 434.947 89.3915 437.021 89.3915 439.795V449.199H87.4932V440.029C87.4932 437.955 86.6754 436.612 84.7771 436.612C82.6744 436.612 81.4478 438.452 81.4478 441.635V449.199H79.5495V440.029C79.5495 437.985 78.7609 436.612 76.8334 436.612C74.7307 436.612 73.5041 438.452 73.5041 441.635V449.199H71.6058Z" fill="white"/>
<path d="M51.7718 449.637C49.5815 449.637 47.5956 448.294 47.5956 445.753C47.5956 443.796 48.7053 442.044 52.4435 441.285L56.503 440.438V439.591C56.503 437.838 55.6853 436.495 53.3781 436.495C51.3338 436.495 50.1948 437.459 49.8735 438.89H47.8292C48.4717 436.466 50.5744 434.889 53.4949 434.889C56.503 434.889 58.4013 436.729 58.4013 439.415V446.22C58.4013 447.388 58.8686 447.943 59.7447 447.943C60.066 447.943 60.2704 447.885 60.5625 447.768V449.17C60.2996 449.345 59.8908 449.52 59.2775 449.52C57.6712 449.52 56.6782 448.44 56.5614 446.6C55.3932 448.615 53.6994 449.637 51.7718 449.637ZM49.5815 445.636C49.5815 447.388 50.8957 448.002 52.3851 448.002C54.3711 448.002 56.5322 446.308 56.5322 444.03V441.723L53.2613 442.482C50.3992 443.154 49.5815 444.38 49.5815 445.636Z" fill="white"/>
<path d="M31.3556 449.637C29.1069 449.637 26.8581 448.644 25.6023 446.512C25.4855 446.308 25.3687 446.074 25.2518 445.84L26.9165 445.11C27.0041 445.315 27.0917 445.519 27.2086 445.724C28.0847 447.242 29.6033 448.031 31.3848 448.031C33.3708 448.031 34.7726 447.009 34.7726 445.461C34.7726 443.884 34.0425 443.533 31.7645 442.949L29.983 442.482C27.3254 441.781 26.1572 440.554 26.1572 438.802C26.1572 436.524 28.1723 434.889 30.976 434.889C33.0787 434.889 34.8602 435.765 36.0284 437.283C36.1744 437.488 36.3204 437.692 36.4373 437.897L34.8602 438.714C34.7726 438.539 34.6558 438.364 34.539 438.189C33.8088 437.137 32.5238 436.495 30.976 436.495C28.99 436.495 27.9971 437.4 27.9971 438.656C27.9971 439.503 28.3767 440.204 30.4211 440.7L32.4362 441.197C35.6487 441.985 36.6125 443.3 36.6125 445.373C36.6125 447.826 34.3345 449.637 31.3556 449.637Z" fill="white"/>
<path d="M20.6596 435.531C21.4481 435.239 21.857 434.422 21.857 432.903V431.852H20.6596V428.756H23.1128V432.786C23.1128 435.794 21.8278 436.758 20.6596 437.05V435.531Z" fill="white"/>
<path d="M14.9136 449.345C13.5702 449.345 12.6648 448.937 12.1975 448.06C11.9639 447.622 11.8471 447.068 11.8471 446.396V436.846H9.04341V435.327H11.8471V430.07H13.7454V435.327H17.1623V436.846H13.7454V445.958C13.7454 446.454 13.8038 446.805 13.9498 447.068C14.1835 447.535 14.6215 447.71 15.2348 447.71C15.9942 447.71 16.8995 447.506 17.396 447.272V448.937C16.6075 449.229 15.6437 449.345 14.9136 449.345Z" fill="white"/>
<path d="M3.36559 449.199V428.756H5.40992V449.199H3.36559Z" fill="white"/>
<path d="M484.485 410.816V407.429H486.938V410.816H484.485Z" fill="white"/>
<path d="M474.447 411.341C470.183 411.341 467.204 408.275 467.204 403.806C467.204 399.338 470.183 396.242 474.36 396.242C478.74 396.242 481.193 399.63 481.193 403.66V404.39H471.03C471.118 406.96 472.491 408.479 474.564 408.479C475.878 408.479 477.017 407.836 477.631 406.639C477.718 406.464 477.835 406.259 477.893 406.055L481.047 406.727C480.989 406.902 480.901 407.077 480.814 407.282C479.616 409.91 477.338 411.341 474.447 411.341ZM471.118 402.083H477.543C477.338 400.331 476.375 398.929 474.447 398.929C472.607 398.929 471.41 400.097 471.118 402.083Z" fill="white"/>
<path d="M456.817 410.815V396.621H460.526V400.71C461.811 397.673 463.417 396.534 465.871 396.388V400.067C463.125 399.98 460.614 401.411 460.614 404.185V410.815H456.817Z" fill="white"/>
<path d="M444.463 411.137C441.484 411.137 439.673 409.034 439.673 405.822V396.622H443.44V405.325C443.44 407.107 444.229 408.216 445.981 408.216C447.88 408.216 448.873 406.873 448.873 404.624V396.622H452.669V410.816H448.96V408.187C448.026 410.144 446.507 411.137 444.463 411.137Z" fill="white"/>
<path d="M433.673 411.079C431.804 411.079 430.49 410.524 429.818 409.414C429.468 408.83 429.263 408.07 429.263 407.136V399.192H426.606V396.622H429.263V391.687H433.06V396.622H436.565V399.192H433.06V406.172C433.06 406.727 433.118 407.165 433.323 407.457C433.615 407.954 434.141 408.129 434.841 408.129C435.572 408.129 436.331 407.983 436.798 407.749V410.524C435.688 410.932 434.841 411.079 433.673 411.079Z" fill="white"/>
<path d="M420.226 410.815V390.372H424.022V410.815H420.226Z" fill="white"/>
<path d="M407.871 411.137C404.892 411.137 403.081 409.034 403.081 405.822V396.622H406.849V405.325C406.849 407.107 407.637 408.216 409.39 408.216C411.288 408.216 412.281 406.873 412.281 404.624V396.622H416.078V410.816H412.369V408.187C411.434 410.144 409.915 411.137 407.871 411.137Z" fill="white"/>
<path d="M393.704 411.341C389.644 411.341 386.578 408.158 386.548 403.777C386.548 399.484 389.615 396.242 393.733 396.242C396.77 396.242 399.136 398.053 400.041 400.915C400.099 401.119 400.158 401.265 400.187 401.47L396.712 402.025C396.682 401.82 396.624 401.616 396.566 401.411C396.04 399.747 394.959 399.017 393.762 399.017C391.747 399.017 390.462 400.857 390.462 403.777C390.462 406.727 391.747 408.567 393.762 408.567C395.018 408.567 396.069 407.807 396.566 406.055C396.624 405.88 396.682 405.705 396.712 405.5L400.158 406.026C400.099 406.259 400.07 406.405 399.983 406.639C399.048 409.589 396.741 411.341 393.704 411.341Z" fill="white"/>
<path d="M372.197 410.815V390.372H375.994V410.815H372.197Z" fill="white"/>
<path d="M359.852 411.253C357.135 411.253 355.179 409.706 355.179 407.019C355.179 404.624 356.697 403.164 359.998 402.521L364.057 401.791V401.324C364.057 399.834 363.444 398.812 361.662 398.812C360.144 398.812 359.267 399.601 359.063 400.681H355.383C356.026 398.082 358.333 396.242 361.954 396.242C365.751 396.242 367.737 397.994 367.737 401.149V407.136C367.737 408.041 368.087 408.421 368.817 408.421C369.051 408.421 369.226 408.391 369.489 408.275V410.757C368.876 410.991 368.262 411.137 367.503 411.137C365.692 411.137 364.612 410.29 364.232 408.8C363.152 410.436 361.691 411.253 359.852 411.253ZM358.8 406.814C358.8 408.041 359.705 408.654 360.961 408.654C362.538 408.654 364.086 407.603 364.086 405.763V403.835L361.312 404.449C359.559 404.858 358.8 405.617 358.8 406.814Z" fill="white"/>
<path d="M349.909 411.079C348.04 411.079 346.726 410.524 346.054 409.414C345.704 408.83 345.499 408.07 345.499 407.136V399.192H342.842V396.622H345.499V391.687H349.296V396.622H352.8V399.192H349.296V406.172C349.296 406.727 349.354 407.165 349.559 407.457C349.851 407.954 350.376 408.129 351.077 408.129C351.807 408.129 352.567 407.983 353.034 407.749V410.524C351.924 410.932 351.077 411.079 349.909 411.079Z" fill="white"/>
<path d="M336.461 410.815V396.622H340.258V410.815H336.461ZM336.432 394.315V390.372H340.287V394.315H336.432Z" fill="white"/>
<path d="M325.162 415.897C322.212 415.897 319.7 414.758 318.532 413.327L320.606 411.049C321.569 412.305 323.001 413.035 324.84 413.035C327.235 413.035 328.608 411.838 328.608 409.56V407.136C327.819 409.151 326.155 410.29 324.169 410.29C320.664 410.29 318.386 407.515 318.386 403.368C318.386 399.396 320.81 396.301 324.315 396.301C326.388 396.301 327.995 397.527 328.666 399.513V396.622H332.346V409.881C332.346 413.765 328.958 415.897 325.162 415.897ZM322.183 403.368C322.183 405.763 323.468 407.545 325.366 407.545C327.352 407.545 328.666 405.851 328.666 403.368C328.666 400.769 327.41 399.134 325.425 399.134C323.497 399.134 322.183 400.886 322.183 403.368Z" fill="white"/>
<path d="M311.364 410.815V396.622H315.16V410.815H311.364ZM311.334 394.315V390.372H315.189V394.315H311.334Z" fill="white"/>
<path d="M298.903 411.341C295.34 411.341 292.975 408.158 292.975 403.835C292.975 399.542 295.486 396.242 299.108 396.242C301.123 396.242 302.7 397.498 303.43 399.426V390.372H307.227V410.815H303.518V407.895C302.758 409.91 301.035 411.341 298.903 411.341ZM296.888 403.835C296.888 406.727 298.085 408.45 300.101 408.45C302.174 408.45 303.459 406.698 303.459 403.835C303.459 400.915 302.233 399.192 300.188 399.192C298.115 399.192 296.888 400.973 296.888 403.835Z" fill="white"/>
<path d="M277.396 394.432C277.396 391.512 278.739 389.935 282.01 389.935C283.09 389.935 283.879 390.051 284.521 390.314V392.972C283.996 392.767 283.529 392.709 282.857 392.709C281.572 392.709 281.163 393.322 281.163 394.578V396.622H284.521V399.192H281.163V410.816H277.396V399.192H274.65V396.622H277.396V394.432Z" fill="white"/>
<path d="M266.049 411.341C261.873 411.341 258.777 408.158 258.777 403.777C258.777 399.455 261.873 396.242 266.049 396.242C270.226 396.242 273.234 399.426 273.263 403.777C273.263 408.158 270.226 411.341 266.049 411.341ZM262.72 403.777C262.72 406.785 264.005 408.508 266.049 408.508C268.094 408.508 269.32 406.785 269.32 403.777C269.32 400.857 268.094 399.104 266.049 399.104C264.005 399.104 262.72 400.857 262.72 403.777Z" fill="white"/>
<path d="M242.933 411.341C239.837 411.341 237.472 410.144 236.216 408.041L235.865 407.34L238.873 406.23C238.961 406.405 239.049 406.581 239.165 406.756C239.954 407.953 241.385 408.742 242.962 408.742C244.51 408.742 245.532 408.041 245.532 406.931C245.532 405.909 244.773 405.646 243.079 405.266L241.093 404.858C237.997 404.215 236.771 402.842 236.771 400.681C236.771 398.053 239.224 396.242 242.699 396.242C245.182 396.242 247.284 397.206 248.628 398.871C248.774 399.104 248.949 399.367 249.095 399.63L246.233 400.74C246.145 400.564 246.029 400.389 245.853 400.214C245.065 399.367 243.926 398.841 242.728 398.841C241.151 398.841 240.217 399.542 240.217 400.477C240.217 401.265 240.713 401.674 242.086 401.908L244.539 402.317C247.226 402.784 249.27 403.806 249.27 406.551C249.27 409.501 246.554 411.341 242.933 411.341Z" fill="white"/>
<path d="M219.842 415.488V396.622H223.551V399.718C224.252 397.644 226.092 396.271 228.311 396.271C231.787 396.271 234.065 399.396 234.065 403.777C234.065 408.012 231.495 411.341 228.136 411.341C225.917 411.341 224.398 410.115 223.639 408.304V415.488H219.842ZM223.609 403.777C223.609 406.698 224.836 408.45 226.91 408.45C228.954 408.45 230.151 406.668 230.151 403.777C230.151 400.973 228.983 399.192 226.939 399.192C224.894 399.192 223.609 400.973 223.609 403.777Z" fill="white"/>
<path d="M209.921 411.341C205.658 411.341 202.679 408.275 202.679 403.806C202.679 399.338 205.658 396.242 209.834 396.242C214.215 396.242 216.668 399.63 216.668 403.66V404.39H206.505C206.592 406.96 207.965 408.479 210.038 408.479C211.353 408.479 212.492 407.836 213.105 406.639C213.192 406.464 213.309 406.259 213.368 406.055L216.522 406.727C216.463 406.902 216.376 407.077 216.288 407.282C215.091 409.91 212.813 411.341 209.921 411.341ZM206.592 402.083H213.017C212.813 400.331 211.849 398.929 209.921 398.929C208.082 398.929 206.884 400.097 206.592 402.083Z" fill="white"/>
<path d="M197.696 411.079C195.827 411.079 194.513 410.524 193.841 409.414C193.491 408.83 193.286 408.07 193.286 407.136V399.192H190.629V396.622H193.286V391.687H197.083V396.622H200.588V399.192H197.083V406.172C197.083 406.727 197.141 407.165 197.346 407.457C197.638 407.954 198.164 408.129 198.864 408.129C199.595 408.129 200.354 407.983 200.821 407.749V410.524C199.711 410.932 198.864 411.079 197.696 411.079Z" fill="white"/>
<path d="M182.755 411.341C179.659 411.341 177.294 410.144 176.038 408.041L175.688 407.34L178.696 406.23C178.783 406.405 178.871 406.581 178.988 406.756C179.776 407.953 181.207 408.742 182.784 408.742C184.332 408.742 185.354 408.041 185.354 406.931C185.354 405.909 184.595 405.646 182.901 405.266L180.915 404.858C177.819 404.215 176.593 402.842 176.593 400.681C176.593 398.053 179.046 396.242 182.521 396.242C185.004 396.242 187.107 397.206 188.45 398.871C188.596 399.104 188.771 399.367 188.917 399.63L186.055 400.74C185.968 400.564 185.851 400.389 185.676 400.214C184.887 399.367 183.748 398.841 182.551 398.841C180.974 398.841 180.039 399.542 180.039 400.477C180.039 401.265 180.536 401.674 181.908 401.908L184.361 402.317C187.048 402.784 189.093 403.806 189.093 406.551C189.093 409.501 186.377 411.341 182.755 411.341Z" fill="white"/>
<path d="M156.986 415.897C156.198 415.897 155.351 415.751 154.708 415.547V412.626C155.146 412.86 155.964 413.006 156.46 413.006C157.453 413.006 158.184 412.685 158.884 411.02L159.206 410.261L154.007 396.622H157.833L160.958 406.172L164.2 396.622H167.85L161.747 412.509C160.724 415.167 159.264 415.897 156.986 415.897Z" fill="white"/>
<path d="M143.835 410.815V396.621H147.544V400.71C148.829 397.673 150.436 396.534 152.889 396.388V400.067C150.144 399.98 147.632 401.411 147.632 404.185V410.815H143.835Z" fill="white"/>
<path d="M131.49 411.253C128.773 411.253 126.817 409.706 126.817 407.019C126.817 404.624 128.335 403.164 131.636 402.521L135.695 401.791V401.324C135.695 399.834 135.082 398.812 133.3 398.812C131.782 398.812 130.905 399.601 130.701 400.681H127.021C127.664 398.082 129.971 396.242 133.592 396.242C137.389 396.242 139.375 397.994 139.375 401.149V407.136C139.375 408.041 139.725 408.421 140.455 408.421C140.689 408.421 140.864 408.391 141.127 408.275V410.757C140.514 410.991 139.9 411.137 139.141 411.137C137.33 411.137 136.25 410.29 135.87 408.8C134.79 410.436 133.329 411.253 131.49 411.253ZM130.438 406.814C130.438 408.041 131.343 408.654 132.599 408.654C134.176 408.654 135.724 407.603 135.724 405.763V403.835L132.95 404.449C131.197 404.858 130.438 405.617 130.438 406.814Z" fill="white"/>
<path d="M110.695 410.816V396.622H114.404V399.221C115.338 397.294 116.857 396.301 118.872 396.301C121.851 396.301 123.691 398.404 123.691 401.616V410.816H119.894V402.113C119.894 400.331 119.135 399.221 117.383 399.221C115.484 399.221 114.491 400.565 114.491 402.813V410.816H110.695Z" fill="white"/>
<path d="M100.318 411.341C96.1417 411.341 93.046 408.158 93.046 403.777C93.046 399.455 96.1417 396.242 100.318 396.242C104.494 396.242 107.502 399.426 107.532 403.777C107.532 408.158 104.494 411.341 100.318 411.341ZM96.9886 403.777C96.9886 406.785 98.2736 408.508 100.318 408.508C102.362 408.508 103.589 406.785 103.589 403.777C103.589 400.857 102.362 399.104 100.318 399.104C98.2736 399.104 96.9886 400.857 96.9886 403.777Z" fill="white"/>
<path d="M86.0818 410.815V396.622H89.8784V410.815H86.0818ZM86.0526 394.315V390.372H89.9076V394.315H86.0526Z" fill="white"/>
<path d="M79.936 411.079C78.0669 411.079 76.7527 410.524 76.0809 409.414C75.7305 408.83 75.526 408.07 75.526 407.136V399.192H72.8684V396.622H75.526V391.687H79.3227V396.622H82.8272V399.192H79.3227V406.172C79.3227 406.727 79.3811 407.165 79.5855 407.457C79.8776 407.954 80.4033 408.129 81.1042 408.129C81.8343 408.129 82.5936 407.983 83.0609 407.749V410.524C81.9511 410.932 81.1042 411.079 79.936 411.079Z" fill="white"/>
<path d="M62.0909 411.137C59.1121 411.137 57.3014 409.034 57.3014 405.822V396.622H61.0688V405.325C61.0688 407.107 61.8573 408.216 63.6096 408.216C65.5079 408.216 66.5009 406.873 66.5009 404.624V396.622H70.2975V410.816H66.5885V408.187C65.6539 410.144 64.1353 411.137 62.0909 411.137Z" fill="white"/>
<path d="M49.4902 410.815V390.372H53.2868V410.815H49.4902Z" fill="white"/>
<path d="M39.1134 411.341C34.9371 411.341 31.8414 408.158 31.8414 403.777C31.8414 399.455 34.9371 396.242 39.1134 396.242C43.2897 396.242 46.2978 399.426 46.327 403.777C46.327 408.158 43.2897 411.341 39.1134 411.341ZM35.784 403.777C35.784 406.785 37.0691 408.508 39.1134 408.508C41.1577 408.508 42.3843 406.785 42.3843 403.777C42.3843 400.857 41.1577 399.104 39.1134 399.104C37.0691 399.104 35.784 400.857 35.784 403.777Z" fill="white"/>
<path d="M22.1121 410.816L16.7384 396.622H20.5934L23.806 405.997L26.9601 396.622H30.6399L25.3246 410.816H22.1121Z" fill="white"/>
<path d="M8.73927 411.341C4.47537 411.341 1.49648 408.275 1.49648 403.806C1.49648 399.338 4.47537 396.242 8.65166 396.242C13.0324 396.242 15.4856 399.63 15.4856 403.66V404.39H5.32231C5.40992 406.96 6.78255 408.479 8.85609 408.479C10.1703 408.479 11.3093 407.836 11.9226 406.639C12.0102 406.464 12.127 406.259 12.1854 406.055L15.3396 406.727C15.2811 406.902 15.1935 407.077 15.1059 407.282C13.9085 409.91 11.6305 411.341 8.73927 411.341ZM5.40992 402.083H11.835C11.6305 400.331 10.6668 398.929 8.73927 398.929C6.89937 398.929 5.70197 400.097 5.40992 402.083Z" fill="white"/>
<path d="M476.138 372.432V351.988H478.036V372.432H476.138Z" fill="white"/>
<path d="M464.347 372.87C462.156 372.87 460.17 371.526 460.17 368.985C460.17 367.029 461.28 365.276 465.018 364.517L469.078 363.67V362.823C469.078 361.071 468.26 359.727 465.953 359.727C463.908 359.727 462.769 360.691 462.448 362.122H460.404C461.046 359.698 463.149 358.121 466.07 358.121C469.078 358.121 470.976 359.961 470.976 362.648V369.453C470.976 370.621 471.443 371.176 472.319 371.176C472.641 371.176 472.845 371.117 473.137 371V372.402C472.874 372.577 472.465 372.753 471.852 372.753C470.246 372.753 469.253 371.672 469.136 369.832C467.968 371.847 466.274 372.87 464.347 372.87ZM462.156 368.868C462.156 370.621 463.47 371.234 464.96 371.234C466.946 371.234 469.107 369.54 469.107 367.262V364.955L465.836 365.714C462.974 366.386 462.156 367.613 462.156 368.868Z" fill="white"/>
<path d="M455.096 372.578C453.752 372.578 452.847 372.169 452.38 371.293C452.146 370.855 452.029 370.3 452.029 369.628V360.078H449.226V358.56H452.029V353.303H453.928V358.56H457.345V360.078H453.928V369.19C453.928 369.687 453.986 370.037 454.132 370.3C454.366 370.767 454.804 370.942 455.417 370.942C456.176 370.942 457.082 370.738 457.578 370.504V372.169C456.79 372.461 455.826 372.578 455.096 372.578Z" fill="white"/>
<path d="M435.354 372.432V358.559H437.194V361.363C437.953 359.406 439.413 358.18 441.633 358.18C444.612 358.18 446.305 360.282 446.305 363.349V372.432H444.407V363.583C444.407 361.246 443.443 359.844 441.195 359.844C438.683 359.844 437.252 361.684 437.252 364.868V372.432H435.354Z" fill="white"/>
<path d="M425.214 372.87C421.33 372.87 418.643 369.686 418.643 365.539C418.643 361.334 421.33 358.121 425.185 358.121C429.245 358.121 431.318 361.801 431.318 365.276V365.568H420.658C420.717 369.044 422.411 371.205 425.185 371.205C427.054 371.205 428.456 370.446 429.303 368.722C429.391 368.547 429.449 368.372 429.537 368.168L431.172 368.664C431.084 368.839 431.026 369.014 430.938 369.161C429.712 371.526 427.784 372.87 425.214 372.87ZM420.746 364.079H429.391C429.099 361.801 427.872 359.757 425.156 359.757C422.586 359.757 421.067 361.48 420.746 364.079Z" fill="white"/>
<path d="M396.965 372.432V358.559H398.805V361.305C399.477 359.377 400.733 358.18 402.719 358.18C404.763 358.18 406.048 359.465 406.515 361.421C407.187 359.435 408.56 358.18 410.662 358.18C413.291 358.18 414.751 360.253 414.751 363.028V372.432H412.853V363.261C412.853 361.188 412.035 359.844 410.137 359.844C408.034 359.844 406.807 361.684 406.807 364.868V372.432H404.909V363.261C404.909 361.217 404.121 359.844 402.193 359.844C400.09 359.844 398.864 361.684 398.864 364.868V372.432H396.965Z" fill="white"/>
<path d="M385.174 372.87C382.984 372.87 380.998 371.526 380.998 368.985C380.998 367.029 382.108 365.276 385.846 364.517L389.905 363.67V362.823C389.905 361.071 389.088 359.727 386.78 359.727C384.736 359.727 383.597 360.691 383.276 362.122H381.231C381.874 359.698 383.977 358.121 386.897 358.121C389.905 358.121 391.804 359.961 391.804 362.648V369.453C391.804 370.621 392.271 371.176 393.147 371.176C393.468 371.176 393.673 371.117 393.965 371V372.402C393.702 372.577 393.293 372.753 392.68 372.753C391.073 372.753 390.081 371.672 389.964 369.832C388.796 371.847 387.102 372.87 385.174 372.87ZM382.984 368.868C382.984 370.621 384.298 371.234 385.787 371.234C387.773 371.234 389.934 369.54 389.934 367.262V364.955L386.664 365.714C383.801 366.386 382.984 367.613 382.984 368.868Z" fill="white"/>
<path d="M370.323 372.87C366.935 372.87 364.54 369.774 364.54 365.539C364.54 361.334 366.993 358.121 370.44 358.121C372.455 358.121 374.236 359.465 374.966 361.538V351.988H376.865V372.432H375.025V369.394C374.178 371.439 372.367 372.87 370.323 372.87ZM366.555 365.539C366.555 368.985 368.132 371.176 370.673 371.176C373.302 371.176 374.996 368.956 374.996 365.539C374.996 362.035 373.36 359.815 370.79 359.815C368.191 359.815 366.555 362.093 366.555 365.539Z" fill="white"/>
<path d="M349.707 372.432V358.559H351.547V361.363C352.306 359.406 353.767 358.18 355.986 358.18C358.965 358.18 360.659 360.282 360.659 363.349V372.432H358.761V363.583C358.761 361.246 357.797 359.844 355.548 359.844C353.037 359.844 351.606 361.684 351.606 364.868V372.432H349.707Z" fill="white"/>
<path d="M338.233 372.812C335.254 372.812 333.56 370.709 333.56 367.642V358.56H335.458V367.409C335.458 369.745 336.422 371.147 338.671 371.147C341.182 371.147 342.613 369.307 342.613 366.124V358.56H344.512V372.432H342.672V369.628C341.913 371.585 340.452 372.812 338.233 372.812Z" fill="white"/>
<path d="M325.257 355.259C325.257 352.835 326.279 351.55 328.674 351.55C329.463 351.55 330.193 351.667 330.573 351.754V353.331C330.018 353.214 329.463 353.127 328.849 353.127C327.564 353.127 327.156 353.828 327.156 355.259V358.559H330.573V360.078H327.156V372.431H325.257V360.078H322.454V358.559H325.257V355.259Z" fill="white"/>
<path d="M306.199 372.87C302.315 372.87 299.628 369.686 299.628 365.539C299.628 361.334 302.315 358.121 306.17 358.121C310.229 358.121 312.303 361.801 312.303 365.276V365.568H301.643C301.702 369.044 303.395 371.205 306.17 371.205C308.039 371.205 309.441 370.446 310.288 368.722C310.375 368.547 310.434 368.372 310.521 368.168L312.157 368.664C312.069 368.839 312.011 369.014 311.923 369.161C310.697 371.526 308.769 372.87 306.199 372.87ZM301.731 364.079H310.375C310.083 361.801 308.857 359.757 306.141 359.757C303.571 359.757 302.052 361.48 301.731 364.079Z" fill="white"/>
<path d="M284.795 372.432V351.988H286.693V361.217C287.453 359.348 288.913 358.18 291.074 358.18C294.053 358.18 295.747 360.282 295.747 363.349V372.432H293.849V363.583C293.849 361.246 292.856 359.844 290.636 359.844C288.124 359.844 286.693 361.684 286.693 364.868V372.432H284.795Z" fill="white"/>
<path d="M278.669 372.578C277.326 372.578 276.42 372.169 275.953 371.293C275.72 370.855 275.603 370.3 275.603 369.628V360.078H272.799V358.56H275.603V353.303H277.501V358.56H280.918V360.078H277.501V369.19C277.501 369.687 277.559 370.037 277.706 370.3C277.939 370.767 278.377 370.942 278.991 370.942C279.75 370.942 280.655 370.738 281.152 370.504V372.169C280.363 372.461 279.399 372.578 278.669 372.578Z" fill="white"/>
<path d="M257.921 372.87C255.672 372.87 253.423 371.877 252.168 369.745C252.051 369.54 251.934 369.307 251.817 369.073L253.482 368.343C253.569 368.547 253.657 368.752 253.774 368.956C254.65 370.475 256.169 371.263 257.95 371.263C259.936 371.263 261.338 370.241 261.338 368.693C261.338 367.116 260.608 366.766 258.33 366.182L256.548 365.714C253.891 365.013 252.722 363.787 252.722 362.035C252.722 359.757 254.738 358.121 257.541 358.121C259.644 358.121 261.425 358.997 262.594 360.516C262.74 360.72 262.886 360.925 263.003 361.129L261.425 361.947C261.338 361.772 261.221 361.596 261.104 361.421C260.374 360.37 259.089 359.727 257.541 359.727C255.555 359.727 254.562 360.633 254.562 361.889C254.562 362.735 254.942 363.436 256.986 363.933L259.001 364.429C262.214 365.218 263.178 366.532 263.178 368.606C263.178 371.059 260.9 372.87 257.921 372.87Z" fill="white"/>
<path d="M243.255 372.87C239.371 372.87 236.684 369.686 236.684 365.539C236.684 361.334 239.371 358.121 243.226 358.121C247.285 358.121 249.359 361.801 249.359 365.276V365.568H238.699C238.757 369.044 240.451 371.205 243.226 371.205C245.095 371.205 246.497 370.446 247.343 368.722C247.431 368.547 247.489 368.372 247.577 368.168L249.213 368.664C249.125 368.839 249.067 369.014 248.979 369.161C247.752 371.526 245.825 372.87 243.255 372.87ZM238.786 364.079H247.431C247.139 361.801 245.912 359.757 243.196 359.757C240.626 359.757 239.108 361.48 238.786 364.079Z" fill="white"/>
<path d="M231.896 372.578C230.553 372.578 229.647 372.169 229.18 371.293C228.946 370.855 228.829 370.3 228.829 369.628V360.078H226.026V358.56H228.829V353.303H230.728V358.56H234.145V360.078H230.728V369.19C230.728 369.687 230.786 370.037 230.932 370.3C231.166 370.767 231.604 370.942 232.217 370.942C232.977 370.942 233.882 370.738 234.378 370.504V372.169C233.59 372.461 232.626 372.578 231.896 372.578Z" fill="white"/>
<path d="M216.191 372.87C214.001 372.87 212.015 371.526 212.015 368.985C212.015 367.029 213.125 365.276 216.863 364.517L220.923 363.67V362.823C220.923 361.071 220.105 359.727 217.798 359.727C215.753 359.727 214.614 360.691 214.293 362.122H212.249C212.891 359.698 214.994 358.121 217.914 358.121C220.923 358.121 222.821 359.961 222.821 362.648V369.453C222.821 370.621 223.288 371.176 224.164 371.176C224.486 371.176 224.69 371.117 224.982 371V372.402C224.719 372.577 224.31 372.753 223.697 372.753C222.091 372.753 221.098 371.672 220.981 369.832C219.813 371.847 218.119 372.87 216.191 372.87ZM214.001 368.868C214.001 370.621 215.315 371.234 216.805 371.234C218.791 371.234 220.952 369.54 220.952 367.262V364.955L217.681 365.714C214.819 366.386 214.001 367.613 214.001 368.868Z" fill="white"/>
<path d="M202.714 372.432V358.56H204.553V362.707C205.955 360.049 208.321 358.618 210.044 358.385V360.575C208.146 360.575 204.612 362.327 204.612 365.277V372.432H202.714Z" fill="white"/>
<path d="M191.99 372.432V358.56H193.83V362.707C195.232 360.049 197.597 358.618 199.32 358.385V360.575C197.422 360.575 193.888 362.327 193.888 365.277V372.432H191.99Z" fill="white"/>
<path d="M180.199 372.87C178.008 372.87 176.022 371.526 176.022 368.985C176.022 367.029 177.132 365.276 180.87 364.517L184.93 363.67V362.823C184.93 361.071 184.112 359.727 181.805 359.727C179.761 359.727 178.622 360.691 178.3 362.122H176.256C176.899 359.698 179.001 358.121 181.922 358.121C184.93 358.121 186.828 359.961 186.828 362.648V369.453C186.828 370.621 187.295 371.176 188.172 371.176C188.493 371.176 188.697 371.117 188.989 371V372.402C188.727 372.577 188.318 372.753 187.704 372.753C186.098 372.753 185.105 371.672 184.988 369.832C183.82 371.847 182.126 372.87 180.199 372.87ZM178.008 368.868C178.008 370.621 179.323 371.234 180.812 371.234C182.798 371.234 184.959 369.54 184.959 367.262V364.955L181.688 365.714C178.826 366.386 178.008 367.613 178.008 368.868Z" fill="white"/>
<path d="M161.131 372.432V358.559H162.971V361.363C163.73 359.406 165.19 358.18 167.41 358.18C170.389 358.18 172.083 360.282 172.083 363.349V372.432H170.184V363.583C170.184 361.246 169.221 359.844 166.972 359.844C164.46 359.844 163.029 361.684 163.029 364.868V372.432H161.131Z" fill="white"/>
<path d="M142.949 372.87C139.065 372.87 136.378 369.686 136.378 365.539C136.378 361.334 139.065 358.121 142.92 358.121C146.979 358.121 149.053 361.801 149.053 365.276V365.568H138.393C138.451 369.044 140.145 371.205 142.92 371.205C144.789 371.205 146.191 370.446 147.038 368.722C147.125 368.547 147.184 368.372 147.271 368.168L148.907 368.664C148.819 368.839 148.761 369.014 148.673 369.161C147.446 371.526 145.519 372.87 142.949 372.87ZM138.481 364.079H147.125C146.833 361.801 145.607 359.757 142.891 359.757C140.321 359.757 138.802 361.48 138.481 364.079Z" fill="white"/>
<path d="M127.363 372.432L121.902 358.56H123.917L128.122 369.833L132.357 358.56H134.314L128.794 372.461L127.363 372.432Z" fill="white"/>
<path d="M116.611 372.432V358.559H118.509V372.432H116.611ZM116.582 355.201V351.988H118.538V355.201H116.582Z" fill="white"/>
<path d="M100.668 372.432V351.988H102.566V361.217C103.326 359.348 104.786 358.18 106.947 358.18C109.926 358.18 111.62 360.282 111.62 363.349V372.432H109.721V363.583C109.721 361.246 108.728 359.844 106.509 359.844C103.997 359.844 102.566 361.684 102.566 364.868V372.432H100.668Z" fill="white"/>
<path d="M90.9252 372.87C87.041 372.87 84.4417 369.686 84.4417 365.51C84.4417 361.304 87.041 358.121 90.9252 358.121C93.9333 358.121 95.6856 359.903 96.6493 362.268C96.6785 362.385 96.7369 362.502 96.7662 362.619L95.0139 363.261C94.9554 363.086 94.9262 362.94 94.8678 362.794C94.0501 360.75 92.7943 359.786 90.896 359.786C88.1215 359.786 86.4569 362.181 86.4569 365.51C86.4569 368.81 88.1215 371.205 90.896 371.205C92.7943 371.205 94.1961 370.299 94.8678 368.255C94.9262 368.08 94.9554 367.963 95.0139 367.729L96.7369 368.372L96.5617 368.839C95.5395 371.409 93.6412 372.87 90.9252 372.87Z" fill="white"/>
<path d="M75.3134 372.432V358.56H77.1533V362.707C78.5551 360.049 80.9207 358.618 82.6438 358.385V360.575C80.7455 360.575 77.2117 362.327 77.2117 365.277V372.432H75.3134Z" fill="white"/>
<path d="M63.5222 372.87C61.3319 372.87 59.3459 371.526 59.3459 368.985C59.3459 367.029 60.4557 365.276 64.1939 364.517L68.2534 363.67V362.823C68.2534 361.071 67.4357 359.727 65.1285 359.727C63.0841 359.727 61.9452 360.691 61.6239 362.122H59.5796C60.2221 359.698 62.3248 358.121 65.2453 358.121C68.2534 358.121 70.1517 359.961 70.1517 362.648V369.453C70.1517 370.621 70.619 371.176 71.4951 371.176C71.8164 371.176 72.0208 371.117 72.3129 371V372.402C72.05 372.577 71.6411 372.753 71.0278 372.753C69.4216 372.753 68.4286 371.672 68.3118 369.832C67.1436 371.847 65.4497 372.87 63.5222 372.87ZM61.3319 368.868C61.3319 370.621 62.6461 371.234 64.1355 371.234C66.1214 371.234 68.2826 369.54 68.2826 367.262V364.955L65.0117 365.714C62.1496 366.386 61.3319 367.613 61.3319 368.868Z" fill="white"/>
<path d="M42.2153 372.87C38.331 372.87 35.6442 369.686 35.6442 365.539C35.6442 361.334 38.331 358.121 42.1861 358.121C46.2455 358.121 48.3191 361.801 48.3191 365.276V365.568H37.6593C37.7177 369.044 39.4116 371.205 42.1861 371.205C44.0552 371.205 45.457 370.446 46.3039 368.722C46.3915 368.547 46.45 368.372 46.5376 368.168L48.173 368.664C48.0854 368.839 48.027 369.014 47.9394 369.161C46.7128 371.526 44.7853 372.87 42.2153 372.87ZM37.7469 364.079H46.3915C46.0995 361.801 44.8729 359.757 42.1568 359.757C39.5868 359.757 38.0682 361.48 37.7469 364.079Z" fill="white"/>
<path d="M20.8111 372.432V351.988H22.7094V361.217C23.4688 359.348 24.929 358.18 27.0901 358.18C30.069 358.18 31.7629 360.282 31.7629 363.349V372.432H29.8646V363.583C29.8646 361.246 28.8716 359.844 26.6521 359.844C24.1405 359.844 22.7094 361.684 22.7094 364.868V372.432H20.8111Z" fill="white"/>
<path d="M8.27199 372.432V353.77H1V351.988H17.5883V353.77H10.3163V372.432H8.27199Z" fill="white"/>
<path d="M1.584 41V7.4H9.216L13.296 21.416C13.536 22.136 13.728 22.904 13.872 23.624C14.064 22.904 14.208 22.184 14.448 21.464L18.528 7.4H26.256V41H20.736V19.256C20.736 17.048 20.736 14.936 21.024 12.152L14.976 33.656H12.528L6.576 12.44C6.864 15.176 6.816 17.384 6.816 19.112V41H1.584ZM31.4438 41V7.4H52.9478V12.44H37.6358V20.744H48.0998V25.448H37.6358V35.912H53.7638V41H31.4438ZM59.2875 41V7.4H80.7915V12.44H65.4795V20.744H75.9435V25.448H65.4795V35.912H81.6075V41H59.2875ZM94.3313 41V12.68H84.9713V7.4H109.931V12.68H100.571V41H94.3313ZM140.035 41L149.731 7.4H156.835L166.195 41H160.147L157.987 32.648H148.003L145.843 41H140.035ZM149.155 28.184H156.835L153.091 13.064L149.155 28.184ZM169.799 41V7.4H180.695C188.615 7.4 193.271 11.048 193.271 16.664C193.271 21.176 190.199 24.392 185.111 25.592L193.751 41H187.079L179.255 26.168H175.991V41H169.799ZM175.991 21.752H180.119C184.487 21.752 186.935 19.784 186.935 16.808C186.935 13.832 184.391 12.152 180.455 12.152H175.991V21.752ZM209.45 41.768C201.434 41.768 196.49 34.664 196.49 24.392C196.49 13.88 201.386 6.632 209.402 6.632C215.114 6.632 219.29 10.52 221.018 16.76C221.162 17.144 221.258 17.576 221.354 18.008L215.162 19.16C215.114 18.776 215.018 18.392 214.97 18.056C214.154 14.216 212.378 11.912 209.45 11.912C205.13 11.912 203.21 16.712 203.21 24.296C203.21 31.64 205.226 36.488 209.498 36.488C212.522 36.488 214.202 34.088 215.018 30.056C215.114 29.672 215.162 29.336 215.21 29L221.114 30.152C221.066 30.488 220.97 30.968 220.874 31.352C219.242 37.688 215.21 41.768 209.45 41.768ZM241.998 41V26.072H231.342V41H225.15V7.4H231.342V20.936H241.998V7.4H248.19V41H241.998ZM254.194 41V36.488H261.394V11.912H254.194V7.4H274.834V11.912H267.634V36.488H274.834V41H254.194ZM289.238 41L279.494 7.4H285.59L292.358 32.36L299.366 7.4H305.222L295.142 41H289.238ZM309.881 41V7.4H331.385V12.44H316.073V20.744H326.537V25.448H316.073V35.912H332.201V41H309.881Z" fill="white"/>
</svg>
