<svg width="987" height="508" viewBox="0 0 987 508" fill="none" xmlns="http://www.w3.org/2000/svg">
<path d="M508.464 503V491.504H510.312V492.896C510.744 491.84 511.512 491.216 512.448 491.216C513.6 491.216 514.296 492.152 514.536 493.4C514.944 492.032 515.856 491.216 516.984 491.216C518.592 491.216 519.48 492.584 519.48 494.336V503H517.56V494.456C517.56 493.52 517.248 492.824 516.432 492.824C515.472 492.824 514.896 493.76 514.896 495.608V503H513V494.648C513 493.616 512.712 492.824 511.8 492.824C510.888 492.824 510.36 493.784 510.36 495.608V503H508.464ZM528.026 503.384C524.882 503.384 522.602 500.816 522.602 497.288C522.602 493.76 524.882 491.168 527.978 491.168C531.266 491.168 533.066 494.096 533.066 497.12V497.48H524.786C524.834 500.072 526.13 501.656 528.05 501.656C529.274 501.656 530.354 501.08 530.978 499.808C531.05 499.664 531.122 499.52 531.17 499.352L532.946 499.808C532.874 499.952 532.826 500.096 532.754 500.24C531.698 502.208 530.09 503.384 528.026 503.384ZM524.858 496.016H531.002C530.786 494.312 529.898 492.8 528.002 492.8C526.226 492.8 525.122 494.048 524.858 496.016ZM536.308 503V491.504H538.156V492.896C538.588 491.84 539.356 491.216 540.292 491.216C541.444 491.216 542.14 492.152 542.38 493.4C542.788 492.032 543.7 491.216 544.828 491.216C546.436 491.216 547.324 492.584 547.324 494.336V503H545.404V494.456C545.404 493.52 545.092 492.824 544.276 492.824C543.316 492.824 542.74 493.76 542.74 495.608V503H540.844V494.648C540.844 493.616 540.556 492.824 539.644 492.824C538.732 492.824 538.204 493.784 538.204 495.608V503H536.308ZM555.726 503.384C552.702 503.384 550.35 500.792 550.35 497.288C550.35 493.784 552.702 491.168 555.726 491.168C558.726 491.168 561.078 493.784 561.078 497.288C561.078 500.792 558.726 503.384 555.726 503.384ZM552.558 497.288C552.558 499.976 553.782 501.704 555.726 501.704C557.67 501.704 558.87 499.976 558.87 497.288C558.87 494.576 557.67 492.872 555.726 492.872C553.782 492.872 552.558 494.576 552.558 497.288ZM565.88 503V491.504H567.92V495.152C569.432 492.848 571.616 491.456 574.664 491.408V493.472C570.608 493.4 567.992 495.32 567.992 497.984V503H565.88ZM580.161 507.008C579.561 507.008 578.889 506.912 578.385 506.672V504.896C578.793 505.16 579.513 505.328 579.945 505.328C580.977 505.328 581.577 504.896 582.033 503.792L582.561 502.544L578.337 491.504H580.569L583.617 500.408L586.785 491.504H588.921L583.857 504.392C583.089 506.336 581.961 507.008 580.161 507.008ZM611.413 503.384C608.389 503.384 606.037 500.792 606.037 497.288C606.037 493.784 608.389 491.168 611.413 491.168C614.413 491.168 616.765 493.784 616.765 497.288C616.765 500.792 614.413 503.384 611.413 503.384ZM608.245 497.288C608.245 499.976 609.469 501.704 611.413 501.704C613.357 501.704 614.557 499.976 614.557 497.288C614.557 494.576 613.357 492.872 611.413 492.872C609.469 492.872 608.245 494.576 608.245 497.288ZM623.295 489.56C623.295 487.16 624.783 485.84 627.855 485.84C629.055 485.84 630.159 486.08 630.759 486.272V487.88C629.943 487.64 629.007 487.496 628.071 487.496C626.175 487.496 625.383 488.192 625.383 489.776V491.504H630.759V493.088H625.383V503H623.295V493.088H619.431V491.504H623.295V489.56ZM648.331 506.84V491.504H650.371V494.096C650.995 492.344 652.555 491.192 654.283 491.192C657.115 491.192 658.939 493.76 658.939 497.312C658.915 500.792 656.827 503.384 654.187 503.384C652.483 503.384 651.139 502.328 650.443 500.768V506.84H648.331ZM650.395 497.312C650.395 499.952 651.643 501.656 653.611 501.656C655.531 501.656 656.731 499.952 656.731 497.312C656.731 494.624 655.579 492.944 653.635 492.944C651.715 492.944 650.395 494.624 650.395 497.312ZM665.541 503.36C663.597 503.36 661.965 502.184 661.965 500.072C661.965 498.344 662.997 496.976 665.949 496.4L669.285 495.728V495.128C669.285 493.784 668.661 492.776 666.909 492.776C665.397 492.776 664.533 493.496 664.269 494.576H662.109C662.685 492.536 664.461 491.168 667.077 491.168C669.765 491.168 671.349 492.656 671.349 494.984V500.336C671.349 501.224 671.709 501.632 672.381 501.632C672.621 501.632 672.789 501.584 673.005 501.488V502.976C672.693 503.12 672.309 503.264 671.757 503.264C670.365 503.264 669.525 502.448 669.357 501.032C668.421 502.592 667.101 503.36 665.541 503.36ZM664.077 499.952C664.077 501.224 665.037 501.728 666.189 501.728C667.701 501.728 669.309 500.528 669.309 498.8V497L666.765 497.576C664.725 498.056 664.077 498.944 664.077 499.952ZM681.095 503.384C679.007 503.384 677.135 502.52 676.103 500.768C676.007 500.6 675.911 500.408 675.815 500.192L677.567 499.496C677.639 499.664 677.711 499.808 677.807 499.976C678.503 501.128 679.727 501.776 681.118 501.776C682.631 501.776 683.687 501.032 683.687 499.88C683.687 498.752 683.063 498.488 681.359 498.08L679.847 497.696C677.543 497.144 676.559 496.088 676.559 494.528C676.559 492.56 678.335 491.168 680.831 491.168C682.679 491.168 684.287 491.888 685.247 493.208L685.607 493.736L683.927 494.504C683.855 494.36 683.759 494.216 683.639 494.072C683.039 493.28 682.007 492.776 680.855 492.776C679.343 492.776 678.527 493.448 678.527 494.408C678.527 495.08 678.887 495.56 680.375 495.896L682.151 496.28C684.623 496.832 685.751 497.84 685.751 499.736C685.751 501.896 683.735 503.384 681.095 503.384ZM697.104 503.168C695.592 503.168 694.44 502.736 693.672 501.992C692.904 501.272 692.544 500.216 692.544 498.896V493.088H688.608V491.504H692.544V487.28H694.656V491.504H699.744V493.088H694.656V498.512C694.656 499.496 694.872 500.192 695.304 500.696C695.784 501.2 696.552 501.44 697.608 501.44C698.592 501.44 699.528 501.104 700.176 500.696V502.424C699.216 502.928 698.352 503.168 697.104 503.168ZM724.948 503.168C723.436 503.168 722.284 502.736 721.516 501.992C720.748 501.272 720.388 500.216 720.388 498.896V493.088H716.452V491.504H720.388V487.28H722.5V491.504H727.588V493.088H722.5V498.512C722.5 499.496 722.716 500.192 723.148 500.696C723.628 501.2 724.396 501.44 725.452 501.44C726.436 501.44 727.372 501.104 728.02 500.696V502.424C727.06 502.928 726.196 503.168 724.948 503.168ZM736.854 503.384C733.71 503.384 731.43 500.816 731.43 497.288C731.43 493.76 733.71 491.168 736.806 491.168C740.094 491.168 741.894 494.096 741.894 497.12V497.48H733.614C733.662 500.072 734.958 501.656 736.878 501.656C738.102 501.656 739.182 501.08 739.806 499.808C739.878 499.664 739.95 499.52 739.998 499.352L741.774 499.808C741.702 499.952 741.654 500.096 741.582 500.24C740.526 502.208 738.918 503.384 736.854 503.384ZM733.686 496.016H739.83C739.614 494.312 738.726 492.8 736.83 492.8C735.054 492.8 733.95 494.048 733.686 496.016ZM750.704 503.384C747.56 503.384 745.352 500.792 745.352 497.288C745.352 493.784 747.56 491.168 750.728 491.168C752.912 491.168 754.592 492.416 755.408 494.552C755.456 494.744 755.504 494.888 755.576 495.08L753.632 495.56C753.584 495.392 753.56 495.248 753.488 495.104C752.912 493.568 751.952 492.848 750.704 492.848C748.784 492.848 747.536 494.648 747.536 497.288C747.536 499.904 748.784 501.704 750.704 501.704C751.952 501.704 752.984 501.008 753.512 499.448C753.56 499.304 753.608 499.16 753.656 498.944L755.552 499.448C755.504 499.592 755.456 499.76 755.384 499.928C754.544 502.112 752.912 503.384 750.704 503.384ZM759.826 503V486.2H761.938V493.664C762.658 492.104 763.93 491.216 765.514 491.216C767.938 491.216 769.378 492.968 769.378 495.512V503H767.266V495.776C767.266 494.024 766.522 492.944 764.842 492.944C762.97 492.944 761.938 494.312 761.938 496.664V503H759.826ZM773.748 503V491.504H775.788V493.832C776.484 492.176 777.804 491.216 779.436 491.216C781.86 491.216 783.3 492.944 783.3 495.512V503H781.188V495.776C781.188 494.024 780.468 492.944 778.764 492.944C776.892 492.944 775.86 494.312 775.86 496.664V503H773.748ZM792.398 503.384C789.374 503.384 787.021 500.792 787.021 497.288C787.021 493.784 789.374 491.168 792.398 491.168C795.398 491.168 797.75 493.784 797.75 497.288C797.75 500.792 795.398 503.384 792.398 503.384ZM789.23 497.288C789.23 499.976 790.454 501.704 792.398 501.704C794.342 501.704 795.542 499.976 795.542 497.288C795.542 494.576 794.342 492.872 792.398 492.872C790.454 492.872 789.23 494.576 789.23 497.288ZM800.751 503V501.392H805.191V487.76H801.207V486.2H807.279V501.392H811.719V503H800.751ZM820.241 503.384C817.217 503.384 814.865 500.792 814.865 497.288C814.865 493.784 817.217 491.168 820.241 491.168C823.241 491.168 825.593 493.784 825.593 497.288C825.593 500.792 823.241 503.384 820.241 503.384ZM817.073 497.288C817.073 499.976 818.297 501.704 820.241 501.704C822.185 501.704 823.385 499.976 823.385 497.288C823.385 494.576 822.185 492.872 820.241 492.872C818.297 492.872 817.073 494.576 817.073 497.288ZM833.779 507.056C831.787 507.056 829.867 506.168 829.003 505.112L830.179 503.744C831.259 504.848 832.363 505.328 833.683 505.328C835.723 505.328 836.995 504.488 836.995 502.472V500.12C836.323 501.68 834.979 502.76 833.347 502.76C830.539 502.76 828.691 500.312 828.691 497.072C828.691 493.784 830.635 491.24 833.467 491.24C835.147 491.24 836.419 492.272 837.043 493.904V491.504H839.107V502.52C839.107 505.304 836.779 507.056 833.779 507.056ZM830.875 497.072C830.875 499.496 831.955 501.08 833.899 501.08C835.819 501.08 837.043 499.544 837.043 497.072C837.043 494.504 835.867 492.944 833.995 492.944C832.003 492.944 830.875 494.6 830.875 497.072ZM844.677 507.008C844.077 507.008 843.405 506.912 842.901 506.672V504.896C843.309 505.16 844.029 505.328 844.461 505.328C845.493 505.328 846.093 504.896 846.549 503.792L847.077 502.544L842.853 491.504H845.085L848.133 500.408L851.301 491.504H853.437L848.373 504.392C847.605 506.336 846.477 507.008 844.677 507.008Z" fill="white"/>
<path d="M123.032 23.384C120.944 23.384 119.072 22.52 118.04 20.768C117.944 20.6 117.848 20.408 117.752 20.192L119.504 19.496C119.576 19.664 119.648 19.808 119.744 19.976C120.44 21.128 121.664 21.776 123.056 21.776C124.568 21.776 125.624 21.032 125.624 19.88C125.624 18.752 125 18.488 123.296 18.08L121.784 17.696C119.48 17.144 118.496 16.088 118.496 14.528C118.496 12.56 120.272 11.168 122.768 11.168C124.616 11.168 126.224 11.888 127.184 13.208L127.544 13.736L125.864 14.504C125.792 14.36 125.696 14.216 125.576 14.072C124.976 13.28 123.944 12.776 122.792 12.776C121.28 12.776 120.464 13.448 120.464 14.408C120.464 15.08 120.824 15.56 122.312 15.896L124.088 16.28C126.56 16.832 127.688 17.84 127.688 19.736C127.688 21.896 125.672 23.384 123.032 23.384ZM137.026 23.384C133.882 23.384 131.602 20.816 131.602 17.288C131.602 13.76 133.882 11.168 136.978 11.168C140.266 11.168 142.066 14.096 142.066 17.12V17.48H133.786C133.834 20.072 135.13 21.656 137.05 21.656C138.274 21.656 139.354 21.08 139.978 19.808C140.05 19.664 140.122 19.52 140.17 19.352L141.946 19.808C141.874 19.952 141.826 20.096 141.754 20.24C140.698 22.208 139.09 23.384 137.026 23.384ZM133.858 16.016H140.002C139.786 14.312 138.898 12.8 137.002 12.8C135.226 12.8 134.122 14.048 133.858 16.016ZM149.772 23.384C146.988 23.384 145.044 20.864 145.044 17.312C145.044 13.808 147.06 11.168 149.892 11.168C151.524 11.168 152.892 12.224 153.54 13.832V6.2H155.652V23H153.612V20.528C152.94 22.232 151.476 23.384 149.772 23.384ZM147.252 17.312C147.252 19.976 148.428 21.656 150.348 21.656C152.316 21.656 153.588 19.952 153.588 17.312C153.588 14.6 152.364 12.92 150.444 12.92C148.476 12.92 147.252 14.648 147.252 17.312ZM159.062 23V21.392H163.31V13.064H159.734V11.504H165.422V21.392H169.694V23H159.062ZM163.046 9.32V6.2H165.686V9.32H163.046ZM173.152 23V11.504H175V12.896C175.432 11.84 176.2 11.216 177.136 11.216C178.288 11.216 178.984 12.152 179.224 13.4C179.632 12.032 180.544 11.216 181.672 11.216C183.28 11.216 184.168 12.584 184.168 14.336V23H182.248V14.456C182.248 13.52 181.936 12.824 181.12 12.824C180.16 12.824 179.584 13.76 179.584 15.608V23H177.688V14.648C177.688 13.616 177.4 12.824 176.488 12.824C175.576 12.824 175.048 13.784 175.048 15.608V23H173.152ZM192.713 23.384C189.569 23.384 187.289 20.816 187.289 17.288C187.289 13.76 189.569 11.168 192.665 11.168C195.953 11.168 197.753 14.096 197.753 17.12V17.48H189.473C189.521 20.072 190.817 21.656 192.737 21.656C193.961 21.656 195.041 21.08 195.665 19.808C195.737 19.664 195.809 19.52 195.857 19.352L197.633 19.808C197.561 19.952 197.513 20.096 197.441 20.24C196.385 22.208 194.777 23.384 192.713 23.384ZM189.545 16.016H195.689C195.473 14.312 194.585 12.8 192.689 12.8C190.913 12.8 189.809 14.048 189.545 16.016ZM201.763 23V11.504H203.803V13.832C204.499 12.176 205.819 11.216 207.451 11.216C209.875 11.216 211.315 12.944 211.315 15.512V23H209.203V15.776C209.203 14.024 208.483 12.944 206.779 12.944C204.907 12.944 203.875 14.312 203.875 16.664V23H201.763ZM222.573 23.168C221.061 23.168 219.909 22.736 219.141 21.992C218.373 21.272 218.013 20.216 218.013 18.896V13.088H214.077V11.504H218.013V7.28H220.125V11.504H225.213V13.088H220.125V18.512C220.125 19.496 220.341 20.192 220.773 20.696C221.253 21.2 222.021 21.44 223.077 21.44C224.061 21.44 224.997 21.104 225.645 20.696V22.424C224.685 22.928 223.821 23.168 222.573 23.168ZM232.775 23.36C230.831 23.36 229.199 22.184 229.199 20.072C229.199 18.344 230.231 16.976 233.183 16.4L236.519 15.728V15.128C236.519 13.784 235.895 12.776 234.143 12.776C232.631 12.776 231.767 13.496 231.503 14.576H229.343C229.919 12.536 231.695 11.168 234.311 11.168C236.999 11.168 238.583 12.656 238.583 14.984V20.336C238.583 21.224 238.943 21.632 239.615 21.632C239.855 21.632 240.023 21.584 240.239 21.488V22.976C239.927 23.12 239.543 23.264 238.991 23.264C237.599 23.264 236.759 22.448 236.591 21.032C235.655 22.592 234.335 23.36 232.775 23.36ZM231.311 19.952C231.311 21.224 232.271 21.728 233.423 21.728C234.935 21.728 236.543 20.528 236.543 18.8V17L233.999 17.576C231.959 18.056 231.311 18.944 231.311 19.952ZM250.417 23.168C248.905 23.168 247.753 22.736 246.985 21.992C246.217 21.272 245.857 20.216 245.857 18.896V13.088H241.921V11.504H245.857V7.28H247.969V11.504H253.057V13.088H247.969V18.512C247.969 19.496 248.185 20.192 248.617 20.696C249.097 21.2 249.865 21.44 250.921 21.44C251.905 21.44 252.841 21.104 253.489 20.696V22.424C252.529 22.928 251.665 23.168 250.417 23.168ZM256.515 23V21.392H260.763V13.064H257.187V11.504H262.875V21.392H267.147V23H256.515ZM260.499 9.32V6.2H263.139V9.32H260.499ZM276.101 23.384C273.077 23.384 270.725 20.792 270.725 17.288C270.725 13.784 273.077 11.168 276.101 11.168C279.101 11.168 281.453 13.784 281.453 17.288C281.453 20.792 279.101 23.384 276.101 23.384ZM272.933 17.288C272.933 19.976 274.157 21.704 276.101 21.704C278.045 21.704 279.245 19.976 279.245 17.288C279.245 14.576 278.045 12.872 276.101 12.872C274.157 12.872 272.933 14.576 272.933 17.288ZM285.295 23V11.504H287.335V13.832C288.031 12.176 289.351 11.216 290.983 11.216C293.407 11.216 294.847 12.944 294.847 15.512V23H292.735V15.776C292.735 14.024 292.015 12.944 290.311 12.944C288.439 12.944 287.407 14.312 287.407 16.664V23H285.295Z" fill="white"/>
<path d="M932.12 119.168C930.608 119.168 929.456 118.736 928.688 117.992C927.92 117.272 927.56 116.216 927.56 114.896V109.088H923.624V107.504H927.56V103.28H929.672V107.504H934.76V109.088H929.672V114.512C929.672 115.496 929.888 116.192 930.32 116.696C930.8 117.2 931.568 117.44 932.624 117.44C933.608 117.44 934.544 117.104 935.192 116.696V118.424C934.232 118.928 933.368 119.168 932.12 119.168ZM938.218 119V117.392H942.466V109.064H938.89V107.504H944.578V117.392H948.85V119H938.218ZM942.202 105.32V102.2H944.842V105.32H942.202ZM952.308 119V107.504H954.156V108.896C954.588 107.84 955.356 107.216 956.292 107.216C957.444 107.216 958.14 108.152 958.38 109.4C958.788 108.032 959.7 107.216 960.828 107.216C962.436 107.216 963.324 108.584 963.324 110.336V119H961.404V110.456C961.404 109.52 961.092 108.824 960.276 108.824C959.316 108.824 958.74 109.76 958.74 111.608V119H956.844V110.648C956.844 109.616 956.556 108.824 955.644 108.824C954.732 108.824 954.204 109.784 954.204 111.608V119H952.308ZM971.87 119.384C968.726 119.384 966.446 116.816 966.446 113.288C966.446 109.76 968.726 107.168 971.822 107.168C975.11 107.168 976.91 110.096 976.91 113.12V113.48H968.63C968.678 116.072 969.974 117.656 971.894 117.656C973.118 117.656 974.198 117.08 974.822 115.808C974.894 115.664 974.966 115.52 975.014 115.352L976.79 115.808C976.718 115.952 976.67 116.096 976.598 116.24C975.542 118.208 973.934 119.384 971.87 119.384ZM968.702 112.016H974.846C974.63 110.312 973.742 108.8 971.846 108.8C970.07 108.8 968.966 110.048 968.702 112.016Z" fill="white"/>
<path d="M7.104 332.384C3.96 332.384 1.68 329.816 1.68 326.288C1.68 322.76 3.96 320.168 7.056 320.168C10.344 320.168 12.144 323.096 12.144 326.12V326.48H3.864C3.912 329.072 5.208 330.656 7.128 330.656C8.352 330.656 9.432 330.08 10.056 328.808C10.128 328.664 10.2 328.52 10.248 328.352L12.024 328.808C11.952 328.952 11.904 329.096 11.832 329.24C10.776 331.208 9.168 332.384 7.104 332.384ZM3.936 325.016H10.08C9.864 323.312 8.976 321.8 7.08 321.8C5.304 321.8 4.2 323.048 3.936 325.016ZM17.1139 332V320.504H19.1539V324.152C20.6659 321.848 22.8499 320.456 25.8979 320.408V322.472C21.8419 322.4 19.2259 324.32 19.2259 326.984V332H17.1139ZM34.8038 332.384C31.7798 332.384 29.4277 329.792 29.4277 326.288C29.4277 322.784 31.7798 320.168 34.8038 320.168C37.8038 320.168 40.1558 322.784 40.1558 326.288C40.1558 329.792 37.8038 332.384 34.8038 332.384ZM31.6358 326.288C31.6358 328.976 32.8598 330.704 34.8038 330.704C36.7478 330.704 37.9478 328.976 37.9478 326.288C37.9478 323.576 36.7478 321.872 34.8038 321.872C32.8598 321.872 31.6358 323.576 31.6358 326.288ZM48.7976 332.384C46.7096 332.384 44.8376 331.52 43.8056 329.768C43.7096 329.6 43.6136 329.408 43.5176 329.192L45.2696 328.496C45.3416 328.664 45.4136 328.808 45.5096 328.976C46.2056 330.128 47.4296 330.776 48.8216 330.776C50.3336 330.776 51.3896 330.032 51.3896 328.88C51.3896 327.752 50.7656 327.488 49.0616 327.08L47.5496 326.696C45.2456 326.144 44.2616 325.088 44.2616 323.528C44.2616 321.56 46.0376 320.168 48.5336 320.168C50.3816 320.168 51.9896 320.888 52.9496 322.208L53.3096 322.736L51.6296 323.504C51.5576 323.36 51.4616 323.216 51.3416 323.072C50.7416 322.28 49.7096 321.776 48.5576 321.776C47.0456 321.776 46.2296 322.448 46.2296 323.408C46.2296 324.08 46.5896 324.56 48.0776 324.896L49.8536 325.28C52.3256 325.832 53.4536 326.84 53.4536 328.736C53.4536 330.896 51.4376 332.384 48.7976 332.384ZM56.9835 332V330.392H61.2315V322.064H57.6555V320.504H63.3435V330.392H67.6155V332H56.9835ZM60.9675 318.32V315.2H63.6075V318.32H60.9675ZM76.5694 332.384C73.5454 332.384 71.1934 329.792 71.1934 326.288C71.1934 322.784 73.5454 320.168 76.5694 320.168C79.5694 320.168 81.9214 322.784 81.9214 326.288C81.9214 329.792 79.5694 332.384 76.5694 332.384ZM73.4014 326.288C73.4014 328.976 74.6254 330.704 76.5694 330.704C78.5134 330.704 79.7134 328.976 79.7134 326.288C79.7134 323.576 78.5134 321.872 76.5694 321.872C74.6254 321.872 73.4014 323.576 73.4014 326.288ZM85.7633 332V320.504H87.8033V322.832C88.4993 321.176 89.8193 320.216 91.4513 320.216C93.8753 320.216 95.3153 321.944 95.3153 324.512V332H93.2033V324.776C93.2033 323.024 92.4833 321.944 90.7793 321.944C88.9073 321.944 87.8753 323.312 87.8753 325.664V332H85.7633Z" fill="white"/>
</svg>
