<svg width="248" height="36" viewBox="0 0 248 36" fill="none" xmlns="http://www.w3.org/2000/svg">
<path d="M1.56164e-05 34.3682V0.768162H7.63202L11.712 14.7842C11.952 15.5042 12.144 16.2722 12.288 16.9922C12.48 16.2722 12.624 15.5522 12.864 14.8322L16.944 0.768162H24.672V34.3682H19.152V12.6242C19.152 10.4162 19.152 8.30416 19.44 5.52016L13.392 27.0242H10.944L4.99202 5.80816C5.28002 8.54416 5.23202 10.7522 5.23202 12.4802V34.3682H1.56164e-05ZM40.1798 35.1362C32.5958 35.1362 27.6518 28.4162 27.6518 17.5682C27.6518 6.72016 32.5958 0.000163078 40.1798 0.000163078C47.7638 0.000163078 52.7078 6.72016 52.7078 17.5682C52.7078 28.4162 47.7638 35.1362 40.1798 35.1362ZM33.9398 17.5682C33.9398 25.3442 36.3398 29.8082 40.1798 29.8082C44.0678 29.8082 46.4198 25.3442 46.4198 17.5682C46.4198 9.79216 44.0678 5.32816 40.1798 5.32816C36.3398 5.32816 33.9398 9.79216 33.9398 17.5682ZM68.0235 35.1362C60.4395 35.1362 55.4955 28.4162 55.4955 17.5682C55.4955 6.72016 60.4395 0.000163078 68.0235 0.000163078C75.6075 0.000163078 80.5515 6.72016 80.5515 17.5682C80.5515 28.4162 75.6075 35.1362 68.0235 35.1362ZM61.7835 17.5682C61.7835 25.3442 64.1835 29.8082 68.0235 29.8082C71.9115 29.8082 74.2635 25.3442 74.2635 17.5682C74.2635 9.79216 71.9115 5.32816 68.0235 5.32816C64.1835 5.32816 61.7835 9.79216 61.7835 17.5682ZM84.5393 34.3682V0.768162H93.3713C103.067 0.768162 107.915 7.24816 107.915 17.2802C107.915 27.6002 103.067 34.3682 93.1793 34.3682H84.5393ZM90.7313 29.4722H92.7473C99.0353 29.4722 101.483 24.8642 101.483 17.3282C101.483 9.74416 98.7473 5.66416 93.2273 5.66416H90.7313V29.4722ZM112.719 34.3682V0.768162H122.847C130.191 0.768162 134.559 4.03216 134.559 9.31216C134.559 13.0562 132.015 15.8882 128.175 16.7042C133.359 17.5682 135.999 20.4002 135.999 24.6242C135.999 30.4802 131.007 34.3682 123.183 34.3682H112.719ZM118.719 29.6162H122.895C126.927 29.6162 129.663 27.7922 129.663 24.3362C129.663 21.0722 127.695 19.1042 123.423 19.1042H118.719V29.6162ZM118.719 14.6882H122.799C126.687 14.6882 128.703 12.7682 128.703 9.93616C128.703 7.10416 126.639 5.52016 122.703 5.52016H118.719V14.6882ZM151.555 35.1362C143.971 35.1362 139.027 28.4162 139.027 17.5682C139.027 6.72016 143.971 0.000163078 151.555 0.000163078C159.139 0.000163078 164.083 6.72016 164.083 17.5682C164.083 28.4162 159.139 35.1362 151.555 35.1362ZM145.315 17.5682C145.315 25.3442 147.715 29.8082 151.555 29.8082C155.443 29.8082 157.795 25.3442 157.795 17.5682C157.795 9.79216 155.443 5.32816 151.555 5.32816C147.715 5.32816 145.315 9.79216 145.315 17.5682ZM166.295 34.3682L175.991 0.768162H183.095L192.455 34.3682H186.407L184.247 26.0162H174.263L172.103 34.3682H166.295ZM175.415 21.5522H183.095L179.351 6.43216L175.415 21.5522ZM196.058 34.3682V0.768162H206.954C214.874 0.768162 219.53 4.41616 219.53 10.0322C219.53 14.5442 216.458 17.7602 211.37 18.9602L220.01 34.3682H213.338L205.514 19.5362H202.25V34.3682H196.058ZM202.25 15.1202H206.378C210.746 15.1202 213.194 13.1522 213.194 10.1762C213.194 7.20016 210.65 5.52016 206.714 5.52016H202.25V15.1202ZM223.758 34.3682V0.768162H232.59C242.286 0.768162 247.134 7.24816 247.134 17.2802C247.134 27.6002 242.286 34.3682 232.398 34.3682H223.758ZM229.95 29.4722H231.966C238.254 29.4722 240.702 24.8642 240.702 17.3282C240.702 9.74416 237.966 5.66416 232.446 5.66416H229.95V29.4722Z" fill="white"/>
</svg>
