<svg width="376" height="49" viewBox="0 0 376 49" fill="none" xmlns="http://www.w3.org/2000/svg">
<path d="M76.6641 29.1653H67.7879V35.9385H61.4244V15.6189H76.6641C83.9835 15.6189 86.1411 18.5139 86.1411 22.2282V22.5014C86.1411 26.1337 83.9289 29.1653 76.6641 29.1653ZM67.7879 20.2345V24.6043H76.5548C78.5486 24.6043 79.5045 23.8669 79.5045 22.474V22.3921C79.5045 20.9992 78.6032 20.2345 76.5548 20.2345H67.7879ZM94.6191 15.6189V35.9385H88.2556V15.6189H94.6191ZM114.001 27.6359L110.068 20.016L106.3 27.6359H114.001ZM118.262 35.9385L116.35 32.2241H104.033L102.203 35.9385H95.7301L105.999 15.6189H114.247L125.117 35.9385H118.262ZM125.826 15.6189H148.494V19.3332L134.565 31.1317H148.685V35.9385H125.607V32.1968L139.181 20.3165H125.826V15.6189ZM150.763 15.6189H173.431V19.3332L159.503 31.1317H173.623V35.9385H150.545V32.1968L164.118 20.3165H150.763V15.6189ZM176.11 15.6189H197.522V20.2345H182.392V23.2388H197.167V27.8817H182.392V31.2136H197.795V35.9385H176.11V15.6189ZM199.724 15.6189H211.441L221 24.8501V15.6189H231.378V35.9385H220.808L210.102 25.7787V35.9385H199.724V15.6189ZM233.063 15.6189H257.561V21.2997H243.278V22.8837H257.397V28.4552H243.278V30.2031H257.671V35.9385H233.063V15.6189ZM273.486 36.3481H272.776C261.414 36.3481 258.71 30.7767 258.71 26.1064V25.2871C258.71 20.1253 261.824 15.2093 274.333 15.2093H275.206C289.599 15.2093 290.965 20.3165 290.965 23.2661V23.2934H280.368C280.232 22.7745 279.549 21.3543 275.043 21.3543C271.001 21.3543 269.389 23.0749 269.389 25.5329V25.7787C269.389 28.3186 270.919 30.3397 274.961 30.3397C279.003 30.3397 280.095 29.0834 280.095 28.5371H274.606V24.3858H291.102V35.9385H284.137C283.946 35.3649 283.427 34.3271 282.908 33.8082C282.253 34.409 279.849 36.3481 273.486 36.3481ZM310.587 27.4993L308.101 21.8732L305.671 27.4993H310.587ZM314.301 35.9385L313.236 33.5078H303.076L302.011 35.9385H291.523L301.11 15.6189H315.694L325.881 35.9385H314.301ZM329.998 35.9385V22.6106H321.231V15.6189H349.143V22.6106H340.376V35.9385H329.998ZM350.523 15.6189H375.021V21.2997H360.737V22.8837H374.857V28.4552H360.737V30.2031H375.13V35.9385H350.523V15.6189Z" fill="#BFFF00"/>
<circle cx="22.7193" cy="25.8228" r="22.7193" fill="#BFFF00"/>
<mask id="path-3-outside-1_178_28" maskUnits="userSpaceOnUse" x="21.1943" y="-0.852539" width="35" height="35" fill="black">
<rect fill="white" x="21.1943" y="-0.852539" width="35" height="35"/>
<path d="M50.126 9.98242L49.4824 10.627L43.4961 16.6123L49.4824 22.5996L50.127 23.2432L49.4824 23.8867L45.9346 27.4346L45.291 28.0791L44.6475 27.4346L38.6602 21.4473L32.6738 27.4346L32.0303 28.0791L31.3867 27.4346L27.8389 23.8867L27.1943 23.2432L27.8389 22.5996L33.8242 16.6123L27.8389 10.627L27.1953 9.98242L32.0303 5.14746L32.6748 5.79102L38.6602 11.7764L44.6465 5.79102L45.291 5.14746L50.126 9.98242Z"/>
</mask>
<path d="M50.126 9.98242L49.4824 10.627L43.4961 16.6123L49.4824 22.5996L50.127 23.2432L49.4824 23.8867L45.9346 27.4346L45.291 28.0791L44.6475 27.4346L38.6602 21.4473L32.6738 27.4346L32.0303 28.0791L31.3867 27.4346L27.8389 23.8867L27.1943 23.2432L27.8389 22.5996L33.8242 16.6123L27.8389 10.627L27.1953 9.98242L32.0303 5.14746L32.6748 5.79102L38.6602 11.7764L44.6465 5.79102L45.291 5.14746L50.126 9.98242Z" fill="black"/>
<path d="M50.126 9.98242L52.7029 12.5554L55.2739 9.98047L52.7009 7.40749L50.126 9.98242ZM49.4824 10.627L52.0571 13.2021L52.0593 13.1999L49.4824 10.627ZM43.4961 16.6123L40.9214 14.0372L38.3462 16.6119L40.921 19.187L43.4961 16.6123ZM49.4824 22.5996L46.9073 25.1743L46.9094 25.1765L49.4824 22.5996ZM50.127 23.2432L52.6999 25.82L55.2807 23.2432L52.6999 20.6663L50.127 23.2432ZM49.4824 23.8867L46.9094 21.3098L46.9075 21.3118L49.4824 23.8867ZM45.9346 27.4346L43.3596 24.8596L43.3577 24.8616L45.9346 27.4346ZM45.291 28.0791L42.7141 30.6521L45.291 33.2329L47.8679 30.6521L45.291 28.0791ZM44.6475 27.4346L47.2243 24.8616L47.2224 24.8596L44.6475 27.4346ZM38.6602 21.4473L41.2351 18.8723L38.6599 16.2972L36.085 18.8725L38.6602 21.4473ZM32.6738 27.4346L30.0987 24.8599L30.0969 24.8616L32.6738 27.4346ZM32.0303 28.0791L29.4534 30.6521L32.0303 33.2329L34.6072 30.6521L32.0303 28.0791ZM31.3867 27.4346L33.9636 24.8616L33.9616 24.8596L31.3867 27.4346ZM27.8389 23.8867L30.4138 21.3118L30.4118 21.3098L27.8389 23.8867ZM27.1943 23.2432L24.6214 20.6663L22.0406 23.2432L24.6214 25.82L27.1943 23.2432ZM27.8389 22.5996L30.4118 25.1765L30.4142 25.1741L27.8389 22.5996ZM33.8242 16.6123L36.3996 19.1868L38.9737 16.6119L36.3991 14.0374L33.8242 16.6123ZM27.8389 10.627L25.262 13.1999L25.2639 13.2019L27.8389 10.627ZM27.1953 9.98242L24.6204 7.40749L22.0474 9.98047L24.6184 12.5554L27.1953 9.98242ZM32.0303 5.14746L34.6032 2.57058L32.0283 -0.000442982L29.4553 2.57253L32.0303 5.14746ZM32.6748 5.79102L35.2497 3.21609L35.2478 3.21414L32.6748 5.79102ZM38.6602 11.7764L36.0852 14.3513L38.6599 16.926L41.2349 14.3515L38.6602 11.7764ZM44.6465 5.79102L42.0735 3.21414L42.0718 3.21588L44.6465 5.79102ZM45.291 5.14746L47.8659 2.57253L45.293 -0.000442982L42.718 2.57058L45.291 5.14746ZM50.126 9.98242L47.5491 7.40945L46.9055 8.05398L49.4824 10.627L52.0593 13.1999L52.7029 12.5554L50.126 9.98242ZM49.4824 10.627L46.9077 8.05182L40.9214 14.0372L43.4961 16.6123L46.0708 19.1874L52.0571 13.2021L49.4824 10.627ZM43.4961 16.6123L40.921 19.187L46.9073 25.1743L49.4824 22.5996L52.0576 20.0249L46.0712 14.0376L43.4961 16.6123ZM49.4824 22.5996L46.9094 25.1765L47.554 25.82L50.127 23.2432L52.6999 20.6663L52.0554 20.0227L49.4824 22.5996ZM50.127 23.2432L47.554 20.6663L46.9094 21.3098L49.4824 23.8867L52.0554 26.4636L52.6999 25.82L50.127 23.2432ZM49.4824 23.8867L46.9075 21.3118L43.3596 24.8596L45.9346 27.4346L48.5095 30.0095L52.0574 26.4616L49.4824 23.8867ZM45.9346 27.4346L43.3577 24.8616L42.7141 25.5061L45.291 28.0791L47.8679 30.6521L48.5114 30.0075L45.9346 27.4346ZM45.291 28.0791L47.8679 25.5061L47.2243 24.8616L44.6475 27.4346L42.0706 30.0075L42.7141 30.6521L45.291 28.0791ZM44.6475 27.4346L47.2224 24.8596L41.2351 18.8723L38.6602 21.4473L36.0852 24.0222L42.0725 30.0095L44.6475 27.4346ZM38.6602 21.4473L36.085 18.8725L30.0987 24.8599L32.6738 27.4346L35.249 30.0093L41.2353 24.022L38.6602 21.4473ZM32.6738 27.4346L30.0969 24.8616L29.4534 25.5061L32.0303 28.0791L34.6072 30.6521L35.2507 30.0075L32.6738 27.4346ZM32.0303 28.0791L34.6072 25.5061L33.9636 24.8616L31.3867 27.4346L28.8098 30.0075L29.4534 30.6521L32.0303 28.0791ZM31.3867 27.4346L33.9616 24.8596L30.4138 21.3118L27.8389 23.8867L25.2639 26.4616L28.8118 30.0095L31.3867 27.4346ZM27.8389 23.8867L30.4118 21.3098L29.7673 20.6663L27.1943 23.2432L24.6214 25.82L25.2659 26.4636L27.8389 23.8867ZM27.1943 23.2432L29.7673 25.82L30.4118 25.1765L27.8389 22.5996L25.2659 20.0227L24.6214 20.6663L27.1943 23.2432ZM27.8389 22.5996L30.4142 25.1741L36.3996 19.1868L33.8242 16.6123L31.2489 14.0378L25.2635 20.0251L27.8389 22.5996ZM33.8242 16.6123L36.3991 14.0374L30.4138 8.05203L27.8389 10.627L25.2639 13.2019L31.2493 19.1872L33.8242 16.6123ZM27.8389 10.627L30.4157 8.05398L29.7722 7.40945L27.1953 9.98242L24.6184 12.5554L25.262 13.1999L27.8389 10.627ZM27.1953 9.98242L29.7702 12.5573L34.6052 7.72239L32.0303 5.14746L29.4553 2.57253L24.6204 7.40749L27.1953 9.98242ZM32.0303 5.14746L29.4573 7.72434L30.1018 8.36789L32.6748 5.79102L35.2478 3.21414L34.6032 2.57058L32.0303 5.14746ZM32.6748 5.79102L30.0999 8.36594L36.0852 14.3513L38.6602 11.7764L41.2351 9.20144L35.2497 3.21609L32.6748 5.79102ZM38.6602 11.7764L41.2349 14.3515L47.2212 8.36615L44.6465 5.79102L42.0718 3.21588L36.0854 9.20123L38.6602 11.7764ZM44.6465 5.79102L47.2195 8.36789L47.864 7.72434L45.291 5.14746L42.718 2.57058L42.0735 3.21414L44.6465 5.79102ZM45.291 5.14746L42.7161 7.72239L47.551 12.5573L50.126 9.98242L52.7009 7.40749L47.8659 2.57253L45.291 5.14746Z" fill="#7F04FA" mask="url(#path-3-outside-1_178_28)"/>
</svg>
