<svg width="3672" height="925" viewBox="0 0 3672 925" fill="none" xmlns="http://www.w3.org/2000/svg">
<g filter="url(#filter0_g_453_98)">
<path d="M1886.45 907.451V866.534H1928.02V907.451H1886.45ZM1890 843.981C1890 830.127 1891.29 818.85 1894.19 810.151C1897.09 801.452 1903.21 792.753 1912.23 784.376C1912.87 783.732 1915.13 781.799 1918.35 778.899C1921.57 776 1923.83 774.067 1925.12 772.778C1926.08 771.811 1928.02 769.878 1930.59 767.301C1933.17 764.723 1934.78 762.468 1935.75 760.535C1936.71 758.924 1938 756.669 1939.29 754.091C1940.58 751.514 1941.55 748.614 1942.19 746.036C1942.84 743.459 1943.16 740.559 1943.16 737.338C1943.16 727.994 1939.94 720.262 1933.82 714.14C1927.37 708.341 1919.32 705.119 1909.65 705.119C1884.52 705.119 1871.31 720.584 1870.67 750.869H1833.62C1834.58 727.028 1841.67 708.341 1854.56 694.487C1867.45 680.633 1885.81 673.545 1910.3 673.545C1931.88 673.545 1949.28 679.666 1962.49 691.265C1975.7 702.864 1982.47 718.329 1982.47 737.338C1982.47 744.426 1981.5 750.869 1980.21 756.346C1978.6 762.146 1976.02 767.301 1972.16 772.133C1968.29 777.288 1964.74 781.155 1961.85 784.054C1958.62 787.276 1953.79 791.464 1947.35 796.942C1936.39 806.285 1929.95 813.051 1928.02 817.239C1925.76 821.428 1924.79 830.449 1924.79 843.981H1890Z" fill="#BFFF00"/>
</g>
<g filter="url(#filter1_g_453_98)">
<path d="M1631.4 907.454V724.454H1528.3V667.749H1810.53V724.454H1707.11V907.454H1631.4Z" fill="#BFFF00"/>
</g>
<g filter="url(#filter2_g_453_98)">
<path d="M1253.84 667.749H1506.44V722.198H1327.95V757.639H1502.25V812.41H1327.95V851.716H1509.66V907.454H1253.84V667.749Z" fill="#BFFF00"/>
</g>
<g filter="url(#filter3_g_453_98)">
<path d="M966.898 667.749H1219.49V722.198H1041V757.639H1215.3V812.41H1041V851.716H1222.71V907.454H966.898V667.749Z" fill="#BFFF00"/>
</g>
<g filter="url(#filter4_g_453_98)">
<path d="M554.729 907.454V667.749H661.373L744.174 816.921L827.298 667.749H930.075V907.454H855.972V741.529L761.572 907.454H721.299L626.899 741.529V907.454H554.729Z" fill="#BFFF00"/>
</g>
<g filter="url(#filter5_fg_453_98)">
<g filter="url(#filter6_g_453_98)">
<path d="M1628.56 914.922V731.921H1525.46V675.217H1807.69V731.921H1704.27V914.922H1628.56Z" fill="#BFFF00"/>
</g>
<g filter="url(#filter7_g_453_98)">
<path d="M1251 675.217H1503.6V729.666H1325.11V765.106H1499.41V819.878H1325.11V859.184H1506.82V914.922H1251V675.217Z" fill="#BFFF00"/>
</g>
<g filter="url(#filter8_g_453_98)">
<path d="M964.057 675.217H1216.65V729.666H1038.16V765.106H1212.46V819.878H1038.16V859.184H1219.87V914.922H964.057V675.217Z" fill="#BFFF00"/>
</g>
<g filter="url(#filter9_g_453_98)">
<path d="M551.886 914.922V675.217H658.529L741.331 824.388L824.454 675.217H927.231V914.922H853.129V748.997L758.729 914.922H718.456L624.056 748.997V914.922H551.886Z" fill="#BFFF00"/>
</g>
</g>
<g filter="url(#filter10_g_453_98)">
<path d="M324.984 672.579C357.202 672.579 383.622 683.856 403.919 706.086C424.217 728.317 434.527 757.314 434.527 792.754C434.527 828.516 424.217 857.513 403.919 879.744C383.299 901.975 356.88 912.929 324.34 912.929C291.477 912.929 264.735 901.975 244.438 879.744C224.14 857.835 214.152 828.839 214.152 792.754C214.152 757.958 223.818 729.284 243.793 706.731C263.769 684.178 290.832 672.579 324.984 672.579ZM324.34 706.408C303.075 706.408 286.322 714.463 273.757 729.928C260.869 745.393 254.748 766.335 254.748 792.11C254.748 818.851 260.869 840.115 273.434 855.58C286 871.367 303.075 879.099 324.984 879.099C345.604 879.099 362.357 871.367 374.923 855.58C387.488 839.793 393.931 818.851 393.931 792.432C393.931 766.335 387.488 745.393 374.923 729.928C362.357 714.463 345.604 706.408 324.34 706.408Z" fill="#BFFF00"/>
</g>
<g filter="url(#filter11_g_453_98)">
<path d="M199.726 678.056V712.852H126.59V907.451H86.3171V712.852H13.1812V678.056H199.726Z" fill="#BFFF00"/>
</g>
<g filter="url(#filter12_g_453_98)">
<path d="M3667.62 342.603V376.432H3542.29V437.325H3658.6V469.865H3542.29V537.524H3669.56V571.998H3502.34V342.603H3667.62Z" fill="#BFFF00"/>
</g>
<g filter="url(#filter13_g_453_98)">
<path d="M3466.68 484.692C3464.43 513.044 3454.44 535.597 3436.4 552.35C3418.36 569.104 3395.16 577.481 3366.81 577.481C3334.27 577.481 3308.17 566.526 3288.84 544.618C3269.18 522.709 3259.52 493.713 3259.52 457.306C3259.52 435.397 3263.71 415.744 3272.08 397.702C3280.46 379.659 3293.03 365.161 3309.78 354.207C3326.53 343.252 3346.19 337.453 3368.74 337.453C3392.9 337.453 3414.17 344.219 3432.21 357.751C3450.25 371.283 3460.88 390.614 3464.75 415.744H3424.8C3421.9 402.212 3415.46 391.258 3405.47 383.526C3395.16 375.793 3382.92 371.605 3368.1 371.605C3352.63 371.605 3339.74 376.115 3329.11 384.492C3318.48 393.191 3311.07 403.823 3306.56 416.388C3302.05 428.954 3300.11 442.485 3300.11 457.306C3300.11 468.582 3301.4 479.214 3303.98 488.88C3306.56 498.868 3310.42 507.889 3315.58 516.266C3320.73 524.642 3327.5 531.086 3336.52 535.919C3345.54 541.074 3355.85 543.329 3367.77 543.329C3401.92 543.329 3421.26 523.998 3426.41 484.692H3466.68Z" fill="#BFFF00"/>
</g>
<g filter="url(#filter14_g_453_98)">
<path d="M3159.97 342.283L3248.57 572.001H3205.4L3183.49 511.108H3092.63L3070.08 572.001H3028.52L3117.12 342.283H3159.97ZM3172.86 480.823L3138.7 384.167L3102.94 480.823H3172.86Z" fill="#BFFF00"/>
</g>
<g filter="url(#filter15_g_453_98)">
<path d="M3027.16 537.202V571.998H2869.93V342.603H2910.52V537.202H3027.16Z" fill="#BFFF00"/>
</g>
<g filter="url(#filter16_g_453_98)">
<path d="M2656 342.603H2755.56C2780.04 342.603 2799.7 348.724 2813.87 360.323C2828.05 371.921 2835.46 389.319 2835.46 412.517C2835.46 434.425 2828.69 451.823 2815.48 464.711C2801.95 477.598 2783.91 483.719 2761.03 483.719H2696.27V571.998H2656V342.603ZM2696.27 376.11V451.179H2752.33C2781.33 451.179 2796.15 438.614 2796.15 413.483C2796.15 388.675 2780.36 376.11 2748.79 376.11H2696.27Z" fill="#BFFF00"/>
</g>
<g filter="url(#filter17_g_453_98)">
<path d="M2455.5 342.283L2544.1 572.001H2500.93L2479.02 511.108H2388.17L2365.61 572.001H2324.05L2412.65 342.283H2455.5ZM2468.39 480.823L2434.24 384.167L2398.48 480.823H2468.39Z" fill="#BFFF00"/>
</g>
<g filter="url(#filter18_g_453_98)">
<path d="M2048.92 572.001V389H1945.82V332.296H2228.05V389H2124.63V572.001H2048.92Z" fill="#BFFF00"/>
</g>
<g filter="url(#filter19_g_453_98)">
<path d="M1774.18 575.545H1762.58C1634.03 575.545 1613.09 493.71 1613.09 448.605V332.296H1688.48V444.094C1688.48 475.024 1702.33 513.364 1767.74 513.364C1832.17 513.364 1846.35 475.024 1846.35 444.094V332.296H1921.42V448.605C1921.42 493.71 1896.93 575.545 1774.18 575.545Z" fill="#BFFF00"/>
</g>
<g filter="url(#filter20_g_453_98)">
<path d="M1406.71 328.104H1420.57C1571.35 328.104 1589.07 403.818 1589.07 446.668V456.334C1589.07 498.54 1571.67 576.187 1420.57 576.187H1406.71C1254.96 576.187 1237.89 498.54 1237.89 456.334V446.668C1237.89 403.818 1254.96 328.104 1406.71 328.104ZM1510.46 453.434V448.924C1510.46 421.538 1494.67 386.098 1413.48 386.098C1331 386.098 1316.5 421.538 1316.5 448.924V452.79C1316.5 480.176 1332.29 517.871 1413.48 517.871C1494.02 517.871 1510.46 481.142 1510.46 453.434Z" fill="#BFFF00"/>
</g>
<g filter="url(#filter21_g_453_98)">
<path d="M899.567 572.001V332.296H974.636V419.608H1135.73V332.296H1210.8V572.001H1135.73V477.601H974.636V572.001H899.567Z" fill="#BFFF00"/>
</g>
<g filter="url(#filter22_g_453_98)">
<path d="M693.162 572.001V389H590.063V332.296H872.297V389H768.875V572.001H693.162Z" fill="#BFFF00"/>
</g>
<g filter="url(#filter23_g_453_98)">
<path d="M562.781 332.296V572.001H487.712V332.296H562.781Z" fill="#BFFF00"/>
</g>
<g filter="url(#filter24_g_453_98)">
<path d="M188.45 572.001H105.649L7.06006 332.296H88.895L150.754 497.254L204.237 332.296H284.139L338.91 492.422L399.481 332.296H473.261L376.284 572.001H300.57L242.899 411.553L188.45 572.001Z" fill="#BFFF00"/>
</g>
<g filter="url(#filter25_g_453_98)">
<path d="M2430.68 7.14941L2344.34 145.367V236.545H2304.71V145.367L2218.04 7.14941H2264.44L2325.33 108.638L2385.58 7.14941H2430.68Z" fill="#BFFF00"/>
</g>
<g filter="url(#filter26_g_453_98)">
<path d="M2217.47 7.14941V41.9454H2144.34V236.545H2104.06V41.9454H2030.93V7.14941H2217.47Z" fill="#BFFF00"/>
</g>
<g filter="url(#filter27_g_453_98)">
<path d="M2004.08 7.14941V236.545H1963.49V7.14941H2004.08Z" fill="#BFFF00"/>
</g>
<g filter="url(#filter28_g_453_98)">
<path d="M1927.18 149.238C1924.93 177.591 1914.94 200.144 1896.9 216.897C1878.85 233.651 1855.66 242.028 1827.3 242.028C1794.76 242.028 1768.67 231.073 1749.34 209.165C1729.68 187.256 1720.02 158.26 1720.02 121.853C1720.02 99.9442 1724.21 80.2909 1732.58 62.2485C1740.96 44.2062 1753.52 29.7079 1770.28 18.7536C1787.03 7.79933 1806.68 2 1829.24 2C1853.4 2 1874.67 8.76589 1892.71 22.2976C1910.75 35.8294 1921.38 55.1605 1925.25 80.2909H1885.3C1882.4 66.7591 1875.95 55.8048 1865.97 48.0724C1855.66 40.34 1843.41 36.1516 1828.59 36.1516C1813.13 36.1516 1800.24 40.6622 1789.61 49.039C1778.98 57.738 1771.57 68.3701 1767.06 80.9353C1762.55 93.5005 1760.61 107.032 1760.61 121.853C1760.61 133.129 1761.9 143.761 1764.48 153.427C1767.06 163.415 1770.92 172.436 1776.08 180.813C1781.23 189.189 1788 195.633 1797.02 200.466C1806.04 205.621 1816.35 207.876 1828.27 207.876C1862.42 207.876 1881.75 188.545 1886.91 149.238H1927.18Z" fill="#BFFF00"/>
</g>
<g filter="url(#filter29_g_453_98)">
<path d="M1530.79 6.83008L1619.4 236.548H1576.22L1554.31 175.655H1463.46L1440.91 236.548H1399.34L1487.94 6.83008H1530.79ZM1543.68 145.37L1509.53 48.7141L1473.77 145.37H1543.68Z" fill="#BFFF00"/>
</g>
<g filter="url(#filter30_g_453_98)">
<path d="M1292.46 74.808H1254.12C1251.54 48.0667 1235.11 34.535 1204.18 34.535C1190.32 34.535 1179.69 37.4346 1171.96 43.2339C1164.23 49.0333 1160.36 56.7657 1160.36 66.4312C1160.36 75.7746 1162.94 82.2183 1168.74 85.4401C1174.54 88.9842 1187.1 93.1726 1206.76 98.0053C1211.91 99.6163 1215.78 100.583 1218.68 101.227C1244.13 107.671 1261.53 113.47 1270.87 118.625C1291.17 129.579 1301.48 146.655 1301.48 169.853C1301.48 180.162 1299.54 189.184 1296.32 197.238C1292.78 205.615 1288.27 212.381 1282.47 217.858C1276.67 223.335 1269.58 227.846 1261.85 231.39C1253.79 235.256 1245.42 237.834 1237.04 239.444C1228.34 241.055 1219.32 241.7 1210.3 241.7C1181.3 241.7 1158.11 234.934 1140.39 221.08C1122.34 207.548 1113.64 187.251 1113.64 160.509H1153.27C1153.27 177.263 1158.75 189.828 1169.7 197.883C1180.66 205.937 1194.83 209.803 1212.55 209.803C1228.02 209.803 1239.94 206.904 1248.64 200.46C1257.34 194.016 1261.85 185.317 1261.85 173.719C1261.85 166.631 1259.27 160.509 1254.76 155.999C1250.25 151.488 1245.1 147.944 1239.94 146.011C1234.46 144.078 1225.12 141.5 1211.91 137.956C1210.3 137.634 1209.01 137.312 1208.37 136.99C1179.69 129.902 1161 123.78 1151.98 118.947C1133.3 109.282 1123.31 94.4613 1122.02 74.1637V69.6531C1122.02 49.3554 1129.43 33.2462 1144.9 21.0032C1160.36 8.76018 1180.98 2.63867 1206.76 2.63867C1231.56 2.63867 1251.86 8.76018 1267.65 20.3588C1283.11 32.2797 1291.49 50.322 1292.46 74.808Z" fill="#BFFF00"/>
</g>
<g filter="url(#filter31_g_453_98)">
<path d="M1078.74 7.14941V236.545H1038.15V7.14941H1078.74Z" fill="#BFFF00"/>
</g>
<g filter="url(#filter32_g_453_98)">
<path d="M921.811 7.14941V41.9454H848.675V236.545H808.402V41.9454H735.266V7.14941H921.811Z" fill="#BFFF00"/>
</g>
<g filter="url(#filter33_g_453_98)">
<path d="M676.565 6.83008L765.166 236.548H721.993L700.085 175.655H609.229L586.676 236.548H545.114L633.715 6.83008H676.565ZM689.453 145.37L655.301 48.7141L619.538 145.37H689.453Z" fill="#BFFF00"/>
</g>
<g filter="url(#filter34_g_453_98)">
<path d="M524.274 7.14941V236.545H484.001V133.446H378.969V236.545H338.696V7.14941H378.969V98.3277H484.001V7.14941H524.274Z" fill="#BFFF00"/>
</g>
<g filter="url(#filter35_g_453_98)">
<path d="M13.5024 7.14941H54.4199L96.3039 181.774L143.343 7.14941H184.26L229.688 181.774L272.861 7.14941H313.779L250.308 236.545H209.391L162.996 60.3099L115.635 236.545H74.0732L13.5024 7.14941Z" fill="#BFFF00"/>
</g>
<g filter="url(#filter36_fg_453_98)">
<g filter="url(#filter37_g_453_98)">
<path d="M2051.86 566.457V383.456H1948.76V326.752H2230.99V383.456H2127.57V566.457H2051.86Z" fill="#BFFF00"/>
</g>
<g filter="url(#filter38_g_453_98)">
<path d="M1777.12 570.001H1765.52C1636.97 570.001 1616.03 488.166 1616.03 443.061V326.752H1691.42V438.55C1691.42 469.48 1705.27 507.82 1770.68 507.82C1835.11 507.82 1849.29 469.48 1849.29 438.55V326.752H1924.36V443.061C1924.36 488.166 1899.87 570.001 1777.12 570.001Z" fill="#BFFF00"/>
</g>
<g filter="url(#filter39_g_453_98)">
<path d="M1409.65 322.561H1423.51C1574.29 322.561 1592.01 398.274 1592.01 441.125V450.79C1592.01 492.996 1574.61 570.643 1423.51 570.643H1409.65C1257.9 570.643 1240.83 492.996 1240.83 450.79V441.125C1240.83 398.274 1257.9 322.561 1409.65 322.561ZM1513.4 447.89V443.38C1513.4 415.994 1497.61 380.554 1416.42 380.554C1333.94 380.554 1319.44 415.994 1319.44 443.38V447.246C1319.44 474.632 1335.23 512.327 1416.42 512.327C1496.96 512.327 1513.4 475.598 1513.4 447.89Z" fill="#BFFF00"/>
</g>
<g filter="url(#filter40_g_453_98)">
<path d="M902.505 566.457V326.752H977.574V414.064H1138.67V326.752H1213.74V566.457H1138.67V472.057H977.574V566.457H902.505Z" fill="#BFFF00"/>
</g>
<g filter="url(#filter41_g_453_98)">
<path d="M696.102 566.457V383.456H593.003V326.752H875.237V383.456H771.815V566.457H696.102Z" fill="#BFFF00"/>
</g>
<g filter="url(#filter42_g_453_98)">
<path d="M565.721 326.752V566.457H490.652V326.752H565.721Z" fill="#BFFF00"/>
</g>
<g filter="url(#filter43_g_453_98)">
<path d="M191.39 566.457H108.589L10 326.752H91.8349L153.694 491.711L207.177 326.752H287.079L341.85 486.878L402.421 326.752H476.201L379.224 566.457H303.51L245.839 406.009L191.39 566.457Z" fill="#BFFF00"/>
</g>
</g>
<defs>
<filter id="filter0_g_453_98" x="1831.62" y="671.545" width="152.849" height="237.906" filterUnits="userSpaceOnUse" color-interpolation-filters="sRGB">
<feFlood flood-opacity="0" result="BackgroundImageFix"/>
<feBlend mode="normal" in="SourceGraphic" in2="BackgroundImageFix" result="shape"/>
<feTurbulence type="fractalNoise" baseFrequency="0.99900001287460327 0.99900001287460327" numOctaves="3" seed="5803" />
<feDisplacementMap in="shape" scale="4" xChannelSelector="R" yChannelSelector="G" result="displacedImage" width="100%" height="100%" />
<feMerge result="effect1_texture_453_98">
<feMergeNode in="displacedImage"/>
</feMerge>
</filter>
<filter id="filter1_g_453_98" x="1526.3" y="665.749" width="286.234" height="243.706" filterUnits="userSpaceOnUse" color-interpolation-filters="sRGB">
<feFlood flood-opacity="0" result="BackgroundImageFix"/>
<feBlend mode="normal" in="SourceGraphic" in2="BackgroundImageFix" result="shape"/>
<feTurbulence type="fractalNoise" baseFrequency="0.99900001287460327 0.99900001287460327" numOctaves="3" seed="5803" />
<feDisplacementMap in="shape" scale="4" xChannelSelector="R" yChannelSelector="G" result="displacedImage" width="100%" height="100%" />
<feMerge result="effect1_texture_453_98">
<feMergeNode in="displacedImage"/>
</feMerge>
</filter>
<filter id="filter2_g_453_98" x="1251.84" y="665.749" width="259.815" height="243.706" filterUnits="userSpaceOnUse" color-interpolation-filters="sRGB">
<feFlood flood-opacity="0" result="BackgroundImageFix"/>
<feBlend mode="normal" in="SourceGraphic" in2="BackgroundImageFix" result="shape"/>
<feTurbulence type="fractalNoise" baseFrequency="0.99900001287460327 0.99900001287460327" numOctaves="3" seed="5803" />
<feDisplacementMap in="shape" scale="4" xChannelSelector="R" yChannelSelector="G" result="displacedImage" width="100%" height="100%" />
<feMerge result="effect1_texture_453_98">
<feMergeNode in="displacedImage"/>
</feMerge>
</filter>
<filter id="filter3_g_453_98" x="964.898" y="665.749" width="259.815" height="243.706" filterUnits="userSpaceOnUse" color-interpolation-filters="sRGB">
<feFlood flood-opacity="0" result="BackgroundImageFix"/>
<feBlend mode="normal" in="SourceGraphic" in2="BackgroundImageFix" result="shape"/>
<feTurbulence type="fractalNoise" baseFrequency="0.99900001287460327 0.99900001287460327" numOctaves="3" seed="5803" />
<feDisplacementMap in="shape" scale="4" xChannelSelector="R" yChannelSelector="G" result="displacedImage" width="100%" height="100%" />
<feMerge result="effect1_texture_453_98">
<feMergeNode in="displacedImage"/>
</feMerge>
</filter>
<filter id="filter4_g_453_98" x="552.729" y="665.749" width="379.345" height="243.706" filterUnits="userSpaceOnUse" color-interpolation-filters="sRGB">
<feFlood flood-opacity="0" result="BackgroundImageFix"/>
<feBlend mode="normal" in="SourceGraphic" in2="BackgroundImageFix" result="shape"/>
<feTurbulence type="fractalNoise" baseFrequency="0.99900001287460327 0.99900001287460327" numOctaves="3" seed="5803" />
<feDisplacementMap in="shape" scale="4" xChannelSelector="R" yChannelSelector="G" result="displacedImage" width="100%" height="100%" />
<feMerge result="effect1_texture_453_98">
<feMergeNode in="displacedImage"/>
</feMerge>
</filter>
<filter id="filter5_fg_453_98" x="541.886" y="665.217" width="1275.81" height="259.705" filterUnits="userSpaceOnUse" color-interpolation-filters="sRGB">
<feFlood flood-opacity="0" result="BackgroundImageFix"/>
<feBlend mode="normal" in="SourceGraphic" in2="BackgroundImageFix" result="shape"/>
<feGaussianBlur stdDeviation="5" result="effect1_foregroundBlur_453_98"/>
<feTurbulence type="fractalNoise" baseFrequency="0.99900001287460327 0.99900001287460327" numOctaves="3" seed="644" />
<feDisplacementMap in="effect1_foregroundBlur_453_98" scale="20" xChannelSelector="R" yChannelSelector="G" result="displacedImage" width="100%" height="100%" />
<feMerge result="effect2_texture_453_98">
<feMergeNode in="displacedImage"/>
</feMerge>
</filter>
<filter id="filter6_g_453_98" x="1523.46" y="673.217" width="286.234" height="243.705" filterUnits="userSpaceOnUse" color-interpolation-filters="sRGB">
<feFlood flood-opacity="0" result="BackgroundImageFix"/>
<feBlend mode="normal" in="SourceGraphic" in2="BackgroundImageFix" result="shape"/>
<feTurbulence type="fractalNoise" baseFrequency="0.99900001287460327 0.99900001287460327" numOctaves="3" seed="5803" />
<feDisplacementMap in="shape" scale="4" xChannelSelector="R" yChannelSelector="G" result="displacedImage" width="100%" height="100%" />
<feMerge result="effect1_texture_453_98">
<feMergeNode in="displacedImage"/>
</feMerge>
</filter>
<filter id="filter7_g_453_98" x="1249" y="673.217" width="259.815" height="243.705" filterUnits="userSpaceOnUse" color-interpolation-filters="sRGB">
<feFlood flood-opacity="0" result="BackgroundImageFix"/>
<feBlend mode="normal" in="SourceGraphic" in2="BackgroundImageFix" result="shape"/>
<feTurbulence type="fractalNoise" baseFrequency="0.99900001287460327 0.99900001287460327" numOctaves="3" seed="5803" />
<feDisplacementMap in="shape" scale="4" xChannelSelector="R" yChannelSelector="G" result="displacedImage" width="100%" height="100%" />
<feMerge result="effect1_texture_453_98">
<feMergeNode in="displacedImage"/>
</feMerge>
</filter>
<filter id="filter8_g_453_98" x="962.057" y="673.217" width="259.814" height="243.705" filterUnits="userSpaceOnUse" color-interpolation-filters="sRGB">
<feFlood flood-opacity="0" result="BackgroundImageFix"/>
<feBlend mode="normal" in="SourceGraphic" in2="BackgroundImageFix" result="shape"/>
<feTurbulence type="fractalNoise" baseFrequency="0.99900001287460327 0.99900001287460327" numOctaves="3" seed="5803" />
<feDisplacementMap in="shape" scale="4" xChannelSelector="R" yChannelSelector="G" result="displacedImage" width="100%" height="100%" />
<feMerge result="effect1_texture_453_98">
<feMergeNode in="displacedImage"/>
</feMerge>
</filter>
<filter id="filter9_g_453_98" x="549.886" y="673.217" width="379.345" height="243.705" filterUnits="userSpaceOnUse" color-interpolation-filters="sRGB">
<feFlood flood-opacity="0" result="BackgroundImageFix"/>
<feBlend mode="normal" in="SourceGraphic" in2="BackgroundImageFix" result="shape"/>
<feTurbulence type="fractalNoise" baseFrequency="0.99900001287460327 0.99900001287460327" numOctaves="3" seed="5803" />
<feDisplacementMap in="shape" scale="4" xChannelSelector="R" yChannelSelector="G" result="displacedImage" width="100%" height="100%" />
<feMerge result="effect1_texture_453_98">
<feMergeNode in="displacedImage"/>
</feMerge>
</filter>
<filter id="filter10_g_453_98" x="212.152" y="670.579" width="224.375" height="244.351" filterUnits="userSpaceOnUse" color-interpolation-filters="sRGB">
<feFlood flood-opacity="0" result="BackgroundImageFix"/>
<feBlend mode="normal" in="SourceGraphic" in2="BackgroundImageFix" result="shape"/>
<feTurbulence type="fractalNoise" baseFrequency="0.99900001287460327 0.99900001287460327" numOctaves="3" seed="5803" />
<feDisplacementMap in="shape" scale="4" xChannelSelector="R" yChannelSelector="G" result="displacedImage" width="100%" height="100%" />
<feMerge result="effect1_texture_453_98">
<feMergeNode in="displacedImage"/>
</feMerge>
</filter>
<filter id="filter11_g_453_98" x="11.1812" y="676.056" width="190.545" height="233.396" filterUnits="userSpaceOnUse" color-interpolation-filters="sRGB">
<feFlood flood-opacity="0" result="BackgroundImageFix"/>
<feBlend mode="normal" in="SourceGraphic" in2="BackgroundImageFix" result="shape"/>
<feTurbulence type="fractalNoise" baseFrequency="0.99900001287460327 0.99900001287460327" numOctaves="3" seed="5803" />
<feDisplacementMap in="shape" scale="4" xChannelSelector="R" yChannelSelector="G" result="displacedImage" width="100%" height="100%" />
<feMerge result="effect1_texture_453_98">
<feMergeNode in="displacedImage"/>
</feMerge>
</filter>
<filter id="filter12_g_453_98" x="3500.34" y="340.603" width="171.214" height="233.396" filterUnits="userSpaceOnUse" color-interpolation-filters="sRGB">
<feFlood flood-opacity="0" result="BackgroundImageFix"/>
<feBlend mode="normal" in="SourceGraphic" in2="BackgroundImageFix" result="shape"/>
<feTurbulence type="fractalNoise" baseFrequency="0.99900001287460327 0.99900001287460327" numOctaves="3" seed="5803" />
<feDisplacementMap in="shape" scale="4" xChannelSelector="R" yChannelSelector="G" result="displacedImage" width="100%" height="100%" />
<feMerge result="effect1_texture_453_98">
<feMergeNode in="displacedImage"/>
</feMerge>
</filter>
<filter id="filter13_g_453_98" x="3257.52" y="335.453" width="211.165" height="244.027" filterUnits="userSpaceOnUse" color-interpolation-filters="sRGB">
<feFlood flood-opacity="0" result="BackgroundImageFix"/>
<feBlend mode="normal" in="SourceGraphic" in2="BackgroundImageFix" result="shape"/>
<feTurbulence type="fractalNoise" baseFrequency="0.99900001287460327 0.99900001287460327" numOctaves="3" seed="5803" />
<feDisplacementMap in="shape" scale="4" xChannelSelector="R" yChannelSelector="G" result="displacedImage" width="100%" height="100%" />
<feMerge result="effect1_texture_453_98">
<feMergeNode in="displacedImage"/>
</feMerge>
</filter>
<filter id="filter14_g_453_98" x="3026.52" y="340.283" width="224.052" height="233.718" filterUnits="userSpaceOnUse" color-interpolation-filters="sRGB">
<feFlood flood-opacity="0" result="BackgroundImageFix"/>
<feBlend mode="normal" in="SourceGraphic" in2="BackgroundImageFix" result="shape"/>
<feTurbulence type="fractalNoise" baseFrequency="0.99900001287460327 0.99900001287460327" numOctaves="3" seed="5803" />
<feDisplacementMap in="shape" scale="4" xChannelSelector="R" yChannelSelector="G" result="displacedImage" width="100%" height="100%" />
<feMerge result="effect1_texture_453_98">
<feMergeNode in="displacedImage"/>
</feMerge>
</filter>
<filter id="filter15_g_453_98" x="2867.93" y="340.603" width="161.226" height="233.396" filterUnits="userSpaceOnUse" color-interpolation-filters="sRGB">
<feFlood flood-opacity="0" result="BackgroundImageFix"/>
<feBlend mode="normal" in="SourceGraphic" in2="BackgroundImageFix" result="shape"/>
<feTurbulence type="fractalNoise" baseFrequency="0.99900001287460327 0.99900001287460327" numOctaves="3" seed="5803" />
<feDisplacementMap in="shape" scale="4" xChannelSelector="R" yChannelSelector="G" result="displacedImage" width="100%" height="100%" />
<feMerge result="effect1_texture_453_98">
<feMergeNode in="displacedImage"/>
</feMerge>
</filter>
<filter id="filter16_g_453_98" x="2654" y="340.603" width="183.457" height="233.396" filterUnits="userSpaceOnUse" color-interpolation-filters="sRGB">
<feFlood flood-opacity="0" result="BackgroundImageFix"/>
<feBlend mode="normal" in="SourceGraphic" in2="BackgroundImageFix" result="shape"/>
<feTurbulence type="fractalNoise" baseFrequency="0.99900001287460327 0.99900001287460327" numOctaves="3" seed="5803" />
<feDisplacementMap in="shape" scale="4" xChannelSelector="R" yChannelSelector="G" result="displacedImage" width="100%" height="100%" />
<feMerge result="effect1_texture_453_98">
<feMergeNode in="displacedImage"/>
</feMerge>
</filter>
<filter id="filter17_g_453_98" x="2322.05" y="340.283" width="224.052" height="233.718" filterUnits="userSpaceOnUse" color-interpolation-filters="sRGB">
<feFlood flood-opacity="0" result="BackgroundImageFix"/>
<feBlend mode="normal" in="SourceGraphic" in2="BackgroundImageFix" result="shape"/>
<feTurbulence type="fractalNoise" baseFrequency="0.99900001287460327 0.99900001287460327" numOctaves="3" seed="5803" />
<feDisplacementMap in="shape" scale="4" xChannelSelector="R" yChannelSelector="G" result="displacedImage" width="100%" height="100%" />
<feMerge result="effect1_texture_453_98">
<feMergeNode in="displacedImage"/>
</feMerge>
</filter>
<filter id="filter18_g_453_98" x="1943.82" y="330.296" width="286.234" height="243.705" filterUnits="userSpaceOnUse" color-interpolation-filters="sRGB">
<feFlood flood-opacity="0" result="BackgroundImageFix"/>
<feBlend mode="normal" in="SourceGraphic" in2="BackgroundImageFix" result="shape"/>
<feTurbulence type="fractalNoise" baseFrequency="0.99900001287460327 0.99900001287460327" numOctaves="3" seed="5803" />
<feDisplacementMap in="shape" scale="4" xChannelSelector="R" yChannelSelector="G" result="displacedImage" width="100%" height="100%" />
<feMerge result="effect1_texture_453_98">
<feMergeNode in="displacedImage"/>
</feMerge>
</filter>
<filter id="filter19_g_453_98" x="1611.09" y="330.296" width="312.331" height="247.249" filterUnits="userSpaceOnUse" color-interpolation-filters="sRGB">
<feFlood flood-opacity="0" result="BackgroundImageFix"/>
<feBlend mode="normal" in="SourceGraphic" in2="BackgroundImageFix" result="shape"/>
<feTurbulence type="fractalNoise" baseFrequency="0.99900001287460327 0.99900001287460327" numOctaves="3" seed="5803" />
<feDisplacementMap in="shape" scale="4" xChannelSelector="R" yChannelSelector="G" result="displacedImage" width="100%" height="100%" />
<feMerge result="effect1_texture_453_98">
<feMergeNode in="displacedImage"/>
</feMerge>
</filter>
<filter id="filter20_g_453_98" x="1235.89" y="326.104" width="355.181" height="252.082" filterUnits="userSpaceOnUse" color-interpolation-filters="sRGB">
<feFlood flood-opacity="0" result="BackgroundImageFix"/>
<feBlend mode="normal" in="SourceGraphic" in2="BackgroundImageFix" result="shape"/>
<feTurbulence type="fractalNoise" baseFrequency="0.99900001287460327 0.99900001287460327" numOctaves="3" seed="5803" />
<feDisplacementMap in="shape" scale="4" xChannelSelector="R" yChannelSelector="G" result="displacedImage" width="100%" height="100%" />
<feMerge result="effect1_texture_453_98">
<feMergeNode in="displacedImage"/>
</feMerge>
</filter>
<filter id="filter21_g_453_98" x="897.567" y="330.296" width="315.23" height="243.705" filterUnits="userSpaceOnUse" color-interpolation-filters="sRGB">
<feFlood flood-opacity="0" result="BackgroundImageFix"/>
<feBlend mode="normal" in="SourceGraphic" in2="BackgroundImageFix" result="shape"/>
<feTurbulence type="fractalNoise" baseFrequency="0.99900001287460327 0.99900001287460327" numOctaves="3" seed="5803" />
<feDisplacementMap in="shape" scale="4" xChannelSelector="R" yChannelSelector="G" result="displacedImage" width="100%" height="100%" />
<feMerge result="effect1_texture_453_98">
<feMergeNode in="displacedImage"/>
</feMerge>
</filter>
<filter id="filter22_g_453_98" x="588.063" y="330.296" width="286.234" height="243.705" filterUnits="userSpaceOnUse" color-interpolation-filters="sRGB">
<feFlood flood-opacity="0" result="BackgroundImageFix"/>
<feBlend mode="normal" in="SourceGraphic" in2="BackgroundImageFix" result="shape"/>
<feTurbulence type="fractalNoise" baseFrequency="0.99900001287460327 0.99900001287460327" numOctaves="3" seed="5803" />
<feDisplacementMap in="shape" scale="4" xChannelSelector="R" yChannelSelector="G" result="displacedImage" width="100%" height="100%" />
<feMerge result="effect1_texture_453_98">
<feMergeNode in="displacedImage"/>
</feMerge>
</filter>
<filter id="filter23_g_453_98" x="485.712" y="330.296" width="79.0688" height="243.705" filterUnits="userSpaceOnUse" color-interpolation-filters="sRGB">
<feFlood flood-opacity="0" result="BackgroundImageFix"/>
<feBlend mode="normal" in="SourceGraphic" in2="BackgroundImageFix" result="shape"/>
<feTurbulence type="fractalNoise" baseFrequency="0.99900001287460327 0.99900001287460327" numOctaves="3" seed="5803" />
<feDisplacementMap in="shape" scale="4" xChannelSelector="R" yChannelSelector="G" result="displacedImage" width="100%" height="100%" />
<feMerge result="effect1_texture_453_98">
<feMergeNode in="displacedImage"/>
</feMerge>
</filter>
<filter id="filter24_g_453_98" x="5.06006" y="330.296" width="470.201" height="243.705" filterUnits="userSpaceOnUse" color-interpolation-filters="sRGB">
<feFlood flood-opacity="0" result="BackgroundImageFix"/>
<feBlend mode="normal" in="SourceGraphic" in2="BackgroundImageFix" result="shape"/>
<feTurbulence type="fractalNoise" baseFrequency="0.99900001287460327 0.99900001287460327" numOctaves="3" seed="5803" />
<feDisplacementMap in="shape" scale="4" xChannelSelector="R" yChannelSelector="G" result="displacedImage" width="100%" height="100%" />
<feMerge result="effect1_texture_453_98">
<feMergeNode in="displacedImage"/>
</feMerge>
</filter>
<filter id="filter25_g_453_98" x="2216.04" y="5.14941" width="216.642" height="233.396" filterUnits="userSpaceOnUse" color-interpolation-filters="sRGB">
<feFlood flood-opacity="0" result="BackgroundImageFix"/>
<feBlend mode="normal" in="SourceGraphic" in2="BackgroundImageFix" result="shape"/>
<feTurbulence type="fractalNoise" baseFrequency="0.99900001287460327 0.99900001287460327" numOctaves="3" seed="5803" />
<feDisplacementMap in="shape" scale="4" xChannelSelector="R" yChannelSelector="G" result="displacedImage" width="100%" height="100%" />
<feMerge result="effect1_texture_453_98">
<feMergeNode in="displacedImage"/>
</feMerge>
</filter>
<filter id="filter26_g_453_98" x="2028.93" y="5.14941" width="190.545" height="233.396" filterUnits="userSpaceOnUse" color-interpolation-filters="sRGB">
<feFlood flood-opacity="0" result="BackgroundImageFix"/>
<feBlend mode="normal" in="SourceGraphic" in2="BackgroundImageFix" result="shape"/>
<feTurbulence type="fractalNoise" baseFrequency="0.99900001287460327 0.99900001287460327" numOctaves="3" seed="5803" />
<feDisplacementMap in="shape" scale="4" xChannelSelector="R" yChannelSelector="G" result="displacedImage" width="100%" height="100%" />
<feMerge result="effect1_texture_453_98">
<feMergeNode in="displacedImage"/>
</feMerge>
</filter>
<filter id="filter27_g_453_98" x="1961.49" y="5.14941" width="44.5952" height="233.396" filterUnits="userSpaceOnUse" color-interpolation-filters="sRGB">
<feFlood flood-opacity="0" result="BackgroundImageFix"/>
<feBlend mode="normal" in="SourceGraphic" in2="BackgroundImageFix" result="shape"/>
<feTurbulence type="fractalNoise" baseFrequency="0.99900001287460327 0.99900001287460327" numOctaves="3" seed="5803" />
<feDisplacementMap in="shape" scale="4" xChannelSelector="R" yChannelSelector="G" result="displacedImage" width="100%" height="100%" />
<feMerge result="effect1_texture_453_98">
<feMergeNode in="displacedImage"/>
</feMerge>
</filter>
<filter id="filter28_g_453_98" x="1718.02" y="0" width="211.165" height="244.027" filterUnits="userSpaceOnUse" color-interpolation-filters="sRGB">
<feFlood flood-opacity="0" result="BackgroundImageFix"/>
<feBlend mode="normal" in="SourceGraphic" in2="BackgroundImageFix" result="shape"/>
<feTurbulence type="fractalNoise" baseFrequency="0.99900001287460327 0.99900001287460327" numOctaves="3" seed="5803" />
<feDisplacementMap in="shape" scale="4" xChannelSelector="R" yChannelSelector="G" result="displacedImage" width="100%" height="100%" />
<feMerge result="effect1_texture_453_98">
<feMergeNode in="displacedImage"/>
</feMerge>
</filter>
<filter id="filter29_g_453_98" x="1397.34" y="4.83008" width="224.052" height="233.718" filterUnits="userSpaceOnUse" color-interpolation-filters="sRGB">
<feFlood flood-opacity="0" result="BackgroundImageFix"/>
<feBlend mode="normal" in="SourceGraphic" in2="BackgroundImageFix" result="shape"/>
<feTurbulence type="fractalNoise" baseFrequency="0.99900001287460327 0.99900001287460327" numOctaves="3" seed="5803" />
<feDisplacementMap in="shape" scale="4" xChannelSelector="R" yChannelSelector="G" result="displacedImage" width="100%" height="100%" />
<feMerge result="effect1_texture_453_98">
<feMergeNode in="displacedImage"/>
</feMerge>
</filter>
<filter id="filter30_g_453_98" x="1111.64" y="0.638672" width="191.833" height="243.061" filterUnits="userSpaceOnUse" color-interpolation-filters="sRGB">
<feFlood flood-opacity="0" result="BackgroundImageFix"/>
<feBlend mode="normal" in="SourceGraphic" in2="BackgroundImageFix" result="shape"/>
<feTurbulence type="fractalNoise" baseFrequency="0.99900001287460327 0.99900001287460327" numOctaves="3" seed="5803" />
<feDisplacementMap in="shape" scale="4" xChannelSelector="R" yChannelSelector="G" result="displacedImage" width="100%" height="100%" />
<feMerge result="effect1_texture_453_98">
<feMergeNode in="displacedImage"/>
</feMerge>
</filter>
<filter id="filter31_g_453_98" x="1036.15" y="5.14941" width="44.5952" height="233.396" filterUnits="userSpaceOnUse" color-interpolation-filters="sRGB">
<feFlood flood-opacity="0" result="BackgroundImageFix"/>
<feBlend mode="normal" in="SourceGraphic" in2="BackgroundImageFix" result="shape"/>
<feTurbulence type="fractalNoise" baseFrequency="0.99900001287460327 0.99900001287460327" numOctaves="3" seed="5803" />
<feDisplacementMap in="shape" scale="4" xChannelSelector="R" yChannelSelector="G" result="displacedImage" width="100%" height="100%" />
<feMerge result="effect1_texture_453_98">
<feMergeNode in="displacedImage"/>
</feMerge>
</filter>
<filter id="filter32_g_453_98" x="733.266" y="5.14941" width="190.545" height="233.396" filterUnits="userSpaceOnUse" color-interpolation-filters="sRGB">
<feFlood flood-opacity="0" result="BackgroundImageFix"/>
<feBlend mode="normal" in="SourceGraphic" in2="BackgroundImageFix" result="shape"/>
<feTurbulence type="fractalNoise" baseFrequency="0.99900001287460327 0.99900001287460327" numOctaves="3" seed="5803" />
<feDisplacementMap in="shape" scale="4" xChannelSelector="R" yChannelSelector="G" result="displacedImage" width="100%" height="100%" />
<feMerge result="effect1_texture_453_98">
<feMergeNode in="displacedImage"/>
</feMerge>
</filter>
<filter id="filter33_g_453_98" x="543.114" y="4.83008" width="224.052" height="233.718" filterUnits="userSpaceOnUse" color-interpolation-filters="sRGB">
<feFlood flood-opacity="0" result="BackgroundImageFix"/>
<feBlend mode="normal" in="SourceGraphic" in2="BackgroundImageFix" result="shape"/>
<feTurbulence type="fractalNoise" baseFrequency="0.99900001287460327 0.99900001287460327" numOctaves="3" seed="5803" />
<feDisplacementMap in="shape" scale="4" xChannelSelector="R" yChannelSelector="G" result="displacedImage" width="100%" height="100%" />
<feMerge result="effect1_texture_453_98">
<feMergeNode in="displacedImage"/>
</feMerge>
</filter>
<filter id="filter34_g_453_98" x="336.696" y="5.14941" width="189.579" height="233.396" filterUnits="userSpaceOnUse" color-interpolation-filters="sRGB">
<feFlood flood-opacity="0" result="BackgroundImageFix"/>
<feBlend mode="normal" in="SourceGraphic" in2="BackgroundImageFix" result="shape"/>
<feTurbulence type="fractalNoise" baseFrequency="0.99900001287460327 0.99900001287460327" numOctaves="3" seed="5803" />
<feDisplacementMap in="shape" scale="4" xChannelSelector="R" yChannelSelector="G" result="displacedImage" width="100%" height="100%" />
<feMerge result="effect1_texture_453_98">
<feMergeNode in="displacedImage"/>
</feMerge>
</filter>
<filter id="filter35_g_453_98" x="11.5024" y="5.14941" width="304.276" height="233.396" filterUnits="userSpaceOnUse" color-interpolation-filters="sRGB">
<feFlood flood-opacity="0" result="BackgroundImageFix"/>
<feBlend mode="normal" in="SourceGraphic" in2="BackgroundImageFix" result="shape"/>
<feTurbulence type="fractalNoise" baseFrequency="0.99900001287460327 0.99900001287460327" numOctaves="3" seed="5803" />
<feDisplacementMap in="shape" scale="4" xChannelSelector="R" yChannelSelector="G" result="displacedImage" width="100%" height="100%" />
<feMerge result="effect1_texture_453_98">
<feMergeNode in="displacedImage"/>
</feMerge>
</filter>
<filter id="filter36_fg_453_98" x="0" y="312.561" width="2240.99" height="268.082" filterUnits="userSpaceOnUse" color-interpolation-filters="sRGB">
<feFlood flood-opacity="0" result="BackgroundImageFix"/>
<feBlend mode="normal" in="SourceGraphic" in2="BackgroundImageFix" result="shape"/>
<feGaussianBlur stdDeviation="5" result="effect1_foregroundBlur_453_98"/>
<feTurbulence type="fractalNoise" baseFrequency="0.99900001287460327 0.99900001287460327" numOctaves="3" seed="4812" />
<feDisplacementMap in="effect1_foregroundBlur_453_98" scale="20" xChannelSelector="R" yChannelSelector="G" result="displacedImage" width="100%" height="100%" />
<feMerge result="effect2_texture_453_98">
<feMergeNode in="displacedImage"/>
</feMerge>
</filter>
<filter id="filter37_g_453_98" x="1946.76" y="324.752" width="286.234" height="243.705" filterUnits="userSpaceOnUse" color-interpolation-filters="sRGB">
<feFlood flood-opacity="0" result="BackgroundImageFix"/>
<feBlend mode="normal" in="SourceGraphic" in2="BackgroundImageFix" result="shape"/>
<feTurbulence type="fractalNoise" baseFrequency="0.99900001287460327 0.99900001287460327" numOctaves="3" seed="5803" />
<feDisplacementMap in="shape" scale="4" xChannelSelector="R" yChannelSelector="G" result="displacedImage" width="100%" height="100%" />
<feMerge result="effect1_texture_453_98">
<feMergeNode in="displacedImage"/>
</feMerge>
</filter>
<filter id="filter38_g_453_98" x="1614.03" y="324.752" width="312.331" height="247.249" filterUnits="userSpaceOnUse" color-interpolation-filters="sRGB">
<feFlood flood-opacity="0" result="BackgroundImageFix"/>
<feBlend mode="normal" in="SourceGraphic" in2="BackgroundImageFix" result="shape"/>
<feTurbulence type="fractalNoise" baseFrequency="0.99900001287460327 0.99900001287460327" numOctaves="3" seed="5803" />
<feDisplacementMap in="shape" scale="4" xChannelSelector="R" yChannelSelector="G" result="displacedImage" width="100%" height="100%" />
<feMerge result="effect1_texture_453_98">
<feMergeNode in="displacedImage"/>
</feMerge>
</filter>
<filter id="filter39_g_453_98" x="1238.83" y="320.561" width="355.181" height="252.082" filterUnits="userSpaceOnUse" color-interpolation-filters="sRGB">
<feFlood flood-opacity="0" result="BackgroundImageFix"/>
<feBlend mode="normal" in="SourceGraphic" in2="BackgroundImageFix" result="shape"/>
<feTurbulence type="fractalNoise" baseFrequency="0.99900001287460327 0.99900001287460327" numOctaves="3" seed="5803" />
<feDisplacementMap in="shape" scale="4" xChannelSelector="R" yChannelSelector="G" result="displacedImage" width="100%" height="100%" />
<feMerge result="effect1_texture_453_98">
<feMergeNode in="displacedImage"/>
</feMerge>
</filter>
<filter id="filter40_g_453_98" x="900.505" y="324.752" width="315.23" height="243.705" filterUnits="userSpaceOnUse" color-interpolation-filters="sRGB">
<feFlood flood-opacity="0" result="BackgroundImageFix"/>
<feBlend mode="normal" in="SourceGraphic" in2="BackgroundImageFix" result="shape"/>
<feTurbulence type="fractalNoise" baseFrequency="0.99900001287460327 0.99900001287460327" numOctaves="3" seed="5803" />
<feDisplacementMap in="shape" scale="4" xChannelSelector="R" yChannelSelector="G" result="displacedImage" width="100%" height="100%" />
<feMerge result="effect1_texture_453_98">
<feMergeNode in="displacedImage"/>
</feMerge>
</filter>
<filter id="filter41_g_453_98" x="591.003" y="324.752" width="286.234" height="243.705" filterUnits="userSpaceOnUse" color-interpolation-filters="sRGB">
<feFlood flood-opacity="0" result="BackgroundImageFix"/>
<feBlend mode="normal" in="SourceGraphic" in2="BackgroundImageFix" result="shape"/>
<feTurbulence type="fractalNoise" baseFrequency="0.99900001287460327 0.99900001287460327" numOctaves="3" seed="5803" />
<feDisplacementMap in="shape" scale="4" xChannelSelector="R" yChannelSelector="G" result="displacedImage" width="100%" height="100%" />
<feMerge result="effect1_texture_453_98">
<feMergeNode in="displacedImage"/>
</feMerge>
</filter>
<filter id="filter42_g_453_98" x="488.652" y="324.752" width="79.0688" height="243.705" filterUnits="userSpaceOnUse" color-interpolation-filters="sRGB">
<feFlood flood-opacity="0" result="BackgroundImageFix"/>
<feBlend mode="normal" in="SourceGraphic" in2="BackgroundImageFix" result="shape"/>
<feTurbulence type="fractalNoise" baseFrequency="0.99900001287460327 0.99900001287460327" numOctaves="3" seed="5803" />
<feDisplacementMap in="shape" scale="4" xChannelSelector="R" yChannelSelector="G" result="displacedImage" width="100%" height="100%" />
<feMerge result="effect1_texture_453_98">
<feMergeNode in="displacedImage"/>
</feMerge>
</filter>
<filter id="filter43_g_453_98" x="8" y="324.752" width="470.201" height="243.705" filterUnits="userSpaceOnUse" color-interpolation-filters="sRGB">
<feFlood flood-opacity="0" result="BackgroundImageFix"/>
<feBlend mode="normal" in="SourceGraphic" in2="BackgroundImageFix" result="shape"/>
<feTurbulence type="fractalNoise" baseFrequency="0.99900001287460327 0.99900001287460327" numOctaves="3" seed="5803" />
<feDisplacementMap in="shape" scale="4" xChannelSelector="R" yChannelSelector="G" result="displacedImage" width="100%" height="100%" />
<feMerge result="effect1_texture_453_98">
<feMergeNode in="displacedImage"/>
</feMerge>
</filter>
</defs>
</svg>
