<svg width="4818" height="623" viewBox="0 0 4818 623" fill="none" xmlns="http://www.w3.org/2000/svg">
<path d="M4501.59 200.98H4816.2V273.934H4632.76V294.277H4814.1V365.829H4632.76V388.277H4817.61V461.933H4501.59V200.98Z" fill="#BFFF00"/>
<path d="M4237.99 461.933V290.77H4125.41V200.98H4483.87V290.77H4371.28V461.933H4237.99Z" fill="#BFFF00"/>
<path d="M3988.71 353.553L3956.79 281.3L3925.57 353.553H3988.71ZM4036.41 461.933L4022.73 430.717H3892.25L3878.57 461.933H3743.89L3867 200.98H4054.3L4185.12 461.933H4036.41Z" fill="#BFFF00"/>
<path d="M3512.24 467.194H3503.12C3357.21 467.194 3322.49 395.642 3322.49 335.665V325.143C3322.49 258.852 3362.47 195.718 3523.11 195.718H3534.34C3719.18 195.718 3736.72 261.307 3736.72 299.188V299.539H3600.63C3598.88 292.874 3590.11 274.636 3532.23 274.636C3480.32 274.636 3459.63 296.733 3459.63 328.3V331.456C3459.63 364.075 3479.27 390.03 3531.18 390.03C3583.09 390.03 3597.12 373.896 3597.12 366.881H3526.62V313.568H3738.47V461.933H3649.03C3646.58 454.567 3639.91 441.239 3633.25 434.575C3624.83 442.291 3593.97 467.194 3512.24 467.194Z" fill="#BFFF00"/>
<path d="M2993.11 200.98H3307.73V273.934H3124.29V294.277H3305.63V365.829H3124.29V388.277H3309.13V461.933H2993.11V200.98Z" fill="#BFFF00"/>
<path d="M2564.96 200.98H2715.43L2838.19 319.531V200.98H2971.47V461.933H2835.73L2698.24 331.456V461.933H2564.96V200.98Z" fill="#BFFF00"/>
<path d="M2261.7 200.98H2536.68V260.255H2342.37V298.837H2532.12V358.464H2342.37V401.254H2540.19V461.933H2261.7V200.98Z" fill="#BFFF00"/>
<path d="M1936.18 200.98H2227.29V248.681L2048.42 400.202H2229.75V461.933H1933.37V413.881L2107.69 261.307H1936.18V200.98Z" fill="#BFFF00"/>
<path d="M1615.92 200.98H1907.04V248.681L1728.16 400.202H1909.49V461.933H1613.11V413.881L1787.43 261.307H1615.92V200.98Z" fill="#BFFF00"/>
<path d="M1464.07 355.307L1413.56 257.449L1365.16 355.307H1464.07ZM1518.78 461.933L1494.23 414.232H1336.04L1312.54 461.933H1229.42L1361.3 200.98H1467.22L1606.82 461.933H1518.78Z" fill="#BFFF00"/>
<path d="M1215.15 200.98V461.933H1133.43V200.98H1215.15Z" fill="#BFFF00"/>
<path d="M984.562 374.948H870.571V461.933H788.847V200.98H984.562C1078.56 200.98 1106.27 238.158 1106.27 285.86V289.367C1106.27 336.016 1077.86 374.948 984.562 374.948ZM870.571 260.255V316.374H983.159C1008.76 316.374 1021.04 306.904 1021.04 289.016V287.964C1021.04 270.076 1009.47 260.255 983.159 260.255H870.571Z" fill="#BFFF00"/>
<path d="M584 331C584 492.267 453.267 623 292 623C130.733 623 0 492.267 0 331C0 169.733 130.733 39 292 39C453.267 39 584 169.733 584 331Z" fill="#BFFF00"/>
<path d="M643.992 127.996L635.711 136.249L558.705 212.994L644 298.002L581.792 360L573.512 351.747L496.5 274.992L419.488 351.747L411.208 360L349 298.002L357.281 289.749L434.292 212.994L349.008 127.996L411.213 66L419.494 74.253L496.5 150.998L573.506 74.253L581.787 66L643.992 127.996Z" fill="black"/>
<path d="M709.992 128.306L624.804 213.494L710 298.692L581.694 427L496.5 341.802L411.306 427L283 298.692L368.194 213.494L283.008 128.306L411.311 0L496.5 85.1878L581.689 0L709.992 128.306ZM496.5 151.359L411.311 66.1714L349.178 128.306L434.364 213.494L349.17 298.692L411.306 360.829L496.5 275.631L581.694 360.829L643.83 298.692L558.633 213.494L643.822 128.306L581.689 66.1714L496.5 151.359Z" fill="#7F04FA"/>
</svg>
