<svg width="1917" height="707" viewBox="0 0 1917 707" fill="none" xmlns="http://www.w3.org/2000/svg">
<path d="M1278.87 698.928C1276.31 698.928 1274.66 698.025 1273.15 696.37C1270.59 694.112 1268.49 690.651 1268.49 686.588C1268.49 685.685 1268.64 684.481 1268.94 683.428C1269.69 681.171 1269.84 678.612 1269.84 675.603C1269.84 672.292 1269.54 668.379 1269.84 664.015C1269.99 662.059 1270.59 659.952 1270.59 656.34C1270.59 652.729 1269.84 647.763 1270.9 643.399C1271.35 641.743 1271.5 640.389 1271.5 639.185C1271.5 636.928 1270.9 635.122 1270.9 632.564C1270.9 630.607 1271.35 627.598 1271.35 625.641C1271.35 622.631 1270.59 622.331 1270.59 620.073C1270.59 619.622 1270.59 619.17 1270.74 618.568C1270.9 617.515 1271.05 616.311 1271.05 615.107C1271.05 611.345 1270.29 607.583 1270.29 605.326C1270.29 602.015 1271.65 599.758 1273.3 599.457C1275.56 599.005 1276.31 598.102 1277.06 597.801C1278.42 597.199 1279.62 597.049 1280.68 597.049C1283.69 597.049 1286.4 598.403 1289.71 597.952C1291.36 597.801 1292.41 597.5 1293.62 597.5C1297.68 597.5 1297.38 599.306 1309.42 600.059C1311.98 600.209 1313.48 600.66 1314.39 601.262C1315.89 602.316 1315.89 603.821 1316.79 605.777C1317.24 606.68 1317.55 607.583 1317.55 608.486C1317.55 609.84 1315.74 611.947 1314.99 612.85C1313.93 614.054 1313.03 614.505 1310.47 614.505C1308.52 614.505 1308.07 613.452 1305.96 613.452C1305.51 613.452 1304.9 613.452 1304.3 613.602C1303.55 613.753 1303.1 613.753 1302.5 613.753C1300.24 613.753 1299.64 612.398 1297.23 611.947C1294.52 611.496 1292.41 612.248 1290.61 611.646C1288.95 611.044 1287 610.894 1285.64 611.195C1285.49 612.097 1285.64 613.151 1285.64 614.204C1285.64 614.957 1285.94 616.311 1285.94 617.816C1285.94 618.869 1285.34 620.224 1285.34 621.879C1285.34 622.782 1285.49 623.835 1285.94 625.039C1286.55 626.845 1286.09 627.748 1286.09 628.952L1286.4 631.51C1286.7 631.811 1287.6 631.811 1288.95 631.962C1291.51 632.413 1292.57 631.36 1296.33 632.112C1300.09 632.865 1301.29 631.36 1303.55 631.811C1306.71 632.413 1308.97 634.068 1309.27 636.627C1309.42 638.132 1308.52 639.185 1308.52 640.69C1308.52 643.098 1306.71 644.753 1302.5 644.753C1298.13 644.753 1298.58 646.408 1295.73 646.408C1294.37 646.408 1292.87 645.656 1290.91 645.355C1289.86 645.204 1288.65 644.903 1287.75 644.903C1287.15 644.903 1286.7 644.903 1285.49 645.054C1285.19 645.957 1284.89 647.612 1284.89 651.675C1284.89 653.481 1285.34 654.083 1285.34 655.437C1285.34 656.34 1285.19 657.394 1284.74 659.049C1284.14 661.005 1283.99 662.36 1283.99 663.413C1283.99 665.972 1285.34 666.423 1285.34 670.035C1285.34 672.593 1285.04 674.549 1284.44 676.506C1283.99 677.709 1283.99 679.214 1283.99 679.515C1283.99 682.675 1284.44 684.782 1285.79 689.146C1286.55 691.705 1286.55 692.457 1286.55 692.758C1286.55 696.069 1285.19 696.52 1282.93 697.875C1281.43 698.778 1280.23 698.928 1278.87 698.928Z" fill="white"/>
<path d="M1225.39 701.184C1220.73 701.184 1214.56 696.82 1214.56 691.102V687.941C1214.56 687.039 1214.56 685.835 1215.16 683.276C1216.06 679.364 1215.61 673.796 1216.06 668.077C1216.21 664.917 1216.67 661.456 1216.97 659.5C1217.42 656.791 1217.72 655.737 1217.72 654.082C1217.72 652.728 1217.12 651.524 1217.42 649.417C1217.57 648.364 1217.87 646.257 1217.87 644.451C1217.87 642.344 1217.12 640.689 1216.82 636.626C1216.67 634.067 1216.51 631.359 1216.67 628.8C1216.97 623.684 1216.97 622.781 1215.76 615.257C1215.46 612.849 1215.46 611.645 1215.46 610.742C1215.46 607.13 1217.42 604.873 1220.43 604.873C1222.38 604.873 1223.44 606.378 1225.54 606.98C1229.16 608.033 1230.81 609.99 1230.81 614.805L1230.51 618.567C1230.51 619.169 1230.66 619.771 1230.81 620.223C1231.56 622.028 1231.86 623.834 1231.86 625.64C1231.86 627.295 1231.71 628.8 1231.56 630.305C1231.41 631.961 1231.26 633.465 1231.26 634.97C1231.26 636.325 1231.41 637.679 1232.02 639.033C1232.17 639.485 1232.32 640.087 1232.32 640.689L1232.17 645.655C1232.17 647.461 1232.47 649.267 1233.07 651.223C1233.22 651.975 1233.37 652.728 1233.37 654.985C1233.37 658.145 1232.77 662.81 1231.56 667.626C1231.11 669.432 1230.96 671.087 1230.96 672.893C1230.96 674.247 1230.96 675.451 1231.26 676.805C1231.56 678.009 1231.71 679.514 1231.71 680.869C1231.71 683.126 1230.81 685.233 1230.66 687.49C1230.51 689.898 1230.96 692.306 1230.81 694.864C1230.66 696.218 1230.36 697.723 1229.76 698.927C1229.01 700.733 1227.5 701.184 1225.39 701.184Z" fill="white"/>
<path d="M1067.2 702.54C1065.84 703.443 1064.34 704.045 1062.83 704.045C1061.03 704.045 1059.22 703.293 1057.72 701.938C1056.06 700.433 1055.16 699.38 1055.16 697.725C1055.16 697.273 1055.31 696.671 1056.51 691.856C1057.72 687.491 1062.23 681.923 1063.89 674.399C1066.59 662.511 1071.41 660.253 1072.61 651.826C1073.37 646.71 1076.53 642.948 1076.53 636.778C1076.53 633.467 1079.08 630.457 1079.99 627.748C1080.89 624.739 1084.05 616.763 1084.5 615.559C1085.56 613.001 1086.31 611.496 1088.41 608.637C1090.22 606.53 1092.33 605.627 1094.43 605.627C1097.14 605.627 1099.85 607.282 1101.66 609.54C1102.56 610.743 1103.31 612.7 1103.76 615.559C1104.67 620.826 1105.87 626.695 1107.23 630.307C1108.43 633.316 1107.23 635.122 1109.03 638.282C1110.24 640.239 1110.69 642.496 1110.69 644.753C1110.69 647.462 1111.74 650.02 1111.89 651.676C1112.34 654.535 1112.79 659.501 1113.4 662.36C1113.55 662.962 1113.7 663.564 1113.7 664.166C1113.7 665.972 1112.79 667.326 1112.79 668.831C1112.79 669.734 1113.85 671.088 1114.15 672.142C1114.45 673.346 1114.6 674.7 1114.6 675.904C1114.6 677.71 1113.85 679.516 1113.85 681.472C1113.85 682.676 1114.15 683.88 1114.45 685.084C1114.75 686.739 1115.5 689.749 1115.5 691.254C1115.5 693.36 1114 695.317 1112.79 696.521C1111.74 697.424 1110.54 697.875 1109.33 697.875C1107.98 697.875 1106.77 697.424 1105.42 696.671C1100 693.21 1099.55 687.792 1099.55 681.923L1099.7 674.851C1099.7 673.346 1099.55 671.69 1099.1 670.787C1098.05 670.787 1096.39 670.787 1094.58 670.938C1093.23 671.088 1092.03 671.239 1090.82 671.239C1087.96 671.239 1084.95 670.637 1082.85 669.433L1081.04 668.681C1080.59 669.283 1079.69 670.186 1079.08 671.239C1077.73 673.647 1076.68 675.904 1076.07 679.064C1075.77 680.569 1075.17 681.171 1074.87 681.472C1073.97 682.525 1073.52 683.278 1073.52 684.181C1073.52 684.632 1073.52 685.084 1073.82 685.686C1074.12 686.288 1074.27 686.739 1074.27 687.19C1074.27 688.093 1073.82 688.846 1073.37 689.749C1071.71 692.608 1070.51 695.016 1070.36 696.671C1070.06 699.53 1069.45 701.035 1067.2 702.54ZM1098.05 656.792C1097.9 655.588 1096.84 652.579 1097.14 649.117C1097.29 647.011 1095.79 645.205 1096.09 643.249C1096.69 640.088 1094.89 636.778 1093.98 635.423C1093.53 634.671 1092.93 634.069 1092.33 631.962C1091.42 634.069 1090.52 634.972 1090.52 636.928C1090.52 640.088 1088.72 645.054 1087.51 647.763C1085.56 652.278 1084.35 654.836 1084.35 656.341C1086.16 657.545 1088.57 658.147 1090.97 658.147C1094.43 658.147 1097.59 657.394 1098.05 656.792Z" fill="white"/>
<path d="M1027.4 691.404C1025 691.404 1023.64 690.652 1022.74 690.652C1021.54 690.652 1020.93 691.103 1017.92 691.103C1015.82 691.103 1013.71 690.652 1010.1 690.652L1004.98 690.803C1001.97 690.803 999.565 689.448 997.007 689.448C995.05 689.448 993.545 689.9 992.041 689.9C987.676 689.9 983.162 690.201 980.303 688.696C976.089 686.438 970.973 688.696 969.016 684.482C968.414 683.128 968.113 682.074 968.113 680.72C968.113 678.764 968.715 676.356 971.123 673.798C972.477 672.443 973.832 670.938 975.487 669.433L979.851 664.919C981.206 663.414 981.507 661.909 983.463 660.404C989.031 656.04 985.871 656.943 989.934 652.128C993.545 647.914 994.9 649.118 997.458 644.302C998.963 641.443 1000.77 639.938 1001.82 638.584C1003.18 636.928 1003.03 635.123 1006.64 632.865C1010.25 630.759 1009.8 628.351 1013.26 624.89C1016.27 621.88 1016.57 622.03 1018.07 619.923C1016.57 619.021 1014.01 617.817 1012.06 616.914C1009.65 615.86 1005.13 615.86 1000.47 617.064C995.652 618.268 995.05 615.559 990.837 616.914C985.118 618.87 985.118 619.171 984.667 620.525C983.162 624.589 979.249 626.695 976.841 626.695C972.778 626.695 970.22 622.933 970.22 619.171C970.22 611.647 977.142 609.54 981.055 606.079C983.011 604.423 984.817 605.477 990.385 603.069C992.041 602.317 993.094 602.016 994.298 602.016C996.254 602.016 996.405 602.768 998.06 602.768C998.361 602.768 999.113 602.768 999.715 602.618C1001.22 602.317 1002.57 602.166 1004.23 602.166C1009.35 602.166 1014.31 603.821 1019.43 605.778C1020.33 606.079 1021.39 606.681 1022.14 607.283C1022.74 607.734 1022.44 607.584 1022.74 607.734C1025.15 609.389 1027.25 611.496 1030.72 611.948C1033.88 612.399 1035.38 615.258 1035.38 619.021C1035.38 621.579 1035.08 624.288 1032.22 626.093C1030.11 627.448 1029.06 628.652 1028.01 630.458C1025 635.574 1023.04 634.671 1019.43 640.39C1018.68 641.594 1016.42 642.496 1015.82 643.399C1014.31 645.506 1015.06 646.108 1013.41 647.763L1011.45 649.87C1009.5 651.827 1010.25 652.88 1007.39 654.987C1006.04 656.04 1005.28 657.545 1004.38 658.899L1003.48 660.254C1001.82 662.662 1000.32 665.671 997.308 667.327C993.395 669.433 993.846 670.938 992.793 672.443C991.74 673.647 991.589 674.7 990.084 675.603C991.589 675.603 992.041 675.754 992.944 675.754C993.545 675.754 994.448 675.603 996.555 676.055C1000.47 676.958 1001.97 675.603 1007.99 676.356C1009.65 676.506 1011.6 676.506 1013.11 676.356C1014.16 676.205 1015.82 676.205 1016.27 676.205C1017.77 676.205 1020.48 677.108 1022.29 677.108C1023.49 677.108 1024.4 676.506 1025.3 676.506C1026.65 676.506 1028.46 677.259 1029.81 678.011C1032.67 679.516 1034.78 681.623 1034.78 684.181C1034.78 687.642 1031.92 691.404 1027.4 691.404Z" fill="white"/>
<path d="M935.91 691.852C933.652 691.852 932.75 690.498 930.793 691.1C928.686 691.852 926.881 689.595 925.075 690.348C923.269 690.95 921.313 690.95 919.507 690.95H918.002C916.647 690.95 914.992 690.799 913.638 690.197C912.283 689.445 912.584 690.799 910.478 690.799C908.973 690.799 907.769 690.047 906.565 689.896C905.511 689.746 904.308 689.595 903.254 689.595C901.599 689.595 901.147 690.047 899.342 690.047C898.589 690.047 897.987 690.047 897.385 689.896C894.075 689.144 890.764 688.993 887.453 688.993C885.948 688.993 884.594 688.692 883.24 688.09C881.735 687.488 880.079 687.187 878.875 685.983C877.672 684.78 878.574 683.425 877.07 681.92C876.016 680.867 876.016 679.814 876.016 678.911C876.016 678.008 876.317 676.954 876.769 676.051C878.123 673.493 880.079 671.236 882.487 669.731C886.851 667.173 887.754 664.464 890.011 661.454C891.667 659.498 894.075 657.993 895.73 656.338C896.934 655.134 897.536 653.93 898.288 652.576C901.298 647.459 904.91 642.944 908.973 638.58C911.681 635.571 911.982 633.012 918.002 630.304C919.958 629.401 920.711 627.294 921.914 625.639C922.215 625.187 922.516 624.736 924.021 623.532C922.516 623.682 922.215 623.08 920.861 622.93C919.808 622.779 918.905 622.779 917.851 622.478C915.745 622.027 913.638 622.177 911.531 620.973C910.779 620.522 910.026 620.371 909.123 620.371C907.468 620.371 905.963 620.973 904.308 621.726C903.856 621.876 903.254 622.027 902.803 622.027C902.201 622.027 901.448 621.876 900.846 621.575C899.793 621.124 898.74 620.973 897.385 620.973C894.225 620.973 890.463 622.027 887.754 623.682C886.701 624.284 885.647 624.585 884.594 624.886C883.541 625.187 882.638 625.338 881.885 625.338C877.973 625.338 875.414 622.328 874.06 619.017C873.759 618.265 873.608 617.211 873.608 616.308C873.608 614.954 874.06 613.449 875.264 612.546C877.973 610.74 881.735 610.439 884.744 609.537C885.647 609.236 886.701 608.784 887.754 608.634C889.259 608.483 890.914 608.784 892.269 608.483C893.924 608.032 895.88 607.43 897.686 607.43C900.696 607.43 903.254 607.881 906.414 607.881C908.22 607.881 910.026 607.58 911.832 607.58C912.735 607.58 913.788 607.58 914.842 607.881C918.905 609.386 923.419 609.687 927.783 610.289C928.837 610.439 930.041 609.837 931.395 609.837C931.847 609.837 932.298 609.837 933.05 610.138C933.953 610.59 934.104 611.342 935.91 611.342C938.919 611.342 942.381 613.148 943.735 616.609C944.337 617.964 945.541 618.716 945.541 620.221C945.541 621.124 944.638 622.027 944.638 622.93C944.638 624.585 943.585 625.639 941.779 626.391C940.424 626.993 939.672 627.745 939.07 629.25C938.167 631.658 936.512 634.066 934.104 635.119C925.978 638.58 925.225 644.901 919.356 648.362C915.745 650.469 913.788 655.284 912.434 656.639C911.531 657.542 910.478 657.692 910.026 658.144C908.22 659.949 907.769 661.906 906.715 663.26L900.696 671.838C899.944 672.891 898.89 673.644 896.783 675.449C898.89 675.6 899.492 675.901 900.395 675.901C901.448 675.901 903.104 675.449 904.007 675.299C904.609 675.148 905.211 675.149 905.812 675.149C907.016 675.149 908.07 675.148 909.424 675.6C911.681 676.202 914.24 677.857 916.798 676.804C919.657 675.6 923.57 676.804 926.881 676.804C928.686 676.804 930.041 675.449 931.997 675.6C938.017 676.051 941.929 683.275 941.929 685.683C941.929 689.144 939.371 691.852 935.91 691.852Z" fill="white"/>
<path d="M778.582 706.002C775.873 704.798 772.262 701.939 772.262 698.327C772.262 697.123 773.315 693.211 777.679 692.308C778.582 691.405 779.937 689.9 780.99 687.041C786.257 672.895 788.364 672.895 789.116 664.468C790.019 653.934 796.189 645.055 797.844 635.876C798.446 632.866 801.005 629.706 801.306 625.492C801.607 620.827 803.864 616.162 805.068 611.497C805.218 610.744 805.519 609.992 805.67 609.39C806.573 605.778 807.927 601.113 809.582 599.608C810.937 598.254 814.548 598.104 817.709 598.104C819.665 598.104 820.869 598.705 821.772 599.909L824.781 603.672C827.189 606.38 829.146 609.089 830.65 612.249C831.553 614.206 832.607 615.259 833.359 615.861C833.961 616.312 834.563 617.065 834.714 618.269C834.864 619.473 835.917 621.579 837.272 623.686C838.777 626.094 839.981 628.502 840.432 631.06C841.184 635.274 843.442 636.628 844.044 640.992C845.549 651.075 847.505 652.429 847.505 654.385C847.505 655.89 846.752 658.148 846.752 659.351C846.752 660.856 847.354 661.308 847.354 662.813C847.354 663.866 846.451 666.424 846.451 667.779C846.451 669.284 846.903 669.735 846.903 670.788C846.903 671.842 846.301 672.895 846.301 673.949C846.301 675.754 847.204 675.905 847.204 677.711L847.053 681.172C847.053 684.182 848.107 684.031 848.107 687.191C848.107 689.9 846.903 693.813 846.903 696.07C846.903 697.424 846.15 698.327 845.248 698.779C844.044 699.531 842.689 699.832 841.335 699.832C838.626 699.832 835.917 698.478 835.014 696.221C833.811 693.361 832.908 690.653 832.908 687.342C832.908 683.881 833.359 680.419 833.359 677.711C833.359 674.4 832.456 674.4 832.456 670.036L832.607 665.371C832.607 662.662 832.456 662.813 832.306 661.759C827.791 661.759 826.136 662.963 822.825 662.662C820.267 662.361 818.16 663.565 815.602 663.565C812.141 663.565 810.034 661.157 804.165 661.157C803.412 662.662 802.961 662.06 802.81 664.919C802.66 667.026 802.208 668.832 801.456 670.788C800.704 673.046 800.854 676.958 799.65 679.366C797.242 684.182 796.791 688.847 793.029 693.963C792.126 695.318 789.417 699.983 789.116 701.488C788.815 703.594 787.461 704.497 786.106 705.25C784.301 706.303 782.946 706.755 781.592 706.755C780.689 706.755 779.636 706.454 778.582 706.002ZM827.34 649.57C829.747 649.57 831.704 648.817 832.155 648.667C831.704 645.055 830.951 643.099 830.5 642.046C828.092 637.38 828.393 631.812 825.082 627.599C823.277 625.342 823.728 624.288 821.922 621.278C821.17 620.075 820.417 619.172 819.063 617.667C818.611 619.172 817.408 620.526 816.956 622.934C816.505 625.342 814.097 628.05 813.344 632.414C812.743 635.274 810.485 636.177 810.034 640.24C809.432 645.657 807.325 645.507 806.272 648.817C807.927 649.57 808.378 650.322 810.636 650.322C813.344 650.322 817.859 649.57 820.267 649.419C822.675 649.269 824.932 649.57 827.34 649.57Z" fill="white"/>
<path d="M741.829 699.378C739.722 699.378 737.164 696.368 736.261 695.465C734.455 693.659 733.101 691.251 733.101 688.844C733.101 687.188 733.553 686.135 734.606 682.674C734.756 681.771 734.907 680.717 734.907 679.513C734.907 676.805 734.606 673.344 735.659 669.28C736.713 665.217 736.863 662.809 736.863 660.853L736.713 655.285C736.713 651.523 737.616 649.717 737.616 646.707C737.616 645.955 737.616 645.203 737.465 644.3C737.164 641.139 738.669 636.173 738.669 633.615C738.669 628.348 736.713 627.295 736.562 623.232C736.412 620.523 734.606 618.567 733.854 617.513C732.951 616.159 732.349 614.503 732.349 612.848C732.349 611.193 732.951 609.688 733.854 608.333C734.907 606.829 736.562 606.076 738.368 606.076C742.431 606.076 746.946 607.732 747.849 611.945C748.451 614.503 751.009 614.503 751.46 619.168C751.611 620.372 751.46 621.275 752.213 622.931C754.169 627.596 752.664 633.013 754.169 638.13C754.621 639.334 754.621 640.538 754.621 641.741C754.621 643.547 754.47 645.052 754.169 645.805C753.567 648.062 752.965 650.47 752.965 652.877C752.965 654.081 753.567 655.285 753.567 657.693C753.567 659.649 753.116 662.659 752.363 665.669C751.912 667.776 751.31 669.882 751.611 673.644L751.761 676.504C751.761 679.965 751.159 683.878 749.805 687.038C748.902 689.145 748.902 690.348 748.902 691.251C748.902 694.261 748.601 696.217 746.344 697.271C744.388 698.174 744.087 699.378 741.829 699.378Z" fill="white"/>
<path d="M660.388 698.776C660.238 698.626 659.335 697.723 657.98 696.97C656.325 696.067 655.572 694.111 655.572 691.252C655.572 689.446 656.325 682.524 656.325 680.718C656.325 678.611 655.723 676.354 655.422 674.096C655.272 672.892 655.272 671.689 655.272 670.485C655.272 665.067 655.121 659.8 653.767 654.383C652.864 650.62 654.369 647.159 653.616 643.698C652.262 637.679 652.111 631.81 652.563 625.941C652.864 622.028 653.014 617.965 653.315 615.407C653.917 611.494 655.723 609.538 657.679 608.183C660.689 605.926 664 603.97 668.213 603.97C673.631 603.97 676.039 602.465 678.446 602.465C680.553 602.465 683.563 603.97 686.874 604.572C691.238 605.324 696.053 606.227 700.718 611.645C702.976 614.203 704.781 616.912 704.781 619.018C704.781 620.975 705.534 622.179 706.286 623.081C707.189 624.285 707.641 625.79 707.641 627.596C707.641 629.251 707.189 630.455 705.985 632.562C705.082 634.217 704.029 636.926 703.427 640.086C703.126 641.742 702.524 643.548 701.32 644.751C698.461 647.611 697.558 651.222 695.15 652.577C693.646 653.329 693.044 653.931 692.141 655.135C690.335 657.543 687.325 659.198 684.466 659.198C682.66 659.198 680.854 659.048 679.199 658.897L671.975 658.446H671.374C670.471 658.446 669.568 658.295 668.815 658.446C668.665 659.048 668.815 659.8 668.815 660.703C668.815 663.412 669.417 666.722 669.568 669.883C669.718 672.29 670.019 674.849 670.019 676.354C670.019 678.761 669.718 679.815 669.116 680.868C668.665 681.922 668.364 682.674 668.364 683.727C668.364 684.781 668.665 685.985 668.966 687.791C669.116 688.693 669.267 689.596 669.267 690.65C669.267 692.907 668.665 695.315 667.16 697.572C666.107 699.228 664.752 700.13 663.247 700.13C662.344 700.13 660.99 699.378 660.388 698.776ZM670.922 644.902H677.995C680.102 644.902 681.757 644.3 683.412 642.344C689.281 635.271 688.679 633.164 690.636 630.455C691.99 628.499 692.141 627.897 692.141 626.242C692.141 623.834 690.786 619.319 686.573 618.416C684.315 617.965 682.209 617.664 680.102 617.664C677.694 617.664 675.286 618.115 672.427 618.868C670.019 619.47 668.063 619.319 667.009 620.523L666.708 630.004C666.708 632.412 667.912 634.669 667.912 636.324C667.912 638.13 667.16 639.785 667.611 642.344C667.762 643.096 667.762 644.15 667.912 644.751C668.815 645.052 669.869 644.902 670.922 644.902Z" fill="white"/>
<path d="M1867.85 484.672C1867.7 480.608 1869.96 477.448 1869.5 473.686C1868.9 468.269 1869.05 463.152 1869.96 460.443C1870.41 459.239 1870.26 457.885 1870.41 456.982C1869.8 456.832 1869.35 456.982 1868.75 456.982C1867.85 456.982 1866.95 457.283 1865.59 457.885C1857.31 461.045 1859.72 465.861 1854.61 466.914C1849.49 467.968 1850.39 471.73 1844.52 470.375C1841.51 469.623 1839.71 468.269 1837.9 466.011C1837.45 465.259 1837.15 464.506 1837.15 463.754C1837.15 462.4 1838.5 459.691 1839.56 458.637C1843.62 454.123 1846.63 451.715 1852.65 449.608C1855.06 448.856 1856.11 446.147 1858.22 444.642C1860.47 443.137 1863.33 443.589 1868.75 440.579C1870.11 439.827 1871.46 439.977 1872.97 439.977C1874.32 439.977 1875.82 440.278 1877.18 440.579C1886.81 442.234 1882.3 442.686 1887.56 444.341C1889.22 444.793 1891.47 444.793 1894.33 445.846C1898.7 447.351 1899.15 450.662 1903.97 450.963C1906.07 451.113 1907.73 453.22 1910.14 453.22C1912.69 453.22 1914.65 457.584 1915.85 459.992C1916.46 461.196 1916.91 462.249 1916.91 463.002C1916.91 466.162 1913.6 470.676 1910.74 470.225C1906.98 469.623 1903.36 468.57 1901.86 466.162C1900.65 464.356 1899.75 463.302 1897.19 462.851C1894.03 462.249 1895.24 460.895 1892.98 459.992C1890.72 459.089 1890.12 457.735 1887.41 457.735C1886.96 457.735 1886.21 457.735 1885.61 457.885C1885.46 458.487 1885.61 459.239 1885.46 460.293C1885 462.701 1884.1 464.958 1883.65 467.516C1882.6 472.783 1885.15 477.298 1884.1 480.307C1881.84 486.778 1883.95 493.4 1881.99 500.473C1880.79 504.987 1880.04 507.997 1880.04 509.652C1880.04 511.007 1880.34 512.512 1880.34 513.715C1880.34 515.371 1880.04 517.177 1879.29 518.832C1878.53 520.337 1878.38 521.842 1878.38 523.347L1878.53 527.56C1878.53 529.968 1877.03 531.172 1877.03 532.978C1877.03 534.182 1877.93 534.633 1877.93 536.589C1877.93 537.944 1877.18 540.201 1874.62 541.254C1873.57 541.706 1872.06 542.007 1870.86 542.007C1870.26 542.007 1869.65 542.007 1867.7 541.254C1866.19 540.502 1863.94 538.997 1862.28 536.439C1861.83 535.837 1861.68 534.934 1861.68 534.031C1861.68 529.968 1864.09 528.313 1864.09 520.186C1864.09 511.609 1866.64 505.74 1866.19 501.075C1865.44 493.099 1868.15 495.055 1867.85 484.672Z" fill="white"/>
<path d="M1800.38 534.784C1798.27 534.784 1795.71 531.774 1794.81 530.871C1793 529.065 1791.65 526.658 1791.65 524.25C1791.65 522.595 1792.1 521.541 1793.15 518.08C1793.3 517.177 1793.45 516.124 1793.45 514.92C1793.45 512.211 1793.15 508.75 1794.21 504.687C1795.26 500.624 1795.41 498.216 1795.41 496.259L1795.26 490.691C1795.26 486.929 1796.16 485.123 1796.16 482.114C1796.16 481.361 1796.16 480.609 1796.01 479.706C1795.71 476.546 1797.22 471.58 1797.22 469.021C1797.22 463.754 1795.26 462.701 1795.11 458.638C1794.96 455.929 1793.15 453.973 1792.4 452.919C1791.5 451.565 1790.9 449.91 1790.9 448.254C1790.9 446.599 1791.5 445.094 1792.4 443.74C1793.45 442.235 1795.11 441.482 1796.91 441.482C1800.98 441.482 1805.49 443.138 1806.4 447.351C1807 449.91 1809.56 449.91 1810.01 454.575C1810.16 455.779 1810.01 456.682 1810.76 458.337C1812.72 463.002 1811.21 468.419 1812.72 473.536C1813.17 474.74 1813.17 475.944 1813.17 477.148C1813.17 478.953 1813.02 480.458 1812.72 481.211C1812.11 483.468 1811.51 485.876 1811.51 488.284C1811.51 489.488 1812.11 490.691 1812.11 493.099C1812.11 495.056 1811.66 498.065 1810.91 501.075C1810.46 503.182 1809.86 505.289 1810.16 509.051L1810.31 511.91C1810.31 515.371 1809.71 519.284 1808.35 522.444C1807.45 524.551 1807.45 525.755 1807.45 526.658C1807.45 529.667 1807.15 531.624 1804.89 532.677C1802.93 533.58 1802.63 534.784 1800.38 534.784Z" fill="white"/>
<path d="M1709.06 534.482C1708.01 534.934 1706.8 535.385 1705.6 535.536C1703.19 535.837 1700.94 535.536 1698.53 534.482C1697.02 533.73 1695.22 532.827 1693.26 532.977C1690.25 532.827 1687.84 533.429 1685.13 533.429C1684.23 533.429 1683.18 532.827 1682.27 532.677C1675.35 531.774 1675.65 534.783 1670.99 534.332C1660 533.128 1660 537.191 1651.73 536.138C1648.27 535.686 1646.61 533.88 1645.71 532.225C1643.75 529.065 1643 526.055 1643 522.443C1643 518.681 1644.8 516.424 1643.45 508.448C1642.85 504.536 1643.6 500.021 1643 495.958C1642.7 493.4 1642.55 490.691 1642.55 488.133C1642.55 484.972 1643.6 481.662 1642.7 478.501C1642.1 476.395 1642.7 474.438 1642.7 472.332C1642.7 468.118 1641.49 464.055 1641.79 459.691C1642.4 451.564 1640.59 454.123 1639.39 442.836C1638.93 438.773 1640.89 436.215 1643.45 436.215C1645.26 436.215 1647.21 437.419 1650.37 437.419C1652.93 437.419 1655.19 438.924 1656.54 442.385C1657.14 444.191 1657.29 445.996 1657.44 447.953C1657.75 451.414 1657.6 454.725 1657.75 458.186C1658.05 463.001 1656.99 464.205 1656.99 466.463C1656.99 467.817 1657.44 469.623 1657.9 470.827C1658.35 472.482 1658.65 474.288 1658.65 475.943C1658.65 477.9 1658.35 479.254 1657.75 481.06C1657.29 482.264 1657.14 482.866 1657.14 483.618C1657.14 485.574 1657.9 487.531 1658.05 493.099C1658.05 495.055 1658.8 497.011 1659.55 498.667C1660.3 500.171 1660.6 501.827 1660.6 503.633C1660.6 505.439 1658.8 514.016 1659.7 518.681C1659.85 518.681 1660 518.681 1660.45 518.531C1664.67 517.026 1664.37 520.337 1672.34 517.929C1677.31 516.574 1679.72 516.725 1682.43 517.327C1687.39 518.079 1691 517.176 1695.82 517.929C1698.08 518.23 1699.43 517.477 1701.69 517.778C1704.4 517.929 1707.56 520.487 1710.57 522.744C1711.62 523.647 1712.52 526.055 1712.67 527.259C1713.12 530.118 1711.47 533.429 1709.06 534.482Z" fill="white"/>
<path d="M1578.9 539.752C1578 539.902 1577.09 540.053 1576.19 540.053C1573.03 540.053 1569.87 538.849 1567.16 537.194C1564.6 535.689 1564.6 533.281 1564.15 530.723C1563.85 528.616 1562.5 527.262 1562.5 524.553C1562.5 520.941 1562.19 517.63 1563.7 512.062C1564.45 509.203 1563.25 506.946 1563.25 503.936C1563.25 500.024 1562.95 494.606 1562.65 489.64C1562.5 487.383 1561.14 484.975 1561.29 482.417C1561.74 476.849 1558.73 471.582 1559.64 466.164C1560.54 460.747 1559.03 457.737 1558.13 453.523C1557.38 450.363 1556.17 449.761 1556.17 445.698C1556.17 443.14 1554.82 442.086 1554.82 440.882C1554.82 439.829 1554.97 438.776 1555.57 437.873C1557.38 435.314 1558.28 435.314 1561.29 435.314C1564.9 435.314 1566.11 436.518 1568.36 439.077C1570.32 441.334 1572.28 443.892 1572.73 447.052C1573.18 449.912 1574.53 450.965 1573.93 455.781C1573.63 458.339 1574.23 461.198 1574.99 464.057C1575.14 464.659 1575.29 465.412 1575.29 465.863C1575.29 466.917 1574.83 468.572 1574.83 470.98C1574.83 473.688 1575.74 476.999 1575.74 481.213L1575.59 483.621C1575.59 484.975 1575.74 486.179 1576.04 487.834C1576.49 489.941 1577.24 492.048 1578.15 494.155C1578.6 495.057 1578.6 495.96 1578.6 496.713L1578.45 499.873C1578.45 500.776 1578.3 501.679 1578.45 502.582C1579.05 507.247 1579.35 510.106 1579.35 512.213C1579.35 514.771 1578.9 515.825 1578 518.834C1577.84 519.436 1577.69 520.189 1577.09 521.694C1577.69 522.446 1579.35 522.446 1581 522.446C1582.96 522.446 1586.12 523.499 1590.49 522.145C1594.1 521.092 1596.66 520.941 1600.27 521.694C1602.98 522.295 1605.68 521.694 1608.54 521.393C1612.46 520.941 1616.07 522.446 1616.37 524.854C1616.67 528.014 1618.33 528.766 1618.33 530.873C1618.33 532.378 1618.02 533.883 1617.12 535.388C1615.17 538.849 1613.96 537.344 1611.7 537.344C1611.1 537.344 1610.5 537.495 1609.9 537.645C1606.59 538.698 1605.23 538.698 1603.28 538.698C1600.87 538.698 1598.31 537.946 1596.5 538.398C1594.7 538.999 1592.44 539.601 1590.03 539.601C1588.68 539.601 1587.48 539.601 1586.12 539.451C1583.71 539.3 1581.16 539.3 1578.9 539.752Z" fill="white"/>
<path d="M1476.48 537.944C1475.13 538.847 1473.62 539.449 1472.12 539.449C1470.31 539.449 1468.5 538.697 1467 537.342C1465.34 535.838 1464.44 534.784 1464.44 533.129C1464.44 532.677 1464.59 532.075 1465.79 527.26C1467 522.896 1471.51 517.328 1473.17 509.803C1475.88 497.915 1480.69 495.658 1481.9 487.231C1482.65 482.114 1485.81 478.352 1485.81 472.182C1485.81 468.871 1488.37 465.861 1489.27 463.153C1490.17 460.143 1493.33 452.167 1493.79 450.963C1494.84 448.405 1495.59 446.9 1497.7 444.041C1499.5 441.934 1501.61 441.031 1503.72 441.031C1506.43 441.031 1509.13 442.687 1510.94 444.944C1511.84 446.148 1512.6 448.104 1513.05 450.963C1513.95 456.23 1515.15 462.099 1516.51 465.711C1517.71 468.721 1516.51 470.527 1518.31 473.687C1519.52 475.643 1519.97 477.9 1519.97 480.158C1519.97 482.866 1521.02 485.425 1521.17 487.08C1521.63 489.939 1522.08 494.905 1522.68 497.765C1522.83 498.367 1522.98 498.968 1522.98 499.57C1522.98 501.376 1522.08 502.731 1522.08 504.235C1522.08 505.138 1523.13 506.493 1523.43 507.546C1523.73 508.75 1523.88 510.104 1523.88 511.308C1523.88 513.114 1523.13 514.92 1523.13 516.876C1523.13 518.08 1523.43 519.284 1523.73 520.488C1524.03 522.143 1524.79 525.153 1524.79 526.658C1524.79 528.765 1523.28 530.721 1522.08 531.925C1521.02 532.828 1519.82 533.279 1518.62 533.279C1517.26 533.279 1516.06 532.828 1514.7 532.075C1509.29 528.614 1508.83 523.197 1508.83 517.328L1508.98 510.255C1508.98 508.75 1508.83 507.095 1508.38 506.192C1507.33 506.192 1505.67 506.192 1503.87 506.342C1502.51 506.493 1501.31 506.643 1500.11 506.643C1497.25 506.643 1494.24 506.041 1492.13 504.837L1490.32 504.085C1489.87 504.687 1488.97 505.59 1488.37 506.643C1487.01 509.051 1485.96 511.308 1485.36 514.469C1485.06 515.973 1484.46 516.575 1484.15 516.876C1483.25 517.93 1482.8 518.682 1482.8 519.585C1482.8 520.037 1482.8 520.488 1483.1 521.09C1483.4 521.692 1483.55 522.143 1483.55 522.595C1483.55 523.498 1483.1 524.25 1482.65 525.153C1480.99 528.012 1479.79 530.42 1479.64 532.075C1479.34 534.935 1478.74 536.44 1476.48 537.944ZM1507.33 492.197C1507.18 490.993 1506.13 487.983 1506.43 484.522C1506.58 482.415 1505.07 480.609 1505.37 478.653C1505.97 475.493 1504.17 472.182 1503.27 470.828C1502.81 470.075 1502.21 469.473 1501.61 467.366C1500.71 469.473 1499.8 470.376 1499.8 472.332C1499.8 475.493 1498 480.459 1496.79 483.167C1494.84 487.682 1493.63 490.24 1493.63 491.745C1495.44 492.949 1497.85 493.551 1500.26 493.551C1503.72 493.551 1506.88 492.799 1507.33 492.197Z" fill="white"/>
<path d="M1415.13 535.688C1413.47 535.688 1411.97 535.838 1408.66 534.634C1404.44 533.13 1399.78 531.625 1395.56 531.173C1391.65 530.722 1388.49 527.562 1385.78 524.702C1381.57 520.188 1376.9 515.523 1376.45 509.503C1376 503.183 1373.74 499.722 1373.89 494.756C1373.89 491.294 1374.49 489.338 1375.55 486.328C1377.2 481.362 1377.81 475.644 1379.61 469.624C1380.66 465.712 1382.32 461.348 1385.63 458.639C1392.1 453.372 1391.8 450.814 1394.96 447.202C1398.72 442.988 1401.73 442.537 1406.7 441.634C1408.81 441.333 1412.87 439.828 1414.98 439.828C1418.89 439.828 1422.8 440.43 1426.56 442.386C1429.72 444.042 1430.63 446.149 1434.09 447.503C1436.8 448.707 1438.15 450.061 1439.35 451.115C1441.31 452.619 1442.67 454.726 1443.57 456.833C1445.37 461.348 1449.59 464.809 1449.59 470.226C1449.59 471.731 1449.14 473.236 1448.38 474.741C1447.33 476.848 1445.52 477.751 1444.02 477.751C1442.82 477.751 1440.56 477.299 1439.35 476.396C1436.04 473.989 1434.24 470.828 1433.18 466.464C1432.88 465.411 1432.28 464.207 1431.83 463.003C1430.17 459.09 1423.85 458.488 1421.6 456.382C1420.24 455.178 1419.04 454.726 1417.83 454.726C1415.13 454.726 1412.57 456.984 1409.41 457.586C1405.04 458.488 1405.65 462.401 1401.43 465.26C1397.22 468.12 1395.71 472.032 1394.21 476.396C1392.85 480.309 1393.31 485.124 1391.8 487.833C1390.9 489.489 1389.99 491.294 1389.99 493.1C1389.99 495.508 1391.35 495.96 1391.35 499.722C1391.35 501.076 1391.05 503.634 1392.1 505.892C1393.16 507.998 1394.51 510.406 1395.86 512.363C1396.62 513.566 1397.07 514.77 1399.93 515.974C1402.18 516.877 1406.4 518.984 1409.86 518.984C1411.36 518.984 1412.57 518.984 1413.62 518.683C1416.18 517.93 1418.59 517.178 1420.54 517.178C1422.8 517.178 1424.16 517.78 1426.26 518.382C1429.72 519.435 1432.88 518.532 1436.34 523.348C1436.95 524.1 1437.1 525.455 1437.1 526.358C1437.1 529.518 1436.04 531.474 1431.98 533.13C1430.48 533.732 1429.12 534.935 1427.62 534.935C1426.11 534.935 1425.06 534.333 1423.55 534.333C1422.5 534.333 1421.6 534.634 1420.69 534.935C1417.68 535.688 1416.48 535.688 1415.13 535.688Z" fill="white"/>
<path d="M1221.18 541.857C1217.42 539.6 1215.62 536.741 1215.16 533.129C1214.41 526.658 1213.81 520.338 1213.81 513.867C1213.81 510.406 1213.96 506.944 1214.41 503.333C1214.86 498.517 1216.67 494.454 1216.67 488.585L1216.52 484.973C1216.52 482.415 1218.02 480.007 1217.57 477.449C1217.42 476.546 1217.42 475.643 1217.42 474.74C1217.42 470.376 1218.63 466.163 1218.63 461.949C1218.63 454.425 1218.02 449.91 1216.82 443.59C1216.52 441.934 1216.07 439.226 1216.07 437.57C1216.07 436.517 1216.22 435.464 1216.52 434.561C1217.27 431.852 1218.93 431.4 1222.24 431.4C1226.3 431.4 1230.06 433.056 1233.82 433.056C1238.64 433.056 1243.3 436.216 1248.27 437.269C1250.53 437.721 1252.48 438.323 1253.99 440.129C1254.89 441.182 1256.1 442.085 1258.2 442.536C1263.02 443.59 1267.23 447.201 1271.75 451.265C1274 453.522 1272.65 455.478 1277.31 458.337C1280.02 459.993 1280.78 462.1 1281.53 464.206L1284.09 472.784C1284.39 474.138 1284.69 475.944 1284.69 477.299C1285.14 483.017 1283.94 484.973 1284.39 492.197C1284.84 498.517 1280.63 504.988 1279.12 508.148C1277.92 510.707 1276.86 513.265 1276.11 515.974C1275.66 517.629 1274.61 519.134 1274 519.736L1269.19 524.852C1268.29 525.755 1267.68 526.959 1266.78 527.411C1258.35 532.226 1259.71 533.581 1254.44 536.44C1252.18 537.644 1249.93 538.246 1247.37 538.246C1244.81 538.246 1239.39 537.343 1235.63 537.343L1232.77 537.192C1232.47 537.794 1231.72 538.998 1231.12 539.6L1228.71 541.857C1227.65 542.76 1226.45 543.212 1225.25 543.212C1223.89 543.212 1222.54 542.76 1221.18 541.857ZM1245.86 520.338C1249.17 518.833 1252.03 519.585 1254.44 516.726C1257.6 513.114 1260.01 509.352 1261.36 506.343C1262.57 503.634 1265.58 503.333 1266.33 499.42C1267.83 491.745 1266.48 488.435 1268.29 480.459C1269.04 476.998 1268.14 471.731 1266.03 468.119C1260.91 459.541 1260.16 462.551 1255.95 459.09C1254.14 457.585 1251.58 456.08 1248.87 455.93C1245.86 455.779 1244.66 453.672 1241.95 452.619C1240.45 451.716 1237.44 451.867 1233.22 449.308C1232.92 450.964 1233.07 453.371 1233.07 455.328C1233.07 457.735 1233.52 458.488 1233.52 460.595C1233.52 461.799 1233.37 463.755 1232.62 467.066C1232.47 467.818 1232.32 468.721 1232.32 469.624C1232.32 472.634 1233.07 476.245 1233.07 480.007C1233.07 483.92 1232.32 485.425 1231.42 487.08C1230.21 489.338 1229.61 492.046 1229.61 496.26C1229.61 497.915 1229.91 499.721 1229.91 501.527C1229.91 503.634 1229.31 505.741 1228.56 508.299C1228.41 508.901 1228.11 509.503 1228.11 510.406C1228.11 513.867 1229.91 513.867 1229.91 518.532C1229.91 520.639 1230.81 521.391 1231.12 523.047C1233.82 523.347 1235.63 523.799 1237.44 523.799C1242.55 523.799 1242.7 521.843 1245.86 520.338Z" fill="white"/>
<path d="M1186.69 538.845C1183.99 539.146 1181.13 539.146 1178.72 538.092C1176.31 536.888 1173.75 536.888 1171.04 536.888C1169.54 536.888 1168.03 535.835 1166.23 535.985C1164.12 536.136 1160.66 536.136 1158.25 535.684C1156.15 535.233 1153.89 534.781 1151.33 534.781C1149.67 534.781 1148.32 535.534 1146.67 535.684C1143.96 535.985 1141.4 536.136 1138.69 536.136C1136.73 536.136 1135.23 535.534 1133.87 534.48C1130.56 531.621 1129.06 528.16 1129.06 524.097V520.335C1129.06 516.874 1130.56 514.014 1129.96 510.854C1129.21 506.791 1129.66 503.029 1130.26 499.116C1130.86 495.204 1130.26 491.592 1129.96 487.98C1129.66 482.563 1130.56 477.446 1130.56 472.179C1130.56 467.213 1129.06 465.257 1129.66 457.431C1129.81 454.873 1128.91 452.616 1127.7 450.509C1125.75 447.349 1126.2 443.888 1127.25 440.427C1127.85 438.47 1129.66 437.266 1131.62 437.116C1134.93 436.815 1139.74 437.718 1139.74 441.63C1139.74 444.339 1140.8 445.694 1142.45 447.8C1143.66 449.305 1144.11 450.509 1144.41 452.164C1144.71 454.422 1145.46 456.83 1145.46 458.936C1145.46 460.14 1145.31 461.194 1145.16 462.398C1144.71 465.257 1143.66 468.266 1144.41 470.825C1145.91 476.092 1144.11 478.951 1144.11 482.864C1144.11 485.121 1144.71 487.228 1145.16 489.485C1145.91 493.247 1146.36 497.16 1145.16 500.772C1144.11 504.233 1144.86 508.145 1144.86 511.005C1144.86 513.262 1143.96 516.121 1143.35 518.529C1144.11 518.98 1144.41 519.131 1145.91 519.131C1146.97 519.131 1148.32 518.83 1150.58 518.83C1153.14 518.83 1155.69 520.335 1158.55 520.937C1161.41 521.539 1164.42 519.733 1167.28 520.786C1172.4 522.592 1172.7 520.485 1178.12 522.743C1179.32 523.194 1180.68 522.893 1182.03 523.344C1183.53 523.796 1184.59 525 1185.94 525.602C1189.7 527.107 1190.91 530.116 1190.91 534.029C1190.91 536.888 1189.4 538.544 1186.69 538.845Z" fill="white"/>
<path d="M1052.51 535.537C1051.46 535.537 1050.25 535.086 1048.75 534.183C1046.19 532.678 1042.88 532.678 1041.38 532.527C1038.06 532.226 1036.56 529.367 1034.9 527.862C1033.25 526.207 1030.39 525.003 1030.39 525.003C1028.88 523.649 1029.04 523.498 1028.28 522.896C1024.22 519.134 1022.11 514.62 1021.36 509.804C1020.46 503.935 1016.85 500.474 1018.65 490.692C1019.25 487.532 1017.45 486.178 1018.35 483.469C1019.86 478.804 1018.65 477.75 1018.8 474.741C1019.1 470.076 1020.76 463.304 1019.71 457.284C1018.95 453.372 1020.76 453.071 1020.16 449.459C1019.25 444.493 1021.21 441.784 1024.97 440.731C1025.87 440.43 1026.93 440.279 1027.38 440.279C1029.19 440.279 1030.54 441.032 1031.89 442.085C1035.05 444.493 1036.86 447.503 1036.86 451.114C1036.86 452.469 1036.86 455.93 1035.51 459.542C1034.75 461.648 1034.3 464.508 1034.3 467.668C1034.3 470.828 1034.9 471.58 1034.6 474.289C1034.15 478.051 1035.36 478.051 1035.21 480.158C1035.05 482.265 1033.85 482.566 1033.85 484.673C1033.85 487.682 1035.51 490.391 1035.51 492.348C1035.51 493.551 1034.45 495.809 1034.45 497.163C1034.45 499.872 1036.86 502.43 1037.31 507.095C1037.61 510.255 1038.97 514.319 1042.73 517.027C1045.89 519.285 1047.54 517.629 1052.06 519.285C1059.43 521.993 1059.58 517.629 1065.6 515.071C1071.02 512.814 1069.82 508.149 1071.92 505.59C1073.73 503.333 1072.68 502.28 1073.28 500.323C1074.33 496.862 1075.08 495.658 1075.54 494.003C1077.64 486.629 1075.23 486.78 1077.19 479.406C1078.09 476.095 1076.89 473.687 1076.89 471.129C1076.89 466.915 1077.94 464.207 1077.94 462.1C1077.94 459.241 1076.74 457.886 1076.89 455.478C1077.04 452.469 1077.49 448.707 1078.39 447.352C1080.05 444.794 1082.46 443.891 1084.56 443.891C1085.47 443.891 1086.82 444.493 1088.48 445.245C1092.09 446.75 1093.89 450.512 1094.8 452.469C1095.25 453.372 1095.4 454.575 1095.4 455.629C1095.4 457.284 1094.8 458.789 1094.5 460.444C1094.2 461.799 1094.5 463.454 1094.5 463.755C1094.5 464.959 1094.65 465.711 1094.65 466.464C1094.65 467.367 1094.5 468.42 1094.05 469.474C1091.49 474.59 1092.69 475.493 1092.39 478.202C1092.09 481.212 1091.94 483.168 1091.94 484.974L1092.09 489.789C1092.09 491.595 1092.09 493.25 1091.34 495.508C1089.98 499.27 1089.83 502.129 1089.53 503.484C1089.08 505.891 1088.78 506.945 1088.18 507.998L1086.82 510.406C1085.32 513.416 1083.81 514.619 1081.71 521.692C1080.95 523.95 1079.6 526.809 1074.33 529.066C1071.17 530.421 1071.62 532.076 1068.31 533.731C1066.36 534.785 1063.8 535.387 1061.99 535.387C1059.88 535.387 1058.68 534.634 1057.63 534.634C1055.37 534.634 1054.17 535.537 1052.51 535.537Z" fill="white"/>
<path d="M951.794 536.592C947.279 536.592 943.668 534.485 938.702 534.485C933.886 534.485 929.673 532.98 926.663 529.67C924.706 527.563 919.289 524.703 918.386 522.446C913.119 509.956 910.561 513.116 909.507 498.669C909.056 491.596 911.313 487.533 912.066 477.902C912.216 475.795 914.925 472.786 915.376 470.227C916.58 462.854 920.944 454.426 929.221 447.504C932.08 445.096 934.639 446.601 939.605 444.344C944.571 442.087 947.129 441.184 952.095 441.184C956.459 441.184 959.619 442.387 961.877 445.548C966.843 448.407 972.561 450.965 975.872 454.426C977.076 455.63 977.377 457.436 978.43 458.941C979.484 460.145 980.988 461.198 981.741 461.951C984.45 464.659 986.857 469.024 986.556 472.936C986.255 477.752 988.061 480.611 988.061 484.825C988.061 489.49 987.158 494.004 985.653 498.368C983.547 504.689 985.051 509.053 983.848 512.514C982.945 514.922 980.838 515.373 979.784 518.383C979.032 520.49 977.828 522.597 976.022 523.048C973.916 523.65 973.615 525.305 972.561 526.359C970.153 528.917 969.852 528.014 966.241 531.776C964.134 533.883 961.124 534.034 958.265 534.786C955.857 535.388 954.954 536.592 951.794 536.592ZM944.27 521.694C945.775 521.844 947.279 522.296 948.784 522.296C951.192 522.296 953.6 521.242 954.804 520.038C955.707 519.135 957.061 518.834 957.964 518.534C960.372 517.631 959.92 515.975 961.425 514.922C967.144 510.708 971.207 504.689 971.207 497.917C971.207 492.951 973.464 495.359 973.314 483.32C973.314 478.354 970.906 474.893 969.852 470.528C968.498 464.509 962.479 459.543 959.469 459.543C957.813 459.543 955.857 459.844 954.202 460.446C953.148 460.897 952.546 461.048 951.493 461.048C948.333 461.048 946.076 459.091 944.119 456.985C940.959 456.985 933.886 464.358 932.532 471.281C932.231 473.237 931.328 475.043 930.124 476.698C924.706 484.373 926.964 489.038 925.158 494.456C924.255 497.315 926.813 498.368 926.813 499.873C926.813 501.98 926.061 501.98 926.061 505.441C926.061 508.3 926.813 511.31 928.469 513.116C929.522 514.47 931.328 515.674 932.231 518.082C932.682 519.135 933.886 519.436 934.789 519.436C937.197 519.436 938.1 521.995 940.658 521.995C941.711 521.995 943.216 521.543 944.27 521.694Z" fill="white"/>
<path d="M788.942 536.741C787.587 536.741 786.534 535.838 784.126 535.838C781.267 535.838 780.815 534.935 779.16 533.882C778.408 533.28 777.655 532.377 777.655 530.119C777.655 526.959 777.053 523.949 777.053 520.789C777.053 518.231 776.451 515.372 776.15 514.318C775.247 510.406 774.344 506.192 775.247 501.978C777.204 492.197 774.344 486.328 775.398 479.105C775.849 475.794 774.344 472.483 774.344 469.172C774.344 463.002 772.238 461.046 770.582 450.362C770.131 447.352 770.131 446.75 771.636 444.192C771.937 443.439 772.84 442.988 773.743 442.837C774.645 442.687 775.699 442.536 776.602 442.536C778.107 442.536 779.612 442.837 781.267 443.59C783.374 444.643 785.029 446.299 785.631 448.706C786.684 452.92 785.932 455.328 786.985 460.444C787.587 463.303 788.791 464.507 788.039 469.022C787.587 471.43 789.243 473.837 789.845 476.095C790.898 480.158 789.995 482.265 790.747 486.328C791.65 491.143 789.544 492.799 790.146 496.561C791.048 501.978 789.544 502.881 790.447 507.998L791.349 513.716C792.553 512.211 793.155 511.911 793.757 511.158C795.262 509.051 797.67 505.59 798.422 503.032C801.883 492.197 803.087 497.012 805.044 486.177C806.097 480.76 808.806 478.804 808.806 472.483C808.806 468.42 809.558 464.507 811.816 459.391C812.869 456.833 811.966 453.522 815.126 452.468C817.083 451.867 818.888 451.415 820.393 451.415C822.651 451.415 824.456 452.167 826.112 453.522C829.573 456.682 833.787 458.638 836.194 462.702C838.602 466.915 839.054 469.624 842.665 474.439C843.719 475.944 844.471 477.148 844.321 478.804C844.17 481.061 844.923 482.716 845.825 484.522C846.578 485.726 847.33 486.93 847.33 488.134C847.631 495.357 849.437 497.012 849.136 504.236C849.136 505.59 849.287 507.245 851.243 511.76L854.855 502.731C856.811 497.313 859.67 491.143 861.175 487.08C862.529 483.318 862.078 480.158 862.981 477.6C868.097 463.454 865.238 463.002 869.452 457.284C872.462 453.221 870.957 450.512 873.515 444.794C873.816 444.041 873.966 443.138 874.117 442.386C875.02 438.624 877.729 437.57 880.588 437.57C883.297 437.57 885.704 438.624 887.811 440.43C889.015 441.483 889.617 443.59 889.617 445.697C889.617 447.201 889.316 448.857 888.413 450.061C886.908 452.167 886.457 454.124 886.156 456.532C885.554 459.541 885.554 462.702 883.447 465.862C881.641 468.57 880.437 473.085 880.287 477.449C880.136 483.168 876.826 485.274 876.675 489.187C876.525 494.003 873.364 494.755 871.559 502.731C871.258 504.085 870.355 504.988 869.452 506.343C869.301 506.794 868.097 507.546 867.495 509.804C866.894 512.211 865.539 515.522 862.68 517.629C860.874 518.983 860.423 521.542 859.068 523.498C857.864 525.304 856.359 526.508 854.253 526.508C853.35 526.508 852.748 526.959 852.146 527.11C850.491 527.712 849.136 528.915 847.481 528.163C845.223 527.411 843.418 526.207 842.214 524.401C840.859 522.144 838.452 519.886 838.452 517.178C838.452 509.804 835.893 508.449 835.291 504.236C834.539 499.571 831.83 495.357 831.83 490.842C831.83 487.682 831.529 485.425 830.024 482.716C825.66 475.342 827.466 473.085 823.403 469.624C823.403 473.085 822.049 475.192 821.748 478.804C821.597 480.609 822.199 482.716 821.748 485.575C821.146 488.585 819.942 490.993 817.685 496.26C817.083 497.464 816.631 498.668 816.932 500.173V500.925C816.932 501.978 816.631 503.032 816.33 504.085C816.18 504.838 815.879 505.59 815.277 506.192C810.913 510.406 808.956 516.425 806.85 520.338C805.796 522.445 805.495 523.197 804.592 523.949C799.927 527.411 799.175 528.464 797.67 531.925C796.165 535.386 790.447 536.741 788.942 536.741Z" fill="white"/>
<path d="M663.7 538.094C661.593 538.094 660.088 537.342 658.433 535.235C656.326 532.827 654.52 530.871 654.52 527.409C654.52 525.905 656.025 523.497 656.025 519.283C656.025 515.822 654.972 509.502 655.875 502.88C656.477 498.817 654.972 492.045 654.972 489.336C654.972 486.628 656.176 481.662 655.423 477.598C654.821 474.288 656.176 471.429 655.423 468.268C653.166 458.938 656.326 455.778 654.52 449.157C653.617 445.996 653.617 443.739 653.768 441.482C654.069 437.72 656.176 436.365 658.884 436.365C660.991 436.365 663.55 437.419 665.656 438.623C667.462 439.676 669.87 442.234 669.87 445.244L669.72 449.608C669.72 451.564 670.923 452.016 670.923 455.327C670.923 456.38 670.622 457.885 670.773 459.992C671.074 464.807 669.118 463.754 670.923 476.545C671.525 480.307 670.622 482.414 670.622 486.026C670.622 489.788 671.224 492.346 671.375 494.453C671.525 497.162 670.923 498.968 671.826 503.031C672.278 505.288 671.375 507.846 671.224 510.104C671.074 511.608 671.826 517.026 671.826 519.735C671.826 521.239 670.773 522.443 670.622 524.4V524.851C670.622 526.356 671.074 527.861 671.074 528.914C671.074 533.579 667.914 538.094 663.7 538.094Z" fill="white"/>
<path d="M41.6043 232.798C39.6378 230.717 36.9911 227.935 35.6762 222.844C35.5066 222.19 35.4232 221.635 35.3849 221.141L35.3359 218.631C35.3023 218.237 35.2313 217.83 35.0785 217.374C34.7312 216.338 34.0716 215.22 33.3633 214.003C32.3664 212.29 31.2762 210.4 30.7911 208.24C30.7566 208.089 30.721 207.924 30.6822 207.755C30.3133 206.152 29.7827 203.789 29.6056 201.353C27.4443 194.808 25.4155 187.98 23.6656 181.322C20.6869 170.018 18.3069 158.645 16.5824 147.137C15.7333 141.479 15.8151 136.071 16.7048 131.853C17.6085 127.719 19.2388 125.441 21.1232 125.239C23.0165 125.048 25.0382 126.919 26.9465 130.515C28.8656 134.201 30.5013 139.018 31.7054 144.304C33.6506 152.865 35.9907 161.335 38.6221 169.689C38.7839 170.127 38.9462 170.569 39.1069 171.009C40.329 174.369 41.6892 177.053 43.1509 179.953C43.4841 180.61 43.8196 181.271 44.1562 181.935C46.7306 187.139 49.8422 197.113 51.835 202.772C51.8698 202.872 51.9043 202.972 51.9393 203.072C52.3907 204.377 52.8564 205.605 53.4152 207.047C54.7626 210.477 56.5711 215.228 60.3211 224.944C61.5971 227.705 62.9534 230.573 64.2351 233.238C78.4582 262.819 95.5624 291.304 115.357 317.797C115.62 318.122 115.889 318.453 116.161 318.787C121.478 325.351 128.077 332.95 132.204 338.089C137.384 344.565 140.855 348.813 143.824 352.418C161.51 371.978 180.9 390.097 201.843 406.373C208.305 411.4 215.246 416.486 221.931 421.092C228.142 425.377 234.786 429.713 241.15 433.651C244.993 435.834 248.729 437.841 252.23 439.68C257.175 442.28 261.551 444.485 265.08 446.374C273.595 450.947 283.432 456.505 290.553 460.331C291.733 460.967 292.853 461.568 293.892 462.118C299.791 464.884 305.952 467.642 311.821 470.149C312.184 470.396 312.55 470.647 312.921 470.902C317.537 474.079 323.95 476.912 333.969 480.975C338.281 482.718 343.325 484.714 349.353 487.067C353.241 488.582 355.14 489.693 356.69 490.606C357.142 490.872 357.586 491.132 358.002 491.359C359.46 492.149 361.184 492.478 363.225 492.861C365.877 493.358 369.062 493.943 372.967 495.725C385.538 501.416 391.545 502.146 396.049 502.746C397.376 502.918 398.582 503.071 399.793 503.313C403.716 504.102 409.128 505.991 413.226 507.592C416.563 508.893 423.025 510.215 428.185 511.011C430.121 511.311 432.688 511.939 435.736 512.665C438.891 513.417 442.565 514.274 446.575 514.969C456.427 516.653 461.701 517.45 465.98 518.109C467.198 518.295 468.336 518.465 469.474 518.633C473.054 519.16 477.629 519.881 482.082 520.536C487.363 521.314 492.788 522.058 496.961 522.5C507.68 524.474 518.509 526.312 529.133 527.934C534.639 528.776 539.906 530.249 543.744 532.105C547.578 533.961 549.663 536.047 549.467 537.974C549.271 539.899 546.801 541.529 542.614 542.517C538.425 543.503 532.866 543.748 527.229 543.2C515.99 542.111 504.461 540.773 493.1 539.171C479.486 537.261 465.382 534.838 451.861 531.949C442.581 529.972 432.621 527.613 423.282 525.171C422.313 524.918 421.347 524.662 420.383 524.406C412.489 522.882 404.217 521.056 398.628 519.605C393.989 518.403 390.746 517.163 387.983 516.097C386.082 515.363 384.409 514.707 382.677 514.188C381.771 513.917 380.413 513.524 378.839 513.06C372.358 511.16 361.568 507.821 352.18 503.903C347.884 502.125 343.016 499.867 338.446 497.673C331.883 494.532 326.063 491.571 322.735 490.347C317.042 488.269 310.837 485.304 305.466 482.632C300.399 480.115 295.792 477.738 293.059 476.78C289.777 475.628 287.204 474.195 283.437 472.045C280.802 470.539 277.728 468.757 273.233 466.301C268.07 463.475 264.592 461.258 261.66 459.366C257.508 456.681 254.596 454.742 249.505 452.272C243.915 449.563 238.288 446.484 234.147 443.684C232.256 442.407 230.079 441.04 227.723 439.531C224.638 437.556 221.436 435.458 218.663 433.362C216.377 431.634 214.654 429.986 213.145 428.528C212.674 428.073 212.224 427.635 211.785 427.22C209.969 425.95 208.037 424.586 206.177 423.257C205.84 423.088 205.483 422.914 205.113 422.731C203.252 421.81 200.973 420.668 198.367 418.987C194.221 416.307 191.064 413.615 187.554 410.569C184.855 408.222 182.088 405.77 178.803 403.15C176.562 401.363 173.975 399.403 171.437 397.435C167.57 394.433 163.838 391.432 161.475 389.118C160.589 388.252 159.959 387.366 159.342 386.487L159.337 386.474C159.295 386.415 159.248 386.354 159.206 386.294C153.257 381.125 147.088 375.508 141.326 370.03C140.793 369.582 140.256 369.13 139.726 368.679C137.176 366.516 134.572 364.224 132.793 362.935C130.843 361.522 126.573 357.378 122.25 352.971C119.377 350.045 116.405 346.928 113.978 344.468C112.556 343.026 111.503 341.411 110.438 339.752C109.438 338.194 108.462 336.643 107.084 335.055C106.398 334.265 105.607 333.453 104.768 332.586C104.03 331.823 103.252 331.015 102.477 330.141C101.758 329.329 100.361 327.357 98.6171 324.83C97.539 323.269 96.3306 321.494 95.0595 319.647C91.2726 314.877 87.6231 310.091 84.1173 305.296C83.2342 304.401 82.3982 303.679 81.6045 303.151C81.0404 302.78 80.4898 302.51 79.9248 302.233C79.1546 301.855 78.356 301.461 77.4728 300.776C76.7825 300.24 76.1477 299.487 75.8788 298.879C75.7536 298.596 75.708 298.345 75.6656 298.119C75.617 297.859 75.5711 297.629 75.4232 297.41C75.3162 297.251 75.1456 297.125 74.9373 296.97C74.6048 296.723 74.1758 296.398 73.7486 295.757C72.1502 293.361 70.4766 290.65 68.8111 287.885C66.9478 284.795 65.1841 281.782 63.7189 279.437C62.0624 276.789 60.1303 272.964 58.1375 268.876C56.7692 266.066 55.4436 263.26 54.262 260.903C53.0952 258.577 51.7558 256.355 50.3841 254.018C48.7644 251.265 47.2473 248.622 46.3292 246.216C46.1436 245.729 46.1258 245.019 46.1052 244.135C46.0906 243.509 46.0728 242.79 45.999 242.003C44.6251 239.146 43.1926 236.053 41.8672 233.074C41.784 232.986 41.6982 232.896 41.612 232.805L41.6043 232.798Z" fill="white"/>
</svg>
