<svg width="2068" height="699" viewBox="0 0 2068 699" fill="none" xmlns="http://www.w3.org/2000/svg">
<path d="M1215.24 267.974C1214.63 267.974 1213.88 267.974 1212.38 267.523C1210.72 266.921 1206.21 265.115 1205.45 263.309C1204.85 261.654 1204.55 260.3 1204.55 258.494C1204.55 256.387 1205.6 253.377 1205.6 251.12C1205.6 249.766 1204.85 246.455 1205.91 243.295C1206.36 242.091 1206.96 239.833 1206.96 238.479C1206.96 236.523 1206.36 233.814 1206.36 230.353V219.969C1206.36 217.862 1205.6 215.756 1205.6 214.552C1205.6 210.489 1207.41 210.639 1207.26 206.425C1206.96 199.353 1208.76 195.289 1208.76 192.129C1208.76 189.571 1207.71 188.367 1208.31 185.959C1209.67 180.843 1208.16 178.887 1208.16 177.231C1208.16 175.726 1208.91 174.071 1209.52 173.469C1212.23 170.61 1216.29 170.008 1219.15 170.008C1225.62 170.008 1234.65 172.265 1237.36 172.265C1239.92 172.265 1240.52 171.964 1242.32 171.964C1247.14 171.964 1250.75 175.275 1253.46 178.435C1254.81 179.94 1254.96 180.843 1254.96 181.746C1254.96 183.251 1254.36 184.755 1253.01 185.508C1251.8 186.11 1250.6 186.26 1249.7 186.26C1248.94 186.26 1247.59 186.26 1246.24 186.561C1245.03 186.862 1244.13 187.013 1242.92 187.013C1241.12 187.013 1239.31 186.712 1234.95 185.658C1232.99 185.207 1229.98 186.26 1226.82 185.207C1226.07 184.906 1225.02 184.605 1223.21 184.605C1222.91 185.658 1222.76 187.163 1222.76 189.571C1222.76 190.474 1223.06 191.377 1223.06 192.28C1223.06 193.634 1222.31 194.838 1222.31 196.644C1222.31 198.6 1223.21 200.707 1223.21 202.061C1223.21 203.566 1223.06 205.372 1222.46 207.629C1223.06 207.629 1223.66 207.78 1226.67 207.78H1229.83C1232.84 207.78 1234.05 208.382 1235.85 208.382L1239.16 208.231C1243.83 208.231 1247.29 211.843 1247.29 216.358C1247.29 218.464 1246.54 221.173 1242.47 221.173C1240.37 221.173 1239.01 220.722 1237.81 220.722C1235.1 220.722 1234.8 221.474 1231.19 221.474C1228.33 221.474 1225.92 220.27 1221.56 220.722C1221.56 221.775 1221.25 222.528 1221.1 224.032C1220.65 228.697 1221.71 230.353 1221.41 236.222C1221.25 238.63 1219.9 242.542 1220.5 246.003C1223.36 244.498 1226.97 246.154 1229.08 246.154C1231.49 246.154 1234.05 246.154 1236.3 246.906C1241.12 248.411 1243.53 249.013 1245.93 249.314C1247.74 249.465 1248.94 250.217 1249.4 251.872C1250.15 254.581 1251.35 256.236 1251.35 258.042C1251.35 261.353 1245.78 262.707 1242.62 262.707C1240.97 262.707 1239.46 262.557 1237.66 261.955C1229.53 259.848 1226.97 259.698 1224.72 259.698C1222.76 259.698 1221.86 260.149 1221.56 260.45C1220.8 261.202 1219.75 263.309 1219.3 264.814C1218.55 267.071 1217.04 267.974 1215.24 267.974Z" fill="white"/>
<path d="M1107.49 275.652C1102.07 275.652 1098.01 272.04 1098.01 266.021C1098.01 261.958 1102.07 259.701 1105.38 259.851C1106.89 259.851 1107.79 260.152 1109.45 260.152C1111.7 260.152 1115.47 258.497 1120.88 258.497L1124.95 258.647C1127.05 258.647 1129.31 257.293 1131.87 257.293C1135.18 257.293 1137.29 254.735 1140.6 254.283C1144.81 253.681 1144.21 250.972 1147.22 248.715C1150.53 246.157 1151.88 242.395 1151.73 239.385C1151.73 238.482 1151.28 237.429 1150.68 236.827C1148.27 234.419 1145.11 232.011 1141.35 231.861C1137.44 231.71 1135.03 231.108 1134.43 230.807C1132.47 229.754 1132.92 229.001 1131.12 228.55C1130.36 228.399 1129.91 228.098 1129.76 227.647C1129.31 226.142 1128.41 225.39 1127.05 224.788C1123.14 222.831 1121.49 219.671 1119.98 215.608C1118.78 212.297 1119.68 212.448 1119.23 209.137C1118.78 205.977 1117.42 201.462 1117.42 196.647C1117.42 189.574 1119.23 182.501 1124.95 179.04C1127.66 177.385 1129.76 173.472 1131.57 171.064C1133.22 168.807 1133.67 168.205 1135.93 167.302C1137.74 166.55 1140 167.001 1142.85 165.647C1144.96 164.593 1147.22 163.841 1149.63 163.841C1151.88 163.841 1154.14 164.292 1156.7 165.195C1161.21 166.851 1165.73 168.807 1169.19 172.268C1170.85 173.923 1172.5 175.278 1174.46 177.385C1176.26 179.341 1177.02 183.555 1177.47 186.564C1177.92 190.176 1175.51 192.885 1171.45 192.885C1169.34 192.885 1166.63 192.283 1163.92 189.875C1161.36 187.618 1160.76 185.36 1160.61 184.307C1160.46 182.802 1160.16 182.05 1159.41 181.448C1157.3 179.943 1155.65 179.341 1154.14 179.341C1152.34 179.341 1148.12 180.244 1145.11 182.2C1144.21 182.802 1143.91 183.855 1142.85 184.608C1142.25 185.059 1141.35 185.36 1140.75 185.962C1139.84 186.865 1139.69 187.768 1138.79 188.671L1137.14 190.025C1136.23 190.627 1135.33 191.229 1134.73 192.132C1133.98 193.336 1134.88 194.991 1133.52 196.346C1133.07 196.797 1132.77 197.55 1132.77 198.152C1132.77 198.754 1132.92 199.356 1133.22 200.108C1135.03 203.87 1134.28 207.331 1135.18 210.492C1135.63 211.846 1135.63 212.598 1136.84 213.802C1137.74 214.705 1139.24 215.608 1140.15 216.661C1141.35 218.016 1143.01 218.166 1145.11 218.317C1151.58 219.069 1155.04 220.574 1157.45 223.584C1158.66 225.239 1159.56 224.938 1160.91 225.54C1162.27 226.142 1162.57 227.948 1163.62 229.001C1166.18 231.56 1166.78 234.569 1166.33 237.88L1166.03 240.288C1166.03 241.04 1166.48 242.997 1166.48 245.254C1166.48 252.477 1159.56 261.205 1157 263.011C1154.44 264.817 1152.79 264.817 1151.28 266.322C1147.07 270.235 1141.05 270.987 1136.84 270.987C1135.03 270.987 1133.52 272.492 1128.71 272.492C1125.85 272.492 1123.14 273.395 1120.88 274.448C1119.68 275.05 1118.33 275.201 1117.12 275.201C1115.47 275.201 1113.66 274.448 1112 274.599C1110.35 274.749 1109.9 275.652 1107.49 275.652Z" fill="white"/>
<path d="M1039.14 266.621C1038.08 266.621 1036.88 266.17 1035.37 265.267C1032.82 263.762 1029.5 263.762 1028 263.611C1024.69 263.31 1023.18 260.451 1021.53 258.946C1019.87 257.291 1017.01 256.087 1017.01 256.087C1015.51 254.733 1015.66 254.582 1014.91 253.98C1010.84 250.218 1008.74 245.704 1007.99 240.888C1007.08 235.019 1003.47 231.558 1005.28 221.776C1005.88 218.616 1004.07 217.262 1004.98 214.553C1006.48 209.888 1005.28 208.834 1005.43 205.825C1005.73 201.16 1007.38 194.388 1006.33 188.368C1005.58 184.456 1007.38 184.155 1006.78 180.543C1005.88 175.577 1007.83 172.868 1011.6 171.815C1012.5 171.514 1013.55 171.363 1014 171.363C1015.81 171.363 1017.17 172.116 1018.52 173.169C1021.68 175.577 1023.49 178.587 1023.49 182.198C1023.49 183.553 1023.49 187.014 1022.13 190.626C1021.38 192.732 1020.93 195.592 1020.93 198.752C1020.93 201.912 1021.53 202.664 1021.23 205.373C1020.78 209.135 1021.98 209.135 1021.83 211.242C1021.68 213.349 1020.48 213.65 1020.48 215.757C1020.48 218.766 1022.13 221.475 1022.13 223.432C1022.13 224.635 1021.08 226.893 1021.08 228.247C1021.08 230.956 1023.49 233.514 1023.94 238.179C1024.24 241.339 1025.59 245.403 1029.35 248.111C1032.51 250.369 1034.17 248.713 1038.68 250.369C1046.06 253.077 1046.21 248.713 1052.23 246.155C1057.65 243.898 1056.44 239.233 1058.55 236.674C1060.35 234.417 1059.3 233.364 1059.9 231.407C1060.96 227.946 1061.71 226.742 1062.16 225.087C1064.27 217.713 1061.86 217.864 1063.82 210.49C1064.72 207.179 1063.51 204.771 1063.51 202.213C1063.51 197.999 1064.57 195.291 1064.57 193.184C1064.57 190.325 1063.36 188.97 1063.51 186.562C1063.67 183.553 1064.12 179.791 1065.02 178.436C1066.68 175.878 1069.08 174.975 1071.19 174.975C1072.09 174.975 1073.45 175.577 1075.1 176.329C1078.71 177.834 1080.52 181.596 1081.42 183.553C1081.87 184.456 1082.02 185.659 1082.02 186.713C1082.02 188.368 1081.42 189.873 1081.12 191.528C1080.82 192.883 1081.12 194.538 1081.12 194.839C1081.12 196.043 1081.27 196.795 1081.27 197.548C1081.27 198.451 1081.12 199.504 1080.67 200.558C1078.11 205.674 1079.32 206.577 1079.01 209.286C1078.71 212.296 1078.56 214.252 1078.56 216.058L1078.71 220.873C1078.71 222.679 1078.71 224.334 1077.96 226.592C1076.61 230.354 1076.46 233.213 1076.16 234.568C1075.7 236.975 1075.4 238.029 1074.8 239.082L1073.45 241.49C1071.94 244.5 1070.44 245.704 1068.33 252.776C1067.58 255.034 1066.22 257.893 1060.96 260.15C1057.8 261.505 1058.25 263.16 1054.94 264.815C1052.98 265.869 1050.42 266.471 1048.62 266.471C1046.51 266.471 1045.31 265.718 1044.25 265.718C1042 265.718 1040.79 266.621 1039.14 266.621Z" fill="white"/>
<path d="M901.856 270.385C897.943 269.031 897.642 268.58 895.836 265.419C895.535 264.817 895.385 264.366 895.385 263.764C895.385 263.012 895.686 261.958 896.438 260.002C898.846 253.832 905.016 246.007 907.273 240.288C908.477 236.977 910.132 236.676 911.487 234.57C912.54 232.914 913.443 231.109 913.443 227.948C913.443 226.443 914.497 224.788 916.001 223.735C917.807 222.531 918.861 221.026 919.463 219.822C922.472 213.803 925.632 208.837 925.632 204.171C925.632 198.152 927.438 193.938 927.438 191.982C927.438 188.671 928.793 185.21 928.793 181.9C928.793 177.084 928.943 172.569 930.599 169.71C931.652 167.904 933.759 168.205 935.113 167.754C936.618 167.152 938.123 166.399 939.929 166.399C942.336 166.399 945.045 168.506 946.55 170.312C948.506 172.569 950.011 174.676 951.215 176.783C952.419 179.04 953.472 180.846 954.827 182.2C956.783 184.006 958.288 185.963 959.492 188.37C960.696 190.628 960.846 193.788 962.803 195.443C965.06 197.4 967.919 201.312 968.822 205.977C969.725 210.793 971.531 213.953 971.832 216.511C972.133 218.769 972.434 220.875 972.434 223.133C972.434 226.744 971.531 227.346 971.531 230.657C971.531 234.72 972.283 234.269 971.982 238.332L971.38 250.07V256.089C971.38 259.249 972.584 259.701 972.584 261.507C972.584 266.322 969.725 269.482 965.511 269.482C964.909 269.482 964.307 269.483 963.706 269.332C960.846 268.58 957.385 264.366 957.385 261.507L957.536 258.046C957.536 256.089 956.783 254.283 956.783 252.327C956.783 250.973 956.934 250.07 957.385 247.662C957.987 244.652 957.084 243.147 957.084 239.987C957.084 237.579 958.138 236.075 957.837 233.366C957.686 232.011 957.686 230.808 956.934 229.453C954.225 230.206 952.269 229.453 951.366 229.604C950.011 229.754 948.958 230.206 947.152 230.206C945.196 230.206 944.142 230.657 942.637 230.808C941.434 230.958 939.026 230.958 937.671 230.958C934.812 230.958 934.662 233.817 931.501 233.817C928.341 233.817 926.836 235.473 925.632 238.332C924.73 240.74 923.676 242.395 921.87 244.201C919.312 246.759 918.56 248.113 917.958 250.22C917.657 251.123 916.904 252.177 916.001 252.779C914.948 253.531 914.497 254.434 914.196 256.39C914.045 257.293 913.594 258.347 913.142 259.249C912.089 261.657 910.584 263.162 910.584 266.021C910.584 267.526 909.831 268.58 906.671 269.783C905.166 270.235 904.113 270.536 903.21 270.536C902.759 270.536 902.307 270.536 901.856 270.385ZM939.628 218.317C943.54 218.317 945.497 216.662 947.453 216.511C949.409 216.361 951.968 216.963 953.623 216.963C955.128 216.963 956.482 216.511 956.783 216.361C956.482 214.856 955.73 214.104 955.579 213.201V212.749C955.579 212.298 955.73 211.696 955.73 211.094C955.73 210.341 955.579 209.438 955.278 208.536C953.924 204.773 951.817 202.667 951.215 199.356C950.613 196.196 947.603 194.239 946.099 191.38C944.895 188.972 943.089 188.22 940.531 185.21C940.982 188.22 939.778 190.929 939.778 193.035L939.929 200.108C939.929 204.924 938.123 206.88 937.972 210.04C937.822 212.298 936.768 215.458 935.113 218.317H939.628Z" fill="white"/>
<path d="M839.397 271.736C838.494 271.736 837.14 271.586 836.237 271.285C832.023 269.78 828.562 268.877 825.101 265.266C823.295 263.309 820.135 263.46 817.877 260.751C816.373 258.795 815.018 257.591 814.416 253.979C813.965 250.969 811.106 249.916 810.504 246.003C810.052 243.144 809.45 240.134 809.45 237.125C809.45 235.319 810.052 233.814 810.052 231.707C810.052 229.45 809.45 226.741 809.45 223.882C809.45 217.411 809.601 211.241 811.106 205.071C812.159 200.857 815.47 198.299 817.125 193.183C818.63 188.367 823.596 185.959 826.455 183.1C828.863 180.692 828.562 177.081 832.926 175.275C836.538 173.77 839.096 170.911 843.159 170.309C845.416 170.008 847.674 170.008 850.081 170.008C852.339 170.008 854.747 170.158 857.154 170.61C862.572 171.513 865.582 173.319 868.742 175.275C871.752 177.081 874.159 177.382 876.266 178.435C880.931 180.542 883.64 183.853 885.596 186.411C887.854 189.27 887.703 191.076 889.208 192.581C891.014 194.387 891.465 195.741 891.465 197.396C891.465 198.299 889.96 204.469 886.8 204.469C883.941 204.469 881.232 202.513 879.727 199.654C878.523 197.396 877.47 195.741 876.266 194.086C873.256 190.323 868.892 191.527 865.883 189.12C859.713 184.154 856.853 186.712 852.038 186.26C849.781 186.11 847.373 187.013 845.567 188.367C843.611 189.872 842.557 190.474 839.848 191.226C837.29 191.828 837.742 193.634 834.28 200.557C833.678 201.911 831.873 203.566 830.669 205.523C829.314 207.78 829.164 210.037 827.81 212.445C826.606 214.702 826.004 217.411 825.853 219.969C825.703 222.828 826.455 223.882 825.552 228.697C825.101 230.955 825.552 232.911 826.154 235.168C826.756 237.727 826.756 239.833 826.907 243.295C827.057 246.154 828.863 248.712 830.669 250.518C832.174 252.023 833.077 253.829 835.484 254.431C838.494 255.183 840.601 254.13 843.31 254.13C845.266 254.13 848.426 254.882 851.737 254.882C856.402 254.882 858.057 252.775 862.271 252.775C864.378 252.775 866.785 253.678 869.193 255.183C871.902 256.838 872.052 260.45 872.052 263.008C872.052 265.266 871.752 267.974 870.096 269.178C868.29 270.382 866.334 270.834 864.227 270.834C862.572 270.834 860.917 270.382 859.562 270.382C855.649 270.382 855.95 271.887 851.436 271.887C848.577 271.887 846.319 270.984 844.213 270.984C842.407 270.984 841.052 271.736 839.397 271.736Z" fill="white"/>
<path d="M764.424 270.085C759.157 267.978 755.094 266.925 753.589 266.925C749.978 266.925 751.031 268.429 747.72 268.58C741.851 268.73 741.099 268.429 739.143 266.172C736.133 262.711 734.327 260.454 733.876 257.293C733.575 255.337 733.424 253.531 733.424 251.725C733.424 248.264 733.876 243.449 733.876 239.235C733.876 235.022 733.876 231.109 734.327 227.196C734.628 224.638 734.327 222.08 733.725 219.371C732.22 212.75 734.026 206.279 732.822 199.507C732.371 196.648 732.973 193.788 732.973 190.929C732.973 188.371 733.274 185.813 733.725 184.007C734.478 180.846 735.982 177.536 738.541 176.181C745.614 172.57 744.109 169.861 749.376 167.604C751.783 166.55 754.342 165.798 756.599 165.798C762.317 165.798 769.541 167.754 772.25 170.764C774.808 173.623 777.216 174.376 778.72 175.278C780.526 176.332 781.128 179.041 785.041 181.448C788.051 183.254 788.201 187.167 788.201 189.876C788.201 191.531 786.696 192.735 784.288 194.39C783.536 194.992 782.784 195.143 782.031 195.143C780.376 195.143 778.871 194.089 777.818 193.036C774.657 189.876 774.055 187.468 771.046 185.963C765.628 183.254 767.735 181.448 762.017 180.846C759.759 180.546 758.856 180.846 757.652 181.298C756.298 181.749 754.191 183.706 752.837 185.211C751.182 187.016 750.429 189.575 749.225 190.779C746.817 193.186 747.269 194.691 747.269 196.497C747.269 197.4 747.419 198.303 747.57 199.206C747.72 200.259 748.172 201.614 748.172 202.817C748.172 203.72 747.57 205.526 747.57 206.429C747.57 207.784 747.871 209.288 748.172 212.9C749.225 213.652 750.279 213.803 752.686 214.254C762.317 216.06 760.813 214.254 765.026 214.555C767.735 214.856 769.089 216.06 769.992 217.114C770.293 217.415 770.745 217.866 771.949 218.318C775.259 219.672 776.915 223.735 776.463 227.347C776.313 228.4 774.808 229.905 773.604 230.657C772.852 231.109 771.949 231.259 771.046 231.259C769.691 231.259 768.337 230.958 767.585 230.657C763.521 229.303 759.308 229.454 757.351 229.454C754.342 229.454 752.235 229.002 748.924 228.099C748.774 229.002 748.623 230.657 748.623 233.216C748.623 235.022 749.225 237.128 749.225 239.235C749.225 242.245 747.118 244.201 748.473 247.662C749.225 249.619 749.225 250.672 749.225 252.628C750.128 253.23 751.633 253.531 752.837 253.531C757.652 253.531 762.769 253.682 767.284 256.09C775.109 260.454 774.055 256.541 777.667 259.4C779.172 260.604 779.322 263.162 779.322 264.216C779.322 265.871 778.42 267.677 777.065 269.182C775.41 270.988 773.604 271.891 771.196 271.891C770.143 271.891 766.682 270.988 764.424 270.085Z" fill="white"/>
<path d="M671.299 269.781C667.537 269.781 667.386 268.427 658.959 267.674C653.391 267.223 651.134 265.417 648.576 263.31C645.415 260.601 644.211 259.548 644.211 256.99C644.211 255.184 644.813 252.776 644.813 251.572L644.663 248.412V244.349C644.663 239.533 646.017 234.417 646.017 229.15C646.017 224.786 645.265 223.281 645.716 220.422C647.071 213.499 644.964 208.985 644.964 205.223L645.114 200.256C645.114 198.601 645.415 197.096 645.415 195.892C645.415 192.582 644.663 189.421 644.061 185.96C643.76 184.004 643.459 182.198 643.459 180.693C643.459 177.383 646.168 174.222 648.876 172.868C650.08 172.266 655.498 168.654 657.454 167.751C660.614 166.247 664.377 165.494 667.687 165.494C670.847 165.494 674.008 166.548 677.017 168.654C679.275 170.31 680.027 172.116 683.639 174.222C685.294 175.125 686.348 176.48 687.25 178.285C689.207 182.048 693.27 186.261 692.217 190.174C691.615 192.281 692.969 194.237 692.969 196.344C692.969 197.849 692.818 199.504 692.217 201.159C691.013 204.47 685.595 211.091 684.09 212.295C685.595 213.8 689.508 212.897 692.969 216.359C693.571 216.96 694.624 217.713 695.377 218.465C696.43 219.519 697.333 220.422 698.236 221.776C698.537 222.227 699.59 223.582 700.343 224.334C702.45 226.441 703.503 229.601 703.503 231.407V233.363C703.503 234.266 704.105 235.019 704.556 236.223C705.158 238.029 704.556 240.587 704.556 243.296C704.556 243.897 704.707 244.499 704.707 244.951C704.707 249.165 702.751 249.616 701.095 253.679C699.289 258.043 697.032 258.344 695.828 259.548C693.721 261.655 693.571 263.762 691.464 264.815C689.357 265.868 688.454 264.966 682.134 267.674C678.823 269.029 675.964 269.781 671.299 269.781ZM668.891 255.936C670.095 255.936 675.061 255.033 677.318 254.432C680.178 253.679 681.833 253.228 682.886 250.519C683.639 248.412 685.595 247.961 686.197 245.101C686.649 242.995 687.551 242.092 688.304 240.286C688.906 238.931 689.207 237.577 689.207 236.072C689.207 232.31 688.454 230.956 686.348 229.15C684.241 227.344 683.488 226.592 682.134 225.689C680.78 224.786 678.823 223.582 677.017 223.582C676.115 223.582 675.061 224.033 674.008 224.786C671.75 226.291 670.246 226.742 668.139 226.742L660.313 226.291C660.163 226.893 660.012 227.495 660.012 228.999C660.012 230.354 660.313 231.708 660.313 234.266C660.313 236.524 659.561 238.781 659.26 241.038L658.357 246.305C658.207 247.81 658.056 249.165 658.056 250.669C658.056 252.475 658.508 253.077 664.377 255.033C665.881 255.485 667.386 255.936 668.891 255.936ZM658.959 209.737L663.022 209.135C664.828 208.834 666.784 208.383 668.741 208.232C671.148 207.931 672.653 206.727 673.556 204.621L675.814 198.601C676.867 196.344 677.469 194.087 677.469 191.829C677.469 190.324 677.168 188.669 676.716 187.164C676.115 184.756 675.061 183.101 673.105 182.048C670.998 180.844 668.891 180.994 667.085 181.145C665.881 181.295 663.624 180.392 660.765 181.897C658.207 183.252 657.755 183.853 657.906 185.358C658.207 188.97 659.561 191.528 659.561 194.839C659.561 195.892 659.561 196.946 659.26 198.3C659.11 199.053 659.11 200.708 659.26 201.46C659.411 202.213 659.561 203.116 659.561 204.019C659.561 204.771 659.411 205.373 659.26 205.975C658.809 207.63 658.959 208.082 658.959 209.737Z" fill="white"/>
<path d="M2019.2 104.436C2017.84 105.339 2016.34 105.94 2014.83 105.94C2013.03 105.94 2011.22 105.188 2009.72 103.834C2008.06 102.329 2007.16 101.275 2007.16 99.62C2007.16 99.1686 2007.31 98.5666 2008.51 93.7511C2009.72 89.387 2014.23 83.819 2015.89 76.2947C2018.6 64.4063 2023.41 62.149 2024.62 53.7217C2025.37 48.6052 2028.53 44.8431 2028.53 38.6731C2028.53 35.3624 2031.09 32.3527 2031.99 29.6439C2032.89 26.6342 2036.05 18.6584 2036.5 17.4546C2037.56 14.8963 2038.31 13.3914 2040.42 10.5322C2042.22 8.42538 2044.33 7.52246 2046.44 7.52246C2049.14 7.52246 2051.85 9.17781 2053.66 11.4351C2054.56 12.639 2055.31 14.5953 2055.77 17.4546C2056.67 22.7216 2057.87 28.5905 2059.23 32.2022C2060.43 35.2119 2059.23 37.0178 2061.03 40.178C2062.24 42.1343 2062.69 44.3916 2062.69 46.6489C2062.69 49.3576 2063.74 51.9159 2063.89 53.5713C2064.34 56.4305 2064.8 61.3965 2065.4 64.2558C2065.55 64.8577 2065.7 65.4597 2065.7 66.0616C2065.7 67.8674 2064.8 69.2218 2064.8 70.7267C2064.8 71.6296 2065.85 72.984 2066.15 74.0374C2066.45 75.2413 2066.6 76.5956 2066.6 77.7995C2066.6 79.6054 2065.85 81.4112 2065.85 83.3675C2065.85 84.5714 2066.15 85.7753 2066.45 86.9792C2066.75 88.6346 2067.5 91.6443 2067.5 93.1491C2067.5 95.2559 2066 97.2123 2064.8 98.4162C2063.74 99.3191 2062.54 99.7705 2061.33 99.7705C2059.98 99.7705 2058.78 99.3191 2057.42 98.5666C2052 95.1055 2051.55 89.688 2051.55 83.819L2051.7 76.7461C2051.7 75.2413 2051.55 73.5859 2051.1 72.683C2050.05 72.683 2048.39 72.683 2046.59 72.8335C2045.23 72.984 2044.03 73.1345 2042.82 73.1345C2039.97 73.1345 2036.96 72.5325 2034.85 71.3286L2033.04 70.5762C2032.59 71.1781 2031.69 72.0811 2031.09 73.1345C2029.73 75.5422 2028.68 77.7995 2028.08 80.9597C2027.78 82.4646 2027.17 83.0666 2026.87 83.3675C2025.97 84.4209 2025.52 85.1734 2025.52 86.0763C2025.52 86.5277 2025.52 86.9792 2025.82 87.5811C2026.12 88.1831 2026.27 88.6345 2026.27 89.086C2026.27 89.9889 2025.82 90.7414 2025.37 91.6443C2023.71 94.5035 2022.51 96.9113 2022.36 98.5666C2022.06 101.426 2021.46 102.931 2019.2 104.436ZM2050.05 58.6878C2049.9 57.4839 2048.84 54.4742 2049.14 51.013C2049.3 48.9062 2047.79 47.1003 2048.09 45.144C2048.69 41.9838 2046.89 38.6731 2045.98 37.3187C2045.53 36.5663 2044.93 35.9644 2044.33 33.8576C2043.43 35.9644 2042.52 36.8673 2042.52 38.8236C2042.52 41.9838 2040.72 46.9499 2039.51 49.6586C2037.56 54.1732 2036.35 56.7315 2036.35 58.2363C2038.16 59.4402 2040.57 60.0422 2042.97 60.0422C2046.44 60.0422 2049.6 59.2897 2050.05 58.6878Z" fill="white"/>
<path d="M1979.4 93.3009C1977 93.3009 1975.64 92.5485 1974.74 92.5485C1973.53 92.5485 1972.93 93 1969.92 93C1967.82 93 1965.71 92.5485 1962.1 92.5485L1956.98 92.699C1953.97 92.699 1951.56 91.3446 1949.01 91.3446C1947.05 91.3446 1945.54 91.7961 1944.04 91.7961C1939.68 91.7961 1935.16 92.0971 1932.3 90.5922C1928.09 88.3349 1922.97 90.5922 1921.02 86.3786C1920.41 85.0242 1920.11 83.9708 1920.11 82.6164C1920.11 80.6601 1920.71 78.2523 1923.12 75.694C1924.48 74.3397 1925.83 72.8348 1927.49 71.3299L1931.85 66.8154C1933.2 65.3105 1933.51 63.8056 1935.46 62.3008C1941.03 57.9367 1937.87 58.8396 1941.93 54.024C1945.54 49.8104 1946.9 51.0143 1949.46 46.1987C1950.96 43.3395 1952.77 41.8346 1953.82 40.4803C1955.18 38.8249 1955.03 37.0191 1958.64 34.7618C1962.25 32.655 1961.8 30.2472 1965.26 26.786C1968.27 23.7763 1968.57 23.9268 1970.07 21.82C1968.57 20.9171 1966.01 19.7132 1964.05 18.8102C1961.65 17.7568 1957.13 17.7568 1952.47 18.9607C1947.65 20.1646 1947.05 17.4559 1942.84 18.8102C1937.12 20.7666 1937.12 21.0675 1936.67 22.4219C1935.16 26.485 1931.25 28.5918 1928.84 28.5918C1924.78 28.5918 1922.22 24.8297 1922.22 21.0675C1922.22 13.5432 1929.14 11.4364 1933.05 7.97524C1935.01 6.31989 1936.82 7.37329 1942.38 4.96551C1944.04 4.21308 1945.09 3.91211 1946.3 3.91211C1948.25 3.91211 1948.4 4.66454 1950.06 4.66454C1950.36 4.66454 1951.11 4.66454 1951.71 4.51406C1953.22 4.21308 1954.57 4.06259 1956.23 4.06259C1961.35 4.06259 1966.31 5.71794 1971.43 7.67426C1972.33 7.97524 1973.38 8.57719 1974.14 9.17912C1974.74 9.63058 1974.44 9.4801 1974.74 9.63058C1977.15 11.2859 1979.25 13.3927 1982.71 13.8442C1985.87 14.2957 1987.38 17.1549 1987.38 20.9171C1987.38 23.4753 1987.08 26.1841 1984.22 27.9899C1982.11 29.3443 1981.06 30.5482 1980.01 32.354C1977 37.4705 1975.04 36.5676 1971.43 42.2861C1970.68 43.49 1968.42 44.3929 1967.82 45.2958C1966.31 47.4026 1967.06 48.0046 1965.41 49.6599L1963.45 51.7667C1961.5 53.723 1962.25 54.7765 1959.39 56.8833C1958.03 57.9367 1957.28 59.4415 1956.38 60.7959L1955.48 62.1503C1953.82 64.5581 1952.32 67.5678 1949.31 69.2231C1945.39 71.3299 1945.85 72.8348 1944.79 74.3397C1943.74 75.5436 1943.59 76.597 1942.08 77.4999C1943.59 77.4999 1944.04 77.6504 1944.94 77.6504C1945.54 77.6504 1946.45 77.4999 1948.55 77.9513C1952.47 78.8543 1953.97 77.4999 1959.99 78.2523C1961.65 78.4028 1963.6 78.4028 1965.11 78.2523C1966.16 78.1018 1967.82 78.1018 1968.27 78.1018C1969.77 78.1018 1972.48 79.0047 1974.29 79.0047C1975.49 79.0047 1976.39 78.4028 1977.3 78.4028C1978.65 78.4028 1980.46 79.1552 1981.81 79.9077C1984.67 81.4125 1986.78 83.5193 1986.78 86.0776C1986.78 89.5388 1983.92 93.3009 1979.4 93.3009Z" fill="white"/>
<path d="M1887.91 93.7509C1885.65 93.7509 1884.75 92.3965 1882.8 92.9985C1880.69 93.7509 1878.88 91.4936 1877.08 92.246C1875.27 92.848 1873.31 92.848 1871.51 92.848H1870C1868.65 92.848 1866.99 92.6975 1865.64 92.0956C1864.29 91.3431 1864.59 92.6975 1862.48 92.6975C1860.97 92.6975 1859.77 91.9451 1858.57 91.7946C1857.51 91.6441 1856.31 91.4936 1855.26 91.4936C1853.6 91.4936 1853.15 91.9451 1851.34 91.9451C1850.59 91.9451 1849.99 91.9451 1849.39 91.7946C1846.08 91.0421 1842.77 90.8917 1839.46 90.8917C1837.95 90.8917 1836.6 90.5907 1835.24 89.9887C1833.74 89.3868 1832.08 89.0858 1830.88 87.8819C1829.67 86.6781 1830.58 85.3237 1829.07 83.8188C1828.02 82.7654 1828.02 81.712 1828.02 80.8091C1828.02 79.9062 1828.32 78.8528 1828.77 77.9498C1830.12 75.3916 1832.08 73.1343 1834.49 71.6294C1838.85 69.0712 1839.76 66.3624 1842.01 63.3527C1843.67 61.3964 1846.08 59.8915 1847.73 58.2362C1848.94 57.0323 1849.54 55.8284 1850.29 54.474C1853.3 49.3575 1856.91 44.8429 1860.97 40.4788C1863.68 37.469 1863.98 34.9108 1870 32.202C1871.96 31.2991 1872.71 29.1923 1873.92 27.537C1874.22 27.0855 1874.52 26.634 1876.02 25.4302C1874.52 25.5806 1874.22 24.9787 1872.86 24.8282C1871.81 24.6777 1870.91 24.6777 1869.85 24.3767C1867.75 23.9253 1865.64 24.0758 1863.53 22.8719C1862.78 22.4204 1862.03 22.2699 1861.13 22.2699C1859.47 22.2699 1857.96 22.8719 1856.31 23.6243C1855.86 23.7748 1855.26 23.9253 1854.8 23.9253C1854.2 23.9253 1853.45 23.7748 1852.85 23.4738C1851.79 23.0224 1850.74 22.8719 1849.39 22.8719C1846.23 22.8719 1842.46 23.9253 1839.76 25.5806C1838.7 26.1826 1837.65 26.4836 1836.6 26.7845C1835.54 27.0855 1834.64 27.236 1833.89 27.236C1829.97 27.236 1827.42 24.2263 1826.06 20.9156C1825.76 20.1631 1825.61 19.1097 1825.61 18.2068C1825.61 16.8524 1826.06 15.3476 1827.27 14.4447C1829.97 12.6388 1833.74 12.3378 1836.75 11.4349C1837.65 11.134 1838.7 10.6825 1839.76 10.532C1841.26 10.3815 1842.92 10.6825 1844.27 10.3815C1845.93 9.93006 1847.88 9.32812 1849.69 9.32812C1852.7 9.32812 1855.26 9.77958 1858.42 9.77958C1860.22 9.77958 1862.03 9.47861 1863.83 9.47861C1864.74 9.47861 1865.79 9.47861 1866.84 9.77958C1870.91 11.2844 1875.42 11.5854 1879.79 12.1874C1880.84 12.3378 1882.04 11.7359 1883.4 11.7359C1883.85 11.7359 1884.3 11.7359 1885.05 12.0369C1885.96 12.4883 1886.11 13.2408 1887.91 13.2408C1890.92 13.2408 1894.38 15.0466 1895.74 18.5078C1896.34 19.8622 1897.54 20.6146 1897.54 22.1195C1897.54 23.0224 1896.64 23.9253 1896.64 24.8282C1896.64 26.4836 1895.59 27.537 1893.78 28.2894C1892.43 28.8913 1891.67 29.6438 1891.07 31.1486C1890.17 33.5564 1888.51 35.9642 1886.11 37.0176C1877.98 40.4788 1877.23 46.7992 1871.36 50.2604C1867.75 52.3672 1865.79 57.1828 1864.44 58.5371C1863.53 59.44 1862.48 59.5905 1862.03 60.042C1860.22 61.8478 1859.77 63.8041 1858.72 65.1585L1852.7 73.7362C1851.95 74.7896 1850.89 75.5421 1848.79 77.3479C1850.89 77.4984 1851.49 77.7994 1852.4 77.7994C1853.45 77.7994 1855.11 77.3479 1856.01 77.1974C1856.61 77.0469 1857.21 77.0469 1857.81 77.0469C1859.02 77.0469 1860.07 77.0469 1861.43 77.4984C1863.68 78.1003 1866.24 79.7557 1868.8 78.7023C1871.66 77.4984 1875.57 78.7023 1878.88 78.7023C1880.69 78.7023 1882.04 77.3479 1884 77.4984C1890.02 77.9499 1893.93 85.1732 1893.93 87.581C1893.93 91.0421 1891.37 93.7509 1887.91 93.7509Z" fill="white"/>
<path d="M1730.58 107.899C1727.87 106.695 1724.26 103.836 1724.26 100.224C1724.26 99.02 1725.31 95.1073 1729.68 94.2044C1730.58 93.3015 1731.94 91.7966 1732.99 88.9374C1738.26 74.7917 1740.36 74.7917 1741.12 66.3644C1742.02 55.8304 1748.19 46.9517 1749.84 37.772C1750.45 34.7623 1753 31.6021 1753.3 27.3885C1753.61 22.7234 1755.86 18.0583 1757.07 13.3933C1757.22 12.6408 1757.52 11.8884 1757.67 11.2865C1758.57 7.6748 1759.93 3.00972 1761.58 1.50486C1762.94 0.150484 1766.55 0 1769.71 0C1771.66 0 1772.87 0.601946 1773.77 1.80584L1776.78 5.56799C1779.19 8.27674 1781.14 10.9855 1782.65 14.1457C1783.55 16.102 1784.61 17.1554 1785.36 17.7574C1785.96 18.2088 1786.56 18.9613 1786.71 20.1652C1786.86 21.369 1787.92 23.4759 1789.27 25.5827C1790.78 27.9904 1791.98 30.3982 1792.43 32.9565C1793.18 37.1701 1795.44 38.5245 1796.04 42.8886C1797.55 52.9712 1799.5 54.3255 1799.5 56.2819C1799.5 57.7867 1798.75 60.044 1798.75 61.2479C1798.75 62.7528 1799.35 63.2042 1799.35 64.7091C1799.35 65.7625 1798.45 68.3208 1798.45 69.6751C1798.45 71.18 1798.9 71.6315 1798.9 72.6849C1798.9 73.7383 1798.3 74.7917 1798.3 75.8451C1798.3 77.6509 1799.2 77.8014 1799.2 79.6072L1799.05 83.0684C1799.05 86.0781 1800.11 85.9276 1800.11 89.0879C1800.11 91.7966 1798.9 95.7092 1798.9 97.9665C1798.9 99.3209 1798.15 100.224 1797.25 100.675C1796.04 101.428 1794.69 101.729 1793.33 101.729C1790.63 101.729 1787.92 100.374 1787.01 98.117C1785.81 95.2578 1784.91 92.549 1784.91 89.2383C1784.91 85.7772 1785.36 82.316 1785.36 79.6072C1785.36 76.2965 1784.46 76.2965 1784.46 71.9324L1784.61 67.2674C1784.61 64.5586 1784.46 64.7091 1784.3 63.6557C1779.79 63.6557 1778.13 64.8596 1774.82 64.5586C1772.27 64.2576 1770.16 65.4615 1767.6 65.4615C1764.14 65.4615 1762.03 63.0537 1756.16 63.0537C1755.41 64.5586 1754.96 63.9567 1754.81 66.8159C1754.66 68.9227 1754.21 70.7285 1753.46 72.6849C1752.7 74.9422 1752.85 78.8548 1751.65 81.2626C1749.24 86.0781 1748.79 90.7432 1745.03 95.8597C1744.12 97.2141 1741.42 101.879 1741.12 103.384C1740.81 105.491 1739.46 106.394 1738.11 107.146C1736.3 108.2 1734.95 108.651 1733.59 108.651C1732.69 108.651 1731.63 108.35 1730.58 107.899ZM1779.34 51.4663C1781.75 51.4663 1783.7 50.7139 1784.15 50.5634C1783.7 46.9517 1782.95 44.9954 1782.5 43.942C1780.09 39.2769 1780.39 33.7089 1777.08 29.4953C1775.28 27.238 1775.73 26.1846 1773.92 23.1749C1773.17 21.971 1772.42 21.0681 1771.06 19.5632C1770.61 21.0681 1769.41 22.4224 1768.96 24.8302C1768.5 27.238 1766.1 29.9468 1765.34 34.3109C1764.74 37.1701 1762.48 38.073 1762.03 42.1362C1761.43 47.5537 1759.32 47.4032 1758.27 50.7139C1759.93 51.4663 1760.38 52.2187 1762.63 52.2187C1765.34 52.2187 1769.86 51.4663 1772.27 51.3158C1774.67 51.1653 1776.93 51.4663 1779.34 51.4663Z" fill="white"/>
<path d="M1693.83 101.274C1691.72 101.274 1689.17 98.2644 1688.26 97.3615C1686.46 95.5556 1685.1 93.1479 1685.1 90.7401C1685.1 89.0847 1685.55 88.0313 1686.61 84.5702C1686.76 83.6672 1686.91 82.6138 1686.91 81.4099C1686.91 78.7012 1686.61 75.24 1687.66 71.1769C1688.71 67.1138 1688.87 64.706 1688.87 62.7496L1688.71 57.1816C1688.71 53.4195 1689.62 51.6137 1689.62 48.6039C1689.62 47.8515 1689.62 47.0991 1689.47 46.1962C1689.17 43.036 1690.67 38.0699 1690.67 35.5116C1690.67 30.2446 1688.71 29.1912 1688.56 25.1281C1688.41 22.4193 1686.61 20.463 1685.86 19.4096C1684.95 18.0552 1684.35 16.3999 1684.35 14.7445C1684.35 13.0892 1684.95 11.5843 1685.86 10.2299C1686.91 8.72509 1688.56 7.97266 1690.37 7.97266C1694.43 7.97266 1698.95 9.628 1699.85 13.8416C1700.45 16.3999 1703.01 16.3999 1703.46 21.065C1703.61 22.2688 1703.46 23.1718 1704.21 24.8271C1706.17 29.4922 1704.67 34.9097 1706.17 40.0262C1706.62 41.2301 1706.62 42.434 1706.62 43.6379C1706.62 45.4437 1706.47 46.9486 1706.17 47.701C1705.57 49.9583 1704.97 52.3661 1704.97 54.7739C1704.97 55.9778 1705.57 57.1817 1705.57 59.5894C1705.57 61.5458 1705.12 64.5555 1704.37 67.5652C1703.91 69.672 1703.31 71.7788 1703.61 75.541L1703.76 78.4002C1703.76 81.8614 1703.16 85.774 1701.81 88.9342C1700.9 91.0411 1700.9 92.2449 1700.9 93.1479C1700.9 96.1576 1700.6 98.1139 1698.35 99.1673C1696.39 100.07 1696.09 101.274 1693.83 101.274Z" fill="white"/>
<path d="M1612.39 100.674C1612.24 100.523 1611.34 99.6201 1609.98 98.8677C1608.33 97.9648 1607.57 96.0084 1607.57 93.1492C1607.57 91.3434 1608.33 84.421 1608.33 82.6152C1608.33 80.5083 1607.72 78.2511 1607.42 75.9938C1607.27 74.7899 1607.27 73.586 1607.27 72.3821C1607.27 66.9646 1607.12 61.6976 1605.77 56.2801C1604.86 52.5179 1606.37 49.0567 1605.62 45.5955C1604.26 39.5761 1604.11 33.7071 1604.56 27.8382C1604.86 23.9255 1605.02 19.8624 1605.32 17.3041C1605.92 13.3915 1607.72 11.4352 1609.68 10.0808C1612.69 7.82349 1616 5.86717 1620.21 5.86717C1625.63 5.86717 1628.04 4.3623 1630.45 4.3623C1632.55 4.3623 1635.56 5.86717 1638.87 6.46911C1643.24 7.22155 1648.05 8.12447 1652.72 13.542C1654.98 16.1002 1656.78 18.809 1656.78 20.9158C1656.78 22.8721 1657.53 24.076 1658.29 24.9789C1659.19 26.1828 1659.64 27.6877 1659.64 29.4935C1659.64 31.1489 1659.19 32.3528 1657.99 34.4596C1657.08 36.1149 1656.03 38.8237 1655.43 41.9839C1655.13 43.6392 1654.53 45.4451 1653.32 46.6489C1650.46 49.5082 1649.56 53.1198 1647.15 54.4742C1645.65 55.2267 1645.04 55.8286 1644.14 57.0325C1642.34 59.4403 1639.33 61.0956 1636.47 61.0956C1634.66 61.0956 1632.86 60.9451 1631.2 60.7947L1623.98 60.3432H1623.37C1622.47 60.3432 1621.57 60.1927 1620.82 60.3432C1620.67 60.9451 1620.82 61.6976 1620.82 62.6005C1620.82 65.3092 1621.42 68.6199 1621.57 71.7801C1621.72 74.1879 1622.02 76.7462 1622.02 78.2511C1622.02 80.6588 1621.72 81.7122 1621.12 82.7656C1620.67 83.8191 1620.36 84.5715 1620.36 85.6249C1620.36 86.6783 1620.67 87.8822 1620.97 89.688C1621.12 90.5909 1621.27 91.4938 1621.27 92.5472C1621.27 94.8045 1620.67 97.2123 1619.16 99.4696C1618.11 101.125 1616.75 102.028 1615.25 102.028C1614.35 102.028 1612.99 101.275 1612.39 100.674ZM1622.92 46.7994H1630C1632.1 46.7994 1633.76 46.1975 1635.41 44.2412C1641.28 37.1683 1640.68 35.0615 1642.64 32.3528C1643.99 30.3964 1644.14 29.7945 1644.14 28.1391C1644.14 25.7314 1642.79 21.2168 1638.57 20.3138C1636.32 19.8624 1634.21 19.5614 1632.1 19.5614C1629.69 19.5614 1627.29 20.0129 1624.43 20.7653C1622.02 21.3673 1620.06 21.2168 1619.01 22.4207L1618.71 31.9013C1618.71 34.3091 1619.91 36.5664 1619.91 38.2217C1619.91 40.0276 1619.16 41.6829 1619.61 44.2412C1619.76 44.9936 1619.76 46.047 1619.91 46.6489C1620.82 46.9499 1621.87 46.7994 1622.92 46.7994Z" fill="white"/>
<path d="M1467.55 108.195C1466.05 107.593 1464.54 107.292 1462.89 106.991C1461.08 106.54 1459.28 106.239 1457.47 105.486C1457.17 105.336 1456.57 105.185 1456.12 105.185C1455.52 105.185 1455.06 105.336 1454.61 105.486C1453.86 105.787 1452.96 105.938 1452.2 105.938C1450.55 105.938 1449.04 105.336 1447.54 104.282C1445.73 102.778 1444.38 100.821 1443.63 98.865C1443.33 98.263 1443.18 97.5106 1443.18 96.7581C1443.18 93.8989 1445.28 90.8892 1448.14 89.9863C1448.74 89.8358 1449.5 89.6853 1450.1 89.6853C1450.7 89.6853 1451.3 89.8358 1451.75 89.9863C1452.81 90.4377 1453.86 90.5882 1454.91 90.5882C1456.27 90.5882 1457.62 91.0397 1458.98 91.6416C1460.93 92.695 1463.19 93.297 1465.75 93.297C1467.25 93.297 1469.36 93.297 1472.22 91.9426C1475.83 90.2872 1477.79 91.3406 1482.6 88.7824C1483.81 88.1804 1484.26 86.6756 1484.86 85.7726C1485.46 84.8697 1486.37 84.4183 1487.27 83.8163C1489.53 82.3115 1491.18 79.6027 1490.13 76.292C1489.22 73.5833 1491.78 69.9716 1487.42 67.7143C1484.26 66.059 1482.15 64.1026 1480.2 64.5541C1478.39 64.8551 1476.88 65.0056 1475.98 65.0056C1471.77 65.0056 1467.86 62.2968 1465.45 59.2871C1464.24 57.9327 1463.19 57.1803 1462.44 57.0298C1460.18 56.5783 1458.37 55.3744 1457.32 53.5686C1455.67 50.5589 1453.11 51.1608 1452.96 48.0006C1452.36 38.52 1450.25 41.2287 1450.25 33.253C1450.25 29.7918 1451.45 26.3306 1452.96 23.1704C1454.01 20.9131 1455.52 19.8597 1456.57 18.2043C1457.47 17.0004 1457.32 15.4956 1458.22 14.1412C1459.88 11.5829 1462.29 10.0781 1464.7 9.32564C1472.37 6.91786 1472.67 4.81105 1478.69 3.75765C1480.95 3.30619 1482.3 1.80133 1484.11 1.65084C1487.42 1.34987 1487.87 2.55376 1491.48 2.55376C1494.79 2.55376 1496.3 3.00521 1497.65 3.60716L1500.06 4.51008C1502.32 5.413 1504.57 6.61689 1506.68 7.82077C1511.5 10.5295 1510.29 12.6363 1514.36 17.4519C1515.56 18.8063 1515.41 20.4616 1515.26 21.3645C1514.81 24.6752 1514.36 25.7286 1511.5 26.9325C1510.29 27.384 1509.24 27.685 1508.34 27.5345C1503.82 26.4811 1502.17 23.0199 1500.51 19.5587C1499.16 16.8499 1496.6 15.3451 1493.74 15.3451C1489.53 15.3451 1489.98 17.3014 1486.06 17.0004C1482.6 16.6995 1480.8 19.7092 1478.24 20.1606C1474.48 20.7626 1468.76 24.8257 1469.06 29.3403C1469.36 33.5539 1466.95 33.253 1466.95 37.3161C1466.95 44.2384 1469.21 43.0346 1470.71 45.7433C1472.97 49.8064 1479.74 48.753 1483.21 49.8064C1485.46 50.5589 1486.97 52.8162 1491.93 53.4181C1496.45 54.0201 1498.86 57.7822 1501.41 60.6414C1504.12 63.6512 1505.33 66.3599 1505.03 69.3696C1504.72 72.5299 1505.63 78.3988 1505.63 80.0542C1505.63 85.7727 1502.17 88.1804 1500.06 93.7484C1498.1 99.0154 1496.15 100.219 1494.94 100.52C1492.69 101.273 1491.18 100.219 1488.32 102.928C1487.42 103.831 1485.46 104.132 1483.51 104.433C1480.35 105.035 1476.88 106.239 1473.27 108.045C1472.37 108.496 1471.32 108.797 1470.41 108.797C1469.51 108.797 1468.61 108.496 1467.55 108.195Z" fill="white"/>
<path d="M1404.47 101.274C1402.36 101.274 1399.8 98.2644 1398.9 97.3615C1397.09 95.5556 1395.74 93.1479 1395.74 90.7401C1395.74 89.0847 1396.19 88.0313 1397.24 84.5702C1397.39 83.6672 1397.54 82.6138 1397.54 81.4099C1397.54 78.7012 1397.24 75.24 1398.3 71.1769C1399.35 67.1138 1399.5 64.706 1399.5 62.7496L1399.35 57.1816C1399.35 53.4195 1400.25 51.6137 1400.25 48.6039C1400.25 47.8515 1400.25 47.0991 1400.1 46.1962C1399.8 43.036 1401.31 38.0699 1401.31 35.5116C1401.31 30.2446 1399.35 29.1912 1399.2 25.1281C1399.05 22.4193 1397.24 20.463 1396.49 19.4096C1395.59 18.0552 1394.99 16.3999 1394.99 14.7445C1394.99 13.0892 1395.59 11.5843 1396.49 10.2299C1397.54 8.72509 1399.2 7.97266 1401.01 7.97266C1405.07 7.97266 1409.58 9.628 1410.49 13.8416C1411.09 16.3999 1413.65 16.3999 1414.1 21.065C1414.25 22.2688 1414.1 23.1718 1414.85 24.8271C1416.81 29.4922 1415.3 34.9097 1416.81 40.0262C1417.26 41.2301 1417.26 42.434 1417.26 43.6379C1417.26 45.4437 1417.11 46.9486 1416.81 47.701C1416.2 49.9583 1415.6 52.3661 1415.6 54.7739C1415.6 55.9778 1416.2 57.1817 1416.2 59.5894C1416.2 61.5458 1415.75 64.5555 1415 67.5652C1414.55 69.672 1413.95 71.7788 1414.25 75.541L1414.4 78.4002C1414.4 81.8614 1413.8 85.774 1412.44 88.9342C1411.54 91.0411 1411.54 92.2449 1411.54 93.1479C1411.54 96.1576 1411.24 98.1139 1408.98 99.1673C1407.03 100.07 1406.72 101.274 1404.47 101.274Z" fill="white"/>
<path d="M1303.09 104.588C1298.12 104.588 1298.27 101.277 1294.96 99.7722C1293.3 99.0198 1293.15 96.913 1293.15 94.8062C1293.15 93.7528 1293.45 92.3984 1293.91 91.044C1295.26 87.4323 1293.91 84.7236 1294.96 80.51C1296.61 74.34 1294.36 73.2866 1295.86 64.107C1296.31 61.0972 1295.71 58.6895 1295.41 55.0778C1295.26 51.9176 1295.41 50.4127 1296.16 45.4467C1296.92 41.0826 1298.27 36.568 1297.82 31.9029C1297.22 24.5291 1298.27 22.8737 1298.27 18.0582C1298.27 16.4028 1297.82 14.898 1297.82 13.995C1297.82 12.3397 1298.27 11.4368 1300.83 9.78143C1302.03 9.029 1302.93 8.87852 1303.84 8.87852C1306.4 8.87852 1311.06 12.3397 1312.57 13.8446C1313.77 15.1989 1314.52 16.8543 1314.52 19.1116C1314.52 23.3252 1312.42 24.0776 1312.72 27.0873C1312.87 28.4417 1312.27 30.0971 1312.72 31.6019C1313.77 35.6651 1312.72 37.6214 1312.72 39.5777C1312.72 40.4806 1312.72 41.0826 1312.87 41.6845C1313.47 41.835 1314.07 41.9855 1315.43 41.9855L1317.23 41.835C1319.19 41.6845 1321.75 43.0389 1326.41 42.5874C1329.87 42.2865 1331.23 44.2428 1335.59 43.7913C1338.6 43.4904 1340.26 44.2428 1342.21 44.3933C1342.66 43.7913 1342.81 43.3399 1343.42 40.7816C1344.02 38.2233 1344.32 36.568 1344.02 32.8058C1343.72 28.2912 1345.52 23.3252 1346.12 17.6067C1346.43 14.4465 1344.77 11.5873 1346.58 6.47073C1347.63 3.31052 1349.59 1.80566 1352.29 1.80566C1355 1.80566 1356.96 2.85906 1358.92 4.81539C1361.02 6.92219 1361.93 9.32998 1361.93 11.7378C1361.93 14.4465 1360.72 17.0048 1360.72 18.5096C1360.72 19.7135 1361.02 21.0679 1361.02 23.0242C1361.02 25.432 1359.82 27.3883 1359.82 30.5485C1359.82 32.5049 1360.12 34.1602 1360.12 35.8156C1360.12 39.1263 1358.16 42.2865 1358.16 46.9515C1358.16 49.2088 1358.92 52.0681 1358.61 54.0244C1358.16 57.0341 1359.22 60.7963 1359.22 62.1506C1359.22 66.8157 1358.01 66.6652 1359.07 70.1264C1359.97 73.1361 1358.61 76.5973 1357.71 79.7575C1357.26 81.2624 1357.11 83.3692 1357.11 86.6799C1357.11 93.3013 1354.85 97.2139 1350.94 97.2139C1348.08 97.2139 1348.08 94.6557 1344.77 93.3013C1342.06 92.2479 1342.06 88.9372 1342.06 84.8741C1342.06 81.2624 1343.27 78.1022 1342.66 74.0391C1342.06 70.1264 1343.27 64.8594 1343.27 60.9468C1343.27 59.7429 1342.96 58.8399 1342.81 57.937C1341.91 57.7865 1341.16 57.6361 1339.95 57.6361C1337.55 57.6361 1335.44 57.3351 1333.48 56.8836C1331.38 56.4322 1327.61 55.8302 1325.96 56.1312C1322.8 56.5827 1319.34 56.7331 1315.73 55.9807C1314.07 55.6797 1312.87 55.6797 1312.11 55.8302C1311.81 56.5827 1311.66 57.4856 1311.66 58.539C1311.21 63.6555 1312.11 65.9128 1312.11 68.6216C1312.11 72.6847 1310.01 76.2963 1310.76 80.51C1311.51 84.5731 1309.56 85.476 1310.16 89.3887C1310.91 93.9032 1308.65 95.4081 1308.65 98.4178C1308.65 101.127 1307.15 104.588 1303.09 104.588Z" fill="white"/>
<path d="M1223.11 106.239C1220.71 106.691 1219.5 105.186 1218.45 105.036C1216.64 104.735 1215.44 104.735 1214.39 103.23C1212.88 100.972 1211.68 99.1666 1212.13 96.3074C1212.73 92.0938 1214.99 88.1811 1214.84 84.419C1214.54 78.3995 1217.85 73.1325 1218.45 69.0694C1218.75 66.5111 1219.95 65.1567 1220.4 62.2975C1221.01 57.7829 1219.35 51.613 1221.61 46.6469C1222.36 44.9916 1223.11 41.8314 1223.11 39.4236C1223.11 37.3168 1223.26 35.8119 1224.32 32.2002C1225.07 29.9429 1223.72 28.1371 1224.47 26.4817C1225.22 24.8264 1225.97 22.5691 1227.33 21.2147C1225.67 20.7633 1224.92 20.7633 1224.47 20.7633C1222.96 20.7633 1222.36 21.8167 1220.71 21.9672C1216.79 22.2681 1213.48 22.2681 1210.47 23.472C1200.84 27.2342 1207.91 26.9332 1198.43 31.1468C1195.42 32.5012 1194.97 33.4041 1193.62 36.2634C1192.56 38.0692 1191.36 38.9721 1189.71 38.9721C1187.9 38.9721 1186.4 38.9721 1185.19 37.4672C1184.59 36.7148 1183.84 34.4575 1183.08 33.5546C1181.88 32.2002 1180.98 32.0497 1180.98 30.5449C1180.98 28.8895 1181.58 27.2342 1182.63 26.1808L1187 20.4623L1189.4 17.7536C1190.61 16.7001 1191.81 15.7972 1193.62 14.8943C1196.03 13.6904 1196.48 14.5933 1198.43 13.0885C1199.79 12.0351 1201.74 10.5302 1204.6 9.47681C1207.61 8.4234 1210.32 7.37 1213.78 7.37C1216.34 7.37 1218 7.82145 1220.4 6.76806C1221.76 6.16611 1223.57 6.01562 1225.07 6.01562C1226.42 6.01562 1227.78 6.46708 1229.28 6.61757C1230.94 6.76806 1232.59 7.82145 1234.1 7.97195C1238.01 8.4234 1241.77 8.4234 1245.39 9.02535C1253.36 10.2292 1251.86 12.4865 1259.83 15.3458C1261.94 16.0982 1261.04 17.6031 1263.14 18.205C1265.7 18.807 1267.66 20.7633 1269.46 23.0206C1270.22 23.6225 1270.82 24.2245 1271.42 24.9769C1272.62 26.0303 1273.23 27.8361 1273.23 29.341C1273.23 30.9963 1272.62 32.5012 1271.42 33.7051C1270.37 34.608 1269.01 34.909 1267.81 34.909C1265.85 34.909 1265.4 33.4041 1263.59 32.6517C1262.54 32.2002 1260.13 32.5012 1259.23 32.0497C1256.82 30.9963 1256.52 29.7924 1255.32 28.5886C1253.96 27.3847 1251.86 26.9332 1250.8 26.7827C1247.19 26.3313 1244.33 24.2245 1241.77 23.773C1241.77 24.2245 1242.53 25.2779 1241.32 27.0837C1239.07 30.9963 1238.46 35.0595 1238.46 38.3702C1238.46 41.3799 1238.01 44.8411 1236.81 48.9042C1235.15 53.7198 1234.7 57.181 1234.7 60.7926C1234.7 61.846 1234.7 63.0499 1234.85 64.1033C1235.15 66.5111 1234.7 69.2198 1234.25 71.7781C1232.59 79.3024 1229.43 84.7199 1229.43 92.5452C1229.43 97.5113 1228.53 105.337 1223.11 106.239Z" fill="white"/>
<path d="M1076.57 105.49C1071.3 103.383 1067.24 102.33 1065.73 102.33C1062.12 102.33 1063.17 103.835 1059.86 103.985C1053.99 104.136 1053.24 103.835 1051.29 101.577C1048.28 98.1163 1046.47 95.859 1046.02 92.6988C1045.72 90.7424 1045.57 88.9366 1045.57 87.1308C1045.57 83.6696 1046.02 78.854 1046.02 74.6404C1046.02 70.4268 1046.02 66.5141 1046.47 62.6015C1046.77 60.0432 1046.47 57.485 1045.87 54.7762C1044.36 48.1548 1046.17 41.6839 1044.96 34.912C1044.51 32.0528 1045.12 29.1936 1045.12 26.3343C1045.12 23.7761 1045.42 21.2178 1045.87 19.412C1046.62 16.2518 1048.12 12.9411 1050.68 11.5867C1057.76 7.97501 1056.25 5.26625 1061.52 3.00895C1063.93 1.95556 1066.48 1.20312 1068.74 1.20312C1074.46 1.20312 1081.68 3.15945 1084.39 6.16917C1086.95 9.02841 1089.36 9.78084 1090.86 10.6838C1092.67 11.7372 1093.27 14.4459 1097.18 16.8537C1100.19 18.6595 1100.34 22.5722 1100.34 25.2809C1100.34 26.9363 1098.84 28.1402 1096.43 29.7955C1095.68 30.3975 1094.93 30.5479 1094.17 30.5479C1092.52 30.5479 1091.01 29.4945 1089.96 28.4411C1086.8 25.2809 1086.2 22.8731 1083.19 21.3683C1077.77 18.6595 1079.88 16.8537 1074.16 16.2518C1071.9 15.9508 1071 16.2518 1069.79 16.7032C1068.44 17.1547 1066.33 19.111 1064.98 20.6159C1063.32 22.4217 1062.57 24.9799 1061.37 26.1838C1058.96 28.5916 1059.41 30.0965 1059.41 31.9023C1059.41 32.8052 1059.56 33.7082 1059.71 34.6111C1059.86 35.6645 1060.31 37.0189 1060.31 38.2227C1060.31 39.1257 1059.71 40.9315 1059.71 41.8344C1059.71 43.1888 1060.01 44.6936 1060.31 48.3053C1061.37 49.0578 1062.42 49.2082 1064.83 49.6597C1074.46 51.4655 1072.96 49.6597 1077.17 49.9607C1079.88 50.2616 1081.23 51.4655 1082.13 52.5189C1082.44 52.8199 1082.89 53.2714 1084.09 53.7228C1087.4 55.0772 1089.06 59.1403 1088.61 62.752C1088.46 63.8054 1086.95 65.3103 1085.75 66.0627C1084.99 66.5141 1084.09 66.6646 1083.19 66.6646C1081.83 66.6646 1080.48 66.3637 1079.73 66.0627C1075.66 64.7083 1071.45 64.8588 1069.49 64.8588C1066.48 64.8588 1064.38 64.4074 1061.07 63.5044C1060.92 64.4074 1060.77 66.0627 1060.77 68.621C1060.77 70.4268 1061.37 72.5336 1061.37 74.6404C1061.37 77.6501 1059.26 79.6065 1060.62 83.0676C1061.37 85.024 1061.37 86.0774 1061.37 88.0337C1062.27 88.6356 1063.78 88.9366 1064.98 88.9366C1069.79 88.9366 1074.91 89.0871 1079.43 91.4949C1087.25 95.859 1086.2 91.9463 1089.81 94.8056C1091.31 96.0095 1091.47 98.5677 1091.47 99.6211C1091.47 101.276 1090.56 103.082 1089.21 104.587C1087.55 106.393 1085.75 107.296 1083.34 107.296C1082.29 107.296 1078.82 106.393 1076.57 105.49Z" fill="white"/>
<path d="M967.482 106.089C960.71 105.186 960.56 99.769 959.506 97.0602C957.851 93.1476 958.904 89.2349 957.249 86.0747C954.992 81.5601 954.39 72.3805 952.433 68.4678C951.53 66.662 951.681 65.1571 951.681 63.2008C951.681 58.8367 950.477 54.1716 948.822 49.0551C948.069 46.4968 946.715 44.089 946.414 41.5308C944.759 26.9336 941.598 29.9433 941.598 22.8705C941.598 19.5598 939.341 15.9481 938.589 12.3364C938.137 9.77818 937.535 4.0597 941.147 2.85581C942.351 2.40436 943.705 2.10338 944.759 2.40436C947.467 3.15679 948.37 5.41408 952.283 6.76845C954.239 7.3704 955.142 9.32672 955.293 11.283C955.443 14.8947 956.496 18.0549 957.55 21.0647C957.851 21.8171 958.302 22.72 958.603 25.1278C959.356 33.555 962.666 31.4482 963.268 44.089C963.268 45.5939 963.72 47.0988 964.171 48.4531L964.623 50.4095L965.526 53.4192C966.579 56.7299 966.429 65.6086 968.385 68.7688C973.652 77.196 971.997 80.9582 973.953 82.463C975.157 80.9582 975.608 79.9048 976.662 76.4436C978.317 70.7251 983.584 67.7154 984.487 62.5988C985.54 57.0309 988.249 57.6328 989.001 53.1182C989.152 51.9143 989.603 50.8609 990.055 49.8075L990.657 48.3027C991.108 47.3997 991.409 46.4968 991.861 45.7444C993.366 43.3366 994.269 41.2298 994.269 39.123C994.269 37.1667 994.72 36.4142 995.322 35.6618C998.181 32.5016 999.084 27.5356 1000.59 22.5695C1001.64 18.9578 1001.49 14.5937 1004.35 11.885C1006.61 9.77818 1008.26 7.21992 1010.97 7.21992C1013.83 7.21992 1016.69 9.92866 1018.65 11.283C1020.3 12.3364 1021.06 14.1423 1020.75 16.2491C1020.3 18.9578 1019.85 21.5161 1017.89 23.3219C1015.94 25.1278 1015.19 27.686 1014.89 29.9433C1013.83 36.1133 1011.72 41.9822 1008.26 47.2493C1007.06 49.0551 1007.06 51.0114 1006.46 53.7202C1005.71 56.8804 1004.5 59.2882 1002.39 61.2445C999.686 63.8027 997.73 66.2105 997.429 69.5212C997.128 72.9824 996.074 75.6912 993.968 78.3999L991.71 81.8611C990.205 84.1184 988.851 85.6232 987.647 86.8271C986.594 87.8805 986.293 88.633 985.992 89.3854C984.487 93.9 983.584 95.5553 981.026 96.9097C979.37 97.9631 978.467 99.3175 978.016 100.973C976.812 105.186 974.555 106.992 967.482 106.089Z" fill="white"/>
<path d="M878.901 103.082C874.387 103.082 870.775 100.975 865.809 100.975C860.994 100.975 856.78 99.4704 853.77 96.1597C851.814 94.0529 846.396 91.1937 845.493 88.9364C840.226 76.446 837.668 79.6063 836.615 65.1596C836.163 58.0867 838.421 54.0236 839.173 44.3925C839.324 42.2857 842.032 39.2759 842.484 36.7177C843.688 29.3438 848.052 20.9166 856.329 13.9942C859.188 11.5865 861.746 13.0913 866.712 10.834C871.678 8.57675 874.236 7.67383 879.202 7.67383C883.567 7.67383 886.727 8.87772 888.984 12.0379C893.95 14.8972 899.669 17.4554 902.979 20.9166C904.183 22.1205 904.484 23.9263 905.538 25.4312C906.591 26.6351 908.096 27.6885 908.848 28.4409C911.557 31.1497 913.965 35.5138 913.664 39.4264C913.363 44.242 915.169 47.1012 915.169 51.3148C915.169 55.9799 914.266 60.4945 912.761 64.8586C910.654 71.179 912.159 75.5431 910.955 79.0043C910.052 81.4121 907.945 81.8635 906.892 84.8733C906.139 86.9801 904.936 89.0869 903.13 89.5383C901.023 90.1403 900.722 91.7956 899.669 92.849C897.261 95.4073 896.96 94.5044 893.348 98.2666C891.241 100.373 888.232 100.524 885.372 101.276C882.965 101.878 882.062 103.082 878.901 103.082ZM871.377 88.184C872.882 88.3345 874.387 88.7859 875.892 88.7859C878.3 88.7859 880.707 87.7325 881.911 86.5286C882.814 85.6257 884.168 85.3247 885.071 85.0238C887.479 84.1208 887.028 82.4655 888.533 81.4121C894.251 77.1985 898.314 71.179 898.314 64.4071C898.314 59.4411 900.571 61.8489 900.421 49.81C900.421 44.8439 898.013 41.3828 896.96 37.0186C895.605 30.9992 889.586 26.0332 886.576 26.0332C884.921 26.0332 882.965 26.3341 881.309 26.9361C880.256 27.3875 879.654 27.538 878.6 27.538C875.44 27.538 873.183 25.5817 871.227 23.4749C868.066 23.4749 860.994 30.8487 859.639 37.7711C859.338 39.7274 858.435 41.5332 857.231 43.1886C851.814 50.8634 854.071 55.5285 852.265 60.946C851.362 63.8052 853.921 64.8586 853.921 66.3635C853.921 68.4703 853.168 68.4703 853.168 71.9315C853.168 74.7907 853.921 77.8004 855.576 79.6063C856.629 80.9606 858.435 82.1645 859.338 84.5723C859.79 85.6257 860.994 85.9267 861.896 85.9267C864.304 85.9267 865.207 88.4849 867.765 88.4849C868.819 88.4849 870.324 88.0335 871.377 88.184Z" fill="white"/>
<path d="M781.643 106.243C780.74 106.394 779.837 106.544 778.934 106.544C775.774 106.544 772.614 105.34 769.905 103.685C767.347 102.18 767.347 99.7722 766.896 97.2139C766.595 95.1071 765.24 93.7527 765.24 91.044C765.24 87.4323 764.939 84.1216 766.444 78.5536C767.197 75.6944 765.993 73.4371 765.993 70.4274C765.993 66.5147 765.692 61.0972 765.391 56.1312C765.24 53.8739 763.886 51.4661 764.036 48.9079C764.488 43.3399 761.478 38.0728 762.381 32.6553C763.284 27.2378 761.779 24.2281 760.876 20.0145C760.124 16.8543 758.92 16.2523 758.92 12.1892C758.92 9.63095 757.565 8.57755 757.565 7.37365C757.565 6.32025 757.716 5.26685 758.318 4.36392C760.124 1.80566 761.027 1.80566 764.036 1.80566C767.648 1.80566 768.852 3.00955 771.109 5.56782C773.066 7.82511 775.022 10.3834 775.473 13.5436C775.925 16.4028 777.279 17.4562 776.677 22.2718C776.376 24.8301 776.978 27.6893 777.731 30.5485C777.881 31.1505 778.032 31.9029 778.032 32.3544C778.032 33.4078 777.58 35.0631 777.58 37.4709C777.58 40.1796 778.483 43.4903 778.483 47.704L778.333 50.1117C778.333 51.4661 778.483 52.67 778.784 54.3254C779.235 56.4322 779.988 58.539 780.891 60.6458C781.342 61.5487 781.342 62.4516 781.342 63.204L781.192 66.3643C781.192 67.2672 781.041 68.1701 781.192 69.073C781.794 73.7381 782.095 76.5973 782.095 78.7041C782.095 81.2624 781.643 82.3158 780.74 85.3255C780.59 85.9275 780.439 86.6799 779.837 88.1848C780.439 88.9372 782.095 88.9372 783.75 88.9372C785.706 88.9372 788.867 89.9906 793.231 88.6362C796.842 87.5828 799.401 87.4323 803.012 88.1848C805.721 88.7867 808.43 88.1848 811.289 87.8838C815.202 87.4323 818.813 88.9372 819.114 91.345C819.415 94.5052 821.071 95.2576 821.071 97.3644C821.071 98.8693 820.77 100.374 819.867 101.879C817.91 105.34 816.707 103.835 814.449 103.835C813.847 103.835 813.245 103.986 812.643 104.136C809.333 105.19 807.978 105.19 806.022 105.19C803.614 105.19 801.056 104.437 799.25 104.889C797.444 105.491 795.187 106.093 792.779 106.093C791.425 106.093 790.221 106.093 788.867 105.942C786.459 105.792 783.901 105.792 781.643 106.243Z" fill="white"/>
<path d="M654.294 104.586C652.187 104.586 650.682 103.834 649.027 101.727C646.92 99.3191 645.114 97.3628 645.114 93.9016C645.114 92.3967 646.619 89.989 646.619 85.7753C646.619 82.3142 645.566 75.9937 646.469 69.3723C647.07 65.3092 645.566 58.5373 645.566 55.8286C645.566 53.1198 646.769 48.1538 646.017 44.0907C645.415 40.78 646.769 37.9207 646.017 34.7605C643.76 25.4304 646.92 22.2701 645.114 15.6488C644.211 12.4885 644.211 10.2313 644.362 7.97396C644.663 4.2118 646.769 2.85742 649.478 2.85742C651.585 2.85742 654.143 3.91083 656.25 5.11472C658.056 6.16812 660.464 8.72639 660.464 11.7361L660.313 16.1002C660.313 18.0565 661.517 18.508 661.517 21.8187C661.517 22.8721 661.216 24.377 661.367 26.4838C661.668 31.2993 659.711 30.2459 661.517 43.0372C662.119 46.7994 661.216 48.9062 661.216 52.5179C661.216 56.28 661.818 58.8383 661.969 60.9451C662.119 63.6539 661.517 65.4597 662.42 69.5228C662.872 71.7801 661.969 74.3384 661.818 76.5957C661.668 78.1006 662.42 83.5181 662.42 86.2268C662.42 87.7317 661.367 88.9356 661.216 90.8919V91.3433C661.216 92.8482 661.668 94.3531 661.668 95.4065C661.668 100.072 658.507 104.586 654.294 104.586Z" fill="white"/>
<path d="M41.6043 465.918C39.6378 468 36.9911 470.782 35.6762 475.873C35.5066 476.527 35.4232 477.082 35.3849 477.575L35.3359 480.086C35.3023 480.48 35.2313 480.887 35.0785 481.343C34.7312 482.378 34.0716 483.497 33.3633 484.714C32.3664 486.427 31.2762 488.317 30.7911 490.477C30.7566 490.628 30.721 490.793 30.6822 490.962C30.3133 492.565 29.7827 494.928 29.6056 497.364C27.4443 503.909 25.4155 510.736 23.6656 517.395C20.6869 528.699 18.3069 540.072 16.5824 551.58C15.7333 557.238 15.8151 562.646 16.7048 566.864C17.6085 570.998 19.2388 573.276 21.1232 573.478C23.0165 573.669 25.0382 571.798 26.9465 568.202C28.8656 564.516 30.5013 559.699 31.7054 554.413C33.6506 545.852 35.9907 537.382 38.6221 529.027C38.7839 528.59 38.9462 528.148 39.1069 527.708C40.329 524.348 41.6892 521.664 43.1509 518.764C43.4841 518.107 43.8196 517.446 44.1562 516.782C46.7306 511.578 49.8422 501.604 51.835 495.944C51.8698 495.845 51.9043 495.745 51.9393 495.645C52.3907 494.34 52.8564 493.112 53.4152 491.67C54.7626 488.24 56.5711 483.489 60.3211 473.773C61.5971 471.012 62.9534 468.144 64.2351 465.479C78.4582 435.898 95.5624 407.413 115.357 380.92C115.62 380.595 115.889 380.264 116.161 379.93C121.478 373.366 128.077 365.766 132.204 360.628C137.384 354.152 140.855 349.903 143.824 346.299C161.51 326.739 180.9 308.62 201.843 292.344C208.305 287.317 215.246 282.231 221.931 277.625C228.142 273.34 234.786 269.003 241.15 265.066C244.993 262.883 248.729 260.876 252.23 259.037C257.175 256.436 261.551 254.232 265.08 252.343C273.595 247.77 283.432 242.212 290.553 238.386C291.733 237.75 292.853 237.148 293.892 236.599C299.791 233.833 305.952 231.075 311.821 228.568C312.184 228.321 312.55 228.07 312.921 227.814C317.537 224.638 323.95 221.805 333.969 217.742C338.281 215.998 343.325 214.003 349.353 211.649C353.241 210.134 355.14 209.024 356.69 208.111C357.142 207.845 357.586 207.585 358.002 207.358C359.46 206.568 361.184 206.238 363.225 205.856C365.877 205.359 369.062 204.774 372.967 202.992C385.538 197.301 391.545 196.571 396.049 195.971C397.376 195.799 398.582 195.646 399.793 195.403C403.716 194.615 409.128 192.726 413.226 191.125C416.563 189.823 423.025 188.502 428.185 187.706C430.121 187.406 432.688 186.778 435.736 186.052C438.891 185.3 442.565 184.443 446.575 183.747C456.427 182.064 461.701 181.267 465.98 180.607C467.198 180.422 468.336 180.251 469.474 180.084C473.054 179.556 477.629 178.836 482.082 178.181C487.363 177.402 492.788 176.659 496.961 176.217C507.68 174.243 518.509 172.405 529.133 170.783C534.639 169.941 539.906 168.467 543.744 166.612C547.578 164.756 549.663 162.669 549.467 160.742C549.271 158.818 546.801 157.188 542.614 156.2C538.425 155.214 532.866 154.969 527.229 155.517C515.99 156.606 504.461 157.944 493.1 159.546C479.486 161.456 465.382 163.879 451.861 166.768C442.581 168.745 432.621 171.103 423.282 173.545C422.313 173.798 421.347 174.054 420.383 174.311C412.489 175.834 404.217 177.661 398.628 179.111C393.989 180.313 390.746 181.553 387.983 182.619C386.082 183.354 384.409 184.01 382.677 184.529C381.771 184.8 380.413 185.193 378.839 185.657C372.358 187.557 361.568 190.895 352.18 194.814C347.884 196.592 343.016 198.85 338.446 201.043C331.883 204.185 326.063 207.146 322.735 208.369C317.042 210.448 310.837 213.413 305.466 216.084C300.399 218.602 295.792 220.978 293.059 221.936C289.777 223.088 287.204 224.522 283.437 226.672C280.802 228.178 277.728 229.96 273.233 232.416C268.07 235.242 264.592 237.459 261.66 239.351C257.508 242.036 254.596 243.975 249.505 246.445C243.915 249.153 238.288 252.233 234.147 255.033C232.256 256.31 230.079 257.677 227.723 259.186C224.638 261.16 221.436 263.259 218.663 265.355C216.377 267.083 214.654 268.731 213.145 270.189C212.674 270.644 212.224 271.081 211.785 271.497C209.969 272.767 208.037 274.131 206.177 275.46C205.84 275.629 205.483 275.803 205.113 275.986C203.252 276.907 200.973 278.048 198.367 279.73C194.221 282.41 191.064 285.102 187.554 288.147C184.855 290.495 182.088 292.947 178.803 295.567C176.562 297.354 173.975 299.314 171.437 301.282C167.57 304.283 163.838 307.285 161.475 309.598C160.589 310.465 159.959 311.351 159.342 312.23L159.337 312.242C159.295 312.302 159.248 312.363 159.206 312.423C153.257 317.592 147.088 323.208 141.326 328.687C140.793 329.134 140.256 329.587 139.726 330.038C137.176 332.201 134.572 334.493 132.793 335.782C130.843 337.195 126.573 341.339 122.25 345.745C119.377 348.672 116.405 351.789 113.978 354.249C112.556 355.691 111.503 357.306 110.438 358.965C109.438 360.522 108.462 362.074 107.084 363.661C106.398 364.452 105.607 365.264 104.768 366.131C104.03 366.894 103.252 367.702 102.477 368.576C101.758 369.388 100.361 371.36 98.6171 373.886C97.539 375.448 96.3306 377.223 95.0595 379.07C91.2726 383.84 87.6231 388.626 84.1173 393.421C83.2342 394.315 82.3982 395.037 81.6045 395.565C81.0404 395.937 80.4898 396.207 79.9248 396.484C79.1546 396.862 78.356 397.255 77.4728 397.941C76.7825 398.477 76.1477 399.23 75.8788 399.838C75.7536 400.121 75.708 400.371 75.6656 400.598C75.617 400.858 75.5711 401.088 75.4232 401.307C75.3162 401.465 75.1456 401.592 74.9373 401.747C74.6048 401.994 74.1758 402.319 73.7486 402.959C72.1502 405.356 70.4766 408.067 68.8111 410.831C66.9478 413.922 65.1841 416.935 63.7189 419.279C62.0624 421.928 60.1303 425.753 58.1375 429.841C56.7692 432.651 55.4436 435.457 54.262 437.814C53.0952 440.139 51.7558 442.361 50.3841 444.698C48.7644 447.452 47.2473 450.094 46.3292 452.501C46.1436 452.988 46.1258 453.698 46.1052 454.582C46.0906 455.208 46.0728 455.927 45.999 456.714C44.6251 459.571 43.1926 462.664 41.8672 465.642C41.784 465.73 41.6982 465.821 41.612 465.912L41.6043 465.918Z" fill="white"/>
</svg>
