<svg width="2491" height="681" viewBox="0 0 2491 681" fill="none" xmlns="http://www.w3.org/2000/svg">
<path d="M2022.24 677.245V515.291H2160.9C2207.27 515.291 2220.11 533.141 2220.11 552.297V555.344C2220.11 576.459 2202.26 584.513 2194.42 586.908C2205.53 589.738 2229.25 599.098 2229.25 627.614V630.662C2229.25 656.13 2214.67 677.245 2162.21 677.245H2022.24ZM2152.19 549.467H2072.96V575.806H2152.19C2166.34 575.806 2169.83 569.276 2169.83 562.745V562.31C2169.83 555.562 2166.34 549.467 2152.19 549.467ZM2156.55 610.2H2072.96V641.981H2156.55C2173.31 641.981 2176.57 632.621 2176.57 626.09V625.22C2176.57 618.254 2173.31 610.2 2156.55 610.2Z" fill="white"/>
<path d="M1924.73 611.07L1893.38 550.338L1863.35 611.07H1924.73ZM1958.69 677.245L1943.45 647.641H1845.28L1830.69 677.245H1779.1L1860.95 515.291H1926.69L2013.33 677.245H1958.69Z" fill="white"/>
<path d="M1609.84 515.291H1660.56V636.975H1773.1V677.245H1609.84V515.291Z" fill="white"/>
<path d="M1354.11 515.291H1521.5V552.079H1404.61V576.024H1518.67V613.03H1404.61V677.245H1354.11V515.291Z" fill="white"/>
<path d="M1212.71 512.464H1222.07C1323.95 512.464 1335.92 563.619 1335.92 592.57V599.101C1335.92 627.617 1324.17 680.078 1222.07 680.078H1212.71C1110.19 680.078 1098.65 627.617 1098.65 599.101V592.57C1098.65 563.619 1110.19 512.464 1212.71 512.464ZM1282.81 597.142V594.094C1282.81 575.591 1272.14 551.646 1217.29 551.646C1161.56 551.646 1151.76 575.591 1151.76 594.094V596.706C1151.76 615.209 1162.43 640.678 1217.29 640.678C1271.71 640.678 1282.81 615.862 1282.81 597.142Z" fill="white"/>
<path d="M898.757 677.245V553.603H829.1V515.291H1019.79V553.603H949.912V677.245H898.757Z" fill="white"/>
<path d="M666.751 552.079V583.86H743.592C758.177 583.86 764.054 576.895 764.054 567.97V567.752C764.054 559.262 758.394 552.079 743.592 552.079H666.751ZM666.751 619.778V677.245H616.031V515.291H746.64C800.624 515.291 816.95 534.012 816.95 557.303V559.916C816.95 583.207 797.577 591.915 786.911 595.397C803.454 600.186 817.604 611.724 817.604 632.621V656.348C817.604 669.409 819.127 673.545 820.651 676.157V677.245H769.061C767.537 675.286 766.666 672.892 766.666 667.014V648.294C766.666 628.485 757.959 619.778 732.926 619.778H666.751Z" fill="white"/>
<path d="M518.524 611.07L487.178 550.338L457.138 611.07H518.524ZM552.482 677.245L537.244 647.641H439.07L424.486 677.245H372.896L454.743 515.291H520.483L607.12 677.245H552.482Z" fill="white"/>
<path d="M280.366 677.245V553.603H210.708V515.291H401.396V553.603H331.521V677.245H280.366Z" fill="white"/>
<path d="M109.711 680.078H94.6911C9.79563 680.078 0 643.508 0 622.175V619.78H52.8964C53.5494 629.576 59.2091 645.467 101.004 645.467H104.051C146.717 645.467 151.506 636.977 151.506 628.27C151.506 618.91 146.499 613.032 109.058 611.944L81.1949 611.291C20.6797 609.549 2.17681 589.087 2.17681 563.836V561.877C2.17681 537.715 16.5437 512.464 90.3375 512.464H105.357C181.981 512.464 199.395 539.239 199.395 563.619V565.796H146.717C145.628 559.701 142.363 546.422 99.9154 546.422H96.4325C57.25 546.422 54.4202 553.388 54.4202 560.354C54.4202 567.319 58.7738 573.632 91.8612 574.285L119.071 574.72C180.022 575.809 204.62 590.611 204.62 622.828V625.875C204.62 652.65 191.124 680.078 109.711 680.078Z" fill="white"/>
<path d="M2338.16 268.183H2314.13C2178.3 268.183 2162.63 209.67 2162.63 175.538V171.706H2247.26C2248.31 187.379 2257.36 212.805 2324.23 212.805H2329.11C2397.37 212.805 2405.04 199.221 2405.04 185.29C2405.04 170.313 2397.02 160.91 2337.12 159.168L2292.54 158.123C2195.71 155.337 2166.11 122.598 2166.11 82.1962V79.0616C2166.11 40.4015 2189.1 0 2307.17 0H2331.2C2453.8 0 2481.66 42.8396 2481.66 81.8479V85.3308H2397.37C2395.63 75.5787 2390.41 54.3331 2322.49 54.3331H2316.92C2254.23 54.3331 2249.7 65.4783 2249.7 76.6236C2249.7 87.7688 2256.66 97.8692 2309.6 98.9141L2353.14 99.6107C2450.66 101.352 2490.02 125.036 2490.02 176.583V181.459C2490.02 224.298 2468.42 268.183 2338.16 268.183Z" fill="#BFFF00"/>
<path d="M1902.6 63.3892V114.239H2025.55C2048.88 114.239 2058.29 103.094 2058.29 88.8143V88.466C2058.29 74.8827 2049.23 63.3892 2025.55 63.3892H1902.6ZM1902.6 171.707V263.655H1821.45V4.52832H2030.42C2116.8 4.52832 2142.92 34.4812 2142.92 71.7481V75.9276C2142.92 113.194 2111.92 127.126 2094.86 132.699C2121.33 140.361 2143.96 158.82 2143.96 192.256V230.22C2143.96 251.117 2146.4 257.734 2148.84 261.914V263.655H2066.3C2063.86 260.521 2062.47 256.69 2062.47 247.286V217.333C2062.47 185.639 2048.53 171.707 2008.48 171.707H1902.6Z" fill="#BFFF00"/>
<path d="M1511.25 4.52832H1784.31V63.3892H1591.36V101.701H1779.78V160.91H1591.36V203.401H1787.8V263.655H1511.25V4.52832Z" fill="#BFFF00"/>
<path d="M1255.34 263.655H1174.19V4.52832H1255.34V112.498L1388.04 4.52832H1491.13L1342.06 122.947L1498.1 263.655H1392.22L1255.34 141.406V263.655Z" fill="#BFFF00"/>
<path d="M972.228 268.183H957.948C807.835 268.183 784.5 184.245 784.5 138.271V128.17C784.5 81.1513 804.701 0 957.948 0H972.228C1122.34 0 1145.68 71.7475 1145.68 102.049V105.88H1059.65C1057.56 98.9141 1047.11 62.692 964.914 62.692C887.245 62.692 869.482 97.5209 869.482 129.912V134.091C869.482 164.741 890.032 205.142 965.61 205.142C1049.55 205.142 1057.91 165.089 1060 159.168H1146.02V162.999C1146.02 195.738 1120.25 268.183 972.228 268.183Z" fill="#BFFF00"/>
<path d="M755.355 4.52832V263.655H674.204V4.52832H755.355Z" fill="#BFFF00"/>
<path d="M451.078 263.655V65.8272H339.626V4.52832H644.727V65.8272H532.926V263.655H451.078Z" fill="#BFFF00"/>
<path d="M178.025 268.183H153.993C18.1603 268.183 2.4873 209.67 2.4873 175.538V171.706H87.1215C88.1664 187.379 97.2219 212.805 164.093 212.805H168.969C237.234 212.805 244.896 199.221 244.896 185.29C244.896 170.313 236.886 160.91 176.98 159.168L132.399 158.123C35.5748 155.337 5.97019 122.598 5.97019 82.1962V79.0616C5.97019 40.4015 28.9573 0 147.027 0H171.059C293.657 0 321.52 42.8396 321.52 81.8479V85.3308H237.234C235.493 75.5787 230.268 54.3331 162.352 54.3331H156.779C94.0873 54.3331 89.5596 65.4783 89.5596 76.6236C89.5596 87.7688 96.5253 97.8692 149.465 98.9141L193.001 99.6107C290.522 101.352 329.879 125.036 329.879 176.583V181.459C329.879 224.298 308.285 268.183 178.025 268.183Z" fill="#BFFF00"/>
</svg>
