<svg width="2236" height="2478" viewBox="0 0 2236 2478" fill="none" xmlns="http://www.w3.org/2000/svg">
<path d="M1213.53 2471.52C1205.92 2471.52 1201.69 2466.27 1201.69 2460.19C1201.69 2454.44 1199.66 2454.44 1199.83 2450.55C1200 2444.63 1201.52 2440.06 1201.52 2438.37C1201.52 2435.83 1200.51 2433.46 1200.51 2430.93C1200.51 2423.15 1202.88 2415.37 1201.52 2407.25C1200.68 2401.84 1202.88 2395.58 1201.69 2390.33C1200.85 2386.44 1202.71 2382.72 1202.71 2378.83L1202.37 2371.56V2368.86C1202.37 2364.29 1205.92 2361.58 1209.98 2361.58C1211.84 2361.58 1213.53 2362.09 1214.04 2362.43C1215.56 2363.27 1215.9 2364.97 1217.08 2365.98C1219.45 2368.01 1223 2369.02 1224.53 2371.73C1226.05 2374.44 1232.14 2376.97 1235.01 2380.02C1237.04 2382.05 1237.04 2383.4 1239.24 2384.75C1243.81 2387.63 1249.73 2391.69 1252.94 2395.92C1254.12 2397.44 1253.45 2399.47 1255.82 2400.82C1258.86 2402.68 1261.9 2406.4 1265.29 2410.97C1267.32 2413.84 1268.33 2416.38 1270.87 2417.73C1270.87 2416.38 1271.04 2415.87 1271.04 2415.2C1271.04 2414.35 1270.7 2413.17 1270.7 2412.15C1270.7 2409.62 1271.88 2408.26 1271.38 2405.39C1271.04 2403.02 1271.04 2400.65 1271.04 2399.13C1271.04 2397.44 1271.04 2396.25 1272.22 2390.17C1273.91 2381.37 1270.7 2384.75 1274.42 2371.39C1275.27 2368.52 1274.76 2365.81 1274.93 2363.95C1275.27 2361.92 1276.28 2360.74 1276.45 2359.05C1276.96 2354.48 1278.31 2353.8 1283.05 2352.45C1283.89 2352.28 1284.91 2352.11 1285.75 2352.11C1288.29 2352.11 1290.83 2353.3 1292.69 2356C1295.05 2359.38 1296.07 2361.08 1296.07 2363.1C1296.07 2365.64 1294.21 2366.49 1294.21 2369.87C1294.21 2373.08 1293.36 2376.3 1291.84 2379.68C1290.99 2381.37 1290.83 2382.72 1290.83 2383.74L1290.99 2386.61C1290.99 2387.63 1290.83 2388.98 1290.32 2390.67C1289.81 2392.36 1289.98 2394.56 1289.98 2396.25C1289.98 2398.28 1288.46 2401.33 1288.46 2402.51C1288.46 2405.56 1289.3 2408.26 1289.13 2411.31C1288.8 2415.03 1287.44 2415.87 1288.12 2419.09C1289.13 2423.82 1285.41 2422.98 1286.26 2434.65C1286.6 2438.2 1283.89 2442.09 1283.05 2445.47C1282.2 2449.02 1281.02 2450.21 1277.63 2450.38H1277.13C1275.43 2450.38 1273.74 2449.7 1272.56 2449.02C1269.52 2447.5 1266.3 2445.64 1264.78 2441.58C1263.09 2437.18 1261.73 2433.46 1258.35 2430.25C1256.32 2428.22 1255.98 2427.21 1255.31 2424.84C1253.79 2419.26 1248.04 2416.38 1245.16 2410.8C1243.3 2407.08 1239.24 2406.74 1238.23 2404.37C1236.2 2399.13 1231.97 2397.1 1226.89 2394.39C1223.68 2392.7 1222.67 2389.83 1219.96 2388.14L1219.79 2392.36C1219.79 2394.06 1220.3 2396.09 1220.3 2399.13C1220.3 2405.05 1218.27 2404.37 1219.11 2416.38C1219.28 2419.93 1218.44 2423.48 1217.93 2427.21C1217.76 2428.56 1217.42 2429.74 1217.42 2431.1C1217.42 2432.11 1217.59 2432.96 1217.93 2433.97C1218.27 2435.32 1218.61 2436.68 1218.61 2438.03C1218.61 2439.55 1218.27 2441.07 1217.59 2442.77C1216.92 2444.79 1216.24 2447.16 1216.41 2449.19C1216.92 2454.44 1220.64 2456.8 1219.28 2464.24C1218.44 2469.15 1217.42 2471.52 1213.53 2471.52Z" fill="white"/>
<path d="M1120.72 2470.51C1115.82 2470.51 1110.75 2468.64 1108.38 2465.77C1104.66 2461.37 1100.26 2461.54 1097.22 2456.47C1094.85 2452.58 1092.82 2453.42 1089.77 2449.19C1087.41 2446.15 1087.58 2444.29 1086.05 2442.09C1084.02 2439.39 1082.67 2437.19 1081.99 2434.14C1081.49 2431.44 1083.01 2428.56 1079.96 2419.6C1077.6 2412.83 1081.66 2410.8 1081.15 2403.7C1080.81 2399.3 1086.9 2391.35 1088.42 2381.37C1089.1 2376.64 1092.31 2373.09 1094.68 2370.72C1096.2 2369.2 1098.06 2370.04 1101.95 2365.31C1105.84 2360.57 1106.86 2363.28 1111.42 2360.23C1113.62 2358.71 1117.17 2358.54 1120.22 2358.54C1127.32 2358.54 1133.92 2362.09 1137.98 2364.97C1140.17 2366.49 1141.02 2366.66 1143.22 2367C1147.28 2367.67 1150.49 2371.56 1154.04 2378.16C1155.06 2380.02 1155.06 2381.37 1156.58 2384.42C1157.76 2386.62 1160.13 2386.79 1160.98 2392.87C1161.65 2397.61 1164.53 2398.29 1164.53 2404.04C1164.53 2407.42 1165.71 2412.16 1165.71 2413.85C1165.71 2416.72 1165.04 2419.43 1163.68 2422.3C1162.33 2425.18 1162.16 2426.87 1161.99 2428.9C1161.82 2431.1 1161.65 2433.47 1159.96 2437.86C1159.29 2439.89 1155.23 2444.29 1154.04 2450.72C1153.37 2454.44 1150.66 2457.14 1147.95 2458.5C1145.42 2459.85 1144.57 2461.03 1143.73 2462.05C1142.71 2463.57 1142.04 2464.42 1140.85 2465.09C1139.33 2465.94 1137.98 2466.11 1136.62 2466.28C1134.76 2466.62 1132.9 2466.62 1130.53 2467.8C1127.83 2469.15 1124.78 2470.51 1120.72 2470.51ZM1122.25 2453.42C1123.94 2453.42 1125.29 2452.92 1126.64 2452.24C1129.35 2450.89 1129.86 2449.19 1133.92 2447.84C1136.45 2447 1138.65 2445.14 1139.33 2441.25C1140.01 2437.52 1141.7 2437.86 1143.39 2433.8C1144.57 2430.76 1143.22 2428.39 1145.76 2423.99C1148.29 2419.6 1148.8 2415.71 1147.95 2411.82C1145.59 2400.82 1148.29 2403.7 1145.76 2395.75C1144.4 2391.35 1142.04 2387.63 1139.33 2384.25C1137.47 2382.05 1135.78 2381.37 1133.58 2380.7C1131.72 2380.19 1130.37 2379.68 1127.83 2377.65C1126.64 2376.64 1125.8 2375.62 1122.75 2375.62C1119.37 2375.62 1118.36 2379.51 1114.47 2381.88C1109.9 2384.59 1104.15 2384.59 1103.47 2394.57C1102.97 2401.67 1098.06 2399.98 1099.08 2408.94C1099.58 2413.17 1096.54 2418.07 1098.06 2422.81C1099.25 2426.7 1098.06 2429.07 1099.58 2434.65C1101.11 2440.23 1103.98 2440.74 1105.16 2442.94C1107.03 2446.49 1108.72 2445.14 1110.92 2446.83C1112.78 2448.18 1113.28 2450.72 1116.33 2452.24C1117.85 2453.08 1120.89 2453.42 1122.25 2453.42Z" fill="white"/>
<path d="M1036.44 2468.14C1031.2 2468.14 1024.27 2463.24 1024.27 2456.81V2453.26C1024.27 2452.24 1024.27 2450.89 1024.94 2448.01C1025.96 2443.62 1025.45 2437.36 1025.96 2430.93C1026.13 2427.38 1026.63 2423.49 1026.97 2421.29C1027.48 2418.25 1027.82 2417.06 1027.82 2415.2C1027.82 2413.68 1027.14 2412.33 1027.48 2409.96C1027.65 2408.78 1027.99 2406.41 1027.99 2404.38C1027.99 2402.01 1027.14 2400.15 1026.8 2395.58C1026.63 2392.71 1026.47 2389.66 1026.63 2386.79C1026.97 2381.04 1026.97 2380.02 1025.62 2371.57C1025.28 2368.86 1025.28 2367.51 1025.28 2366.49C1025.28 2362.43 1027.48 2359.9 1030.86 2359.9C1033.06 2359.9 1034.25 2361.59 1036.61 2362.26C1040.67 2363.45 1042.53 2365.65 1042.53 2371.06L1042.19 2375.29C1042.19 2375.96 1042.36 2376.64 1042.53 2377.15C1043.38 2379.18 1043.72 2381.21 1043.72 2383.24C1043.72 2385.1 1043.55 2386.79 1043.38 2388.48C1043.21 2390.34 1043.04 2392.03 1043.04 2393.72C1043.04 2395.24 1043.21 2396.77 1043.89 2398.29C1044.05 2398.8 1044.22 2399.47 1044.22 2400.15L1044.05 2405.73C1044.05 2407.76 1044.39 2409.79 1045.07 2411.99C1045.24 2412.83 1045.41 2413.68 1045.41 2416.22C1045.41 2419.77 1044.73 2425.01 1043.38 2430.42C1042.87 2432.45 1042.7 2434.31 1042.7 2436.34C1042.7 2437.87 1042.7 2439.22 1043.04 2440.74C1043.38 2442.09 1043.55 2443.79 1043.55 2445.31C1043.55 2447.84 1042.53 2450.21 1042.36 2452.75C1042.19 2455.46 1042.7 2458.16 1042.53 2461.04C1042.36 2462.56 1042.03 2464.25 1041.35 2465.6C1040.5 2467.63 1038.81 2468.14 1036.44 2468.14Z" fill="white"/>
<path d="M945.044 2409.79C944.874 2405.22 947.411 2401.67 946.904 2397.44C946.227 2391.36 946.397 2385.6 947.411 2382.56C947.919 2381.21 947.75 2379.69 947.919 2378.67C947.242 2378.5 946.735 2378.67 946.058 2378.67C945.044 2378.67 944.029 2379.01 942.507 2379.69C933.204 2383.24 935.911 2388.65 930.16 2389.83C924.41 2391.02 925.424 2395.25 918.828 2393.72C915.446 2392.88 913.416 2391.36 911.387 2388.82C910.879 2387.97 910.541 2387.13 910.541 2386.28C910.541 2384.76 912.063 2381.71 913.247 2380.53C917.814 2375.46 921.196 2372.75 927.961 2370.38C930.668 2369.54 931.851 2366.49 934.219 2364.8C936.756 2363.11 939.97 2363.62 946.058 2360.24C947.581 2359.39 949.103 2359.56 950.794 2359.56C952.316 2359.56 954.007 2359.9 955.53 2360.24C966.354 2362.1 961.28 2362.6 967.2 2364.46C969.06 2364.97 971.597 2364.97 974.811 2366.15C979.715 2367.85 980.223 2371.57 985.635 2371.91C988.003 2372.07 989.863 2374.44 992.569 2374.44C995.444 2374.44 997.643 2379.35 998.996 2382.05C999.673 2383.41 1000.18 2384.59 1000.18 2385.44C1000.18 2388.99 996.459 2394.06 993.246 2393.55C989.018 2392.88 984.958 2391.69 983.267 2388.99C981.914 2386.96 980.899 2385.77 978.024 2385.27C974.472 2384.59 975.825 2383.07 973.288 2382.05C970.751 2381.04 970.075 2379.52 967.031 2379.52C966.523 2379.52 965.677 2379.52 965.001 2379.69C964.832 2380.36 965.001 2381.21 964.832 2382.39C964.324 2385.1 963.31 2387.63 962.802 2390.51C961.618 2396.43 964.494 2401.5 963.31 2404.89C960.773 2412.16 963.141 2419.6 960.942 2427.55C959.589 2432.62 958.743 2436.01 958.743 2437.87C958.743 2439.39 959.081 2441.08 959.081 2442.43C959.081 2444.29 958.743 2446.32 957.898 2448.18C957.052 2449.87 956.883 2451.57 956.883 2453.26L957.052 2457.99C957.052 2460.7 955.361 2462.05 955.361 2464.08C955.361 2465.43 956.375 2465.94 956.375 2468.14C956.375 2469.66 955.53 2472.2 952.654 2473.38C951.471 2473.89 949.779 2474.23 948.426 2474.23C947.75 2474.23 947.073 2474.23 944.874 2473.38C943.183 2472.54 940.646 2470.85 938.786 2467.97C938.278 2467.29 938.109 2466.28 938.109 2465.27C938.109 2460.7 940.815 2458.84 940.815 2449.71C940.815 2440.06 943.691 2433.47 943.183 2428.23C942.338 2419.26 945.382 2421.46 945.044 2409.79Z" fill="white"/>
<path d="M811.43 2477.1C805.341 2477.1 800.774 2473.04 800.774 2466.28C800.774 2461.71 805.341 2459.17 809.062 2459.34C810.753 2459.34 811.768 2459.68 813.628 2459.68C816.165 2459.68 820.394 2457.82 826.482 2457.82L831.049 2457.99C833.417 2457.99 835.954 2456.47 838.829 2456.47C842.55 2456.47 844.917 2453.59 848.638 2453.08C853.374 2452.41 852.697 2449.36 856.08 2446.83C859.801 2443.95 861.323 2439.72 861.154 2436.34C861.154 2435.33 860.647 2434.14 859.97 2433.47C857.264 2430.76 853.712 2428.05 849.484 2427.88C845.087 2427.72 842.381 2427.04 841.704 2426.7C839.505 2425.52 840.013 2424.67 837.983 2424.16C837.137 2423.99 836.63 2423.66 836.461 2423.15C835.954 2421.46 834.939 2420.61 833.417 2419.94C829.019 2417.74 827.159 2414.18 825.467 2409.62C824.114 2405.9 825.129 2406.07 824.622 2402.35C824.114 2398.79 822.592 2393.72 822.592 2388.31C822.592 2380.36 824.622 2372.41 831.049 2368.52C834.093 2366.66 836.461 2362.26 838.491 2359.56C840.351 2357.02 840.858 2356.34 843.395 2355.33C845.425 2354.48 847.962 2354.99 851.175 2353.47C853.543 2352.28 856.08 2351.44 858.786 2351.44C861.323 2351.44 863.86 2351.94 866.735 2352.96C871.809 2354.82 876.883 2357.02 880.773 2360.91C882.634 2362.77 884.494 2364.29 886.693 2366.66C888.722 2368.86 889.568 2373.59 890.075 2376.98C890.583 2381.04 887.877 2384.08 883.31 2384.08C880.942 2384.08 877.898 2383.4 874.854 2380.7C871.978 2378.16 871.302 2375.62 871.133 2374.44C870.964 2372.75 870.625 2371.9 869.78 2371.23C867.412 2369.53 865.551 2368.86 863.86 2368.86C861.831 2368.86 857.095 2369.87 853.712 2372.07C852.697 2372.75 852.359 2373.93 851.175 2374.78C850.499 2375.28 849.484 2375.62 848.807 2376.3C847.793 2377.31 847.624 2378.33 846.609 2379.34L844.748 2380.87C843.734 2381.54 842.719 2382.22 842.042 2383.23C841.197 2384.59 842.211 2386.45 840.689 2387.97C840.182 2388.48 839.844 2389.32 839.844 2390C839.844 2390.68 840.013 2391.35 840.351 2392.2C842.381 2396.43 841.535 2400.32 842.55 2403.87C843.057 2405.39 843.057 2406.24 844.41 2407.59C845.425 2408.6 847.116 2409.62 848.131 2410.8C849.484 2412.32 851.344 2412.49 853.712 2412.66C860.985 2413.51 864.875 2415.2 867.581 2418.58C868.934 2420.44 869.949 2420.1 871.471 2420.78C872.993 2421.46 873.331 2423.49 874.515 2424.67C877.391 2427.55 878.067 2430.93 877.56 2434.65L877.221 2437.36C877.221 2438.2 877.729 2440.4 877.729 2442.94C877.729 2451.06 869.949 2460.86 867.074 2462.89C864.198 2464.92 862.338 2464.92 860.647 2466.62C855.911 2471.01 849.146 2471.86 844.41 2471.86C842.38 2471.86 840.689 2473.55 835.277 2473.55C832.064 2473.55 829.019 2474.56 826.482 2475.75C825.129 2476.42 823.607 2476.59 822.254 2476.59C820.394 2476.59 818.364 2475.75 816.504 2475.92C814.643 2476.09 814.136 2477.1 811.43 2477.1Z" fill="white"/>
<path d="M751.652 2467.63C746.747 2467.8 742.688 2468.64 739.643 2467.46C738.46 2466.95 737.952 2466.28 735.077 2462.05C733.724 2460.02 731.694 2459.51 729.834 2455.79C727.804 2451.73 727.128 2445.64 728.143 2440.57C729.834 2431.77 727.973 2429.57 727.973 2425.01C727.973 2419.6 727.804 2415.54 727.635 2413.17C727.466 2411.31 727.804 2409.95 728.312 2409.28C728.988 2408.26 729.326 2407.42 729.326 2406.4L729.496 2397.1C729.496 2396.76 730.172 2393.55 730.003 2391.86C729.834 2389.49 727.973 2386.11 727.635 2383.4C727.297 2381.03 727.973 2379.17 727.635 2376.81C727.297 2375.28 726.282 2373.08 726.282 2371.56C726.282 2369.53 725.775 2368.86 725.606 2367.33C725.267 2364.97 726.62 2361.75 730.51 2360.06C735.753 2357.86 739.982 2359.55 749.284 2357.69C756.218 2356.34 758.417 2357.69 762.138 2358.88C768.903 2361.25 771.947 2361.08 774.315 2362.09C778.543 2364.12 781.926 2366.83 781.926 2371.22C781.926 2372.41 781.249 2373.59 780.911 2374.94C780.404 2376.97 778.374 2377.65 775.668 2377.82C772.624 2377.99 772.962 2379.34 770.594 2379C768.734 2378.67 766.366 2376.97 763.153 2375.79C760.954 2374.94 751.821 2376.47 745.225 2375.79C744.717 2377.14 744.548 2377.65 744.548 2380.02C744.548 2384.59 745.901 2387.46 745.901 2389.32C745.901 2391.86 744.717 2395.07 744.717 2396.59C744.717 2397.27 744.548 2398.12 744.548 2400.31C744.548 2403.53 744.886 2404.37 744.886 2405.39L757.571 2405.9C763.491 2406.06 769.41 2407.76 771.44 2409.79C773.639 2411.98 773.3 2413.84 772.962 2415.2C772.455 2417.23 773.3 2418.07 772.962 2420.95C772.624 2423.49 768.734 2426.02 765.52 2426.02C763.829 2426.02 761.292 2425.18 759.77 2424.16C757.064 2422.47 752.666 2421.29 747.254 2421.29C746.07 2421.29 745.225 2421.46 744.379 2421.79C744.717 2424.5 745.394 2427.88 745.394 2429.91C745.394 2432.96 743.703 2435.16 744.041 2440.4C744.21 2442.94 745.056 2443.1 745.056 2446.99C745.056 2449.02 745.732 2450.04 746.07 2450.55C747.085 2450.21 748.946 2450.04 750.299 2450.04C751.821 2450.04 756.556 2448.35 759.601 2448.69C764.675 2449.19 765.351 2448.18 768.396 2448.18C769.749 2448.18 771.609 2448.69 773.3 2450.88C776.006 2454.61 778.882 2455.45 779.22 2458.83C779.558 2462.05 777.359 2463.57 775.161 2464.75C772.455 2466.28 769.41 2466.95 766.704 2466.44C758.248 2464.92 755.88 2467.46 751.652 2467.63Z" fill="white"/>
<path d="M637.059 2472.87C634.183 2472.37 631.816 2470.67 629.617 2468.81C626.742 2466.11 622.344 2465.43 619.976 2462.39C617.609 2459.34 615.41 2457.65 614.057 2457.31C609.998 2456.3 609.49 2450.38 607.292 2446.49C602.556 2437.69 600.019 2433.13 600.019 2425.01C600.019 2420.1 598.666 2413.68 598.666 2411.31C598.666 2406.74 599.343 2402.35 600.526 2399.3C601.541 2397.1 601.88 2396.09 601.88 2393.55C601.88 2389.32 605.6 2384.76 606.784 2380.7C607.461 2378.67 607.968 2377.48 609.152 2376.3C611.858 2373.59 613.888 2369.2 616.932 2365.31C619.3 2362.26 622.344 2358.54 624.543 2356.68C625.896 2355.67 628.264 2355.33 629.955 2354.65C634.183 2352.79 638.243 2351.44 642.809 2351.44L647.545 2351.78C649.067 2351.78 650.758 2350.93 652.449 2350.93C654.648 2350.93 656.847 2351.78 658.876 2352.11C663.781 2352.79 668.348 2353.8 672.576 2356.17C674.944 2357.36 677.988 2358.37 679.341 2360.4C681.202 2363.45 684.077 2363.11 686.106 2365.31C687.798 2367 688.136 2370.04 689.827 2371.9C693.041 2375.62 695.916 2380.87 695.916 2386.11C695.916 2387.46 694.901 2388.98 692.533 2390.34C691.349 2391.01 691.18 2393.38 689.32 2395.92C688.305 2397.27 685.937 2397.44 684.077 2397.44C681.54 2397.27 678.665 2395.58 676.973 2393.72C675.282 2391.86 675.113 2389.66 675.113 2387.29C675.113 2384.76 677.143 2383.57 677.988 2381.54C677.312 2378.84 676.297 2376.98 674.606 2375.79C672.238 2374.27 670.885 2372.07 668.009 2370.21C666.318 2369.03 663.95 2367.84 660.568 2367C660.06 2366.83 659.384 2366.83 658.707 2366.83C657.016 2366.83 654.986 2367.17 653.464 2367.17C651.942 2367.17 650.42 2366.66 648.898 2366.66C647.206 2366.66 645.515 2367.67 643.993 2368.01C639.765 2369.36 636.72 2370.04 634.86 2372.58C633.507 2374.44 631.477 2375.62 630.801 2376.3C628.94 2377.82 627.926 2379.17 626.911 2381.71C626.573 2382.73 625.896 2383.91 624.881 2384.59C622.006 2386.62 621.499 2389.66 620.991 2393.04C620.653 2394.73 620.653 2397.44 619.469 2400.65C618.793 2402.68 617.27 2405.39 616.425 2409.11C615.917 2410.97 615.748 2412.66 615.748 2414.52C615.748 2416.38 615.917 2418.24 616.594 2420.1C617.44 2422.47 617.947 2423.32 617.947 2425.69C617.947 2430.08 619.807 2436.68 623.359 2440.91C625.389 2443.27 626.065 2443.44 627.08 2445.98C628.771 2450.21 632.83 2451.05 637.228 2454.78C638.75 2455.96 640.272 2456.47 641.794 2456.47C643.147 2456.47 644.331 2456.3 645.684 2455.79C647.376 2455.11 650.927 2456.97 653.295 2454.61C656.001 2451.73 659.215 2452.41 661.921 2449.36C664.627 2446.49 667.84 2443.27 667.84 2438.37C667.84 2431.94 668.348 2430.08 669.193 2426.19C667.671 2425.18 665.98 2423.99 664.458 2424.16C659.553 2424.5 658.2 2422.81 654.986 2422.3C652.619 2421.96 650.589 2422.64 648.898 2423.99C647.376 2425.18 645.853 2425.52 644.331 2425.52C642.302 2425.52 640.441 2424.84 638.412 2423.66C634.86 2421.63 633.338 2418.75 633.338 2415.71C633.338 2413 634.183 2411.65 635.367 2410.13C636.72 2408.26 638.412 2406.24 641.287 2406.24C646.361 2406.24 652.111 2407.25 658.876 2409.28C660.399 2409.79 662.09 2410.13 665.303 2410.13C669.532 2410.13 674.098 2413.51 677.988 2413.51C680.187 2413.51 681.202 2414.18 682.386 2415.37C685.768 2418.75 686.614 2420.44 686.614 2422.98C686.614 2424.5 686.276 2426.36 686.106 2429.41V2429.91C686.106 2431.94 687.121 2431.94 687.121 2433.63C687.121 2434.99 685.43 2437.19 685.43 2439.89C685.43 2443.95 683.908 2447.33 681.709 2451.05C680.525 2453.08 680.187 2453.76 679.172 2456.13C677.481 2459.85 673.253 2463.23 669.363 2464.08C666.995 2464.75 666.149 2465.43 665.642 2466.61C664.965 2467.97 663.781 2468.64 661.921 2469.15C660.06 2469.66 658.2 2470.34 657.185 2470.84C656.001 2471.35 655.156 2471.86 652.619 2471.69C649.067 2471.52 646.53 2473.21 642.133 2473.21C640.441 2473.21 638.75 2473.04 637.059 2472.87Z" fill="white"/>
<path d="M532.406 2472.03C527.163 2472.2 522.089 2472.2 518.537 2469.66C516.677 2468.48 515.493 2467.97 513.463 2467.13C507.882 2464.76 503.315 2460.02 498.749 2455.12C497.565 2453.76 496.888 2452.75 496.381 2451.9C495.366 2449.87 494.69 2447.17 493.337 2445.31C490.8 2442.26 488.432 2439.56 487.925 2435.5C486.233 2421.46 483.696 2420.45 483.696 2412.67C483.696 2407.93 486.571 2403.19 486.741 2398.8C487.079 2391.19 491.476 2389.33 492.491 2382.73C493.168 2377.82 495.366 2373.6 498.411 2370.38C502.808 2365.65 506.867 2361.42 513.463 2359.39C514.985 2358.88 516.508 2358.37 518.03 2357.7L523.273 2354.82C526.994 2352.79 530.884 2351.95 534.774 2351.95C536.803 2351.95 538.833 2352.79 540.862 2352.79C544.583 2352.79 547.797 2353.3 550.334 2355.33C551.518 2356.18 553.209 2357.19 554.731 2357.36C558.114 2357.87 561.496 2360.4 564.033 2362.77C565.217 2363.96 565.555 2364.63 566.57 2366.49C568.938 2371.23 568.769 2374.61 572.49 2379.35C573.674 2380.87 574.181 2382.9 573.505 2384.59C571.475 2389.33 570.122 2391.19 566.57 2391.19C562.004 2391.19 557.099 2386.79 555.408 2381.71C554.224 2378.16 553.04 2375.12 551.687 2372.75C549.657 2368.86 545.936 2368.01 542.554 2368.01C539.171 2368.01 538.156 2369.2 534.774 2368.86C530.715 2368.35 530.207 2370.38 527.839 2370.72C523.273 2371.4 521.243 2373.43 519.383 2376.64C517.184 2380.36 511.434 2383.41 508.728 2388.14C507.205 2390.68 508.051 2393.38 507.544 2395.75C507.205 2397.11 506.529 2398.97 505.852 2399.64C504.33 2401.16 504.161 2402.69 504.161 2404.55C504.161 2406.58 503.654 2408.61 503.315 2410.64C502.639 2413.68 501.962 2416.72 501.962 2419.77C501.962 2424.17 501.962 2429.24 505.176 2432.79C508.051 2435.84 506.36 2437.36 509.912 2441.25C511.772 2443.45 511.434 2444.8 512.279 2447.17C513.632 2450.38 518.03 2452.58 522.089 2454.61C522.935 2455.12 523.78 2455.29 524.795 2455.29C525.979 2455.29 526.994 2454.95 528.178 2454.1C531.391 2451.9 531.898 2449.7 534.774 2448.52C539.34 2446.66 539.34 2444.12 542.215 2441.92C544.921 2439.9 546.105 2436.01 545.429 2431.44C544.921 2427.89 545.936 2425.35 545.936 2423.49C545.936 2419.77 544.076 2417.74 540.017 2417.4C535.958 2417.06 531.729 2419.43 525.81 2418.42C522.596 2417.91 523.104 2416.56 519.552 2415.71C516.677 2415.03 513.294 2409.96 513.294 2407.93C513.294 2405.9 514.647 2403.7 516.338 2403.19C519.214 2402.18 523.104 2401.84 525.81 2401.67C534.435 2401.16 532.068 2403.53 539.34 2403.02C551.348 2402.18 548.981 2405.22 555.238 2408.44C558.452 2410.13 558.79 2413.34 560.82 2415.37C562.342 2416.89 562.68 2419.09 562.68 2420.78C562.68 2422.47 561.835 2423.83 561.835 2425.86C561.835 2428.23 563.188 2430.09 563.188 2432.12C563.188 2433.81 562.849 2435.67 562.004 2437.36C561.327 2438.71 560.989 2440.57 560.989 2441.92C560.989 2444.63 560.312 2446.83 559.298 2449.2C558.621 2450.89 557.606 2451.9 555.915 2453.09C553.209 2454.95 552.025 2455.79 551.01 2457.82C550.165 2459.51 547.797 2458.84 546.951 2460.53C546.105 2462.22 545.429 2463.4 542.892 2464.42C540.355 2465.43 538.325 2466.45 537.311 2469.32C536.465 2471.35 534.435 2472.03 532.406 2472.03Z" fill="white"/>
<path d="M396.114 2472.87C392.393 2473.38 389.856 2472.7 387.488 2471.18C379.539 2466.28 376.156 2468.64 368.884 2461.88C365.501 2458.66 365.839 2456.47 361.78 2453.08C356.368 2448.52 357.552 2442.43 356.368 2438.71C355.353 2435.32 353.831 2432.28 353.662 2428.9C353.493 2423.65 354.846 2420.27 354.169 2415.2C354 2413.51 352.816 2411.31 352.816 2407.59C352.816 2403.87 354.169 2402.85 354.169 2399.47C354.169 2396.09 353.662 2394.23 354.508 2392.03C355.015 2390.51 354.339 2388.14 354.339 2386.11C354.339 2382.05 358.398 2377.82 358.398 2371.06C358.398 2367.67 359.074 2367 359.92 2366.66C361.611 2365.98 363.302 2365.3 364.825 2365.3C369.729 2365.3 372.266 2366.15 373.619 2369.53C375.649 2374.27 375.649 2377.99 373.958 2381.03C372.097 2384.92 372.266 2391.18 371.421 2393.38C370.744 2395.24 371.421 2396.93 371.759 2398.45C372.097 2400.48 370.406 2403.53 370.744 2406.91C370.913 2409.11 371.759 2411.31 371.928 2413.51C372.266 2418.75 370.068 2421.63 372.605 2427.54C373.789 2430.08 373.958 2431.77 373.281 2434.82C372.436 2438.71 374.296 2443.95 379.032 2446.99C381.399 2448.52 385.797 2452.24 387.996 2453.76C389.349 2454.77 392.224 2455.79 396.283 2454.94C403.048 2453.59 408.291 2457.48 412.519 2452.24C417.255 2446.49 421.314 2449.53 423.175 2440.91C424.697 2433.63 429.94 2429.91 430.616 2424.33C430.955 2420.95 429.602 2419.09 431.293 2416.04C433.661 2411.82 431.969 2405.9 433.661 2400.82C436.198 2393.38 432.815 2389.83 432.815 2384.75C432.815 2382.39 433.492 2380.86 433.492 2378.5C433.492 2376.64 431.8 2374.95 431.8 2373.08C431.8 2370.21 432.815 2368.18 433.999 2365.98C435.183 2363.78 436.029 2362.43 438.058 2361.92C442.117 2361.08 445.669 2363.28 448.037 2366.49C451.589 2371.39 452.603 2375.96 452.603 2381.37C452.603 2383.23 453.28 2385.26 453.618 2386.62C454.633 2390.34 454.633 2394.23 453.618 2398.45C451.419 2407.08 450.236 2409.11 450.236 2418.07C450.236 2419.09 449.559 2420.27 448.713 2421.46C446.346 2424.84 448.713 2426.02 446.515 2432.45C445.331 2436.34 444.823 2439.89 442.625 2443.61C440.933 2446.49 437.043 2450.04 436.536 2453.59C436.198 2455.62 436.029 2459 432.646 2460.36C426.896 2462.72 427.065 2467.63 422.667 2468.47C415.902 2469.83 414.718 2472.53 407.953 2472.03C402.879 2471.69 398.989 2472.36 396.114 2472.87Z" fill="white"/>
<path d="M272.194 2477.27C265.936 2477.27 258.325 2472.87 253.758 2468.14C252.405 2466.79 250.714 2465.94 249.192 2465.09C245.809 2463.06 242.596 2461.2 242.596 2455.96C242.596 2453.09 243.78 2451.39 245.978 2450.89C246.655 2450.72 248.008 2450.04 248.346 2449.7C249.868 2448.18 251.56 2448.01 253.589 2448.01C257.817 2448.01 259.847 2449.2 261.369 2452.58C262.722 2455.45 265.767 2455.45 267.796 2459.01C269.149 2461.2 272.194 2461.71 274.392 2461.71C278.959 2461.71 283.864 2461.54 285.217 2460.53C288.43 2457.99 291.305 2455.45 292.151 2451.56C292.827 2448.52 294.519 2449.7 294.857 2444.63C295.026 2443.11 297.056 2442.43 296.887 2439.89C296.717 2438.03 298.409 2434.82 298.409 2431.78C298.409 2429.58 297.901 2427.89 297.225 2426.87C296.041 2425.35 294.857 2424.84 292.658 2424.84C289.952 2424.84 283.018 2424.67 278.282 2420.61C272.024 2415.37 268.811 2418.75 265.767 2411.65C262.046 2403.02 256.464 2402.52 256.634 2390.85C256.803 2384.08 256.464 2376.13 259.678 2372.75C262.215 2370.04 262.891 2365.81 265.428 2362.43C267.796 2359.22 269.149 2359.05 270.502 2358.54C271.517 2358.2 272.87 2357.87 274.223 2356.51C275.576 2355.16 276.76 2353.98 279.466 2352.28L282.68 2350.25C284.878 2348.73 287.077 2348.22 289.614 2348.22C292.489 2348.22 295.534 2348.73 299.424 2349.92C301.115 2350.42 302.299 2351.27 303.314 2351.95C304.328 2352.62 305.512 2353.64 306.865 2353.98C309.571 2354.65 311.601 2356.34 313.63 2357.87C315.998 2359.73 317.69 2360.74 319.888 2361.76C322.256 2362.94 323.947 2366.49 323.947 2369.87C323.947 2373.43 317.69 2377.32 315.153 2377.32C311.601 2377.32 306.696 2375.45 303.821 2371.06C300.269 2365.81 292.997 2365.14 290.629 2365.14C289.783 2365.14 288.261 2365.65 287.415 2367C286.739 2368.35 285.724 2369.54 284.709 2370.38C282.172 2372.07 281.665 2373.09 280.481 2374.95C277.098 2380.36 274.392 2378.33 273.547 2389.83C273.377 2392.37 274.054 2394.06 274.73 2395.58C275.407 2397.1 276.591 2397.95 278.62 2399.47C281.157 2401.33 279.635 2403.36 283.018 2404.88C288.599 2407.25 288.261 2408.94 295.872 2408.6C299.254 2408.44 302.637 2409.45 305.85 2410.97C308.049 2411.82 309.91 2413.85 311.263 2416.72C311.601 2417.91 312.447 2418.92 313.123 2419.6C314.307 2420.78 315.153 2421.97 315.153 2424.84C315.153 2426.19 315.153 2427.38 315.66 2428.39C316.167 2429.75 316.337 2431.27 316.337 2432.62C316.337 2437.19 314.307 2441.58 312.447 2445.81C311.939 2447.17 311.094 2448.52 310.755 2450.04C309.233 2456.47 309.571 2458.84 306.189 2461.54C305.174 2462.39 304.328 2463.57 303.314 2465.6C302.806 2466.79 301.453 2467.97 300.777 2468.65C298.24 2471.35 293.673 2471.18 289.783 2473.89C286.4 2476.26 284.709 2474.4 281.327 2475.07C278.113 2475.75 274.9 2477.27 272.194 2477.27Z" fill="white"/>
<path d="M1409.69 1061.59C1405.29 1061.59 1402.59 1059.39 1401.4 1057.19C1400.89 1056.18 1400.56 1054.99 1400.56 1053.98C1400.56 1050.77 1402.08 1047.89 1402.59 1045.35C1402.75 1044.51 1403.26 1042.99 1403.26 1041.63C1403.26 1040.28 1402.92 1038.42 1402.92 1037.23C1402.92 1036.22 1403.26 1035.37 1403.6 1034.7C1405.29 1029.96 1406.14 1026.07 1406.64 1022.01C1407.32 1015.92 1405.46 1009.5 1408.34 1001.04C1411.21 992.585 1409.69 991.908 1411.04 985.988C1413.07 977.363 1411.89 972.627 1413.41 969.245C1414.09 967.553 1414.26 966.369 1414.26 964.847L1414.09 961.126C1414.09 959.942 1414.26 958.758 1414.42 957.405C1415.1 952.67 1418.82 949.456 1423.56 949.456C1426.94 949.456 1432.01 953.346 1432.86 958.251C1433.37 961.295 1433.87 963.832 1435.06 965.524C1436.41 967.553 1438.27 969.583 1438.44 972.796C1438.61 976.855 1441.65 981.084 1442.33 984.635C1443.51 990.893 1445.71 992.077 1446.73 994.445C1447.91 996.644 1447.4 999.688 1451.13 1005.1C1453.83 1008.99 1451.8 1009.5 1454 1015.25C1454.51 1016.6 1454.85 1016.94 1455.86 1018.8C1456.2 1016.94 1457.55 1016.09 1457.55 1008.31C1457.55 1003.07 1459.92 996.475 1459.75 990.048C1459.58 983.79 1464.15 977.194 1463.47 970.428C1462.8 962.818 1464.99 962.479 1464.32 954.53C1463.81 948.442 1466.69 943.875 1473.96 943.875C1475.65 943.875 1477.51 944.382 1478.86 945.397C1480.22 946.412 1481.23 947.934 1481.23 949.964C1481.23 952.332 1480.22 954.699 1480.22 957.236C1480.22 959.773 1481.06 962.479 1481.06 964.847C1481.06 967.046 1480.72 969.245 1479.54 974.488C1478.36 980.407 1480.05 984.635 1476.66 993.092C1475.14 996.982 1476.66 1002.06 1474.63 1005.44C1473.79 1006.96 1473.45 1008.65 1473.45 1010.17C1473.45 1010.85 1473.96 1012.54 1473.96 1014.23C1473.96 1014.91 1473.79 1015.92 1472.77 1017.95C1471.25 1021.51 1470.74 1023.87 1470.58 1026.75C1470.24 1031.65 1467.7 1032.5 1466.69 1037.91C1466.01 1041.29 1461.95 1043.15 1458.74 1043.15C1456.03 1043.15 1455.18 1041.46 1452.99 1040.11C1451.13 1038.93 1447.57 1038.59 1446.9 1035.71C1443.85 1022.18 1440.3 1024.21 1439.96 1019.31C1439.62 1015.25 1437.09 1013.56 1436.75 1010.68C1436.07 1004.76 1433.37 1004.93 1432.18 1000.03C1429.48 989.878 1428.8 989.202 1426.6 984.128C1425.76 989.202 1425.25 991.401 1425.25 997.658C1425.25 1000.53 1425.08 1004.25 1424.06 1006.62C1423.39 1008.31 1422.88 1009.84 1422.88 1011.87C1422.88 1012.71 1422.88 1013.56 1423.05 1014.4C1423.56 1017.62 1421.87 1020.66 1421.87 1024.04C1421.87 1029.96 1419.84 1042.82 1418.31 1047.04C1417.64 1049.07 1417.98 1051.78 1417.98 1054.15C1417.98 1058.88 1414.09 1061.59 1409.69 1061.59Z" fill="white"/>
<path d="M1330.97 1058.72C1325.9 1058.72 1321.84 1056.35 1316.25 1056.35C1310.84 1056.35 1306.11 1054.66 1302.72 1050.94C1300.53 1048.57 1294.44 1045.36 1293.42 1042.82C1287.5 1028.78 1284.63 1032.33 1283.44 1016.1C1282.94 1008.15 1285.47 1003.58 1286.32 992.757C1286.49 990.389 1289.53 987.007 1290.04 984.131C1291.39 975.844 1296.3 966.373 1305.6 958.593C1308.81 955.887 1311.69 957.578 1317.27 955.041C1322.85 952.504 1325.73 951.489 1331.31 951.489C1336.21 951.489 1339.76 952.842 1342.3 956.394C1347.88 959.608 1354.31 962.483 1358.03 966.373C1359.38 967.726 1359.72 969.755 1360.91 971.447C1362.09 972.8 1363.78 973.984 1364.63 974.829C1367.67 977.874 1370.38 982.778 1370.04 987.176C1369.7 992.588 1371.73 995.801 1371.73 1000.54C1371.73 1005.78 1370.71 1010.85 1369.02 1015.76C1366.66 1022.86 1368.35 1027.77 1366.99 1031.66C1365.98 1034.36 1363.61 1034.87 1362.43 1038.25C1361.58 1040.62 1360.23 1042.99 1358.2 1043.5C1355.83 1044.17 1355.49 1046.03 1354.31 1047.22C1351.6 1050.09 1351.26 1049.08 1347.21 1053.31C1344.84 1055.67 1341.46 1055.84 1338.24 1056.69C1335.54 1057.36 1334.52 1058.72 1330.97 1058.72ZM1322.51 1041.97C1324.2 1042.14 1325.9 1042.65 1327.59 1042.65C1330.29 1042.65 1333 1041.47 1334.35 1040.11C1335.37 1039.1 1336.89 1038.76 1337.9 1038.42C1340.61 1037.41 1340.1 1035.55 1341.79 1034.36C1348.22 1029.63 1352.79 1022.86 1352.79 1015.25C1352.79 1009.67 1355.32 1012.38 1355.15 998.846C1355.15 993.264 1352.45 989.374 1351.26 984.47C1349.74 977.704 1342.98 972.123 1339.59 972.123C1337.73 972.123 1335.54 972.461 1333.68 973.138C1332.49 973.645 1331.81 973.814 1330.63 973.814C1327.08 973.814 1324.54 971.616 1322.34 969.248C1318.79 969.248 1310.84 977.535 1309.32 985.315C1308.98 987.514 1307.97 989.544 1306.61 991.404C1300.53 1000.03 1303.06 1005.27 1301.03 1011.36C1300.02 1014.57 1302.89 1015.76 1302.89 1017.45C1302.89 1019.82 1302.05 1019.82 1302.05 1023.71C1302.05 1026.92 1302.89 1030.3 1304.75 1032.33C1305.94 1033.86 1307.97 1035.21 1308.98 1037.91C1309.49 1039.1 1310.84 1039.44 1311.86 1039.44C1314.56 1039.44 1315.58 1042.31 1318.45 1042.31C1319.64 1042.31 1321.33 1041.8 1322.51 1041.97Z" fill="white"/>
<path d="M1236.55 1054.15C1234.19 1055 1233.51 1055 1232.83 1055C1231.31 1055 1230.3 1054.49 1229.45 1053.81C1226.41 1051.27 1224.71 1048.06 1224.71 1043.66C1224.71 1039.77 1226.41 1040.79 1226.58 1034.19C1226.91 1025.06 1229.45 1025.06 1229.28 1007.3C1229.28 1004.59 1230.3 1003.41 1230.63 1000.7C1230.8 998.337 1230.3 994.278 1230.97 990.219C1232.16 983.285 1231.14 979.225 1231.14 974.828C1231.14 969.078 1232.66 971.784 1232.66 966.033V958.93C1232.66 955.547 1235.2 953.518 1238.58 953.518C1242.81 953.518 1245.69 954.532 1246.87 957.069C1247.72 958.761 1248.39 959.437 1249.58 960.621C1250.76 961.805 1251.44 963.665 1251.44 965.864C1251.44 966.879 1251.44 967.894 1251.1 968.908C1247.89 981.086 1249.75 982.946 1248.39 989.373C1247.38 994.447 1248.9 996.646 1248.9 998.845C1248.9 1002.06 1247.72 1005.44 1247.38 1008.65C1247.04 1011.02 1247.21 1013.22 1247.04 1015.76C1246.7 1018.8 1246.19 1021.85 1245.69 1023.37C1245.01 1025.74 1244.67 1027.09 1245.01 1028.78C1245.18 1030.13 1245.69 1033.69 1244.67 1036.73C1244 1038.76 1243.49 1041.47 1243.49 1043.66C1243.49 1050.77 1240.11 1052.97 1236.55 1054.15Z" fill="white"/>
<path d="M1140.5 1063.46C1138.64 1063.46 1136.27 1062.1 1134.58 1061.09C1131.87 1059.23 1130.69 1056.86 1129.67 1054.66C1129 1053.31 1128.32 1051.62 1129.5 1049.59C1132.72 1044.34 1129.17 1044.51 1132.72 1036.73C1134.24 1033.52 1134.24 1030.14 1134.24 1026.76C1134.24 1024.39 1134.92 1022.36 1135.25 1019.99C1135.59 1018.47 1136.78 1016.78 1136.78 1012.04C1137.11 997.326 1140.5 998.003 1140.5 989.377C1140.5 984.642 1142.7 983.796 1142.7 980.413C1142.7 977.031 1143.37 975.509 1143.37 973.817C1143.37 972.633 1143.71 971.619 1143.71 970.266C1142.36 969.927 1140.16 969.42 1137.45 969.589C1130.86 969.758 1125.28 972.126 1121.55 972.126C1117.33 972.126 1117.5 970.096 1113.77 969.758C1108.02 969.251 1103.63 965.868 1103.63 962.655C1103.63 959.441 1107.01 957.412 1107.52 954.198C1107.86 951.661 1112.25 949.801 1115.47 949.801C1117.83 949.801 1122.91 951.323 1125.44 952.338C1127.47 953.014 1129.5 953.183 1131.53 953.183C1133.39 953.183 1135.09 952.169 1138.3 952.676C1142.19 953.353 1144.39 951.661 1148.28 952.169C1151.83 952.676 1152.51 954.029 1156.9 954.029C1160.96 954.029 1163.67 956.397 1167.56 956.397C1173.65 956.397 1177.71 955.382 1184.47 958.257C1187.35 959.441 1188.53 959.61 1190.73 959.441C1194.28 959.103 1197.66 960.456 1199.86 961.64C1201.38 962.655 1201.89 962.824 1202.91 962.993C1206.8 963.669 1204.94 967.221 1207.98 969.589C1208.66 970.266 1209 971.111 1209 972.126C1209 973.817 1207.98 975.847 1206.29 976.862C1204.77 977.707 1203.58 977.2 1201.05 979.229C1199.86 980.244 1198 980.244 1196.31 980.244C1192.59 980.244 1190.39 978.891 1187.85 977.2C1185.32 975.509 1182.61 974.156 1179.9 974.832C1173.48 976.354 1173.65 974.325 1165.87 974.325C1164.68 974.325 1163.5 973.817 1162.15 973.817C1161.81 975.17 1161.64 977.031 1161.64 978.384C1161.64 983.627 1159.1 984.642 1158.93 991.745C1158.93 993.436 1158.93 995.128 1157.75 996.312C1156.06 998.003 1158.09 999.187 1156.06 1002.57C1153.86 1006.29 1155.21 1009.84 1155.21 1013.9C1155.21 1015.93 1154.37 1017.62 1153.18 1019.48C1152.17 1021.17 1152.51 1023.54 1152.34 1025.74L1152.17 1033.35C1152 1035.55 1151.83 1037.58 1151.15 1039.61C1149.8 1043.33 1147.77 1047.56 1148.62 1051.45C1149.46 1055.51 1144.73 1063.46 1140.5 1063.46Z" fill="white"/>
<path d="M1056.83 1001.38C1058.18 1001.38 1059.53 1001.21 1060.38 1000.87C1059.53 997.154 1059.03 993.771 1059.36 991.065C1060.04 986.498 1057 981.594 1056.32 978.042C1054.63 969.078 1054.12 968.571 1052.94 965.357C1052.26 968.571 1051.25 969.078 1050.4 970.938C1049.56 971.953 1048.37 976.689 1046.68 979.564C1043.64 985.653 1044.31 989.881 1042.45 994.617C1041.94 996.139 1041.27 997.492 1040.93 998.845C1041.27 998.845 1042.11 999.522 1043.64 999.691C1047.86 1000.37 1048.71 999.86 1050.91 1000.37C1052.77 1000.54 1054.8 1001.38 1056.83 1001.38ZM1051.75 1016.1C1050.74 1016.1 1049.72 1015.93 1049.05 1015.76C1046.17 1014.91 1042.79 1014.57 1040.25 1014.57H1035.86C1035.69 1015.08 1035.35 1015.42 1034.16 1019.31C1033.15 1022.86 1030.78 1027.09 1028.75 1031.83C1027.74 1034.02 1028.41 1035.88 1027.57 1037.07C1024.52 1041.3 1027.91 1042.99 1027.91 1046.54C1027.91 1050.09 1022.66 1052.63 1019.45 1052.63C1012.68 1052.63 1008.79 1049.42 1008.79 1043.16C1008.79 1040.28 1009.13 1037.07 1010.66 1034.36C1016.07 1024.55 1015.39 1015.25 1021.99 1003.41C1023.34 1000.87 1024.35 998.168 1025.03 995.462C1027.23 986.329 1030.78 977.535 1034 970.093C1035.18 967.218 1036.36 966.034 1037.04 964.85C1038.56 961.636 1039.41 958.254 1040.08 954.702C1040.76 951.15 1041.94 947.599 1044.65 944.892C1047.02 942.525 1049.89 942.355 1052.6 942.355C1053.95 942.355 1055.81 943.539 1057.17 944.723C1057.84 945.4 1058.69 945.907 1059.36 946.584C1060.38 947.768 1060.89 948.952 1061.56 950.812C1062.07 952.334 1064.27 954.195 1065.79 956.393C1070.36 962.989 1068.5 965.526 1070.36 968.571C1071.54 970.431 1072.05 972.63 1072.9 978.042C1073.74 983.962 1075.09 986.329 1075.09 989.205C1075.09 990.896 1075.09 991.742 1075.77 993.771C1076.95 997.492 1077.63 1000.71 1077.63 1004.26C1077.63 1011.36 1079.66 1021.34 1079.66 1024.05C1079.66 1026.41 1079.15 1027.43 1079.15 1030.98C1079.15 1033.69 1080.34 1034.53 1080.34 1040.11C1080.34 1041.97 1080.34 1044.68 1079.83 1046.54C1079.15 1049.08 1076.28 1052.29 1073.74 1052.46C1068.5 1052.8 1063.42 1049.75 1063.42 1044.68C1063.42 1044 1063.42 1043.33 1063.59 1042.65C1064.1 1040.45 1064.27 1039.44 1064.27 1038.76C1064.27 1036.56 1061.39 1031.32 1061.56 1016.1H1051.75Z" fill="white"/>
<path d="M971.697 1058.72C966.454 1058.72 959.52 1053.81 959.52 1047.39V1043.84C959.52 1042.82 959.52 1041.47 960.196 1038.59C961.211 1034.2 960.703 1027.94 961.211 1021.51C961.38 1017.96 961.887 1014.07 962.226 1011.87C962.733 1008.83 963.071 1007.64 963.071 1005.78C963.071 1004.26 962.395 1002.91 962.733 1000.54C962.902 999.354 963.24 996.986 963.24 994.957C963.24 992.589 962.395 990.729 962.056 986.162C961.887 983.287 961.718 980.243 961.887 977.367C962.226 971.617 962.226 970.602 960.873 962.146C960.534 959.439 960.534 958.086 960.534 957.072C960.534 953.013 962.733 950.476 966.116 950.476C968.314 950.476 969.498 952.167 971.866 952.843C975.925 954.027 977.786 956.226 977.786 961.638L977.447 965.866C977.447 966.543 977.616 967.219 977.786 967.727C978.631 969.756 978.969 971.786 978.969 973.816C978.969 975.676 978.8 977.367 978.631 979.059C978.462 980.919 978.293 982.61 978.293 984.302C978.293 985.824 978.462 987.346 979.139 988.868C979.308 989.376 979.477 990.052 979.477 990.729L979.308 996.31C979.308 998.339 979.646 1000.37 980.323 1002.57C980.492 1003.41 980.661 1004.26 980.661 1006.8C980.661 1010.35 979.984 1015.59 978.631 1021C978.124 1023.03 977.955 1024.89 977.955 1026.92C977.955 1028.44 977.955 1029.8 978.293 1031.32C978.631 1032.67 978.8 1034.36 978.8 1035.89C978.8 1038.42 977.786 1040.79 977.616 1043.33C977.447 1046.03 977.955 1048.74 977.786 1051.62C977.616 1053.14 977.278 1054.83 976.602 1056.18C975.756 1058.21 974.065 1058.72 971.697 1058.72Z" fill="white"/>
<path d="M874.154 1063.29C873.139 1063.29 871.617 1063.12 870.602 1062.78C865.867 1061.09 861.977 1060.07 858.087 1056.01C856.057 1053.81 852.505 1053.98 849.968 1050.94C848.277 1048.74 846.755 1047.39 846.078 1043.33C845.571 1039.95 842.358 1038.76 841.681 1034.36C841.174 1031.15 840.497 1027.77 840.497 1024.39C840.497 1022.36 841.174 1020.67 841.174 1018.3C841.174 1015.76 840.497 1012.72 840.497 1009.5C840.497 1002.23 840.666 995.296 842.358 988.361C843.541 983.626 847.262 980.751 849.123 975C850.814 969.588 856.395 966.882 859.609 963.668C862.315 960.962 861.977 956.903 866.881 954.874C870.941 953.182 873.816 949.969 878.382 949.292C880.919 948.954 883.456 948.954 886.162 948.954C888.699 948.954 891.405 949.123 894.111 949.631C900.2 950.645 903.583 952.675 907.134 954.874C910.517 956.903 913.223 957.241 915.591 958.425C920.834 960.793 923.878 964.514 926.077 967.389C928.614 970.603 928.445 972.632 930.136 974.324C932.166 976.353 932.673 977.875 932.673 979.736C932.673 980.751 930.982 987.685 927.43 987.685C924.217 987.685 921.172 985.486 919.481 982.273C918.128 979.736 916.944 977.875 915.591 976.015C912.208 971.787 907.304 973.14 903.921 970.434C896.987 964.852 893.773 967.728 888.361 967.22C885.824 967.051 883.118 968.066 881.088 969.588C878.89 971.279 877.706 971.956 874.661 972.801C871.786 973.478 872.294 975.508 868.404 983.288C867.727 984.81 865.698 986.67 864.344 988.869C862.822 991.406 862.653 993.943 861.131 996.649C859.778 999.186 859.101 1002.23 858.932 1005.11C858.763 1008.32 859.609 1009.5 858.594 1014.91C858.087 1017.45 858.594 1019.65 859.271 1022.19C859.947 1025.06 859.947 1027.43 860.116 1031.32C860.285 1034.53 862.315 1037.41 864.344 1039.44C866.036 1041.13 867.051 1043.16 869.757 1043.84C873.139 1044.68 875.507 1043.5 878.551 1043.5C880.75 1043.5 884.302 1044.34 888.023 1044.34C893.266 1044.34 895.126 1041.98 899.862 1041.98C902.23 1041.98 904.936 1042.99 907.642 1044.68C910.686 1046.54 910.855 1050.6 910.855 1053.48C910.855 1056.01 910.517 1059.06 908.657 1060.41C906.627 1061.76 904.428 1062.27 902.061 1062.27C900.2 1062.27 898.34 1061.76 896.818 1061.76C892.42 1061.76 892.758 1063.46 887.684 1063.46C884.471 1063.46 881.934 1062.44 879.566 1062.44C877.537 1062.44 876.014 1063.29 874.154 1063.29Z" fill="white"/>
<path d="M767.229 1063.45C765.538 1063.45 763.677 1063.28 761.817 1062.27C758.434 1060.57 755.052 1059.73 751.838 1059.22C749.978 1058.88 747.948 1058.04 746.426 1057.36C740.168 1054.15 733.403 1048.23 731.035 1042.99C730.02 1040.96 729.344 1038.76 728.498 1037.4C726.299 1033.85 724.101 1031.82 722.071 1025.06C721.056 1021.68 720.38 1018.12 720.38 1014.74C720.38 1012.03 720.549 1009.33 721.056 1006.45C721.395 1003.75 723.593 1000.03 724.101 998.166C724.946 995.291 724.777 991.908 725.792 989.709C727.991 984.805 729.851 980.745 731.542 977.87C732.726 976.01 735.771 971.951 736.616 970.259C739.999 963.663 744.904 958.42 750.992 956.391C753.868 955.376 756.066 951.148 759.449 949.795C763.001 948.272 766.722 947.427 770.273 947.427C773.656 947.427 779.237 948.103 783.127 950.133C789.385 953.346 791.246 953.008 796.15 955.883C798.687 957.405 799.195 960.112 801.732 962.31C804.776 965.016 806.636 966.708 807.82 969.752C809.173 973.304 812.218 977.194 812.218 980.915C812.218 982.775 811.034 984.635 810.019 986.158C809.173 987.342 808.328 988.525 806.806 988.525C805.622 988.525 801.393 987.342 800.209 986.834C798.518 986.158 797.842 985.481 796.658 984.297C795.136 982.775 795.305 980.069 791.753 977.194C789.723 975.672 787.186 971.782 786.341 969.752C785.664 968.23 784.988 967.553 783.466 966.877C782.112 966.2 781.267 966.369 779.237 965.355C778.392 965.016 777.377 964.678 776.362 964.678C775.178 964.678 773.994 965.016 772.979 965.693C769.597 968.061 767.06 969.414 764.861 969.752C763.001 969.921 761.986 970.598 760.802 972.289C759.449 974.318 756.574 974.488 754.883 978.716C753.699 981.76 751.5 981.253 749.978 984.466C747.948 988.356 747.779 990.893 745.749 994.107C742.198 999.688 743.889 1003.58 742.367 1007.13C740.845 1010.68 739.83 1013.73 739.83 1017.62C739.83 1025.9 742.705 1027.09 744.396 1031.15C745.749 1034.53 746.595 1037.07 750.485 1039.77C753.699 1041.97 758.265 1044.85 762.662 1044.85C765.538 1044.85 766.552 1044.17 768.413 1043.83C770.95 1043.32 772.81 1044.34 776.531 1044.34C788.539 1044.34 786.341 1041.29 793.106 1040.11C797.842 1039.26 796.996 1036.9 800.379 1036.9C804.269 1036.9 808.328 1039.77 810.357 1042.31C811.71 1044 812.556 1045.35 812.556 1046.88C812.556 1047.55 812.387 1048.23 811.879 1048.9C810.865 1050.77 809.173 1050.43 808.159 1053.47C807.651 1054.99 806.636 1056.18 804.607 1057.19C796.319 1061.59 788.709 1062.6 784.649 1062.6C781.605 1062.6 778.392 1062.27 777.377 1062.27C773.825 1062.27 770.95 1063.45 767.229 1063.45Z" fill="white"/>
<path d="M665.601 1058.21C660.696 1058.38 656.637 1059.22 653.593 1058.04C652.409 1057.53 651.901 1056.86 649.026 1052.63C647.673 1050.6 645.644 1050.09 643.783 1046.37C641.754 1042.31 641.077 1036.22 642.092 1031.15C643.783 1022.35 641.923 1020.16 641.923 1015.59C641.923 1010.18 641.754 1006.12 641.584 1003.75C641.415 1001.89 641.753 1000.54 642.261 999.86C642.937 998.845 643.276 997.999 643.276 996.984L643.445 987.682C643.445 987.344 644.121 984.13 643.952 982.439C643.783 980.071 641.923 976.689 641.584 973.983C641.246 971.615 641.923 969.754 641.584 967.386C641.246 965.864 640.231 963.666 640.231 962.143C640.231 960.114 639.724 959.437 639.555 957.915C639.217 955.547 640.57 952.334 644.46 950.643C649.703 948.444 653.931 950.135 663.233 948.275C670.167 946.922 672.366 948.275 676.087 949.459C682.852 951.826 685.897 951.657 688.264 952.672C692.493 954.702 695.875 957.408 695.875 961.805C695.875 962.989 695.199 964.173 694.86 965.526C694.353 967.556 692.324 968.232 689.617 968.401C686.573 968.57 686.911 969.923 684.544 969.585C682.683 969.247 680.315 967.556 677.102 966.372C674.903 965.526 665.77 967.048 659.174 966.372C658.667 967.725 658.497 968.232 658.497 970.6C658.497 975.166 659.85 978.042 659.85 979.902C659.85 982.439 658.667 985.653 658.667 987.175C658.667 987.851 658.497 988.697 658.497 990.896C658.497 994.109 658.836 994.955 658.836 995.97L671.52 996.477C677.44 996.646 683.36 998.337 685.389 1000.37C687.588 1002.57 687.25 1004.43 686.911 1005.78C686.404 1007.81 687.25 1008.65 686.911 1011.53C686.573 1014.07 682.683 1016.6 679.47 1016.6C677.778 1016.6 675.241 1015.76 673.719 1014.74C671.013 1013.05 666.616 1011.87 661.204 1011.87C660.02 1011.87 659.174 1012.04 658.328 1012.38C658.667 1015.08 659.343 1018.46 659.343 1020.49C659.343 1023.54 657.652 1025.74 657.99 1030.98C658.159 1033.52 659.005 1033.69 659.005 1037.58C659.005 1039.61 659.681 1040.62 660.02 1041.13C661.034 1040.79 662.895 1040.62 664.248 1040.62C665.77 1040.62 670.506 1038.93 673.55 1039.27C678.624 1039.77 679.3 1038.76 682.345 1038.76C683.698 1038.76 685.558 1039.27 687.25 1041.47C689.956 1045.19 692.831 1046.03 693.169 1049.41C693.507 1052.63 691.309 1054.15 689.11 1055.33C686.404 1056.86 683.36 1057.53 680.653 1057.03C672.197 1055.5 669.829 1058.04 665.601 1058.21Z" fill="white"/>
<path d="M551.447 1067.85C547.388 1067.85 542.821 1063.96 542.145 1060.75C540.792 1053.81 538.593 1053.31 539.777 1046.03C541.13 1037.07 539.608 1038.09 539.608 1032.5C539.608 1028.61 540.284 1022.69 540.284 1019.65C540.284 1016.44 539.439 1014.24 538.593 1009.16C537.916 1003.92 537.071 997.664 537.071 992.759C537.071 985.486 535.21 984.641 534.365 979.567C533.857 976.861 534.703 973.478 531.828 967.897C529.798 964.007 529.967 959.609 529.967 956.903C529.967 953.521 531.151 951.998 531.828 951.322L536.394 946.925C537.578 945.741 539.946 944.557 541.976 944.218C545.527 943.711 548.233 942.189 550.432 941.005C555.168 938.468 560.918 937.792 566.33 937.284C570.22 936.946 573.434 937.453 576.816 939.483L580.537 941.851C582.736 943.204 583.074 944.218 586.795 946.079C592.715 948.954 591.531 952.337 596.774 957.242C601.171 961.47 602.524 966.036 602.524 968.404C602.524 973.816 600.326 972.463 600.326 978.721C600.326 980.92 599.311 984.979 597.789 986.67C595.928 988.869 592.715 994.619 590.009 995.972C584.935 998.509 584.089 999.017 582.398 1000.03C584.089 1001.22 584.427 1002.57 585.273 1002.91C587.303 1003.92 588.486 1004.26 588.825 1004.43C589.839 1004.94 590.854 1005.61 591.7 1006.63C593.56 1008.83 593.053 1010.18 594.744 1012.04C597.619 1015.08 596.774 1014.58 598.127 1017.79C598.634 1018.97 600.833 1020.67 601.34 1021.85L603.201 1025.57C604.046 1027.26 603.877 1028.78 604.554 1030.47C604.892 1031.15 605.738 1032 605.907 1032.67C606.753 1035.04 607.091 1037.24 607.091 1039.61C607.091 1042.82 605.907 1044.51 602.355 1046.03C601.34 1046.37 600.495 1046.71 599.48 1046.71C598.803 1046.71 595.59 1046.71 593.899 1044.68C590.009 1039.95 588.486 1041.98 587.641 1035.21C586.457 1026.08 584.935 1029.29 582.736 1024.56C581.89 1022.86 582.736 1021.68 579.692 1019.82C574.11 1016.44 574.956 1013.22 568.698 1012.38C565.654 1012.04 565.823 1009.33 562.779 1009.33C561.933 1009.33 560.749 1009.67 559.734 1010.01C558.381 1010.52 555.506 1010.01 554.491 1009.33C554.999 1013.22 555.675 1016.44 556.013 1018.3C556.183 1019.31 556.352 1020.5 556.352 1021.85C556.352 1024.89 555.506 1030.47 555.506 1032.34C555.506 1035.04 556.859 1035.38 556.69 1038.76C556.521 1041.47 555.675 1042.48 555.844 1049.42C556.013 1055.17 556.69 1056.86 557.028 1057.54C557.366 1058.38 557.536 1059.23 557.536 1060.07C557.536 1063.79 554.999 1067.85 551.447 1067.85ZM565.823 990.898C568.867 990.898 571.404 989.376 573.603 986.67C574.956 984.979 576.478 983.288 578.169 981.765C579.353 980.751 580.706 979.567 581.383 976.522C582.905 969.926 584.258 969.757 584.258 966.713C584.258 965.36 583.413 964.176 582.736 963.668C580.537 961.639 577.493 958.087 575.294 956.396C573.941 955.212 572.419 954.705 570.559 954.705C569.713 954.705 568.867 954.874 567.853 955.043C566.499 955.212 565.146 955.55 563.793 955.888L559.734 956.903C556.521 957.411 553.984 958.764 551.278 961.639C549.248 963.838 548.572 965.698 548.572 967.558C548.572 968.235 548.572 969.081 548.91 969.926C549.586 971.956 550.601 975.508 550.432 977.199C549.925 981.089 551.109 984.979 552.969 992.421C554.66 992.252 557.366 989.545 560.242 989.545C563.117 989.545 563.624 990.898 565.823 990.898Z" fill="white"/>
<path d="M454.696 1055.84C451.144 1055.84 450.806 1054.32 448.946 1052.63C447.931 1051.61 446.409 1051.44 445.563 1048.91C445.056 1047.05 445.056 1045.02 445.056 1042.31L444.887 1029.96C444.887 1026.75 445.732 1023.87 445.732 1021.17C445.732 1019.48 445.056 1018.12 445.225 1015.42C445.225 1014.91 445.394 1014.23 445.394 1013.56L445.901 1007.81C446.07 1005.1 446.916 1002.06 447.085 999.689C447.254 997.321 446.409 995.123 446.409 992.924C446.409 990.725 447.254 988.865 447.085 986.328C446.916 982.1 444.379 977.364 444.887 971.444C445.056 969.753 443.703 966.54 443.364 965.525C442.857 964.172 442.35 962.142 442.35 960.789C442.35 956.899 444.548 955.039 447.424 953.855C451.144 952.163 452.328 949.796 455.711 949.626C458.924 949.457 461.292 949.626 463.322 949.288C465.52 948.95 467.55 948.273 469.918 948.273C472.793 948.273 477.021 951.487 481.25 951.318C485.309 951.149 485.816 953.178 488.184 953.855C492.412 955.039 496.81 958.252 500.53 963.664C502.56 966.37 502.729 967.216 504.59 979.055C504.928 980.916 504.42 982.438 503.913 983.622C502.56 986.497 501.207 989.541 500.53 992.416C500.023 994.615 501.207 996.645 499.347 998.336C496.979 1000.37 497.486 1002.56 495.795 1003.75C494.104 1005.27 490.552 1006.79 487.677 1007.13C479.558 1008.15 482.603 1009.84 476.514 1009.84C473.131 1009.84 467.719 1008.65 465.013 1008.65C463.829 1008.65 462.645 1008.65 461.969 1008.82C461.63 1009.5 461.8 1010.34 461.969 1011.53C462.476 1018.63 462.476 1021.85 461.292 1026.58C460.616 1029.29 460.447 1030.47 460.447 1031.82C460.447 1033.68 460.954 1036.05 461.292 1038.08C461.461 1039.1 460.785 1040.79 460.954 1041.8C461.123 1043.32 462.138 1044.17 462.138 1045.69C462.138 1046.88 461.969 1048.06 461.63 1049.41C460.616 1053.13 458.417 1055.84 454.696 1055.84ZM465.859 993.77C468.734 993.77 469.749 993.093 472.286 993.093C474.315 993.093 477.529 993.77 478.544 993.77C481.419 993.77 483.617 991.74 484.125 989.034C485.478 981.761 488.184 984.636 487.169 974.32C486.831 970.43 484.801 967.723 481.757 967.216C476.007 966.37 475.668 963.495 469.58 964.679C466.874 965.186 464.675 963.664 461.63 965.186C460.277 965.863 459.939 966.709 459.939 968.062C459.939 968.907 460.108 969.584 460.277 970.599C460.616 971.952 461.461 973.812 461.123 976.18C460.616 980.07 462.814 983.791 462.476 985.99C462.138 988.357 461.461 990.218 461.461 991.402C461.461 992.078 461.63 992.586 461.8 993.431C462.645 993.6 463.829 993.77 465.859 993.77Z" fill="white"/>
<path d="M360.67 1057.7C358.641 1057.7 356.442 1056.86 355.089 1055.33C352.552 1052.46 351.537 1049.92 351.537 1046.88L351.706 1042.31C351.706 1041.3 352.383 1039.1 352.383 1035.71C352.383 1034.53 352.383 1033.35 352.044 1031.82C351.875 1031.32 351.875 1030.64 351.875 1029.96C351.875 1028.27 352.89 1026.07 352.89 1024.38C352.89 1021.85 351.875 1020.32 352.214 1017.79C352.89 1013.22 353.398 1009.16 353.398 1006.12C353.398 1001.21 352.383 997.829 352.383 993.77C352.383 991.74 352.89 989.372 353.228 985.99C354.074 978.548 352.89 974.658 353.736 965.863C353.905 963.834 355.258 962.988 355.258 960.282C355.258 957.238 356.611 953.178 358.81 949.458C359.655 947.935 360.67 946.413 363.207 944.891C364.729 944.045 366.251 943.538 367.943 943.538C369.634 943.538 371.156 943.876 372.509 943.876C373.862 943.876 376.568 942.692 379.274 942.692C381.981 942.692 384.687 943.876 386.885 945.06C391.959 947.597 397.033 950.98 399.401 956.73C400.585 959.605 401.431 961.297 402.953 962.312C404.813 963.665 406.166 965.525 407.181 967.047C407.858 968.062 408.534 969.077 409.38 970.092C410.056 971.106 410.394 972.628 410.394 973.982C410.394 976.518 411.071 979.055 413.101 982.269C413.777 983.453 414.284 984.806 414.284 986.666C414.284 992.248 410.394 994.615 408.365 1001.21C407.181 1005.1 402.784 1006.62 400.585 1007.47C395.342 1009.33 397.202 1010.18 393.312 1011.87C392.128 1012.37 390.437 1012.71 388.069 1012.2C386.209 1011.87 385.701 1010.85 382.657 1011.19C380.797 1011.36 378.767 1010.68 376.738 1009.67C375.554 1008.99 373.693 1008.31 372.509 1007.81C371.664 1007.47 370.987 1007.3 369.296 1005.44C368.619 1006.96 368.45 1008.31 369.127 1010.85C369.972 1013.73 368.619 1016.43 368.788 1017.96C369.127 1020.15 369.634 1021 369.634 1021.68C369.634 1023.87 369.296 1025.9 368.788 1027.93C368.619 1028.95 368.45 1029.96 368.45 1030.98C368.45 1031.49 368.45 1032.16 368.619 1032.67C368.788 1033.35 368.958 1034.19 368.958 1035.04C368.958 1036.73 368.45 1038.42 367.774 1040.28C367.435 1041.13 367.266 1041.97 367.266 1042.82C367.266 1044.51 368.958 1045.35 368.112 1047.38C367.943 1047.89 367.604 1048.23 367.604 1048.91C367.604 1049.75 367.943 1050.26 367.943 1051.44C367.943 1054.83 365.068 1057.7 360.67 1057.7ZM383.503 996.476C391.621 996.476 390.437 993.093 394.665 991.402C396.357 990.725 398.048 988.865 397.71 985.652C397.541 982.945 397.033 980.239 395.173 978.21C392.636 975.335 391.959 973.474 391.621 972.29C390.944 970.092 389.591 968.4 386.885 965.694L386.04 964.679C385.194 963.665 384.179 962.65 383.503 961.466C382.657 960.282 381.642 959.944 380.628 959.944C378.767 959.944 376.907 960.958 375.892 961.466C374.539 962.142 373.862 962.65 373.524 963.665C372.34 967.216 369.803 967.047 369.803 969.415V973.982C369.803 975.335 369.803 976.349 370.141 977.533C370.48 978.548 370.649 979.732 370.649 980.747C370.649 982.438 369.634 985.821 369.634 987.174C369.634 988.527 370.311 989.711 371.833 990.725C372.678 991.402 376.907 992.417 377.921 993.262C379.444 994.615 381.642 996.476 383.503 996.476Z" fill="white"/>
<path d="M290.291 1001.38C291.644 1001.38 292.997 1001.21 293.843 1000.87C292.997 997.154 292.49 993.771 292.828 991.065C293.504 986.498 290.46 981.594 289.783 978.042C288.092 969.078 287.585 968.571 286.401 965.357C285.724 968.571 284.71 969.078 283.864 970.938C283.018 971.953 281.834 976.689 280.143 979.564C277.099 985.653 277.775 989.881 275.915 994.617C275.407 996.139 274.731 997.492 274.393 998.845C274.731 998.845 275.576 999.522 277.099 999.691C281.327 1000.37 282.173 999.86 284.371 1000.37C286.232 1000.54 288.261 1001.38 290.291 1001.38ZM285.217 1016.1C284.202 1016.1 283.187 1015.93 282.511 1015.76C279.636 1014.91 276.253 1014.57 273.716 1014.57H269.319C269.15 1015.08 268.811 1015.42 267.627 1019.31C266.613 1022.86 264.245 1027.09 262.215 1031.83C261.2 1034.02 261.877 1035.88 261.031 1037.07C257.987 1041.3 261.37 1042.99 261.37 1046.54C261.37 1050.09 256.127 1052.63 252.913 1052.63C246.148 1052.63 242.258 1049.42 242.258 1043.16C242.258 1040.28 242.596 1037.07 244.118 1034.36C249.53 1024.55 248.854 1015.25 255.45 1003.41C256.803 1000.87 257.818 998.168 258.494 995.462C260.693 986.329 264.245 977.535 267.458 970.093C268.642 967.218 269.826 966.034 270.503 964.85C272.025 961.636 272.87 958.254 273.547 954.702C274.223 951.15 275.407 947.599 278.113 944.892C280.481 942.525 283.356 942.355 286.063 942.355C287.416 942.355 289.276 943.539 290.629 944.723C291.306 945.4 292.151 945.907 292.828 946.584C293.843 947.768 294.35 948.952 295.026 950.812C295.534 952.334 297.733 954.195 299.255 956.393C303.821 962.989 301.961 965.526 303.821 968.571C305.005 970.431 305.513 972.63 306.358 978.042C307.204 983.962 308.557 986.329 308.557 989.205C308.557 990.896 308.557 991.742 309.233 993.771C310.417 997.492 311.094 1000.71 311.094 1004.26C311.094 1011.36 313.123 1021.34 313.123 1024.05C313.123 1026.41 312.616 1027.43 312.616 1030.98C312.616 1033.69 313.8 1034.53 313.8 1040.11C313.8 1041.97 313.8 1044.68 313.293 1046.54C312.616 1049.08 309.741 1052.29 307.204 1052.46C301.961 1052.8 296.887 1049.75 296.887 1044.68C296.887 1044 296.887 1043.33 297.056 1042.65C297.563 1040.45 297.733 1039.44 297.733 1038.76C297.733 1036.56 294.857 1031.32 295.026 1016.1H285.217Z" fill="white"/>
<g clip-path="url(#clip0_419_2743)">
<path d="M1957.3 828.528L1960.39 829.549L1963.48 828.528C1990.77 819.751 2159.17 710.332 2211.49 589.788C2243.21 516.707 2243.21 448.728 2211.49 398.408C2184.09 355.131 2136.3 329.205 2083.57 329.205C2033.72 329.205 1988.82 353.191 1960.49 394.121C1932.07 353.191 1887.16 329.205 1837.32 329.205C1784.58 329.205 1736.69 355.029 1709.4 398.408C1677.57 448.728 1677.57 516.707 1709.4 589.89C1761.72 710.332 1930.11 819.853 1957.41 828.631L1957.3 828.528Z" fill="#B6D433"/>
</g>
<g clip-path="url(#clip1_419_2743)">
<path d="M1958.07 2080.22H1856.08C1846.77 2080.22 1839.28 2072.7 1839.28 2063.55V2051.86C1839.37 2041.8 1838.92 2034.73 1837.82 2030.74C1832.07 2009.9 1816.91 1992.5 1802.31 1975.55C1797.47 1970.02 1792.9 1964.77 1788.7 1959.42C1767.61 1932.77 1756.38 1900.78 1756.38 1866.89C1756.38 1784.14 1824.22 1716.9 1907.58 1716.9C1990.93 1716.9 2058.68 1784.14 2058.68 1866.89C2058.68 1900.78 2047.54 1932.77 2026.36 1959.42C2022.62 1964.13 2018.42 1969.02 2013.94 1974.28C1998.88 1991.86 1982.17 2011.44 1976.33 2032.1C1975.32 2035.82 1974.77 2042.43 1974.87 2051.68V2063.46C1974.87 2072.7 1967.38 2080.13 1958.07 2080.13V2080.22Z" fill="#BBA5D0"/>
<path d="M1958.07 2124.36H1856.08C1846.77 2124.36 1839.28 2116.93 1839.28 2107.69C1839.28 2098.44 1846.77 2091.01 1856.08 2091.01H1958.07C1967.38 2091.01 1974.87 2098.44 1974.87 2107.69C1974.87 2116.93 1967.38 2124.36 1958.07 2124.36Z" fill="#BBA5D0"/>
<path d="M1932.59 2168.5H1881.65C1872.33 2168.5 1864.85 2161.06 1864.85 2151.82C1864.85 2142.58 1872.33 2135.15 1881.65 2135.15H1932.59C1941.81 2135.15 1949.39 2142.67 1949.39 2151.82C1949.39 2160.97 1941.81 2168.5 1932.59 2168.5Z" fill="#BBA5D0"/>
<path d="M2176.19 1883.56H2108.99C2099.68 1883.56 2092.19 1876.13 2092.19 1866.89C2092.19 1857.64 2099.77 1850.21 2108.99 1850.21H2176.19C2185.5 1850.21 2192.98 1857.64 2192.98 1866.89C2192.98 1876.13 2185.5 1883.56 2176.19 1883.56Z" fill="#BBA5D0"/>
<path d="M1706.08 1883.56H1638.88C1629.56 1883.56 1622.08 1876.13 1622.08 1866.89C1622.08 1857.64 1629.56 1850.21 1638.88 1850.21H1706.08C1715.39 1850.21 1722.87 1857.64 1722.87 1866.89C1722.87 1876.13 1715.39 1883.56 1706.08 1883.56Z" fill="#BBA5D0"/>
<path d="M1907.49 1683.64C1898.17 1683.64 1890.69 1676.21 1890.69 1666.96V1600.26C1890.69 1591.11 1898.17 1583.59 1907.49 1583.59C1916.8 1583.59 1924.29 1591.02 1924.29 1600.26V1666.96C1924.29 1676.21 1916.8 1683.64 1907.49 1683.64Z" fill="#BBA5D0"/>
<path d="M2097.39 2072.16C2093.1 2072.16 2088.81 2070.53 2085.52 2067.27L2038.05 2020.14C2031.47 2013.61 2031.47 2003.1 2038.05 1996.58C2044.62 1990.05 2055.21 1990.14 2061.78 1996.58L2109.26 2043.7C2115.84 2050.23 2115.84 2060.83 2109.26 2067.36C2105.97 2070.62 2101.68 2072.25 2097.39 2072.25V2072.16Z" fill="#BBA5D0"/>
<path d="M1764.96 1742.18C1760.67 1742.18 1756.38 1740.55 1753.1 1737.29L1705.62 1690.16C1699.05 1683.64 1699.05 1673.04 1705.62 1666.51C1712.19 1659.99 1722.78 1659.99 1729.36 1666.51L1776.83 1713.64C1783.41 1720.16 1783.41 1730.77 1776.83 1737.29C1773.55 1740.55 1769.26 1742.18 1764.96 1742.18Z" fill="#BBA5D0"/>
<path d="M1717.49 2072.16C1713.2 2072.16 1708.91 2070.53 1705.62 2067.27C1699.05 2060.74 1699.05 2050.14 1705.62 2043.61L1753.1 1996.49C1759.58 1989.96 1770.26 1989.96 1776.83 1996.49C1783.41 2003.01 1783.41 2013.61 1776.83 2020.14L1729.36 2067.27C1726.07 2070.53 1721.78 2072.16 1717.49 2072.16Z" fill="#BBA5D0"/>
<path d="M2049.92 1742.28C2045.62 1742.28 2041.33 1740.64 2038.05 1737.38C2031.56 1730.86 2031.56 1720.34 2038.05 1713.82L2085.52 1666.69C2092.01 1660.17 2102.78 1660.17 2109.26 1666.69C2115.83 1673.22 2115.83 1683.73 2109.26 1690.26L2061.78 1737.38C2058.5 1740.64 2054.21 1742.28 2049.92 1742.28Z" fill="#BBA5D0"/>
</g>
<path d="M985.444 567.832C988.471 516.413 967.411 470.788 932.217 465.516C888.166 458.862 873.494 507.446 859.129 579.759C844.966 647.571 838.858 672.056 830.291 670.46C822.346 669.717 821.706 649.716 830.357 557.613C840.694 440.329 838.114 376.445 780.373 367.136C719.609 357.856 700.307 435.945 675.978 557.331C658.831 642.56 645.362 731.641 607.991 725.778C581.929 721.69 583.081 683.833 595.458 540.671C612.595 343.086 606.591 215.934 531.355 204.134C459.071 192.796 442.372 260.714 388.322 470.394C346.18 633.072 314.146 710.423 286.307 764.248C279.129 779.497 282.663 793.907 295.506 801.968C308.71 809.328 324.205 803.697 332.313 787.335C361.884 730.507 396.081 644.174 437.915 483.464C483.715 305.489 493.367 253.598 525.045 258.818C564.176 264.704 560.428 368.912 544.425 535.185C527.221 717.14 535.615 777.657 602 788.069C678.71 800.102 699.901 697.117 725.571 570.399C745.652 471.271 755.588 419.172 774.481 422.386C793.865 425.679 788.172 476.429 779.227 584.86C771.255 683.872 782.757 722.96 822.589 729.208C859.96 735.069 883.158 696.387 899.615 620.37C913.345 558.537 918.122 523.263 925.215 524.625C932.095 525.707 936.956 546.119 933.459 570.007C931.071 585.25 941.745 597.504 957.198 600.178C972.308 601.795 984.796 589.644 985.444 567.832Z" fill="#B6D433"/>
<path d="M402.139 230.068C414.046 205.158 430.306 180.254 455.723 163.985C483.073 146.479 512.664 144.135 540.091 148.437L543.483 149.013C578.269 155.445 604.81 175.631 622.737 203.106C639.912 229.429 648.853 261.664 653.789 294.305C658.347 324.455 660.051 359.283 659.73 397.777C660.896 394.994 662.097 392.276 663.319 389.626C672.954 368.728 686.816 346.399 708.399 330.49C731.329 313.588 758.261 307.382 786.182 311.022L788.885 311.402L789.347 311.474C814.504 315.53 837.871 326.536 855.946 346.662C873.114 365.78 881.636 388.847 886.106 410.477C886.479 412.284 886.816 414.117 887.146 415.97C904.283 408.716 922.581 407.053 940.569 409.759L944.427 410.413C983.826 417.824 1009.56 446.221 1023.55 474.071C1038.09 503.021 1043.7 537.51 1041.72 571.147L1041.72 571.145C1040.81 591.588 1034.24 613.476 1018.33 630.856C1001.18 649.59 976.634 658.959 951.197 656.236L949.385 656.041L949.083 655.988C941.094 686.691 930.616 715.04 915.577 737.175C905.732 751.665 892.337 765.911 874.052 775.402C854.958 785.313 834.227 788.1 813.856 784.905C795.012 781.95 775.792 774.368 759.516 759.245C752.205 752.454 746.312 744.891 741.542 736.945C739.238 743.005 736.841 748.858 734.312 754.46C723.424 778.578 707.909 803.931 684.024 821.956C658.008 841.589 626.718 849.01 593.265 843.762C568.365 839.857 543.034 830.198 522.46 809.358C502.43 789.069 492.148 763.455 486.699 737.566C476.395 688.613 479.835 619.377 488.297 529.876L488.307 529.784C489.137 521.157 489.92 512.738 490.672 504.531C449.051 663.159 414.122 752.25 382.326 813.356L382.312 813.349C373.048 831.523 357.628 847.811 336.193 856.117C313.737 864.817 289.046 862.908 268.057 851.208L266.779 850.495L265.541 849.72C247.718 838.534 233.977 821.072 228.629 799.18C223.42 777.851 227.313 757.2 235.299 740.235L235.748 739.286L236.23 738.347C261.531 689.429 292.267 616.374 333.733 456.321L343.254 419.389C364.801 335.99 382.035 272.127 402.139 230.068Z" fill="#B6D433"/><path d="M531.355 204.136C459.071 192.799 442.373 260.717 388.324 470.396C346.182 633.07 314.146 710.419 286.307 764.244C279.129 779.493 282.665 793.905 295.508 801.966C308.712 809.326 324.204 803.696 332.312 787.336C361.883 730.507 396.082 644.174 437.916 483.464C483.715 305.494 493.368 253.6 525.044 258.817C564.176 264.704 560.429 368.911 544.426 535.183C527.223 717.138 535.616 777.66 602 788.072C678.71 800.105 699.904 697.116 725.574 570.398C745.656 471.271 755.589 419.172 774.482 422.386C793.866 425.679 788.173 476.428 779.228 584.857C771.256 683.869 782.761 722.958 822.593 729.206C859.962 735.066 883.163 696.386 899.62 620.37C913.347 558.548 918.122 523.273 925.213 524.623C932.093 525.705 936.954 546.119 933.458 570.007C931.07 585.249 941.749 597.503 957.202 600.177C972.31 601.793 984.798 589.642 985.446 567.831C988.425 517.215 968.064 472.211 933.855 465.791L932.218 465.519C888.167 458.865 873.495 507.448 859.13 579.761C844.969 647.566 838.86 672.055 830.294 670.462C822.349 669.719 821.708 649.716 830.36 557.614C840.697 440.331 838.116 376.441 780.376 367.132C719.612 357.852 700.312 435.945 675.982 557.329C658.836 642.558 645.363 731.642 607.992 725.78C581.93 721.693 583.081 683.832 595.458 540.67C612.595 343.085 606.591 215.936 531.355 204.136Z" fill="#B6D433"/>
<path d="M288.226 2019.09C304.602 2067.93 341.163 2102.4 375.782 2094.16C419.136 2083.9 414.623 2033.35 400.971 1960.9C388.812 1892.7 385.344 1867.71 393.888 1865.99C401.536 1863.72 409.593 1882.03 435.928 1970.72C470.094 2083.39 496.322 2141.7 553.367 2128.79C613.206 2114.73 601.98 2035.08 579.266 1913.38C563.377 1827.91 542.639 1740.23 579.5 1731.73C605.205 1725.8 618.26 1761.35 660.188 1898.8C718.004 2088.51 771.013 2204.24 845.219 2187.12C916.514 2170.67 906.668 2101.43 878.587 1886.72C856.994 1720.07 857.857 1636.35 863.605 1576.02C864.575 1559.2 855.92 1547.15 840.997 1544.46C826 1542.56 813.725 1553.56 812.307 1571.77C806.073 1635.52 806.554 1728.38 827.699 1893.1C851.605 2075.31 862.01 2127.05 830.672 2134.03C792.169 2143.17 756.769 2045.09 709.583 1884.85C657.66 1709.61 627.295 1656.6 561.818 1671.7C486.158 1689.16 504.919 1792.61 528.379 1919.76C546.73 2019.22 556.949 2071.26 538.221 2075.33C519.007 2079.51 505.356 2030.3 473.201 1926.36C443.658 1831.52 418.403 1799.55 379.116 1808.61C342.257 1817.12 335.165 1861.66 348.258 1938.33C358.588 2000.82 367.316 2035.33 360.227 2036.71C353.439 2038.27 341.314 2021.15 335.646 1997.68C332.175 1982.65 317.7 1975.26 302.366 1978.55C287.743 1982.68 280.69 1998.62 288.226 2019.09Z" fill="#BBA5D0"/>
<path d="M955.434 2114.85C953.68 2142.4 947.885 2171.57 930.373 2196.15C911.529 2222.6 884.949 2235.81 857.897 2242.05L854.535 2242.78C819.861 2249.79 787.706 2240.97 760.822 2222.16C735.067 2204.15 714.745 2177.58 697.988 2149.13C682.51 2122.86 667.935 2091.18 653.872 2055.35C653.828 2058.37 653.728 2061.34 653.583 2064.25C652.44 2087.24 647.91 2113.12 633.82 2135.94C618.852 2160.17 596.18 2175.98 568.917 2183.02L566.267 2183.67L565.812 2183.78C540.958 2189.4 515.172 2187.91 490.893 2175.98C467.832 2164.65 451.32 2146.42 439.102 2128.02C438.082 2126.49 437.086 2124.91 436.088 2123.32C422.895 2136.44 406.538 2144.81 388.839 2149.01L385.016 2149.84C345.697 2157.66 311.222 2140.92 287.857 2120.3C263.57 2098.86 245.489 2068.96 234.776 2037.01L234.786 2037.01C228.001 2017.71 225.931 1994.95 234.209 1972.89C243.132 1949.11 262.406 1931.26 287.022 1924.29L288.776 1923.8L289.076 1923.73C285.034 1892.27 284.179 1862.06 289.873 1835.91C293.601 1818.79 300.715 1800.58 314.138 1784.95C328.157 1768.63 346.351 1758.31 366.443 1753.67C385.028 1749.39 405.689 1749.25 426.433 1757.21C435.749 1760.78 444.038 1765.6 451.429 1771.19C451.306 1764.71 451.345 1758.39 451.602 1752.25C452.706 1725.81 457.642 1696.5 473.077 1670.86C489.89 1642.94 516.153 1624.38 549.148 1616.77C573.708 1611.1 600.813 1610.61 627.676 1622.27C653.83 1633.62 672.925 1653.55 687.639 1675.54C715.463 1717.11 738.102 1782.63 763.643 1868.83L763.668 1868.92C766.116 1877.23 768.531 1885.34 770.895 1893.23C750.33 1730.53 749.498 1634.84 756.201 1566.28L756.216 1566.28C758.031 1545.96 766.261 1525.1 783.049 1509.4C800.638 1492.95 824.259 1485.51 848.098 1488.53L849.549 1488.72L850.987 1488.97C871.696 1492.7 890.96 1503.78 904.089 1522.09C916.88 1539.94 920.972 1560.55 919.893 1579.27L919.83 1580.32L919.733 1581.37C914.509 1636.19 913.248 1715.44 934.489 1879.41L939.434 1917.23C950.558 2002.64 958.394 2068.32 955.434 2114.85Z" fill="#BBA5D0"/><path d="M845.222 2187.11C916.516 2170.66 906.67 2101.42 878.589 1886.72C856.997 1720.07 857.862 1636.35 863.61 1576.02C864.58 1559.2 855.923 1547.15 841 1544.46C826.004 1542.56 813.73 1553.56 812.311 1571.76C806.077 1635.52 806.557 1728.38 827.702 1893.09C851.607 2075.3 862.012 2127.05 830.676 2134.03C792.174 2143.17 756.772 2045.08 709.586 1884.85C657.663 1709.61 627.297 1656.59 561.82 1671.7C486.16 1689.15 504.92 1792.61 528.38 1919.76C546.731 2019.22 556.951 2071.26 538.224 2075.33C519.011 2079.51 505.359 2030.3 473.205 1926.36C443.662 1831.52 418.404 1799.55 379.117 1808.61C342.26 1817.12 335.165 1861.66 348.257 1938.33C358.585 2000.81 367.316 2035.32 360.233 2036.71C353.446 2038.27 341.32 2021.15 335.651 1997.68C332.18 1982.65 317.7 1975.26 302.366 1978.54C287.745 1982.68 280.693 1998.61 288.229 2019.09C304.349 2067.17 340.03 2101.32 374.165 2094.52L375.785 2094.16C419.138 2083.9 414.624 2033.35 400.973 1960.9C388.815 1892.71 385.347 1867.71 393.888 1865.99C401.536 1863.71 409.594 1882.03 435.929 1970.71C470.095 2083.38 496.326 2141.7 553.37 2128.79C613.208 2114.73 601.98 2035.08 579.266 1913.38C563.377 1827.91 542.641 1740.23 579.501 1731.73C605.206 1725.8 618.264 1761.35 660.192 1898.8C718.008 2088.51 771.016 2204.24 845.222 2187.11Z" fill="#BBA5D0"/>
<path d="M1206.3 531.921H1334.88V406.723H1345.51V531.921H1474.09V542.267H1345.51V667.465H1334.88V542.267H1206.3V531.921Z" fill="white"/>
<path d="M1474.09 542.269V531.919H1345.51V406.723H1334.88V531.919H1206.3V542.269H1334.88V667.465H1345.51V542.269H1474.09ZM1349.03 528.395H1477.61V545.793H1349.03V670.989H1331.36V545.793H1202.78V528.395H1331.36V403.199H1349.03V528.395Z" fill="white"/>
<path d="M1164.02 1888.35H1292.6V1759.76H1303.23V1888.35H1431.81V1898.97H1303.23V2027.55H1292.6V1898.97H1164.02V1888.35Z" fill="white"/>
<path d="M1431.81 1898.97V1888.35H1303.22V1759.76H1292.6V1888.35H1164.02V1898.97H1292.6V2027.55H1303.22V1898.97H1431.81ZM1306.75 1884.82H1435.33V1902.5H1306.75V2031.08H1289.08V1902.5H1160.49V1884.82H1289.08V1756.24H1306.75V1884.82Z" fill="white"/>
<defs>
<clipPath id="clip0_419_2743">
<rect width="549.674" height="500.344" fill="white" transform="translate(1685.5 329.205)"/>
</clipPath>
<clipPath id="clip1_419_2743">
<rect width="570.815" height="584.909" fill="white" transform="translate(1622.08 1583.59)"/>
</clipPath>
</defs>
</svg>
