<svg width="6200" height="1285" viewBox="0 0 6200 1285" fill="none" xmlns="http://www.w3.org/2000/svg">
<path d="M5585.4 803.193H5750.75L6052.82 1100.81V803.193H6199.09V1276.33H6052.82L5731.67 962.814V1276.33H5585.4V803.193Z" fill="black"/>
<path d="M5172.33 794.926H5199.67C5497.29 794.926 5532.27 944.372 5532.27 1028.95V1048.03C5532.27 1131.34 5497.93 1284.6 5199.67 1284.6H5172.33C4872.8 1284.6 4839.09 1131.34 4839.09 1048.03V1028.95C4839.09 944.372 4872.8 794.926 5172.33 794.926ZM5377.1 1042.31V1033.4C5377.1 979.349 5345.94 909.395 5185.68 909.395C5022.88 909.395 4994.26 979.349 4994.26 1033.4V1041.03C4994.26 1095.09 5025.42 1169.49 5185.68 1169.49C5344.67 1169.49 5377.1 1097 5377.1 1042.31Z" fill="black"/>
<path d="M4785.88 803.193V1276.33H4637.7V803.193H4785.88Z" fill="black"/>
<path d="M4230.3 1276.33V915.119H4026.8V803.193H4583.88V915.119H4379.74V1276.33H4230.3Z" fill="black"/>
<path d="M3687.03 1284.6H3660.96C3386.87 1284.6 3344.26 1131.34 3344.26 1047.39V1028.95C3344.26 943.1 3381.14 794.926 3660.96 794.926H3687.03C3961.12 794.926 4003.73 925.93 4003.73 981.256V988.252H3846.65C3842.84 975.533 3823.76 909.395 3673.68 909.395C3531.86 909.395 3499.43 972.989 3499.43 1032.13V1039.76C3499.43 1095.73 3536.95 1169.49 3674.95 1169.49C3828.21 1169.49 3843.47 1096.36 3847.29 1085.55H4004.37V1092.55C4004.37 1152.32 3957.31 1284.6 3687.03 1284.6Z" fill="black"/>
<path d="M3116.35 1083.01L3024.78 905.58L2937.02 1083.01H3116.35ZM3215.56 1276.33L3171.05 1189.85H2884.24L2841.63 1276.33H2690.91L2930.02 803.193H3122.08L3375.18 1276.33H3215.56Z" fill="black"/>
<path d="M2232.18 910.667V1003.51H2456.66C2499.27 1003.51 2516.44 983.165 2516.44 957.091V956.455C2516.44 931.653 2499.91 910.667 2456.66 910.667H2232.18ZM2232.18 1108.44V1276.33H2084V803.193H2465.57C2623.28 803.193 2670.98 857.884 2670.98 925.93V933.561C2670.98 1001.61 2614.38 1027.04 2583.22 1037.22C2631.55 1051.21 2672.88 1084.92 2672.88 1145.97V1215.28C2672.88 1253.44 2677.33 1265.52 2681.79 1273.15V1276.33H2531.07C2526.62 1270.61 2524.07 1263.61 2524.07 1246.44V1191.75C2524.07 1133.88 2498.64 1108.44 2425.5 1108.44H2232.18Z" fill="black"/>
<path d="M1517.62 803.193H2016.19V910.667H1663.88V980.621H2007.93V1088.73H1663.88V1166.32H2022.55V1276.33H1517.62V803.193Z" fill="black"/>
<path d="M1110.21 1276.33V915.119H906.713V803.193H1463.8V915.119H1259.66V1276.33H1110.21Z" fill="black"/>
<path d="M238.905 803.193H404.25L706.322 1100.81V803.193H852.588V1276.33H706.322L385.172 962.814V1276.33H238.905V803.193Z" fill="black"/>
<path d="M166.611 803.193V1276.33H18.4365V803.193H166.611Z" fill="black"/>
<path d="M2458.49 481.408V8.26758H2668.98L2832.42 302.708L2996.49 8.26758H3199.36V481.408H3053.09V153.898L2866.76 481.408H2787.27L2600.94 153.898V481.408H2458.49Z" fill="black"/>
<path d="M1892.1 8.26758H2390.68V115.742H2038.37V185.695H2382.41V293.805H2038.37V371.39H2397.04V481.408H1892.1V8.26758Z" fill="black"/>
<path d="M1484.7 481.408V120.193H1281.2V8.26758H1838.28V120.193H1634.14V481.408H1484.7Z" fill="black"/>
<path d="M905.809 0H933.155C1230.78 0 1265.75 149.446 1265.75 234.026V253.104C1265.75 336.413 1231.41 489.674 933.155 489.674H905.809C606.281 489.674 572.576 336.413 572.576 253.104V234.026C572.576 149.446 606.281 0 905.809 0ZM1110.58 247.381V238.478C1110.58 184.423 1079.42 114.469 919.164 114.469C756.363 114.469 727.746 184.423 727.746 238.478V246.109C727.746 300.164 758.907 374.569 919.164 374.569C1078.15 374.569 1110.58 302.072 1110.58 247.381Z" fill="black"/>
<path d="M203.501 481.408V120.193H0V8.26758H557.084V120.193H352.947V481.408H203.501Z" fill="black"/>
</svg>
