<svg width="8752" height="1060" viewBox="0 0 8752 1060" fill="none" xmlns="http://www.w3.org/2000/svg">
<path d="M8177.07 291.944H8748.57V424.466H8415.36V461.419H8744.75V591.392H8415.36V632.168H8751.12V765.964H8177.07V291.944Z" fill="black"/>
<path d="M7698.28 765.964V455.048H7493.77V291.944H8144.91V455.048H7940.39V765.964H7698.28Z" fill="black"/>
<path d="M7245.44 569.093L7187.46 437.846L7130.76 569.093H7245.44ZM7332.09 765.964L7307.24 709.26H7070.23L7045.39 765.964H6800.73L7024.36 291.944H7364.58L7602.23 765.964H7332.09Z" fill="black"/>
<path d="M6379.96 775.51H6363.39C6098.35 775.51 6035.27 645.537 6035.27 536.589V517.475C6035.27 397.059 6107.91 282.377 6399.71 282.377H6420.1C6755.86 282.377 6787.72 401.519 6787.72 470.328V470.965H6540.51C6537.33 458.86 6521.4 425.73 6416.27 425.73C6321.98 425.73 6284.39 465.868 6284.39 523.21V528.944C6284.39 588.196 6320.07 635.343 6414.36 635.343C6508.66 635.343 6534.14 606.036 6534.14 593.293H6406.08V496.45H6790.9V765.953H6628.44C6623.98 752.574 6611.87 728.363 6599.76 716.258C6584.47 730.275 6528.41 775.51 6379.96 775.51Z" fill="black"/>
<path d="M5436.96 291.944H6008.46V424.466H5675.25V461.419H6004.64V591.392H5675.25V632.168H6011.01V765.964H5436.96V291.944Z" fill="black"/>
<path d="M4659.23 291.944H4932.55L5155.55 507.292V291.944H5397.65V765.964H5151.09L4901.33 528.954V765.964H4659.23V291.944Z" fill="black"/>
<path d="M4108.35 291.944H4607.85V399.618H4254.89V469.702H4599.57V578.013H4254.89V655.742H4614.22V765.964H4108.35V291.944Z" fill="black"/>
<path d="M3517.05 291.944H4045.86V378.593L3720.93 653.83H4050.32V765.964H3511.95V678.678L3828.6 401.53H3517.05V291.944Z" fill="black"/>
<path d="M2935.3 291.944H3464.11V378.593L3139.18 653.83H3468.57V765.964H2930.2V678.678L3246.85 401.53H2935.3V291.944Z" fill="black"/>
<path d="M2659.46 572.279L2567.71 394.521L2479.79 572.279H2659.46ZM2758.85 765.964L2714.25 679.315H2426.91L2384.22 765.964H2233.22L2472.78 291.944H2665.19L2918.77 765.964H2758.85Z" fill="black"/>
<path d="M2207.31 291.944V765.964H2058.86V291.944H2207.31Z" fill="black"/>
<path d="M1788.45 607.957H1581.38V765.964H1432.93V291.944H1788.45C1959.2 291.944 2009.53 359.479 2009.53 446.128V452.499C2009.53 537.237 1957.92 607.957 1788.45 607.957ZM1581.38 399.618V501.558H1785.9C1832.41 501.558 1854.71 484.355 1854.71 451.862V449.951C1854.71 417.458 1833.68 399.618 1785.9 399.618H1581.38Z" fill="black"/>
<path d="M530.011 0C574.463 0.000807041 617.628 5.50202 658.886 15.8104L514.338 160.382L668.91 315.091L589.403 394.644L514.178 469.777L747.21 702.809L807.33 642.62L822.321 627.562L901.874 548.032L1037.36 683.604C971.504 901.404 769.299 1060 530.011 1060C237.303 1060 0.00531464 822.719 0 530.011C0 237.3 237.3 0 530.011 0ZM901.874 202.277L926.159 177.969C1009.41 271.582 1060 394.884 1060 530.011C1060 547.437 1059.12 564.662 1057.47 581.657L1056.56 582.591L901.874 427.882L747.21 582.591L634.396 469.777L789.06 315.091L634.419 160.427L747.21 47.6361L901.874 202.277Z" fill="black"/>
<path d="M1168.98 160.801L1153.96 175.838L1014.31 315.477L1153.96 455.162L1169 470.177L1153.96 485.191L1071.19 567.963L1056.18 583L1041.17 567.963L901.489 428.278L761.832 567.963L746.819 583L731.805 567.963L649.036 485.191L634 470.177L649.036 455.162L788.67 315.477L649.036 175.838L634.023 160.801L746.819 48L761.855 63.0143L901.489 202.654L1041.14 63.0143L1056.18 48L1168.98 160.801Z" fill="#7F04FA"/>
</svg>
