<svg width="307" height="131" viewBox="0 0 307 131" fill="none" xmlns="http://www.w3.org/2000/svg">
<path d="M16.3551 24.6396H14.1471C1.66714 24.6396 0.227141 19.2636 0.227141 16.1276V15.7756H8.00314C8.09914 17.2156 8.93114 19.5516 15.0751 19.5516H15.5231C21.7951 19.5516 22.4991 18.3036 22.4991 17.0236C22.4991 15.6476 21.7631 14.7836 16.2591 14.6236L12.1631 14.5276C3.26714 14.2716 0.547141 11.2636 0.547141 7.55163V7.26363C0.547141 3.71163 2.65914 -0.000368118 13.5071 -0.000368118H15.7151C26.9791 -0.000368118 29.5391 3.93563 29.5391 7.51963V7.83963H21.7951C21.6351 6.94363 21.1551 4.99163 14.9151 4.99163H14.4031C8.64314 4.99163 8.22714 6.01563 8.22714 7.03963C8.22714 8.06363 8.86714 8.99163 13.7311 9.08763L17.7311 9.15163C26.6911 9.31163 30.3071 11.4876 30.3071 16.2236V16.6716C30.3071 20.6076 28.3231 24.6396 16.3551 24.6396ZM32.8494 0.415632H57.9374V5.82363H40.2094V9.34363H57.5214V14.7836H40.2094V18.6876H58.2574V24.2236H32.8494V0.415632ZM77.5749 24.6396H76.2629C62.4709 24.6396 60.3269 16.9276 60.3269 12.7036V11.7756C60.3269 7.45563 62.1829 -0.000368118 76.2629 -0.000368118H77.5749C91.3669 -0.000368118 93.5109 6.59163 93.5109 9.37563V9.72763H85.6069C85.4149 9.08763 84.4549 5.75963 76.9029 5.75963C69.7669 5.75963 68.1349 8.95963 68.1349 11.9356V12.3196C68.1349 15.1356 70.0229 18.8476 76.9669 18.8476C84.6789 18.8476 85.4469 15.1676 85.6389 14.6236H93.5429V14.9756C93.5429 17.9836 91.1749 24.6396 77.5749 24.6396ZM111.939 -0.000368118H113.315C128.291 -0.000368118 130.051 7.51963 130.051 11.7756V12.7356C130.051 16.9276 128.323 24.6396 113.315 24.6396H111.939C96.8666 24.6396 95.1706 16.9276 95.1706 12.7356V11.7756C95.1706 7.51963 96.8666 -0.000368118 111.939 -0.000368118ZM122.243 12.4476V11.9996C122.243 9.27963 120.675 5.75963 112.611 5.75963C104.419 5.75963 102.979 9.27963 102.979 11.9996V12.3836C102.979 15.1036 104.547 18.8476 112.611 18.8476C120.611 18.8476 122.243 15.1996 122.243 12.4476ZM132.724 0.415632H141.044L156.244 15.3916V0.415632H163.604V24.2236H156.244L140.084 8.44763V24.2236H132.724V0.415632ZM167.256 24.2236V0.415632H183.032C196.824 0.415632 199.832 6.33563 199.832 11.6796V12.6396C199.832 17.7596 196.984 24.2236 183.064 24.2236H167.256ZM174.712 6.04763V18.4956H182.456C190.904 18.4956 192.024 14.7836 192.024 12.3516V12.1596C192.024 9.72763 191.032 6.04763 182.456 6.04763H174.712ZM219.703 14.4956L215.095 5.56763L210.679 14.4956H219.703ZM224.695 24.2236L222.455 19.8716H208.023L205.879 24.2236H198.295L210.327 0.415632H219.991L232.727 24.2236H224.695ZM241.493 5.82363V10.4956H252.789C254.933 10.4956 255.797 9.47163 255.797 8.15963V8.12763C255.797 6.87963 254.965 5.82363 252.789 5.82363H241.493ZM241.493 15.7756V24.2236H234.037V0.415632H253.237C261.173 0.415632 263.573 3.16763 263.573 6.59163V6.97563C263.573 10.3996 260.725 11.6796 259.157 12.1916C261.589 12.8956 263.669 14.5916 263.669 17.6636V21.1516C263.669 23.0716 263.893 23.6796 264.117 24.0636V24.2236H256.533C256.309 23.9356 256.181 23.5836 256.181 22.7196V19.9676C256.181 17.0556 254.901 15.7756 251.221 15.7756H241.493ZM275.432 24.2236V15.0076L262.696 0.415632H271.944L279.336 9.18363L286.856 0.415632H295.272L282.888 15.0076V24.2236H275.432ZM16.3551 64.6396H14.1471C1.66714 64.6396 0.227141 59.2636 0.227141 56.1276V55.7756H8.00314C8.09914 57.2156 8.93114 59.5516 15.0751 59.5516H15.5231C21.7951 59.5516 22.4991 58.3036 22.4991 57.0236C22.4991 55.6476 21.7631 54.7836 16.2591 54.6236L12.1631 54.5276C3.26714 54.2716 0.547141 51.2636 0.547141 47.5516V47.2636C0.547141 43.7116 2.65914 39.9996 13.5071 39.9996H15.7151C26.9791 39.9996 29.5391 43.9356 29.5391 47.5196V47.8396H21.7951C21.6351 46.9436 21.1551 44.9916 14.9151 44.9916H14.4031C8.64314 44.9916 8.22714 46.0156 8.22714 47.0396C8.22714 48.0636 8.86714 48.9916 13.7311 49.0876L17.7311 49.1516C26.6911 49.3116 30.3071 51.4876 30.3071 56.2236V56.6716C30.3071 60.6076 28.3231 64.6396 16.3551 64.6396ZM41.4426 64.2236V46.0476H31.2026V40.4156H59.2346V46.0476H48.9626V64.2236H41.4426ZM69.3991 40.4156V64.2236H61.9431V40.4156H69.3991ZM89.3249 64.6396H88.0129C74.2209 64.6396 72.0769 56.9276 72.0769 52.7036V51.7756C72.0769 47.4556 73.9329 39.9996 88.0129 39.9996H89.3249C103.117 39.9996 105.261 46.5916 105.261 49.3756V49.7276H97.3569C97.1649 49.0876 96.2049 45.7596 88.6529 45.7596C81.5169 45.7596 79.8849 48.9596 79.8849 51.9356V52.3196C79.8849 55.1356 81.7729 58.8476 88.7169 58.8476C96.4289 58.8476 97.1969 55.1676 97.3889 54.6236H105.293V54.9756C105.293 57.9836 102.925 64.6396 89.3249 64.6396ZM115.337 64.2236H107.881V40.4156H115.337V50.3356L127.529 40.4156H137.001L123.305 51.2956L137.641 64.2236H127.913L115.337 52.9916V64.2236ZM138.849 40.4156H163.937V45.8236H146.209V49.3436H163.521V54.7836H146.209V58.6876H164.257V64.2236H138.849V40.4156ZM174.805 45.8236V50.4956H186.101C188.245 50.4956 189.109 49.4716 189.109 48.1596V48.1276C189.109 46.8796 188.277 45.8236 186.101 45.8236H174.805ZM174.805 55.7756V64.2236H167.349V40.4156H186.549C194.485 40.4156 196.885 43.1676 196.885 46.5916V46.9756C196.885 50.3996 194.037 51.6796 192.469 52.1916C194.901 52.8956 196.981 54.5916 196.981 57.6636V61.1516C196.981 63.0716 197.205 63.6796 197.429 64.0636V64.2236H189.845C189.621 63.9356 189.493 63.5836 189.493 62.7196V59.9676C189.493 57.0556 188.213 55.7756 184.533 55.7756H174.805ZM214.824 64.6396H212.616C200.136 64.6396 198.696 59.2636 198.696 56.1276V55.7756H206.472C206.568 57.2156 207.4 59.5516 213.544 59.5516H213.992C220.264 59.5516 220.968 58.3036 220.968 57.0236C220.968 55.6476 220.232 54.7836 214.728 54.6236L210.632 54.5276C201.736 54.2716 199.016 51.2636 199.016 47.5516V47.2636C199.016 43.7116 201.128 39.9996 211.976 39.9996H214.184C225.448 39.9996 228.008 43.9356 228.008 47.5196V47.8396H220.264C220.104 46.9436 219.624 44.9916 213.384 44.9916H212.872C207.112 44.9916 206.696 46.0156 206.696 47.0396C206.696 48.0636 207.336 48.9916 212.2 49.0876L216.2 49.1516C225.16 49.3116 228.776 51.4876 228.776 56.2236V56.6716C228.776 60.6076 226.792 64.6396 214.824 64.6396Z" fill="#BFFF00"/>
<path d="M10.0791 102.484H8.69914C0.899141 102.484 -0.00085935 99.1236 -0.00085935 97.1636V96.9436H4.85914C4.91914 97.8436 5.43914 99.3036 9.27914 99.3036H9.55914C13.4791 99.3036 13.9191 98.5236 13.9191 97.7236C13.9191 96.8636 13.4591 96.3236 10.0191 96.2236L7.45914 96.1636C1.89914 96.0036 0.199141 94.1236 0.199141 91.8036V91.6236C0.199141 89.4036 1.51914 87.0836 8.29914 87.0836H9.67914C16.7191 87.0836 18.3191 89.5436 18.3191 91.7836V91.9836H13.4791C13.3791 91.4236 13.0791 90.2036 9.17914 90.2036H8.85914C5.25914 90.2036 4.99914 90.8436 4.99914 91.4836C4.99914 92.1236 5.39914 92.7036 8.43914 92.7636L10.9391 92.8036C16.5391 92.9036 18.7991 94.2636 18.7991 97.2236V97.5036C18.7991 99.9636 17.5591 102.484 10.0791 102.484ZM30.1495 102.444H29.4295C21.4495 102.444 20.1495 97.3636 20.1495 94.5636V87.3436H24.8295V94.2836C24.8295 96.2036 25.6895 98.5836 29.7495 98.5836C33.7495 98.5836 34.6295 96.2036 34.6295 94.2836V87.3436H39.2895V94.5636C39.2895 97.3636 37.7695 102.444 30.1495 102.444ZM41.3841 102.224V87.3436H54.1241C58.3841 87.3436 59.5641 88.9836 59.5641 90.7436V91.0236C59.5641 92.9636 57.9241 93.7036 57.2041 93.9236C58.2241 94.1836 60.4041 95.0436 60.4041 97.6636V97.9436C60.4041 100.284 59.0641 102.224 54.2441 102.224H41.3841ZM53.3241 90.4836H46.0441V92.9036H53.3241C54.6241 92.9036 54.9441 92.3036 54.9441 91.7036V91.6636C54.9441 91.0436 54.6241 90.4836 53.3241 90.4836ZM53.7241 96.0636H46.0441V98.9836H53.7241C55.2641 98.9836 55.5641 98.1236 55.5641 97.5236V97.4436C55.5641 96.8036 55.2641 96.0636 53.7241 96.0636ZM69.912 102.444H68.792C62.592 102.444 60.892 98.8236 60.892 96.0036V95.8836H65.612C65.672 96.5436 65.992 98.7436 69.212 98.7436H69.452C71.912 98.7436 73.032 97.3236 73.032 95.0636V87.3436H77.712V95.1836C77.712 98.2636 76.252 102.444 69.912 102.444ZM79.8216 87.3436H95.5016V90.7236H84.4216V92.9236H95.2416V96.3236H84.4216V98.7636H95.7016V102.224H79.8216V87.3436ZM107.775 102.484H106.955C98.3351 102.484 96.9951 97.6636 96.9951 95.0236V94.4436C96.9951 91.7436 98.1551 87.0836 106.955 87.0836H107.775C116.395 87.0836 117.735 91.2036 117.735 92.9436V93.1636H112.795C112.675 92.7636 112.075 90.6836 107.355 90.6836C102.895 90.6836 101.875 92.6836 101.875 94.5436V94.7836C101.875 96.5436 103.055 98.8636 107.395 98.8636C112.215 98.8636 112.695 96.5636 112.815 96.2236H117.755V96.4436C117.755 98.3236 116.275 102.484 107.775 102.484ZM124.86 102.224V90.8636H118.46V87.3436H135.98V90.8636H129.56V102.224H124.86ZM142.333 87.3436V102.224H137.673V87.3436H142.333ZM156.767 102.224H150.967L143.227 87.3436H148.507L153.987 98.2836L159.127 87.3436H163.967L156.767 102.224ZM164.861 87.3436H180.541V90.7236H169.461V92.9236H180.281V96.3236H169.461V98.7636H180.741V102.224H164.861V87.3436ZM11.9191 125.264H5.41914V130.224H0.759141V115.344H11.9191C17.2791 115.344 18.8591 117.464 18.8591 120.184V120.384C18.8591 123.044 17.2391 125.264 11.9191 125.264ZM5.41914 118.724V121.924H11.8391C13.2991 121.924 13.9991 121.384 13.9991 120.364V120.304C13.9991 119.284 13.3391 118.724 11.8391 118.724H5.41914ZM20.4076 115.344H36.0876V118.724H25.0076V120.924H35.8276V124.324H25.0076V126.764H36.2876V130.224H20.4076V115.344ZM42.8801 118.724V121.644H49.9401C51.2801 121.644 51.8201 121.004 51.8201 120.184V120.164C51.8201 119.384 51.3001 118.724 49.9401 118.724H42.8801ZM42.8801 124.944V130.224H38.2201V115.344H50.2201C55.1801 115.344 56.6801 117.064 56.6801 119.204V119.444C56.6801 121.584 54.9001 122.384 53.9201 122.704C55.4401 123.144 56.7401 124.204 56.7401 126.124V128.304C56.7401 129.504 56.8801 129.884 57.0201 130.124V130.224H52.2801C52.1401 130.044 52.0601 129.824 52.0601 129.284V127.564C52.0601 125.744 51.2601 124.944 48.9601 124.944H42.8801ZM67.8916 130.484H66.5116C58.7116 130.484 57.8116 127.124 57.8116 125.164V124.944H62.6716C62.7316 125.844 63.2516 127.304 67.0916 127.304H67.3716C71.2916 127.304 71.7316 126.524 71.7316 125.724C71.7316 124.864 71.2716 124.324 67.8316 124.224L65.2716 124.164C59.7116 124.004 58.0116 122.124 58.0116 119.804V119.624C58.0116 117.404 59.3316 115.084 66.1116 115.084H67.4916C74.5316 115.084 76.1316 117.544 76.1316 119.784V119.984H71.2916C71.1916 119.424 70.8916 118.204 66.9916 118.204H66.6716C63.0716 118.204 62.8116 118.844 62.8116 119.484C62.8116 120.124 63.2116 120.704 66.2516 120.764L68.7516 120.804C74.3516 120.904 76.6116 122.264 76.6116 125.224V125.504C76.6116 127.964 75.3716 130.484 67.8916 130.484ZM88.0805 115.084H88.9405C98.3005 115.084 99.4005 119.784 99.4005 122.444V123.044C99.4005 125.664 98.3205 130.484 88.9405 130.484H88.0805C78.6605 130.484 77.6005 125.664 77.6005 123.044V122.444C77.6005 119.784 78.6605 115.084 88.0805 115.084ZM94.5205 122.864V122.584C94.5205 120.884 93.5405 118.684 88.5005 118.684C83.3805 118.684 82.4805 120.884 82.4805 122.584V122.824C82.4805 124.524 83.4605 126.864 88.5005 126.864C93.5005 126.864 94.5205 124.584 94.5205 122.864ZM101.072 115.344H106.272L115.772 124.704V115.344H120.372V130.224H115.772L105.672 120.364V130.224H101.072V115.344ZM134.574 124.144L131.694 118.564L128.934 124.144H134.574ZM137.694 130.224L136.294 127.504H127.274L125.934 130.224H121.194L128.714 115.344H134.754L142.714 130.224H137.694ZM143.533 115.344H148.193V126.524H158.533V130.224H143.533V115.344ZM176.284 115.084H177.144C186.504 115.084 187.604 119.784 187.604 122.444V123.044C187.604 125.664 186.524 130.484 177.144 130.484H176.284C166.864 130.484 165.804 125.664 165.804 123.044V122.444C165.804 119.784 166.864 115.084 176.284 115.084ZM182.724 122.864V122.584C182.724 120.884 181.744 118.684 176.704 118.684C171.584 118.684 170.684 120.884 170.684 122.584V122.824C170.684 124.524 171.664 126.864 176.704 126.864C181.704 126.864 182.724 124.584 182.724 122.864ZM200.435 125.264H193.935V130.224H189.275V115.344H200.435C205.795 115.344 207.375 117.464 207.375 120.184V120.384C207.375 123.044 205.755 125.264 200.435 125.264ZM193.935 118.724V121.924H200.355C201.815 121.924 202.515 121.384 202.515 120.364V120.304C202.515 119.284 201.855 118.724 200.355 118.724H193.935ZM213.583 115.344V130.224H208.923V115.344H213.583ZM215.857 115.344H221.057L230.557 124.704V115.344H235.157V130.224H230.557L220.457 120.364V130.224H215.857V115.344ZM242.099 115.344V130.224H237.439V115.344H242.099ZM254.252 115.084H255.112C264.472 115.084 265.572 119.784 265.572 122.444V123.044C265.572 125.664 264.492 130.484 255.112 130.484H254.252C244.832 130.484 243.772 125.664 243.772 123.044V122.444C243.772 119.784 244.832 115.084 254.252 115.084ZM260.692 122.864V122.584C260.692 120.884 259.712 118.684 254.672 118.684C249.552 118.684 248.652 120.884 248.652 122.584V122.824C248.652 124.524 249.632 126.864 254.672 126.864C259.672 126.864 260.692 124.584 260.692 122.864ZM267.244 115.344H272.444L281.944 124.704V115.344H286.544V130.224H281.944L271.844 120.364V130.224H267.244V115.344ZM298.146 130.484H296.766C288.966 130.484 288.066 127.124 288.066 125.164V124.944H292.926C292.986 125.844 293.506 127.304 297.346 127.304H297.626C301.546 127.304 301.986 126.524 301.986 125.724C301.986 124.864 301.526 124.324 298.086 124.224L295.526 124.164C289.966 124.004 288.266 122.124 288.266 119.804V119.624C288.266 117.404 289.586 115.084 296.366 115.084H297.746C304.786 115.084 306.386 117.544 306.386 119.784V119.984H301.546C301.446 119.424 301.146 118.204 297.246 118.204H296.926C293.326 118.204 293.066 118.844 293.066 119.484C293.066 120.124 293.466 120.704 296.506 120.764L299.006 120.804C304.606 120.904 306.866 122.264 306.866 125.224V125.504C306.866 127.964 305.626 130.484 298.146 130.484Z" fill="white"/>
</svg>
