<svg width="402" height="156" viewBox="0 0 402 156" fill="none" xmlns="http://www.w3.org/2000/svg">
<path d="M138.952 114.392C138.504 114.392 138.184 114.232 137.832 113.784C137.384 113.272 137 112.856 137 112.12C137 111.8 137.32 111.288 137.32 110.392C137.32 109.656 137.096 108.312 137.288 106.904C137.416 106.04 137.096 104.6 137.096 104.024C137.096 103.448 137.352 102.392 137.192 101.528C137.064 100.824 137.352 100.216 137.192 99.5439C136.712 97.5599 137.384 96.8879 137 95.4799C136.808 94.8079 136.808 94.3279 136.84 93.8479C136.904 93.0479 137.352 92.7599 137.928 92.7599C138.376 92.7599 138.92 92.9839 139.368 93.2399C139.752 93.4639 140.264 94.0079 140.264 94.6479L140.232 95.5759C140.232 95.9919 140.488 96.0879 140.488 96.7919C140.488 97.0159 140.424 97.3359 140.456 97.7839C140.52 98.8079 140.104 98.5839 140.488 101.304C140.616 102.104 140.424 102.552 140.424 103.32C140.424 104.12 140.552 104.664 140.584 105.112C140.616 105.688 140.488 106.072 140.68 106.936C140.776 107.416 140.584 107.96 140.552 108.44C140.52 108.76 140.68 109.912 140.68 110.488C140.68 110.808 140.456 111.064 140.424 111.48V111.576C140.424 111.896 140.52 112.216 140.52 112.44C140.52 113.432 139.848 114.392 138.952 114.392ZM165.584 114.104C165.296 114.104 165.072 113.912 164.56 113.912C163.952 113.912 163.856 113.72 163.504 113.496C163.344 113.368 163.184 113.176 163.184 112.696C163.184 112.024 163.056 111.384 163.056 110.712C163.056 110.168 162.928 109.56 162.864 109.336C162.672 108.504 162.48 107.608 162.672 106.712C163.088 104.632 162.48 103.384 162.704 101.848C162.8 101.144 162.48 100.44 162.48 99.7359C162.48 98.4239 162.032 98.0079 161.68 95.7359C161.584 95.0959 161.584 94.9679 161.904 94.4239C161.968 94.2639 162.16 94.1679 162.352 94.1359C162.544 94.1039 162.768 94.0719 162.96 94.0719C163.28 94.0719 163.6 94.1359 163.952 94.2959C164.4 94.5199 164.752 94.8719 164.88 95.3839C165.104 96.2799 164.944 96.7919 165.168 97.8799C165.296 98.4879 165.552 98.7439 165.392 99.7039C165.296 100.216 165.648 100.728 165.776 101.208C166 102.072 165.808 102.52 165.968 103.384C166.16 104.408 165.712 104.76 165.84 105.56C166.032 106.712 165.712 106.904 165.904 107.992L166.096 109.208C166.352 108.888 166.48 108.824 166.608 108.664C166.928 108.216 167.44 107.48 167.6 106.936C168.336 104.632 168.592 105.656 169.008 103.352C169.232 102.2 169.808 101.784 169.808 100.44C169.808 99.5759 169.968 98.7439 170.448 97.6559C170.672 97.1119 170.48 96.4079 171.152 96.1839C171.568 96.0559 171.952 95.9599 172.272 95.9599C172.752 95.9599 173.136 96.1199 173.488 96.4079C174.224 97.0799 175.12 97.4959 175.632 98.3599C176.144 99.2559 176.24 99.8319 177.008 100.856C177.232 101.176 177.392 101.432 177.36 101.784C177.328 102.264 177.488 102.616 177.68 103C177.84 103.256 178 103.512 178 103.768C178.064 105.304 178.448 105.656 178.384 107.192C178.384 107.48 178.416 107.832 178.832 108.792L179.6 106.872C180.016 105.72 180.624 104.408 180.944 103.544C181.232 102.744 181.136 102.072 181.328 101.528C182.416 98.5199 181.808 98.4239 182.704 97.2079C183.344 96.3439 183.024 95.7679 183.568 94.5519C183.632 94.3919 183.664 94.1999 183.696 94.0399C183.888 93.2399 184.464 93.0159 185.072 93.0159C185.648 93.0159 186.16 93.2399 186.608 93.6239C186.864 93.8479 186.992 94.2959 186.992 94.7439C186.992 95.0639 186.928 95.4159 186.736 95.6719C186.416 96.1199 186.32 96.5359 186.256 97.0479C186.128 97.6879 186.128 98.3599 185.68 99.0319C185.296 99.6079 185.04 100.568 185.008 101.496C184.976 102.712 184.272 103.16 184.24 103.992C184.208 105.016 183.536 105.176 183.152 106.872C183.088 107.16 182.896 107.352 182.704 107.64C182.672 107.736 182.416 107.896 182.288 108.376C182.16 108.888 181.872 109.592 181.264 110.04C180.88 110.328 180.784 110.872 180.496 111.288C180.24 111.672 179.92 111.928 179.472 111.928C179.28 111.928 179.152 112.024 179.024 112.056C178.672 112.184 178.384 112.44 178.032 112.28C177.552 112.12 177.168 111.864 176.912 111.48C176.624 111 176.112 110.52 176.112 109.944C176.112 108.376 175.568 108.088 175.44 107.192C175.28 106.2 174.704 105.304 174.704 104.344C174.704 103.672 174.64 103.192 174.32 102.616C173.392 101.048 173.776 100.568 172.912 99.8319C172.912 100.568 172.624 101.016 172.56 101.784C172.528 102.168 172.656 102.616 172.56 103.224C172.432 103.864 172.176 104.376 171.696 105.496C171.568 105.752 171.472 106.008 171.536 106.328V106.488C171.536 106.712 171.472 106.936 171.408 107.16C171.376 107.32 171.312 107.48 171.184 107.608C170.256 108.504 169.84 109.784 169.392 110.616C169.168 111.064 169.104 111.224 168.912 111.384C167.92 112.12 167.76 112.344 167.44 113.08C167.12 113.816 165.904 114.104 165.584 114.104ZM200.214 114.072C199.254 114.072 198.486 113.624 197.43 113.624C196.406 113.624 195.51 113.304 194.87 112.6C194.454 112.152 193.302 111.544 193.11 111.064C191.99 108.408 191.446 109.08 191.222 106.008C191.126 104.504 191.606 103.64 191.766 101.592C191.798 101.144 192.374 100.504 192.47 99.9599C192.726 98.3919 193.654 96.5999 195.414 95.1279C196.022 94.6159 196.566 94.9359 197.622 94.4559C198.678 93.9759 199.222 93.7839 200.278 93.7839C201.206 93.7839 201.878 94.0399 202.358 94.7119C203.414 95.3199 204.63 95.8639 205.333 96.5999C205.59 96.8559 205.654 97.2399 205.878 97.5599C206.102 97.8159 206.422 98.0399 206.582 98.1999C207.158 98.7759 207.67 99.7039 207.606 100.536C207.542 101.56 207.926 102.168 207.926 103.064C207.926 104.056 207.734 105.016 207.414 105.944C206.966 107.288 207.286 108.216 207.03 108.952C206.838 109.464 206.39 109.56 206.166 110.2C206.006 110.648 205.75 111.096 205.366 111.192C204.918 111.32 204.854 111.672 204.63 111.896C204.118 112.44 204.054 112.248 203.286 113.048C202.838 113.496 202.198 113.528 201.59 113.688C201.078 113.816 200.886 114.072 200.214 114.072ZM198.614 110.904C198.934 110.936 199.254 111.032 199.574 111.032C200.086 111.032 200.598 110.808 200.854 110.552C201.046 110.36 201.334 110.296 201.526 110.232C202.038 110.04 201.942 109.688 202.262 109.464C203.478 108.568 204.342 107.288 204.342 105.848C204.342 104.792 204.822 105.304 204.79 102.744C204.79 101.688 204.278 100.952 204.054 100.024C203.766 98.7439 202.486 97.6879 201.846 97.6879C201.494 97.6879 201.078 97.7519 200.726 97.8799C200.502 97.9759 200.374 98.0079 200.15 98.0079C199.478 98.0079 198.998 97.5919 198.582 97.1439C197.91 97.1439 196.406 98.7119 196.118 100.184C196.054 100.6 195.862 100.984 195.606 101.336C194.454 102.968 194.934 103.96 194.55 105.112C194.358 105.72 194.902 105.944 194.902 106.264C194.902 106.712 194.742 106.712 194.742 107.448C194.742 108.056 194.902 108.696 195.254 109.08C195.478 109.368 195.862 109.624 196.054 110.136C196.15 110.36 196.406 110.424 196.598 110.424C197.11 110.424 197.302 110.968 197.845 110.968C198.07 110.968 198.39 110.872 198.614 110.904ZM221.631 113.848C221.407 113.848 221.151 113.752 220.831 113.56C220.287 113.24 219.583 113.24 219.263 113.208C218.559 113.144 218.239 112.536 217.887 112.216C217.535 111.864 216.927 111.608 216.927 111.608C216.607 111.32 216.639 111.288 216.479 111.16C215.615 110.36 215.167 109.4 215.007 108.376C214.815 107.128 214.047 106.392 214.431 104.312C214.559 103.64 214.175 103.352 214.367 102.776C214.687 101.784 214.431 101.56 214.463 100.92C214.527 99.9279 214.879 98.4879 214.655 97.2079C214.495 96.3759 214.879 96.3119 214.751 95.5439C214.559 94.4879 214.975 93.9119 215.775 93.6879C215.967 93.6239 216.191 93.5919 216.287 93.5919C216.671 93.5919 216.959 93.7519 217.247 93.9759C217.919 94.4879 218.303 95.1279 218.303 95.8959C218.303 96.1839 218.303 96.9199 218.015 97.6879C217.855 98.1359 217.759 98.7439 217.759 99.4159C217.759 100.088 217.887 100.248 217.823 100.824C217.727 101.624 217.983 101.624 217.951 102.072C217.919 102.52 217.663 102.584 217.663 103.032C217.663 103.672 218.015 104.248 218.015 104.664C218.015 104.92 217.791 105.4 217.791 105.688C217.791 106.264 218.303 106.808 218.399 107.8C218.463 108.472 218.751 109.336 219.551 109.912C220.223 110.392 220.575 110.04 221.535 110.392C223.103 110.968 223.135 110.04 224.415 109.496C225.567 109.016 225.311 108.024 225.759 107.48C226.143 107 225.919 106.776 226.047 106.36C226.271 105.624 226.431 105.368 226.527 105.016C226.975 103.448 226.463 103.48 226.879 101.912C227.071 101.208 226.815 100.696 226.815 100.152C226.815 99.2559 227.039 98.6799 227.039 98.2319C227.039 97.6239 226.783 97.3359 226.815 96.8239C226.847 96.1839 226.943 95.3839 227.135 95.0959C227.487 94.5519 227.999 94.3599 228.447 94.3599C228.639 94.3599 228.927 94.4879 229.279 94.6479C230.047 94.9679 230.431 95.7679 230.623 96.1839C230.719 96.3759 230.751 96.6319 230.751 96.8559C230.751 97.2079 230.623 97.5279 230.559 97.8799C230.495 98.1679 230.559 98.5199 230.559 98.5839C230.559 98.8399 230.591 98.9999 230.591 99.1599C230.591 99.3519 230.559 99.5759 230.463 99.7999C229.919 100.888 230.175 101.08 230.111 101.656C230.047 102.296 230.015 102.712 230.015 103.096L230.047 104.12C230.047 104.504 230.047 104.856 229.887 105.336C229.599 106.136 229.567 106.744 229.503 107.032C229.407 107.544 229.343 107.768 229.215 107.992L228.927 108.504C228.607 109.144 228.287 109.4 227.839 110.904C227.679 111.384 227.391 111.992 226.271 112.472C225.599 112.76 225.695 113.112 224.991 113.464C224.575 113.688 224.031 113.816 223.647 113.816C223.199 113.816 222.943 113.656 222.719 113.656C222.239 113.656 221.983 113.848 221.631 113.848ZM250.165 114.552C249.589 114.616 248.981 114.616 248.469 114.392C247.957 114.136 247.413 114.136 246.837 114.136C246.517 114.136 246.197 113.912 245.813 113.944C245.365 113.976 244.629 113.976 244.117 113.88C243.669 113.784 243.189 113.688 242.645 113.688C242.293 113.688 242.005 113.848 241.653 113.88C241.077 113.944 240.533 113.976 239.957 113.976C239.541 113.976 239.221 113.848 238.933 113.624C238.229 113.016 237.909 112.28 237.909 111.416V110.616C237.909 109.88 238.229 109.272 238.101 108.6C237.941 107.736 238.036 106.936 238.165 106.104C238.293 105.272 238.165 104.504 238.101 103.736C238.036 102.584 238.229 101.496 238.229 100.376C238.229 99.3199 237.909 98.9039 238.036 97.2399C238.069 96.6959 237.877 96.2159 237.621 95.7679C237.205 95.0959 237.301 94.3599 237.525 93.6239C237.653 93.2079 238.036 92.9519 238.453 92.9199C239.157 92.8559 240.181 93.0479 240.181 93.8799C240.181 94.4559 240.405 94.7439 240.757 95.1919C241.013 95.5119 241.109 95.7679 241.173 96.1199C241.237 96.5999 241.397 97.1119 241.397 97.5599C241.397 97.8159 241.365 98.0399 241.333 98.2959C241.237 98.9039 241.013 99.5439 241.173 100.088C241.493 101.208 241.109 101.816 241.109 102.648C241.109 103.128 241.237 103.576 241.333 104.056C241.493 104.856 241.589 105.688 241.333 106.456C241.109 107.192 241.269 108.024 241.269 108.632C241.269 109.112 241.077 109.72 240.949 110.232C241.109 110.328 241.173 110.36 241.493 110.36C241.717 110.36 242.005 110.296 242.485 110.296C243.029 110.296 243.573 110.616 244.181 110.744C244.789 110.872 245.429 110.488 246.037 110.712C247.125 111.096 247.189 110.648 248.341 111.128C248.597 111.224 248.885 111.16 249.173 111.256C249.493 111.352 249.717 111.608 250.005 111.736C250.805 112.056 251.061 112.696 251.061 113.528C251.061 114.136 250.741 114.488 250.165 114.552ZM257.497 115.192C256.697 114.712 256.313 114.104 256.217 113.336C256.057 111.96 255.929 110.616 255.929 109.24C255.929 108.504 255.961 107.768 256.057 107C256.153 105.976 256.537 105.112 256.537 103.864L256.505 103.096C256.505 102.552 256.825 102.04 256.729 101.496C256.697 101.304 256.697 101.112 256.697 100.92C256.697 99.9919 256.953 99.0959 256.953 98.1999C256.953 96.5999 256.825 95.6399 256.569 94.2959C256.505 93.9439 256.409 93.3679 256.409 93.0159C256.409 92.7919 256.441 92.5679 256.505 92.3759C256.665 91.7999 257.017 91.7039 257.721 91.7039C258.585 91.7039 259.385 92.0559 260.185 92.0559C261.209 92.0559 262.201 92.7279 263.257 92.9519C263.737 93.0479 264.153 93.1759 264.473 93.5599C264.665 93.7839 264.921 93.9759 265.369 94.0719C266.393 94.2959 267.289 95.0639 268.249 95.9279C268.729 96.4079 268.441 96.8239 269.433 97.4319C270.009 97.7839 270.169 98.2319 270.329 98.6799L270.873 100.504C270.937 100.792 271.001 101.176 271.001 101.464C271.097 102.68 270.841 103.096 270.937 104.632C271.033 105.976 270.137 107.352 269.817 108.024C269.561 108.568 269.337 109.112 269.177 109.688C269.081 110.04 268.857 110.36 268.729 110.488L267.705 111.576C267.513 111.768 267.385 112.024 267.193 112.12C265.401 113.144 265.689 113.432 264.569 114.04C264.089 114.296 263.609 114.424 263.065 114.424C262.521 114.424 261.369 114.232 260.569 114.232L259.961 114.2C259.897 114.328 259.737 114.584 259.609 114.712L259.097 115.192C258.873 115.384 258.617 115.48 258.361 115.48C258.073 115.48 257.785 115.384 257.497 115.192ZM262.745 110.616C263.449 110.296 264.057 110.456 264.569 109.848C265.241 109.08 265.753 108.28 266.041 107.64C266.297 107.064 266.937 107 267.097 106.168C267.417 104.536 267.129 103.832 267.513 102.136C267.673 101.4 267.481 100.28 267.033 99.5119C265.945 97.6879 265.785 98.3279 264.889 97.5919C264.505 97.2719 263.961 96.9519 263.385 96.9199C262.745 96.8879 262.489 96.4399 261.913 96.2159C261.593 96.0239 260.953 96.0559 260.057 95.5119C259.993 95.8639 260.025 96.3759 260.025 96.7919C260.025 97.3039 260.121 97.4639 260.121 97.9119C260.121 98.1679 260.089 98.5839 259.929 99.2879C259.897 99.4479 259.865 99.6399 259.865 99.8319C259.865 100.472 260.025 101.24 260.025 102.04C260.025 102.872 259.865 103.192 259.673 103.544C259.417 104.024 259.289 104.6 259.289 105.496C259.289 105.848 259.353 106.232 259.353 106.616C259.353 107.064 259.225 107.512 259.065 108.056C259.033 108.184 258.969 108.312 258.969 108.504C258.969 109.24 259.353 109.24 259.353 110.232C259.353 110.68 259.545 110.84 259.609 111.192C260.185 111.256 260.569 111.352 260.953 111.352C262.041 111.352 262.073 110.936 262.745 110.616ZM302.066 113.656C301.714 113.656 301.202 113.4 301.074 113.048C300.818 112.408 300.434 112.536 300.05 111.8C299.378 110.584 300.178 110.968 298.578 108.792C297.938 107.928 297.586 107.384 297.362 106.744C297.138 106.072 296.53 105.816 296.338 105.4C296.178 105.016 295.314 104.728 294.866 103.928C294.802 104.504 294.706 104.824 294.706 105.112C294.706 105.432 294.642 105.688 294.61 105.976C294.61 106.232 294.674 106.488 294.674 106.776C294.674 107.032 294.61 107.256 294.546 107.48L294.45 107.736C294.418 107.832 294.386 107.928 294.386 108.024C294.386 108.216 294.386 108.504 294.29 108.76C294.098 109.208 293.97 109.432 294.034 110.584C294.066 111.32 293.714 111.384 293.714 111.896C293.714 111.992 293.714 112.12 293.746 112.248C293.778 112.376 293.778 112.472 293.778 112.568C293.778 113.144 293.298 113.432 292.53 113.432C292.082 113.432 291.666 113.208 291.378 112.92C290.93 112.536 290.674 111.992 290.674 111.384C290.674 111.064 290.77 110.584 290.962 109.944C291.09 109.496 291.218 108.984 291.25 108.344C291.282 107.672 291.57 107.416 291.57 106.296C291.57 105.432 291.762 104.792 291.698 103.992C291.634 103.32 291.922 102.648 291.922 101.816C291.922 101.304 291.666 100.856 291.794 99.4479C291.89 98.5519 291.41 97.9759 291.506 96.9199C291.57 96.1519 291.25 95.6399 291.25 95.1919C291.25 94.2639 291.634 93.7839 292.434 93.7839C292.754 93.7839 293.074 93.8479 293.362 94.0079C294.034 94.3279 294.45 94.9679 294.45 95.7999L294.418 96.5039C294.418 96.7919 294.546 96.9839 294.61 97.3679C294.642 97.6239 294.706 97.8799 294.706 98.0719C294.706 98.5199 294.514 98.7759 294.514 99.0959C294.514 99.3199 294.93 99.8639 294.77 101.272C294.706 101.88 294.738 102.104 294.802 102.424C295.09 102.136 294.962 101.88 295.378 101.496C295.826 101.08 296.53 99.9279 297.33 99.6399C297.874 99.4479 298.386 98.2959 298.93 98.0719C299.954 97.6239 300.082 96.7599 301.522 95.9919C302.066 95.7039 302.002 95.2559 302.738 95.2559C303.73 95.2559 304.37 96.1519 304.37 96.7279C304.37 97.0799 304.21 97.2719 304.018 97.4639C303.826 97.6559 303.73 97.8479 303.57 98.1999C303.442 98.4879 302.802 98.6799 302.45 98.9039C302.226 99.0639 301.906 99.2239 301.682 99.4159C301.362 99.7359 301.298 100.184 300.882 100.376C299.346 101.112 300.21 101.208 299.09 101.944C298.706 102.168 298.354 102.456 298.034 102.712C297.906 102.808 297.778 102.968 297.618 103.096C297.778 103.224 298.13 103.352 298.386 103.864C298.514 104.088 299.25 104.376 299.57 104.824C299.826 105.176 299.986 105.976 300.434 106.424C301.522 107.576 301.106 107.832 301.842 108.44C302.386 108.888 302.386 109.368 302.514 109.752C302.674 110.2 302.802 110.264 303.186 110.456C303.986 110.84 303.986 111.128 303.986 111.832C303.986 112.6 303.634 112.952 303.058 113.304C302.642 113.56 302.45 113.656 302.066 113.656ZM317.277 114.584C316.157 114.136 315.293 113.912 314.973 113.912C314.205 113.912 314.429 114.232 313.725 114.264C312.477 114.296 312.317 114.232 311.901 113.752C311.261 113.016 310.877 112.536 310.781 111.864C310.717 111.448 310.685 111.064 310.685 110.68C310.685 109.944 310.781 108.92 310.781 108.024C310.781 107.128 310.781 106.296 310.877 105.464C310.941 104.92 310.877 104.376 310.749 103.8C310.429 102.392 310.813 101.016 310.557 99.5759C310.461 98.9679 310.589 98.3599 310.589 97.7519C310.589 97.2079 310.653 96.6639 310.749 96.2799C310.909 95.6079 311.229 94.9039 311.773 94.6159C313.277 93.8479 312.957 93.2719 314.077 92.7919C314.589 92.5679 315.133 92.4079 315.613 92.4079C316.829 92.4079 318.365 92.8239 318.941 93.4639C319.485 94.0719 319.997 94.2319 320.317 94.4239C320.701 94.6479 320.829 95.2239 321.661 95.7359C322.301 96.1199 322.333 96.9519 322.333 97.5279C322.333 97.8799 322.013 98.1359 321.501 98.4879C321.341 98.6159 321.181 98.6479 321.021 98.6479C320.669 98.6479 320.349 98.4239 320.125 98.1999C319.453 97.5279 319.325 97.0159 318.685 96.6959C317.533 96.1199 317.981 95.7359 316.765 95.6079C316.285 95.5439 316.093 95.6079 315.837 95.7039C315.549 95.7999 315.101 96.2159 314.813 96.5359C314.461 96.9199 314.301 97.4639 314.045 97.7199C313.533 98.2319 313.629 98.5519 313.629 98.9359C313.629 99.1279 313.661 99.3199 313.693 99.5119C313.725 99.7359 313.821 100.024 313.821 100.28C313.821 100.472 313.693 100.856 313.693 101.048C313.693 101.336 313.757 101.656 313.821 102.424C314.045 102.584 314.269 102.616 314.781 102.712C316.829 103.096 316.509 102.712 317.405 102.776C317.981 102.84 318.269 103.096 318.461 103.32C318.525 103.384 318.621 103.48 318.877 103.576C319.581 103.864 319.933 104.728 319.837 105.496C319.805 105.72 319.485 106.04 319.229 106.2C319.069 106.296 318.877 106.328 318.685 106.328C318.397 106.328 318.109 106.264 317.949 106.2C317.085 105.912 316.189 105.944 315.773 105.944C315.133 105.944 314.685 105.848 313.981 105.656C313.949 105.848 313.917 106.2 313.917 106.744C313.917 107.128 314.045 107.576 314.045 108.024C314.045 108.664 313.597 109.08 313.885 109.816C314.045 110.232 314.045 110.456 314.045 110.872C314.237 111 314.557 111.064 314.813 111.064C315.837 111.064 316.925 111.096 317.885 111.608C319.549 112.536 319.325 111.704 320.093 112.312C320.413 112.568 320.445 113.112 320.445 113.336C320.445 113.688 320.253 114.072 319.965 114.392C319.613 114.776 319.229 114.968 318.717 114.968C318.493 114.968 317.757 114.776 317.277 114.584ZM330.202 114.136C330.074 114.136 329.914 114.136 329.594 114.04C329.242 113.912 328.282 113.528 328.122 113.144C327.994 112.792 327.93 112.504 327.93 112.12C327.93 111.672 328.154 111.032 328.154 110.552C328.154 110.264 327.994 109.56 328.218 108.888C328.314 108.632 328.442 108.152 328.442 107.864C328.442 107.448 328.314 106.872 328.314 106.136V103.928C328.314 103.48 328.154 103.032 328.154 102.776C328.154 101.912 328.538 101.944 328.506 101.048C328.442 99.5439 328.826 98.6799 328.826 98.0079C328.826 97.4639 328.602 97.2079 328.73 96.6959C329.018 95.6079 328.698 95.1919 328.698 94.8399C328.698 94.5199 328.858 94.1679 328.986 94.0399C329.562 93.4319 330.426 93.3039 331.034 93.3039C332.41 93.3039 334.33 93.7839 334.906 93.7839C335.45 93.7839 335.578 93.7199 335.962 93.7199C336.986 93.7199 337.754 94.4239 338.33 95.0959C338.618 95.4159 338.65 95.6079 338.65 95.7999C338.65 96.1199 338.522 96.4399 338.234 96.5999C337.978 96.7279 337.722 96.7599 337.53 96.7599C337.37 96.7599 337.082 96.7599 336.794 96.8239C336.538 96.8879 336.346 96.9199 336.09 96.9199C335.706 96.9199 335.322 96.8559 334.394 96.6319C333.978 96.5359 333.338 96.7599 332.666 96.5359C332.506 96.4719 332.282 96.4079 331.898 96.4079C331.834 96.6319 331.802 96.9519 331.802 97.4639C331.802 97.6559 331.866 97.8479 331.866 98.0399C331.866 98.3279 331.706 98.5839 331.706 98.9679C331.706 99.3839 331.898 99.8319 331.898 100.12C331.898 100.44 331.866 100.824 331.738 101.304C331.866 101.304 331.994 101.336 332.634 101.336H333.306C333.946 101.336 334.202 101.464 334.586 101.464L335.29 101.432C336.282 101.432 337.018 102.2 337.018 103.16C337.018 103.608 336.858 104.184 335.994 104.184C335.546 104.184 335.258 104.088 335.002 104.088C334.426 104.088 334.362 104.248 333.594 104.248C332.986 104.248 332.474 103.992 331.546 104.088C331.546 104.312 331.482 104.472 331.45 104.792C331.354 105.784 331.578 106.136 331.514 107.384C331.482 107.896 331.194 108.728 331.322 109.464C331.93 109.144 332.698 109.496 333.146 109.496C333.658 109.496 334.202 109.496 334.682 109.656C335.706 109.976 336.218 110.104 336.73 110.168C337.114 110.2 337.37 110.36 337.466 110.712C337.626 111.288 337.882 111.64 337.882 112.024C337.882 112.728 336.698 113.016 336.026 113.016C335.674 113.016 335.354 112.984 334.97 112.856C333.242 112.408 332.698 112.376 332.218 112.376C331.802 112.376 331.61 112.472 331.546 112.536C331.386 112.696 331.162 113.144 331.066 113.464C330.906 113.944 330.586 114.136 330.202 114.136ZM347.111 113.304C346.855 113.304 346.663 113.208 346.439 113.048C346.151 112.792 345.766 112.504 345.575 112.12C345.447 111.864 345.223 111.48 345.286 110.872C345.543 108.536 345.159 108.792 345.159 106.904C345.159 105.752 345.543 104.888 345.286 104.216C345.095 103.704 345.479 102.296 345.223 101.752C344.711 100.696 345.319 99.7359 344.935 98.8399C344.775 98.4879 344.807 98.0719 344.775 97.6559C344.743 97.3679 344.711 97.0799 344.711 96.7599C344.711 96.4399 344.743 96.0879 344.871 95.7679C345.031 95.3519 345.223 95.0959 345.543 94.9039C346.183 94.5199 346.823 94.1039 347.527 93.8159C347.783 93.7199 348.103 93.5599 348.519 93.6559C350.791 94.1039 350.631 93.5919 352.423 94.3599C353.319 94.7439 353.895 94.5839 354.247 94.7439C354.759 94.9999 354.983 95.5439 355.719 96.2799C356.871 97.4319 357.127 98.0719 356.999 99.1279C356.935 99.5439 357.031 99.8639 357.127 100.152C357.222 100.44 357.287 100.728 357.287 100.984C357.255 101.624 356.871 101.72 356.615 102.776C356.327 104.024 355.239 103.992 354.567 104.824C353.863 105.72 353.543 105.752 352.295 105.944C351.527 106.072 351.175 105.752 350.791 105.496C349.991 104.92 349.831 105.24 349.319 104.888C348.807 104.536 348.487 104.472 348.231 104.088C348.167 104.472 348.135 104.472 348.135 104.92C348.135 105.656 348.263 106.424 348.263 107C348.263 107.544 348.103 107.96 348.103 108.504C348.103 108.952 348.263 109.432 348.295 109.88C348.327 110.36 348.295 110.84 348.231 111.32C348.199 111.64 348.327 111.8 348.327 112.12C348.327 112.824 347.687 113.304 347.111 113.304ZM350.343 102.488C351.047 102.584 350.983 102.808 351.495 102.904C352.103 103.032 352.423 102.712 352.775 102.328C352.967 102.104 353.159 101.88 353.351 101.752C353.959 101.336 354.215 100.92 354.215 100.44C354.215 100.056 354.439 100.024 354.375 99.3839C354.311 98.6159 353.351 97.9759 353.223 97.9119C352.903 97.7199 352.551 97.5919 352.231 97.3359C351.847 97.0159 351.367 96.8559 350.855 96.8559C350.279 96.8559 349.927 96.6959 349.703 96.6959C349.543 96.6959 349.447 96.7279 349.319 96.7919C349.031 96.9519 348.839 97.2079 348.519 97.3999C347.975 97.7839 347.975 97.9439 347.975 98.1359C347.975 98.4559 348.199 98.8079 348.199 99.0639C348.199 99.3199 348.135 99.6719 348.135 99.7999C348.135 100.024 348.359 100.184 348.359 100.504C348.359 100.696 348.327 100.856 348.327 101.4C349.223 101.624 348.935 102.296 350.343 102.488ZM140.264 150.8C139.08 150.8 137.64 149.968 136.776 149.072C136.52 148.816 136.2 148.656 135.912 148.496C135.272 148.112 134.664 147.76 134.664 146.768C134.664 146.224 134.888 145.904 135.304 145.808C135.432 145.776 135.688 145.648 135.752 145.584C136.04 145.296 136.36 145.264 136.744 145.264C137.544 145.264 137.928 145.488 138.216 146.128C138.472 146.672 139.048 146.672 139.432 147.344C139.688 147.76 140.264 147.856 140.68 147.856C141.544 147.856 142.472 147.824 142.728 147.632C143.336 147.152 143.88 146.672 144.04 145.936C144.168 145.36 144.488 145.584 144.552 144.624C144.584 144.336 144.968 144.208 144.936 143.728C144.904 143.376 145.224 142.768 145.224 142.192C145.224 141.776 145.128 141.456 145 141.264C144.776 140.976 144.552 140.88 144.136 140.88C143.624 140.88 142.312 140.848 141.416 140.08C140.232 139.088 139.624 139.728 139.048 138.384C138.344 136.752 137.288 136.656 137.32 134.448C137.352 133.168 137.288 131.664 137.896 131.024C138.376 130.512 138.504 129.712 138.984 129.072C139.432 128.464 139.688 128.432 139.944 128.336C140.136 128.272 140.392 128.208 140.648 127.952C140.904 127.696 141.128 127.472 141.64 127.152L142.248 126.768C142.664 126.48 143.08 126.384 143.56 126.384C144.104 126.384 144.68 126.48 145.416 126.704C145.736 126.8 145.96 126.96 146.152 127.088C146.344 127.216 146.568 127.408 146.824 127.472C147.336 127.6 147.72 127.92 148.104 128.208C148.552 128.56 148.872 128.752 149.288 128.944C149.736 129.168 150.056 129.84 150.056 130.48C150.056 131.152 148.872 131.888 148.392 131.888C147.72 131.888 146.792 131.536 146.248 130.704C145.576 129.712 144.2 129.584 143.752 129.584C143.592 129.584 143.304 129.68 143.144 129.936C143.016 130.192 142.824 130.416 142.632 130.576C142.152 130.896 142.056 131.088 141.832 131.44C141.192 132.464 140.68 132.08 140.52 134.256C140.488 134.736 140.616 135.056 140.744 135.344C140.872 135.632 141.096 135.792 141.48 136.08C141.96 136.432 141.672 136.816 142.312 137.104C143.368 137.552 143.304 137.872 144.744 137.808C145.384 137.776 146.024 137.968 146.632 138.256C147.048 138.416 147.4 138.8 147.656 139.344C147.72 139.568 147.88 139.76 148.008 139.888C148.232 140.112 148.392 140.336 148.392 140.88C148.392 141.136 148.392 141.36 148.488 141.552C148.584 141.808 148.616 142.096 148.616 142.352C148.616 143.216 148.232 144.048 147.88 144.848C147.784 145.104 147.624 145.36 147.56 145.648C147.272 146.864 147.336 147.312 146.696 147.824C146.504 147.984 146.344 148.208 146.152 148.592C146.056 148.816 145.8 149.04 145.672 149.168C145.192 149.68 144.328 149.648 143.592 150.16C142.952 150.608 142.632 150.256 141.992 150.384C141.384 150.512 140.776 150.8 140.264 150.8ZM161.3 149.968C160.948 149.968 160.5 149.712 160.18 149.52C159.668 149.168 159.444 148.72 159.252 148.304C159.124 148.048 158.996 147.728 159.22 147.344C159.828 146.352 159.156 146.384 159.828 144.912C160.116 144.304 160.116 143.664 160.116 143.024C160.116 142.576 160.244 142.192 160.308 141.744C160.372 141.456 160.596 141.136 160.596 140.24C160.66 137.456 161.3 137.584 161.3 135.952C161.3 135.056 161.716 134.896 161.716 134.256C161.716 133.616 161.844 133.328 161.844 133.008C161.844 132.784 161.908 132.592 161.908 132.336C161.652 132.272 161.236 132.176 160.724 132.208C159.476 132.24 158.42 132.688 157.716 132.688C156.916 132.688 156.948 132.304 156.244 132.24C155.156 132.144 154.324 131.504 154.324 130.896C154.324 130.288 154.964 129.904 155.06 129.296C155.124 128.816 155.956 128.464 156.564 128.464C157.012 128.464 157.972 128.752 158.452 128.944C158.836 129.072 159.22 129.104 159.604 129.104C159.956 129.104 160.276 128.912 160.884 129.008C161.62 129.136 162.036 128.816 162.772 128.912C163.444 129.008 163.572 129.264 164.404 129.264C165.172 129.264 165.684 129.712 166.42 129.712C167.572 129.712 168.34 129.52 169.62 130.064C170.164 130.288 170.388 130.32 170.804 130.288C171.476 130.224 172.116 130.48 172.532 130.704C172.82 130.896 172.916 130.928 173.108 130.96C173.844 131.088 173.492 131.76 174.068 132.208C174.196 132.336 174.26 132.496 174.26 132.688C174.26 133.008 174.068 133.392 173.748 133.584C173.46 133.744 173.236 133.648 172.756 134.032C172.532 134.224 172.18 134.224 171.86 134.224C171.156 134.224 170.74 133.968 170.26 133.648C169.78 133.328 169.268 133.072 168.756 133.2C167.54 133.488 167.572 133.104 166.1 133.104C165.876 133.104 165.652 133.008 165.396 133.008C165.332 133.264 165.3 133.616 165.3 133.872C165.3 134.864 164.82 135.056 164.788 136.4C164.788 136.72 164.788 137.04 164.564 137.264C164.244 137.584 164.628 137.808 164.244 138.448C163.828 139.152 164.084 139.824 164.084 140.592C164.084 140.976 163.924 141.296 163.7 141.648C163.508 141.968 163.572 142.416 163.54 142.832L163.508 144.272C163.476 144.688 163.444 145.072 163.316 145.456C163.06 146.16 162.676 146.96 162.836 147.696C162.996 148.464 162.1 149.968 161.3 149.968ZM174.006 150.096C173.43 149.84 172.662 149.232 172.662 148.464C172.662 148.208 172.886 147.376 173.814 147.184C174.006 146.992 174.294 146.672 174.518 146.064C175.638 143.056 176.086 143.056 176.246 141.264C176.438 139.024 177.75 137.136 178.102 135.184C178.23 134.544 178.774 133.872 178.838 132.976C178.902 131.984 179.382 130.992 179.638 130C179.67 129.84 179.734 129.68 179.766 129.552C179.958 128.784 180.246 127.792 180.598 127.472C180.886 127.184 181.654 127.152 182.326 127.152C182.742 127.152 182.998 127.28 183.19 127.536L183.83 128.336C184.342 128.912 184.758 129.488 185.078 130.16C185.27 130.576 185.494 130.8 185.654 130.928C185.782 131.024 185.91 131.184 185.942 131.44C185.974 131.696 186.198 132.144 186.486 132.592C186.806 133.104 187.062 133.616 187.158 134.16C187.318 135.056 187.798 135.344 187.926 136.272C188.246 138.416 188.662 138.704 188.662 139.12C188.662 139.44 188.502 139.92 188.502 140.176C188.502 140.496 188.63 140.592 188.63 140.912C188.63 141.136 188.438 141.68 188.438 141.968C188.438 142.288 188.534 142.384 188.534 142.608C188.534 142.832 188.406 143.056 188.406 143.28C188.406 143.664 188.598 143.696 188.598 144.08L188.566 144.816C188.566 145.456 188.79 145.424 188.79 146.096C188.79 146.672 188.534 147.504 188.534 147.984C188.534 148.272 188.374 148.464 188.182 148.56C187.926 148.72 187.638 148.784 187.35 148.784C186.774 148.784 186.198 148.496 186.006 148.016C185.75 147.408 185.558 146.832 185.558 146.128C185.558 145.392 185.654 144.656 185.654 144.08C185.654 143.376 185.462 143.376 185.462 142.448L185.494 141.456C185.494 140.88 185.462 140.912 185.43 140.688C184.47 140.688 184.118 140.944 183.414 140.88C182.87 140.816 182.422 141.072 181.878 141.072C181.142 141.072 180.694 140.56 179.446 140.56C179.286 140.88 179.19 140.752 179.158 141.36C179.126 141.808 179.03 142.192 178.87 142.608C178.71 143.088 178.742 143.92 178.486 144.432C177.974 145.456 177.878 146.448 177.078 147.536C176.886 147.824 176.31 148.816 176.246 149.136C176.182 149.584 175.894 149.776 175.606 149.936C175.222 150.16 174.934 150.256 174.646 150.256C174.454 150.256 174.23 150.192 174.006 150.096ZM184.374 138.096C184.886 138.096 185.302 137.936 185.398 137.904C185.302 137.136 185.142 136.72 185.046 136.496C184.534 135.504 184.598 134.32 183.894 133.424C183.51 132.944 183.606 132.72 183.222 132.08C183.062 131.824 182.902 131.632 182.614 131.312C182.518 131.632 182.262 131.92 182.166 132.432C182.07 132.944 181.558 133.52 181.398 134.448C181.27 135.056 180.79 135.248 180.694 136.112C180.566 137.264 180.118 137.232 179.894 137.936C180.246 138.096 180.342 138.256 180.822 138.256C181.398 138.256 182.358 138.096 182.87 138.064C183.382 138.032 183.862 138.096 184.374 138.096ZM194.625 147.92C194.625 147.6 194.625 146.864 195.201 146.48C195.393 146.352 195.809 146.032 196.001 145.52C196.353 144.592 196.865 144.496 197.185 143.696C197.409 143.152 197.889 142.96 197.985 142.576C198.081 142.128 198.721 141.744 198.817 140.752C198.881 140.112 199.393 139.728 199.553 138.96C199.393 138.832 199.137 138.352 198.913 138.032C198.689 137.744 198.401 137.392 198.305 136.976C197.825 135.088 197.249 135.216 197.025 133.936C196.961 133.488 196.705 133.104 196.353 132.816C196.225 132.72 196.129 132.528 196.129 132.368C196.129 131.952 195.841 131.76 195.585 131.44C195.233 131.024 195.041 130.384 194.817 129.872C194.753 129.744 194.689 129.584 194.785 129.104C194.913 128.528 195.009 128.464 196.129 128.464C197.153 128.464 197.857 129.04 198.177 129.968C198.369 130.512 198.881 130.992 199.169 131.408C199.329 131.664 199.393 131.952 199.425 132.112C199.553 132.912 199.969 133.296 200.033 134.192C200.097 134.768 200.545 134.96 200.705 135.344C200.961 136.08 201.153 136.176 201.281 136.4C201.537 136.176 201.697 136.048 201.793 135.888C202.305 135.12 202.945 134.48 203.777 134C204.545 133.552 204.257 133.072 205.377 132.304C206.049 131.856 206.401 132.112 207.361 130.992C207.713 130.576 208.193 130.832 208.481 130.288C208.737 129.84 209.825 129.616 210.241 129.616C210.529 129.616 210.817 129.712 211.041 129.808C211.425 129.936 211.873 130.096 212.065 130.192C212.225 130.288 212.289 130.48 212.289 130.544C212.289 130.736 212.193 130.96 212.257 131.152C212.321 131.376 212.385 131.536 212.385 131.696C212.385 132.208 212.001 132.432 211.585 132.496C211.073 132.56 210.817 132.912 210.561 132.944C209.825 133.04 209.697 133.136 209.505 133.456C209.249 133.84 208.993 134.032 208.545 134.256C208.225 134.416 208.193 134.768 207.937 134.928C207.681 135.12 207.361 135.12 207.073 135.312C206.817 135.472 206.657 135.696 206.529 136.016C206.305 136.56 205.665 136.048 204.769 137.584C203.649 139.504 203.457 138.416 203.105 139.888C202.785 141.168 201.761 141.68 201.345 143.376C201.089 144.4 200.321 144.528 199.777 145.968C199.649 146.288 199.521 146.384 199.329 146.48C198.913 146.672 198.849 146.96 198.785 147.472C198.657 148.4 198.369 148.592 197.505 149.072C197.153 149.264 196.865 149.328 196.577 149.328C195.713 149.264 194.625 148.912 194.625 147.92ZM218.733 149.392C218.285 149.392 217.965 149.232 217.613 148.784C217.165 148.272 216.781 147.856 216.781 147.12C216.781 146.8 217.101 146.288 217.101 145.392C217.101 144.656 216.877 143.312 217.069 141.904C217.197 141.04 216.877 139.6 216.877 139.024C216.877 138.448 217.133 137.392 216.973 136.528C216.845 135.824 217.133 135.216 216.973 134.544C216.493 132.56 217.165 131.888 216.781 130.48C216.589 129.808 216.589 129.328 216.621 128.848C216.685 128.048 217.133 127.76 217.709 127.76C218.157 127.76 218.701 127.984 219.149 128.24C219.533 128.464 220.045 129.008 220.045 129.648L220.013 130.576C220.013 130.992 220.269 131.088 220.269 131.792C220.269 132.016 220.205 132.336 220.237 132.784C220.301 133.808 219.885 133.584 220.269 136.304C220.397 137.104 220.205 137.552 220.205 138.32C220.205 139.12 220.333 139.664 220.365 140.112C220.397 140.688 220.269 141.072 220.461 141.936C220.557 142.416 220.365 142.96 220.333 143.44C220.301 143.76 220.461 144.912 220.461 145.488C220.461 145.808 220.237 146.064 220.205 146.48V146.576C220.205 146.896 220.301 147.216 220.301 147.44C220.301 148.432 219.629 149.392 218.733 149.392ZM230.712 149.712C229.272 149.712 228.472 148.72 228.472 147.568C228.472 146.48 228.088 146.48 228.12 145.744C228.152 144.624 228.44 143.76 228.44 143.44C228.44 142.96 228.248 142.512 228.248 142.032C228.248 140.56 228.696 139.088 228.44 137.552C228.28 136.528 228.696 135.344 228.472 134.352C228.312 133.616 228.664 132.912 228.664 132.176L228.6 130.8V130.288C228.6 129.424 229.272 128.912 230.04 128.912C230.392 128.912 230.712 129.008 230.808 129.072C231.096 129.232 231.16 129.552 231.384 129.744C231.832 130.128 232.504 130.32 232.792 130.832C233.08 131.344 234.232 131.824 234.776 132.4C235.16 132.784 235.16 133.04 235.576 133.296C236.44 133.84 237.56 134.608 238.168 135.408C238.392 135.696 238.264 136.08 238.712 136.336C239.288 136.688 239.864 137.392 240.504 138.256C240.888 138.8 241.08 139.28 241.56 139.536C241.56 139.28 241.592 139.184 241.592 139.056C241.592 138.896 241.528 138.672 241.528 138.48C241.528 138 241.752 137.744 241.656 137.2C241.592 136.752 241.592 136.304 241.592 136.016C241.592 135.696 241.592 135.472 241.816 134.32C242.136 132.656 241.528 133.296 242.232 130.768C242.392 130.224 242.296 129.712 242.328 129.36C242.392 128.976 242.584 128.752 242.616 128.432C242.712 127.568 242.968 127.44 243.864 127.184C244.024 127.152 244.216 127.12 244.376 127.12C244.856 127.12 245.336 127.344 245.688 127.856C246.136 128.496 246.328 128.816 246.328 129.2C246.328 129.68 245.976 129.84 245.976 130.48C245.976 131.088 245.816 131.696 245.528 132.336C245.368 132.656 245.336 132.912 245.336 133.104L245.368 133.648C245.368 133.84 245.336 134.096 245.24 134.416C245.144 134.736 245.176 135.152 245.176 135.472C245.176 135.856 244.888 136.432 244.888 136.656C244.888 137.232 245.048 137.744 245.016 138.32C244.952 139.024 244.696 139.184 244.824 139.792C245.016 140.688 244.312 140.528 244.472 142.736C244.536 143.408 244.024 144.144 243.864 144.784C243.704 145.456 243.48 145.68 242.84 145.712H242.744C242.424 145.712 242.104 145.584 241.88 145.456C241.304 145.168 240.696 144.816 240.408 144.048C240.088 143.216 239.832 142.512 239.192 141.904C238.808 141.52 238.744 141.328 238.616 140.88C238.328 139.824 237.24 139.28 236.696 138.224C236.344 137.52 235.576 137.456 235.384 137.008C235 136.016 234.2 135.632 233.24 135.12C232.632 134.8 232.44 134.256 231.928 133.936L231.896 134.736C231.896 135.056 231.992 135.44 231.992 136.016C231.992 137.136 231.608 137.008 231.768 139.28C231.8 139.952 231.64 140.624 231.544 141.328C231.512 141.584 231.448 141.808 231.448 142.064C231.448 142.256 231.48 142.416 231.544 142.608C231.608 142.864 231.672 143.12 231.672 143.376C231.672 143.664 231.608 143.952 231.48 144.272C231.352 144.656 231.224 145.104 231.256 145.488C231.352 146.48 232.056 146.928 231.8 148.336C231.64 149.264 231.448 149.712 230.712 149.712ZM260.966 149.808C259.974 149.84 259.014 149.84 258.342 149.36C257.99 149.136 257.766 149.04 257.382 148.88C256.326 148.432 255.462 147.536 254.598 146.608C254.374 146.352 254.246 146.16 254.15 146C253.958 145.616 253.83 145.104 253.574 144.752C253.094 144.176 252.646 143.664 252.55 142.896C252.23 140.24 251.75 140.048 251.75 138.576C251.75 137.68 252.294 136.784 252.326 135.952C252.39 134.512 253.222 134.16 253.414 132.912C253.542 131.984 253.958 131.184 254.534 130.576C255.366 129.68 256.134 128.88 257.382 128.496C257.67 128.4 257.958 128.304 258.246 128.176L259.238 127.632C259.942 127.248 260.678 127.088 261.414 127.088C261.798 127.088 262.182 127.248 262.566 127.248C263.27 127.248 263.878 127.344 264.358 127.728C264.582 127.888 264.902 128.08 265.19 128.112C265.83 128.208 266.47 128.688 266.95 129.136C267.174 129.36 267.238 129.488 267.43 129.84C267.878 130.736 267.846 131.376 268.55 132.272C268.774 132.56 268.87 132.944 268.742 133.264C268.358 134.16 268.102 134.512 267.43 134.512C266.566 134.512 265.638 133.68 265.318 132.72C265.094 132.048 264.87 131.472 264.614 131.024C264.23 130.288 263.526 130.128 262.886 130.128C262.246 130.128 262.054 130.352 261.414 130.288C260.646 130.192 260.55 130.576 260.102 130.64C259.238 130.768 258.854 131.152 258.502 131.76C258.086 132.464 256.998 133.04 256.486 133.936C256.198 134.416 256.358 134.928 256.262 135.376C256.198 135.632 256.07 135.984 255.942 136.112C255.654 136.4 255.622 136.688 255.622 137.04C255.622 137.424 255.526 137.808 255.462 138.192C255.334 138.768 255.206 139.344 255.206 139.92C255.206 140.752 255.206 141.712 255.814 142.384C256.358 142.96 256.038 143.248 256.71 143.984C257.062 144.4 256.998 144.656 257.158 145.104C257.414 145.712 258.246 146.128 259.014 146.512C259.174 146.608 259.334 146.64 259.526 146.64C259.75 146.64 259.942 146.576 260.166 146.416C260.774 146 260.87 145.584 261.414 145.36C262.278 145.008 262.278 144.528 262.822 144.112C263.334 143.728 263.558 142.992 263.43 142.128C263.334 141.456 263.526 140.976 263.526 140.624C263.526 139.92 263.174 139.536 262.406 139.472C261.638 139.408 260.838 139.856 259.718 139.664C259.11 139.568 259.206 139.312 258.534 139.152C257.99 139.024 257.35 138.064 257.35 137.68C257.35 137.296 257.606 136.88 257.926 136.784C258.47 136.592 259.206 136.528 259.718 136.496C261.35 136.4 260.902 136.848 262.278 136.752C264.55 136.592 264.102 137.168 265.286 137.776C265.894 138.096 265.958 138.704 266.342 139.088C266.63 139.376 266.694 139.792 266.694 140.112C266.694 140.432 266.534 140.688 266.534 141.072C266.534 141.52 266.79 141.872 266.79 142.256C266.79 142.576 266.726 142.928 266.566 143.248C266.438 143.504 266.374 143.856 266.374 144.112C266.374 144.624 266.246 145.04 266.054 145.488C265.926 145.808 265.734 146 265.414 146.224C264.902 146.576 264.678 146.736 264.486 147.12C264.326 147.44 263.878 147.312 263.718 147.632C263.558 147.952 263.43 148.176 262.95 148.368C262.47 148.56 262.086 148.752 261.894 149.296C261.734 149.68 261.35 149.808 260.966 149.808ZM289.852 149.392C288.796 149.392 288.828 148.688 288.124 148.368C287.772 148.208 287.74 147.76 287.74 147.312C287.74 147.088 287.804 146.8 287.9 146.512C288.188 145.744 287.9 145.168 288.124 144.272C288.476 142.96 287.996 142.736 288.316 140.784C288.411 140.144 288.284 139.632 288.22 138.864C288.188 138.192 288.22 137.872 288.38 136.816C288.54 135.888 288.828 134.928 288.732 133.936C288.604 132.368 288.828 132.016 288.828 130.992C288.828 130.64 288.732 130.32 288.732 130.128C288.732 129.776 288.828 129.584 289.372 129.232C289.628 129.072 289.82 129.04 290.012 129.04C290.556 129.04 291.548 129.776 291.868 130.096C292.124 130.384 292.284 130.736 292.284 131.216C292.284 132.112 291.836 132.272 291.9 132.912C291.932 133.2 291.804 133.552 291.9 133.872C292.124 134.736 291.9 135.152 291.9 135.568C291.9 135.76 291.9 135.888 291.932 136.016C292.06 136.048 292.188 136.08 292.476 136.08L292.86 136.048C293.276 136.016 293.82 136.304 294.812 136.208C295.548 136.144 295.836 136.56 296.764 136.464C297.404 136.4 297.756 136.56 298.172 136.592C298.268 136.464 298.3 136.368 298.428 135.824C298.556 135.28 298.62 134.928 298.556 134.128C298.492 133.168 298.876 132.112 299.004 130.896C299.068 130.224 298.716 129.616 299.1 128.528C299.324 127.856 299.74 127.536 300.316 127.536C300.892 127.536 301.308 127.76 301.724 128.176C302.172 128.624 302.364 129.136 302.364 129.648C302.364 130.224 302.108 130.768 302.108 131.088C302.108 131.344 302.172 131.632 302.172 132.048C302.172 132.56 301.916 132.976 301.916 133.648C301.916 134.064 301.98 134.416 301.98 134.768C301.98 135.472 301.564 136.144 301.564 137.136C301.564 137.616 301.724 138.224 301.66 138.64C301.564 139.28 301.788 140.08 301.788 140.368C301.788 141.36 301.532 141.328 301.756 142.064C301.948 142.704 301.66 143.44 301.468 144.112C301.372 144.432 301.34 144.88 301.34 145.584C301.34 146.992 300.86 147.824 300.028 147.824C299.42 147.824 299.42 147.28 298.716 146.992C298.14 146.768 298.14 146.064 298.14 145.2C298.14 144.432 298.396 143.76 298.268 142.896C298.14 142.064 298.396 140.944 298.396 140.112C298.396 139.856 298.332 139.664 298.3 139.472C298.108 139.44 297.948 139.408 297.692 139.408C297.18 139.408 296.732 139.344 296.316 139.248C295.868 139.152 295.068 139.024 294.716 139.088C294.044 139.184 293.308 139.216 292.54 139.056C292.188 138.992 291.932 138.992 291.772 139.024C291.708 139.184 291.676 139.376 291.676 139.6C291.58 140.688 291.772 141.168 291.772 141.744C291.772 142.608 291.324 143.376 291.484 144.272C291.644 145.136 291.228 145.328 291.356 146.16C291.516 147.12 291.036 147.44 291.036 148.08C291.036 148.656 290.716 149.392 289.852 149.392ZM316.434 149.584C315.314 149.136 314.45 148.912 314.13 148.912C313.362 148.912 313.586 149.232 312.882 149.264C311.634 149.296 311.474 149.232 311.058 148.752C310.418 148.016 310.034 147.536 309.938 146.864C309.874 146.448 309.842 146.064 309.842 145.68C309.842 144.944 309.938 143.92 309.938 143.024C309.938 142.128 309.938 141.296 310.034 140.464C310.098 139.92 310.034 139.376 309.906 138.8C309.586 137.392 309.97 136.016 309.714 134.576C309.618 133.968 309.746 133.36 309.746 132.752C309.746 132.208 309.81 131.664 309.906 131.28C310.066 130.608 310.386 129.904 310.93 129.616C312.434 128.848 312.114 128.272 313.234 127.792C313.746 127.568 314.29 127.408 314.77 127.408C315.986 127.408 317.522 127.824 318.098 128.464C318.642 129.072 319.154 129.232 319.474 129.424C319.858 129.648 319.986 130.224 320.818 130.736C321.458 131.12 321.49 131.952 321.49 132.528C321.49 132.88 321.17 133.136 320.658 133.488C320.498 133.616 320.338 133.648 320.178 133.648C319.826 133.648 319.506 133.424 319.282 133.2C318.61 132.528 318.482 132.016 317.842 131.696C316.69 131.12 317.138 130.736 315.922 130.608C315.442 130.544 315.25 130.608 314.994 130.704C314.706 130.8 314.258 131.216 313.97 131.536C313.618 131.92 313.458 132.464 313.202 132.72C312.69 133.232 312.786 133.552 312.786 133.936C312.786 134.128 312.818 134.32 312.85 134.512C312.882 134.736 312.978 135.024 312.978 135.28C312.978 135.472 312.85 135.856 312.85 136.048C312.85 136.336 312.914 136.656 312.978 137.424C313.202 137.584 313.426 137.616 313.938 137.712C315.986 138.096 315.666 137.712 316.562 137.776C317.138 137.84 317.426 138.096 317.618 138.32C317.682 138.384 317.778 138.48 318.034 138.576C318.738 138.864 319.09 139.728 318.994 140.496C318.962 140.72 318.642 141.04 318.386 141.2C318.226 141.296 318.034 141.328 317.842 141.328C317.554 141.328 317.266 141.264 317.106 141.2C316.242 140.912 315.345 140.944 314.93 140.944C314.29 140.944 313.842 140.848 313.138 140.656C313.106 140.848 313.074 141.2 313.074 141.744C313.074 142.128 313.202 142.576 313.202 143.024C313.202 143.664 312.754 144.08 313.042 144.816C313.202 145.232 313.202 145.456 313.202 145.872C313.394 146 313.714 146.064 313.97 146.064C314.994 146.064 316.082 146.096 317.042 146.608C318.706 147.536 318.482 146.704 319.25 147.312C319.57 147.568 319.602 148.112 319.602 148.336C319.602 148.688 319.41 149.072 319.122 149.392C318.77 149.776 318.386 149.968 317.874 149.968C317.65 149.968 316.914 149.776 316.434 149.584ZM328.526 150.064C327.822 150.064 327.214 149.616 326.99 149.232C326.894 149.04 326.83 148.88 326.83 148.72C326.83 148.24 327.246 148.144 327.182 147.472C327.118 146.704 327.662 146.384 327.502 145.424C327.438 144.944 327.598 144.848 327.598 144.144C327.598 143.952 327.598 143.76 327.566 143.504C327.534 143.28 327.534 143.056 327.534 142.896C327.534 142.192 327.662 141.712 327.662 141.04C327.662 140.72 327.63 140.336 327.534 139.888C327.502 139.632 327.47 139.344 327.47 139.088C327.47 138.384 327.598 137.68 327.63 136.976C327.662 136.56 327.758 136.112 327.758 135.568C327.758 134.96 327.63 134.224 327.438 133.52C327.278 133.008 327.214 132.496 327.214 131.984C327.214 131.248 327.406 130.512 327.63 129.808C327.886 129.04 328.206 128.56 329.262 128.272L331.406 127.536C331.918 127.376 332.686 127.184 333.166 127.184C333.486 127.184 334.158 127.536 334.446 127.696C334.67 127.824 334.798 127.856 334.958 127.952C335.086 128.016 335.214 128.144 335.278 128.368C335.374 128.688 335.79 128.848 336.206 129.008C337.102 129.328 337.422 129.648 338.062 131.12C338.222 131.472 338.318 131.824 338.318 132.176C338.318 132.336 338.286 132.496 338.19 132.688C338.126 132.816 338.158 132.88 338.222 133.008C338.286 133.136 338.318 133.264 338.318 133.424C338.318 133.648 338.254 133.872 338.158 134.128C338.094 134.256 337.934 134.896 337.87 135.312C337.742 136.176 337.198 136.72 336.814 137.04L335.726 137.968C336.174 138.096 336.462 138.544 336.526 138.832C336.59 139.152 336.75 139.6 336.91 139.856C337.07 140.112 337.23 140.304 337.23 140.656C337.23 141.424 337.614 141.968 337.774 142.544C337.87 142.864 337.934 144.016 338.286 144.496C338.478 144.752 338.638 144.976 338.766 145.2C338.862 145.392 338.83 145.616 338.99 145.808C339.15 146 339.31 146.192 339.31 146.48C339.31 147.088 339.022 147.728 338.67 148.4C338.51 148.72 338.158 148.88 337.742 148.784C336.782 148.56 336.11 148.176 335.886 147.312C335.566 146 335.118 146 334.894 145.328C334.606 144.56 334.99 144.176 334.382 143.088C333.55 141.616 334.254 141.36 333.614 140.24C333.454 139.952 333.294 139.92 333.134 139.824C332.878 139.92 332.59 140.112 332.206 140.24C332.014 140.304 331.79 140.336 331.598 140.336C331.31 140.336 331.022 140.272 330.734 140.144C330.798 140.528 330.734 140.688 330.734 141.04C330.734 141.296 330.734 141.36 330.766 141.616C330.798 141.808 330.798 142 330.798 142.192C330.798 142.448 330.766 142.672 330.702 142.832C330.606 143.088 330.638 143.216 330.67 143.312C330.734 143.472 330.83 143.76 330.83 143.984C330.83 144.24 330.798 144.496 330.766 144.752C330.702 145.232 330.478 145.776 330.478 146.128C330.478 146.608 330.478 146.96 330.446 147.28C330.382 147.664 330.318 148.016 330.19 148.528C330.158 148.752 330.094 149.04 329.998 149.264C329.902 149.488 329.486 150.064 328.526 150.064ZM331.63 136.656C332.014 136.56 332.398 136.592 332.686 136.592C333.102 136.592 333.454 136.432 333.71 136.048C333.838 135.888 333.902 135.76 333.998 135.6C334.478 134.928 334.894 134.736 334.926 134.352C334.958 134 334.99 133.744 334.99 133.424C334.99 131.952 335.118 131.344 333.646 130.8C333.358 130.704 333.294 130.16 332.75 130.16C332.462 130.16 332.142 130.256 331.822 130.448C330.99 130.864 330.414 131.248 330.222 131.76C330.158 131.952 330.35 132.208 330.35 132.56C330.35 132.656 330.318 132.944 330.478 133.296C330.638 133.712 330.734 134.032 330.734 134.512V135.088C330.734 135.28 330.734 135.472 330.766 135.696C330.83 136.368 330.798 136.688 330.798 137.008C331.278 136.688 331.502 136.688 331.63 136.656ZM349.775 149.968L349.007 150C348.527 150 347.887 149.84 347.631 149.456C347.375 149.104 346.831 148.944 346.255 148.88C345.743 148.816 345.807 148.304 345.583 148.048C345.231 147.632 345.167 146.832 345.231 146.288C345.391 145.296 345.615 144.368 345.711 143.696C345.807 142.992 345.583 142.928 345.583 142.48C345.583 142 345.807 141.744 345.935 141.264C346.095 140.592 346.159 140.144 346.095 139.44C346.063 139.184 346.063 138.992 346.063 138.8C346.063 138.576 346.063 138.32 346.159 138.032C346.447 137.136 346.255 135.952 346.447 134.736C346.575 134.064 346.671 133.36 346.671 132.976C346.671 132.08 346.447 132.208 346.447 131.408C346.447 130.96 346.479 130.512 346.575 130.064C346.703 129.392 346.927 128.88 347.247 128.4C347.471 128.08 347.663 127.856 347.983 127.728C348.271 127.6 348.847 127.28 349.359 127.376C350.927 127.696 350.895 127.312 352.399 127.824C353.615 128.24 354.735 129.008 355.439 129.36C355.823 129.552 356.111 129.68 356.367 129.68C356.783 129.68 357.039 129.84 357.231 130.192C357.519 130.704 357.711 131.184 357.775 131.76C357.807 132.08 358.063 132.144 358.063 132.592C358.063 133.136 357.551 133.424 356.975 133.744C356.559 133.968 356.111 134.096 355.631 134.096C355.247 134.096 354.607 133.36 354.575 132.976C354.543 132.72 354.511 132.528 354.511 132.304C354.287 132.144 354.031 131.952 353.551 131.696C353.071 131.44 352.687 131.376 352.335 131.184C352.015 130.992 351.631 130.768 351.407 130.768C351.055 130.768 350.831 130.8 350.543 130.864C350.319 130.928 350.095 131.024 349.903 131.12C349.615 131.28 349.455 131.504 349.455 131.792C349.455 131.856 349.455 131.952 349.487 132.048C349.647 132.592 349.807 133.136 349.807 133.776C349.807 134.544 349.423 134.608 349.423 136.432C349.423 136.656 349.423 136.784 349.455 136.944C349.583 137.008 349.775 137.04 349.935 137.104C350.799 137.392 351.151 137.2 351.823 137.296C352.207 137.36 352.527 137.456 353.103 137.68C353.487 137.84 353.935 137.552 354.351 137.552C354.927 137.552 354.927 137.904 355.439 138.192C355.887 138.448 356.175 138.96 356.175 139.632C356.175 140.272 355.695 140.624 355.439 140.656L354.415 140.72C354.255 140.72 354.031 140.592 353.807 140.592C353.583 140.592 353.295 140.752 353.039 140.752C352.623 140.752 352.271 140.656 351.951 140.56C351.663 140.464 351.247 140.336 350.895 140.336C350.191 140.304 349.743 140.176 349.231 139.984C349.167 140.112 349.135 140.272 349.103 140.528C349.071 140.752 349.071 141.008 349.071 141.232C349.071 141.552 348.975 141.744 348.879 142.032C348.751 142.416 348.655 142.672 348.751 143.312C348.879 144.112 348.623 144.88 348.559 145.872C348.527 146.192 348.527 146.416 348.527 146.608C348.687 146.672 348.847 146.736 349.007 146.736C350.031 146.8 350.127 146.544 350.991 146.8C351.855 147.056 352.271 146.704 352.687 146.704C353.167 146.704 353.743 146.832 354.287 147.12C354.671 147.312 354.959 147.664 355.023 148.144C355.119 148.944 355.087 149.04 353.871 149.712C353.327 150 352.847 150 352.335 150C352.143 150 351.919 150 351.727 149.968C351.407 149.936 351.087 149.904 350.767 149.904C350.415 149.904 350.095 149.936 349.775 149.968ZM378.785 148.688C378.337 148.688 377.793 148.048 377.601 147.856C377.217 147.472 376.929 146.96 376.929 146.448C376.929 146.096 377.025 145.872 377.249 145.136C377.281 144.944 377.312 144.72 377.312 144.464C377.312 143.888 377.249 143.152 377.473 142.288C377.697 141.424 377.729 140.912 377.729 140.496L377.697 139.312C377.697 138.512 377.889 138.128 377.889 137.488C377.889 137.328 377.889 137.168 377.857 136.976C377.793 136.304 378.113 135.248 378.113 134.704C378.113 133.584 377.697 133.36 377.665 132.496C377.633 131.92 377.249 131.504 377.089 131.28C376.897 130.992 376.769 130.64 376.769 130.288C376.769 129.936 376.897 129.616 377.089 129.328C377.312 129.008 377.665 128.848 378.049 128.848C378.913 128.848 379.873 129.2 380.065 130.096C380.193 130.64 380.737 130.64 380.833 131.632C380.865 131.888 380.833 132.08 380.993 132.432C381.409 133.424 381.089 134.576 381.409 135.664C381.505 135.92 381.505 136.176 381.505 136.432C381.505 136.816 381.473 137.136 381.409 137.296C381.281 137.776 381.153 138.288 381.153 138.8C381.153 139.056 381.281 139.312 381.281 139.824C381.281 140.24 381.185 140.88 381.025 141.52C380.929 141.968 380.801 142.416 380.865 143.216L380.897 143.824C380.897 144.56 380.769 145.392 380.481 146.064C380.289 146.512 380.289 146.768 380.289 146.96C380.289 147.6 380.225 148.016 379.745 148.24C379.329 148.432 379.265 148.688 378.785 148.688ZM390.472 149.392C389.704 149.392 388.648 148.496 388.648 147.728C388.648 147.536 388.68 147.312 388.776 147.152C389.128 146.544 389.256 145.936 389.192 145.264C389.16 144.976 389.16 144.752 389.16 144.56C389.16 143.568 389.48 143.44 389.352 141.744L389.288 140.56C389.288 139.76 389.384 139.376 389.384 138.896C389.384 138.704 389.384 138.448 389.32 138.16C389.224 137.712 389.224 137.264 389.224 136.784C389.224 135.984 389.544 135.088 389.288 134.288C388.808 132.72 389.064 131.696 388.712 130.768C388.584 130.384 388.616 130.256 388.616 130.064C388.616 129.776 388.488 129.616 388.488 129.296C388.488 128.592 389.128 128.08 390.152 127.792C390.728 127.632 391.368 127.6 391.976 127.6C392.744 127.6 393.544 127.568 394.28 127.28C394.664 127.12 395.08 127.024 395.464 126.96C395.688 126.928 395.912 126.896 396.136 126.896C396.68 126.896 397.16 127.056 397.576 127.536C397.768 127.728 398.056 127.824 398.312 127.984C398.984 128.4 399.592 128.976 399.592 129.84C399.592 130.128 399.368 130.448 399.112 130.736C398.856 131.024 398.568 131.12 398.376 131.024C398.184 130.928 397.992 130.864 397.768 130.896C397.032 130.96 396.968 130.384 396.2 130.512C396.04 130.544 395.848 130.576 395.592 130.576C395.208 130.576 394.76 130.416 394.28 130.448C393.736 130.48 393.256 130.8 392.712 130.8C392.328 130.8 391.784 130.864 391.656 130.992C391.944 131.664 391.848 132.368 392.04 132.72C392.136 132.88 392.136 133.072 392.104 133.264C392.072 133.392 392.072 133.488 392.072 133.584C392.072 133.936 392.264 134.032 392.36 134.768C392.424 135.12 392.424 135.344 392.52 135.504C392.68 135.536 392.872 135.536 393.224 135.504C393.608 135.44 393.96 135.44 394.312 135.44C394.632 135.44 394.952 135.44 395.176 135.504C395.816 135.632 395.816 135.92 396.36 135.984C397.192 136.048 397.736 136.688 398.088 137.424C398.152 137.552 398.184 137.648 398.184 137.776C398.184 137.904 398.12 138.032 398.056 138.192C397.928 138.384 397.544 138.864 396.968 138.992C396.712 139.056 396.424 139.088 396.2 139.088C396.008 139.088 395.848 139.056 395.656 138.96C395.432 138.832 395.176 138.736 394.632 138.8C393.768 138.896 393.416 138.608 392.776 138.608C392.648 138.608 392.552 138.608 392.424 138.64C392.392 138.736 392.392 138.896 392.392 139.056C392.392 139.44 392.456 139.76 392.456 140.144C392.456 140.912 392.456 141.808 392.36 142.288C392.264 142.8 392.168 143.216 392.168 143.696C392.168 143.984 392.232 144.528 392.232 145.104C392.232 145.712 392.04 146.32 392.072 146.928C392.104 147.568 391.912 148.048 391.656 148.592C391.4 149.136 391.016 149.392 390.472 149.392Z" fill="white"/>
<path d="M7.21037 38.6563C7.75781 39.7629 8.41877 41.8838 8.84257 43.0874C8.85003 43.1088 8.85752 43.1302 8.86501 43.1516C8.96103 43.4292 9.06017 43.6901 9.17906 43.9968C9.46558 44.7263 9.85042 45.736 10.6478 47.8021C10.9192 48.389 11.2072 48.9989 11.4797 49.5656C14.5043 55.856 18.1413 61.9134 22.3506 67.547C22.4065 67.6162 22.4636 67.6866 22.5215 67.7576C23.6523 69.1535 25.0556 70.7694 25.933 71.8621C27.0345 73.2392 27.7721 74.1424 28.4034 74.9088C32.1644 79.0684 36.2879 82.9212 40.7414 86.3823C42.1155 87.4513 43.5917 88.5321 45.0132 89.5115C46.3339 90.4227 47.7466 91.3453 49.1001 92.1826C49.9172 92.6469 50.711 93.0737 51.4553 93.4648C52.507 94.0178 53.4373 94.4861 54.1879 94.8877C55.9987 95.8603 58.0908 97.0425 59.6052 97.8563C59.8561 97.9915 60.094 98.1186 60.3151 98.2354C61.5695 98.8236 62.8796 99.4103 64.1278 99.9434C64.205 99.996 64.2827 100.05 64.3617 100.104C65.3431 100.779 66.7062 101.382 68.8368 102.246C69.7536 102.616 70.8267 103.04 72.1087 103.541C72.9353 103.863 73.3386 104.1 73.6681 104.294C73.7644 104.351 73.8592 104.405 73.9477 104.454C74.2577 104.622 74.6243 104.692 75.0586 104.773C75.6225 104.879 76.2995 105.003 77.1299 105.382C79.803 106.592 81.0801 106.748 82.0377 106.875C82.32 106.912 82.5763 106.945 82.8338 106.996C83.668 107.164 84.819 107.565 85.6905 107.906C86.4002 108.183 87.7741 108.463 88.8714 108.632C89.283 108.696 89.8289 108.83 90.4773 108.985C91.1482 109.144 91.9296 109.326 92.7824 109.474C94.8772 109.832 95.9982 110.001 96.9082 110.142C97.1674 110.181 97.4094 110.218 97.6517 110.254C98.4128 110.366 99.3853 110.519 100.332 110.658C101.455 110.824 102.609 110.981 103.496 111.075C105.776 111.495 108.078 111.886 110.337 112.231C111.508 112.41 112.628 112.724 113.444 113.118C114.26 113.513 114.703 113.956 114.661 114.366C114.62 114.775 114.095 115.122 113.204 115.332C112.313 115.542 111.132 115.594 109.933 115.477C107.543 115.246 105.091 114.962 102.675 114.621C99.7803 114.215 96.7815 113.699 93.9063 113.085C91.933 112.664 89.8153 112.163 87.8293 111.644C87.6232 111.59 87.4175 111.536 87.2124 111.481C85.5338 111.157 83.7752 110.768 82.5867 110.46C81.5999 110.204 80.9101 109.941 80.3225 109.714C79.9182 109.558 79.5625 109.419 79.1943 109.308C79.0016 109.251 78.7132 109.167 78.3785 109.068C77.0003 108.664 74.7059 107.954 72.7096 107.121C71.7961 106.743 70.7609 106.263 69.7891 105.797C68.3932 105.128 67.1553 104.499 66.4478 104.239C65.2372 103.797 63.9181 103.166 62.7761 102.598C61.6985 102.063 60.7192 101.557 60.1379 101.354C59.44 101.109 58.8927 100.804 58.0916 100.347C57.5312 100.026 56.8774 99.6477 55.9214 99.1254C54.8236 98.5244 54.0847 98.0526 53.4612 97.6504C52.5783 97.0794 51.9586 96.6674 50.876 96.1422C49.6872 95.5661 48.4906 94.9113 47.61 94.3159C47.2079 94.0443 46.7458 93.7538 46.2448 93.4329C45.5886 93.0129 44.9074 92.5666 44.3176 92.1207C43.8315 91.7533 43.4656 91.4032 43.1447 91.0932C43.0446 90.9965 42.9488 90.9037 42.8552 90.8153C42.4691 90.5452 42.0588 90.255 41.6632 89.9724C41.5915 89.9365 41.5158 89.8993 41.4369 89.8603C41.0412 89.6645 40.5563 89.4219 40.0021 89.0644C39.1204 88.4944 38.4493 87.9225 37.7029 87.2748C37.1289 86.7756 36.5404 86.2541 35.8417 85.697C35.3651 85.3169 34.8156 84.8997 34.2758 84.4813C33.4534 83.843 32.6595 83.2051 32.157 82.7131C31.9686 82.5287 31.8348 82.34 31.7036 82.1531C31.7031 82.1522 31.7026 82.1514 31.702 82.1505C31.6931 82.1378 31.6841 82.1251 31.6752 82.1124C30.4102 81.0131 29.0979 79.8192 27.8724 78.6542C27.7591 78.559 27.6451 78.4625 27.5326 78.3667C26.9902 77.9065 26.4362 77.4191 26.0578 77.1451C25.6433 76.8446 24.7358 75.9635 23.8167 75.0264C23.2056 74.4042 22.574 73.7417 22.0578 73.2186C21.7551 72.9118 21.5314 72.5684 21.3049 72.2155C21.0921 71.8843 20.8845 71.5543 20.5915 71.2167C20.4456 71.0485 20.2775 70.8759 20.0991 70.6915C19.9421 70.5292 19.7768 70.3574 19.612 70.1715C19.459 69.9988 19.1619 69.5796 18.791 69.0423C18.5618 68.7102 18.3045 68.3332 18.0342 67.9406C17.2289 66.9262 16.4533 65.9083 15.7078 64.8885C15.52 64.6983 15.3424 64.5446 15.1736 64.4323C15.0534 64.3531 14.9359 64.296 14.8155 64.237C14.6517 64.1567 14.4824 64.0732 14.2946 63.9274C14.1478 63.8135 14.0129 63.6534 13.9557 63.5241C13.9291 63.4638 13.9191 63.4106 13.9101 63.3624C13.8998 63.3071 13.8905 63.2579 13.859 63.2113C13.8362 63.1777 13.8 63.151 13.7557 63.118C13.6849 63.0653 13.5932 62.9965 13.5022 62.8602C13.1624 62.3507 12.8069 61.7745 12.4528 61.1866C12.0565 60.5293 11.6815 59.8883 11.3699 59.3897C11.0177 58.8265 10.6072 58.013 10.1834 57.1436C9.89242 56.546 9.61067 55.9501 9.35942 55.4488C9.11127 54.9542 8.82593 54.482 8.53421 53.985C8.18972 53.3994 7.86737 52.8372 7.67213 52.3254C7.63268 52.2218 7.6286 52.0714 7.62421 51.8835C7.62111 51.7503 7.61756 51.5974 7.60186 51.4299C7.30969 50.8224 7.00516 50.1649 6.72331 49.5314C6.70544 49.5126 6.68712 49.493 6.66862 49.4736C6.66827 49.4733 6.66792 49.473 6.66757 49.4727C6.24938 49.0301 5.68657 48.4387 5.40693 47.356C5.33471 47.0776 5.33706 46.8838 5.33943 46.7097C5.34184 46.5386 5.34453 46.3863 5.27945 46.1923C5.20554 45.9719 5.06544 45.7343 4.91473 45.4754C4.70274 45.1111 4.47142 44.7095 4.36827 44.2503C4.36092 44.2181 4.35313 44.1835 4.34487 44.1475C4.26643 43.8067 4.15413 43.3041 4.11645 42.7858C3.65686 41.394 3.22501 39.9424 2.85286 38.5265C2.21941 36.1224 1.71373 33.7039 1.347 31.2565C1.16644 30.0534 1.18332 28.9042 1.37249 28.0071C1.56465 27.1279 1.91122 26.6434 2.31196 26.6005C2.71465 26.5598 3.14442 26.9572 3.55031 27.7221C3.95851 28.506 4.30632 29.5305 4.56243 30.6548C4.97608 32.4753 5.47404 34.2763 6.03359 36.0528C6.06801 36.1458 6.10253 36.2394 6.1367 36.3329C6.39658 37.0475 6.68532 37.618 6.99615 38.2347C7.06708 38.3746 7.13872 38.515 7.21037 38.6563Z" fill="white"/>
</svg>
