<svg width="377" height="155" viewBox="0 0 377 155" fill="none" xmlns="http://www.w3.org/2000/svg">
<path d="M136.952 28.68C136.504 28.68 136.184 28.52 135.832 28.072C135.384 27.56 135 27.144 135 26.408C135 26.088 135.32 25.576 135.32 24.68C135.32 23.944 135.096 22.6 135.288 21.192C135.416 20.328 135.096 18.888 135.096 18.312C135.096 17.736 135.352 16.68 135.192 15.816C135.064 15.112 135.352 14.504 135.192 13.832C134.712 11.848 135.384 11.176 135 9.768C134.808 9.096 134.808 8.616 134.84 8.136C134.904 7.336 135.352 7.048 135.928 7.048C136.376 7.048 136.92 7.272 137.368 7.528C137.752 7.752 138.264 8.296 138.264 8.936L138.232 9.864C138.232 10.28 138.488 10.376 138.488 11.08C138.488 11.304 138.424 11.624 138.456 12.072C138.52 13.096 138.104 12.872 138.488 15.592C138.616 16.392 138.424 16.84 138.424 17.608C138.424 18.408 138.552 18.952 138.584 19.4C138.616 19.976 138.488 20.36 138.68 21.224C138.776 21.704 138.584 22.248 138.552 22.728C138.52 23.048 138.68 24.2 138.68 24.776C138.68 25.096 138.456 25.352 138.424 25.768V25.864C138.424 26.184 138.52 26.504 138.52 26.728C138.52 27.72 137.848 28.68 136.952 28.68ZM164.032 29.032C163.84 29.064 163.648 29.096 163.456 29.096C162.784 29.096 162.112 28.84 161.536 28.488C160.992 28.168 160.992 27.656 160.896 27.112C160.832 26.664 160.544 26.376 160.544 25.8C160.544 25.032 160.48 24.328 160.8 23.144C160.96 22.536 160.704 22.056 160.704 21.416C160.704 20.584 160.64 19.432 160.576 18.376C160.544 17.896 160.256 17.384 160.288 16.84C160.384 15.656 159.744 14.536 159.936 13.384C160.128 12.232 159.808 11.592 159.616 10.696C159.456 10.024 159.2 9.896 159.2 9.032C159.2 8.488 158.912 8.264 158.912 8.008C158.912 7.784 158.944 7.56 159.072 7.368C159.456 6.824 159.648 6.824 160.288 6.824C161.056 6.824 161.312 7.08 161.792 7.624C162.208 8.104 162.624 8.648 162.72 9.32C162.816 9.928 163.104 10.152 162.976 11.176C162.912 11.72 163.04 12.328 163.2 12.936C163.232 13.064 163.264 13.224 163.264 13.32C163.264 13.544 163.168 13.896 163.168 14.408C163.168 14.984 163.36 15.688 163.36 16.584L163.328 17.096C163.328 17.384 163.36 17.64 163.424 17.992C163.52 18.44 163.68 18.888 163.872 19.336C163.968 19.528 163.968 19.72 163.968 19.88L163.936 20.552C163.936 20.744 163.904 20.936 163.936 21.128C164.064 22.12 164.128 22.728 164.128 23.176C164.128 23.72 164.032 23.944 163.84 24.584C163.808 24.712 163.776 24.872 163.648 25.192C163.776 25.352 164.128 25.352 164.48 25.352C164.896 25.352 165.568 25.576 166.496 25.288C167.264 25.064 167.808 25.032 168.576 25.192C169.152 25.32 169.728 25.192 170.336 25.128C171.168 25.032 171.936 25.352 172 25.864C172.064 26.536 172.416 26.696 172.416 27.144C172.416 27.464 172.352 27.784 172.16 28.104C171.744 28.84 171.488 28.52 171.008 28.52C170.88 28.52 170.752 28.552 170.624 28.584C169.92 28.808 169.632 28.808 169.216 28.808C168.704 28.808 168.16 28.648 167.776 28.744C167.392 28.872 166.912 29 166.4 29C166.112 29 165.856 29 165.568 28.968C165.056 28.936 164.512 28.936 164.032 29.032ZM184.714 28.36C183.754 28.36 182.986 27.912 181.93 27.912C180.906 27.912 180.01 27.592 179.37 26.888C178.954 26.44 177.802 25.832 177.61 25.352C176.49 22.696 175.946 23.368 175.722 20.296C175.626 18.792 176.106 17.928 176.266 15.88C176.298 15.432 176.874 14.792 176.97 14.248C177.226 12.68 178.154 10.888 179.914 9.416C180.522 8.904 181.066 9.224 182.122 8.744C183.178 8.264 183.722 8.072 184.778 8.072C185.706 8.072 186.378 8.328 186.858 9C187.914 9.608 189.13 10.152 189.833 10.888C190.09 11.144 190.154 11.528 190.378 11.848C190.602 12.104 190.922 12.328 191.082 12.488C191.658 13.064 192.17 13.992 192.106 14.824C192.042 15.848 192.426 16.456 192.426 17.352C192.426 18.344 192.234 19.304 191.914 20.232C191.466 21.576 191.786 22.504 191.53 23.24C191.338 23.752 190.89 23.848 190.666 24.488C190.506 24.936 190.25 25.384 189.866 25.48C189.418 25.608 189.354 25.96 189.13 26.184C188.618 26.728 188.554 26.536 187.786 27.336C187.338 27.784 186.698 27.816 186.09 27.976C185.578 28.104 185.386 28.36 184.714 28.36ZM183.114 25.192C183.434 25.224 183.754 25.32 184.074 25.32C184.586 25.32 185.098 25.096 185.354 24.84C185.546 24.648 185.834 24.584 186.026 24.52C186.538 24.328 186.442 23.976 186.762 23.752C187.978 22.856 188.842 21.576 188.842 20.136C188.842 19.08 189.322 19.592 189.29 17.032C189.29 15.976 188.778 15.24 188.554 14.312C188.266 13.032 186.986 11.976 186.346 11.976C185.994 11.976 185.578 12.04 185.226 12.168C185.002 12.264 184.874 12.296 184.65 12.296C183.978 12.296 183.498 11.88 183.082 11.432C182.41 11.432 180.906 13 180.618 14.472C180.554 14.888 180.362 15.272 180.106 15.624C178.954 17.256 179.434 18.248 179.05 19.4C178.858 20.008 179.402 20.232 179.402 20.552C179.402 21 179.242 21 179.242 21.736C179.242 22.344 179.402 22.984 179.754 23.368C179.978 23.656 180.362 23.912 180.554 24.424C180.65 24.648 180.906 24.712 181.098 24.712C181.61 24.712 181.802 25.256 182.345 25.256C182.57 25.256 182.89 25.16 183.114 25.192ZM203.55 29C202.11 28.808 202.078 27.656 201.854 27.08C201.502 26.248 201.726 25.416 201.374 24.744C200.894 23.784 200.766 21.832 200.35 21C200.158 20.616 200.19 20.296 200.19 19.88C200.19 18.952 199.934 17.96 199.582 16.872C199.422 16.328 199.134 15.816 199.07 15.272C198.718 12.168 198.046 12.808 198.046 11.304C198.046 10.6 197.566 9.832 197.406 9.064C197.31 8.52 197.182 7.304 197.95 7.048C198.206 6.952 198.494 6.888 198.718 6.952C199.294 7.112 199.486 7.592 200.318 7.88C200.734 8.008 200.926 8.424 200.958 8.84C200.99 9.608 201.214 10.28 201.438 10.92C201.502 11.08 201.598 11.272 201.662 11.784C201.822 13.576 202.526 13.128 202.654 15.816C202.654 16.136 202.75 16.456 202.846 16.744L202.942 17.16L203.134 17.8C203.358 18.504 203.326 20.392 203.742 21.064C204.862 22.856 204.51 23.656 204.926 23.976C205.182 23.656 205.278 23.432 205.502 22.696C205.854 21.48 206.974 20.84 207.166 19.752C207.39 18.568 207.966 18.696 208.126 17.736C208.158 17.48 208.254 17.256 208.35 17.032L208.478 16.712C208.574 16.52 208.638 16.328 208.734 16.168C209.054 15.656 209.246 15.208 209.246 14.76C209.246 14.344 209.342 14.184 209.47 14.024C210.078 13.352 210.27 12.296 210.59 11.24C210.814 10.472 210.782 9.544 211.39 8.968C211.87 8.52 212.222 7.976 212.798 7.976C213.406 7.976 214.014 8.552 214.43 8.84C214.782 9.064 214.942 9.448 214.878 9.896C214.782 10.472 214.686 11.016 214.27 11.4C213.854 11.784 213.694 12.328 213.63 12.808C213.406 14.12 212.958 15.368 212.222 16.488C211.966 16.872 211.966 17.288 211.838 17.864C211.678 18.536 211.422 19.048 210.974 19.464C210.398 20.008 209.982 20.52 209.918 21.224C209.854 21.96 209.63 22.536 209.182 23.112L208.702 23.848C208.382 24.328 208.094 24.648 207.838 24.904C207.614 25.128 207.55 25.288 207.486 25.448C207.166 26.408 206.974 26.76 206.43 27.048C206.078 27.272 205.886 27.56 205.79 27.912C205.534 28.808 205.054 29.192 203.55 29ZM226.746 28.872C225.626 28.424 224.762 28.2 224.442 28.2C223.674 28.2 223.898 28.52 223.194 28.552C221.946 28.584 221.786 28.52 221.37 28.04C220.73 27.304 220.346 26.824 220.25 26.152C220.186 25.736 220.154 25.352 220.154 24.968C220.154 24.232 220.25 23.208 220.25 22.312C220.25 21.416 220.25 20.584 220.346 19.752C220.41 19.208 220.346 18.664 220.218 18.088C219.898 16.68 220.282 15.304 220.026 13.864C219.93 13.256 220.058 12.648 220.058 12.04C220.058 11.496 220.122 10.952 220.218 10.568C220.378 9.896 220.698 9.192 221.242 8.904C222.746 8.136 222.426 7.56 223.546 7.08C224.058 6.856 224.602 6.696 225.082 6.696C226.298 6.696 227.834 7.112 228.41 7.752C228.954 8.36 229.466 8.52 229.786 8.712C230.17 8.936 230.298 9.512 231.13 10.024C231.77 10.408 231.802 11.24 231.802 11.816C231.802 12.168 231.482 12.424 230.97 12.776C230.81 12.904 230.65 12.936 230.49 12.936C230.138 12.936 229.818 12.712 229.594 12.488C228.922 11.816 228.794 11.304 228.154 10.984C227.002 10.408 227.45 10.024 226.234 9.896C225.754 9.832 225.562 9.896 225.306 9.992C225.018 10.088 224.57 10.504 224.282 10.824C223.93 11.208 223.77 11.752 223.514 12.008C223.002 12.52 223.098 12.84 223.098 13.224C223.098 13.416 223.13 13.608 223.162 13.8C223.194 14.024 223.29 14.312 223.29 14.568C223.29 14.76 223.162 15.144 223.162 15.336C223.162 15.624 223.226 15.944 223.29 16.712C223.514 16.872 223.738 16.904 224.25 17C226.298 17.384 225.978 17 226.874 17.064C227.45 17.128 227.738 17.384 227.93 17.608C227.994 17.672 228.09 17.768 228.346 17.864C229.05 18.152 229.402 19.016 229.306 19.784C229.274 20.008 228.954 20.328 228.698 20.488C228.538 20.584 228.346 20.616 228.154 20.616C227.866 20.616 227.578 20.552 227.418 20.488C226.554 20.2 225.658 20.232 225.242 20.232C224.602 20.232 224.154 20.136 223.45 19.944C223.418 20.136 223.386 20.488 223.386 21.032C223.386 21.416 223.514 21.864 223.514 22.312C223.514 22.952 223.066 23.368 223.354 24.104C223.514 24.52 223.514 24.744 223.514 25.16C223.706 25.288 224.026 25.352 224.282 25.352C225.306 25.352 226.394 25.384 227.354 25.896C229.018 26.824 228.794 25.992 229.562 26.6C229.882 26.856 229.914 27.4 229.914 27.624C229.914 27.976 229.722 28.36 229.434 28.68C229.082 29.064 228.698 29.256 228.186 29.256C227.962 29.256 227.226 29.064 226.746 28.872ZM253.204 27.592C252.948 27.592 252.756 27.496 252.532 27.336C252.244 27.08 251.86 26.792 251.668 26.408C251.54 26.152 251.316 25.768 251.38 25.16C251.636 22.824 251.252 23.08 251.252 21.192C251.252 20.04 251.636 19.176 251.38 18.504C251.188 17.992 251.572 16.584 251.316 16.04C250.804 14.984 251.412 14.024 251.028 13.128C250.868 12.776 250.9 12.36 250.868 11.944C250.836 11.656 250.804 11.368 250.804 11.048C250.804 10.728 250.836 10.376 250.964 10.056C251.124 9.64 251.316 9.384 251.636 9.192C252.276 8.808 252.916 8.392 253.62 8.104C253.876 8.008 254.196 7.848 254.612 7.944C256.884 8.392 256.724 7.88 258.516 8.648C259.412 9.032 259.988 8.872 260.34 9.032C260.852 9.288 261.076 9.832 261.812 10.568C262.964 11.72 263.22 12.36 263.092 13.416C263.028 13.832 263.124 14.152 263.22 14.44C263.316 14.728 263.38 15.016 263.38 15.272C263.348 15.912 262.964 16.008 262.708 17.064C262.42 18.312 261.332 18.28 260.66 19.112C259.956 20.008 259.636 20.04 258.388 20.232C257.62 20.36 257.268 20.04 256.884 19.784C256.084 19.208 255.924 19.528 255.412 19.176C254.9 18.824 254.58 18.76 254.324 18.376C254.26 18.76 254.228 18.76 254.228 19.208C254.228 19.944 254.356 20.712 254.356 21.288C254.356 21.832 254.196 22.248 254.196 22.792C254.196 23.24 254.356 23.72 254.388 24.168C254.42 24.648 254.388 25.128 254.324 25.608C254.292 25.928 254.42 26.088 254.42 26.408C254.42 27.112 253.78 27.592 253.204 27.592ZM256.436 16.776C257.14 16.872 257.076 17.096 257.588 17.192C258.196 17.32 258.516 17 258.868 16.616C259.06 16.392 259.252 16.168 259.444 16.04C260.052 15.624 260.308 15.208 260.308 14.728C260.308 14.344 260.532 14.312 260.468 13.672C260.404 12.904 259.444 12.264 259.316 12.2C258.996 12.008 258.644 11.88 258.324 11.624C257.94 11.304 257.46 11.144 256.948 11.144C256.372 11.144 256.02 10.984 255.796 10.984C255.636 10.984 255.54 11.016 255.412 11.08C255.124 11.24 254.932 11.496 254.612 11.688C254.068 12.072 254.068 12.232 254.068 12.424C254.068 12.744 254.292 13.096 254.292 13.352C254.292 13.608 254.228 13.96 254.228 14.088C254.228 14.312 254.452 14.472 254.452 14.792C254.452 14.984 254.42 15.144 254.42 15.688C255.316 15.912 255.028 16.584 256.436 16.776ZM278.149 28.712C277.701 28.712 277.381 28.552 276.613 28.168C275.973 27.848 275.621 27.784 275.365 27.784C274.949 27.784 274.661 27.912 273.669 27.496C273.285 27.304 273.157 27.304 273.061 27.304C272.709 27.304 272.389 27.496 272.037 27.72C271.589 28.008 271.301 28.104 270.917 28.104C270.149 28.104 269.477 27.72 269.029 27.016C268.869 26.76 268.805 26.504 268.805 26.248C268.805 26.056 268.837 25.896 268.869 25.768C268.901 25.64 268.901 25.544 268.901 25.416C268.901 25.064 268.805 24.808 268.805 24.456C268.805 23.592 269.253 23.336 269.253 22.248C269.253 21.8 269.029 21.512 269.029 20.968C269.029 20.616 269.093 20.104 269.157 19.88C269.445 18.696 268.965 18.888 269.573 17.192C269.733 16.776 269.669 16.264 269.669 15.816C269.669 15.336 269.669 14.888 269.733 14.536C269.797 14.28 269.797 14.056 269.797 13.832C269.797 13.288 269.669 12.872 269.669 12.648C269.669 12.392 269.797 12.104 269.797 11.752C269.797 11.464 269.605 11.176 269.573 10.888C269.509 10.152 268.965 9.352 268.965 8.456C268.965 8.296 268.997 8.104 269.061 7.88C269.253 7.336 269.541 6.952 270.181 6.952C270.565 6.952 271.173 7.048 271.493 7.208C272.101 7.432 272.549 8.04 272.549 8.68C272.549 8.808 272.517 8.936 272.485 9.064C272.357 9.416 272.677 9.8 272.677 10.216C272.677 10.536 272.517 10.952 272.517 11.464C272.517 12.008 272.581 12.296 272.645 12.616C272.677 12.808 272.869 13.096 272.869 13.48C272.869 14.024 272.645 14.344 272.741 15.816C272.773 16.136 272.805 16.488 272.805 16.84C272.805 17.384 272.517 17.672 272.549 18.376C272.581 19.144 272.165 19.592 272.165 20.136C272.165 20.84 272.261 21.128 272.261 21.608C272.261 22.568 271.973 23.304 271.973 23.688V24.168C272.229 24.232 272.517 24.296 273.125 24.328C273.893 24.392 274.469 24.392 274.853 24.456C275.333 24.52 275.557 24.616 276.005 24.84C276.389 25.032 276.773 25.224 277.221 25.224C278.117 25.192 278.405 25.352 278.949 25.672C279.557 26.024 279.909 26.664 279.909 27.112C279.909 27.624 278.885 28.712 278.149 28.712ZM285.253 28.648C284.965 28.84 284.645 28.968 284.325 28.968C283.941 28.968 283.557 28.808 283.237 28.52C282.885 28.2 282.693 27.976 282.693 27.624C282.693 27.528 282.725 27.4 282.981 26.376C283.237 25.448 284.197 24.264 284.549 22.664C285.125 20.136 286.149 19.656 286.405 17.864C286.565 16.776 287.237 15.976 287.237 14.664C287.237 13.96 287.781 13.32 287.973 12.744C288.165 12.104 288.837 10.408 288.933 10.152C289.157 9.608 289.317 9.288 289.765 8.68C290.149 8.232 290.597 8.04 291.045 8.04C291.621 8.04 292.197 8.392 292.581 8.872C292.773 9.128 292.933 9.544 293.029 10.152C293.221 11.272 293.477 12.52 293.765 13.288C294.021 13.928 293.765 14.312 294.149 14.984C294.405 15.4 294.501 15.88 294.501 16.36C294.501 16.936 294.725 17.48 294.757 17.832C294.853 18.44 294.949 19.496 295.077 20.104C295.109 20.232 295.141 20.36 295.141 20.488C295.141 20.872 294.949 21.16 294.949 21.48C294.949 21.672 295.173 21.96 295.237 22.184C295.301 22.44 295.333 22.728 295.333 22.984C295.333 23.368 295.173 23.752 295.173 24.168C295.173 24.424 295.237 24.68 295.301 24.936C295.365 25.288 295.525 25.928 295.525 26.248C295.525 26.696 295.205 27.112 294.949 27.368C294.725 27.56 294.469 27.656 294.213 27.656C293.925 27.656 293.669 27.56 293.381 27.4C292.229 26.664 292.133 25.512 292.133 24.264L292.165 22.76C292.165 22.44 292.133 22.088 292.037 21.896C291.813 21.896 291.461 21.896 291.077 21.928C290.789 21.96 290.533 21.992 290.277 21.992C289.669 21.992 289.029 21.864 288.581 21.608L288.197 21.448C288.101 21.576 287.909 21.768 287.781 21.992C287.493 22.504 287.269 22.984 287.141 23.656C287.077 23.976 286.949 24.104 286.885 24.168C286.693 24.392 286.597 24.552 286.597 24.744C286.597 24.84 286.597 24.936 286.661 25.064C286.725 25.192 286.757 25.288 286.757 25.384C286.757 25.576 286.661 25.736 286.565 25.928C286.213 26.536 285.957 27.048 285.925 27.4C285.861 28.008 285.733 28.328 285.253 28.648ZM291.813 18.92C291.781 18.664 291.557 18.024 291.621 17.288C291.653 16.84 291.333 16.456 291.397 16.04C291.525 15.368 291.141 14.664 290.949 14.376C290.853 14.216 290.725 14.088 290.597 13.64C290.405 14.088 290.213 14.28 290.213 14.696C290.213 15.368 289.829 16.424 289.573 17C289.157 17.96 288.901 18.504 288.901 18.824C289.285 19.08 289.797 19.208 290.309 19.208C291.045 19.208 291.717 19.048 291.813 18.92ZM305.929 29.256C305.769 29.32 305.609 29.352 305.449 29.352C305.033 29.352 304.617 29.128 304.297 28.872C303.849 28.52 303.529 28.072 303.529 27.56C303.529 26.568 303.977 25.096 305.065 24.296C305.833 23.72 305.993 23.784 306.857 21.992C307.241 21.224 308.169 20.616 308.105 19.784C308.009 18.632 308.329 18.44 308.329 17.672C308.329 17.32 308.041 17.224 308.105 16.392C308.105 16.264 308.201 16.104 308.041 15.336C307.785 14.152 306.857 14.088 306.313 13.512C305.737 12.904 305.993 12.584 304.937 11.912C304.745 11.784 304.393 11.656 304.137 11.656C303.369 11.656 302.601 11.272 301.897 11.144C300.905 10.952 300.425 10.28 300.169 9.352C300.137 9.256 300.105 9.032 300.105 8.872C300.105 7.688 301.289 7.464 302.121 7.656C302.665 7.784 303.145 8.36 303.657 8.36C304.841 8.328 304.745 8.872 306.249 9.256C306.569 9.352 306.857 9.64 307.145 9.832C307.881 10.376 308.329 11.496 309.417 12.136C309.673 12.296 309.865 12.584 310.057 12.84C310.345 13.224 310.537 13.64 310.793 13.992C311.145 14.408 311.273 14.856 311.273 15.368C311.273 15.784 311.369 16.52 311.337 16.84C312.073 16.52 312.265 16.296 312.457 15.912C313.033 14.92 313.993 14.536 314.345 13.544C314.857 12.104 315.945 11.4 316.713 9.992C316.905 9.672 316.969 9.48 317.193 9.288C318.729 8.104 318.761 6.952 319.689 6.12C320.105 5.768 320.457 5.64 320.777 5.64C321.321 5.64 321.961 5.704 322.217 6.248C322.537 6.952 322.793 7.176 322.793 7.592C322.793 7.72 322.761 7.848 322.665 7.944C322.281 8.328 321.737 8.584 321.513 9.128C321.225 9.832 320.521 10.312 320.201 10.952C320.073 11.208 319.881 11.496 319.657 11.752C319.433 12.04 319.145 12.264 319.017 12.68C318.953 12.904 318.825 13.128 318.505 13.288C318.025 13.544 317.737 14.088 317.481 14.632C316.969 15.784 316.265 15.688 315.945 16.776C315.785 17.288 315.465 17.224 315.337 17.416C315.017 18.024 314.825 18.568 314.153 18.888C313.737 19.112 313.289 19.432 312.969 19.88C312.649 20.264 312.297 20.584 311.913 20.904C311.273 21.416 310.857 22.216 310.345 22.728C310.121 22.952 310.025 23.208 309.961 23.464C309.865 23.912 309.737 24.328 309.321 24.552C309.161 24.648 309.065 24.744 309.033 24.936C308.937 25.512 308.489 25.992 308.009 26.408C307.721 26.632 307.561 26.952 307.497 27.304C307.401 27.784 307.209 28.168 306.761 28.392C306.089 28.712 306.313 29.064 305.929 29.256ZM328.893 28.36C327.901 28.36 326.589 27.432 326.589 26.216V25.544C326.589 25.352 326.589 25.096 326.717 24.552C326.909 23.72 326.813 22.536 326.909 21.32C326.941 20.648 327.037 19.912 327.101 19.496C327.197 18.92 327.261 18.696 327.261 18.344C327.261 18.056 327.133 17.8 327.197 17.352C327.229 17.128 327.293 16.68 327.293 16.296C327.293 15.848 327.133 15.496 327.069 14.632C327.037 14.088 327.005 13.512 327.037 12.968C327.101 11.88 327.101 11.688 326.845 10.088C326.781 9.576 326.781 9.32 326.781 9.128C326.781 8.36 327.197 7.88 327.837 7.88C328.253 7.88 328.477 8.2 328.925 8.328C329.693 8.552 330.045 8.968 330.045 9.992L329.981 10.792C329.981 10.92 330.013 11.048 330.045 11.144C330.205 11.528 330.269 11.912 330.269 12.296C330.269 12.648 330.237 12.968 330.205 13.288C330.173 13.64 330.141 13.96 330.141 14.28C330.141 14.568 330.173 14.856 330.301 15.144C330.333 15.24 330.365 15.368 330.365 15.496L330.333 16.552C330.333 16.936 330.397 17.32 330.525 17.736C330.557 17.896 330.589 18.056 330.589 18.536C330.589 19.208 330.461 20.2 330.205 21.224C330.109 21.608 330.077 21.96 330.077 22.344C330.077 22.632 330.077 22.888 330.141 23.176C330.205 23.432 330.237 23.752 330.237 24.04C330.237 24.52 330.045 24.968 330.013 25.448C329.981 25.96 330.077 26.472 330.045 27.016C330.013 27.304 329.949 27.624 329.821 27.88C329.661 28.264 329.341 28.36 328.893 28.36ZM338.889 28.904C338.057 28.904 337.545 28.488 337.321 28.072C337.225 27.88 337.161 27.656 337.161 27.464C337.161 26.856 337.449 26.312 337.545 25.832C337.577 25.672 337.673 25.384 337.673 25.128C337.673 24.872 337.609 24.52 337.609 24.296C337.609 24.104 337.673 23.944 337.737 23.816C338.057 22.92 338.217 22.184 338.312 21.416C338.441 20.264 338.089 19.048 338.633 17.448C339.177 15.848 338.889 15.72 339.145 14.6C339.529 12.968 339.305 12.072 339.593 11.432C339.721 11.112 339.753 10.888 339.753 10.6L339.721 9.896C339.721 9.672 339.753 9.448 339.785 9.192C339.913 8.296 340.617 7.688 341.513 7.688C342.153 7.688 343.113 8.424 343.273 9.352C343.369 9.928 343.465 10.408 343.689 10.728C343.945 11.112 344.297 11.496 344.329 12.104C344.361 12.872 344.937 13.672 345.065 14.344C345.289 15.528 345.705 15.752 345.897 16.2C346.121 16.616 346.025 17.192 346.729 18.216C347.241 18.952 346.857 19.048 347.273 20.136C347.369 20.392 347.433 20.456 347.625 20.808C347.689 20.456 347.945 20.296 347.945 18.824C347.945 17.832 348.393 16.584 348.361 15.368C348.329 14.184 349.193 12.936 349.065 11.656C348.937 10.216 349.353 10.152 349.225 8.648C349.129 7.496 349.673 6.632 351.049 6.632C351.369 6.632 351.721 6.728 351.977 6.92C352.233 7.112 352.425 7.4 352.425 7.784C352.425 8.232 352.233 8.68 352.233 9.16C352.233 9.64 352.392 10.152 352.392 10.6C352.392 11.016 352.329 11.432 352.105 12.424C351.881 13.544 352.201 14.344 351.561 15.944C351.273 16.68 351.561 17.64 351.177 18.28C351.017 18.568 350.953 18.888 350.953 19.176C350.953 19.304 351.049 19.624 351.049 19.944C351.049 20.072 351.017 20.264 350.825 20.648C350.537 21.32 350.441 21.768 350.409 22.312C350.345 23.24 349.865 23.4 349.673 24.424C349.545 25.064 348.777 25.416 348.169 25.416C347.657 25.416 347.497 25.096 347.081 24.84C346.729 24.616 346.057 24.552 345.929 24.008C345.353 21.448 344.681 21.832 344.617 20.904C344.553 20.136 344.073 19.816 344.009 19.272C343.881 18.152 343.369 18.184 343.145 17.256C342.633 15.336 342.505 15.208 342.089 14.248C341.929 15.208 341.833 15.624 341.833 16.808C341.833 17.352 341.801 18.056 341.609 18.504C341.481 18.824 341.385 19.112 341.385 19.496C341.385 19.656 341.385 19.816 341.417 19.976C341.513 20.584 341.193 21.16 341.193 21.8C341.193 22.92 340.809 25.352 340.521 26.152C340.393 26.536 340.457 27.048 340.457 27.496C340.457 28.392 339.721 28.904 338.889 28.904ZM364.815 28.072C364.399 28.136 364.015 28.008 363.663 27.848C362.959 27.528 361.903 26.824 361.391 26.344C360.559 25.576 360.207 24.488 359.535 23.688C359.151 23.24 359.279 22.28 358.703 20.36L358.415 19.528C358.191 18.984 358.095 18.408 358.159 17.768C358.415 14.664 358.575 13.448 359.119 12.872C360.079 11.848 360.559 10.216 361.743 9.32C362.287 8.904 362.991 8.584 363.663 8.36C364.207 8.168 364.559 8.264 365.007 8.104C365.359 8.008 365.775 7.688 366.191 7.592C366.607 7.496 367.183 7.432 367.759 7.432C368.719 7.432 369.711 7.56 370.639 7.912C371.215 8.136 371.439 8.68 371.887 8.904C372.559 9.256 372.975 9.704 373.359 10.28C373.711 10.856 374.031 11.528 374.223 12.2C374.255 12.36 374.287 12.488 374.287 12.584C374.287 13 373.999 13.256 373.711 13.352C373.295 13.512 373.103 13.544 372.975 13.544C372.079 13.544 371.567 12.968 370.671 11.464C370.479 11.144 370.031 10.696 369.743 10.408C369.551 10.216 369.327 10.12 369.071 10.12C368.943 10.12 368.815 10.152 368.687 10.216C368.367 10.344 368.079 10.376 367.695 10.376C367.119 10.376 366.607 10.536 366.127 10.92C365.903 11.08 365.679 11.272 365.135 11.4C363.759 11.72 363.055 12.232 362.703 12.776C362.479 13.096 362.223 13.256 361.999 13.576C361.583 14.184 361.743 15.336 361.743 16.104C361.743 16.68 361.455 17.192 361.455 17.576C361.455 17.864 361.455 18.184 361.583 18.472C361.807 19.016 361.807 19.528 361.807 20.072C361.807 20.584 361.871 20.968 362.031 21.256C362.191 21.544 362.447 21.768 362.415 22.088C362.319 23.08 362.831 23.176 363.087 23.72C363.663 24.872 364.303 25.096 365.071 25.096C366.351 25.096 366.607 24.392 367.759 24.392C368.591 24.392 369.071 23.784 369.263 23.144C369.359 22.76 369.391 22.28 369.519 21.864C369.647 21.48 369.903 20.808 369.871 20.392C369.839 19.848 369.455 19.528 368.847 19.368C368.399 19.24 367.887 19.4 367.439 19.208C366.767 18.92 366.479 19.272 365.743 19.208C365.391 19.176 365.135 19.08 364.975 18.792C364.783 18.472 364.591 18.376 364.335 18.312C364.047 18.248 363.855 17.96 363.855 17.608C363.855 17.512 363.855 17.448 363.887 17.352C364.015 16.904 364.303 16.52 364.719 16.296C365.103 16.072 365.903 16.104 366.543 16.328C367.823 16.744 367.759 16.36 369.103 16.584C369.871 16.712 369.967 17.032 370.735 17.16C371.887 17.32 372.623 17.992 372.815 19.208C373.071 20.648 372.463 19.88 372.527 22.312C372.559 23.144 372.207 23.976 371.887 24.52C371.535 25.128 370.991 25.416 370.639 25.896C370.063 26.696 369.839 26.952 368.815 27.144C368.559 27.208 368.239 27.336 367.951 27.56C367.471 27.88 366.927 27.976 366.415 27.976H366.127C365.679 27.976 365.263 27.976 364.815 28.072ZM136.664 63.68C135.608 63.68 135.64 62.976 134.936 62.656C134.584 62.496 134.552 62.048 134.552 61.6C134.552 61.376 134.616 61.088 134.712 60.8C135 60.032 134.712 59.456 134.936 58.56C135.288 57.248 134.808 57.024 135.128 55.072C135.224 54.432 135.096 53.92 135.032 53.152C135 52.48 135.032 52.16 135.192 51.104C135.352 50.176 135.64 49.216 135.544 48.224C135.416 46.656 135.64 46.304 135.64 45.28C135.64 44.928 135.544 44.608 135.544 44.416C135.544 44.064 135.64 43.872 136.184 43.52C136.44 43.36 136.632 43.328 136.824 43.328C137.368 43.328 138.36 44.064 138.68 44.384C138.936 44.672 139.096 45.024 139.096 45.504C139.096 46.4 138.648 46.56 138.712 47.2C138.744 47.488 138.616 47.84 138.712 48.16C138.936 49.024 138.712 49.44 138.712 49.856C138.712 50.048 138.712 50.176 138.744 50.304C138.872 50.336 139 50.368 139.288 50.368L139.672 50.336C140.088 50.304 140.632 50.592 141.624 50.496C142.36 50.432 142.648 50.848 143.576 50.752C144.216 50.688 144.568 50.848 144.984 50.88C145.08 50.752 145.112 50.656 145.24 50.112C145.368 49.568 145.432 49.216 145.368 48.416C145.304 47.456 145.688 46.4 145.816 45.184C145.88 44.512 145.528 43.904 145.912 42.816C146.136 42.144 146.552 41.824 147.128 41.824C147.704 41.824 148.12 42.048 148.536 42.464C148.984 42.912 149.176 43.424 149.176 43.936C149.176 44.512 148.92 45.056 148.92 45.376C148.92 45.632 148.984 45.92 148.984 46.336C148.984 46.848 148.728 47.264 148.728 47.936C148.728 48.352 148.792 48.704 148.792 49.056C148.792 49.76 148.376 50.432 148.376 51.424C148.376 51.904 148.536 52.512 148.472 52.928C148.376 53.568 148.6 54.368 148.6 54.656C148.6 55.648 148.344 55.616 148.568 56.352C148.76 56.992 148.472 57.728 148.28 58.4C148.184 58.72 148.152 59.168 148.152 59.872C148.152 61.28 147.672 62.112 146.84 62.112C146.232 62.112 146.232 61.568 145.528 61.28C144.952 61.056 144.952 60.352 144.952 59.488C144.952 58.72 145.208 58.048 145.08 57.184C144.952 56.352 145.208 55.232 145.208 54.4C145.208 54.144 145.144 53.952 145.112 53.76C144.92 53.728 144.76 53.696 144.504 53.696C143.992 53.696 143.544 53.632 143.128 53.536C142.68 53.44 141.88 53.312 141.528 53.376C140.856 53.472 140.12 53.504 139.352 53.344C139 53.28 138.744 53.28 138.584 53.312C138.52 53.472 138.488 53.664 138.488 53.888C138.392 54.976 138.584 55.456 138.584 56.032C138.584 56.896 138.136 57.664 138.296 58.56C138.456 59.424 138.04 59.616 138.168 60.448C138.328 61.408 137.848 61.728 137.848 62.368C137.848 62.944 137.528 63.68 136.664 63.68ZM163.246 63.872C162.126 63.424 161.262 63.2 160.942 63.2C160.174 63.2 160.398 63.52 159.694 63.552C158.446 63.584 158.286 63.52 157.87 63.04C157.23 62.304 156.846 61.824 156.75 61.152C156.686 60.736 156.654 60.352 156.654 59.968C156.654 59.232 156.75 58.208 156.75 57.312C156.75 56.416 156.75 55.584 156.846 54.752C156.91 54.208 156.846 53.664 156.718 53.088C156.398 51.68 156.782 50.304 156.526 48.864C156.43 48.256 156.558 47.648 156.558 47.04C156.558 46.496 156.622 45.952 156.718 45.568C156.878 44.896 157.198 44.192 157.742 43.904C159.246 43.136 158.926 42.56 160.046 42.08C160.558 41.856 161.102 41.696 161.582 41.696C162.798 41.696 164.334 42.112 164.91 42.752C165.454 43.36 165.966 43.52 166.286 43.712C166.67 43.936 166.798 44.512 167.63 45.024C168.27 45.408 168.302 46.24 168.302 46.816C168.302 47.168 167.982 47.424 167.47 47.776C167.31 47.904 167.15 47.936 166.99 47.936C166.638 47.936 166.318 47.712 166.094 47.488C165.422 46.816 165.294 46.304 164.654 45.984C163.502 45.408 163.95 45.024 162.734 44.896C162.254 44.832 162.062 44.896 161.806 44.992C161.518 45.088 161.07 45.504 160.782 45.824C160.43 46.208 160.27 46.752 160.014 47.008C159.502 47.52 159.598 47.84 159.598 48.224C159.598 48.416 159.63 48.608 159.662 48.8C159.694 49.024 159.79 49.312 159.79 49.568C159.79 49.76 159.662 50.144 159.662 50.336C159.662 50.624 159.726 50.944 159.79 51.712C160.014 51.872 160.238 51.904 160.75 52C162.798 52.384 162.478 52 163.374 52.064C163.95 52.128 164.238 52.384 164.43 52.608C164.494 52.672 164.59 52.768 164.846 52.864C165.55 53.152 165.902 54.016 165.806 54.784C165.774 55.008 165.454 55.328 165.198 55.488C165.038 55.584 164.846 55.616 164.654 55.616C164.366 55.616 164.078 55.552 163.918 55.488C163.054 55.2 162.158 55.232 161.742 55.232C161.102 55.232 160.654 55.136 159.95 54.944C159.918 55.136 159.886 55.488 159.886 56.032C159.886 56.416 160.014 56.864 160.014 57.312C160.014 57.952 159.566 58.368 159.854 59.104C160.014 59.52 160.014 59.744 160.014 60.16C160.206 60.288 160.526 60.352 160.782 60.352C161.806 60.352 162.894 60.384 163.854 60.896C165.518 61.824 165.294 60.992 166.062 61.6C166.382 61.856 166.414 62.4 166.414 62.624C166.414 62.976 166.222 63.36 165.934 63.68C165.582 64.064 165.198 64.256 164.686 64.256C164.462 64.256 163.726 64.064 163.246 63.872ZM175.339 64.352C174.635 64.352 174.027 63.904 173.803 63.52C173.707 63.328 173.643 63.168 173.643 63.008C173.643 62.528 174.059 62.432 173.995 61.76C173.931 60.992 174.475 60.672 174.315 59.712C174.251 59.232 174.411 59.136 174.411 58.432C174.411 58.24 174.411 58.048 174.379 57.792C174.347 57.568 174.347 57.344 174.347 57.184C174.347 56.48 174.475 56 174.475 55.328C174.475 55.008 174.443 54.624 174.347 54.176C174.315 53.92 174.283 53.632 174.283 53.376C174.283 52.672 174.411 51.968 174.443 51.264C174.475 50.848 174.571 50.4 174.571 49.856C174.571 49.248 174.443 48.512 174.251 47.808C174.091 47.296 174.027 46.784 174.027 46.272C174.027 45.536 174.219 44.8 174.443 44.096C174.699 43.328 175.019 42.848 176.075 42.56L178.219 41.824C178.731 41.664 179.499 41.472 179.979 41.472C180.299 41.472 180.971 41.824 181.259 41.984C181.483 42.112 181.611 42.144 181.771 42.24C181.899 42.304 182.027 42.432 182.091 42.656C182.187 42.976 182.603 43.136 183.019 43.296C183.915 43.616 184.235 43.936 184.875 45.408C185.035 45.76 185.131 46.112 185.131 46.464C185.131 46.624 185.099 46.784 185.003 46.976C184.939 47.104 184.971 47.168 185.035 47.296C185.099 47.424 185.131 47.552 185.131 47.712C185.131 47.936 185.067 48.16 184.971 48.416C184.907 48.544 184.747 49.184 184.683 49.6C184.555 50.464 184.011 51.008 183.627 51.328L182.539 52.256C182.987 52.384 183.275 52.832 183.339 53.12C183.403 53.44 183.563 53.888 183.723 54.144C183.883 54.4 184.043 54.592 184.043 54.944C184.043 55.712 184.427 56.256 184.587 56.832C184.683 57.152 184.747 58.304 185.099 58.784C185.291 59.04 185.451 59.264 185.579 59.488C185.675 59.68 185.643 59.904 185.803 60.096C185.963 60.288 186.123 60.48 186.123 60.768C186.123 61.376 185.835 62.016 185.483 62.688C185.323 63.008 184.971 63.168 184.555 63.072C183.595 62.848 182.923 62.464 182.699 61.6C182.379 60.288 181.931 60.288 181.707 59.616C181.419 58.848 181.803 58.464 181.195 57.376C180.363 55.904 181.067 55.648 180.427 54.528C180.267 54.24 180.107 54.208 179.947 54.112C179.691 54.208 179.403 54.4 179.019 54.528C178.827 54.592 178.603 54.624 178.411 54.624C178.123 54.624 177.835 54.56 177.547 54.432C177.611 54.816 177.547 54.976 177.547 55.328C177.547 55.584 177.547 55.648 177.579 55.904C177.611 56.096 177.611 56.288 177.611 56.48C177.611 56.736 177.579 56.96 177.515 57.12C177.419 57.376 177.451 57.504 177.483 57.6C177.547 57.76 177.643 58.048 177.643 58.272C177.643 58.528 177.611 58.784 177.579 59.04C177.515 59.52 177.291 60.064 177.291 60.416C177.291 60.896 177.291 61.248 177.259 61.568C177.195 61.952 177.131 62.304 177.003 62.816C176.971 63.04 176.907 63.328 176.811 63.552C176.715 63.776 176.299 64.352 175.339 64.352ZM178.443 50.944C178.827 50.848 179.211 50.88 179.499 50.88C179.915 50.88 180.267 50.72 180.523 50.336C180.651 50.176 180.715 50.048 180.811 49.888C181.291 49.216 181.707 49.024 181.739 48.64C181.771 48.288 181.803 48.032 181.803 47.712C181.803 46.24 181.931 45.632 180.459 45.088C180.171 44.992 180.107 44.448 179.563 44.448C179.275 44.448 178.955 44.544 178.635 44.736C177.803 45.152 177.227 45.536 177.035 46.048C176.971 46.24 177.163 46.496 177.163 46.848C177.163 46.944 177.131 47.232 177.291 47.584C177.451 48 177.547 48.32 177.547 48.8V49.376C177.547 49.568 177.547 49.76 177.579 49.984C177.643 50.656 177.611 50.976 177.611 51.296C178.091 50.976 178.315 50.976 178.443 50.944ZM196.588 64.256L195.82 64.288C195.34 64.288 194.7 64.128 194.444 63.744C194.188 63.392 193.644 63.232 193.068 63.168C192.556 63.104 192.62 62.592 192.396 62.336C192.044 61.92 191.98 61.12 192.044 60.576C192.204 59.584 192.428 58.656 192.524 57.984C192.62 57.28 192.396 57.216 192.396 56.768C192.396 56.288 192.62 56.032 192.748 55.552C192.908 54.88 192.972 54.432 192.908 53.728C192.876 53.472 192.876 53.28 192.876 53.088C192.876 52.864 192.876 52.608 192.972 52.32C193.26 51.424 193.068 50.24 193.26 49.024C193.388 48.352 193.484 47.648 193.484 47.264C193.484 46.368 193.26 46.496 193.26 45.696C193.26 45.248 193.292 44.8 193.388 44.352C193.516 43.68 193.74 43.168 194.06 42.688C194.284 42.368 194.476 42.144 194.796 42.016C195.084 41.888 195.66 41.568 196.172 41.664C197.74 41.984 197.708 41.6 199.212 42.112C200.428 42.528 201.548 43.296 202.252 43.648C202.636 43.84 202.924 43.968 203.18 43.968C203.596 43.968 203.852 44.128 204.044 44.48C204.332 44.992 204.524 45.472 204.588 46.048C204.62 46.368 204.876 46.432 204.876 46.88C204.876 47.424 204.364 47.712 203.788 48.032C203.372 48.256 202.924 48.384 202.444 48.384C202.06 48.384 201.42 47.648 201.388 47.264C201.356 47.008 201.324 46.816 201.324 46.592C201.1 46.432 200.844 46.24 200.364 45.984C199.884 45.728 199.5 45.664 199.148 45.472C198.828 45.28 198.444 45.056 198.22 45.056C197.868 45.056 197.644 45.088 197.356 45.152C197.132 45.216 196.908 45.312 196.716 45.408C196.428 45.568 196.268 45.792 196.268 46.08C196.268 46.144 196.268 46.24 196.3 46.336C196.46 46.88 196.62 47.424 196.62 48.064C196.62 48.832 196.236 48.896 196.236 50.72C196.236 50.944 196.236 51.072 196.268 51.232C196.396 51.296 196.588 51.328 196.748 51.392C197.612 51.68 197.964 51.488 198.636 51.584C199.02 51.648 199.34 51.744 199.916 51.968C200.3 52.128 200.748 51.84 201.164 51.84C201.74 51.84 201.74 52.192 202.252 52.48C202.7 52.736 202.988 53.248 202.988 53.92C202.988 54.56 202.508 54.912 202.252 54.944L201.228 55.008C201.068 55.008 200.844 54.88 200.62 54.88C200.396 54.88 200.108 55.04 199.852 55.04C199.436 55.04 199.084 54.944 198.764 54.848C198.476 54.752 198.06 54.624 197.708 54.624C197.004 54.592 196.556 54.464 196.044 54.272C195.98 54.4 195.948 54.56 195.916 54.816C195.884 55.04 195.884 55.296 195.884 55.52C195.884 55.84 195.788 56.032 195.692 56.32C195.564 56.704 195.468 56.96 195.564 57.6C195.692 58.4 195.436 59.168 195.372 60.16C195.34 60.48 195.34 60.704 195.34 60.896C195.5 60.96 195.66 61.024 195.82 61.024C196.844 61.088 196.94 60.832 197.804 61.088C198.668 61.344 199.084 60.992 199.5 60.992C199.98 60.992 200.556 61.12 201.1 61.408C201.484 61.6 201.772 61.952 201.836 62.432C201.932 63.232 201.9 63.328 200.684 64C200.14 64.288 199.66 64.288 199.148 64.288C198.956 64.288 198.732 64.288 198.54 64.256C198.22 64.224 197.9 64.192 197.58 64.192C197.228 64.192 196.908 64.224 196.588 64.256ZM225.085 64.32C224.893 64.32 224.733 64.288 224.541 64.192C224.189 64 223.325 62.88 223.325 62.336C223.325 61.856 223.485 61.632 223.485 61.248C223.485 60.736 223.357 60.064 223.805 59.36C224.029 59.008 224.189 58.624 224.157 58.016C224.093 56.576 224.797 54.944 224.637 53.248C224.541 52.128 224.989 51.712 224.989 50.432C224.989 49.696 224.701 49.728 224.605 48.96C224.509 48.096 224.797 46.688 224.381 45.408C224.221 44.96 224.317 44.48 224.253 43.936C224.125 42.752 225.053 42.176 225.821 41.824C226.589 41.472 226.845 41.088 227.869 41.088C228.317 41.088 228.893 41.184 229.789 41.344C230.141 41.408 230.589 41.344 230.941 41.472C231.997 41.824 231.613 42.112 232.509 42.56C233.533 43.072 234.013 43.616 234.269 45.216L234.397 45.696C234.525 46.144 234.109 46.24 234.045 46.88C234.013 47.04 234.077 47.264 234.013 47.456C233.949 47.648 233.789 47.872 233.757 48.096C233.661 48.608 233.501 49.408 233.149 49.792C232.925 50.016 232.669 50.304 232.349 50.592C232.669 50.688 232.765 50.784 233.085 50.944C234.717 52.128 234.205 52.512 235.005 53.6C235.453 54.208 235.549 54.688 235.549 55.296C235.549 56.672 234.781 57.92 234.653 58.624C234.557 59.2 234.141 59.616 233.789 59.872C233.629 60 233.373 60.224 233.181 60.704C232.957 61.216 232.253 61.216 231.357 62.112C230.621 62.848 229.501 63.648 228.509 63.648C228.125 63.648 227.709 63.584 227.261 63.36L226.621 63.072C226.525 63.136 226.493 63.264 226.461 63.488C226.429 63.68 226.365 63.936 226.109 64.032C225.789 64.16 225.373 64.32 225.085 64.32ZM227.485 60.384C227.741 60.512 227.901 60.576 228.061 60.576C228.285 60.576 228.733 60.256 228.925 60.096C229.117 59.936 229.405 59.808 229.597 59.68C230.269 59.264 231.261 59.04 231.485 57.792C231.677 56.768 232.221 56.704 232.381 55.168C232.381 55.008 232.413 54.88 232.413 54.784C232.413 54.176 232.221 53.984 232.029 53.728C231.805 53.376 231.645 53.248 231.261 53.248C230.653 53.248 230.589 53.728 229.597 53.728C228.669 53.728 228.861 54.048 227.613 54.08C227.485 54.272 227.421 54.656 227.421 54.88C227.421 55.008 227.485 55.264 227.485 55.584C227.485 55.776 227.453 56 227.389 56.224C227.261 56.64 227.325 57.056 227.325 57.568C227.293 58.24 226.973 58.88 226.973 59.424C226.973 59.872 227.165 60.224 227.485 60.384ZM229.021 50.048C229.309 49.984 229.565 49.888 229.725 49.632C229.917 49.344 230.141 49.088 230.237 48.864C230.397 48.512 230.333 48.192 230.493 47.84C230.621 47.488 230.941 47.136 231.069 46.816C231.229 46.464 231.293 46.08 231.293 45.728C231.293 45.12 230.973 44.672 230.365 44.448C229.949 44.32 229.565 44.288 229.117 44.288C228.477 44.288 228.413 44.608 227.997 44.672C227.581 44.736 227.517 44.992 227.517 45.312C227.517 46.016 227.773 46.496 227.773 47.04C227.773 47.488 227.645 48.16 227.645 48.448C227.645 48.736 227.805 49.216 227.709 50.048C227.933 50.112 228.029 50.112 228.413 50.112C228.573 50.112 228.765 50.08 229.021 50.048ZM243.952 63.424C243.824 63.424 243.664 63.424 243.344 63.328C242.992 63.2 242.032 62.816 241.872 62.432C241.744 62.08 241.68 61.792 241.68 61.408C241.68 60.96 241.904 60.32 241.904 59.84C241.904 59.552 241.744 58.848 241.968 58.176C242.064 57.92 242.192 57.44 242.192 57.152C242.192 56.736 242.064 56.16 242.064 55.424V53.216C242.064 52.768 241.904 52.32 241.904 52.064C241.904 51.2 242.288 51.232 242.256 50.336C242.192 48.832 242.576 47.968 242.576 47.296C242.576 46.752 242.352 46.496 242.48 45.984C242.768 44.896 242.448 44.48 242.448 44.128C242.448 43.808 242.608 43.456 242.736 43.328C243.312 42.72 244.176 42.592 244.784 42.592C246.16 42.592 248.08 43.072 248.656 43.072C249.2 43.072 249.328 43.008 249.712 43.008C250.736 43.008 251.504 43.712 252.08 44.384C252.368 44.704 252.4 44.896 252.4 45.088C252.4 45.408 252.272 45.728 251.984 45.888C251.728 46.016 251.472 46.048 251.28 46.048C251.12 46.048 250.832 46.048 250.544 46.112C250.288 46.176 250.096 46.208 249.84 46.208C249.456 46.208 249.072 46.144 248.144 45.92C247.728 45.824 247.088 46.048 246.416 45.824C246.256 45.76 246.032 45.696 245.648 45.696C245.584 45.92 245.552 46.24 245.552 46.752C245.552 46.944 245.616 47.136 245.616 47.328C245.616 47.616 245.456 47.872 245.456 48.256C245.456 48.672 245.648 49.12 245.648 49.408C245.648 49.728 245.616 50.112 245.488 50.592C245.616 50.592 245.744 50.624 246.384 50.624H247.056C247.696 50.624 247.952 50.752 248.336 50.752L249.04 50.72C250.032 50.72 250.768 51.488 250.768 52.448C250.768 52.896 250.608 53.472 249.744 53.472C249.296 53.472 249.008 53.376 248.752 53.376C248.176 53.376 248.112 53.536 247.344 53.536C246.736 53.536 246.224 53.28 245.296 53.376C245.296 53.6 245.232 53.76 245.2 54.08C245.104 55.072 245.328 55.424 245.264 56.672C245.232 57.184 244.944 58.016 245.072 58.752C245.68 58.432 246.448 58.784 246.896 58.784C247.408 58.784 247.952 58.784 248.432 58.944C249.456 59.264 249.968 59.392 250.48 59.456C250.864 59.488 251.12 59.648 251.216 60C251.376 60.576 251.632 60.928 251.632 61.312C251.632 62.016 250.448 62.304 249.776 62.304C249.424 62.304 249.104 62.272 248.72 62.144C246.992 61.696 246.448 61.664 245.968 61.664C245.552 61.664 245.36 61.76 245.296 61.824C245.136 61.984 244.912 62.432 244.816 62.752C244.656 63.232 244.336 63.424 243.952 63.424ZM261.161 62.624C259.401 61.6 258.505 60.864 258.249 60.032C257.897 58.912 257.481 58.816 257.289 58.112C257.097 57.376 257.001 56.64 257.001 55.904C257.001 55.392 257.033 54.88 257.129 54.336C257.257 53.504 258.025 52.256 258.025 51.36C258.025 50.72 257.929 50.176 258.633 49.184C260.361 46.72 259.593 46.624 261.385 44.928C262.185 44.192 263.081 43.584 264.137 43.296C264.489 43.2 264.809 43.104 265.161 42.944C265.449 42.816 265.801 42.784 266.089 42.784C266.441 42.784 266.761 42.88 267.017 43.008C267.273 43.136 267.497 43.2 267.817 43.232C269.001 43.36 269.705 44.192 270.921 44.704C271.401 44.896 271.593 45.184 271.721 45.376C272.457 46.464 272.713 47.712 272.713 48.384C272.713 49.312 271.689 49.92 271.273 49.888C270.665 49.856 270.089 49.152 269.865 48.768C269.609 48.384 269.609 48.064 269.609 47.776C269.609 47.2 269.321 46.88 268.713 46.72C267.849 46.496 267.401 46.176 266.537 46.176C265.609 46.176 264.841 46.688 264.329 47.136C263.977 47.424 263.817 47.68 263.721 47.904C263.401 48.672 262.985 49.376 262.345 50.016C261.961 50.4 261.737 50.912 261.609 51.456C261.449 52.032 261.577 52.704 261.353 53.28C260.617 55.072 260.361 55.392 260.745 57.824C260.937 58.976 261.257 59.136 262.313 59.648C263.561 60.256 264.521 60.896 265.513 60.896C266.089 60.896 266.409 60.448 267.913 59.776C268.265 59.616 268.745 59.296 268.873 58.944C269.001 58.592 269.193 58.144 269.449 57.888C269.897 57.44 270.441 57.216 271.017 57.216C271.593 57.216 271.721 57.28 272.233 57.792C272.457 58.016 272.489 58.4 272.489 58.752C272.489 59.136 272.425 59.488 272.233 59.712C271.945 60.032 271.369 60.224 271.209 60.704C270.953 61.504 270.729 62.112 269.993 62.592C269.705 62.784 269.225 62.848 268.777 63.328C267.977 64.192 266.377 64.224 265.545 64.224C264.713 64.224 264.425 64.256 263.465 63.552C262.889 63.136 262.441 63.36 261.161 62.624ZM285.938 52.512C286.194 52.512 286.45 52.48 286.61 52.416C286.45 51.712 286.354 51.072 286.418 50.56C286.546 49.696 285.97 48.768 285.842 48.096C285.522 46.4 285.426 46.304 285.202 45.696C285.074 46.304 284.882 46.4 284.722 46.752C284.562 46.944 284.338 47.84 284.018 48.384C283.442 49.536 283.57 50.336 283.218 51.232C283.122 51.52 282.994 51.776 282.93 52.032C282.994 52.032 283.154 52.16 283.442 52.192C284.242 52.32 284.402 52.224 284.818 52.32C285.17 52.352 285.554 52.512 285.938 52.512ZM284.978 55.296C284.786 55.296 284.594 55.264 284.466 55.232C283.922 55.072 283.282 55.008 282.802 55.008H281.97C281.938 55.104 281.874 55.168 281.65 55.904C281.458 56.576 281.01 57.376 280.626 58.272C280.434 58.688 280.562 59.04 280.402 59.264C279.826 60.064 280.466 60.384 280.466 61.056C280.466 61.728 279.474 62.208 278.866 62.208C277.586 62.208 276.85 61.6 276.85 60.416C276.85 59.872 276.914 59.264 277.202 58.752C278.226 56.896 278.098 55.136 279.346 52.896C279.602 52.416 279.794 51.904 279.922 51.392C280.338 49.664 281.01 48 281.618 46.592C281.842 46.048 282.066 45.824 282.194 45.6C282.482 44.992 282.642 44.352 282.77 43.68C282.898 43.008 283.122 42.336 283.634 41.824C284.082 41.376 284.626 41.344 285.138 41.344C285.394 41.344 285.746 41.568 286.002 41.792C286.13 41.92 286.29 42.016 286.418 42.144C286.61 42.368 286.706 42.592 286.834 42.944C286.93 43.232 287.346 43.584 287.634 44C288.498 45.248 288.146 45.728 288.498 46.304C288.722 46.656 288.818 47.072 288.978 48.096C289.138 49.216 289.394 49.664 289.394 50.208C289.394 50.528 289.394 50.688 289.522 51.072C289.746 51.776 289.874 52.384 289.874 53.056C289.874 54.4 290.258 56.288 290.258 56.8C290.258 57.248 290.162 57.44 290.162 58.112C290.162 58.624 290.386 58.784 290.386 59.84C290.386 60.192 290.386 60.704 290.29 61.056C290.162 61.536 289.618 62.144 289.138 62.176C288.146 62.24 287.186 61.664 287.186 60.704C287.186 60.576 287.186 60.448 287.218 60.32C287.314 59.904 287.346 59.712 287.346 59.584C287.346 59.168 286.802 58.176 286.834 55.296H284.978ZM305.586 64.256C304.882 64.352 304.402 64.224 303.954 63.936C302.45 63.008 301.81 63.456 300.434 62.176C299.794 61.568 299.858 61.152 299.09 60.512C298.066 59.648 298.29 58.496 298.066 57.792C297.874 57.152 297.586 56.576 297.554 55.936C297.522 54.944 297.778 54.304 297.65 53.344C297.618 53.024 297.394 52.608 297.394 51.904C297.394 51.2 297.65 51.008 297.65 50.368C297.65 49.728 297.554 49.376 297.714 48.96C297.81 48.672 297.682 48.224 297.682 47.84C297.682 47.072 298.45 46.272 298.45 44.992C298.45 44.352 298.578 44.224 298.738 44.16C299.058 44.032 299.378 43.904 299.666 43.904C300.594 43.904 301.074 44.064 301.33 44.704C301.714 45.6 301.714 46.304 301.394 46.88C301.042 47.616 301.074 48.8 300.914 49.216C300.786 49.568 300.914 49.888 300.978 50.176C301.042 50.56 300.722 51.136 300.786 51.776C300.818 52.192 300.978 52.608 301.01 53.024C301.074 54.016 300.658 54.56 301.138 55.68C301.362 56.16 301.394 56.48 301.266 57.056C301.106 57.792 301.458 58.784 302.354 59.36C302.802 59.648 303.634 60.352 304.05 60.64C304.306 60.832 304.85 61.024 305.618 60.864C306.898 60.608 307.89 61.344 308.69 60.352C309.586 59.264 310.354 59.84 310.706 58.208C310.994 56.832 311.986 56.128 312.114 55.072C312.178 54.432 311.922 54.08 312.242 53.504C312.69 52.704 312.37 51.584 312.69 50.624C313.17 49.216 312.53 48.544 312.53 47.584C312.53 47.136 312.658 46.848 312.658 46.4C312.658 46.048 312.338 45.728 312.338 45.376C312.338 44.832 312.53 44.448 312.753 44.032C312.978 43.616 313.138 43.36 313.522 43.264C314.29 43.104 314.962 43.52 315.41 44.128C316.082 45.056 316.274 45.92 316.274 46.944C316.274 47.296 316.402 47.68 316.466 47.936C316.658 48.64 316.658 49.376 316.466 50.176C316.05 51.808 315.826 52.192 315.826 53.888C315.826 54.08 315.698 54.304 315.538 54.528C315.09 55.168 315.538 55.392 315.122 56.608C314.898 57.344 314.802 58.016 314.386 58.72C314.066 59.264 313.33 59.936 313.234 60.608C313.17 60.992 313.138 61.632 312.498 61.888C311.41 62.336 311.442 63.264 310.61 63.424C309.33 63.68 309.106 64.192 307.826 64.096C306.866 64.032 306.13 64.16 305.586 64.256ZM326.481 64.448C326.161 64.32 325.841 64.256 325.489 64.192C325.105 64.096 324.721 64.032 324.337 63.872C324.273 63.84 324.145 63.808 324.049 63.808C323.921 63.808 323.825 63.84 323.729 63.872C323.569 63.936 323.377 63.968 323.217 63.968C322.865 63.968 322.545 63.84 322.225 63.616C321.841 63.296 321.553 62.88 321.393 62.464C321.329 62.336 321.297 62.176 321.297 62.016C321.297 61.408 321.745 60.768 322.353 60.576C322.481 60.544 322.641 60.512 322.769 60.512C322.897 60.512 323.025 60.544 323.121 60.576C323.345 60.672 323.569 60.704 323.793 60.704C324.081 60.704 324.369 60.8 324.657 60.928C325.073 61.152 325.553 61.28 326.097 61.28C326.417 61.28 326.865 61.28 327.473 60.992C328.241 60.64 328.657 60.864 329.681 60.32C329.937 60.192 330.033 59.872 330.161 59.68C330.289 59.488 330.481 59.392 330.673 59.264C331.153 58.944 331.505 58.368 331.281 57.664C331.089 57.088 331.633 56.32 330.705 55.84C330.033 55.488 329.585 55.072 329.169 55.168C328.785 55.232 328.465 55.264 328.273 55.264C327.377 55.264 326.545 54.688 326.033 54.048C325.777 53.76 325.553 53.6 325.393 53.568C324.913 53.472 324.529 53.216 324.305 52.832C323.953 52.192 323.409 52.32 323.377 51.648C323.249 49.632 322.801 50.208 322.801 48.512C322.801 47.776 323.057 47.04 323.377 46.368C323.601 45.888 323.921 45.664 324.145 45.312C324.337 45.056 324.305 44.736 324.497 44.448C324.849 43.904 325.361 43.584 325.873 43.424C327.505 42.912 327.569 42.464 328.849 42.24C329.329 42.144 329.617 41.824 330.001 41.792C330.705 41.728 330.801 41.984 331.569 41.984C332.273 41.984 332.593 42.08 332.881 42.208L333.393 42.4C333.873 42.592 334.353 42.848 334.801 43.104C335.825 43.68 335.569 44.128 336.433 45.152C336.689 45.44 336.657 45.792 336.625 45.984C336.529 46.688 336.433 46.912 335.825 47.168C335.569 47.264 335.345 47.328 335.153 47.296C334.193 47.072 333.841 46.336 333.489 45.6C333.201 45.024 332.657 44.704 332.049 44.704C331.153 44.704 331.249 45.12 330.417 45.056C329.681 44.992 329.297 45.632 328.753 45.728C327.953 45.856 326.737 46.72 326.801 47.68C326.865 48.576 326.353 48.512 326.353 49.376C326.353 50.848 326.833 50.592 327.153 51.168C327.633 52.032 329.073 51.808 329.809 52.032C330.289 52.192 330.609 52.672 331.665 52.8C332.625 52.928 333.137 53.728 333.681 54.336C334.257 54.976 334.513 55.552 334.449 56.192C334.385 56.864 334.577 58.112 334.577 58.464C334.577 59.68 333.841 60.192 333.393 61.376C332.977 62.496 332.561 62.752 332.305 62.816C331.825 62.976 331.505 62.752 330.897 63.328C330.705 63.52 330.289 63.584 329.873 63.648C329.201 63.776 328.465 64.032 327.697 64.416C327.505 64.512 327.281 64.576 327.089 64.576C326.897 64.576 326.705 64.512 326.481 64.448ZM346.338 64.256L345.57 64.288C345.09 64.288 344.45 64.128 344.194 63.744C343.938 63.392 343.394 63.232 342.818 63.168C342.306 63.104 342.37 62.592 342.146 62.336C341.794 61.92 341.73 61.12 341.794 60.576C341.954 59.584 342.178 58.656 342.274 57.984C342.37 57.28 342.146 57.216 342.146 56.768C342.146 56.288 342.37 56.032 342.498 55.552C342.658 54.88 342.722 54.432 342.658 53.728C342.626 53.472 342.626 53.28 342.626 53.088C342.626 52.864 342.626 52.608 342.722 52.32C343.01 51.424 342.818 50.24 343.01 49.024C343.138 48.352 343.234 47.648 343.234 47.264C343.234 46.368 343.01 46.496 343.01 45.696C343.01 45.248 343.042 44.8 343.138 44.352C343.266 43.68 343.49 43.168 343.81 42.688C344.034 42.368 344.226 42.144 344.546 42.016C344.834 41.888 345.41 41.568 345.922 41.664C347.49 41.984 347.458 41.6 348.962 42.112C350.178 42.528 351.298 43.296 352.002 43.648C352.386 43.84 352.674 43.968 352.93 43.968C353.346 43.968 353.602 44.128 353.794 44.48C354.082 44.992 354.274 45.472 354.338 46.048C354.37 46.368 354.626 46.432 354.626 46.88C354.626 47.424 354.114 47.712 353.538 48.032C353.122 48.256 352.674 48.384 352.194 48.384C351.81 48.384 351.17 47.648 351.138 47.264C351.106 47.008 351.074 46.816 351.074 46.592C350.85 46.432 350.594 46.24 350.114 45.984C349.634 45.728 349.25 45.664 348.898 45.472C348.578 45.28 348.194 45.056 347.97 45.056C347.618 45.056 347.394 45.088 347.106 45.152C346.882 45.216 346.658 45.312 346.466 45.408C346.178 45.568 346.018 45.792 346.018 46.08C346.018 46.144 346.018 46.24 346.05 46.336C346.21 46.88 346.37 47.424 346.37 48.064C346.37 48.832 345.986 48.896 345.986 50.72C345.986 50.944 345.986 51.072 346.018 51.232C346.146 51.296 346.338 51.328 346.498 51.392C347.362 51.68 347.714 51.488 348.386 51.584C348.77 51.648 349.09 51.744 349.666 51.968C350.05 52.128 350.498 51.84 350.914 51.84C351.49 51.84 351.49 52.192 352.002 52.48C352.45 52.736 352.738 53.248 352.738 53.92C352.738 54.56 352.258 54.912 352.002 54.944L350.978 55.008C350.818 55.008 350.594 54.88 350.37 54.88C350.146 54.88 349.858 55.04 349.602 55.04C349.186 55.04 348.834 54.944 348.514 54.848C348.226 54.752 347.81 54.624 347.458 54.624C346.754 54.592 346.306 54.464 345.794 54.272C345.73 54.4 345.698 54.56 345.666 54.816C345.634 55.04 345.634 55.296 345.634 55.52C345.634 55.84 345.538 56.032 345.442 56.32C345.314 56.704 345.218 56.96 345.314 57.6C345.442 58.4 345.186 59.168 345.122 60.16C345.09 60.48 345.09 60.704 345.09 60.896C345.25 60.96 345.41 61.024 345.57 61.024C346.594 61.088 346.69 60.832 347.554 61.088C348.418 61.344 348.834 60.992 349.25 60.992C349.73 60.992 350.306 61.12 350.85 61.408C351.234 61.6 351.522 61.952 351.586 62.432C351.682 63.232 351.65 63.328 350.434 64C349.89 64.288 349.41 64.288 348.898 64.288C348.706 64.288 348.482 64.288 348.29 64.256C347.97 64.224 347.65 64.192 347.33 64.192C346.978 64.192 346.658 64.224 346.338 64.256Z" fill="white"/>
<path d="M7.21037 116.331C7.75781 115.224 8.41877 113.103 8.84257 111.9C8.85003 111.879 8.85752 111.857 8.86501 111.836C8.96103 111.558 9.06017 111.297 9.17906 110.99C9.46558 110.261 9.85042 109.251 10.6478 107.185C10.9192 106.598 11.2072 105.988 11.4797 105.422C14.5043 99.1313 18.1413 93.0739 22.3506 87.4403C22.4065 87.3711 22.4636 87.3007 22.5215 87.2297C23.6523 85.8338 25.0556 84.2179 25.933 83.1253C27.0345 81.7481 27.7721 80.8449 28.4034 80.0785C32.1644 75.9189 36.2879 72.0661 40.7414 68.605C42.1155 67.536 43.5917 66.4552 45.0132 65.4758C46.3339 64.5646 47.7466 63.642 49.1001 62.8047C49.9172 62.3404 50.711 61.9136 51.4553 61.5225C52.507 60.9695 53.4373 60.5012 54.1879 60.0996C55.9987 59.127 58.0908 57.9448 59.6052 57.131C59.8561 56.9958 60.094 56.8687 60.3151 56.7519C61.5695 56.1637 62.8796 55.577 64.1278 55.0439C64.205 54.9913 64.2827 54.9378 64.3617 54.8834C65.3431 54.2079 66.7062 53.6056 68.8368 52.7415C69.7536 52.3708 70.8267 51.9472 72.1087 51.4467C72.9353 51.1245 73.3386 50.8876 73.6681 50.6935C73.7644 50.6368 73.8592 50.5822 73.9477 50.5338C74.2577 50.3657 74.6243 50.2952 75.0586 50.2138C75.6225 50.1082 76.2995 49.984 77.1299 49.605C79.803 48.3949 81.0801 48.2395 82.0377 48.112C82.32 48.0754 82.5763 48.0427 82.8338 47.9912C83.668 47.8237 84.819 47.422 85.6905 47.0814C86.4002 46.8046 87.7741 46.5243 88.8714 46.3549C89.283 46.2912 89.8289 46.1572 90.4773 46.0028C91.1482 45.843 91.9296 45.6612 92.7824 45.5134C94.8772 45.1554 95.9982 44.9859 96.9082 44.8455C97.1674 44.806 97.4094 44.7694 97.6517 44.7337C98.4128 44.6216 99.3853 44.4683 100.332 44.329C101.455 44.1635 102.609 44.0061 103.496 43.9121C105.776 43.4922 108.078 43.1011 110.337 42.7563C111.508 42.5772 112.628 42.2636 113.444 41.8691C114.26 41.4743 114.703 41.0311 114.661 40.6213C114.62 40.2119 114.095 39.8649 113.204 39.6549C112.313 39.4451 111.132 39.3936 109.933 39.5101C107.543 39.7417 105.091 40.0255 102.675 40.3661C99.7803 40.7724 96.7815 41.2882 93.9063 41.9025C91.933 42.3229 89.8153 42.8239 87.8293 43.3432C87.6232 43.397 87.4175 43.4513 87.2124 43.5059C85.5338 43.8299 83.7752 44.2191 82.5867 44.5276C81.5999 44.7832 80.9101 45.0466 80.3225 45.2733C79.9182 45.4295 79.5625 45.5687 79.1943 45.679C79.0016 45.7367 78.7132 45.8206 78.3785 45.9193C77.0003 46.3234 74.7059 47.0329 72.7096 47.8662C71.7961 48.2443 70.7609 48.7244 69.7891 49.1908C68.3932 49.859 67.1553 50.4885 66.4478 50.7486C65.2372 51.1906 63.9181 51.8209 62.7761 52.389C61.6985 52.9244 60.7192 53.4301 60.1379 53.6338C59.44 53.8788 58.8927 54.1832 58.0916 54.6405C57.5312 54.9609 56.8774 55.3396 55.9214 55.8619C54.8236 56.4629 54.0847 56.9347 53.4612 57.3369C52.5783 57.9079 51.9586 58.3199 50.876 58.8451C49.6872 59.4213 48.4906 60.076 47.61 60.6714C47.2079 60.943 46.7458 61.2335 46.2448 61.5544C45.5886 61.9745 44.9074 62.4207 44.3176 62.8666C43.8315 63.2341 43.4656 63.5841 43.1447 63.8941C43.0446 63.9908 42.9488 64.0837 42.8552 64.172C42.4691 64.4421 42.0588 64.7323 41.6632 65.015C41.5915 65.0508 41.5158 65.088 41.4369 65.127C41.0412 65.3229 40.5563 65.5654 40.0021 65.923C39.1204 66.4929 38.4493 67.0648 37.7029 67.7125C37.1289 68.2117 36.5404 68.7332 35.8417 69.2903C35.3651 69.6704 34.8156 70.0876 34.2758 70.506C33.4534 71.1443 32.6595 71.7822 32.157 72.2742C31.9686 72.4586 31.8348 72.6473 31.7036 72.8342C31.7031 72.8351 31.7026 72.8359 31.702 72.8368C31.6931 72.8495 31.6841 72.8622 31.6752 72.8749C30.4102 73.9742 29.0979 75.1681 27.8724 76.3331C27.7591 76.4283 27.6451 76.5248 27.5326 76.6206C26.9902 77.0808 26.4362 77.5682 26.0578 77.8422C25.6433 78.1427 24.7358 79.0238 23.8167 79.9609C23.2056 80.5831 22.574 81.2456 22.0578 81.7687C21.7551 82.0755 21.5314 82.4189 21.3049 82.7718C21.0921 83.103 20.8845 83.433 20.5915 83.7707C20.4456 83.9388 20.2775 84.1114 20.0991 84.2958C19.9421 84.4581 19.7768 84.6299 19.612 84.8158C19.459 84.9885 19.1619 85.4077 18.791 85.945C18.5618 86.2771 18.3045 86.6541 18.0342 87.0467C17.2289 88.0611 16.4533 89.079 15.7078 90.0988C15.52 90.289 15.3424 90.4427 15.1736 90.555C15.0534 90.6342 14.9359 90.6913 14.8155 90.7503C14.6517 90.8306 14.4824 90.9141 14.2946 91.0599C14.1478 91.1739 14.0129 91.3339 13.9557 91.4632C13.9291 91.5235 13.9191 91.5767 13.9101 91.6249C13.8998 91.6802 13.8905 91.7294 13.859 91.776C13.8362 91.8096 13.8 91.8363 13.7557 91.8693C13.6849 91.922 13.5932 91.9908 13.5022 92.1271C13.1624 92.6366 12.8069 93.2128 12.4528 93.8007C12.0565 94.458 11.6815 95.099 11.3699 95.5976C11.0177 96.1608 10.6072 96.9743 10.1834 97.8437C9.89242 98.4413 9.61067 99.0372 9.35942 99.5385C9.11127 100.033 8.82593 100.505 8.53421 101.002C8.18972 101.588 7.86737 102.15 7.67213 102.662C7.63268 102.765 7.6286 102.916 7.62421 103.104C7.62111 103.237 7.61756 103.39 7.60186 103.557C7.30969 104.165 7.00516 104.822 6.72331 105.456C6.70544 105.475 6.68712 105.494 6.66862 105.514C6.66827 105.514 6.66792 105.514 6.66757 105.515C6.24938 105.957 5.68657 106.549 5.40693 107.631C5.33471 107.91 5.33706 108.103 5.33943 108.278C5.34184 108.449 5.34453 108.601 5.27945 108.795C5.20554 109.015 5.06544 109.253 4.91473 109.512C4.70274 109.876 4.47142 110.278 4.36827 110.737C4.36092 110.769 4.35313 110.804 4.34487 110.84C4.26643 111.181 4.15413 111.683 4.11645 112.202C3.65686 113.593 3.22501 115.045 2.85286 116.461C2.21941 118.865 1.71373 121.283 1.347 123.731C1.16644 124.934 1.18332 126.083 1.37249 126.98C1.56465 127.859 1.91122 128.344 2.31196 128.387C2.71465 128.428 3.14442 128.03 3.55031 127.265C3.95851 126.481 4.30632 125.457 4.56243 124.332C4.97608 122.512 5.47404 120.711 6.03359 118.935C6.06801 118.842 6.10253 118.748 6.1367 118.654C6.39658 117.94 6.68532 117.369 6.99615 116.753C7.06708 116.613 7.13872 116.472 7.21037 116.331Z" fill="white"/>
</svg>
