<svg width="3711" height="1578" viewBox="0 0 3711 1578" fill="none" xmlns="http://www.w3.org/2000/svg">
<path d="M3605.18 1577.81H3588.49C3494.17 1577.81 3483.29 1537.18 3483.29 1513.48V1510.82H3542.06C3542.78 1521.7 3549.07 1539.36 3595.5 1539.36H3598.89C3646.29 1539.36 3651.61 1529.92 3651.61 1520.25C3651.61 1509.85 3646.05 1503.32 3604.45 1502.11L3573.5 1501.39C3506.27 1499.45 3485.71 1476.72 3485.71 1448.67V1446.49C3485.71 1419.65 3501.67 1391.59 3583.65 1391.59H3600.34C3685.47 1391.59 3704.82 1421.34 3704.82 1448.42V1450.84H3646.29C3645.08 1444.07 3641.45 1429.32 3594.3 1429.32H3590.43C3546.89 1429.32 3543.75 1437.06 3543.75 1444.8C3543.75 1452.54 3548.59 1459.55 3585.35 1460.27L3615.58 1460.76C3683.29 1461.97 3710.62 1478.41 3710.62 1514.2V1517.59C3710.62 1547.34 3695.63 1577.81 3605.18 1577.81Z" fill="white"/>
<path d="M3231.51 1394.73H3294.39L3409.26 1507.91V1394.73H3464.88V1574.66H3409.26L3287.13 1455.44V1574.66H3231.51V1394.73Z" fill="white"/>
<path d="M3074.4 1391.59H3084.8C3197.98 1391.59 3211.28 1448.42 3211.28 1480.59V1487.84C3211.28 1519.52 3198.22 1577.81 3084.8 1577.81H3074.4C2960.5 1577.81 2947.68 1519.52 2947.68 1487.84V1480.59C2947.68 1448.42 2960.5 1391.59 3074.4 1391.59ZM3152.27 1485.67V1482.28C3152.27 1461.73 3140.42 1435.12 3079.48 1435.12C3017.57 1435.12 3006.69 1461.73 3006.69 1482.28V1485.18C3006.69 1505.74 3018.54 1534.04 3079.48 1534.04C3139.94 1534.04 3152.27 1506.47 3152.27 1485.67Z" fill="white"/>
<path d="M2927.46 1394.73V1574.66H2871.11V1394.73H2927.46Z" fill="white"/>
<path d="M2610.14 1394.73H2673.02L2787.89 1507.91V1394.73H2843.52V1574.66H2787.89L2665.76 1455.44V1574.66H2610.14V1394.73Z" fill="white"/>
<path d="M2582.65 1394.73V1574.66H2526.3V1394.73H2582.65Z" fill="white"/>
<path d="M2423.66 1514.69H2345.06V1574.66H2288.71V1394.73H2423.66C2488.47 1394.73 2507.58 1420.37 2507.58 1453.26V1455.68C2507.58 1487.84 2487.99 1514.69 2423.66 1514.69ZM2345.06 1435.6V1474.3H2422.69C2440.35 1474.3 2448.81 1467.77 2448.81 1455.44V1454.71C2448.81 1442.38 2440.83 1435.6 2422.69 1435.6H2345.06Z" fill="white"/>
<path d="M2131.6 1391.59H2142C2255.18 1391.59 2268.49 1448.42 2268.49 1480.59V1487.84C2268.49 1519.52 2255.43 1577.81 2142 1577.81H2131.6C2017.7 1577.81 2004.88 1519.52 2004.88 1487.84V1480.59C2004.88 1448.42 2017.7 1391.59 2131.6 1391.59ZM2209.48 1485.67V1482.28C2209.48 1461.73 2197.63 1435.12 2136.68 1435.12C2074.77 1435.12 2063.89 1461.73 2063.89 1482.28V1485.18C2063.89 1505.74 2075.74 1534.04 2136.68 1534.04C2197.14 1534.04 2209.48 1506.47 2209.48 1485.67Z" fill="white"/>
<path d="M1735.6 1394.73H1791.95V1529.92H1916.98V1574.66H1735.6V1394.73Z" fill="white"/>
<path d="M1627.26 1501.14L1592.43 1433.67L1559.06 1501.14H1627.26ZM1664.98 1574.66L1648.06 1541.77H1538.99L1522.78 1574.66H1465.47L1556.4 1394.73H1629.43L1725.69 1574.66H1664.98Z" fill="white"/>
<path d="M1222.16 1394.73H1285.04L1399.91 1507.91V1394.73H1455.54V1574.66H1399.91L1277.79 1455.44V1574.66H1222.16V1394.73Z" fill="white"/>
<path d="M1065.06 1391.59H1075.45C1188.64 1391.59 1201.94 1448.42 1201.94 1480.59V1487.84C1201.94 1519.52 1188.88 1577.81 1075.45 1577.81H1065.06C951.149 1577.81 938.332 1519.52 938.332 1487.84V1480.59C938.332 1448.42 951.149 1391.59 1065.06 1391.59ZM1142.93 1485.67V1482.28C1142.93 1461.73 1131.08 1435.12 1070.13 1435.12C1008.22 1435.12 997.341 1461.73 997.341 1482.28V1485.18C997.341 1505.74 1009.19 1534.04 1070.13 1534.04C1130.59 1534.04 1142.93 1506.47 1142.93 1485.67Z" fill="white"/>
<path d="M820.953 1577.81H804.267C709.949 1577.81 699.066 1537.18 699.066 1513.48V1510.82H757.833C758.559 1521.7 764.847 1539.36 811.28 1539.36H814.666C862.066 1539.36 867.387 1529.92 867.387 1520.25C867.387 1509.85 861.824 1503.32 820.228 1502.11L789.273 1501.39C722.041 1499.45 701.485 1476.72 701.485 1448.67V1446.49C701.485 1419.65 717.446 1391.59 799.43 1391.59H816.117C901.244 1391.59 920.591 1421.34 920.591 1448.42V1450.84H862.066C860.857 1444.07 857.229 1429.32 810.071 1429.32H806.201C762.67 1429.32 759.526 1437.06 759.526 1444.8C759.526 1452.54 764.363 1459.55 801.123 1460.27L831.353 1460.76C899.068 1461.97 926.395 1478.41 926.395 1514.2V1517.59C926.395 1547.34 911.401 1577.81 820.953 1577.81Z" fill="white"/>
<path d="M518.513 1435.6V1470.91H603.882C620.085 1470.91 626.615 1463.17 626.615 1453.26V1453.02C626.615 1443.58 620.327 1435.6 603.882 1435.6H518.513ZM518.513 1510.82V1574.66H462.164V1394.73H607.268C667.244 1394.73 685.382 1415.53 685.382 1441.41V1444.31C685.382 1470.19 663.858 1479.86 652.008 1483.73C670.388 1489.05 686.107 1501.87 686.107 1525.08V1551.45C686.107 1565.96 687.8 1570.55 689.493 1573.45V1574.66H632.177C630.484 1572.49 629.517 1569.83 629.517 1563.3V1542.5C629.517 1520.49 619.843 1510.82 592.032 1510.82H518.513Z" fill="white"/>
<path d="M246.775 1394.73H436.377V1435.6H302.398V1462.21H433.234V1503.32H302.398V1532.82H438.796V1574.66H246.775V1394.73Z" fill="white"/>
<path d="M144.134 1514.69H65.5361V1574.66H9.1875V1394.73H144.134C208.947 1394.73 228.052 1420.37 228.052 1453.26V1455.68C228.052 1487.84 208.463 1514.69 144.134 1514.69ZM65.5361 1435.6V1474.3H143.167C160.821 1474.3 169.285 1467.77 169.285 1455.44V1454.71C169.285 1442.38 161.304 1435.6 143.167 1435.6H65.5361Z" fill="white"/>
<path d="M1993.5 1056.16H2183.1V1097.03H2049.12V1123.63H2179.96V1164.74H2049.12V1194.25H2185.52V1236.09H1993.5V1056.16Z" fill="white"/>
<path d="M1895.62 1236.09H1825.48L1731.89 1056.16H1795.74L1862 1188.44L1924.15 1056.16H1982.68L1895.62 1236.09Z" fill="white"/>
<path d="M1721.1 1056.16V1236.09H1664.75V1056.16H1721.1Z" fill="white"/>
<path d="M1509.81 1236.09V1098.72H1432.43V1056.16H1644.28V1098.72H1566.65V1236.09H1509.81Z" fill="white"/>
<path d="M1303.2 1239.23H1293.29C1189.05 1239.23 1172.85 1180.95 1172.85 1149.03V1142.01C1172.85 1109.37 1186.88 1053.02 1293.29 1053.02H1303.2C1407.43 1053.02 1423.64 1102.84 1423.64 1123.88V1126.54H1363.9C1362.45 1121.7 1355.2 1096.55 1298.12 1096.55C1244.19 1096.55 1231.86 1120.73 1231.86 1143.22V1146.12C1231.86 1167.41 1246.13 1195.46 1298.61 1195.46C1356.89 1195.46 1362.69 1167.65 1364.14 1163.54H1423.88V1166.2C1423.88 1188.93 1405.98 1239.23 1303.2 1239.23Z" fill="white"/>
<path d="M965.209 1056.16H1154.81V1097.03H1020.83V1123.63H1151.67V1164.74H1020.83V1194.25H1157.23V1236.09H965.209V1056.16Z" fill="white"/>
<path d="M845.38 1238.75H831.837C756.867 1238.75 736.311 1194.97 736.311 1160.87V1159.42H793.385C794.11 1167.4 797.98 1194.01 836.916 1194.01H839.818C869.564 1194.01 883.107 1176.84 883.107 1149.51V1056.16H939.697V1150.96C939.697 1188.2 922.043 1238.75 845.38 1238.75Z" fill="white"/>
<path d="M500.424 1236.09V1056.16H654.476C705.987 1056.16 720.256 1075.99 720.256 1097.27V1100.66C720.256 1124.12 700.425 1133.06 691.719 1135.72C704.053 1138.87 730.413 1149.27 730.413 1180.95V1184.33C730.413 1212.63 714.21 1236.09 655.927 1236.09H500.424ZM644.802 1094.13H556.772V1123.39H644.802C660.522 1123.39 664.391 1116.13 664.391 1108.88V1108.4C664.391 1100.9 660.522 1094.13 644.802 1094.13ZM649.639 1161.6H556.772V1196.91H649.639C668.26 1196.91 671.888 1186.51 671.888 1179.25V1178.29C671.888 1170.55 668.26 1161.6 649.639 1161.6Z" fill="white"/>
<path d="M364.578 1238.75H355.872C259.378 1238.75 243.658 1177.32 243.658 1143.46V1056.16H300.249V1140.08C300.249 1163.29 310.648 1192.07 359.741 1192.07C408.109 1192.07 418.75 1163.29 418.75 1140.08V1056.16H475.098V1143.46C475.098 1177.32 456.719 1238.75 364.578 1238.75Z" fill="white"/>
<path d="M121.887 1239.23H105.2C10.8828 1239.23 0 1198.6 0 1174.9V1172.24H58.767C59.4925 1183.13 65.7803 1200.78 112.213 1200.78H115.599C163 1200.78 168.32 1191.35 168.32 1181.68C168.32 1171.28 162.758 1164.75 121.162 1163.54L90.2061 1162.81C22.9747 1160.88 2.41839 1138.14 2.41839 1110.09V1107.91C2.41839 1081.07 18.3798 1053.02 100.363 1053.02H117.05C202.178 1053.02 221.525 1082.76 221.525 1109.85V1112.27H163C161.791 1105.5 158.163 1090.74 111.004 1090.74H107.135C63.6038 1090.74 60.4599 1098.48 60.4599 1106.22C60.4599 1113.96 65.2966 1120.97 102.056 1121.7L132.286 1122.18C200.001 1123.39 227.329 1139.84 227.329 1175.63V1179.01C227.329 1208.76 212.335 1239.23 121.887 1239.23Z" fill="white"/>
<path d="M2597.64 781.625H2570.94C2420.03 781.625 2402.62 716.618 2402.62 678.698V674.442H2496.64C2497.81 691.854 2507.87 720.101 2582.16 720.101H2587.58C2663.42 720.101 2671.93 705.01 2671.93 689.532C2671.93 672.894 2663.03 662.446 2596.48 660.512L2546.95 659.351C2439.38 656.255 2406.49 619.883 2406.49 574.997V571.515C2406.49 528.564 2432.02 483.679 2563.2 483.679H2589.9C2726.1 483.679 2757.06 531.273 2757.06 574.61V578.48H2663.42C2661.48 567.645 2655.68 544.042 2580.22 544.042H2574.03C2504.38 544.042 2499.35 556.424 2499.35 568.806C2499.35 581.188 2507.09 592.41 2565.91 593.571L2614.27 594.344C2722.62 596.279 2766.34 622.591 2766.34 679.859V685.276C2766.34 732.87 2742.35 781.625 2597.64 781.625Z" fill="#BFFF00"/>
<path d="M2113.74 554.102V610.596H2250.33C2276.26 610.596 2286.71 598.214 2286.71 582.349V581.962C2286.71 566.871 2276.65 554.102 2250.33 554.102H2113.74ZM2113.74 674.442V776.595H2023.59V488.709H2255.75C2351.71 488.709 2380.73 521.986 2380.73 563.389V568.032C2380.73 609.435 2346.3 624.913 2327.34 631.104C2356.74 639.617 2381.9 660.125 2381.9 697.271V739.448C2381.9 762.665 2384.6 770.017 2387.31 774.66V776.595H2295.61C2292.9 773.112 2291.35 768.856 2291.35 758.408V725.131C2291.35 689.919 2275.87 674.442 2231.37 674.442H2113.74Z" fill="#BFFF00"/>
<path d="M1678.96 488.709H1982.33V554.102H1767.96V596.666H1977.3V662.446H1767.96V709.653H1986.2V776.595H1678.96V488.709Z" fill="#BFFF00"/>
<path d="M1394.65 776.595H1304.49V488.709H1394.65V608.661L1542.08 488.709H1656.61L1491 620.27L1664.35 776.595H1546.72L1394.65 640.778V776.595Z" fill="#BFFF00"/>
<path d="M1080.11 781.625H1064.24C897.468 781.625 871.543 688.372 871.543 637.295V626.074C871.543 573.836 893.986 483.679 1064.24 483.679H1080.11C1246.88 483.679 1272.8 563.389 1272.8 597.053V601.309H1177.23C1174.91 593.57 1163.3 553.328 1071.98 553.328C985.691 553.328 965.957 592.023 965.957 628.008V632.652C965.957 666.703 988.787 711.588 1072.75 711.588C1166.01 711.588 1175.29 667.09 1177.61 660.512H1273.19V664.768C1273.19 701.141 1244.56 781.625 1080.11 781.625Z" fill="#BFFF00"/>
<path d="M839.175 488.709V776.595H749.018V488.709H839.175Z" fill="#BFFF00"/>
<path d="M501.128 776.595V556.811H377.307V488.709H716.269V556.811H592.06V776.595H501.128Z" fill="#BFFF00"/>
<path d="M197.76 781.625H171.06C20.1527 781.625 2.74023 716.618 2.74023 678.698V674.442H96.7674C97.9282 691.854 107.989 720.101 182.282 720.101H187.699C263.54 720.101 272.053 705.01 272.053 689.532C272.053 672.894 263.153 662.446 196.599 660.512L147.07 659.351C39.4998 656.255 6.60966 619.883 6.60966 574.997V571.515C6.60966 528.564 32.1479 483.679 163.322 483.679H190.021C326.225 483.679 357.18 531.273 357.18 574.61V578.48H263.54C261.605 567.645 255.801 544.042 180.347 544.042H174.156C104.506 544.042 99.476 556.424 99.476 568.806C99.476 581.188 107.215 592.41 166.03 593.571L214.398 594.344C322.742 596.279 366.467 622.591 366.467 679.859V685.276C366.467 732.87 342.476 781.625 197.76 781.625Z" fill="#BFFF00"/>
<path d="M3330.53 292.916V181.476L3176.53 5.03027H3288.35L3377.74 111.053L3468.67 5.03027H3570.44L3420.69 181.476V292.916H3330.53Z" fill="#BFFF00"/>
<path d="M2920.13 70.4236V126.917H3056.72C3082.64 126.917 3093.09 114.535 3093.09 98.6705V98.2835C3093.09 83.1927 3083.03 70.4236 3056.72 70.4236H2920.13ZM2920.13 190.763V292.916H2829.97V5.03027H3062.13C3158.1 5.03027 3187.12 38.3074 3187.12 79.7103V84.3536C3187.12 125.756 3152.68 141.234 3133.72 147.425C3163.13 155.938 3188.28 176.446 3188.28 213.593V255.769C3188.28 278.986 3190.99 286.338 3193.7 290.981V292.916H3101.99C3099.28 289.433 3097.73 285.177 3097.73 274.73V241.452C3097.73 206.241 3082.26 190.763 3037.76 190.763H2920.13Z" fill="#BFFF00"/>
<path d="M2656.64 175.285L2600.92 67.3281L2547.52 175.285H2656.64ZM2717 292.916L2689.92 240.292H2515.41L2489.48 292.916H2397.78L2543.27 5.03027H2660.12L2814.13 292.916H2717Z" fill="#BFFF00"/>
<path d="M2022.45 292.916V5.03027H2213.22C2379.99 5.03027 2416.36 76.6147 2416.36 141.234V152.843C2416.36 214.753 2381.92 292.916 2213.6 292.916H2022.45ZM2112.61 73.1322V223.653H2206.25C2308.4 223.653 2321.95 178.768 2321.95 149.36V147.038C2321.95 117.631 2309.95 73.1322 2206.25 73.1322H2112.61Z" fill="#BFFF00"/>
<path d="M1604.9 5.03027H1705.51L1889.31 186.12V5.03027H1978.3V292.916H1889.31L1693.9 102.153V292.916H1604.9V5.03027Z" fill="#BFFF00"/>
<path d="M1353.55 0H1370.19C1551.28 0 1572.56 90.9316 1572.56 142.395V154.003C1572.56 204.693 1551.66 297.946 1370.19 297.946H1353.55C1171.3 297.946 1150.79 204.693 1150.79 154.003V142.395C1150.79 90.9316 1171.3 0 1353.55 0ZM1478.14 150.521V145.104C1478.14 112.213 1459.18 69.6497 1361.68 69.6497C1262.62 69.6497 1245.21 112.213 1245.21 145.104V149.747C1245.21 182.637 1264.17 227.909 1361.68 227.909C1458.41 227.909 1478.14 183.798 1478.14 150.521Z" fill="#BFFF00"/>
<path d="M938.025 297.946H922.161C755.388 297.946 729.463 204.693 729.463 153.616V142.395C729.463 90.1577 751.906 0 922.161 0H938.025C1104.8 0 1130.72 79.7103 1130.72 113.374V117.631H1035.15C1032.83 109.892 1021.22 69.6497 929.899 69.6497C843.611 69.6497 823.877 108.344 823.877 144.33V148.973C823.877 183.024 846.707 227.909 930.673 227.909C1023.93 227.909 1033.21 183.411 1035.53 176.833H1131.11V181.089C1131.11 217.462 1102.48 297.946 938.025 297.946Z" fill="#BFFF00"/>
<path d="M397.217 5.03027H700.58V70.4236H486.214V112.987H695.55V178.768H486.214V225.975H704.45V292.916H397.217V5.03027Z" fill="#BFFF00"/>
<path d="M197.76 297.946H171.06C20.1527 297.946 2.74023 232.94 2.74023 195.019V190.763H96.7674C97.9282 208.175 107.989 236.422 182.282 236.422H187.699C263.54 236.422 272.053 221.331 272.053 205.854C272.053 189.215 263.153 178.768 196.599 176.833L147.07 175.672C39.4998 172.577 6.60966 136.204 6.60966 91.3186V87.8361C6.60966 44.8854 32.1479 0 163.322 0H190.021C326.225 0 357.18 47.594 357.18 90.9316V94.801H263.54C261.605 83.9666 255.801 60.3631 180.347 60.3631H174.156C104.506 60.3631 99.476 72.7453 99.476 85.1275C99.476 97.5097 107.215 108.731 166.03 109.892L214.398 110.666C322.742 112.6 366.467 138.913 366.467 196.18V201.597C366.467 249.191 342.476 297.946 197.76 297.946Z" fill="#BFFF00"/>
</svg>
