<svg width="3386" height="1093" viewBox="0 0 3386 1093" fill="none" xmlns="http://www.w3.org/2000/svg">
<path d="M3165.51 1090.06V977.775H3102.25V942.981H3275.43V977.775H3211.97V1090.06H3165.51Z" fill="#BFFF00"/>
<path d="M2996.62 1092.63H2988.52C2903.31 1092.63 2890.07 1044.99 2890.07 1018.9V1013.16C2890.07 986.476 2901.53 940.414 2988.52 940.414H2996.62C3081.82 940.414 3095.07 981.138 3095.07 998.337V1000.51H3046.24C3045.05 996.558 3039.12 975.998 2992.47 975.998C2948.38 975.998 2938.3 995.767 2938.3 1014.15V1016.52C2938.3 1033.92 2949.97 1056.85 2992.86 1056.85C3040.51 1056.85 3045.25 1034.12 3046.44 1030.76H3095.27V1032.93C3095.27 1051.52 3080.64 1092.63 2996.62 1092.63Z" fill="#BFFF00"/>
<path d="M2819.22 1029.96L2790.76 974.809L2763.48 1029.96H2819.22ZM2850.06 1090.06L2836.23 1063.18H2747.07L2733.82 1090.06H2686.97L2761.3 942.981H2821L2899.68 1090.06H2850.06Z" fill="#BFFF00"/>
<path d="M2548.71 942.981H2700.73V976.391H2594.57V998.137H2698.16V1031.74H2594.57V1090.06H2548.71V942.981Z" fill="#BFFF00"/>
<path d="M2526.23 942.981V1090.06H2480.17V942.981H2526.23Z" fill="#BFFF00"/>
<path d="M2353.52 1090.06V977.775H2290.26V942.981H2463.44V977.775H2399.98V1090.06H2353.52Z" fill="#BFFF00"/>
<path d="M2142.82 976.391V1005.25H2212.61C2225.85 1005.25 2231.19 998.927 2231.19 990.822V990.625C2231.19 982.915 2226.05 976.391 2212.61 976.391H2142.82ZM2142.82 1037.87V1090.06H2096.76V942.981H2215.38C2264.4 942.981 2279.23 959.983 2279.23 981.135V983.508C2279.23 1004.66 2261.63 1012.57 2251.95 1015.73C2266.97 1020.08 2279.82 1030.56 2279.82 1049.54V1071.08C2279.82 1082.95 2281.21 1086.7 2282.59 1089.07V1090.06H2235.74C2234.35 1088.28 2233.56 1086.11 2233.56 1080.77V1063.77C2233.56 1045.78 2225.66 1037.87 2202.92 1037.87H2142.82Z" fill="#BFFF00"/>
<path d="M2008.2 1029.96L1979.73 974.809L1952.45 1029.96H2008.2ZM2039.04 1090.06L2025.2 1063.18H1936.04L1922.8 1090.06H1875.94L1950.27 942.981H2009.98L2088.66 1090.06H2039.04Z" fill="#BFFF00"/>
<path d="M1700.16 1090.06V1033.13L1621.48 942.981H1678.61L1724.28 997.148L1770.73 942.981H1822.72L1746.22 1033.13V1090.06H1700.16Z" fill="#BFFF00"/>
<path d="M1490.49 976.391V1005.25H1560.27C1573.52 1005.25 1578.85 998.927 1578.85 990.822V990.625C1578.85 982.915 1573.71 976.391 1560.27 976.391H1490.49ZM1490.49 1037.87V1090.06H1444.43V942.981H1563.04C1612.07 942.981 1626.89 959.983 1626.89 981.135V983.508C1626.89 1004.66 1609.3 1012.57 1599.61 1015.73C1614.64 1020.08 1627.49 1030.56 1627.49 1049.54V1071.08C1627.49 1082.95 1628.87 1086.7 1630.25 1089.07V1090.06H1583.4C1582.02 1088.28 1581.23 1086.11 1581.23 1080.77V1063.77C1581.23 1045.78 1573.32 1037.87 1550.58 1037.87H1490.49Z" fill="#BFFF00"/>
<path d="M1355.86 1029.96L1327.39 974.809L1300.11 1029.96H1355.86ZM1386.7 1090.06L1372.86 1063.18H1283.7L1270.46 1090.06H1223.61L1297.94 942.981H1357.64L1436.32 1090.06H1386.7Z" fill="#BFFF00"/>
<path d="M1031.87 1090.06V942.981H1129.33C1214.53 942.981 1233.11 979.554 1233.11 1012.57V1018.5C1233.11 1050.13 1215.52 1090.06 1129.52 1090.06H1031.87ZM1077.93 977.775V1054.68H1125.77C1177.96 1054.68 1184.88 1031.74 1184.88 1016.72V1015.53C1184.88 1000.51 1178.75 977.775 1125.77 977.775H1077.93Z" fill="#BFFF00"/>
<path d="M818.537 942.981H869.936L963.839 1035.5V942.981H1009.31V1090.06H963.839L864.006 992.601V1090.06H818.537V942.981Z" fill="#BFFF00"/>
<path d="M690.113 940.414H698.613C791.132 940.414 802.005 986.871 802.005 1013.16V1019.09C802.005 1044.99 791.329 1092.63 698.613 1092.63H690.113C597.001 1092.63 586.523 1044.99 586.523 1019.09V1013.16C586.523 986.871 597.001 940.414 690.113 940.414ZM753.769 1017.32V1014.55C753.769 997.744 744.082 975.998 694.264 975.998C643.656 975.998 634.76 997.744 634.76 1014.55V1016.92C634.76 1033.72 644.446 1056.85 694.264 1056.85C743.686 1056.85 753.769 1034.32 753.769 1017.32Z" fill="#BFFF00"/>
<path d="M477.82 1092.63H469.715C384.511 1092.63 371.266 1044.99 371.266 1018.9V1013.16C371.266 986.476 382.732 940.414 469.715 940.414H477.82C563.024 940.414 576.269 981.138 576.269 998.337V1000.51H527.44C526.254 996.558 520.323 975.998 473.669 975.998C429.584 975.998 419.502 995.767 419.502 1014.15V1016.52C419.502 1033.92 431.165 1056.85 474.064 1056.85C521.707 1056.85 526.452 1034.12 527.638 1030.76H576.467V1032.93C576.467 1051.52 561.838 1092.63 477.82 1092.63Z" fill="#BFFF00"/>
<path d="M201.531 942.981H356.52V976.391H247V998.137H353.95V1031.74H247V1055.86H358.497V1090.06H201.531V942.981Z" fill="#BFFF00"/>
<path d="M99.6354 1092.63H85.9948C8.89602 1092.63 0 1059.42 0 1040.05V1037.87H48.0385C48.6316 1046.77 53.7715 1061.2 91.7278 1061.2H94.4955C133.243 1061.2 137.592 1053.49 137.592 1045.58C137.592 1037.08 133.045 1031.75 99.0423 1030.76L73.7381 1030.17C18.7805 1028.58 1.97689 1010 1.97689 987.069V985.29C1.97689 963.346 15.0244 940.414 82.041 940.414H95.6816C165.268 940.414 181.083 964.73 181.083 986.871V988.848H133.243C132.254 983.313 129.289 971.254 90.7394 971.254H87.5763C51.9923 971.254 49.4223 977.58 49.4223 983.906C49.4223 990.232 53.3761 995.965 83.4249 996.558L108.136 996.953C163.489 997.942 185.828 1011.38 185.828 1040.64V1043.41C185.828 1067.73 173.571 1092.63 99.6354 1092.63Z" fill="#BFFF00"/>
<path d="M1192.16 400.523H1502.13V467.342H1283.1V510.834H1497V578.048H1283.1V626.285H1506.09V694.685H1192.16V400.523Z" fill="#BFFF00"/>
<path d="M941.46 699.82H933.157C773.819 699.82 737.049 610.86 737.049 551.949V540.878C737.049 483.548 767.098 395.379 936.32 395.379H953.321C1117.8 395.379 1146.66 466.942 1148.24 506.876V507.271H1050.19C1047.82 500.55 1037.14 465.361 945.413 465.361C855.662 465.361 833.521 504.108 833.521 544.832V549.181C833.521 587.533 863.57 628.257 944.623 628.257C1032 628.257 1058.49 594.65 1058.49 586.347V585.556H943.041V529.808H1150.22V694.68H1094.87C1093.68 684.005 1088.14 661.073 1083.01 648.817C1070.35 663.446 1032.4 699.82 941.46 699.82Z" fill="#BFFF00"/>
<path d="M595.348 574.49L538.414 464.179L483.851 574.49H595.348ZM657.027 694.685L629.351 640.914H451.035L424.545 694.685H330.84L479.502 400.523H598.907L756.267 694.685H657.027Z" fill="#BFFF00"/>
<path d="M239.387 596.631H110.889V694.685H18.7656V400.523H239.387C345.348 400.523 376.583 442.434 376.583 496.205V500.159C376.583 552.744 344.558 596.631 239.387 596.631ZM110.889 467.342V530.603H237.805C266.668 530.603 280.506 519.928 280.506 499.763V498.577C280.506 478.413 267.459 467.342 237.805 467.342H110.889Z" fill="#BFFF00"/>
<path d="M2925.03 299.306V5.14453H3055.9L3157.51 188.205L3259.52 5.14453H3385.65V299.306H3294.71V95.6862L3178.86 299.306H3129.44L3013.59 95.6862V299.306H2925.03Z" fill="#BFFF00"/>
<path d="M2747.92 179.111L2690.99 68.8005L2636.43 179.111H2747.92ZM2809.6 299.306L2781.92 245.535H2603.61L2577.12 299.306H2483.41L2632.08 5.14453H2751.48L2908.84 299.306H2809.6Z" fill="#BFFF00"/>
<path d="M2198.21 71.9635V129.689H2337.78C2364.27 129.689 2374.94 117.037 2374.94 100.826V100.431C2374.94 85.011 2364.66 71.9635 2337.78 71.9635H2198.21ZM2198.21 194.926V299.306H2106.09V5.14453H2343.31C2441.37 5.14453 2471.02 39.1471 2471.02 81.4526V86.1971C2471.02 128.503 2435.83 144.318 2416.46 150.644C2446.51 159.342 2472.21 180.297 2472.21 218.254V261.35C2472.21 285.073 2474.97 292.585 2477.74 297.329V299.306H2384.04C2381.27 295.748 2379.69 291.399 2379.69 280.723V246.721C2379.69 210.741 2363.87 194.926 2318.4 194.926H2198.21Z" fill="#BFFF00"/>
<path d="M1855.39 304.441H1847.08C1687.75 304.441 1650.98 215.481 1650.98 156.57V145.499C1650.98 88.1694 1681.03 0 1850.25 0H1867.25C2031.73 0 2060.59 71.5635 2062.17 111.497V111.892H1964.12C1961.74 105.171 1951.07 69.982 1859.34 69.982C1769.59 69.982 1747.45 108.729 1747.45 149.453V153.802C1747.45 192.154 1777.5 232.878 1858.55 232.878C1945.93 232.878 1972.42 199.271 1972.42 190.968V190.177H1856.97V134.429H2064.15V299.302H2008.79C2007.61 288.626 2002.07 265.694 1996.93 253.438C1984.28 268.067 1946.32 304.441 1855.39 304.441Z" fill="#BFFF00"/>
<path d="M1509.28 179.111L1452.34 68.8005L1397.78 179.111H1509.28ZM1570.95 299.306L1543.28 245.535H1364.96L1338.47 299.306H1244.77L1393.43 5.14453H1512.83L1670.19 299.306H1570.95Z" fill="#BFFF00"/>
<path d="M1076.7 299.306V74.7311H950.182V5.14453H1296.53V74.7311H1169.62V299.306H1076.7Z" fill="#BFFF00"/>
<path d="M766.74 304.441H739.458C585.261 304.441 567.469 238.018 567.469 199.271V194.922H663.546C664.732 212.714 675.012 241.576 750.924 241.576H756.46C833.954 241.576 842.652 226.157 842.652 210.341C842.652 193.34 833.559 182.665 765.553 180.688L714.945 179.502C605.03 176.339 571.423 139.173 571.423 93.3093V89.7509C571.423 45.8639 597.518 0 731.551 0H758.832C898.005 0 929.636 48.6316 929.636 92.914V96.8677H833.954C831.977 85.7971 826.046 61.6791 748.948 61.6791H742.621C671.453 61.6791 666.313 74.3312 666.313 86.9833C666.313 99.6354 674.221 111.101 734.319 112.288L783.741 113.078C894.447 115.055 939.125 141.941 939.125 200.457V205.992C939.125 254.624 914.611 304.441 766.74 304.441Z" fill="#BFFF00"/>
<path d="M155.834 5.14453H258.632L446.437 190.182V5.14453H537.374V299.306H446.437L246.771 104.385V299.306H155.834V5.14453Z" fill="#BFFF00"/>
<path d="M110.889 5.14453V299.306H18.7656V5.14453H110.889Z" fill="#BFFF00"/>
</svg>
