<svg width="2327" height="619" viewBox="0 0 2327 619" fill="none" xmlns="http://www.w3.org/2000/svg">
<rect x="261" y="294" width="312.569" height="203.738" fill="#4B2991"/>
<rect y="362" width="313" height="196" fill="#4B2991"/>
<rect x="157" y="192" width="312.569" height="203.738" fill="#4B2991"/>
<rect x="299" y="28" width="322" height="204" fill="#4B2991"/>
<rect x="549" y="323" width="322" height="204" fill="#4B2991"/>
<rect x="388" y="265" width="294" height="204" fill="#4B2991"/>
<rect x="770" y="410" width="322" height="204" fill="#4B2991"/>
<rect x="682" y="144" width="322" height="237" fill="#4B2991"/>
<rect x="1041" y="172" width="322" height="209" fill="#4B2991"/>
<rect x="1452" y="114" width="322" height="209" fill="#4B2991"/>
<rect x="1575" y="323" width="322" height="209" fill="#4B2991"/>
<rect x="1312" y="410" width="322" height="209" fill="#4B2991"/>
<rect x="1811" y="232" width="322" height="209" fill="#4B2991"/>
<rect x="1950" y="96" width="322" height="209" fill="#4B2991"/>
<rect x="2005" y="367" width="322" height="209" fill="#4B2991"/>
<rect x="825" y="279" width="322" height="204" fill="#4B2991"/>
<rect x="1202" y="28" width="322" height="204" fill="#4B2991"/>
<rect width="299" height="192" fill="#4B2991"/>
</svg>
