<svg width="1148" height="431" viewBox="0 0 1148 431" fill="none" xmlns="http://www.w3.org/2000/svg">
<path d="M705.989 430.34H700.194C667.441 430.34 663.662 416.231 663.662 408.001V407.077H684.07C684.322 410.856 686.505 416.987 702.63 416.987H703.805C720.266 416.987 722.113 413.711 722.113 410.352C722.113 406.741 720.182 404.473 705.737 404.054L694.987 403.802C671.64 403.13 664.502 395.235 664.502 385.494V384.738C664.502 375.416 670.045 365.674 698.515 365.674H704.309C733.871 365.674 740.589 376.004 740.589 385.41V386.249H720.266C719.846 383.898 718.586 378.775 702.21 378.775H700.866C685.749 378.775 684.658 381.462 684.658 384.15C684.658 386.837 686.337 389.273 699.102 389.525L709.6 389.693C733.115 390.113 742.605 395.823 742.605 408.253V409.428C742.605 419.758 737.398 430.34 705.989 430.34Z" fill="white"/>
<path d="M613.296 429.247V381.545H586.422V366.765H659.99V381.545H633.032V429.247H613.296Z" fill="white"/>
<path d="M498.15 429.247V366.765H517.718V389.524H559.709V366.765H579.277V429.247H559.709V404.64H517.718V429.247H498.15Z" fill="white"/>
<path d="M444.891 430.34H443.128C409.283 430.34 401.473 411.444 401.473 398.931V396.579C401.473 384.402 407.855 365.674 443.8 365.674H447.411C482.347 365.674 488.478 380.875 488.814 389.357V389.441H467.986C467.482 388.013 465.215 380.539 445.731 380.539C426.667 380.539 421.964 388.769 421.964 397.419V398.343C421.964 406.489 428.347 415.139 445.563 415.139C464.123 415.139 469.75 408.001 469.75 406.237V406.069H445.227V394.228H489.234V429.248H477.476C477.224 426.981 476.049 422.11 474.957 419.506C472.269 422.614 464.207 430.34 444.891 430.34Z" fill="white"/>
<path d="M394.453 366.765V429.247H374.885V366.765H394.453Z" fill="white"/>
<path d="M304.68 366.765H324.247V413.711H367.666V429.247H304.68V366.765Z" fill="white"/>
<path d="M213.973 429.247V366.765H233.54V389.524H275.531V366.765H295.099V429.247H275.531V404.64H233.54V429.247H213.973Z" fill="white"/>
<path d="M160.714 430.34H158.95C125.105 430.34 117.295 411.444 117.295 398.931V396.579C117.295 384.402 123.678 365.674 159.622 365.674H163.233C198.169 365.674 204.3 380.875 204.636 389.357V389.441H183.809C183.305 388.013 181.037 380.539 161.553 380.539C142.489 380.539 137.787 388.769 137.787 397.419V398.343C137.787 406.489 144.169 415.139 161.385 415.139C179.945 415.139 185.572 408.001 185.572 406.237V406.069H161.049V394.228H205.056V429.248H193.299C193.047 426.981 191.871 422.11 190.779 419.506C188.092 422.614 180.029 430.34 160.714 430.34Z" fill="white"/>
<path d="M110.275 366.765V429.247H90.707V366.765H110.275Z" fill="white"/>
<path d="M0 429.247V366.765H19.5678V389.524H61.5587V366.765H81.1265V429.247H61.5587V404.64H19.5678V429.247H0Z" fill="white"/>
<path d="M401.652 169.711H506.999V192.42H432.558V207.2H505.252V230.044H432.558V246.437H508.343V269.683H401.652V169.711Z" fill="#BFFF00"/>
<path d="M316.446 271.43H313.625C259.473 271.43 246.977 241.196 246.977 221.175V217.412C246.977 197.929 257.189 167.964 314.7 167.964H320.477C376.376 167.964 386.185 192.285 386.722 205.856V205.991H353.398C352.592 203.707 348.964 191.748 317.79 191.748C287.288 191.748 279.763 204.916 279.763 218.756V220.234C279.763 233.268 289.975 247.108 317.521 247.108C347.217 247.108 356.22 235.687 356.22 232.865V232.596H316.984V213.65H387.394V269.683H368.582C368.179 266.055 366.298 258.261 364.551 254.096C360.251 259.067 347.352 271.43 316.446 271.43Z" fill="#BFFF00"/>
<path d="M198.824 228.834L179.474 191.345L160.931 228.834H198.824ZM219.786 269.683L210.38 251.409H149.778L140.776 269.683H108.93L159.453 169.711H200.033L253.513 269.683H219.786Z" fill="#BFFF00"/>
<path d="M77.8501 236.359H34.1795V269.683H2.87109V169.711H77.8501C113.862 169.711 124.477 183.954 124.477 202.229V203.572C124.477 221.444 113.593 236.359 77.8501 236.359ZM34.1795 192.42V213.919H77.3126C87.1217 213.919 91.8247 210.291 91.8247 203.438V203.035C91.8247 196.182 87.3905 192.42 77.3126 192.42H34.1795Z" fill="#BFFF00"/>
<path d="M990.576 101.719V1.74707H1035.05L1069.59 63.9608L1104.25 1.74707H1147.12V101.719H1116.21V32.518L1076.84 101.719H1060.05L1020.68 32.518V101.719H990.576Z" fill="#BFFF00"/>
<path d="M930.386 60.8703L911.037 23.3808L892.494 60.8703H930.386ZM951.348 101.719L941.942 83.4446H881.341L872.338 101.719H840.492L891.016 1.74707H931.596L985.075 101.719H951.348Z" fill="#BFFF00"/>
<path d="M743.562 24.4558V44.0739H790.995C799.998 44.0739 803.626 39.7741 803.626 34.2649V34.1305C803.626 28.89 800.133 24.4558 790.995 24.4558H743.562ZM743.562 66.2452V101.719H712.254V1.74707H792.876C826.2 1.74707 836.278 13.303 836.278 27.6807V29.2931C836.278 43.6708 824.319 49.0457 817.735 51.1956C827.947 54.1518 836.681 61.2734 836.681 74.173V88.8195C836.681 96.8817 837.622 99.4348 838.563 101.047V101.719H806.717C805.776 100.51 805.239 99.0317 805.239 95.4037V83.8478C805.239 71.62 799.864 66.2452 784.411 66.2452H743.562Z" fill="#BFFF00"/>
<path d="M627.048 103.466H624.226C570.075 103.466 557.578 73.2322 557.578 53.2109V49.4485C557.578 29.9647 567.79 0 625.301 0H631.079C686.977 0 696.786 24.3211 697.324 37.8926V38.027H664C663.194 35.7427 659.566 23.7837 628.392 23.7837C597.889 23.7837 590.365 36.952 590.365 50.7922V52.2703C590.365 65.3043 600.577 79.1445 628.123 79.1445C657.819 79.1445 666.822 67.723 666.822 64.9012V64.6324H627.585V45.6861H697.996V101.719H679.184C678.781 98.0908 676.9 90.2973 675.153 86.1318C670.853 91.1035 657.953 103.466 627.048 103.466Z" fill="#BFFF00"/>
<path d="M509.425 60.8703L490.076 23.3808L471.533 60.8703H509.425ZM530.387 101.719L520.981 83.4446H460.38L451.377 101.719H419.531L470.055 1.74707H510.635L564.114 101.719H530.387Z" fill="#BFFF00"/>
<path d="M362.417 101.719V25.3964H319.418V1.74707H437.127V25.3964H393.994V101.719H362.417Z" fill="#BFFF00"/>
<path d="M257.067 103.466H247.795C195.39 103.466 189.344 80.8913 189.344 67.723V66.2449H221.996C222.399 72.2916 225.893 82.1007 251.692 82.1007H253.573C279.91 82.1007 282.866 76.8602 282.866 71.4854C282.866 65.7074 279.775 62.0794 256.664 61.4075L239.464 61.0044C202.109 59.9295 190.687 47.2986 190.687 31.7116V30.5022C190.687 15.587 199.556 0 245.108 0H254.379C301.678 0 312.428 16.5276 312.428 31.5772V32.9209H279.91C279.238 29.1585 277.222 20.9619 251.02 20.9619H248.87C224.683 20.9619 222.936 25.2617 222.936 29.5616C222.936 33.8615 225.624 37.7582 246.048 38.1614L262.845 38.4301C300.469 39.102 315.652 48.2392 315.652 68.1261V70.0073C315.652 86.5349 307.321 103.466 257.067 103.466Z" fill="#BFFF00"/>
<path d="M49.4551 1.74707H84.3915L148.218 64.6327V1.74707H179.123V101.719H148.218L80.3604 35.4742V101.719H49.4551V1.74707Z" fill="#BFFF00"/>
<path d="M34.1795 1.74707V101.719H2.87109V1.74707H34.1795Z" fill="#BFFF00"/>
</svg>
