<svg width="274" height="103" viewBox="0 0 274 103" fill="none" xmlns="http://www.w3.org/2000/svg">
<path d="M8.13938 0.415632V24.2236H0.683375V0.415632H8.13938ZM11.7771 0.415632H20.0971L35.2971 15.3916V0.415632H42.6571V24.2236H35.2971L19.1371 8.44763V24.2236H11.7771V0.415632ZM61.2204 24.6396H59.0124C46.5324 24.6396 45.0924 19.2636 45.0924 16.1276V15.7756H52.8684C52.9644 17.2156 53.7964 19.5516 59.9404 19.5516H60.3884C66.6604 19.5516 67.3644 18.3036 67.3644 17.0236C67.3644 15.6476 66.6284 14.7836 61.1244 14.6236L57.0284 14.5276C48.1324 14.2716 45.4124 11.2636 45.4124 7.55163V7.26363C45.4124 3.71163 47.5244 -0.000368118 58.3724 -0.000368118H60.5804C71.8444 -0.000368118 74.4044 3.93563 74.4044 7.51963V7.83963H66.6604C66.5004 6.94363 66.0204 4.99163 59.7804 4.99163H59.2684C53.5084 4.99163 53.0924 6.01563 53.0924 7.03963C53.0924 8.06363 53.7324 8.99163 58.5964 9.08763L62.5964 9.15163C71.5564 9.31163 75.1724 11.4876 75.1724 16.2236V16.6716C75.1724 20.6076 73.1884 24.6396 61.2204 24.6396ZM86.3079 24.2236V6.04763H76.0679V0.415632H104.1V6.04763H93.8279V24.2236H86.3079ZM121.318 14.4956L116.71 5.56763L112.294 14.4956H121.318ZM126.31 24.2236L124.07 19.8716H109.638L107.494 24.2236H99.9099L111.942 0.415632H121.606L134.342 24.2236H126.31ZM149.33 24.6396H148.658C135.762 24.6396 132.786 17.4396 132.786 12.6716V11.7756C132.786 7.13563 135.218 -0.000368118 148.914 -0.000368118H150.29C163.602 -0.000368118 165.938 5.79163 166.066 9.02363V9.05563H158.13C157.938 8.51163 157.074 5.66363 149.65 5.66363C142.386 5.66363 140.594 8.79963 140.594 12.0956V12.4476C140.594 15.5516 143.026 18.8476 149.586 18.8476C156.658 18.8476 158.802 16.1276 158.802 15.4556V15.3916H149.458V10.8796H166.226V24.2236H161.746C161.65 23.3596 161.202 21.5036 160.786 20.5116C159.762 21.6956 156.69 24.6396 149.33 24.6396ZM177.077 5.82363V10.4956H188.373C190.517 10.4956 191.381 9.47163 191.381 8.15963V8.12763C191.381 6.87963 190.549 5.82363 188.373 5.82363H177.077ZM177.077 15.7756V24.2236H169.621V0.415632H188.821C196.757 0.415632 199.157 3.16763 199.157 6.59163V6.97563C199.157 10.3996 196.309 11.6796 194.741 12.1916C197.173 12.8956 199.253 14.5916 199.253 17.6636V21.1516C199.253 23.0716 199.477 23.6796 199.701 24.0636V24.2236H192.117C191.893 23.9356 191.765 23.5836 191.765 22.7196V19.9676C191.765 17.0556 190.485 15.7756 186.805 15.7756H177.077ZM221.568 14.4956L216.96 5.56763L212.544 14.4956H221.568ZM226.56 24.2236L224.32 19.8716H209.888L207.744 24.2236H200.16L212.192 0.415632H221.856L234.592 24.2236H226.56ZM235.902 24.2236V0.415632H246.494L254.718 15.2316L262.974 0.415632H273.182V24.2236H265.822V7.74363L256.446 24.2236H252.446L243.07 7.74363V24.2236H235.902ZM18.5394 56.2876H8.13938V64.2236H0.683375V40.4156H18.5394C27.1154 40.4156 29.6434 43.8076 29.6434 48.1596V48.4796C29.6434 52.7356 27.0514 56.2876 18.5394 56.2876ZM8.13938 45.8236V50.9436H18.4114C20.7474 50.9436 21.8674 50.0796 21.8674 48.4476V48.3516C21.8674 46.7196 20.8114 45.8236 18.4114 45.8236H8.13938ZM47.3491 54.4956L42.7411 45.5676L38.3251 54.4956H47.3491ZM52.3411 64.2236L50.1011 59.8716H35.6691L33.5251 64.2236H25.9411L37.9731 40.4156H47.6371L60.3731 64.2236H52.3411ZM75.3611 64.6396H74.6891C61.7931 64.6396 58.8171 57.4396 58.8171 52.6716V51.7756C58.8171 47.1356 61.2491 39.9996 74.9451 39.9996H76.3211C89.6331 39.9996 91.9691 45.7916 92.0971 49.0236V49.0556H84.1611C83.9691 48.5116 83.1051 45.6636 75.6811 45.6636C68.4171 45.6636 66.6251 48.7996 66.6251 52.0956V52.4476C66.6251 55.5516 69.0571 58.8476 75.6171 58.8476C82.6891 58.8476 84.8331 56.1276 84.8331 55.4556V55.3916H75.4891V50.8796H92.2571V64.2236H87.7771C87.6811 63.3596 87.2331 61.5036 86.8171 60.5116C85.7931 61.6956 82.7211 64.6396 75.3611 64.6396ZM95.6521 40.4156H120.74V45.8236H103.012V49.3436H120.324V54.7836H103.012V58.6876H121.06V64.2236H95.6521V40.4156Z" fill="#BFFF00"/>
<path d="M11.1594 97.2636H4.65938V102.224H-0.000624925V87.3436H11.1594C16.5194 87.3436 18.0994 89.4636 18.0994 92.1836V92.3836C18.0994 95.0436 16.4794 97.2636 11.1594 97.2636ZM4.65938 90.7236V93.9236H11.0794C12.5394 93.9236 13.2394 93.3836 13.2394 92.3636V92.3036C13.2394 91.2836 12.5794 90.7236 11.0794 90.7236H4.65938ZM24.3078 87.3436V102.224H19.6478V87.3436H24.3078ZM26.5814 87.3436H31.7814L41.2814 96.7036V87.3436H45.8814V102.224H41.2814L31.1814 92.3636V102.224H26.5814V87.3436ZM48.1634 87.3436H53.3634L62.8634 96.7036V87.3436H67.4634V102.224H62.8634L52.7634 92.3636V102.224H48.1634V87.3436ZM69.7455 87.3436H85.4255V90.7236H74.3455V92.9236H85.1655V96.3236H74.3455V98.7636H85.6255V102.224H69.7455V87.3436ZM87.558 102.224V87.3436H97.418C106.038 87.3436 107.918 91.0436 107.918 94.3836V94.9836C107.918 98.1836 106.138 102.224 97.438 102.224H87.558ZM92.218 90.8636V98.6436H97.058C102.338 98.6436 103.038 96.3236 103.038 94.8036V94.6836C103.038 93.1636 102.418 90.8636 97.058 90.8636H92.218ZM126.823 97.2636H120.323V102.224H115.663V87.3436H126.823C132.183 87.3436 133.763 89.4636 133.763 92.1836V92.3836C133.763 95.0436 132.143 97.2636 126.823 97.2636ZM120.323 90.7236V93.9236H126.743C128.203 93.9236 128.903 93.3836 128.903 92.3636V92.3036C128.903 91.2836 128.243 90.7236 126.743 90.7236H120.323ZM145.192 87.0836H146.052C155.412 87.0836 156.512 91.7836 156.512 94.4436V95.0436C156.512 97.6636 155.432 102.484 146.052 102.484H145.192C135.772 102.484 134.712 97.6636 134.712 95.0436V94.4436C134.712 91.7836 135.772 87.0836 145.192 87.0836ZM151.632 94.8636V94.5836C151.632 92.8836 150.652 90.6836 145.612 90.6836C140.492 90.6836 139.592 92.8836 139.592 94.5836V94.8236C139.592 96.5236 140.572 98.8636 145.612 98.8636C150.612 98.8636 151.632 96.5836 151.632 94.8636ZM167.503 102.484H166.123C158.323 102.484 157.423 99.1236 157.423 97.1636V96.9436H162.283C162.343 97.8436 162.863 99.3036 166.703 99.3036H166.983C170.903 99.3036 171.343 98.5236 171.343 97.7236C171.343 96.8636 170.883 96.3236 167.443 96.2236L164.883 96.1636C159.323 96.0036 157.623 94.1236 157.623 91.8036V91.6236C157.623 89.4036 158.943 87.0836 165.723 87.0836H167.103C174.143 87.0836 175.743 89.5436 175.743 91.7836V91.9836H170.903C170.803 91.4236 170.503 90.2036 166.603 90.2036H166.283C162.683 90.2036 162.423 90.8436 162.423 91.4836C162.423 92.1236 162.823 92.7036 165.863 92.7636L168.363 92.8036C173.963 92.9036 176.223 94.2636 176.223 97.2236V97.5036C176.223 99.9636 174.983 102.484 167.503 102.484ZM183.183 102.224V90.8636H176.783V87.3436H194.303V90.8636H187.883V102.224H183.183ZM205.257 102.484H203.877C196.077 102.484 195.177 99.1236 195.177 97.1636V96.9436H200.037C200.097 97.8436 200.617 99.3036 204.457 99.3036H204.737C208.657 99.3036 209.097 98.5236 209.097 97.7236C209.097 96.8636 208.637 96.3236 205.197 96.2236L202.637 96.1636C197.077 96.0036 195.377 94.1236 195.377 91.8036V91.6236C195.377 89.4036 196.697 87.0836 203.477 87.0836H204.857C211.897 87.0836 213.497 89.5436 213.497 91.7836V91.9836H208.657C208.557 91.4236 208.257 90.2036 204.357 90.2036H204.037C200.437 90.2036 200.177 90.8436 200.177 91.4836C200.177 92.1236 200.577 92.7036 203.617 92.7636L206.117 92.8036C211.717 92.9036 213.977 94.2636 213.977 97.2236V97.5036C213.977 99.9636 212.737 102.484 205.257 102.484Z" fill="white"/>
</svg>
