<svg width="1452" height="545" viewBox="0 0 1452 545" fill="none" xmlns="http://www.w3.org/2000/svg">
<path d="M1188.44 464.003H1216.06L1266.53 513.727V464.003H1290.97V543.051H1266.53L1212.87 490.671V543.051H1188.44V464.003Z" fill="white"/>
<path d="M1119.42 462.623H1123.98C1173.71 462.623 1179.55 487.591 1179.55 501.722V504.91C1179.55 518.828 1173.81 544.434 1123.98 544.434H1119.42C1069.37 544.434 1063.74 518.828 1063.74 504.91V501.722C1063.74 487.591 1069.37 462.623 1119.42 462.623ZM1153.63 503.953V502.466C1153.63 493.435 1148.42 481.748 1121.65 481.748C1094.45 481.748 1089.67 493.435 1089.67 502.466V503.741C1089.67 512.772 1094.87 525.203 1121.65 525.203C1148.21 525.203 1153.63 513.091 1153.63 503.953Z" fill="white"/>
<path d="M1054.86 464.003V543.051H1030.1V464.003H1054.86Z" fill="white"/>
<path d="M962.036 543.051V482.702H928.037V464.003H1021.11V482.702H987.005V543.051H962.036Z" fill="white"/>
<path d="M865.312 462.623H869.881C919.605 462.623 925.449 487.591 925.449 501.722V504.91C925.449 518.828 919.711 544.434 869.881 544.434H865.312C815.27 544.434 809.639 518.828 809.639 504.91V501.722C809.639 487.591 815.27 462.623 865.312 462.623ZM899.524 503.953V502.466C899.524 493.435 894.318 481.748 867.544 481.748C840.344 481.748 835.563 493.435 835.563 502.466V503.741C835.563 512.772 840.769 525.203 867.544 525.203C894.106 525.203 899.524 513.091 899.524 503.953Z" fill="white"/>
<path d="M676.914 543.051V464.003H712.082L739.388 513.196L766.799 464.003H800.692V543.051H776.255V488.334L745.125 543.051H731.844L700.713 488.334V543.051H676.914Z" fill="white"/>
<path d="M607.89 462.623H612.459C662.183 462.623 668.027 487.591 668.027 501.722V504.91C668.027 518.828 662.289 544.434 612.459 544.434H607.89C557.848 544.434 552.217 518.828 552.217 504.91V501.722C552.217 487.591 557.848 462.623 607.89 462.623ZM642.102 503.953V502.466C642.102 493.435 636.896 481.748 610.122 481.748C582.922 481.748 578.141 493.435 578.141 502.466V503.741C578.141 512.772 583.347 525.203 610.122 525.203C636.684 525.203 642.102 513.091 642.102 503.953Z" fill="white"/>
<path d="M472.055 481.959V497.471H509.56C516.678 497.471 519.547 494.071 519.547 489.715V489.609C519.547 485.465 516.785 481.959 509.56 481.959H472.055ZM472.055 515.002V543.051H447.299V464.003H511.047C537.397 464.003 545.365 473.14 545.365 484.509V485.784C545.365 497.152 535.909 501.402 530.703 503.102C538.778 505.439 545.684 511.071 545.684 521.27V532.851C545.684 539.226 546.428 541.245 547.172 542.52V543.051H521.991C521.247 542.095 520.822 540.926 520.822 538.057V528.92C520.822 519.252 516.572 515.002 504.354 515.002H472.055Z" fill="white"/>
<path d="M402.204 516.702H367.674V543.051H342.918V464.003H402.204C430.678 464.003 439.072 475.265 439.072 489.715V490.777C439.072 504.908 430.466 516.702 402.204 516.702ZM367.674 481.959V498.958H401.779C409.535 498.958 413.254 496.09 413.254 490.671V490.352C413.254 484.934 409.748 481.959 401.779 481.959H367.674Z" fill="white"/>
<path d="M201.289 543.051V464.003H268.969C291.599 464.003 297.868 472.715 297.868 482.065V483.552C297.868 493.858 289.156 497.79 285.331 498.958C290.749 500.34 302.33 504.908 302.33 518.827V520.314C302.33 532.745 295.212 543.051 269.606 543.051H201.289ZM264.719 480.684H226.045V493.54H264.719C271.625 493.54 273.325 490.352 273.325 487.165V486.952C273.325 483.659 271.625 480.684 264.719 480.684ZM266.844 510.327H226.045V525.839H266.844C275.025 525.839 276.619 521.27 276.619 518.083V517.658C276.619 514.258 275.025 510.327 266.844 510.327Z" fill="white"/>
<path d="M153.691 510.752L138.391 481.109L123.729 510.752H153.691ZM170.266 543.051L162.828 528.601H114.911L107.792 543.051H82.6113L122.56 464.003H154.647L196.934 543.051H170.266Z" fill="white"/>
<path d="M0 464.003H24.7557V523.395H79.6857V543.051H0V464.003Z" fill="white"/>
<path d="M508.141 214.705H641.418V243.434H547.24V262.134H639.208V291.033H547.24V311.773H643.118V341.182H508.141V214.705Z" fill="#BFFF00"/>
<path d="M400.343 343.392H396.773C328.265 343.392 312.455 305.143 312.455 279.814V275.054C312.455 250.404 325.375 212.495 398.133 212.495H405.443C476.161 212.495 488.571 243.264 489.251 260.434V260.604H447.092C446.072 257.714 441.482 242.584 402.043 242.584C363.454 242.584 353.934 259.244 353.934 276.754V278.624C353.934 295.113 366.854 312.623 401.703 312.623C439.272 312.623 450.662 298.173 450.662 294.603V294.263H401.023V270.294H490.101V341.182H466.302C465.792 336.592 463.412 326.732 461.202 321.463C455.762 327.752 439.442 343.392 400.343 343.392Z" fill="#BFFF00"/>
<path d="M251.538 289.503L227.058 242.074L203.599 289.503H251.538ZM278.057 341.182L266.158 318.063H189.489L178.1 341.182H137.811L201.729 214.705H253.068L320.726 341.182H278.057Z" fill="#BFFF00"/>
<path d="M98.4887 299.023H43.2399V341.182H3.63086V214.705H98.4887C144.048 214.705 157.477 232.725 157.477 255.844V257.544C157.477 280.154 143.708 299.023 98.4887 299.023ZM43.2399 243.434V270.634H97.8087C110.218 270.634 116.168 266.044 116.168 257.374V256.864C116.168 248.194 110.558 243.434 97.8087 243.434H43.2399Z" fill="#BFFF00"/>
<path d="M1253.2 128.687V2.20996H1309.47L1353.16 80.9181L1397.02 2.20996H1451.25V128.687H1412.15V41.1391L1362.34 128.687H1341.09L1291.28 41.1391V128.687H1253.2Z" fill="#BFFF00"/>
<path d="M1177.05 77.0082L1152.57 29.5793L1129.11 77.0082H1177.05ZM1203.57 128.687L1191.67 105.568H1115L1103.62 128.687H1063.33L1127.24 2.20996H1178.58L1246.24 128.687H1203.57Z" fill="#BFFF00"/>
<path d="M940.701 30.9393V55.7587H1000.71C1012.1 55.7587 1016.69 50.3188 1016.69 43.349V43.179C1016.69 36.5492 1012.27 30.9393 1000.71 30.9393H940.701ZM940.701 83.8081V128.687H901.092V2.20996H1003.09C1045.25 2.20996 1058 16.8296 1058 35.0192V37.0592C1058 55.2487 1042.87 62.0486 1034.54 64.7685C1047.46 68.5084 1058.51 77.5182 1058.51 93.8378V112.367C1058.51 122.567 1059.7 125.797 1060.89 127.837V128.687H1020.6C1019.41 127.157 1018.73 125.287 1018.73 120.697V106.078C1018.73 90.6079 1011.93 83.8081 992.38 83.8081H940.701Z" fill="#BFFF00"/>
<path d="M793.292 130.897H789.722C721.214 130.897 705.404 92.6479 705.404 67.3184V62.5586C705.404 37.9091 718.324 0 791.082 0H798.392C869.111 0 881.52 30.7693 882.2 47.9389V48.1089H840.041C839.021 45.219 834.431 30.0893 794.992 30.0893C756.403 30.0893 746.883 46.7489 746.883 64.2585V66.1285C746.883 82.6181 759.803 100.128 794.652 100.128C832.221 100.128 843.611 85.678 843.611 82.1081V81.7681H793.972V57.7987H883.05V128.687H859.251C858.741 124.097 856.361 114.237 854.151 108.967C848.711 115.257 832.391 130.897 793.292 130.897Z" fill="#BFFF00"/>
<path d="M644.487 77.0082L620.008 29.5793L596.548 77.0082H644.487ZM671.007 128.687L659.107 105.568H582.439L571.049 128.687H530.76L594.678 2.20996H646.017L713.676 128.687H671.007Z" fill="#BFFF00"/>
<path d="M458.502 128.687V32.1293H404.104V2.20996H553.02V32.1293H498.451V128.687H458.502Z" fill="#BFFF00"/>
<path d="M325.223 130.897H313.493C247.195 130.897 239.545 102.338 239.545 85.678V83.8081H280.854C281.364 91.4579 285.784 103.868 318.423 103.868H320.803C354.122 103.868 357.862 97.2378 357.862 90.4379C357.862 83.1281 353.952 78.5382 324.713 77.6882L302.953 77.1782C255.695 75.8183 241.245 59.8386 241.245 40.1191V38.5891C241.245 19.7195 252.465 0 310.093 0H321.823C381.662 0 395.261 20.9095 395.261 39.9491V41.649H354.122C353.272 36.8892 350.722 26.5194 317.573 26.5194H314.853C284.254 26.5194 282.044 31.9593 282.044 37.3991C282.044 42.839 285.444 47.7689 311.283 48.2789L332.533 48.6189C380.132 49.4689 399.341 61.0286 399.341 86.188V88.568C399.341 109.477 388.801 130.897 325.223 130.897Z" fill="#BFFF00"/>
<path d="M62.5664 2.20996H106.765L187.514 81.7681V2.20996H226.613V128.687H187.514L101.666 44.879V128.687H62.5664V2.20996Z" fill="#BFFF00"/>
<path d="M43.2399 2.20996V128.687H3.63086V2.20996H43.2399Z" fill="#BFFF00"/>
</svg>
