<svg width="303" height="131" viewBox="0 0 303 131" fill="none" xmlns="http://www.w3.org/2000/svg">
<path d="M9.52024 0.415632V24.2236H2.06423V0.415632H9.52024ZM13.158 0.415632H21.478L36.678 15.3916V0.415632H44.038V24.2236H36.678L20.518 8.44763V24.2236H13.158V0.415632ZM62.6012 24.6396H60.3932C47.9132 24.6396 46.4732 19.2636 46.4732 16.1276V15.7756H54.2492C54.3452 17.2156 55.1772 19.5516 61.3212 19.5516H61.7692C68.0412 19.5516 68.7452 18.3036 68.7452 17.0236C68.7452 15.6476 68.0092 14.7836 62.5052 14.6236L58.4092 14.5276C49.5132 14.2716 46.7932 11.2636 46.7932 7.55163V7.26363C46.7932 3.71163 48.9052 -0.000368118 59.7532 -0.000368118H61.9612C73.2252 -0.000368118 75.7852 3.93563 75.7852 7.51963V7.83963H68.0412C67.8812 6.94363 67.4012 4.99163 61.1612 4.99163H60.6492C54.8892 4.99163 54.4732 6.01563 54.4732 7.03963C54.4732 8.06363 55.1132 8.99163 59.9772 9.08763L63.9772 9.15163C72.9372 9.31163 76.5532 11.4876 76.5532 16.2236V16.6716C76.5532 20.6076 74.5692 24.6396 62.6012 24.6396ZM87.6887 24.2236V6.04763H77.4487V0.415632H105.481V6.04763H95.2087V24.2236H87.6887ZM122.699 14.4956L118.091 5.56763L113.675 14.4956H122.699ZM127.691 24.2236L125.451 19.8716H111.019L108.875 24.2236H101.291L113.323 0.415632H122.987L135.723 24.2236H127.691ZM150.711 24.6396H150.039C137.143 24.6396 134.167 17.4396 134.167 12.6716V11.7756C134.167 7.13563 136.599 -0.000368118 150.295 -0.000368118H151.671C164.983 -0.000368118 167.319 5.79163 167.447 9.02363V9.05563H159.511C159.319 8.51163 158.455 5.66363 151.031 5.66363C143.767 5.66363 141.975 8.79963 141.975 12.0956V12.4476C141.975 15.5516 144.407 18.8476 150.967 18.8476C158.039 18.8476 160.183 16.1276 160.183 15.4556V15.3916H150.839V10.8796H167.607V24.2236H163.127C163.031 23.3596 162.583 21.5036 162.167 20.5116C161.143 21.6956 158.071 24.6396 150.711 24.6396ZM178.458 5.82363V10.4956H189.754C191.898 10.4956 192.762 9.47163 192.762 8.15963V8.12763C192.762 6.87963 191.93 5.82363 189.754 5.82363H178.458ZM178.458 15.7756V24.2236H171.002V0.415632H190.202C198.138 0.415632 200.538 3.16763 200.538 6.59163V6.97563C200.538 10.3996 197.69 11.6796 196.122 12.1916C198.554 12.8956 200.634 14.5916 200.634 17.6636V21.1516C200.634 23.0716 200.858 23.6796 201.082 24.0636V24.2236H193.498C193.274 23.9356 193.146 23.5836 193.146 22.7196V19.9676C193.146 17.0556 191.866 15.7756 188.186 15.7756H178.458ZM222.949 14.4956L218.341 5.56763L213.925 14.4956H222.949ZM227.941 24.2236L225.701 19.8716H211.269L209.125 24.2236H201.541L213.573 0.415632H223.237L235.973 24.2236H227.941ZM237.283 24.2236V0.415632H247.875L256.099 15.2316L264.355 0.415632H274.563V24.2236H267.203V7.74363L257.827 24.2236H253.827L244.451 7.74363V24.2236H237.283ZM19.9202 56.2876H9.52024V64.2236H2.06423V40.4156H19.9202C28.4962 40.4156 31.0242 43.8076 31.0242 48.1596V48.4796C31.0242 52.7356 28.4322 56.2876 19.9202 56.2876ZM9.52024 45.8236V50.9436H19.7922C22.1282 50.9436 23.2482 50.0796 23.2482 48.4476V48.3516C23.2482 46.7196 22.1922 45.8236 19.7922 45.8236H9.52024ZM48.73 54.4956L44.122 45.5676L39.706 54.4956H48.73ZM53.722 64.2236L51.482 59.8716H37.05L34.906 64.2236H27.322L39.354 40.4156H49.018L61.754 64.2236H53.722ZM76.742 64.6396H76.07C63.174 64.6396 60.198 57.4396 60.198 52.6716V51.7756C60.198 47.1356 62.63 39.9996 76.326 39.9996H77.702C91.014 39.9996 93.35 45.7916 93.478 49.0236V49.0556H85.542C85.35 48.5116 84.486 45.6636 77.062 45.6636C69.798 45.6636 68.006 48.7996 68.006 52.0956V52.4476C68.006 55.5516 70.438 58.8476 76.998 58.8476C84.07 58.8476 86.214 56.1276 86.214 55.4556V55.3916H76.87V50.8796H93.638V64.2236H89.158C89.062 63.3596 88.614 61.5036 88.198 60.5116C87.174 61.6956 84.102 64.6396 76.742 64.6396ZM97.033 40.4156H122.121V45.8236H104.393V49.3436H121.705V54.7836H104.393V58.6876H122.441V64.2236H97.033V40.4156Z" fill="#BFFF00"/>
<path d="M13.5402 102.224H7.74023L0.000234373 87.3436H5.28023L10.7602 98.2836L15.9002 87.3436H20.7402L13.5402 102.224ZM26.2941 87.3436V102.224H21.6341V87.3436H26.2941ZM37.8877 102.484H36.5077C28.7077 102.484 27.8077 99.1236 27.8077 97.1636V96.9436H32.6677C32.7277 97.8436 33.2477 99.3036 37.0877 99.3036H37.3677C41.2877 99.3036 41.7277 98.5236 41.7277 97.7236C41.7277 96.8636 41.2677 96.3236 37.8277 96.2236L35.2677 96.1636C29.7077 96.0036 28.0077 94.1236 28.0077 91.8036V91.6236C28.0077 89.4036 29.3277 87.0836 36.1077 87.0836H37.4877C44.5277 87.0836 46.1277 89.5436 46.1277 91.7836V91.9836H41.2877C41.1877 91.4236 40.8877 90.2036 36.9877 90.2036H36.6677C33.0677 90.2036 32.8077 90.8436 32.8077 91.4836C32.8077 92.1236 33.2077 92.7036 36.2477 92.7636L38.7477 92.8036C44.3477 92.9036 46.6077 94.2636 46.6077 97.2236V97.5036C46.6077 99.9636 45.3677 102.484 37.8877 102.484ZM52.8566 87.3436V102.224H48.1966V87.3436H52.8566ZM60.9502 102.224V90.8636H54.5502V87.3436H72.0702V90.8636H65.6502V102.224H60.9502ZM78.423 87.3436V102.224H73.763V87.3436H78.423ZM80.6966 87.3436H85.8966L95.3966 96.7036V87.3436H99.9966V102.224H95.3966L85.2966 92.3636V102.224H80.6966V87.3436ZM112.019 102.484H111.599C103.539 102.484 101.679 97.9836 101.679 95.0036V94.4436C101.679 91.5436 103.199 87.0836 111.759 87.0836H112.619C120.939 87.0836 122.399 90.7036 122.479 92.7236V92.7436H117.519C117.399 92.4036 116.859 90.6236 112.219 90.6236C107.679 90.6236 106.559 92.5836 106.559 94.6436V94.8636C106.559 96.8036 108.079 98.8636 112.179 98.8636C116.599 98.8636 117.939 97.1636 117.939 96.7436V96.7036H112.099V93.8836H122.579V102.224H119.779C119.719 101.684 119.439 100.524 119.179 99.9036C118.539 100.644 116.619 102.484 112.019 102.484ZM136.673 102.224V90.8636H130.273V87.3436H147.793V90.8636H141.373V102.224H136.673ZM149.486 102.224V87.3436H154.146V92.7636H164.146V87.3436H168.806V102.224H164.146V96.3636H154.146V102.224H149.486ZM171.087 87.3436H186.767V90.7236H175.687V92.9236H186.507V96.3236H175.687V98.7636H186.967V102.224H171.087V87.3436ZM206.212 97.2636H199.712V102.224H195.052V87.3436H206.212C211.572 87.3436 213.152 89.4636 213.152 92.1836V92.3836C213.152 95.0436 211.532 97.2636 206.212 97.2636ZM199.712 90.7236V93.9236H206.132C207.592 93.9236 208.292 93.3836 208.292 92.3636V92.3036C208.292 91.2836 207.632 90.7236 206.132 90.7236H199.712ZM219.361 87.3436V102.224H214.701V87.3436H219.361ZM233.554 96.1436L230.674 90.5636L227.914 96.1436H233.554ZM236.674 102.224L235.274 99.5036H226.254L224.914 102.224H220.174L227.694 87.3436H233.734L241.694 102.224H236.674ZM242.213 87.3436H258.813V90.0636L248.613 98.7036H258.953V102.224H242.053V99.4836L251.993 90.7836H242.213V87.3436ZM260.475 87.3436H277.075V90.0636L266.875 98.7036H277.215V102.224H260.315V99.4836L270.255 90.7836H260.475V87.3436ZM290.956 96.1436L288.076 90.5636L285.316 96.1436H290.956ZM294.076 102.224L292.676 99.5036H283.656L282.316 102.224H277.576L285.096 87.3436H291.136L299.096 102.224H294.076ZM6.04023 115.344V130.224H1.38023V115.344H6.04023ZM8.31383 115.344H13.5138L23.0138 124.704V115.344H27.6138V130.224H23.0138L12.9138 120.364V130.224H8.31383V115.344ZM29.8959 115.344H45.2759V118.724H34.5359V120.924H45.0159V124.324H34.5359V130.224H29.8959V115.344ZM57.1196 115.084H57.9796C67.3396 115.084 68.4396 119.784 68.4396 122.444V123.044C68.4396 125.664 67.3596 130.484 57.9796 130.484H57.1196C47.6996 130.484 46.6396 125.664 46.6396 123.044V122.444C46.6396 119.784 47.6996 115.084 57.1196 115.084ZM63.5596 122.864V122.584C63.5596 120.884 62.5796 118.684 57.5396 118.684C52.4196 118.684 51.5196 120.884 51.5196 122.584V122.824C51.5196 124.524 52.4996 126.864 57.5396 126.864C62.5396 126.864 63.5596 124.584 63.5596 122.864ZM74.7707 118.724V121.644H81.8307C83.1707 121.644 83.7107 121.004 83.7107 120.184V120.164C83.7107 119.384 83.1907 118.724 81.8307 118.724H74.7707ZM74.7707 124.944V130.224H70.1107V115.344H82.1107C87.0707 115.344 88.5707 117.064 88.5707 119.204V119.444C88.5707 121.584 86.7907 122.384 85.8107 122.704C87.3307 123.144 88.6307 124.204 88.6307 126.124V128.304C88.6307 129.504 88.7707 129.884 88.9107 130.124V130.224H84.1707C84.0307 130.044 83.9507 129.824 83.9507 129.284V127.564C83.9507 125.744 83.1507 124.944 80.8507 124.944H74.7707ZM90.4623 130.224V115.344H97.0823L102.222 124.604L107.382 115.344H113.762V130.224H109.162V119.924L103.302 130.224H100.802L94.9423 119.924V130.224H90.4623ZM127.968 124.144L125.088 118.564L122.328 124.144H127.968ZM131.088 130.224L129.688 127.504H120.668L119.328 130.224H114.588L122.108 115.344H128.148L136.108 130.224H131.088ZM139.896 130.224V118.864H133.496V115.344H151.016V118.864H144.596V130.224H139.896ZM157.368 115.344V130.224H152.708V115.344H157.368ZM171.802 130.224H166.002L158.262 115.344H163.542L169.022 126.284L174.162 115.344H179.002L171.802 130.224ZM179.896 115.344H195.576V118.724H184.496V120.924H195.316V124.324H184.496V126.764H195.776V130.224H179.896V115.344ZM215.021 125.264H208.521V130.224H203.861V115.344H215.021C220.381 115.344 221.961 117.464 221.961 120.184V120.384C221.961 123.044 220.341 125.264 215.021 125.264ZM208.521 118.724V121.924H214.941C216.401 121.924 217.101 121.384 217.101 120.364V120.304C217.101 119.284 216.441 118.724 214.941 118.724H208.521ZM233.389 115.084H234.249C243.609 115.084 244.709 119.784 244.709 122.444V123.044C244.709 125.664 243.629 130.484 234.249 130.484H233.389C223.969 130.484 222.909 125.664 222.909 123.044V122.444C222.909 119.784 223.969 115.084 233.389 115.084ZM239.829 122.864V122.584C239.829 120.884 238.849 118.684 233.809 118.684C228.689 118.684 227.789 120.884 227.789 122.584V122.824C227.789 124.524 228.769 126.864 233.809 126.864C238.809 126.864 239.829 124.584 239.829 122.864ZM255.7 130.484H254.32C246.52 130.484 245.62 127.124 245.62 125.164V124.944H250.48C250.54 125.844 251.06 127.304 254.9 127.304H255.18C259.1 127.304 259.54 126.524 259.54 125.724C259.54 124.864 259.08 124.324 255.64 124.224L253.08 124.164C247.52 124.004 245.82 122.124 245.82 119.804V119.624C245.82 117.404 247.14 115.084 253.92 115.084H255.3C262.34 115.084 263.94 117.544 263.94 119.784V119.984H259.1C259 119.424 258.7 118.204 254.8 118.204H254.48C250.88 118.204 250.62 118.844 250.62 119.484C250.62 120.124 251.02 120.704 254.06 120.764L256.56 120.804C262.16 120.904 264.42 122.264 264.42 125.224V125.504C264.42 127.964 263.18 130.484 255.7 130.484ZM271.38 130.224V118.864H264.98V115.344H282.5V118.864H276.08V130.224H271.38ZM293.454 130.484H292.074C284.274 130.484 283.374 127.124 283.374 125.164V124.944H288.234C288.294 125.844 288.814 127.304 292.654 127.304H292.934C296.854 127.304 297.294 126.524 297.294 125.724C297.294 124.864 296.834 124.324 293.394 124.224L290.834 124.164C285.274 124.004 283.574 122.124 283.574 119.804V119.624C283.574 117.404 284.894 115.084 291.674 115.084H293.054C300.094 115.084 301.694 117.544 301.694 119.784V119.984H296.854C296.754 119.424 296.454 118.204 292.554 118.204H292.234C288.634 118.204 288.374 118.844 288.374 119.484C288.374 120.124 288.774 120.704 291.814 120.764L294.314 120.804C299.914 120.904 302.174 122.264 302.174 125.224V125.504C302.174 127.964 300.934 130.484 293.454 130.484Z" fill="white"/>
</svg>
