<svg width="274" height="131" viewBox="0 0 274 131" fill="none" xmlns="http://www.w3.org/2000/svg">
<path d="M8.89914 0.415632V24.2236H1.44314V0.415632H8.89914ZM12.5369 0.415632H20.8569L36.0569 15.3916V0.415632H43.4169V24.2236H36.0569L19.8969 8.44763V24.2236H12.5369V0.415632ZM61.9801 24.6396H59.7721C47.2921 24.6396 45.8521 19.2636 45.8521 16.1276V15.7756H53.6281C53.7241 17.2156 54.5561 19.5516 60.7001 19.5516H61.1481C67.4201 19.5516 68.1241 18.3036 68.1241 17.0236C68.1241 15.6476 67.3881 14.7836 61.8841 14.6236L57.7881 14.5276C48.8921 14.2716 46.1721 11.2636 46.1721 7.55163V7.26363C46.1721 3.71163 48.2841 -0.000368118 59.1321 -0.000368118H61.3401C72.6041 -0.000368118 75.1641 3.93563 75.1641 7.51963V7.83963H67.4201C67.2601 6.94363 66.7801 4.99163 60.5401 4.99163H60.0281C54.2681 4.99163 53.8521 6.01563 53.8521 7.03963C53.8521 8.06363 54.4921 8.99163 59.3561 9.08763L63.3561 9.15163C72.3161 9.31163 75.9321 11.4876 75.9321 16.2236V16.6716C75.9321 20.6076 73.9481 24.6396 61.9801 24.6396ZM87.0676 24.2236V6.04763H76.8276V0.415632H104.86V6.04763H94.5876V24.2236H87.0676ZM122.078 14.4956L117.47 5.56763L113.054 14.4956H122.078ZM127.07 24.2236L124.83 19.8716H110.398L108.254 24.2236H100.67L112.702 0.415632H122.366L135.102 24.2236H127.07ZM150.09 24.6396H149.418C136.522 24.6396 133.546 17.4396 133.546 12.6716V11.7756C133.546 7.13563 135.978 -0.000368118 149.674 -0.000368118H151.05C164.362 -0.000368118 166.698 5.79163 166.826 9.02363V9.05563H158.89C158.698 8.51163 157.834 5.66363 150.41 5.66363C143.146 5.66363 141.354 8.79963 141.354 12.0956V12.4476C141.354 15.5516 143.786 18.8476 150.346 18.8476C157.418 18.8476 159.562 16.1276 159.562 15.4556V15.3916H150.218V10.8796H166.986V24.2236H162.506C162.41 23.3596 161.962 21.5036 161.546 20.5116C160.522 21.6956 157.45 24.6396 150.09 24.6396ZM177.837 5.82363V10.4956H189.133C191.277 10.4956 192.141 9.47163 192.141 8.15963V8.12763C192.141 6.87963 191.309 5.82363 189.133 5.82363H177.837ZM177.837 15.7756V24.2236H170.381V0.415632H189.581C197.517 0.415632 199.917 3.16763 199.917 6.59163V6.97563C199.917 10.3996 197.069 11.6796 195.501 12.1916C197.933 12.8956 200.013 14.5916 200.013 17.6636V21.1516C200.013 23.0716 200.237 23.6796 200.461 24.0636V24.2236H192.877C192.653 23.9356 192.525 23.5836 192.525 22.7196V19.9676C192.525 17.0556 191.245 15.7756 187.565 15.7756H177.837ZM222.328 14.4956L217.72 5.56763L213.304 14.4956H222.328ZM227.32 24.2236L225.08 19.8716H210.648L208.504 24.2236H200.92L212.952 0.415632H222.616L235.352 24.2236H227.32ZM236.662 24.2236V0.415632H247.254L255.478 15.2316L263.734 0.415632H273.942V24.2236H266.582V7.74363L257.206 24.2236H253.206L243.83 7.74363V24.2236H236.662ZM19.2991 56.2876H8.89914V64.2236H1.44314V40.4156H19.2991C27.8751 40.4156 30.4031 43.8076 30.4031 48.1596V48.4796C30.4031 52.7356 27.8111 56.2876 19.2991 56.2876ZM8.89914 45.8236V50.9436H19.1711C21.5071 50.9436 22.6271 50.0796 22.6271 48.4476V48.3516C22.6271 46.7196 21.5711 45.8236 19.1711 45.8236H8.89914ZM48.1089 54.4956L43.5009 45.5676L39.0849 54.4956H48.1089ZM53.1009 64.2236L50.8609 59.8716H36.4289L34.2849 64.2236H26.7009L38.7329 40.4156H48.3969L61.1329 64.2236H53.1009ZM76.1209 64.6396H75.4489C62.5529 64.6396 59.5769 57.4396 59.5769 52.6716V51.7756C59.5769 47.1356 62.0089 39.9996 75.7049 39.9996H77.0809C90.3929 39.9996 92.7289 45.7916 92.8569 49.0236V49.0556H84.9209C84.7289 48.5116 83.8649 45.6636 76.4409 45.6636C69.1769 45.6636 67.3849 48.7996 67.3849 52.0956V52.4476C67.3849 55.5516 69.8169 58.8476 76.3769 58.8476C83.4489 58.8476 85.5929 56.1276 85.5929 55.4556V55.3916H76.2489V50.8796H93.0169V64.2236H88.5369C88.4409 63.3596 87.9929 61.5036 87.5769 60.5116C86.5529 61.6956 83.4809 64.6396 76.1209 64.6396ZM96.4119 40.4156H121.5V45.8236H103.772V49.3436H121.084V54.7836H103.772V58.6876H121.82V64.2236H96.4119V40.4156Z" fill="#BFFF00"/>
<path d="M10.0791 102.484H8.69914C0.899141 102.484 -0.00085935 99.1236 -0.00085935 97.1636V96.9436H4.85914C4.91914 97.8436 5.43914 99.3036 9.27914 99.3036H9.55914C13.4791 99.3036 13.9191 98.5236 13.9191 97.7236C13.9191 96.8636 13.4591 96.3236 10.0191 96.2236L7.45914 96.1636C1.89914 96.0036 0.199141 94.1236 0.199141 91.8036V91.6236C0.199141 89.4036 1.51914 87.0836 8.29914 87.0836H9.67914C16.7191 87.0836 18.3191 89.5436 18.3191 91.7836V91.9836H13.4791C13.3791 91.4236 13.0791 90.2036 9.17914 90.2036H8.85914C5.25914 90.2036 4.99914 90.8436 4.99914 91.4836C4.99914 92.1236 5.39914 92.7036 8.43914 92.7636L10.9391 92.8036C16.5391 92.9036 18.7991 94.2636 18.7991 97.2236V97.5036C18.7991 99.9636 17.5591 102.484 10.0791 102.484ZM25.7588 102.224V90.8636H19.3588V87.3436H36.8788V90.8636H30.4588V102.224H25.7588ZM47.8462 87.0836H48.7062C58.0662 87.0836 59.1662 91.7836 59.1662 94.4436V95.0436C59.1662 97.6636 58.0862 102.484 48.7062 102.484H47.8462C38.4262 102.484 37.3662 97.6636 37.3662 95.0436V94.4436C37.3662 91.7836 38.4262 87.0836 47.8462 87.0836ZM54.2862 94.8636V94.5836C54.2862 92.8836 53.3062 90.6836 48.2662 90.6836C43.1462 90.6836 42.2462 92.8836 42.2462 94.5836V94.8236C42.2462 96.5236 43.2262 98.8636 48.2662 98.8636C53.2662 98.8636 54.2862 96.5836 54.2862 94.8636ZM65.4973 90.7236V93.6436H72.5573C73.8973 93.6436 74.4373 93.0036 74.4373 92.1836V92.1636C74.4373 91.3836 73.9173 90.7236 72.5573 90.7236H65.4973ZM65.4973 96.9436V102.224H60.8373V87.3436H72.8373C77.7973 87.3436 79.2973 89.0636 79.2973 91.2036V91.4436C79.2973 93.5836 77.5173 94.3836 76.5373 94.7036C78.0573 95.1436 79.3573 96.2036 79.3573 98.1236V100.304C79.3573 101.504 79.4973 101.884 79.6373 102.124V102.224H74.8973C74.7573 102.044 74.6773 101.824 74.6773 101.284V99.5636C74.6773 97.7436 73.8773 96.9436 71.5773 96.9436H65.4973ZM85.8488 87.3436V102.224H81.1888V87.3436H85.8488ZM88.1224 87.3436H103.802V90.7236H92.7224V92.9236H103.542V96.3236H92.7224V98.7636H104.002V102.224H88.1224V87.3436ZM115.255 102.484H113.875C106.075 102.484 105.175 99.1236 105.175 97.1636V96.9436H110.035C110.095 97.8436 110.615 99.3036 114.455 99.3036H114.735C118.655 99.3036 119.095 98.5236 119.095 97.7236C119.095 96.8636 118.635 96.3236 115.195 96.2236L112.635 96.1636C107.075 96.0036 105.375 94.1236 105.375 91.8036V91.6236C105.375 89.4036 106.695 87.0836 113.475 87.0836H114.855C121.895 87.0836 123.495 89.5436 123.495 91.7836V91.9836H118.655C118.555 91.4236 118.255 90.2036 114.355 90.2036H114.035C110.435 90.2036 110.175 90.8436 110.175 91.4836C110.175 92.1236 110.575 92.7036 113.615 92.7636L116.115 92.8036C121.715 92.9036 123.975 94.2636 123.975 97.2236V97.5036C123.975 99.9636 122.735 102.484 115.255 102.484ZM131.716 102.224V87.3436H141.576C150.196 87.3436 152.076 91.0436 152.076 94.3836V94.9836C152.076 98.1836 150.296 102.224 141.596 102.224H131.716ZM136.376 90.8636V98.6436H141.216C146.496 98.6436 147.196 96.3236 147.196 94.8036V94.6836C147.196 93.1636 146.576 90.8636 141.216 90.8636H136.376ZM163.489 102.444H162.769C154.789 102.444 153.489 97.3636 153.489 94.5636V87.3436H158.169V94.2836C158.169 96.2036 159.029 98.5836 163.089 98.5836C167.089 98.5836 167.969 96.2036 167.969 94.2836V87.3436H172.629V94.5636C172.629 97.3636 171.109 102.444 163.489 102.444ZM179.384 90.7236V93.6436H186.444C187.784 93.6436 188.324 93.0036 188.324 92.1836V92.1636C188.324 91.3836 187.804 90.7236 186.444 90.7236H179.384ZM179.384 96.9436V102.224H174.724V87.3436H186.724C191.684 87.3436 193.184 89.0636 193.184 91.2036V91.4436C193.184 93.5836 191.404 94.3836 190.424 94.7036C191.944 95.1436 193.244 96.2036 193.244 98.1236V100.304C193.244 101.504 193.384 101.884 193.524 102.124V102.224H188.784C188.644 102.044 188.564 101.824 188.564 101.284V99.5636C188.564 97.7436 187.764 96.9436 185.464 96.9436H179.384ZM199.736 87.3436V102.224H195.076V87.3436H199.736ZM202.009 87.3436H207.209L216.709 96.7036V87.3436H221.309V102.224H216.709L206.609 92.3636V102.224H202.009V87.3436ZM233.331 102.484H232.911C224.851 102.484 222.991 97.9836 222.991 95.0036V94.4436C222.991 91.5436 224.511 87.0836 233.071 87.0836H233.931C242.251 87.0836 243.711 90.7036 243.791 92.7236V92.7436H238.831C238.711 92.4036 238.171 90.6236 233.531 90.6236C228.991 90.6236 227.871 92.5836 227.871 94.6436V94.8636C227.871 96.8036 229.391 98.8636 233.491 98.8636C237.911 98.8636 239.251 97.1636 239.251 96.7436V96.7036H233.411V93.8836H243.891V102.224H241.091C241.031 101.684 240.751 100.524 240.491 99.9036C239.851 100.644 237.931 102.484 233.331 102.484ZM0.759141 115.344H5.41914V126.524H15.7591V130.224H0.759141V115.344ZM29.6909 124.144L26.8109 118.564L24.0509 124.144H29.6909ZM32.8109 130.224L31.4109 127.504H22.3909L21.0509 130.224H16.3109L23.8309 115.344H29.8709L37.8309 130.224H32.8109ZM38.6498 130.224V115.344H51.3898C55.6498 115.344 56.8298 116.984 56.8298 118.744V119.024C56.8298 120.964 55.1898 121.704 54.4698 121.924C55.4898 122.184 57.6698 123.044 57.6698 125.664V125.944C57.6698 128.284 56.3298 130.224 51.5098 130.224H38.6498ZM50.5898 118.484H43.3098V120.904H50.5898C51.8898 120.904 52.2098 120.304 52.2098 119.704V119.664C52.2098 119.044 51.8898 118.484 50.5898 118.484ZM50.9898 124.064H43.3098V126.984H50.9898C52.5298 126.984 52.8298 126.124 52.8298 125.524V125.444C52.8298 124.804 52.5298 124.064 50.9898 124.064Z" fill="white"/>
</svg>
