<svg width="2421" height="412" viewBox="0 0 2421 412" fill="none" xmlns="http://www.w3.org/2000/svg">
<path d="M1397.49 217.904H1453.42L1555.59 318.573V217.904H1605.07V377.942H1555.59L1446.97 271.896V377.942H1397.49V217.904Z" fill="#BFFF00"/>
<path d="M1257.77 215.104H1267.02C1367.69 215.104 1379.52 265.654 1379.52 294.263V300.716C1379.52 328.895 1367.9 380.735 1267.02 380.735H1257.77C1156.46 380.735 1145.06 328.895 1145.06 300.716V294.263C1145.06 265.654 1156.46 215.104 1257.77 215.104ZM1327.03 298.78V295.769C1327.03 277.485 1316.49 253.823 1262.29 253.823C1207.22 253.823 1197.54 277.485 1197.54 295.769V298.35C1197.54 316.634 1208.08 341.801 1262.29 341.801C1316.06 341.801 1327.03 317.279 1327.03 298.78Z" fill="#BFFF00"/>
<path d="M1127.06 217.904V377.942H1076.94V217.904H1127.06Z" fill="#BFFF00"/>
<path d="M939.132 377.942V255.763H870.298V217.904H1058.73V255.763H989.681V377.942H939.132Z" fill="#BFFF00"/>
<path d="M770.492 380.735H755.65C671.759 380.735 662.079 344.598 662.079 323.517V321.151H714.35C714.995 330.831 720.588 346.533 761.888 346.533H764.899C807.06 346.533 811.792 338.144 811.792 329.54C811.792 320.291 806.845 314.483 769.847 313.407L742.313 312.762C682.514 311.041 664.23 290.821 664.23 265.869V263.933C664.23 240.057 678.427 215.104 751.348 215.104H766.19C841.907 215.104 859.115 241.562 859.115 265.654V267.805H807.06C805.984 261.782 802.758 248.661 760.812 248.661H757.371C718.652 248.661 715.855 255.544 715.855 262.428C715.855 269.311 720.157 275.549 752.853 276.194L779.742 276.624C839.971 277.7 864.278 292.327 864.278 324.163V327.174C864.278 353.632 850.941 380.735 770.492 380.735Z" fill="#BFFF00"/>
<path d="M478.676 217.904H647.318V254.257H528.15V277.919H644.521V314.486H528.15V340.729H649.469V377.942H478.676V217.904Z" fill="#BFFF00"/>
<path d="M357.844 380.308H350.1C264.273 380.308 250.292 325.672 250.292 295.557V217.904H300.626V292.546C300.626 313.196 309.876 338.793 353.542 338.793C396.563 338.793 406.027 313.196 406.027 292.546V217.904H456.147V295.557C456.147 325.672 439.799 380.308 357.844 380.308Z" fill="#BFFF00"/>
<path d="M98.0878 411.28V380.305C11.4005 376.003 0 327.604 0 300.716V294.263C0 265.224 11.8308 215.104 112.715 215.104H121.964C221.773 215.104 234.464 265.224 234.464 294.263V300.716C234.464 327.174 224.139 371.916 145.841 379.66L170.793 411.28H98.0878ZM181.979 298.78V295.769C181.979 276.624 171.439 253.823 117.232 253.823C62.1653 253.823 52.4856 276.409 52.4856 295.769V298.35C52.4856 317.279 63.0257 341.801 117.232 341.801C171.008 341.801 181.979 317.709 181.979 298.78Z" fill="#BFFF00"/>
<path d="M2213.38 2.79883H2269.31L2371.48 103.468V2.79883H2420.95V162.837H2371.48L2262.85 56.7901V162.837H2213.38V2.79883Z" fill="#BFFF00"/>
<path d="M2076.98 165.631H2072.46C1985.78 165.631 1965.77 117.232 1965.77 85.1815V79.1586C1965.77 47.9684 1982.12 0 2074.19 0H2083.43C2172.92 0 2188.62 38.934 2189.48 60.6595V60.8746H2136.14C2134.85 57.2179 2129.04 38.0735 2079.13 38.0735C2030.3 38.0735 2018.26 59.1538 2018.26 81.3096V83.6758C2018.26 104.541 2034.61 126.697 2078.7 126.697C2126.24 126.697 2140.65 108.413 2140.65 103.896V103.465H2077.84V73.1356H2190.56V162.834H2160.44C2159.8 157.026 2156.79 144.55 2153.99 137.882C2147.11 145.841 2126.46 165.631 2076.98 165.631Z" fill="#BFFF00"/>
<path d="M1947.77 2.79883V162.837H1897.65V2.79883H1947.77Z" fill="#BFFF00"/>
<path d="M1801.3 97.4449L1770.32 37.4307L1740.64 97.4449H1801.3ZM1834.85 162.837L1819.8 133.583H1722.78L1708.37 162.837H1657.39L1738.27 2.79883H1803.23L1888.84 162.837H1834.85Z" fill="#BFFF00"/>
<path d="M1607.64 109.491H1537.73V162.837H1487.61V2.79883H1607.64C1665.29 2.79883 1682.28 25.5999 1682.28 54.8542V57.0052C1682.28 85.6142 1664.86 109.491 1607.64 109.491ZM1537.73 39.1515V73.5683H1606.78C1622.48 73.5683 1630.01 67.7605 1630.01 56.7901V56.1448C1630.01 45.1745 1622.91 39.1515 1606.78 39.1515H1537.73Z" fill="#BFFF00"/>
<path d="M1212.43 162.837V2.79883H1283.63L1338.91 102.392L1394.41 2.79883H1463.02V162.837H1413.55V52.0578L1350.52 162.837H1323.64L1260.61 52.0578V162.837H1212.43Z" fill="#BFFF00"/>
<path d="M1116.07 97.4449L1085.1 37.4307L1055.41 97.4449H1116.07ZM1149.63 162.837L1134.57 133.583H1037.56L1023.15 162.837H972.167L1053.05 2.79883H1118.01L1203.62 162.837H1149.63Z" fill="#BFFF00"/>
<path d="M873.43 165.631H864.611C771.901 165.631 757.489 113.79 757.489 85.3966V79.1586C757.489 50.1194 769.965 0 864.611 0H873.43C966.14 0 980.552 44.3116 980.552 63.0257V65.3918H927.421C926.131 61.0898 919.678 38.7189 868.913 38.7189C820.945 38.7189 809.974 60.2293 809.974 80.2341V82.8153C809.974 101.745 822.665 126.697 869.343 126.697C921.183 126.697 926.346 101.96 927.637 98.3029H980.767V100.669C980.767 120.889 964.85 165.631 873.43 165.631Z" fill="#BFFF00"/>
<path d="M529.005 39.1515V70.5568H604.937C619.349 70.5568 625.157 63.6735 625.157 54.8542V54.6391C625.157 46.25 619.564 39.1515 604.937 39.1515H529.005ZM529.005 106.049V162.837H478.886V2.79883H607.949C661.295 2.79883 677.428 21.2978 677.428 44.314V46.8953C677.428 69.9115 658.283 78.5157 647.743 81.9574C664.091 86.6897 678.073 98.0902 678.073 118.74V142.187C678.073 155.093 679.579 159.18 681.084 161.761V162.837H630.105C628.599 160.901 627.738 158.535 627.738 152.727V134.228C627.738 114.653 619.134 106.049 594.397 106.049H529.005Z" fill="#BFFF00"/>
<path d="M358.054 165.203H350.31C264.484 165.203 250.502 110.566 250.502 80.4516V2.79883H300.836V77.4402C300.836 98.0902 310.086 123.688 353.752 123.688C396.773 123.688 406.238 98.0902 406.238 77.4402V2.79883H456.357V80.4516C456.357 110.566 440.009 165.203 358.054 165.203Z" fill="#BFFF00"/>
<path d="M112.715 0H121.964C222.633 0 234.464 50.5496 234.464 79.1586V85.6117C234.464 113.79 222.849 165.631 121.964 165.631H112.715C11.4006 165.631 0 113.79 0 85.6117V79.1586C0 50.5496 11.4006 0 112.715 0ZM181.979 83.6758V80.6643C181.979 62.3804 171.439 38.7189 117.232 38.7189C62.1653 38.7189 52.4856 62.3804 52.4856 80.6643V83.2456C52.4856 101.529 63.0257 126.697 117.232 126.697C171.008 126.697 181.979 102.175 181.979 83.6758Z" fill="#BFFF00"/>
</svg>
