<svg width="274" height="103" viewBox="0 0 274 103" fill="none" xmlns="http://www.w3.org/2000/svg">
<path d="M8.13938 0.415632V24.2236H0.683375V0.415632H8.13938ZM11.7771 0.415632H20.0971L35.2971 15.3916V0.415632H42.6571V24.2236H35.2971L19.1371 8.44763V24.2236H11.7771V0.415632ZM61.2204 24.6396H59.0124C46.5324 24.6396 45.0924 19.2636 45.0924 16.1276V15.7756H52.8684C52.9644 17.2156 53.7964 19.5516 59.9404 19.5516H60.3884C66.6604 19.5516 67.3644 18.3036 67.3644 17.0236C67.3644 15.6476 66.6284 14.7836 61.1244 14.6236L57.0284 14.5276C48.1324 14.2716 45.4124 11.2636 45.4124 7.55163V7.26363C45.4124 3.71163 47.5244 -0.000368118 58.3724 -0.000368118H60.5804C71.8444 -0.000368118 74.4044 3.93563 74.4044 7.51963V7.83963H66.6604C66.5004 6.94363 66.0204 4.99163 59.7804 4.99163H59.2684C53.5084 4.99163 53.0924 6.01563 53.0924 7.03963C53.0924 8.06363 53.7324 8.99163 58.5964 9.08763L62.5964 9.15163C71.5564 9.31163 75.1724 11.4876 75.1724 16.2236V16.6716C75.1724 20.6076 73.1884 24.6396 61.2204 24.6396ZM86.3079 24.2236V6.04763H76.0679V0.415632H104.1V6.04763H93.8279V24.2236H86.3079ZM121.318 14.4956L116.71 5.56763L112.294 14.4956H121.318ZM126.31 24.2236L124.07 19.8716H109.638L107.494 24.2236H99.9099L111.942 0.415632H121.606L134.342 24.2236H126.31ZM149.33 24.6396H148.658C135.762 24.6396 132.786 17.4396 132.786 12.6716V11.7756C132.786 7.13563 135.218 -0.000368118 148.914 -0.000368118H150.29C163.602 -0.000368118 165.938 5.79163 166.066 9.02363V9.05563H158.13C157.938 8.51163 157.074 5.66363 149.65 5.66363C142.386 5.66363 140.594 8.79963 140.594 12.0956V12.4476C140.594 15.5516 143.026 18.8476 149.586 18.8476C156.658 18.8476 158.802 16.1276 158.802 15.4556V15.3916H149.458V10.8796H166.226V24.2236H161.746C161.65 23.3596 161.202 21.5036 160.786 20.5116C159.762 21.6956 156.69 24.6396 149.33 24.6396ZM177.077 5.82363V10.4956H188.373C190.517 10.4956 191.381 9.47163 191.381 8.15963V8.12763C191.381 6.87963 190.549 5.82363 188.373 5.82363H177.077ZM177.077 15.7756V24.2236H169.621V0.415632H188.821C196.757 0.415632 199.157 3.16763 199.157 6.59163V6.97563C199.157 10.3996 196.309 11.6796 194.741 12.1916C197.173 12.8956 199.253 14.5916 199.253 17.6636V21.1516C199.253 23.0716 199.477 23.6796 199.701 24.0636V24.2236H192.117C191.893 23.9356 191.765 23.5836 191.765 22.7196V19.9676C191.765 17.0556 190.485 15.7756 186.805 15.7756H177.077ZM221.568 14.4956L216.96 5.56763L212.544 14.4956H221.568ZM226.56 24.2236L224.32 19.8716H209.888L207.744 24.2236H200.16L212.192 0.415632H221.856L234.592 24.2236H226.56ZM235.902 24.2236V0.415632H246.494L254.718 15.2316L262.974 0.415632H273.182V24.2236H265.822V7.74363L256.446 24.2236H252.446L243.07 7.74363V24.2236H235.902ZM18.5394 56.2876H8.13938V64.2236H0.683375V40.4156H18.5394C27.1154 40.4156 29.6434 43.8076 29.6434 48.1596V48.4796C29.6434 52.7356 27.0514 56.2876 18.5394 56.2876ZM8.13938 45.8236V50.9436H18.4114C20.7474 50.9436 21.8674 50.0796 21.8674 48.4476V48.3516C21.8674 46.7196 20.8114 45.8236 18.4114 45.8236H8.13938ZM47.3491 54.4956L42.7411 45.5676L38.3251 54.4956H47.3491ZM52.3411 64.2236L50.1011 59.8716H35.6691L33.5251 64.2236H25.9411L37.9731 40.4156H47.6371L60.3731 64.2236H52.3411ZM75.3611 64.6396H74.6891C61.7931 64.6396 58.8171 57.4396 58.8171 52.6716V51.7756C58.8171 47.1356 61.2491 39.9996 74.9451 39.9996H76.3211C89.6331 39.9996 91.9691 45.7916 92.0971 49.0236V49.0556H84.1611C83.9691 48.5116 83.1051 45.6636 75.6811 45.6636C68.4171 45.6636 66.6251 48.7996 66.6251 52.0956V52.4476C66.6251 55.5516 69.0571 58.8476 75.6171 58.8476C82.6891 58.8476 84.8331 56.1276 84.8331 55.4556V55.3916H75.4891V50.8796H92.2571V64.2236H87.7771C87.6811 63.3596 87.2331 61.5036 86.8171 60.5116C85.7931 61.6956 82.7211 64.6396 75.3611 64.6396ZM95.6521 40.4156H120.74V45.8236H103.012V49.3436H120.324V54.7836H103.012V58.6876H121.06V64.2236H95.6521V40.4156Z" fill="#BFFF00"/>
<path d="M-0.000624925 87.3436H4.65938V98.5236H14.9994V102.224H-0.000624925V87.3436ZM28.9311 96.1436L26.0511 90.5636L23.2911 96.1436H28.9311ZM32.0511 102.224L30.6511 99.5036H21.6311L20.2911 102.224H15.5511L23.0711 87.3436H29.1111L37.0711 102.224H32.0511ZM37.89 102.224V87.3436H50.63C54.89 87.3436 56.07 88.9836 56.07 90.7436V91.0236C56.07 92.9636 54.43 93.7036 53.71 93.9236C54.73 94.1836 56.91 95.0436 56.91 97.6636V97.9436C56.91 100.284 55.57 102.224 50.75 102.224H37.89ZM49.83 90.4836H42.55V92.9036H49.83C51.13 92.9036 51.45 92.3036 51.45 91.7036V91.6636C51.45 91.0436 51.13 90.4836 49.83 90.4836ZM50.23 96.0636H42.55V98.9836H50.23C51.77 98.9836 52.07 98.1236 52.07 97.5236V97.4436C52.07 96.8036 51.77 96.0636 50.23 96.0636ZM69.2102 90.7236V93.6436H76.2702C77.6102 93.6436 78.1502 93.0036 78.1502 92.1836V92.1636C78.1502 91.3836 77.6302 90.7236 76.2702 90.7236H69.2102ZM69.2102 96.9436V102.224H64.5502V87.3436H76.5502C81.5102 87.3436 83.0102 89.0636 83.0102 91.2036V91.4436C83.0102 93.5836 81.2302 94.3836 80.2502 94.7036C81.7702 95.1436 83.0702 96.2036 83.0702 98.1236V100.304C83.0702 101.504 83.2102 101.884 83.3502 102.124V102.224H78.6102C78.4702 102.044 78.3902 101.824 78.3902 101.284V99.5636C78.3902 97.7436 77.5902 96.9436 75.2902 96.9436H69.2102ZM84.9017 87.3436H100.582V90.7236H89.5017V92.9236H100.322V96.3236H89.5017V98.7636H100.782V102.224H84.9017V87.3436ZM112.034 102.484H110.654C102.854 102.484 101.954 99.1236 101.954 97.1636V96.9436H106.814C106.874 97.8436 107.394 99.3036 111.234 99.3036H111.514C115.434 99.3036 115.874 98.5236 115.874 97.7236C115.874 96.8636 115.414 96.3236 111.974 96.2236L109.414 96.1636C103.854 96.0036 102.154 94.1236 102.154 91.8036V91.6236C102.154 89.4036 103.474 87.0836 110.254 87.0836H111.634C118.674 87.0836 120.274 89.5436 120.274 91.7836V91.9836H115.434C115.334 91.4236 115.034 90.2036 111.134 90.2036H110.814C107.214 90.2036 106.954 90.8436 106.954 91.4836C106.954 92.1236 107.354 92.7036 110.394 92.7636L112.894 92.8036C118.494 92.9036 120.754 94.2636 120.754 97.2236V97.5036C120.754 99.9636 119.514 102.484 112.034 102.484ZM132.105 102.444H131.385C123.405 102.444 122.105 97.3636 122.105 94.5636V87.3436H126.785V94.2836C126.785 96.2036 127.645 98.5836 131.705 98.5836C135.705 98.5836 136.585 96.2036 136.585 94.2836V87.3436H141.245V94.5636C141.245 97.3636 139.725 102.444 132.105 102.444ZM143.339 87.3436H147.999V98.5236H158.339V102.224H143.339V87.3436ZM161.835 102.224V90.8636H155.435V87.3436H172.955V90.8636H166.535V102.224H161.835ZM183.909 102.484H182.529C174.729 102.484 173.829 99.1236 173.829 97.1636V96.9436H178.689C178.749 97.8436 179.269 99.3036 183.109 99.3036H183.389C187.309 99.3036 187.749 98.5236 187.749 97.7236C187.749 96.8636 187.289 96.3236 183.849 96.2236L181.289 96.1636C175.729 96.0036 174.029 94.1236 174.029 91.8036V91.6236C174.029 89.4036 175.349 87.0836 182.129 87.0836H183.509C190.549 87.0836 192.149 89.5436 192.149 91.7836V91.9836H187.309C187.209 91.4236 186.909 90.2036 183.009 90.2036H182.689C179.089 90.2036 178.829 90.8436 178.829 91.4836C178.829 92.1236 179.229 92.7036 182.269 92.7636L184.769 92.8036C190.369 92.9036 192.629 94.2636 192.629 97.2236V97.5036C192.629 99.9636 191.389 102.484 183.909 102.484Z" fill="white"/>
</svg>
