<svg width="3746" height="796" viewBox="0 0 3746 796" fill="none" xmlns="http://www.w3.org/2000/svg">
<path d="M3619.99 792.29V664.226H3547.84V624.544H3745.35V664.226H3672.98V792.29H3619.99Z" fill="#BFFF00"/>
<path d="M3427.37 795.224H3418.13C3320.95 795.224 3305.84 740.886 3305.84 711.125V704.587C3305.84 674.149 3318.92 621.615 3418.13 621.615H3427.37C3524.55 621.615 3539.65 668.061 3539.65 687.677V690.157H3483.96C3482.61 685.647 3475.84 662.199 3422.63 662.199C3372.36 662.199 3360.86 684.746 3360.86 705.714V708.419C3360.86 728.26 3374.16 754.414 3423.09 754.414C3477.42 754.414 3482.83 728.486 3484.19 724.653H3539.88V727.133C3539.88 748.327 3523.19 795.224 3427.37 795.224Z" fill="#BFFF00"/>
<path d="M3225.05 723.749L3192.58 660.844L3161.47 723.749H3225.05ZM3260.22 792.29L3244.44 761.627H3142.75L3127.65 792.29H3074.21L3158.99 624.544H3227.08L3316.81 792.29H3260.22Z" fill="#BFFF00"/>
<path d="M2916.52 624.544H3089.9V662.648H2968.83V687.449H3086.97V725.778H2968.83V792.29H2916.52V624.544Z" fill="#BFFF00"/>
<path d="M2890.89 624.544V792.29H2838.36V624.544H2890.89Z" fill="#BFFF00"/>
<path d="M2693.91 792.29V664.226H2621.76V624.544H2819.27V664.226H2746.9V792.29H2693.91Z" fill="#BFFF00"/>
<path d="M2453.61 662.648V695.566H2533.2C2548.3 695.566 2554.39 688.351 2554.39 679.107V678.881C2554.39 670.088 2548.53 662.648 2533.2 662.648H2453.61ZM2453.61 732.767V792.29H2401.07V624.544H2536.35C2592.27 624.544 2609.18 643.934 2609.18 668.059V670.764C2609.18 694.889 2589.11 703.908 2578.06 707.515C2595.2 712.476 2609.86 724.425 2609.86 746.07V770.646C2609.86 784.174 2611.43 788.457 2613.01 791.163V792.29H2559.58C2558 790.261 2557.1 787.781 2557.1 781.693V762.303C2557.1 741.786 2548.08 732.767 2522.15 732.767H2453.61Z" fill="#BFFF00"/>
<path d="M2300.07 723.749L2267.6 660.844L2236.49 723.749H2300.07ZM2335.24 792.29L2319.46 761.627H2217.77L2202.67 792.29H2149.23L2234.01 624.544H2302.1L2391.83 792.29H2335.24Z" fill="#BFFF00"/>
<path d="M1948.75 792.29V727.356L1859.01 624.544H1924.17L1976.25 686.321L2029.24 624.544H2088.54L2001.28 727.356V792.29H1948.75Z" fill="#BFFF00"/>
<path d="M1709.62 662.648V695.566H1789.2C1804.31 695.566 1810.4 688.351 1810.4 679.107V678.881C1810.4 670.088 1804.54 662.648 1789.2 662.648H1709.62ZM1709.62 732.767V792.29H1657.08V624.544H1792.36C1848.28 624.544 1865.19 643.934 1865.19 668.059V670.764C1865.19 694.889 1845.12 703.908 1834.07 707.515C1851.21 712.476 1865.86 724.425 1865.86 746.07V770.646C1865.86 784.174 1867.44 788.457 1869.02 791.163V792.29H1815.58C1814.01 790.261 1813.1 787.781 1813.1 781.693V762.303C1813.1 741.786 1804.09 732.767 1778.16 732.767H1709.62Z" fill="#BFFF00"/>
<path d="M1556.07 723.749L1523.61 660.844L1492.49 723.749H1556.07ZM1591.25 792.29L1575.46 761.627H1473.78L1458.67 792.29H1405.24L1490.01 624.544H1558.1L1647.84 792.29H1591.25Z" fill="#BFFF00"/>
<path d="M1186.55 792.29V624.544H1297.71C1394.88 624.544 1416.08 666.255 1416.08 703.908V710.672C1416.08 746.746 1396.01 792.29 1297.93 792.29H1186.55ZM1239.09 664.226V751.932H1293.65C1353.17 751.932 1361.06 725.778 1361.06 708.643V707.29C1361.06 690.154 1354.08 664.226 1293.65 664.226H1239.09Z" fill="#BFFF00"/>
<path d="M943.254 624.544H1001.87L1108.97 730.062V624.544H1160.83V792.29H1108.97L995.111 681.136V792.29H943.254V624.544Z" fill="#BFFF00"/>
<path d="M796.786 621.615H806.481C911.999 621.615 924.4 674.6 924.4 704.587V711.35C924.4 740.886 912.225 795.224 806.481 795.224H796.786C690.592 795.224 678.643 740.886 678.643 711.35V704.587C678.643 674.6 690.592 621.615 796.786 621.615ZM869.386 709.321V706.165C869.386 687 858.339 662.199 801.521 662.199C743.802 662.199 733.656 687 733.656 706.165V708.87C733.656 728.035 744.704 754.414 801.521 754.414C857.888 754.414 869.386 728.711 869.386 709.321Z" fill="#BFFF00"/>
<path d="M554.666 795.224H545.422C448.247 795.224 433.141 740.886 433.141 711.125V704.587C433.141 674.149 446.218 621.615 545.422 621.615H554.666C651.842 621.615 666.948 668.061 666.948 687.677V690.157H611.258C609.906 685.647 603.142 662.199 549.932 662.199C499.653 662.199 488.154 684.746 488.154 705.714V708.419C488.154 728.26 501.457 754.414 550.383 754.414C604.72 754.414 610.131 728.486 611.484 724.653H667.174V727.133C667.174 748.327 650.489 795.224 554.666 795.224Z" fill="#BFFF00"/>
<path d="M239.557 624.544H416.322V662.648H291.414V687.449H413.391V725.778H291.414V753.285H418.576V792.29H239.557V624.544Z" fill="#BFFF00"/>
<path d="M123.346 795.224H107.788C19.8569 795.224 9.71094 757.345 9.71094 735.25V732.77H64.499C65.1754 742.916 71.0375 759.375 114.327 759.375H117.483C161.675 759.375 166.635 750.581 166.635 741.563C166.635 731.868 161.449 725.78 122.669 724.653L93.8095 723.977C31.1301 722.173 11.9656 700.979 11.9656 674.825V672.796C11.9656 647.769 26.8463 621.615 103.279 621.615H118.836C198.2 621.615 216.237 649.347 216.237 674.6V676.854H161.675C160.547 670.541 157.165 656.788 113.2 656.788H109.592C69.0083 656.788 66.0773 664.003 66.0773 671.218C66.0773 678.433 70.5866 684.971 104.857 685.647L133.041 686.098C196.171 687.226 221.648 702.557 221.648 735.926V739.083C221.648 766.815 207.67 795.224 123.346 795.224Z" fill="#BFFF00"/>
<path d="M2555.71 5.86816H2909.24V82.0755H2659.42V131.678H2903.37V208.336H2659.42V263.35H2913.75V341.361H2555.71V5.86816Z" fill="#BFFF00"/>
<path d="M2266.82 341.361V85.232H2122.52V5.86816H2517.54V85.232H2372.79V341.361H2266.82Z" fill="#BFFF00"/>
<path d="M2084.34 5.86816V341.361H1979.27V5.86816H2084.34Z" fill="#BFFF00"/>
<path d="M1746.85 347.217H1715.73C1539.87 347.217 1519.58 271.46 1519.58 227.269V222.309H1629.15C1630.51 242.601 1642.23 275.519 1728.81 275.519H1735.12C1823.51 275.519 1833.43 257.932 1833.43 239.895C1833.43 220.505 1823.05 208.33 1745.49 206.075L1687.78 204.723C1562.42 201.115 1524.09 158.728 1524.09 106.42V102.361C1524.09 52.308 1553.85 0 1706.71 0H1737.83C1896.56 0 1932.63 55.4645 1932.63 105.969V110.478H1823.51C1821.25 97.852 1814.49 70.3452 1726.56 70.3452H1719.34C1638.17 70.3452 1632.31 84.775 1632.31 99.2048C1632.31 113.635 1641.33 126.712 1709.87 128.064L1766.24 128.966C1892.5 131.221 1943.45 161.884 1943.45 228.622V234.935C1943.45 290.399 1915.5 347.217 1746.85 347.217Z" fill="#BFFF00"/>
<path d="M1074.33 341.361V5.86816H1361.57C1457.62 5.86816 1484.22 42.8445 1484.22 82.5264V88.8395C1484.22 132.58 1447.25 149.264 1431.01 154.224C1454.01 160.087 1503.16 179.477 1503.16 238.548V244.862C1503.16 297.62 1472.95 341.361 1364.28 341.361H1074.33ZM1343.53 76.6643H1179.4V131.227H1343.53C1372.84 131.227 1380.06 117.699 1380.06 104.171V103.269C1380.06 89.2904 1372.84 76.6643 1343.53 76.6643ZM1352.55 202.474H1179.4V268.31H1352.55C1387.27 268.31 1394.04 248.92 1394.04 235.392V233.588C1394.04 219.158 1387.27 202.474 1352.55 202.474Z" fill="#BFFF00"/>
<path d="M672.719 5.86816H1026.25V82.0755H776.433V131.678H1020.39V208.336H776.433V263.35H1030.76V341.361H672.719V5.86816Z" fill="#BFFF00"/>
<path d="M253.874 341.361H137.985L0 5.86816H114.536L201.115 236.745L275.97 5.86816H387.801L464.459 229.981L549.234 5.86816H652.497L516.767 341.361H410.798L330.081 116.797L253.874 341.361Z" fill="#BFFF00"/>
</svg>
