<svg width="2087" height="709" viewBox="0 0 2087 709" fill="none" xmlns="http://www.w3.org/2000/svg">
<rect x="261" y="294" width="312.569" height="203.738" fill="#4B2991"/>
<rect y="362" width="313" height="196" fill="#4B2991"/>
<rect x="62" y="119" width="312.569" height="203.738" fill="#4B2991"/>
<rect x="511" width="316" height="204" fill="#4B2991"/>
<rect x="549" y="354" width="322" height="204" fill="#4B2991"/>
<rect x="453" y="232" width="294" height="204" fill="#4B2991"/>
<rect x="805" y="301" width="322" height="204" fill="#4B2991"/>
<rect x="682" y="144" width="322" height="237" fill="#4B2991"/>
<rect x="1041" y="172" width="322" height="209" fill="#4B2991"/>
<rect x="1041" y="460" width="322" height="204" fill="#4B2991"/>
<rect x="1202" y="59" width="322" height="204" fill="#4B2991"/>
<rect x="1443" y="505" width="322" height="204" fill="#4B2991"/>
<rect x="1604" y="334" width="322" height="204" fill="#4B2991"/>
<rect x="1698" y="208" width="322" height="204" fill="#4B2991"/>
<rect x="1765" y="102" width="322" height="204" fill="#4B2991"/>
<rect x="1202" y="427" width="322" height="156" fill="#4B2991"/>
<rect width="299" height="192" fill="#4B2991"/>
</svg>
