<svg width="1250" height="378" viewBox="0 0 1250 378" fill="none" xmlns="http://www.w3.org/2000/svg">
<path d="M951.184 285.992H982.596L1039.98 342.534V285.992H1067.77V375.879H1039.98L978.971 316.317V375.879H951.184V285.992Z" fill="white"/>
<path d="M872.698 284.424H877.893C934.435 284.424 941.079 312.815 941.079 328.884V332.508C941.079 348.335 934.555 377.452 877.893 377.452H872.698C815.794 377.452 809.391 348.335 809.391 332.508V328.884C809.391 312.815 815.794 284.424 872.698 284.424ZM911.6 331.421V329.73C911.6 319.46 905.681 306.171 875.235 306.171C844.306 306.171 838.87 319.46 838.87 329.73V331.179C838.87 341.449 844.79 355.584 875.235 355.584C905.439 355.584 911.6 341.811 911.6 331.421Z" fill="white"/>
<path d="M799.291 285.992V375.879H771.141V285.992H799.291Z" fill="white"/>
<path d="M693.731 375.879V307.256H655.07V285.992H760.905V307.256H722.123V375.879H693.731Z" fill="white"/>
<path d="M621.685 339.151L604.287 305.443L587.615 339.151H621.685ZM640.532 375.879L632.075 359.448H577.587L569.493 375.879H540.859L586.286 285.992H622.772L670.857 375.879H640.532Z" fill="white"/>
<path d="M473.067 377.452H470.53C421.841 377.452 410.605 350.268 410.605 332.267V328.884C410.605 311.366 419.787 284.424 471.496 284.424H476.691C526.951 284.424 535.77 306.291 536.253 318.494V318.615H506.291C505.566 316.561 502.304 305.808 474.275 305.808C446.85 305.808 440.084 317.648 440.084 330.092V331.421C440.084 343.14 449.266 355.584 474.034 355.584C500.734 355.584 508.828 345.315 508.828 342.778V342.536H473.55V325.501H536.858V375.881H519.943C519.581 372.619 517.889 365.612 516.319 361.866C512.453 366.337 500.855 377.452 473.067 377.452Z" fill="white"/>
<path d="M400.505 285.992V375.879H372.355V285.992H400.505Z" fill="white"/>
<path d="M323.472 375.879H288.435L241.68 285.992H273.575L306.678 352.078L337.728 285.992H366.965L323.472 375.879Z" fill="white"/>
<path d="M211.575 339.151L194.178 305.443L177.506 339.151H211.575ZM230.423 375.879L221.966 359.448H167.478L159.383 375.879H130.75L176.177 285.992H212.663L260.747 375.879H230.423Z" fill="white"/>
<path d="M9.20312 285.992H40.6151L98.0024 342.534V285.992H125.79V375.879H98.0024L36.9906 316.317V375.879H9.20312V285.992Z" fill="white"/>
<path d="M1095.57 2.5127H1247.12V35.1812H1140.03V56.4447H1244.61V89.3064H1140.03V112.89H1249.06V146.331H1095.57V2.5127Z" fill="#BFFF00"/>
<path d="M971.725 146.331V36.5343H909.867V2.5127H1079.2V36.5343H1017.15V146.331H971.725Z" fill="#BFFF00"/>
<path d="M893.509 2.5127V146.331H848.469V2.5127H893.509Z" fill="#BFFF00"/>
<path d="M748.836 148.844H735.498C660.109 148.844 651.41 116.369 651.41 97.4255V95.2991H698.383C698.963 103.998 703.989 118.109 741.103 118.109H743.81C781.697 118.109 785.95 110.57 785.95 102.838C785.95 94.5259 781.504 89.3067 748.256 88.3402L723.513 87.7603C669.774 86.2138 653.343 68.0432 653.343 45.6199V43.8801C653.343 22.4233 666.101 0 731.632 0H744.97C813.013 0 828.477 23.7765 828.477 45.4266V47.3596H781.697C780.731 41.9471 777.831 30.1555 740.137 30.1555H737.044C702.249 30.1555 699.736 36.3413 699.736 42.527C699.736 48.7127 703.602 54.3186 732.985 54.8985L757.148 55.2851C811.273 56.2516 833.116 69.3963 833.116 98.0054V100.712C833.116 124.488 821.132 148.844 748.836 148.844Z" fill="#BFFF00"/>
<path d="M460.539 146.331V2.5127H583.674C624.848 2.5127 636.253 18.3637 636.253 35.3745V38.0807C636.253 56.8313 620.402 63.9835 613.443 66.1099C623.301 68.6228 644.372 76.9349 644.372 102.258V104.964C644.372 127.581 631.42 146.331 584.834 146.331H460.539ZM575.942 32.8615H505.579V56.2514H575.942C588.507 56.2514 591.6 50.4522 591.6 44.6531V44.2665C591.6 38.274 588.507 32.8615 575.942 32.8615ZM579.808 86.7935H505.579V115.016H579.808C594.692 115.016 597.592 106.704 597.592 100.905V100.131C597.592 93.9457 594.692 86.7935 579.808 86.7935Z" fill="#BFFF00"/>
<path d="M288.375 2.5127H439.926V35.1812H332.835V56.4447H437.413V89.3064H332.835V112.89H441.859V146.331H288.375V2.5127Z" fill="#BFFF00"/>
<path d="M108.83 146.331H59.1512L0 2.5127H49.0994L86.2138 101.485L118.302 2.5127H166.242L199.104 98.5851L235.445 2.5127H279.712L221.527 146.331H176.1L141.499 50.0656L108.83 146.331Z" fill="#BFFF00"/>
</svg>
