<svg width="3438" height="1060" viewBox="0 0 3438 1060" fill="none" xmlns="http://www.w3.org/2000/svg">
<path d="M2662.3 1057.07V948.184H2600.95V914.443H2768.89V948.184H2707.35V1057.07H2662.3Z" fill="#BFFF00"/>
<path d="M2498.54 1059.57H2490.68C2408.05 1059.57 2395.21 1013.37 2395.21 988.061V982.501C2395.21 956.621 2406.33 911.953 2490.68 911.953H2498.54C2581.16 911.953 2594.01 951.445 2594.01 968.123V970.232H2546.66C2545.5 966.398 2539.75 946.46 2494.51 946.46C2451.76 946.46 2441.98 965.631 2441.98 983.46V985.76C2441.98 1002.63 2453.29 1024.87 2494.89 1024.87C2541.1 1024.87 2545.7 1002.82 2546.85 999.563H2594.2V1001.67C2594.2 1019.69 2580.01 1059.57 2498.54 1059.57Z" fill="#BFFF00"/>
<path d="M2326.51 998.794L2298.9 945.308L2272.45 998.794H2326.51ZM2356.42 1057.07L2343 1031H2256.54L2243.69 1057.07H2198.26L2270.34 914.443H2328.23L2404.53 1057.07H2356.42Z" fill="#BFFF00"/>
<path d="M2064.18 914.443H2211.6V946.842H2108.65V967.929H2209.11V1000.52H2108.65V1057.07H2064.18V914.443Z" fill="#BFFF00"/>
<path d="M2042.38 914.443V1057.07H1997.71V914.443H2042.38Z" fill="#BFFF00"/>
<path d="M1874.88 1057.07V948.184H1813.54V914.443H1981.47V948.184H1919.93V1057.07H1874.88Z" fill="#BFFF00"/>
<path d="M1670.58 946.842V974.831H1738.25C1751.09 974.831 1756.27 968.696 1756.27 960.836V960.645C1756.27 953.168 1751.29 946.842 1738.25 946.842H1670.58ZM1670.58 1006.46V1057.07H1625.91V914.443H1740.93C1788.48 914.443 1802.86 930.93 1802.86 951.443V953.743C1802.86 974.256 1785.79 981.924 1776.4 984.991C1790.97 989.209 1803.43 999.369 1803.43 1017.77V1038.67C1803.43 1050.17 1804.77 1053.81 1806.11 1056.11V1057.07H1760.68C1759.34 1055.35 1758.57 1053.24 1758.57 1048.06V1031.58C1758.57 1014.13 1750.9 1006.46 1728.86 1006.46H1670.58Z" fill="#BFFF00"/>
<path d="M1540.03 998.794L1512.42 945.308L1485.97 998.794H1540.03ZM1569.94 1057.07L1556.52 1031H1470.06L1457.21 1057.07H1411.78L1483.86 914.443H1541.75L1618.05 1057.07H1569.94Z" fill="#BFFF00"/>
<path d="M1241.29 1057.07V1001.86L1164.99 914.443H1220.4L1264.68 966.971L1309.73 914.443H1360.15L1285.96 1001.86V1057.07H1241.29Z" fill="#BFFF00"/>
<path d="M1037.98 946.842V974.831H1105.66C1118.5 974.831 1123.68 968.696 1123.68 960.836V960.645C1123.68 953.168 1118.69 946.842 1105.66 946.842H1037.98ZM1037.98 1006.46V1057.07H993.316V914.443H1108.34C1155.88 914.443 1170.26 930.93 1170.26 951.443V953.743C1170.26 974.256 1153.2 981.924 1143.81 984.991C1158.38 989.209 1170.84 999.369 1170.84 1017.77V1038.67C1170.84 1050.17 1172.18 1053.81 1173.52 1056.11V1057.07H1128.09C1126.74 1055.35 1125.98 1053.24 1125.98 1048.06V1031.58C1125.98 1014.13 1118.31 1006.46 1096.26 1006.46H1037.98Z" fill="#BFFF00"/>
<path d="M907.435 998.794L879.829 945.308L853.374 998.794H907.435ZM937.341 1057.07L923.922 1031H837.462L824.618 1057.07H779.184L851.265 914.443H909.161L985.46 1057.07H937.341Z" fill="#BFFF00"/>
<path d="M771.39 914.443V1057.07H726.723V914.443H771.39Z" fill="#BFFF00"/>
<path d="M603.889 1057.07V948.184H542.543V914.443H710.478V948.184H648.94V1057.07H603.889Z" fill="#BFFF00"/>
<path d="M399.586 946.842V974.831H467.258C480.102 974.831 485.278 968.696 485.278 960.836V960.645C485.278 953.168 480.294 946.842 467.258 946.842H399.586ZM399.586 1006.46V1057.07H354.918V914.443H469.942C517.485 914.443 531.863 930.93 531.863 951.443V953.743C531.863 974.256 514.801 981.924 505.408 984.991C519.977 989.209 532.438 999.369 532.438 1017.77V1038.67C532.438 1050.17 533.78 1053.81 535.122 1056.11V1057.07H489.688C488.346 1055.35 487.579 1053.24 487.579 1048.06V1031.58C487.579 1014.13 479.911 1006.46 457.864 1006.46H399.586Z" fill="#BFFF00"/>
<path d="M184.18 914.443H334.478V946.842H228.272V967.929H331.985V1000.52H228.272V1023.91H336.395V1057.07H184.18V914.443Z" fill="#BFFF00"/>
<path d="M61.3461 1057.07V948.184H0V914.443H167.935V948.184H106.397V1057.07H61.3461Z" fill="#BFFF00"/>
<path d="M3067.71 388.402H3167.4L3349.52 567.84V388.402H3437.71V673.662H3349.52L3155.9 484.639V673.662H3067.71V388.402Z" fill="#BFFF00"/>
<path d="M2818.64 383.413H2835.13C3014.56 383.413 3035.65 473.515 3035.65 524.509V536.011C3035.65 586.238 3014.95 678.641 2835.13 678.641H2818.64C2638.05 678.641 2617.73 586.238 2617.73 536.011V524.509C2617.73 473.515 2638.05 383.413 2818.64 383.413ZM2942.1 532.561V527.193C2942.1 494.603 2923.31 452.427 2826.69 452.427C2728.54 452.427 2711.28 494.603 2711.28 527.193V531.794C2711.28 564.384 2730.07 609.243 2826.69 609.243C2922.54 609.243 2942.1 565.534 2942.1 532.561Z" fill="#BFFF00"/>
<path d="M2585.68 388.402V673.662H2496.34V388.402H2585.68Z" fill="#BFFF00"/>
<path d="M2250.71 673.662V455.883H2128.02V388.402H2463.89V455.883H2340.81V673.662H2250.71Z" fill="#BFFF00"/>
<path d="M1901.67 383.413H1918.15C2097.59 383.413 2118.68 473.515 2118.68 524.509V536.011C2118.68 586.238 2097.97 678.641 1918.15 678.641H1901.67C1721.08 678.641 1700.76 586.238 1700.76 536.011V524.509C1700.76 473.515 1721.08 383.413 1901.67 383.413ZM2025.13 532.561V527.193C2025.13 494.603 2006.34 452.427 1909.72 452.427C1811.56 452.427 1794.31 494.603 1794.31 527.193V531.794C1794.31 564.384 1813.1 609.243 1909.72 609.243C2005.57 609.243 2025.13 565.534 2025.13 532.561Z" fill="#BFFF00"/>
<path d="M1221.79 673.662V388.402H1348.7L1447.24 565.923L1546.16 388.402H1668.47V673.662H1580.28V476.204L1467.94 673.662H1420.02L1307.68 476.204V673.662H1221.79Z" fill="#BFFF00"/>
<path d="M972.713 383.413H989.2C1168.64 383.413 1189.72 473.515 1189.72 524.509V536.011C1189.72 586.238 1169.02 678.641 989.2 678.641H972.713C792.126 678.641 771.805 586.238 771.805 536.011V524.509C771.805 473.515 792.126 383.413 972.713 383.413ZM1096.17 532.561V527.193C1096.17 494.603 1077.38 452.427 980.765 452.427C882.611 452.427 865.357 494.603 865.357 527.193V531.794C865.357 564.384 884.145 609.243 980.765 609.243C1076.62 609.243 1096.17 565.534 1096.17 532.561Z" fill="#BFFF00"/>
<path d="M482.519 453.199V509.177H617.864C643.552 509.177 653.904 496.908 653.904 481.188V480.805C653.904 465.852 643.936 453.199 617.864 453.199H482.519ZM482.519 572.441V673.662H393.184V388.402H623.231C718.318 388.402 747.074 421.376 747.074 462.401V467.002C747.074 508.027 712.95 523.364 694.163 529.498C723.302 537.933 748.224 558.254 748.224 595.062V636.854C748.224 659.859 750.908 667.144 753.592 671.744V673.662H662.723C660.039 670.211 658.505 665.993 658.505 655.641V622.668C658.505 587.777 643.169 572.441 599.076 572.441H482.519Z" fill="#BFFF00"/>
<path d="M230.456 578.575H105.847V673.662H16.5117V388.402H230.456C333.211 388.402 363.5 429.044 363.5 481.188V485.022C363.5 536.016 332.444 578.575 230.456 578.575ZM105.847 453.199V514.545H228.922C256.912 514.545 270.331 504.193 270.331 484.639V483.489C270.331 463.935 257.678 453.199 228.922 453.199H105.847Z" fill="#BFFF00"/>
<path d="M1987.12 4.98926H2287.72V69.786H2075.31V111.961H2282.73V177.142H2075.31V223.918H2291.55V290.248H1987.12V4.98926Z" fill="#BFFF00"/>
<path d="M1573.38 4.98926H1673.07L1855.19 184.426V4.98926H1943.37V290.248H1855.19L1661.56 101.226V290.248H1573.38V4.98926Z" fill="#BFFF00"/>
<path d="M1529.79 4.98926V290.248H1440.46V4.98926H1529.79Z" fill="#BFFF00"/>
<path d="M1119.95 4.98926H1209.28V219.317H1407.51V290.248H1119.95V4.98926Z" fill="#BFFF00"/>
<path d="M787.457 4.98926H1082.3V69.786H876.409V111.961H1077.32V177.142H876.409V290.248H787.457V4.98926Z" fill="#BFFF00"/>
<path d="M454.965 4.98926H749.809V69.786H543.917V111.961H744.825V177.142H543.917V290.248H454.965V4.98926Z" fill="#BFFF00"/>
<path d="M205.889 0H222.376C401.813 0 422.9 90.102 422.9 141.096V152.598C422.9 202.825 402.196 295.228 222.376 295.228H205.889C25.3014 295.228 4.98047 202.825 4.98047 152.598V141.096C4.98047 90.102 25.3014 0 205.889 0ZM329.348 149.148V143.78C329.348 111.19 310.561 69.0143 213.94 69.0143C115.787 69.0143 98.5332 111.19 98.5332 143.78V148.381C98.5332 180.971 117.32 225.83 213.94 225.83C309.794 225.83 329.348 182.121 329.348 149.148Z" fill="#BFFF00"/>
</svg>
