<svg width="2627" height="745" viewBox="0 0 2627 745" fill="none" xmlns="http://www.w3.org/2000/svg">
<rect x="668" y="315" width="312.569" height="203.738" fill="#4B2991"/>
<rect x="407" y="425" width="313" height="320" fill="#4B2991"/>
<rect x="94" y="315" width="313" height="430" fill="#4B2991"/>
<rect x="469" y="140" width="312.569" height="203.738" fill="#4B2991"/>
<rect x="856" y="238" width="316" height="204" fill="#4B2991"/>
<rect x="956" y="375" width="322" height="204" fill="#4B2991"/>
<rect x="983" y="65" width="294" height="204" fill="#4B2991"/>
<rect x="1212" y="363" width="322" height="204" fill="#4B2991"/>
<rect x="1373" y="1" width="322" height="237" fill="#4B2991"/>
<rect x="1406" y="284" width="322" height="209" fill="#4B2991"/>
<rect x="1448" y="481" width="322" height="264" fill="#4B2991"/>
<rect x="1612" y="140" width="322" height="204" fill="#4B2991"/>
<rect x="1769" y="59" width="322" height="204" fill="#4B2991"/>
<rect x="2039" y="315" width="322" height="204" fill="#4B2991"/>
<rect x="2187" y="167" width="322" height="204" fill="#4B2991"/>
<rect x="2305" y="404" width="322" height="204" fill="#4B2991"/>
<rect x="1585" y="481" width="322" height="264" fill="#4B2991"/>
<rect x="1907" y="417" width="322" height="204" fill="#4B2991"/>
<rect x="299" y="71" width="299" height="192" fill="#4B2991"/>
<rect width="299" height="192" fill="#4B2991"/>
</svg>
