<svg width="2844" height="1018" viewBox="0 0 2844 1018" fill="none" xmlns="http://www.w3.org/2000/svg">
<path d="M1271.2 1017.07H1257.5C1180.1 1017.07 1171.16 983.722 1171.16 964.271V962.088H1219.4C1219.99 971.019 1225.15 985.509 1263.26 985.509H1266.04C1304.94 985.509 1309.31 977.768 1309.31 969.828C1309.31 961.294 1304.74 955.935 1270.6 954.942L1245.2 954.347C1190.02 952.759 1173.15 934.101 1173.15 911.077V909.291C1173.15 887.259 1186.25 864.235 1253.53 864.235H1267.23C1337.1 864.235 1352.97 888.649 1352.97 910.879V912.864H1304.94C1303.95 907.306 1300.97 895.199 1262.27 895.199H1259.09C1223.37 895.199 1220.78 901.55 1220.78 907.902C1220.78 914.253 1224.75 920.009 1254.92 920.605L1279.73 921.002C1335.31 921.994 1357.74 935.491 1357.74 964.866V967.645C1357.74 992.058 1345.43 1017.07 1271.2 1017.07Z" fill="white"/>
<path d="M1023 900.357V929.336H1093.07C1106.37 929.336 1111.73 922.984 1111.73 914.846V914.648C1111.73 906.907 1106.57 900.357 1093.07 900.357H1023ZM1023 962.085V1014.48H976.758V866.813H1095.85C1145.07 866.813 1159.96 883.883 1159.96 905.121V907.503C1159.96 928.74 1142.29 936.68 1132.57 939.855C1147.65 944.222 1160.55 954.741 1160.55 973.796V995.431C1160.55 1007.34 1161.94 1011.11 1163.33 1013.49V1014.48H1116.29C1114.9 1012.7 1114.11 1010.52 1114.11 1005.16V988.087C1114.11 970.025 1106.17 962.085 1083.34 962.085H1023Z" fill="white"/>
<path d="M799.98 866.813H955.591V900.357H845.632V922.19H953.011V955.932H845.632V980.147H957.576V1014.48H799.98V866.813Z" fill="white"/>
<path d="M672.804 1014.48V901.746H609.289V866.813H783.16V901.746H719.447V1014.48H672.804Z" fill="white"/>
<path d="M517.196 1017.07H503.5C426.092 1017.07 417.16 983.722 417.16 964.271V962.088H465.392C465.987 971.019 471.148 985.509 509.256 985.509H512.035C550.938 985.509 555.304 977.768 555.304 969.828C555.304 961.294 550.739 955.935 516.6 954.942L491.194 954.347C436.016 952.759 419.145 934.101 419.145 911.077V909.291C419.145 887.259 432.245 864.235 499.531 864.235H513.226C583.092 864.235 598.971 888.649 598.971 910.879V912.864H550.938C549.945 907.306 546.968 895.199 508.264 895.199H505.088C469.361 895.199 466.781 901.55 466.781 907.902C466.781 914.253 470.751 920.009 500.92 920.605L525.73 921.002C581.306 921.994 603.734 935.491 603.734 964.866V967.645C603.734 992.058 591.428 1017.07 517.196 1017.07Z" fill="white"/>
<path d="M295.783 864.235H304.317C397.207 864.235 408.124 910.879 408.124 937.277V943.232C408.124 969.233 397.406 1017.07 304.317 1017.07H295.783C202.297 1017.07 191.777 969.233 191.777 943.232V937.277C191.777 910.879 202.297 864.235 295.783 864.235ZM359.694 941.445V938.667C359.694 921.795 349.968 899.962 299.951 899.962C249.139 899.962 240.207 921.795 240.207 938.667V941.048C240.207 957.919 249.933 981.142 299.951 981.142C349.571 981.142 359.694 958.515 359.694 941.445Z" fill="white"/>
<path d="M113.504 965.261H48.9966V1014.48H2.75V866.813H113.504C166.697 866.813 182.377 887.853 182.377 914.846V916.831C182.377 943.229 166.3 965.261 113.504 965.261ZM48.9966 900.357V932.114H112.71C127.199 932.114 134.146 926.755 134.146 916.633V916.037C134.146 905.915 127.596 900.357 112.71 900.357H48.9966Z" fill="white"/>
<path d="M2536.79 401.094H2619.35L2770.2 549.718V401.094H2843.24V637.368H2770.2L2609.83 480.805V637.368H2536.79V401.094Z" fill="#4B2991"/>
<path d="M2330.49 396.967H2344.15C2492.77 396.967 2510.24 471.596 2510.24 513.834V523.361C2510.24 564.963 2493.09 641.498 2344.15 641.498H2330.49C2180.92 641.498 2164.09 564.963 2164.09 523.361V513.834C2164.09 471.596 2180.92 396.967 2330.49 396.967ZM2432.75 520.503V516.057C2432.75 489.063 2417.19 454.13 2337.16 454.13C2255.86 454.13 2241.57 489.063 2241.57 516.057V519.868C2241.57 546.861 2257.13 584.017 2337.16 584.017C2416.56 584.017 2432.75 547.814 2432.75 520.503Z" fill="#4B2991"/>
<path d="M2137.52 401.094V637.368H2063.52V401.094H2137.52Z" fill="#4B2991"/>
<path d="M1860.06 637.368V456.987H1758.43V401.094H2036.63V456.987H1934.69V637.368H1860.06Z" fill="#4B2991"/>
<path d="M1570.99 396.967H1584.64C1733.27 396.967 1750.73 471.596 1750.73 513.834V523.361C1750.73 564.963 1733.58 641.498 1584.64 641.498H1570.99C1421.41 641.498 1404.58 564.963 1404.58 523.361V513.834C1404.58 471.596 1421.41 396.967 1570.99 396.967ZM1673.24 520.503V516.057C1673.24 489.063 1657.68 454.13 1577.66 454.13C1496.36 454.13 1482.07 489.063 1482.07 516.057V519.868C1482.07 546.861 1497.63 584.017 1577.66 584.017C1657.05 584.017 1673.24 547.814 1673.24 520.503Z" fill="#4B2991"/>
<path d="M1007.84 637.368V401.094H1112.96L1194.58 548.13L1276.51 401.094H1377.82V637.368H1304.77V473.818L1211.73 637.368H1172.03L1078.98 473.818V637.368H1007.84Z" fill="#4B2991"/>
<path d="M801.553 396.967H815.208C963.833 396.967 981.299 471.596 981.299 513.834V523.361C981.299 564.963 964.15 641.498 815.208 641.498H801.553C651.976 641.498 635.145 564.963 635.145 523.361V513.834C635.145 471.596 651.976 396.967 801.553 396.967ZM903.811 520.503V516.057C903.811 489.063 888.25 454.13 808.222 454.13C726.923 454.13 712.632 489.063 712.632 516.057V519.868C712.632 546.861 728.193 584.017 808.222 584.017C887.615 584.017 903.811 547.814 903.811 520.503Z" fill="#4B2991"/>
<path d="M395.522 454.764V501.129H507.625C528.903 501.129 537.477 490.967 537.477 477.946V477.629C537.477 465.243 529.22 454.764 507.625 454.764H395.522ZM395.522 553.529V637.368H321.527V401.094H512.071C590.829 401.094 614.647 428.405 614.647 462.385V466.196C614.647 500.177 586.383 512.879 570.822 517.961C594.958 524.947 615.6 541.779 615.6 572.266V606.881C615.6 625.935 617.823 631.969 620.046 635.78V637.368H544.781C542.558 634.51 541.288 631.017 541.288 622.442V595.131C541.288 566.232 528.585 553.529 492.064 553.529H395.522Z" fill="#4B2991"/>
<path d="M186.741 558.61H83.5297V637.368H9.53516V401.094H186.741C271.85 401.094 296.939 434.756 296.939 477.946V481.122C296.939 523.359 271.215 558.61 186.741 558.61ZM83.5297 454.764V505.575H185.471C208.653 505.575 219.769 497.001 219.769 480.805V479.852C219.769 463.656 209.289 454.764 185.471 454.764H83.5297Z" fill="#4B2991"/>
<path d="M1641.75 4.12891H1890.73V57.7987H1714.79V92.7318H1886.6V146.719H1714.79V185.463H1893.9V240.403H1641.75V4.12891Z" fill="#4B2991"/>
<path d="M1299.06 4.12891H1381.63L1532.47 152.753V4.12891H1605.52V240.403H1532.47L1372.1 83.8397V240.403H1299.06V4.12891Z" fill="#4B2991"/>
<path d="M1262.96 4.12891V240.403H1188.96V4.12891H1262.96Z" fill="#4B2991"/>
<path d="M923.488 4.12891H997.483V181.652H1161.67V240.403H923.488V4.12891Z" fill="#4B2991"/>
<path d="M648.098 4.12891H892.311V57.7987H721.775V92.7318H888.183V146.719H721.775V240.403H648.098V4.12891Z" fill="#4B2991"/>
<path d="M372.695 4.12891H616.909V57.7987H446.372V92.7318H612.78V146.719H446.372V240.403H372.695V4.12891Z" fill="#4B2991"/>
<path d="M166.408 0H180.064C328.688 0 346.155 74.6297 346.155 116.867V126.394C346.155 167.996 329.006 244.531 180.064 244.531H166.408C16.8314 244.531 0 167.996 0 126.394V116.867C0 74.6297 16.8314 0 166.408 0ZM268.667 123.536V119.09C268.667 92.0962 253.106 57.1631 173.077 57.1631C91.7786 57.1631 77.4878 92.0962 77.4878 119.09V122.901C77.4878 149.894 93.0489 187.051 173.077 187.051C252.471 187.051 268.667 150.847 268.667 123.536Z" fill="#4B2991"/>
</svg>
