<svg width="3629" height="1119" viewBox="0 0 3629 1119" fill="none" xmlns="http://www.w3.org/2000/svg">
<path d="M2292.77 1003.83H2299.15C2368.68 1003.83 2376.85 1038.74 2376.85 1058.5V1062.96C2376.85 1082.42 2368.83 1118.22 2299.15 1118.22H2292.77C2222.79 1118.22 2214.92 1082.42 2214.92 1062.96V1058.5C2214.92 1038.74 2222.79 1003.83 2292.77 1003.83ZM2340.6 1061.62V1059.54C2340.6 1046.91 2333.32 1030.57 2295.89 1030.57C2257.85 1030.57 2251.17 1046.91 2251.17 1059.54V1061.32C2251.17 1073.95 2258.45 1091.33 2295.89 1091.33C2333.03 1091.33 2340.6 1074.39 2340.6 1061.62Z" fill="#BFFF00"/>
<path d="M2202.49 1005.76V1116.29H2167.87V1005.76H2202.49Z" fill="#BFFF00"/>
<path d="M2051.32 1030.87V1052.56H2103.76C2113.71 1052.56 2117.72 1047.8 2117.72 1041.71V1041.56C2117.72 1035.77 2113.86 1030.87 2103.76 1030.87H2051.32ZM2051.32 1077.07V1116.29H2016.7V1005.76H2105.84C2142.68 1005.76 2153.82 1018.53 2153.82 1034.43V1036.21C2153.82 1052.11 2140.6 1058.05 2133.32 1060.43C2144.61 1063.7 2154.27 1071.57 2154.27 1085.83V1102.03C2154.27 1110.94 2155.31 1113.76 2156.35 1115.55V1116.29H2121.14C2120.1 1114.95 2119.51 1113.32 2119.51 1109.31V1096.53C2119.51 1083.01 2113.56 1077.07 2096.48 1077.07H2051.32Z" fill="#BFFF00"/>
<path d="M1950.16 1071.13L1928.76 1029.68L1908.26 1071.13H1950.16ZM1973.33 1116.29L1962.93 1096.08H1895.93L1885.98 1116.29H1850.77L1906.63 1005.76H1951.49L2010.62 1116.29H1973.33Z" fill="#BFFF00"/>
<path d="M1671.56 1116.29V1005.76H1720.73L1758.91 1074.54L1797.24 1005.76H1844.63V1116.29H1810.46V1039.78L1766.94 1116.29H1748.37L1704.84 1039.78V1116.29H1671.56Z" fill="#BFFF00"/>
<path d="M1654.67 1005.76V1116.29H1620.06V1005.76H1654.67Z" fill="#BFFF00"/>
<path d="M1503.5 1030.87V1052.56H1555.94C1565.9 1052.56 1569.91 1047.8 1569.91 1041.71V1041.56C1569.91 1035.77 1566.04 1030.87 1555.94 1030.87H1503.5ZM1503.5 1077.07V1116.29H1468.89V1005.76H1558.02C1594.86 1005.76 1606.01 1018.53 1606.01 1034.43V1036.21C1606.01 1052.11 1592.78 1058.05 1585.51 1060.43C1596.8 1063.7 1606.45 1071.57 1606.45 1085.83V1102.03C1606.45 1110.94 1607.49 1113.76 1608.53 1115.55V1116.29H1573.32C1572.28 1114.95 1571.69 1113.32 1571.69 1109.31V1096.53C1571.69 1083.01 1565.75 1077.07 1548.66 1077.07H1503.5Z" fill="#BFFF00"/>
<path d="M1405.83 1079.44H1357.55V1116.29H1322.94V1005.76H1405.83C1445.65 1005.76 1457.38 1021.51 1457.38 1041.71V1043.2C1457.38 1062.95 1445.35 1079.44 1405.83 1079.44ZM1357.55 1030.87V1054.64H1405.24C1416.08 1054.64 1421.28 1050.62 1421.28 1043.05V1042.6C1421.28 1035.03 1416.38 1030.87 1405.24 1030.87H1357.55Z" fill="#BFFF00"/>
<path d="M1180.74 1003.83H1187.13C1256.65 1003.83 1264.82 1038.74 1264.82 1058.5V1062.96C1264.82 1082.42 1256.8 1118.22 1187.13 1118.22H1180.74C1110.76 1118.22 1102.89 1082.42 1102.89 1062.96V1058.5C1102.89 1038.74 1110.76 1003.83 1180.74 1003.83ZM1228.57 1061.62V1059.54C1228.57 1046.91 1221.29 1030.57 1183.86 1030.57C1145.83 1030.57 1139.14 1046.91 1139.14 1059.54V1061.32C1139.14 1073.95 1146.42 1091.33 1183.86 1091.33C1221 1091.33 1228.57 1074.39 1228.57 1061.62Z" fill="#BFFF00"/>
<path d="M1016.67 1116.29V1031.91H969.132V1005.76H1099.27V1031.91H1051.58V1116.29H1016.67Z" fill="#BFFF00"/>
<path d="M878.266 1116.29V1031.91H830.727V1005.76H960.866V1031.91H913.178V1116.29H878.266Z" fill="#BFFF00"/>
<path d="M789.672 1071.13L768.279 1029.68L747.778 1071.13H789.672ZM812.847 1116.29L802.448 1096.08H735.447L725.494 1116.29H690.285L746.143 1005.76H791.009L850.136 1116.29H812.847Z" fill="#BFFF00"/>
<path d="M586.372 1005.76H700.615V1030.87H620.838V1047.21H698.683V1072.46H620.838V1116.29H586.372V1005.76Z" fill="#BFFF00"/>
<path d="M454.06 1005.76H570.532V1030.87H488.229V1047.21H568.6V1072.46H488.229V1090.59H572.017V1116.29H454.06V1005.76Z" fill="#BFFF00"/>
<path d="M358.886 1116.29V1031.91H311.346V1005.76H441.485V1031.91H393.797V1116.29H358.886Z" fill="#BFFF00"/>
<path d="M200.548 1030.87V1052.56H252.99C262.944 1052.56 266.955 1047.8 266.955 1041.71V1041.56C266.955 1035.77 263.092 1030.87 252.99 1030.87H200.548ZM200.548 1077.07V1116.29H165.934V1005.76H255.07C291.913 1005.76 303.055 1018.53 303.055 1034.43V1036.21C303.055 1052.11 289.833 1058.05 282.554 1060.43C293.844 1063.7 303.501 1071.57 303.501 1085.83V1102.03C303.501 1110.94 304.541 1113.76 305.581 1115.55V1116.29H270.372C269.332 1114.95 268.738 1113.32 268.738 1109.31V1096.53C268.738 1083.01 262.795 1077.07 245.711 1077.07H200.548Z" fill="#BFFF00"/>
<path d="M99.387 1071.13L77.9943 1029.68L57.4929 1071.13H99.387ZM122.562 1116.29L112.163 1096.08H45.1624L35.2089 1116.29H0L55.8588 1005.76H100.724L159.851 1116.29H122.562Z" fill="#BFFF00"/>
<path d="M2791.67 819.167V733.596L2673.41 598.108H2759.28L2827.91 679.52L2897.74 598.108H2975.88L2860.9 733.596V819.167H2791.67Z" fill="#BFFF00"/>
<path d="M2476.54 648.322V691.702H2581.42C2601.33 691.702 2609.35 682.194 2609.35 670.012V669.715C2609.35 658.127 2601.62 648.322 2581.42 648.322H2476.54ZM2476.54 740.727V819.167H2407.31V598.108H2585.58C2659.26 598.108 2681.55 623.661 2681.55 655.453V659.018C2681.55 690.81 2655.11 702.695 2640.55 707.449C2663.13 713.986 2682.44 729.733 2682.44 758.257V790.643C2682.44 808.47 2684.52 814.116 2686.6 817.681V819.167H2616.18C2614.1 816.492 2612.91 813.224 2612.91 805.202V779.649C2612.91 752.611 2601.03 740.727 2566.86 740.727H2476.54Z" fill="#BFFF00"/>
<path d="M2214.31 594.242H2227.09C2366.14 594.242 2382.48 664.066 2382.48 703.583V712.496C2382.48 751.419 2366.44 823.025 2227.09 823.025H2214.31C2074.37 823.025 2058.62 751.419 2058.62 712.496V703.583C2058.62 664.066 2074.37 594.242 2214.31 594.242ZM2309.98 709.822V705.663C2309.98 680.407 2295.43 647.724 2220.55 647.724C2144.49 647.724 2131.12 680.407 2131.12 705.663V709.228C2131.12 734.483 2145.68 769.247 2220.55 769.247C2294.83 769.247 2309.98 735.375 2309.98 709.822Z" fill="#BFFF00"/>
<path d="M1886.18 819.167V650.402H1791.1V598.108H2051.38V650.402H1956V819.167H1886.18Z" fill="#BFFF00"/>
<path d="M1708.99 728.842L1666.2 645.945L1625.2 728.842H1708.99ZM1755.34 819.167L1734.54 778.758H1600.54L1580.63 819.167H1510.21L1621.93 598.108H1711.66L1829.91 819.167H1755.34Z" fill="#BFFF00"/>
<path d="M1295.89 648.322V691.702H1400.77C1420.68 691.702 1428.7 682.194 1428.7 670.012V669.715C1428.7 658.127 1420.97 648.322 1400.77 648.322H1295.89ZM1295.89 740.727V819.167H1226.66V598.108H1404.93C1478.61 598.108 1500.9 623.661 1500.9 655.453V659.018C1500.9 690.81 1474.45 702.695 1459.9 707.449C1482.48 713.986 1501.79 729.733 1501.79 758.257V790.643C1501.79 808.47 1503.87 814.116 1505.95 817.681V819.167H1435.53C1433.45 816.492 1432.26 813.224 1432.26 805.202V779.649C1432.26 752.611 1420.38 740.727 1386.21 740.727H1295.89Z" fill="#BFFF00"/>
<path d="M1033.66 594.242H1046.44C1185.49 594.242 1201.83 664.066 1201.83 703.583V712.496C1201.83 751.419 1185.79 823.025 1046.44 823.025H1033.66C893.717 823.025 877.969 751.419 877.969 712.496V703.583C877.969 664.066 893.717 594.242 1033.66 594.242ZM1129.33 709.822V705.663C1129.33 680.407 1114.77 647.724 1039.9 647.724C963.837 647.724 950.467 680.407 950.467 705.663V709.228C950.467 734.483 965.026 769.247 1039.9 769.247C1114.18 769.247 1129.33 735.375 1129.33 709.822Z" fill="#BFFF00"/>
<path d="M582.215 819.167V598.108H771.482C834.768 598.108 852.298 622.472 852.298 648.619V652.779C852.298 681.599 827.935 692.593 817.238 695.861C832.391 699.724 864.778 712.5 864.778 751.423V755.583C864.778 790.346 844.87 819.167 773.264 819.167H582.215ZM759.597 644.756H651.445V680.708H759.597C778.91 680.708 783.664 671.794 783.664 662.881V662.287C783.664 653.076 778.91 644.756 759.597 644.756ZM765.539 727.653H651.445V771.033H765.539C788.417 771.033 792.874 758.257 792.874 749.343V748.155C792.874 738.647 788.417 727.653 765.539 727.653Z" fill="#BFFF00"/>
<path d="M449.122 728.842L406.337 645.945L365.334 728.842H449.122ZM495.473 819.167L474.675 778.758H340.673L320.766 819.167H250.348L362.066 598.108H451.796L570.051 819.167H495.473Z" fill="#BFFF00"/>
<path d="M19.3101 598.108H88.5393V764.199H242.151V819.167H19.3101V598.108Z" fill="#BFFF00"/>
<path d="M3392.1 300.988H3625.05V351.202H3460.44V383.885H3621.18V434.396H3460.44V470.644H3628.02V522.046H3392.1V300.988Z" fill="#BFFF00"/>
<path d="M3271.85 522.046H3185.69L3070.7 300.988H3149.14L3230.55 463.514L3306.91 300.988H3378.82L3271.85 522.046Z" fill="#BFFF00"/>
<path d="M3057.43 300.988V522.046H2988.2V300.988H3057.43Z" fill="#BFFF00"/>
<path d="M2797.85 522.046V353.282H2702.78V300.988H2963.05V353.282H2867.68V522.046H2797.85Z" fill="#BFFF00"/>
<path d="M2620.66 431.722L2577.87 348.825L2536.87 431.722H2620.66ZM2667.01 522.046L2646.21 481.638H2512.21L2492.3 522.046H2421.89L2533.6 300.988H2623.33L2741.59 522.046H2667.01Z" fill="#BFFF00"/>
<path d="M2207.56 351.202V394.581H2312.44C2332.35 394.581 2340.37 385.074 2340.37 372.892V372.594C2340.37 361.007 2332.65 351.202 2312.44 351.202H2207.56ZM2207.56 443.606V522.046H2138.33V300.988H2316.6C2390.29 300.988 2412.57 326.541 2412.57 358.333V361.898C2412.57 393.69 2386.13 405.575 2371.57 410.329C2394.15 416.866 2413.46 432.613 2413.46 461.137V493.523C2413.46 511.35 2415.54 516.995 2417.62 520.561V522.046H2347.21C2345.13 519.372 2343.94 516.104 2343.94 508.082V482.529C2343.94 455.491 2332.05 443.606 2297.88 443.606H2207.56Z" fill="#BFFF00"/>
<path d="M1945.33 297.12H1958.11C2097.16 297.12 2113.51 366.944 2113.51 406.461V415.374C2113.51 454.297 2097.46 525.903 1958.11 525.903H1945.33C1805.39 525.903 1789.64 454.297 1789.64 415.374V406.461C1789.64 366.944 1805.39 297.12 1945.33 297.12ZM2041.01 412.7V408.541C2041.01 383.285 2026.45 350.602 1951.57 350.602C1875.51 350.602 1862.14 383.285 1862.14 408.541V412.106C1862.14 437.361 1876.7 472.124 1951.57 472.124C2025.85 472.124 2041.01 438.253 2041.01 412.7Z" fill="#BFFF00"/>
<path d="M1493.89 522.046V300.988H1683.16C1746.44 300.988 1763.97 325.352 1763.97 351.499V355.659C1763.97 384.479 1739.61 395.473 1728.91 398.741C1744.07 402.604 1776.45 415.38 1776.45 454.303V458.463C1776.45 493.226 1756.54 522.046 1684.94 522.046H1493.89ZM1671.27 347.636H1563.12V383.588H1671.27C1690.58 383.588 1695.34 374.674 1695.34 365.761V365.166C1695.34 355.956 1690.58 347.636 1671.27 347.636ZM1677.21 430.533H1563.12V473.913H1677.21C1700.09 473.913 1704.55 461.137 1704.55 452.223V451.034C1704.55 441.527 1700.09 430.533 1677.21 430.533Z" fill="#BFFF00"/>
<path d="M1360.8 431.722L1318.01 348.825L1277.01 431.722H1360.8ZM1407.15 522.046L1386.35 481.638H1252.35L1232.44 522.046H1162.02L1273.74 300.988H1363.47L1481.72 522.046H1407.15Z" fill="#BFFF00"/>
<path d="M930.985 300.988H1000.21V467.079H1153.83V522.046H930.985V300.988Z" fill="#BFFF00"/>
<path d="M682.61 300.988H751.839V467.079H905.451V522.046H682.61V300.988Z" fill="#BFFF00"/>
<path d="M489.616 297.12H502.392C641.445 297.12 657.786 366.944 657.786 406.461V415.374C657.786 454.297 641.742 525.903 502.392 525.903H489.616C349.672 525.903 333.924 454.297 333.924 415.374V406.461C333.924 366.944 349.672 297.12 489.616 297.12ZM585.289 412.7V408.541C585.289 383.285 570.73 350.602 495.855 350.602C419.792 350.602 406.422 383.285 406.422 408.541V412.106C406.422 437.361 420.981 472.124 495.855 472.124C570.136 472.124 585.289 438.253 585.289 412.7Z" fill="#BFFF00"/>
<path d="M170.547 525.903H158.365C30.3056 525.903 10.3984 454.297 10.3984 415.077V406.461C10.3984 366.349 27.6315 297.12 158.365 297.12H170.547C298.606 297.12 318.513 358.327 318.513 384.177V387.445H245.124C243.341 381.503 234.428 350.602 164.307 350.602C98.0492 350.602 82.896 380.314 82.896 407.946V411.512C82.896 437.658 100.426 472.124 164.901 472.124C236.508 472.124 243.639 437.956 245.421 432.904H318.81V436.173C318.81 464.102 296.823 525.903 170.547 525.903Z" fill="#BFFF00"/>
<path d="M2591.56 3.86621H2660.79V169.957H2814.4V224.924H2591.56V3.86621Z" fill="#BFFF00"/>
<path d="M2458.46 134.6L2415.68 51.7027L2374.67 134.6H2458.46ZM2504.81 224.924L2484.01 184.516H2350.01L2330.11 224.924H2259.69L2371.41 3.86621H2461.14L2579.39 224.924H2504.81Z" fill="#BFFF00"/>
<path d="M2247.6 3.86621V224.924H2178.37V3.86621H2247.6Z" fill="#BFFF00"/>
<path d="M1945.26 54.0797V97.4594H2050.14C2070.05 97.4594 2078.07 87.9515 2078.07 75.7695V75.4724C2078.07 63.8847 2070.34 54.0797 2050.14 54.0797H1945.26ZM1945.26 146.484V224.924H1876.03V3.86621H2054.3C2127.99 3.86621 2150.27 29.4186 2150.27 61.2106V64.776C2150.27 96.568 2123.83 108.453 2109.27 113.207C2131.85 119.743 2151.16 135.491 2151.16 164.015V196.401C2151.16 214.228 2153.24 219.873 2155.32 223.439V224.924H2084.9C2082.82 222.25 2081.63 218.982 2081.63 210.96V185.407C2081.63 158.369 2069.75 146.484 2035.58 146.484H1945.26Z" fill="#BFFF00"/>
<path d="M1683.03 0H1695.81C1834.86 0 1851.2 69.8235 1851.2 109.341V118.254C1851.2 157.177 1835.16 228.783 1695.81 228.783H1683.03C1543.09 228.783 1527.34 157.177 1527.34 118.254V109.341C1527.34 69.8235 1543.09 0 1683.03 0ZM1778.7 115.58V111.42C1778.7 86.1651 1764.15 53.4818 1689.27 53.4818C1613.21 53.4818 1599.84 86.1651 1599.84 111.42V114.986C1599.84 140.241 1614.4 175.004 1689.27 175.004C1763.55 175.004 1778.7 141.133 1778.7 115.58Z" fill="#BFFF00"/>
<path d="M1354.9 224.924V56.1595H1259.82V3.86621H1520.1V56.1595H1424.73V224.924H1354.9Z" fill="#BFFF00"/>
<path d="M1234.66 3.86621V224.924H1165.43V3.86621H1234.66Z" fill="#BFFF00"/>
<path d="M932.317 54.0797V97.4594H1037.2C1057.11 97.4594 1065.13 87.9515 1065.13 75.7695V75.4724C1065.13 63.8847 1057.4 54.0797 1037.2 54.0797H932.317ZM932.317 146.484V224.924H863.087V3.86621H1041.36C1115.05 3.86621 1137.33 29.4186 1137.33 61.2106V64.776C1137.33 96.568 1110.89 108.453 1096.33 113.207C1118.91 119.743 1138.22 135.491 1138.22 164.015V196.401C1138.22 214.228 1140.3 219.873 1142.38 223.439V224.924H1071.96C1069.88 222.25 1068.7 218.982 1068.7 210.96V185.407C1068.7 158.369 1056.81 146.484 1022.64 146.484H932.317Z" fill="#BFFF00"/>
<path d="M629.973 54.0797V97.4594H734.857C754.764 97.4594 762.786 87.9515 762.786 75.7695V75.4724C762.786 63.8847 755.061 54.0797 734.857 54.0797H629.973ZM629.973 146.484V224.924H560.744V3.86621H739.016C812.702 3.86621 834.986 29.4186 834.986 61.2106V64.776C834.986 96.568 808.543 108.453 793.984 113.207C816.565 119.743 835.878 135.491 835.878 164.015V196.401C835.878 214.228 837.958 219.873 840.038 223.439V224.924H769.62C767.54 222.25 766.351 218.982 766.351 210.96V185.407C766.351 158.369 754.467 146.484 720.298 146.484H629.973Z" fill="#BFFF00"/>
<path d="M296.12 3.86621H529.063V54.0797H364.458V86.763H525.201V137.274H364.458V173.522H532.034V224.924H296.12V3.86621Z" fill="#BFFF00"/>
<path d="M105.775 224.924V56.1595H10.6958V3.86621H270.974V56.1595H175.598V224.924H105.775Z" fill="#BFFF00"/>
</svg>
