<svg width="4700" height="780" viewBox="0 0 4700 780" fill="none" xmlns="http://www.w3.org/2000/svg">
<path d="M1787.51 590.812H1983.18V632.991H1844.92V660.445H1979.94V702.875H1844.92V733.324H1985.68V776.502H1787.51V590.812Z" fill="white"/>
<path d="M1591.69 632.991V669.43H1679.8C1696.52 669.43 1703.26 661.444 1703.26 651.211V650.961C1703.26 641.227 1696.77 632.991 1679.8 632.991H1591.69ZM1591.69 710.612V776.502H1533.54V590.812H1683.29C1745.19 590.812 1763.91 612.276 1763.91 638.981V641.976C1763.91 668.682 1741.69 678.665 1729.46 682.658C1748.43 688.149 1764.65 701.377 1764.65 725.337V752.542C1764.65 767.517 1766.4 772.259 1768.15 775.254V776.502H1709C1707.25 774.256 1706.25 771.51 1706.25 764.772V743.307C1706.25 720.595 1696.27 710.612 1667.57 710.612H1591.69Z" fill="white"/>
<path d="M1371.43 587.57H1382.16C1498.96 587.57 1512.69 646.223 1512.69 679.417V686.905C1512.69 719.6 1499.21 779.75 1382.16 779.75H1371.43C1253.87 779.75 1240.64 719.6 1240.64 686.905V679.417C1240.64 646.223 1253.87 587.57 1371.43 587.57ZM1451.79 684.658V681.164C1451.79 659.95 1439.56 632.495 1376.67 632.495C1312.77 632.495 1301.54 659.95 1301.54 681.164V684.159C1301.54 705.374 1313.77 734.575 1376.67 734.575C1439.06 734.575 1451.79 706.123 1451.79 684.658Z" fill="white"/>
<path d="M1031.69 590.812H1223.62V632.991H1089.59V660.445H1220.38V702.875H1089.59V776.502H1031.69V590.812Z" fill="white"/>
<path d="M809.405 590.812H1005.08V632.991H866.81V660.445H1001.83V702.875H866.81V733.324H1007.57V776.502H809.405V590.812Z" fill="white"/>
<path d="M553.484 776.502V590.812H712.469C765.631 590.812 780.356 611.277 780.356 633.241V636.735C780.356 660.945 759.89 670.179 750.905 672.925C763.634 676.169 790.839 686.901 790.839 719.597V723.091C790.839 752.292 774.117 776.502 713.967 776.502H553.484ZM702.486 629.996H611.637V660.196H702.486C718.709 660.196 722.702 652.708 722.702 645.221V644.722C722.702 636.985 718.709 629.996 702.486 629.996ZM707.478 699.63H611.637V736.069H707.478C726.696 736.069 730.439 725.337 730.439 717.85V716.851C730.439 708.865 726.696 699.63 707.478 699.63Z" fill="white"/>
<path d="M207.138 776.502V590.812H265.291V658.449H390.083V590.812H448.236V776.502H390.083V703.374H265.291V776.502H207.138Z" fill="white"/>
<path d="M43.178 661.444H0V626.502C31.9467 624.505 46.9218 610.279 55.4076 590.812H100.832V776.502H43.178V661.444Z" fill="white"/>
<path d="M4699.26 5.19141V302.296H4606.21V5.19141H4699.26Z" fill="#BFFF00"/>
<path d="M4350.39 302.296V75.4742H4222.6V5.19141H4572.42V75.4742H4444.23V302.296H4350.39Z" fill="#BFFF00"/>
<path d="M4188.78 5.19141V302.296H4095.74V5.19141H4188.78Z" fill="#BFFF00"/>
<path d="M3749.44 5.19141H4056.53V72.6789H3842.08V116.606H4051.34V184.493H3842.08V302.296H3749.44V5.19141Z" fill="#BFFF00"/>
<path d="M3403.14 5.19141H3710.23V72.6789H3495.79V116.606H3705.04V184.493H3495.79V302.296H3403.14V5.19141Z" fill="#BFFF00"/>
<path d="M3224.26 180.899L3166.76 69.4842L3111.65 180.899H3224.26ZM3286.56 302.296L3258.6 247.987H3078.5L3051.75 302.296H2957.11L3107.26 5.19141H3227.85L3386.79 302.296H3286.56Z" fill="#BFFF00"/>
<path d="M2669.05 72.6789V130.982H2810.01C2836.77 130.982 2847.55 118.203 2847.55 101.83V101.431C2847.55 85.8569 2837.17 72.6789 2810.01 72.6789H2669.05ZM2669.05 196.872V302.296H2576V5.19141H2815.6C2914.64 5.19141 2944.59 39.5341 2944.59 82.2629V87.0549C2944.59 129.784 2909.05 145.757 2889.48 152.146C2919.83 160.932 2945.79 182.096 2945.79 220.433V263.96C2945.79 287.92 2948.58 295.507 2951.38 300.299V302.296H2856.74C2853.94 298.702 2852.34 294.309 2852.34 283.527V249.185C2852.34 212.845 2836.37 196.872 2790.45 196.872H2669.05Z" fill="#BFFF00"/>
<path d="M2322.79 307.487H2314.4C2153.47 307.487 2116.33 217.637 2116.33 158.136V146.955C2116.33 89.0515 2146.68 0 2317.6 0H2334.77C2500.89 0 2530.04 72.2795 2531.64 112.612V113.012H2432.61C2430.21 106.223 2419.43 70.6822 2326.78 70.6822C2236.13 70.6822 2213.77 109.817 2213.77 150.948V155.341C2213.77 194.076 2244.12 235.208 2325.98 235.208C2414.24 235.208 2440.99 201.265 2440.99 192.878V192.08H2324.39V135.774H2533.64V302.296H2477.73C2476.53 291.514 2470.94 268.353 2465.75 255.973C2452.97 270.749 2414.64 307.487 2322.79 307.487Z" fill="#BFFF00"/>
<path d="M1692.16 72.6789V130.982H1833.13C1859.88 130.982 1870.66 118.203 1870.66 101.83V101.431C1870.66 85.8569 1860.28 72.6789 1833.13 72.6789H1692.16ZM1692.16 196.872V302.296H1599.12V5.19141H1838.72C1937.75 5.19141 1967.7 39.5341 1967.7 82.2629V87.0549C1967.7 129.784 1932.16 145.757 1912.59 152.146C1942.94 160.932 1968.9 182.096 1968.9 220.433V263.96C1968.9 287.92 1971.7 295.507 1974.49 300.299V302.296H1879.85C1877.05 298.702 1875.46 294.309 1875.46 283.527V249.185C1875.46 212.845 1859.48 196.872 1813.56 196.872H1692.16Z" fill="#BFFF00"/>
<path d="M1339.73 0H1356.9C1543.79 0 1565.75 93.8436 1565.75 146.955V158.935C1565.75 211.248 1544.19 307.487 1356.9 307.487H1339.73C1151.64 307.487 1130.48 211.248 1130.48 158.935V146.955C1130.48 93.8436 1151.64 0 1339.73 0ZM1468.31 155.341V149.75C1468.31 115.807 1448.75 71.8802 1348.11 71.8802C1245.88 71.8802 1227.91 115.807 1227.91 149.75V154.542C1227.91 188.486 1247.48 235.208 1348.11 235.208C1447.95 235.208 1468.31 189.684 1468.31 155.341Z" fill="#BFFF00"/>
<path d="M883.067 0H900.238C1087.13 0 1109.09 93.8436 1109.09 146.955V158.935C1109.09 211.248 1087.53 307.487 900.238 307.487H883.067C694.98 307.487 673.815 211.248 673.815 158.935V146.955C673.815 93.8436 694.98 0 883.067 0ZM1011.65 155.341V149.75C1011.65 115.807 992.085 71.8802 891.453 71.8802C789.223 71.8802 771.253 115.807 771.253 149.75V154.542C771.253 188.486 790.82 235.208 891.453 235.208C991.286 235.208 1011.65 189.684 1011.65 155.341Z" fill="#BFFF00"/>
<path d="M364.066 5.19141H457.111V228.419H663.567V302.296H364.066V5.19141Z" fill="#BFFF00"/>
<path d="M17.7686 5.19141H324.857V72.6789H110.414V116.606H319.665V184.493H110.414V302.296H17.7686V5.19141Z" fill="#BFFF00"/>
</svg>
