<svg width="2746" height="1063" viewBox="0 0 2746 1063" fill="none" xmlns="http://www.w3.org/2000/svg">
<path d="M2435.06 804.841H2701.62V862.301H2513.26V899.7H2697.2V957.5H2513.26V998.98H2705.02V1057.8H2435.06V804.841Z" fill="white"/>
<path d="M2168.3 862.301V911.94H2288.32C2311.1 911.94 2320.28 901.06 2320.28 887.12V886.78C2320.28 873.521 2311.44 862.301 2288.32 862.301H2168.3ZM2168.3 968.04V1057.8H2089.08V804.841H2293.08C2377.4 804.841 2402.9 834.081 2402.9 870.461V874.541C2402.9 910.92 2372.64 924.52 2355.98 929.96C2381.82 937.44 2403.92 955.46 2403.92 988.1V1025.16C2403.92 1045.56 2406.3 1052.02 2408.68 1056.1V1057.8H2328.1C2325.72 1054.74 2324.36 1051 2324.36 1041.82V1012.58C2324.36 981.64 2310.76 968.04 2271.66 968.04H2168.3Z" fill="white"/>
<path d="M1868.24 800.425H1882.86C2041.98 800.425 2060.68 880.324 2060.68 925.544V935.744C2060.68 980.284 2042.32 1062.22 1882.86 1062.22H1868.24C1708.1 1062.22 1690.08 980.284 1690.08 935.744V925.544C1690.08 880.324 1708.1 800.425 1868.24 800.425ZM1977.72 932.684V927.924C1977.72 899.024 1961.06 861.625 1875.38 861.625C1788.34 861.625 1773.04 899.024 1773.04 927.924V932.004C1773.04 960.904 1789.7 1000.68 1875.38 1000.68C1960.38 1000.68 1977.72 961.924 1977.72 932.684Z" fill="white"/>
<path d="M1405.43 804.841H1666.89V862.301H1484.31V899.7H1662.47V957.5H1484.31V1057.8H1405.43V804.841Z" fill="white"/>
<path d="M1102.62 804.841H1369.18V862.301H1180.82V899.7H1364.76V957.5H1180.82V998.98H1372.58V1057.8H1102.62V804.841Z" fill="white"/>
<path d="M753.99 1057.8V804.841H970.569C1042.99 804.841 1063.05 832.721 1063.05 862.641V867.401C1063.05 900.38 1035.17 912.96 1022.93 916.7C1040.27 921.12 1077.33 935.74 1077.33 980.28V985.04C1077.33 1024.82 1054.55 1057.8 972.609 1057.8H753.99ZM956.969 858.221H833.21V899.36H956.969C979.069 899.36 984.509 889.16 984.509 878.961V878.281C984.509 867.741 979.069 858.221 956.969 858.221ZM963.769 953.08H833.21V1002.72H963.769C989.949 1002.72 995.049 988.1 995.049 977.9V976.54C995.049 965.66 989.949 953.08 963.769 953.08Z" fill="white"/>
<path d="M282.175 1057.8V804.841H361.395V896.98H531.394V804.841H610.613V1057.8H531.394V958.18H361.395V1057.8H282.175Z" fill="white"/>
<path d="M58.8198 901.06H0V853.461C43.5198 850.741 63.9197 831.361 75.4797 804.841H137.359V1057.8H58.8198V901.06Z" fill="white"/>
<path d="M2111.48 411.806V7.07129H2291.54L2431.35 258.942L2571.7 7.07129H2745.23V411.806H2620.11V131.647L2460.72 411.806H2392.72L2233.33 131.647V411.806H2111.48Z" fill="#BFFF00"/>
<path d="M1626.98 7.07129H2053.47V99.0069H1752.1V158.847H2046.4V251.326H1752.1V317.694H2058.91V411.806H1626.98V7.07129Z" fill="#BFFF00"/>
<path d="M1278.48 411.806V102.815H1104.4V7.07129H1580.94V102.815H1406.32V411.806H1278.48Z" fill="#BFFF00"/>
<path d="M783.282 0H806.674C1061.27 0 1091.19 127.839 1091.19 200.191V216.511C1091.19 287.775 1061.81 418.878 806.674 418.878H783.282C527.059 418.878 498.228 287.775 498.228 216.511V200.191C498.228 127.839 527.059 0 783.282 0ZM958.45 211.615V203.999C958.45 157.759 931.794 97.9196 794.706 97.9196C655.443 97.9196 630.963 157.759 630.963 203.999V210.527C630.963 256.767 657.619 320.415 794.706 320.415C930.706 320.415 958.45 258.399 958.45 211.615Z" fill="#BFFF00"/>
<path d="M182.512 411.806V102.815H8.43262V7.07129H484.975V102.815H310.351V411.806H182.512Z" fill="#BFFF00"/>
</svg>
