<svg width="2322" height="430" viewBox="0 0 2322 430" fill="none" xmlns="http://www.w3.org/2000/svg">
<path d="M1947.61 429.451C1945.16 428.635 1942.71 428.09 1939.99 428.09H1936.99L1923.38 428.635C1921.48 428.635 1919.85 428.635 1918.49 428.362C1914.4 427.546 1912.77 426.185 1908.69 426.185C1903.52 426.185 1895.62 426.457 1888.27 424.007C1887.46 423.735 1886.64 423.463 1885.55 423.463C1885.01 423.463 1883.92 423.735 1882.83 424.28C1882.29 424.552 1881.47 424.824 1880.65 424.824C1879.84 424.824 1879.02 424.552 1878.2 424.28C1875.21 422.919 1873.85 420.197 1872.76 418.02C1871.94 416.386 1870.04 414.209 1869.49 413.665C1868.4 412.576 1868.13 411.215 1868.13 409.582C1868.13 407.949 1868.68 406.316 1869.49 404.138C1871.13 400.6 1873.58 399.239 1876.57 398.695C1880.65 397.878 1884.46 397.334 1888.55 397.334C1891.27 397.334 1894.26 397.878 1896.98 398.423L1901.34 399.239C1905.69 400.328 1908.69 400.6 1910.86 400.6C1914.13 400.6 1916.04 400.056 1917.94 400.056C1923.38 400.056 1924.75 401.961 1930.19 401.961C1934.54 401.961 1942.44 399.784 1945.98 400.6C1947.61 400.872 1949.79 401.144 1951.15 401.144C1953.32 401.144 1955.5 400.6 1957.95 399.511C1959.04 398.967 1960.4 398.695 1961.76 398.423C1966.39 397.334 1973.19 394.884 1973.74 389.441C1974.55 382.364 1979.73 380.731 1980 371.477C1980 370.116 1979.45 368.483 1977.55 365.761C1974.83 361.678 1971.29 355.146 1965.84 354.329C1951.15 351.88 1950.33 345.348 1943.25 343.714C1937.54 342.354 1932.37 337.454 1927.47 332.283C1921.75 326.295 1925.83 324.934 1919.57 319.218C1918.21 318.13 1917.4 316.497 1916.31 312.414C1915.49 309.42 1914.13 305.065 1914.13 300.71C1914.13 299.349 1914.4 297.988 1914.67 296.627C1916.85 287.918 1916.04 282.474 1918.76 275.397C1922.02 267.232 1928.28 262.605 1932.37 252.806C1935.9 244.641 1942.44 242.464 1948.15 238.653C1950.33 237.292 1954.41 237.02 1956.59 235.931C1959.58 234.298 1961.22 231.849 1964.48 230.76C1971.02 228.855 1977.55 228.038 1983.81 228.038C1986.8 228.038 1990.61 228.31 1996.6 231.576C2012.11 240.286 2008.85 234.298 2023.27 243.552C2027.36 246.274 2030.9 249.812 2033.89 253.623C2038.52 259.067 2038.52 264.238 2044.5 269.954C2046.68 272.131 2046.68 276.214 2046.68 279.208C2046.68 283.835 2046.41 290.095 2042.6 292C2040.42 293.089 2038.52 293.361 2036.61 293.361C2031.44 293.361 2021.91 290.639 2018.92 285.196C2016.2 280.024 2016.74 274.853 2015.65 272.131C2014.56 269.409 2013.48 267.776 2011.03 265.871C2003.41 260.155 2000.96 264.238 1992.25 257.706C1987.62 254.167 1982.18 254.984 1980.27 254.984C1977.82 254.984 1975.64 255.528 1968.84 259.339C1955.5 267.232 1964.76 266.96 1948.15 279.752C1943.8 283.291 1942.16 289.006 1942.98 294.994C1943.25 296.627 1943.25 298.533 1943.25 300.166C1943.25 307.242 1942.16 314.047 1950.33 317.585C1956.05 320.035 1958.77 325.751 1964.48 328.472C1966.39 329.561 1968.84 330.65 1971.56 330.922C1984.08 332.011 1985.17 338.271 1995.78 343.987C2001.23 346.981 2000.68 352.696 2002.32 355.963L2005.85 362.223C2007.76 365.761 2005.58 367.666 2006.13 373.11C2006.67 379.37 2005.04 385.902 2003.41 389.441C2002.32 391.89 2002.32 393.796 2002.32 396.245C2002.32 398.967 1999.87 400.056 1999.05 402.505C1996.87 408.493 1993.33 413.665 1990.07 416.931C1989.25 417.747 1986.26 419.108 1984.35 419.653C1982.72 420.197 1981.9 421.014 1980 423.191C1977.82 425.368 1973.74 427.001 1969.93 427.001C1968.02 427.001 1966.12 426.729 1964.21 426.457C1963.12 426.185 1962.03 426.185 1960.95 426.185C1959.04 426.185 1957.13 427.001 1956.32 427.818C1954.69 429.179 1952.78 429.995 1950.6 429.995C1949.51 429.995 1948.42 429.723 1947.61 429.451Z" fill="white"/>
<path d="M1725.66 416.11C1716.95 416.11 1712.59 409.578 1712.59 400.596C1712.59 396.241 1717.22 388.076 1716.67 377.733C1716.4 372.017 1716.95 369.295 1718.03 365.213C1722.39 347.521 1719.94 342.894 1719.94 336.634C1719.94 326.291 1723.75 323.297 1722.39 301.795C1721.57 289.547 1723.75 286.553 1724.29 280.565C1724.84 275.121 1721.84 265.05 1725.66 258.518C1728.92 253.074 1731.1 249.264 1736.81 249.264C1745.25 249.264 1752.87 253.347 1756.96 261.24C1762.94 273.216 1766.21 271.583 1774.1 280.292C1780.36 287.097 1778.19 290.363 1788.53 297.168C1797.78 303.428 1793.43 307.238 1799.69 313.771C1809.21 323.569 1809.21 330.646 1813.03 332.823C1813.3 330.646 1814.11 329.013 1814.39 325.474C1815.75 305.333 1820.1 314.587 1819.01 293.357C1817.92 272.944 1822.01 277.843 1822.01 259.879V247.087C1822.01 240.554 1824.18 236.199 1829.63 234.566C1832.08 233.75 1834.26 233.478 1836.43 233.478C1840.79 233.478 1844.05 235.111 1847.32 237.016C1851.13 239.738 1852.49 243.82 1852.49 248.447C1852.49 256.341 1849.5 257.974 1849.5 265.867C1849.5 267.228 1849.77 268.317 1849.77 269.95C1850.86 276.482 1848.14 278.115 1848.95 283.559C1850.31 291.724 1845.14 303.156 1844.05 313.771L1842.42 330.374C1841.88 334.456 1839.7 338.539 1838.88 342.894C1838.34 345.343 1838.34 347.793 1838.34 350.515L1838.61 357.319C1838.61 359.225 1837.52 361.674 1835.62 364.668C1834.53 366.301 1833.98 367.934 1833.98 369.84C1833.98 371.201 1834.53 372.561 1834.8 374.194C1836.7 384.265 1830.17 387.803 1825.27 387.803C1818.74 387.803 1811.39 384.265 1808.94 377.733C1802.95 361.402 1800.78 368.207 1796.97 354.598C1795.33 348.337 1791.52 350.515 1788.8 343.71C1784.99 334.456 1782.54 335.817 1778.19 327.924C1776.28 324.386 1774.65 318.398 1770.29 315.948C1764.58 312.954 1766.21 309.144 1763.49 307.51C1757.23 303.428 1755.87 296.895 1750.7 294.174C1750.7 296.895 1749.88 297.984 1750.15 300.162C1751.24 314.859 1747.7 312.138 1748.52 326.563C1749.06 336.634 1746.07 336.906 1746.07 340.989C1746.07 343.71 1747.7 346.977 1747.7 350.787C1747.7 351.876 1747.43 352.964 1747.16 354.053C1745.25 362.219 1746.07 374.194 1744.16 380.727C1743.35 383.993 1742.8 385.898 1742.8 387.531C1742.8 389.981 1743.62 391.614 1743.62 393.519C1743.62 398.418 1740.35 397.058 1739.81 406.584C1739.54 410.939 1731.92 416.11 1725.66 416.11Z" fill="white"/>
<path d="M1594.94 415.842C1592.49 415.298 1587.86 415.026 1585.69 415.026C1577.25 415.026 1570.72 415.026 1565.82 411.487C1558.74 406.316 1556.56 407.949 1552.75 402.777C1551.39 400.872 1550.57 399.783 1548.67 399.239C1546.49 398.423 1543.23 397.334 1541.59 394.884C1539.96 392.162 1537.51 391.074 1533.43 388.896C1528.26 385.902 1523.9 376.92 1519.27 373.926C1512.74 369.572 1509.48 360.59 1509.48 352.696C1509.48 341.265 1506.48 333.644 1506.48 324.118C1506.48 319.49 1506.75 314.863 1508.39 310.236C1508.66 309.42 1508.66 308.059 1508.66 307.242C1508.66 300.166 1509.48 294.45 1513.56 289.551C1515.19 287.373 1515.19 285.74 1515.19 284.924C1515.19 278.936 1521.18 276.214 1525.53 271.315C1528.26 267.776 1527.98 263.149 1530.71 260.155C1536.97 252.806 1542.68 246.546 1551.39 242.191C1553.57 240.831 1555.75 238.109 1557.11 236.203C1560.92 230.76 1567.18 228.038 1572.62 228.038C1576.98 228.038 1579.7 230.488 1584.05 231.304C1587.05 231.849 1588.14 234.298 1588.41 241.647C1594.12 240.286 1600.38 242.191 1604.74 243.28C1615.35 246.002 1614.81 250.085 1624.88 252.534C1638.76 255.8 1645.02 266.143 1650.46 272.948C1653.73 277.03 1652.37 282.474 1654 287.645C1657.54 300.166 1662.98 302.071 1662.98 322.212C1662.98 335.821 1656.72 340.176 1655.64 351.063C1654.82 359.229 1655.64 365.217 1647.2 374.471C1638.76 383.997 1639.58 388.08 1637.67 389.985C1634.68 392.707 1630.6 393.523 1626.78 397.334C1625.7 398.423 1623.52 401.689 1622.43 402.777C1618.62 406.588 1614.81 409.582 1611.81 410.126C1608 410.671 1605.83 410.943 1603.11 413.392C1600.66 416.114 1599.29 416.659 1594.94 415.842ZM1604.47 380.187C1608.82 375.832 1612.63 370.66 1621.07 364.4C1626.78 360.045 1625.97 354.602 1627.33 348.342C1631.96 329.017 1636.31 327.112 1633.86 313.503C1632.5 305.609 1632.77 300.166 1631.41 292.817C1630.32 285.468 1626.78 281.658 1622.7 280.569C1617.53 279.208 1617.8 274.309 1612.09 271.587C1609.64 270.498 1605.55 268.321 1602.56 268.321C1599.57 268.321 1597.93 269.682 1596.03 270.498C1591.95 272.948 1589.5 274.036 1586.5 274.036C1577.52 274.036 1574.25 268.321 1570.17 263.966C1566.63 263.966 1563.37 267.232 1561.46 269.409C1556.56 274.581 1550.85 276.758 1549.49 286.012C1548.94 289.551 1548.12 291.728 1544.86 293.633C1543.77 294.178 1542.41 297.172 1541.59 298.533C1540.23 301.527 1539.69 303.976 1539.14 306.97C1538.33 309.692 1536.15 312.414 1535.33 314.863C1534.24 318.13 1537.51 319.763 1534.79 329.017C1533.97 331.466 1533.97 333.916 1533.97 336.093C1533.97 339.36 1534.79 343.442 1537.24 346.708C1539.14 349.702 1539.69 352.424 1539.69 355.69C1539.69 358.412 1540.78 360.862 1543.77 362.767C1546.22 364.944 1548.4 367.394 1550.57 370.116C1551.39 370.932 1552.21 372.293 1553.3 373.382C1557.65 377.737 1563.64 378.553 1565.54 381.003C1567.72 383.997 1571.8 388.624 1581.88 388.624C1591.4 388.624 1597.93 386.719 1604.47 380.187Z" fill="white"/>
<path d="M1435.08 418.563C1431.27 418.563 1428.55 417.202 1425.55 413.391C1421.74 409.037 1418.48 405.498 1418.48 399.238C1418.48 396.516 1421.2 392.161 1421.2 384.54C1421.2 378.28 1419.29 366.849 1420.93 354.873C1422.02 347.524 1419.29 335.276 1419.29 330.377C1419.29 325.477 1421.47 316.495 1420.11 309.147C1419.02 303.159 1421.47 297.987 1420.11 292.271C1416.03 275.396 1421.74 269.681 1418.48 257.705C1416.85 251.989 1416.85 247.906 1417.12 243.823C1417.66 237.019 1421.47 234.569 1426.37 234.569C1430.18 234.569 1434.81 236.475 1438.62 238.652C1441.89 240.557 1446.24 245.184 1446.24 250.628L1445.97 258.521C1445.97 262.059 1448.15 262.876 1448.15 268.864C1448.15 270.769 1447.6 273.491 1447.87 277.302C1448.42 286.011 1444.88 284.106 1448.15 307.241C1449.23 314.046 1447.6 317.856 1447.6 324.389C1447.6 331.193 1448.69 335.82 1448.96 339.631C1449.23 344.53 1448.15 347.796 1449.78 355.145C1450.6 359.228 1448.96 363.855 1448.69 367.937C1448.42 370.659 1449.78 380.458 1449.78 385.357C1449.78 388.079 1447.87 390.256 1447.6 393.795V394.611C1447.6 397.333 1448.42 400.055 1448.42 401.96C1448.42 410.397 1442.7 418.563 1435.08 418.563Z" fill="white"/>
<path d="M1287.99 421.555C1283.64 422.371 1281.46 419.65 1279.56 419.377C1276.29 418.833 1274.11 418.833 1272.21 416.111C1269.49 412.029 1267.31 408.762 1268.13 403.591C1269.21 395.97 1273.3 388.893 1273.02 382.089C1272.48 371.202 1278.47 361.675 1279.56 354.327C1280.1 349.699 1282.28 347.25 1283.1 342.078C1284.18 333.913 1281.19 322.754 1285.27 313.772C1286.63 310.778 1287.99 305.062 1287.99 300.707C1287.99 296.897 1288.27 294.175 1290.17 287.642C1291.53 283.56 1289.08 280.294 1290.44 277.3C1291.81 274.306 1293.17 270.223 1295.62 267.773C1292.62 266.957 1291.26 266.957 1290.44 266.957C1287.72 266.957 1286.63 268.862 1283.64 269.134C1276.56 269.679 1270.58 269.679 1265.13 271.856C1247.71 278.661 1260.5 278.116 1243.36 285.737C1237.91 288.187 1237.1 289.82 1234.65 294.991C1232.74 298.257 1230.56 299.891 1227.57 299.891C1224.3 299.891 1221.58 299.891 1219.41 297.169C1218.32 295.808 1216.96 291.725 1215.59 290.092C1213.42 287.642 1211.78 287.37 1211.78 284.648C1211.78 281.655 1212.87 278.661 1214.78 276.755L1222.67 266.412L1227.03 261.513C1229.2 259.608 1231.38 257.975 1234.65 256.342C1239 254.164 1239.82 255.797 1243.36 253.076C1245.81 251.17 1249.35 248.449 1254.52 246.543C1259.96 244.638 1264.86 242.733 1271.12 242.733C1275.75 242.733 1278.74 243.549 1283.1 241.644C1285.55 240.555 1288.81 240.283 1291.53 240.283C1293.98 240.283 1296.43 241.1 1299.15 241.372C1302.15 241.644 1305.14 243.549 1307.86 243.822C1314.94 244.638 1321.74 244.638 1328.28 245.727C1342.7 247.904 1339.98 251.987 1354.41 257.158C1358.22 258.519 1356.58 261.241 1360.39 262.33C1365.02 263.418 1368.56 266.957 1371.83 271.04C1373.19 272.128 1374.28 273.217 1375.36 274.578C1377.54 276.483 1378.63 279.749 1378.63 282.471C1378.63 285.465 1377.54 288.187 1375.36 290.364C1373.46 291.997 1371.01 292.542 1368.83 292.542C1365.29 292.542 1364.48 289.82 1361.21 288.459C1359.31 287.642 1354.95 288.187 1353.32 287.37C1348.96 285.465 1348.42 283.288 1346.24 281.11C1343.79 278.933 1339.98 278.116 1338.08 277.844C1331.54 277.027 1326.37 273.217 1321.74 272.4C1321.74 273.217 1323.11 275.122 1320.93 278.388C1316.85 285.465 1315.76 292.814 1315.76 298.802C1315.76 304.245 1314.94 310.506 1312.76 317.854C1309.77 326.564 1308.95 332.824 1308.95 339.357C1308.95 341.262 1308.95 343.439 1309.22 345.345C1309.77 349.699 1308.95 354.599 1308.14 359.226C1305.14 372.835 1299.43 382.633 1299.43 396.787C1299.43 405.768 1297.79 419.922 1287.99 421.555Z" fill="white"/>
<path d="M1091.55 423.186C1089.92 423.186 1087.47 422.914 1085.84 422.369C1078.22 419.648 1071.96 418.014 1065.7 411.482C1062.43 407.944 1056.72 408.216 1052.63 403.317C1049.91 399.778 1047.46 397.601 1046.37 391.069C1045.56 385.625 1040.38 383.72 1039.3 376.643C1038.48 371.472 1037.39 366.028 1037.39 360.585C1037.39 357.318 1038.48 354.597 1038.48 350.786C1038.48 346.703 1037.39 341.804 1037.39 336.633C1037.39 324.929 1037.66 313.77 1040.38 302.61C1042.29 294.989 1048.28 290.362 1051.27 281.108C1053.99 272.398 1062.98 268.043 1068.15 262.872C1072.5 258.517 1071.96 251.985 1079.85 248.719C1086.38 245.997 1091.01 240.825 1098.36 239.737C1102.44 239.192 1106.52 239.192 1110.88 239.192C1114.96 239.192 1119.32 239.465 1123.67 240.281C1133.47 241.914 1138.91 245.18 1144.63 248.719C1150.07 251.985 1154.43 252.529 1158.24 254.434C1166.68 258.245 1171.58 264.233 1175.11 268.86C1179.2 274.031 1178.92 277.298 1181.65 280.019C1184.91 283.285 1185.73 285.735 1185.73 288.729C1185.73 290.362 1183.01 301.522 1177.29 301.522C1172.12 301.522 1167.22 297.983 1164.5 292.812C1162.32 288.729 1160.42 285.735 1158.24 282.741C1152.79 275.937 1144.9 278.114 1139.46 273.759C1128.3 264.777 1123.13 269.404 1114.42 268.588C1110.33 268.316 1105.98 269.949 1102.71 272.398C1099.18 275.12 1097.27 276.209 1092.37 277.57C1087.74 278.658 1088.56 281.925 1082.3 294.445C1081.21 296.894 1077.95 299.888 1075.77 303.427C1073.32 307.51 1073.05 311.592 1070.6 315.947C1068.42 320.03 1067.33 324.929 1067.06 329.556C1066.79 334.727 1068.15 336.633 1066.51 345.342C1065.7 349.425 1066.51 352.964 1067.6 357.046C1068.69 361.673 1068.69 365.484 1068.96 371.744C1069.24 376.915 1072.5 381.542 1075.77 384.809C1078.49 387.53 1080.12 390.797 1084.48 391.885C1089.92 393.246 1093.73 391.341 1098.63 391.341C1102.17 391.341 1107.89 392.702 1113.87 392.702C1122.31 392.702 1125.3 388.891 1132.93 388.891C1136.74 388.891 1141.09 390.524 1145.45 393.246C1150.35 396.24 1150.62 402.772 1150.62 407.399C1150.62 411.482 1150.07 416.381 1147.08 418.559C1143.81 420.736 1140.27 421.553 1136.46 421.553C1133.47 421.553 1130.48 420.736 1128.03 420.736C1120.95 420.736 1121.49 423.458 1113.33 423.458C1108.16 423.458 1104.07 421.825 1100.26 421.825C1097 421.825 1094.55 423.186 1091.55 423.186Z" fill="white"/>
<path d="M893.46 423.465C887.472 424.281 883.39 423.193 879.579 420.743C866.787 412.85 861.343 416.66 849.639 405.773C844.196 400.602 844.74 397.063 838.208 391.62C829.498 384.271 831.403 374.473 829.498 368.485C827.865 363.041 825.415 358.142 825.143 352.698C824.871 344.261 827.048 338.817 825.96 330.652C825.687 327.93 823.782 324.392 823.782 318.404C823.782 312.416 825.96 310.783 825.96 305.339C825.96 299.895 825.143 296.901 826.504 293.363C827.321 290.913 826.232 287.103 826.232 283.837C826.232 277.304 832.764 270.5 832.764 259.613C832.764 254.169 833.853 253.08 835.214 252.536C837.936 251.447 840.657 250.359 843.107 250.359C851 250.359 855.083 251.72 857.26 257.163C860.526 264.784 860.526 270.772 857.805 275.671C854.811 281.931 855.083 292.002 853.722 295.54C852.633 298.534 853.722 301.256 854.266 303.706C854.811 306.972 852.089 311.871 852.633 317.315C852.905 320.853 854.266 324.392 854.539 327.93C855.083 336.367 851.545 340.994 855.627 350.521C857.533 354.603 857.805 357.325 856.716 362.224C855.355 368.485 858.349 376.922 865.97 381.821C869.781 384.271 876.857 390.259 880.396 392.709C882.573 394.342 887.2 395.975 893.732 394.614C904.62 392.436 913.057 398.697 919.862 390.259C927.483 381.005 934.015 385.904 937.009 372.023C939.459 360.319 947.896 354.331 948.985 345.349C949.529 339.906 947.352 336.912 950.074 332.013C953.884 325.208 951.162 315.682 953.884 307.516C957.967 295.54 952.523 289.825 952.523 281.659C952.523 277.849 953.612 275.399 953.612 271.589C953.612 268.595 950.89 265.873 950.89 262.879C950.89 258.252 952.523 254.986 954.428 251.447C956.334 247.909 957.695 245.732 960.961 244.915C967.493 243.554 973.209 247.092 977.019 252.264C982.735 260.157 984.368 267.506 984.368 276.216C984.368 279.21 985.457 282.476 986.001 284.653C987.634 290.641 987.634 296.901 986.001 303.706C982.463 317.587 980.558 320.853 980.558 335.279C980.558 336.912 979.469 338.817 978.108 340.722C974.298 346.166 978.108 348.071 974.57 358.414C972.665 364.674 971.848 370.39 968.31 376.378C965.588 381.005 959.328 386.721 958.511 392.436C957.967 395.703 957.695 401.146 952.251 403.324C942.997 407.134 943.269 415.027 936.192 416.388C925.305 418.566 923.4 422.921 912.513 422.104C904.347 421.56 898.087 422.648 893.46 423.465Z" fill="white"/>
<path d="M756.497 421.01C754.32 421.01 752.142 420.194 750.237 418.561C745.066 414.478 739.622 408.49 737.717 400.869C736.9 397.875 734.723 385.899 734.179 382.905C732.273 374.467 731.457 365.486 729.552 357.048C729.007 354.326 725.741 351.604 724.108 349.155C723.019 347.249 721.931 343.439 719.481 341.806C711.588 336.362 706.961 333.368 698.251 333.368C693.624 333.368 690.902 333.641 689.541 334.457C688.997 335.546 688.725 336.634 688.725 338.268C688.725 343.167 690.085 345.889 690.085 348.61C690.085 353.237 688.452 355.687 688.452 360.042C688.452 361.675 688.725 363.852 689.541 366.302C689.813 367.663 690.085 368.752 690.085 370.113C690.085 372.834 689.541 375.556 689.541 378.006C689.541 382.361 688.18 387.804 688.18 390.254C688.18 392.431 688.452 394.881 688.997 397.603C689.269 398.691 689.269 399.78 689.269 401.141C689.269 404.407 686.547 407.129 683.825 409.034C681.104 411.212 681.92 415.294 675.116 415.294C668.855 415.294 663.684 409.579 662.051 399.78C661.507 396.514 661.507 393.248 661.507 389.71C661.507 371.473 663.956 366.302 663.956 355.959C663.956 351.332 663.412 345.616 662.051 337.451C661.779 336.634 661.779 335.818 661.779 335.001C661.779 331.191 663.14 327.108 663.14 323.298C663.14 316.765 661.234 311.866 659.874 305.062C659.874 304.245 659.601 303.429 659.601 302.884C659.601 300.435 660.146 298.802 660.146 296.896C660.146 296.08 660.418 295.263 660.418 293.63C660.418 292.269 660.146 290.364 659.601 287.37C658.513 281.654 656.607 272.944 653.886 264.779C653.341 262.874 652.797 260.696 652.797 258.791C652.797 248.72 660.146 238.65 668.583 236.745C672.122 235.928 675.116 234.567 679.47 234.023C686.275 232.934 692.263 230.484 698.795 227.763C706.144 224.769 713.493 223.136 721.658 223.68C727.918 223.952 732.545 226.946 735.812 228.035C739.078 229.123 741.527 230.484 744.521 234.839C748.06 239.466 755.136 247.36 759.219 257.43C761.124 262.329 759.763 263.963 761.124 267.773C761.941 270.223 764.663 274.578 764.663 276.483V278.388V287.37C764.663 289.547 764.663 291.725 764.118 293.902C763.302 297.713 763.574 300.162 761.124 302.34C753.503 309.417 754.048 316.221 746.154 319.487C740.439 321.937 738.806 323.298 736.084 324.386C738.806 326.292 740.439 328.197 746.154 331.463C751.054 334.185 754.864 343.983 757.314 349.155C760.852 356.504 761.669 360.858 761.669 364.125C761.669 367.663 760.308 370.113 760.308 374.195C760.308 376.917 762.485 380.183 761.941 383.449C761.397 386.988 762.757 390.798 764.935 394.064C767.657 397.875 769.29 402.774 769.29 408.218C769.29 409.851 769.018 412.028 766.296 414.478C763.574 416.928 762.213 421.01 756.497 421.01ZM697.434 305.878C710.499 303.701 713.493 308.6 718.12 306.423C723.291 303.973 727.374 299.618 730.368 295.808C734.723 290.364 739.894 281.11 736.628 275.394C732.818 268.862 734.451 262.602 730.096 256.614C727.646 253.075 724.108 251.714 720.297 251.714C715.67 251.714 710.499 255.797 705.872 255.797C690.63 255.525 693.079 261.241 686.275 262.329C683.009 262.874 681.376 264.235 679.198 264.235C681.376 267.501 682.192 269.134 683.009 272.4C685.731 281.654 682.737 283.287 686.003 291.453C687.092 294.174 687.092 296.896 687.092 299.074C687.092 302.34 687.908 304.245 688.18 305.878C690.902 306.695 693.624 306.423 697.434 305.878Z" fill="white"/>
<path d="M530.198 421.555C525.843 422.371 523.665 419.65 521.76 419.377C518.494 418.833 516.316 418.833 514.411 416.111C511.689 412.029 509.512 408.762 510.328 403.591C511.417 395.97 515.5 388.893 515.228 382.089C514.683 371.202 520.671 361.675 521.76 354.327C522.304 349.699 524.482 347.25 525.298 342.078C526.387 333.913 523.393 322.754 527.476 313.772C528.837 310.778 530.198 305.062 530.198 300.707C530.198 296.897 530.47 294.175 532.375 287.642C533.736 283.56 531.286 280.294 532.647 277.3C534.008 274.306 535.369 270.223 537.819 267.773C534.825 266.957 533.464 266.957 532.647 266.957C529.925 266.957 528.837 268.862 525.843 269.134C518.766 269.679 512.778 269.679 507.335 271.856C489.915 278.661 502.707 278.116 485.56 285.737C480.117 288.187 479.3 289.82 476.85 294.991C474.945 298.257 472.768 299.891 469.774 299.891C466.508 299.891 463.786 299.891 461.608 297.169C460.52 295.808 459.159 291.725 457.798 290.092C455.62 287.642 453.987 287.37 453.987 284.648C453.987 281.655 455.076 278.661 456.981 276.755L464.874 266.412L469.229 261.513C471.407 259.608 473.584 257.975 476.85 256.342C481.205 254.164 482.022 255.797 485.56 253.076C488.01 251.17 491.548 248.449 496.72 246.543C502.163 244.638 507.062 242.733 513.322 242.733C517.95 242.733 520.944 243.549 525.298 241.644C527.748 240.555 531.014 240.283 533.736 240.283C536.186 240.283 538.635 241.1 541.357 241.372C544.351 241.644 547.345 243.549 550.067 243.822C557.143 244.638 563.948 244.638 570.48 245.727C584.906 247.904 582.184 251.987 596.609 257.158C600.42 258.519 598.787 261.241 602.597 262.33C607.225 263.418 610.763 266.957 614.029 271.04C615.39 272.128 616.479 273.217 617.567 274.578C619.745 276.483 620.834 279.749 620.834 282.471C620.834 285.465 619.745 288.187 617.567 290.364C615.662 291.997 613.212 292.542 611.035 292.542C607.497 292.542 606.68 289.82 603.414 288.459C601.509 287.642 597.154 288.187 595.521 287.37C591.166 285.465 590.622 283.288 588.444 281.11C585.994 278.933 582.184 278.116 580.279 277.844C573.746 277.027 568.575 273.217 563.948 272.4C563.948 273.217 565.309 275.122 563.131 278.388C559.049 285.465 557.96 292.814 557.96 298.802C557.96 304.245 557.143 310.506 554.966 317.854C551.972 326.564 551.155 332.824 551.155 339.357C551.155 341.262 551.155 343.439 551.428 345.345C551.972 349.699 551.155 354.599 550.339 359.226C547.345 372.835 541.629 382.633 541.629 396.787C541.629 405.768 539.996 419.922 530.198 421.555Z" fill="white"/>
<path d="M335.714 425.09C332.992 424.002 330.271 423.457 327.277 422.913C324.01 422.096 320.744 421.552 317.478 420.191C316.934 419.919 315.845 419.647 315.029 419.647C313.94 419.647 313.123 419.919 312.307 420.191C310.946 420.736 309.313 421.008 307.952 421.008C304.958 421.008 302.236 419.919 299.514 418.014C296.248 415.292 293.799 411.754 292.438 408.215C291.893 407.127 291.621 405.766 291.621 404.405C291.621 399.233 295.432 393.79 300.603 392.157C301.692 391.885 303.053 391.612 304.141 391.612C305.23 391.612 306.319 391.885 307.135 392.157C309.041 392.973 310.946 393.245 312.851 393.245C315.301 393.245 317.75 394.062 320.2 395.151C323.738 397.056 327.821 398.145 332.448 398.145C335.17 398.145 338.98 398.145 344.152 395.695C350.684 392.701 354.222 394.606 362.932 389.979C365.11 388.891 365.926 386.169 367.015 384.536C368.104 382.903 369.737 382.086 371.37 380.997C375.452 378.276 378.446 373.376 376.541 367.388C374.908 362.489 379.535 355.957 371.642 351.874C365.926 348.88 362.116 345.342 358.577 346.158C355.311 346.703 352.589 346.975 350.956 346.975C343.335 346.975 336.259 342.076 331.904 336.632C329.726 334.182 327.821 332.822 326.46 332.549C322.377 331.733 319.111 329.555 317.206 326.289C314.212 320.846 309.585 321.934 309.313 316.219C308.224 299.071 304.414 303.97 304.414 289.545C304.414 283.285 306.591 277.025 309.313 271.309C311.218 267.226 313.94 265.321 315.845 262.327C317.478 260.149 317.206 257.428 318.839 254.978C321.833 250.351 326.188 247.629 330.543 246.268C344.424 241.913 344.968 238.103 355.856 236.198C359.938 235.381 362.388 232.659 365.654 232.387C371.642 231.843 372.458 234.02 378.991 234.02C384.979 234.02 387.701 234.837 390.15 235.925L394.505 237.559C398.588 239.192 402.67 241.369 406.481 243.547C415.191 248.446 413.013 252.256 420.362 260.966C422.54 263.416 422.267 266.41 421.995 268.043C421.179 274.031 420.362 275.936 415.191 278.113C413.013 278.93 411.108 279.474 409.475 279.202C401.31 277.297 398.316 271.037 395.322 264.777C392.872 259.877 388.245 257.156 383.073 257.156C375.452 257.156 376.269 260.694 369.192 260.149C362.932 259.605 359.666 265.049 355.039 265.865C348.235 266.954 337.892 274.303 338.436 282.468C338.98 290.089 334.625 289.545 334.625 296.894C334.625 309.414 338.708 307.237 341.43 312.136C345.513 319.485 357.761 317.579 364.021 319.485C368.104 320.846 370.825 324.928 379.807 326.017C387.973 327.106 392.328 333.91 396.955 339.082C401.854 344.525 404.031 349.424 403.487 354.868C402.943 360.584 404.576 371.199 404.576 374.193C404.576 384.536 398.316 388.89 394.505 398.961C390.967 408.487 387.428 410.665 385.251 411.209C381.168 412.57 378.446 410.665 373.275 415.564C371.642 417.197 368.104 417.742 364.565 418.286C358.849 419.375 352.589 421.552 346.057 424.818C344.424 425.635 342.519 426.179 340.886 426.179C339.253 426.179 337.619 425.635 335.714 425.09Z" fill="white"/>
<path d="M119.991 421.289C107.743 421.289 100.939 412.851 100.939 403.053C100.939 393.799 97.6726 393.799 97.9448 387.539C98.217 378.012 100.667 370.663 100.667 367.942C100.667 363.859 99.0335 360.048 99.0335 355.966C99.0335 343.445 102.844 330.925 100.667 317.86C99.3057 309.151 102.844 299.08 100.939 290.643C99.5779 284.382 102.572 278.394 102.572 272.134L102.028 260.431V256.076C102.028 248.727 107.743 244.372 114.276 244.372C117.27 244.372 119.991 245.188 120.808 245.733C123.258 247.094 123.802 249.816 125.707 251.449C129.518 254.715 135.233 256.348 137.683 260.703C140.133 265.058 149.931 269.14 154.558 274.04C157.824 277.306 157.824 279.483 161.363 281.661C168.712 286.288 178.238 292.82 183.409 299.624C185.315 302.074 184.226 305.34 188.036 307.518C192.936 310.512 197.835 316.5 203.278 323.848C206.545 328.475 208.178 332.558 212.26 334.736C212.26 332.558 212.533 331.742 212.533 330.653C212.533 329.292 211.988 327.387 211.988 325.754C211.988 321.671 213.893 319.494 213.077 314.866C212.533 311.056 212.533 307.245 212.533 304.796C212.533 302.074 212.533 300.169 214.438 290.37C217.16 276.217 211.988 281.661 217.976 260.158C219.337 255.531 218.52 251.176 218.793 248.182C219.337 244.916 220.97 243.011 221.242 240.289C222.059 232.94 224.236 231.852 231.857 229.674C233.218 229.402 234.851 229.13 236.212 229.13C240.295 229.13 244.378 231.035 247.372 235.39C251.182 240.834 252.815 243.555 252.815 246.822C252.815 250.904 249.821 252.265 249.821 257.709C249.821 262.88 248.46 268.052 246.011 273.495C244.65 276.217 244.378 278.394 244.378 280.027L244.65 284.655C244.65 286.288 244.378 288.465 243.561 291.187C242.744 293.909 243.017 297.447 243.017 300.169C243.017 303.435 240.567 308.334 240.567 310.239C240.567 315.139 241.928 319.494 241.656 324.393C241.111 330.381 238.934 331.742 240.023 336.913C241.656 344.534 235.668 343.173 237.029 361.954C237.573 367.669 233.218 373.93 231.857 379.373C230.496 385.089 228.591 386.994 223.148 387.266H222.331C219.609 387.266 216.887 386.178 214.982 385.089C210.083 382.639 204.911 379.645 202.462 373.113C199.74 366.036 197.563 360.048 192.119 354.877C188.853 351.611 188.309 349.978 187.22 346.167C184.77 337.185 175.516 332.558 170.889 323.576C167.895 317.588 161.363 317.044 159.73 313.233C156.463 304.796 149.659 301.53 141.494 297.175C136.322 294.453 134.689 289.826 130.334 287.104L130.062 293.909C130.062 296.63 130.879 299.897 130.879 304.796C130.879 314.322 127.612 313.233 128.973 332.558C129.245 338.274 127.885 343.99 127.068 349.978C126.796 352.155 126.252 354.06 126.252 356.238C126.252 357.871 126.524 359.232 127.068 360.865C127.612 363.042 128.157 365.22 128.157 367.397C128.157 369.847 127.612 372.296 126.524 375.018C125.435 378.284 124.346 382.095 124.618 385.361C125.435 393.799 131.423 397.609 129.245 409.585C127.885 417.478 126.252 421.289 119.991 421.289Z" fill="white"/>
<path d="M18.0988 418.563C14.2883 418.563 11.5665 417.202 8.57251 413.391C4.76199 409.037 1.49583 405.498 1.49583 399.238C1.49583 396.516 4.21763 392.161 4.21763 384.54C4.21763 378.28 2.31237 366.849 3.94545 354.873C5.03417 347.524 2.31237 335.276 2.31237 330.377C2.31237 325.477 4.48981 316.495 3.12891 309.147C2.04019 303.159 4.48981 297.987 3.12891 292.271C-0.953785 275.396 4.76199 269.681 1.49583 257.705C-0.137245 251.989 -0.137245 247.906 0.134935 243.823C0.679295 237.019 4.48981 234.569 9.38905 234.569C13.1996 234.569 17.8266 236.475 21.6371 238.652C24.9033 240.557 29.2582 245.184 29.2582 250.628L28.986 258.521C28.986 262.059 31.1634 262.876 31.1634 268.864C31.1634 270.769 30.6191 273.491 30.8912 277.302C31.4356 286.011 27.8973 284.106 31.1634 307.241C32.2521 314.046 30.6191 317.856 30.6191 324.389C30.6191 331.193 31.7078 335.82 31.98 339.631C32.2521 344.53 31.1634 347.796 32.7965 355.145C33.613 359.228 31.98 363.855 31.7078 367.937C31.4356 370.659 32.7965 380.458 32.7965 385.357C32.7965 388.079 30.8912 390.256 30.6191 393.795V394.611C30.6191 397.333 31.4356 400.055 31.4356 401.96C31.4356 410.397 25.7198 418.563 18.0988 418.563Z" fill="white"/>
<path d="M2251.63 181.382C2243.74 178.388 2238.84 171.855 2238.84 161.24C2238.84 154.164 2239.65 146.815 2239.65 139.738C2239.65 132.389 2239.38 125.313 2238.84 120.413L2238.02 114.97L2232.58 115.242C2221.96 115.242 2211.62 117.691 2199.1 120.685C2196.92 121.23 2194.74 121.774 2192.84 121.774C2190.93 121.774 2189.3 120.685 2187.4 120.413C2182.77 119.325 2179.5 117.964 2177.05 113.881C2175.69 111.431 2174.88 109.526 2174.88 107.076C2174.88 105.443 2174.87 104.082 2175.42 102.449C2176.51 98.0945 2177.87 96.7336 2182.22 95.6449C2191.75 93.4675 2202.64 93.4675 2211.62 88.8404C2217.88 85.5743 2227.68 85.0299 2234.21 83.9412C2236.39 83.669 2238.02 83.3968 2239.93 82.8525V76.048C2239.93 71.9653 2239.38 67.6104 2239.38 64.0721C2239.38 57.2676 2238.56 49.9187 2238.02 43.1142C2237.75 41.4811 2237.75 39.8481 2237.75 38.215L2238.02 34.1323C2238.02 31.4105 2238.84 25.1504 2239.93 24.0616C2241.56 22.4285 2244.55 21.3398 2247.55 21.3398C2252.17 21.3398 2257.07 23.5173 2258.98 26.7834C2260.88 30.3218 2262.52 34.6766 2265.78 37.6706C2266.87 38.4872 2267.14 39.8481 2267.14 41.4811C2267.14 42.5698 2267.14 43.3864 2266.87 44.2029C2266.33 46.1082 2266.33 48.0135 2266.33 49.9187C2266.33 52.3683 2266.6 55.0901 2266.87 57.8119C2267.96 64.6164 2268.78 70.8766 2268.78 77.681C2268.78 79.3141 2269.05 81.4916 2269.32 83.3968C2270.95 83.669 2272.32 83.9412 2274.22 83.9412C2295.45 85.5743 2302.8 87.2073 2306.61 88.2961C2316.68 91.29 2321.31 96.1893 2321.31 105.988C2321.31 110.615 2318.59 114.425 2314.5 114.425C2310.69 114.425 2307.15 114.97 2302.8 114.97C2301.17 114.97 2299.26 114.425 2297.63 113.337C2294.36 110.887 2292.46 111.159 2272.32 110.343C2269.87 110.343 2268.5 110.343 2267.14 110.615C2266.87 112.52 2267.14 114.425 2267.42 116.875C2268.78 126.129 2269.05 126.673 2269.32 127.762C2269.87 129.667 2269.87 131.3 2270.95 133.478C2271.77 135.383 2272.32 137.561 2272.32 139.466C2272.32 141.099 2272.04 142.732 2271.5 144.365C2268.78 154.436 2272.04 167.773 2267.69 172.127C2265.78 174.033 2265.24 175.394 2264.69 176.482C2262.79 180.565 2260.07 182.198 2256.53 182.198C2255.17 182.198 2253.53 181.926 2251.63 181.382Z" fill="white"/>
<path d="M1936.44 205.875C1933.99 205.058 1931.55 204.514 1928.82 204.514H1925.83L1912.22 205.058C1910.32 205.058 1908.68 205.058 1907.32 204.786C1903.24 203.97 1901.61 202.609 1897.52 202.609C1892.35 202.609 1884.46 202.881 1877.11 200.431C1876.29 200.159 1875.48 199.887 1874.39 199.887C1873.84 199.887 1872.75 200.159 1871.67 200.704C1871.12 200.976 1870.3 201.248 1869.49 201.248C1868.67 201.248 1867.85 200.976 1867.04 200.704C1864.04 199.343 1862.68 196.621 1861.59 194.443C1860.78 192.81 1858.87 190.633 1858.33 190.089C1857.24 189 1856.97 187.639 1856.97 186.006C1856.97 184.373 1857.51 182.74 1858.33 180.562C1859.96 177.024 1862.41 175.663 1865.41 175.119C1869.49 174.302 1873.3 173.758 1877.38 173.758C1880.1 173.758 1883.1 174.302 1885.82 174.846L1890.17 175.663C1894.53 176.752 1897.52 177.024 1899.7 177.024C1902.97 177.024 1904.87 176.48 1906.78 176.48C1912.22 176.48 1913.58 178.385 1919.02 178.385C1923.38 178.385 1931.27 176.207 1934.81 177.024C1936.44 177.296 1938.62 177.568 1939.98 177.568C1942.16 177.568 1944.34 177.024 1946.79 175.935C1947.88 175.391 1949.24 175.119 1950.6 174.846C1955.22 173.758 1962.03 171.308 1962.57 165.865C1963.39 158.788 1968.56 157.155 1968.83 147.901C1968.83 146.54 1968.29 144.907 1966.38 142.185C1963.66 138.102 1960.12 131.57 1954.68 130.753C1939.98 128.304 1939.17 121.771 1932.09 120.138C1926.37 118.777 1921.2 113.878 1916.3 108.707C1910.59 102.719 1914.67 101.358 1908.41 95.6421C1907.05 94.5534 1906.23 92.9203 1905.14 88.8376C1904.33 85.8437 1902.97 81.4888 1902.97 77.1339C1902.97 75.773 1903.24 74.4121 1903.51 73.0512C1905.69 64.3415 1904.87 58.8979 1907.59 51.8212C1910.86 43.6558 1917.12 39.0288 1921.2 29.2303C1924.74 21.0649 1931.27 18.8874 1936.99 15.0769C1939.17 13.716 1943.25 13.4438 1945.43 12.3551C1948.42 10.722 1950.05 8.27243 1953.32 7.18371C1959.85 5.27846 1966.38 4.46191 1972.64 4.46191C1975.64 4.46191 1979.45 4.73409 1985.44 8.00025C2000.95 16.71 1997.68 10.722 2012.11 19.9762C2016.19 22.698 2019.73 26.2363 2022.73 30.0468C2027.35 35.4904 2027.35 40.6618 2033.34 46.3776C2035.52 48.555 2035.52 52.6377 2035.52 55.6317C2035.52 60.2588 2035.25 66.5189 2031.43 68.4242C2029.26 69.5129 2027.35 69.7851 2025.45 69.7851C2020.28 69.7851 2010.75 67.0633 2007.76 61.6197C2005.03 56.4482 2005.58 51.2768 2004.49 48.555C2003.4 45.8332 2002.31 44.2002 1999.86 42.2949C1992.24 36.5791 1989.79 40.6618 1981.08 34.1295C1976.45 30.5912 1971.01 31.4077 1969.11 31.4077C1966.66 31.4077 1964.48 31.9521 1957.67 35.7626C1944.34 43.6558 1953.59 43.3836 1936.99 56.1761C1932.63 59.7144 1931 65.4302 1931.82 71.4181C1932.09 73.0512 1932.09 74.9565 1932.09 76.5896C1932.09 83.6662 1931 90.4707 1939.17 94.0091C1944.88 96.4587 1947.6 102.174 1953.32 104.896C1955.22 105.985 1957.67 107.074 1960.4 107.346C1972.92 108.435 1974.01 114.695 1984.62 120.41C1990.06 123.404 1989.52 129.12 1991.15 132.386L1994.69 138.647C1996.6 142.185 1994.42 144.09 1994.96 149.534C1995.51 155.794 1993.87 162.326 1992.24 165.865C1991.15 168.314 1991.15 170.219 1991.15 172.669C1991.15 175.391 1988.7 176.48 1987.89 178.929C1985.71 184.917 1982.17 190.089 1978.9 193.355C1978.09 194.171 1975.09 195.532 1973.19 196.076C1971.56 196.621 1970.74 197.437 1968.83 199.615C1966.66 201.792 1962.57 203.425 1958.76 203.425C1956.86 203.425 1954.95 203.153 1953.05 202.881C1951.96 202.609 1950.87 202.609 1949.78 202.609C1947.88 202.609 1945.97 203.425 1945.15 204.242C1943.52 205.603 1941.62 206.419 1939.44 206.419C1938.35 206.419 1937.26 206.147 1936.44 205.875Z" fill="white"/>
<path d="M1714.49 192.534C1705.78 192.534 1701.43 186.002 1701.43 177.02C1701.43 172.665 1706.05 164.499 1705.51 154.157C1705.24 148.441 1705.78 145.719 1706.87 141.636C1711.23 123.945 1708.78 119.318 1708.78 113.058C1708.78 102.715 1712.59 99.7207 1711.23 78.2185C1710.41 65.9704 1712.59 62.9764 1713.13 56.9885C1713.67 51.5449 1710.68 41.4742 1714.49 34.9419C1717.76 29.4983 1719.94 25.6878 1725.65 25.6878C1734.09 25.6878 1741.71 29.7705 1745.79 37.6637C1751.78 49.6396 1755.05 48.0065 1762.94 56.7163C1769.2 63.5208 1767.02 66.7869 1777.36 73.5914C1786.62 79.8516 1782.26 83.6621 1788.52 90.1944C1798.05 99.9929 1798.05 107.07 1801.86 109.247C1802.13 107.07 1802.95 105.436 1803.22 101.898C1804.58 81.7568 1808.94 91.0109 1807.85 69.7809C1806.76 49.3674 1810.84 54.2667 1810.84 36.3028V23.5104C1810.84 16.978 1813.02 12.6232 1818.46 10.9901C1820.91 10.1736 1823.09 9.90137 1825.27 9.90137C1829.62 9.90137 1832.89 11.5345 1836.16 13.4397C1839.97 16.1615 1841.33 20.2442 1841.33 24.8713C1841.33 32.7645 1838.33 34.3976 1838.33 42.2908C1838.33 43.6517 1838.61 44.7404 1838.61 46.3735C1839.69 52.9058 1836.97 54.5389 1837.79 59.9824C1839.15 68.1478 1833.98 79.5794 1832.89 90.1944L1831.26 106.797C1830.71 110.88 1828.53 114.963 1827.72 119.318C1827.17 121.767 1827.17 124.217 1827.17 126.939L1827.45 133.743C1827.45 135.648 1826.36 138.098 1824.45 141.092C1823.36 142.725 1822.82 144.358 1822.82 146.263C1822.82 147.624 1823.36 148.985 1823.64 150.618C1825.54 160.689 1819.01 164.227 1814.11 164.227C1807.58 164.227 1800.23 160.689 1797.78 154.157C1791.79 137.826 1789.61 144.63 1785.8 131.021C1784.17 124.761 1780.36 126.939 1777.64 120.134C1773.83 110.88 1771.38 112.241 1767.02 104.348C1765.12 100.809 1763.48 94.8215 1759.13 92.3718C1753.41 89.3779 1755.05 85.5673 1752.32 83.9343C1746.06 79.8516 1744.7 73.3193 1739.53 70.5975C1739.53 73.3193 1738.72 74.408 1738.99 76.5854C1740.08 91.2831 1736.54 88.5613 1737.35 102.987C1737.9 113.058 1734.9 113.33 1734.9 117.412C1734.9 120.134 1736.54 123.4 1736.54 127.211C1736.54 128.3 1736.27 129.388 1735.99 130.477C1734.09 138.642 1734.9 150.618 1733 157.151C1732.18 160.417 1731.64 162.322 1731.64 163.955C1731.64 166.405 1732.46 168.038 1732.46 169.943C1732.46 174.842 1729.19 173.481 1728.64 183.008C1728.37 187.363 1720.75 192.534 1714.49 192.534Z" fill="white"/>
<path d="M1583.78 192.266C1581.33 191.722 1576.7 191.449 1574.52 191.449C1566.08 191.449 1559.55 191.449 1554.65 187.911C1547.58 182.74 1545.4 184.373 1541.59 179.201C1540.23 177.296 1539.41 176.207 1537.51 175.663C1535.33 174.846 1532.06 173.758 1530.43 171.308C1528.8 168.586 1526.35 167.498 1522.26 165.32C1517.09 162.326 1512.74 153.344 1508.11 150.35C1501.58 145.995 1498.31 137.013 1498.31 129.12C1498.31 117.689 1495.32 110.068 1495.32 100.541C1495.32 95.9143 1495.59 91.2873 1497.22 86.6602C1497.49 85.8437 1497.49 84.4828 1497.49 83.6662C1497.49 76.5896 1498.31 70.8738 1502.39 65.9745C1504.03 63.7971 1504.03 62.164 1504.03 61.3475C1504.03 55.3595 1510.02 52.6377 1514.37 47.7385C1517.09 44.2002 1516.82 39.5731 1519.54 36.5791C1525.8 29.2303 1531.52 22.9701 1540.23 18.6153C1542.4 17.2544 1544.58 14.5326 1545.94 12.6273C1549.75 7.18371 1556.01 4.46191 1561.46 4.46191C1565.81 4.46191 1568.53 6.91153 1572.89 7.72808C1575.88 8.27243 1576.97 10.722 1577.24 18.0709C1582.96 16.71 1589.22 18.6153 1593.57 19.704C1604.19 22.4258 1603.64 26.5085 1613.72 28.9581C1627.6 32.2242 1633.86 42.5671 1639.3 49.3716C1642.57 53.4543 1641.21 58.8979 1642.84 64.0693C1646.38 76.5896 1651.82 78.4948 1651.82 98.6361C1651.82 112.245 1645.56 116.6 1644.47 127.487C1643.66 135.653 1644.47 141.641 1636.03 150.895C1627.6 160.421 1628.41 164.504 1626.51 166.409C1623.51 169.131 1619.43 169.947 1615.62 173.758C1614.53 174.846 1612.35 178.113 1611.27 179.201C1607.46 183.012 1603.64 186.006 1600.65 186.55C1596.84 187.095 1594.66 187.367 1591.94 189.816C1589.49 192.538 1588.13 193.082 1583.78 192.266ZM1593.3 156.61C1597.66 152.256 1601.47 147.084 1609.9 140.824C1615.62 136.469 1614.8 131.026 1616.17 124.765C1620.79 105.441 1625.15 103.535 1622.7 89.9264C1621.34 82.0331 1621.61 76.5895 1620.25 69.2407C1619.16 61.8918 1615.62 58.0813 1611.54 56.9926C1606.37 55.6317 1606.64 50.7325 1600.92 48.0107C1598.47 46.922 1594.39 44.7445 1591.4 44.7445C1588.4 44.7445 1586.77 46.1054 1584.86 46.922C1580.78 49.3716 1578.33 50.4603 1575.34 50.4603C1566.36 50.4603 1563.09 44.7445 1559.01 40.3896C1555.47 40.3896 1552.2 43.6558 1550.3 45.8332C1545.4 51.0047 1539.68 53.1821 1538.32 62.4362C1537.78 65.9745 1536.96 68.152 1533.69 70.0572C1532.61 70.6016 1531.25 73.5956 1530.43 74.9565C1529.07 77.9504 1528.52 80.4001 1527.98 83.394C1527.16 86.1158 1524.98 88.8376 1524.17 91.2873C1523.08 94.5534 1526.35 96.1865 1523.62 105.441C1522.81 107.89 1522.81 110.34 1522.81 112.517C1522.81 115.783 1523.62 119.866 1526.07 123.132C1527.98 126.126 1528.52 128.848 1528.52 132.114C1528.52 134.836 1529.61 137.286 1532.61 139.191C1535.06 141.368 1537.23 143.818 1539.41 146.54C1540.23 147.356 1541.04 148.717 1542.13 149.806C1546.49 154.161 1552.48 154.977 1554.38 157.427C1556.56 160.421 1560.64 165.048 1570.71 165.048C1580.24 165.048 1586.77 163.143 1593.3 156.61Z" fill="white"/>
<path d="M1423.92 194.987C1420.11 194.987 1417.39 193.626 1414.39 189.815C1410.58 185.46 1407.32 181.922 1407.32 175.662C1407.32 172.94 1410.04 168.585 1410.04 160.964C1410.04 154.704 1408.13 143.273 1409.76 131.297C1410.85 123.948 1408.13 111.7 1408.13 106.8C1408.13 101.901 1410.31 92.9193 1408.95 85.5704C1407.86 79.5825 1410.31 74.411 1408.95 68.6953C1404.87 51.8201 1410.58 46.1044 1407.32 34.1285C1405.68 28.4127 1405.68 24.33 1405.95 20.2473C1406.5 13.4428 1410.31 10.9932 1415.21 10.9932C1419.02 10.9932 1423.65 12.8984 1427.46 15.0759C1430.72 16.9811 1435.08 21.6082 1435.08 27.0518L1434.81 34.945C1434.81 38.4833 1436.98 39.2999 1436.98 45.2878C1436.98 47.1931 1436.44 49.9149 1436.71 53.7254C1437.25 62.4351 1433.72 60.5299 1436.98 83.6652C1438.07 90.4697 1436.44 94.2802 1436.44 100.812C1436.44 107.617 1437.53 112.244 1437.8 116.055C1438.07 120.954 1436.98 124.22 1438.62 131.569C1439.43 135.651 1437.8 140.279 1437.53 144.361C1437.25 147.083 1438.62 156.882 1438.62 161.781C1438.62 164.503 1436.71 166.68 1436.44 170.218V171.035C1436.44 173.757 1437.25 176.478 1437.25 178.384C1437.25 186.821 1431.54 194.987 1423.92 194.987Z" fill="white"/>
<path d="M1276.83 197.979C1272.48 198.795 1270.3 196.073 1268.39 195.801C1265.13 195.257 1262.95 195.257 1261.04 192.535C1258.32 188.452 1256.15 185.186 1256.96 180.015C1258.05 172.394 1262.13 165.317 1261.86 158.513C1261.32 147.625 1267.31 138.099 1268.39 130.75C1268.94 126.123 1271.12 123.674 1271.93 118.502C1273.02 110.337 1270.03 99.1775 1274.11 90.1956C1275.47 87.2016 1276.83 81.4858 1276.83 77.1309C1276.83 73.3204 1277.1 70.5986 1279.01 64.0663C1280.37 59.9836 1277.92 56.7175 1279.28 53.7235C1280.64 50.7295 1282 46.6468 1284.45 44.1972C1281.46 43.3806 1280.1 43.3806 1279.28 43.3806C1276.56 43.3806 1275.47 45.2859 1272.48 45.5581C1265.4 46.1024 1259.41 46.1024 1253.97 48.2799C1236.55 55.0844 1249.34 54.54 1232.19 62.161C1226.75 64.6107 1225.93 66.2437 1223.48 71.4152C1221.58 74.6813 1219.4 76.3144 1216.41 76.3144C1213.14 76.3144 1210.42 76.3144 1208.24 73.5926C1207.15 72.2317 1205.79 68.149 1204.43 66.5159C1202.25 64.0663 1200.62 63.7941 1200.62 61.0723C1200.62 58.0784 1201.71 55.0844 1203.62 53.1791L1211.51 42.8363L1215.86 37.9371C1218.04 36.0318 1220.22 34.3987 1223.48 32.7656C1227.84 30.5882 1228.66 32.2213 1232.19 29.4995C1234.64 27.5942 1238.18 24.8724 1243.35 22.9672C1248.8 21.0619 1253.7 19.1566 1259.96 19.1566C1264.58 19.1566 1267.58 19.9732 1271.93 18.0679C1274.38 16.9792 1277.65 16.707 1280.37 16.707C1282.82 16.707 1285.27 17.5236 1287.99 17.7958C1290.98 18.0679 1293.98 19.9732 1296.7 20.2454C1303.78 21.0619 1310.58 21.0619 1317.11 22.1506C1331.54 24.3281 1328.82 28.4108 1343.24 33.5822C1347.05 34.9431 1345.42 37.6649 1349.23 38.7536C1353.86 39.8423 1357.4 43.3806 1360.66 47.4633C1362.02 48.5521 1363.11 49.6408 1364.2 51.0017C1366.38 52.9069 1367.47 56.1731 1367.47 58.8949C1367.47 61.8889 1366.38 64.6107 1364.2 66.7881C1362.3 68.4212 1359.85 68.9655 1357.67 68.9655C1354.13 68.9655 1353.31 66.2437 1350.05 64.8828C1348.14 64.0663 1343.79 64.6107 1342.15 63.7941C1337.8 61.8889 1337.26 59.7114 1335.08 57.534C1332.63 55.3566 1328.82 54.54 1326.91 54.2678C1320.38 53.4513 1315.21 49.6408 1310.58 48.8242C1310.58 49.6408 1311.94 51.546 1309.77 54.8122C1305.68 61.8889 1304.59 69.2377 1304.59 75.2257C1304.59 80.6693 1303.78 86.9294 1301.6 94.2783C1298.61 102.988 1297.79 109.248 1297.79 115.78C1297.79 117.686 1297.79 119.863 1298.06 121.768C1298.61 126.123 1297.79 131.023 1296.97 135.65C1293.98 149.259 1288.26 159.057 1288.26 173.21C1288.26 182.192 1286.63 196.346 1276.83 197.979Z" fill="white"/>
<path d="M1039.77 200.972C1034.87 198.795 1028.33 193.623 1028.33 187.091C1028.33 184.914 1030.24 177.837 1038.13 176.204C1039.77 174.571 1042.22 171.849 1044.12 166.678C1053.65 141.093 1057.46 141.093 1058.82 125.851C1060.45 106.798 1071.61 90.7394 1074.61 74.1365C1075.69 68.6929 1080.32 62.9771 1080.87 55.3561C1081.41 46.9185 1085.49 38.4809 1087.67 30.0433C1087.94 28.6824 1088.49 27.3215 1088.76 26.2328C1090.39 19.7005 1092.84 11.2629 1095.84 8.54113C1098.29 6.09151 1104.82 5.81934 1110.53 5.81934C1114.07 5.81934 1116.25 6.90806 1117.88 9.0855L1123.33 15.89C1127.68 20.7892 1131.22 25.6885 1133.94 31.4042C1135.57 34.9426 1137.48 36.8478 1138.84 37.9366C1139.93 38.7531 1141.02 40.114 1141.29 42.2914C1141.56 44.4689 1143.47 48.2794 1145.92 52.0899C1148.64 56.4448 1150.82 60.7997 1151.63 65.4267C1152.99 73.0477 1157.08 75.4974 1158.16 83.3906C1160.89 101.627 1164.42 104.076 1164.42 107.615C1164.42 110.336 1163.06 114.419 1163.06 116.597C1163.06 119.318 1164.15 120.135 1164.15 122.857C1164.15 124.762 1162.52 129.389 1162.52 131.839C1162.52 134.56 1163.34 135.377 1163.34 137.282C1163.34 139.187 1162.25 141.093 1162.25 142.998C1162.25 146.264 1163.88 146.536 1163.88 149.802L1163.61 156.063C1163.61 161.506 1165.51 161.234 1165.51 166.95C1165.51 171.849 1163.34 178.926 1163.34 183.008C1163.34 185.458 1161.98 187.091 1160.34 187.908C1158.16 189.269 1155.72 189.813 1153.27 189.813C1148.37 189.813 1143.47 187.363 1141.83 183.281C1139.66 178.109 1138.02 173.21 1138.02 167.222C1138.02 160.962 1138.84 154.702 1138.84 149.802C1138.84 143.814 1137.21 143.814 1137.21 135.921L1137.48 127.484C1137.48 122.584 1137.21 122.857 1136.93 120.951C1128.77 120.951 1125.78 123.129 1119.79 122.584C1115.16 122.04 1111.35 124.218 1106.72 124.218C1100.46 124.218 1096.65 119.863 1086.04 119.863C1084.68 122.584 1083.86 121.496 1083.59 126.667C1083.32 130.478 1082.5 133.744 1081.14 137.282C1079.78 141.365 1080.05 148.442 1077.87 152.796C1073.52 161.506 1072.7 169.944 1065.9 179.198C1064.26 181.647 1059.36 190.085 1058.82 192.807C1058.27 196.617 1055.83 198.25 1053.38 199.611C1050.11 201.517 1047.66 202.333 1045.21 202.333C1043.58 202.333 1041.67 201.789 1039.77 200.972ZM1127.95 98.9048C1132.31 98.9048 1135.85 97.5439 1136.66 97.2717C1135.85 90.7394 1134.49 87.2011 1133.67 85.2958C1129.31 76.8582 1129.86 66.7876 1123.87 59.1666C1120.6 55.0839 1121.42 53.1786 1118.15 47.735C1116.79 45.5576 1115.43 43.9245 1112.98 41.2027C1112.17 43.9245 1109.99 46.3741 1109.17 50.729C1108.36 55.0839 1104 59.9831 1102.64 67.8763C1101.55 73.0477 1097.47 74.6808 1096.65 82.0297C1095.56 91.8281 1091.75 91.556 1089.85 97.5439C1092.84 98.9048 1093.66 100.266 1097.74 100.266C1102.64 100.266 1110.81 98.9048 1115.16 98.6326C1119.52 98.3605 1123.6 98.9048 1127.95 98.9048Z" fill="white"/>
<path d="M810.065 197.706C805.71 195.256 799.722 191.718 798.361 187.091C796.728 181.919 795.095 175.931 795.095 170.215C795.095 168.582 795.367 166.949 795.639 165.316C797 159.056 797.544 154.973 797.544 151.707C797.544 147.08 796.728 144.358 796.728 140.003C796.728 137.554 797 134.56 797.817 130.205C799.45 121.223 800.81 114.691 800.538 105.981C800.266 93.1885 802.716 94.8216 800.266 75.2246C799.45 69.781 802.171 64.0653 802.171 58.3495C802.171 54.8112 801.627 51.8172 801.083 48.2788C800.81 47.1901 800.81 45.8292 800.81 44.7405C800.81 42.8353 801.083 40.6578 801.355 38.4804C802.716 31.9481 805.165 25.6879 806.798 18.8834C808.159 12.8955 813.331 9.08496 820.135 9.08496C824.218 9.08496 828.573 10.9902 830.206 14.8007C832.111 19.1556 836.738 22.1496 838.916 26.5045C840.277 29.4984 843.543 34.1255 847.625 37.6638C857.968 46.1014 854.702 47.7345 867.767 61.8878C874.571 69.2367 871.577 73.8637 878.926 81.2126C884.37 86.6562 886.003 93.7329 889.541 100.265C890.902 102.715 892.807 105.981 894.713 108.703C897.162 105.981 898.523 103.531 899.34 102.17C901.517 99.1765 904.239 96.999 905.872 92.9163C909.682 83.9344 914.037 82.5735 916.487 76.0412C919.209 68.6923 926.013 65.6983 930.368 59.166C932.818 55.3555 934.179 51.0006 939.622 43.3796C948.876 30.0428 957.042 28.1375 960.852 21.6052C962.757 18.3391 966.296 18.3391 969.29 18.3391C972.284 18.3391 972.828 19.4278 976.911 19.7C982.627 19.7 980.721 25.1436 985.348 28.1375C987.798 29.7706 988.887 33.309 988.887 36.0307C988.887 38.7525 988.342 41.2022 988.342 42.8353C988.342 46.6458 989.159 55.3555 991.064 65.4262C992.425 73.5916 989.703 76.3134 989.703 79.0352C989.703 82.0291 991.881 82.8457 991.609 86.9284C990.792 98.3599 994.058 109.519 994.058 120.679C994.058 124.761 992.425 129.661 992.697 133.199C993.242 138.643 996.508 148.169 994.602 153.068C990.792 163.683 994.33 165.316 992.153 174.026C991.336 177.02 990.52 180.014 990.52 183.28L990.792 188.179C990.792 194.712 982.899 196.889 978.816 196.889C974.461 196.889 970.923 195.8 968.201 191.99C964.663 187.635 963.03 183.008 963.03 177.836C963.03 173.482 964.663 171.848 966.024 162.05C967.929 147.08 963.846 138.915 965.751 126.122C966.84 118.501 963.03 114.691 963.846 109.791C965.207 101.898 961.669 101.354 963.302 94.8216C965.751 85.2953 963.846 74.9525 963.846 65.154C963.846 63.2487 964.391 61.8878 964.391 60.2548C964.391 58.6217 963.846 57.8051 964.118 55.0833C961.669 57.8051 960.308 59.166 959.491 60.7991C957.858 64.6096 954.048 66.2427 952.415 69.781C951.054 72.775 951.326 76.3134 947.243 79.5795C940.439 85.0231 939.894 90.7389 936.084 94.8216C927.102 104.62 930.64 113.602 920.297 119.59C917.303 121.495 916.487 123.4 915.943 124.489C913.765 128.844 911.043 133.199 906.961 135.921C903.422 138.098 905.327 142.725 903.15 145.175C900.428 148.169 897.434 149.53 894.168 149.53C886.003 149.53 882.464 142.725 879.198 135.921C876.476 130.205 875.66 124.489 873.21 119.59C870.761 114.146 865.861 110.336 861.507 101.354C856.063 89.9223 852.797 92.9163 850.075 81.757C848.714 76.0412 842.454 76.0412 838.371 66.2427C835.105 58.6217 831.839 56.7164 828.573 53.9946C827.756 56.7164 827.212 58.0773 827.212 60.2548C827.212 62.7044 828.301 67.6036 828.301 70.3254C828.301 74.4081 827.756 78.4908 827.484 82.8457C827.212 89.1058 827.212 97.8156 828.028 107.614V108.975C828.028 110.88 827.484 113.058 826.94 114.963C825.307 118.773 824.49 122.584 824.49 126.667C824.49 129.116 825.035 131.566 825.035 134.015C825.035 137.009 825.579 139.731 825.579 142.453C825.579 143.814 825.307 145.447 825.035 146.808C824.218 150.346 824.218 153.068 824.49 156.606V157.967C824.49 160.689 823.946 162.867 822.857 164.5C822.04 165.86 821.768 166.677 821.768 167.221C821.768 168.582 822.857 169.399 822.857 171.848C822.857 174.026 822.313 175.931 822.313 177.564V182.191C822.313 186.002 824.218 187.635 824.218 190.901C824.218 193.895 822.585 194.984 820.407 196.345C818.23 197.706 816.053 198.522 813.603 198.522C812.514 198.522 811.426 198.522 810.065 197.706Z" fill="white"/>
<path d="M726.993 197.434C724.816 197.434 722.639 196.617 720.733 194.984C715.562 190.902 710.118 184.914 708.213 177.293C707.397 174.299 705.219 162.323 704.675 159.329C702.769 150.891 701.953 141.909 700.048 133.472C699.503 130.75 696.237 128.028 694.604 125.579C693.515 123.673 692.427 119.863 689.977 118.23C682.084 112.786 677.457 109.792 668.747 109.792C664.12 109.792 661.398 110.064 660.037 110.881C659.493 111.97 659.221 113.058 659.221 114.691C659.221 119.591 660.582 122.312 660.582 125.034C660.582 129.661 658.949 132.111 658.949 136.466C658.949 138.099 659.221 140.276 660.037 142.726C660.309 144.087 660.582 145.176 660.582 146.536C660.582 149.258 660.037 151.98 660.037 154.43C660.037 158.785 658.676 164.228 658.676 166.678C658.676 168.855 658.949 171.305 659.493 174.027C659.765 175.115 659.765 176.204 659.765 177.565C659.765 180.831 657.043 183.553 654.321 185.458C651.6 187.636 652.416 191.718 645.612 191.718C639.352 191.718 634.18 186.002 632.547 176.204C632.003 172.938 632.003 169.672 632.003 166.133C632.003 147.897 634.452 142.726 634.452 132.383C634.452 127.756 633.908 122.04 632.547 113.875C632.275 113.058 632.275 112.242 632.275 111.425C632.275 107.615 633.636 103.532 633.636 99.7215C633.636 93.1892 631.731 88.29 630.37 81.4855C630.37 80.6689 630.097 79.8524 630.097 79.308C630.097 76.8584 630.642 75.2253 630.642 73.3201C630.642 72.5035 630.914 71.687 630.914 70.0539C630.914 68.693 630.642 66.7878 630.097 63.7938C629.009 58.078 627.103 49.3683 624.382 41.2029C623.837 39.2976 623.293 37.1202 623.293 35.2149C623.293 25.1443 630.642 15.0736 639.079 13.1683C642.618 12.3518 645.612 10.9909 649.967 10.4466C656.771 9.35783 662.759 6.90821 669.291 4.18642C676.64 1.19243 683.989 -0.440644 692.154 0.103724C698.415 0.375901 703.042 3.36987 706.308 4.45859C709.574 5.54731 712.024 6.90821 715.018 11.2631C718.556 15.8901 725.633 23.7833 729.715 33.854C731.62 38.7532 730.26 40.3863 731.62 44.1968C732.437 46.6465 735.159 51.0013 735.159 52.9066V54.8118V63.7938C735.159 65.9712 735.159 68.1487 734.614 70.3261C733.798 74.1366 734.07 76.5862 731.62 78.7637C723.999 85.8403 724.544 92.6448 716.651 95.911C710.935 98.3606 709.302 99.7215 706.58 100.81C709.302 102.715 710.935 104.621 716.651 107.887C721.55 110.609 725.36 120.407 727.81 125.579C731.348 132.927 732.165 137.282 732.165 140.548C732.165 144.087 730.804 146.536 730.804 150.619C730.804 153.341 732.981 156.607 732.437 159.873C731.893 163.412 733.254 167.222 735.431 170.488C738.153 174.299 739.786 179.198 739.786 184.642C739.786 186.275 739.514 188.452 736.792 190.902C734.07 193.351 732.709 197.434 726.993 197.434ZM667.93 82.302C680.995 80.1246 683.989 85.0238 688.616 82.8464C693.787 80.3967 697.87 76.0419 700.864 72.2313C705.219 66.7878 710.39 57.5336 707.124 51.8179C703.314 45.2856 704.947 39.0254 700.592 33.0375C698.142 29.4991 694.604 28.1382 690.794 28.1382C686.166 28.1382 680.995 32.2209 676.368 32.2209C661.126 31.9487 663.576 37.6645 656.771 38.7532C653.505 39.2976 651.872 40.6585 649.694 40.6585C651.872 43.9247 652.688 45.5577 653.505 48.8239C656.227 58.078 653.233 59.7111 656.499 67.8765C657.588 70.5983 657.588 73.3201 657.588 75.4975C657.588 78.7637 658.404 80.6689 658.676 82.302C661.398 83.1185 664.12 82.8464 667.93 82.302Z" fill="white"/>
<path d="M507.803 192.269C499.638 192.269 493.106 188.458 484.124 188.458C475.414 188.458 467.793 185.737 462.349 179.749C458.811 175.938 449.013 170.767 447.379 166.684C437.853 144.093 433.226 149.809 431.321 123.68C430.504 110.887 434.587 103.538 435.948 86.1189C436.22 82.3084 441.119 76.8648 441.936 72.2377C444.113 58.9009 452.006 43.6588 466.976 31.1386C472.148 26.7837 476.775 29.5055 485.757 25.4228C494.739 21.3401 499.366 19.707 508.348 19.707C516.241 19.707 521.957 21.8845 526.039 27.6003C535.021 32.7717 545.364 37.3987 551.352 43.6588C553.53 45.8363 554.074 49.1025 555.979 51.8242C557.884 54.0017 560.606 55.9069 561.967 57.2678C566.866 62.1671 571.221 70.0603 570.677 77.137C570.132 85.8467 573.399 91.0181 573.399 98.6392C573.399 107.077 571.766 115.242 569.044 123.135C565.233 134.567 567.955 142.46 565.778 148.72C564.145 153.075 560.334 153.892 558.429 159.335C557.068 163.146 554.89 166.956 551.624 167.773C547.814 168.862 547.269 171.856 545.364 173.761C541.009 178.388 540.465 176.755 533.933 183.559C530.122 187.37 524.678 187.642 519.507 189.003C515.152 190.092 513.519 192.269 507.803 192.269ZM494.194 165.323C496.916 165.595 499.638 166.412 502.36 166.412C506.715 166.412 511.069 164.507 513.247 162.329C514.88 160.696 517.33 160.152 518.963 159.607C523.318 157.974 522.501 154.98 525.223 153.075C535.566 145.454 542.915 134.567 542.915 122.319C542.915 113.337 546.997 117.692 546.725 95.9174C546.725 86.9354 542.37 80.6753 540.465 72.7821C538.015 61.8949 527.128 52.913 521.685 52.913C518.691 52.913 515.152 53.4573 512.158 54.546C510.253 55.3626 509.164 55.6348 507.259 55.6348C501.543 55.6348 497.46 52.0964 493.922 48.2859C488.206 48.2859 475.414 61.6227 472.964 74.143C472.42 77.6813 470.787 80.9475 468.609 83.9415C458.811 97.8226 462.894 106.26 459.628 116.059C457.994 121.23 462.622 123.135 462.622 125.857C462.622 129.668 461.261 129.668 461.261 135.928C461.261 141.099 462.622 146.543 465.615 149.809C467.521 152.259 470.787 154.436 472.42 158.791C473.237 160.696 475.414 161.241 477.047 161.241C481.402 161.241 483.035 165.868 487.662 165.868C489.567 165.868 492.289 165.051 494.194 165.323Z" fill="white"/>
<path d="M324.738 194.988C318.206 194.988 309.224 187.367 309.224 180.835C309.224 179.201 309.496 177.296 310.313 175.935C313.307 170.764 314.396 165.592 313.851 159.877C313.579 157.427 313.579 155.522 313.579 153.889C313.579 145.451 316.301 144.362 315.212 129.937L314.668 119.866C314.668 113.062 315.484 109.796 315.484 105.713C315.484 104.08 315.484 101.902 314.94 99.4528C314.123 95.6423 314.123 91.8318 314.123 87.7491C314.123 80.9446 316.845 73.3235 314.668 66.519C310.585 53.1822 312.763 44.4725 309.769 36.5793C308.68 33.3131 308.952 32.2244 308.952 30.5913C308.952 28.1417 307.863 26.7808 307.863 24.059C307.863 18.071 313.307 13.7162 322.017 11.2665C326.916 9.90564 332.359 9.63347 337.531 9.63347C344.063 9.63347 350.868 9.36129 357.128 6.91167C360.394 5.55077 363.932 4.73423 367.198 4.18988C369.104 3.9177 371.009 3.64551 372.914 3.64551C377.541 3.64551 381.624 5.00642 385.162 9.08911C386.795 10.7222 389.245 11.5387 391.422 12.8996C397.138 16.438 402.31 21.3372 402.31 28.686C402.31 31.1357 400.404 33.8575 398.227 36.3071C396.049 38.7567 393.6 39.5732 391.967 38.7567C390.334 37.9402 388.701 37.3958 386.795 37.668C380.535 38.2123 379.991 33.3131 373.459 34.4018C372.098 34.674 370.465 34.9462 368.287 34.9462C365.021 34.9462 361.21 33.5853 357.128 33.8575C352.501 34.1297 348.418 36.8514 343.791 36.8514C340.525 36.8514 335.898 37.3958 334.809 38.4845C337.259 44.2003 336.442 50.1882 338.075 53.1822C338.892 54.5431 338.892 56.1762 338.62 57.8093C338.347 58.898 338.347 59.7145 338.347 60.5311C338.347 63.5251 339.98 64.3416 340.797 70.6017C341.341 73.5957 341.341 75.501 342.158 76.8619C343.519 77.134 345.152 77.134 348.146 76.8619C351.412 76.3175 354.406 76.3175 357.4 76.3175C360.122 76.3175 362.844 76.3175 364.749 76.8619C370.192 77.9506 370.192 80.4002 374.82 80.9446C381.896 81.4889 386.523 86.9325 389.517 93.1927C390.062 94.2814 390.334 95.0979 390.334 96.1866C390.334 97.2754 389.789 98.3641 389.245 99.725C388.156 101.358 384.89 105.441 379.991 106.529C377.813 107.074 375.364 107.346 373.459 107.346C371.825 107.346 370.465 107.074 368.832 106.257C366.926 105.169 364.749 104.352 360.122 104.896C352.773 105.713 349.779 103.263 344.335 103.263C343.247 103.263 342.43 103.263 341.341 103.535C341.069 104.352 341.069 105.713 341.069 107.074C341.069 110.34 341.614 113.062 341.614 116.328C341.614 122.86 341.614 130.481 340.797 134.564C339.98 138.919 339.164 142.457 339.164 146.54C339.164 148.99 339.708 153.617 339.708 158.516C339.708 163.687 338.075 168.859 338.347 174.03C338.62 179.474 336.987 183.556 334.809 188.183C332.632 192.81 329.365 194.988 324.738 194.988Z" fill="white"/>
<path d="M119.991 197.713C107.743 197.713 100.939 189.275 100.939 179.477C100.939 170.222 97.6726 170.222 97.9448 163.962C98.217 154.436 100.667 147.087 100.667 144.365C100.667 140.283 99.0335 136.472 99.0335 132.389C99.0335 119.869 102.844 107.349 100.667 94.2843C99.3057 85.5746 102.844 75.5039 100.939 67.0663C99.5779 60.8062 102.572 54.8182 102.572 48.5581L102.028 36.8544V32.4995C102.028 25.1507 107.743 20.7958 114.276 20.7958C117.27 20.7958 119.991 21.6123 120.808 22.1567C123.258 23.5176 123.802 26.2394 125.707 27.8725C129.518 31.1386 135.233 32.7717 137.683 37.1266C140.133 41.4814 149.931 45.5641 154.558 50.4634C157.824 53.7295 157.824 55.907 161.363 58.0844C168.712 62.7115 178.238 69.2438 183.409 76.0483C185.315 78.4979 184.226 81.764 188.036 83.9415C192.936 86.9355 197.835 92.9234 203.278 100.272C206.545 104.899 208.178 108.982 212.26 111.159C212.26 108.982 212.533 108.165 212.533 107.077C212.533 105.716 211.988 103.811 211.988 102.178C211.988 98.0948 213.893 95.9174 213.077 91.2903C212.533 87.4798 212.533 83.6693 212.533 81.2197C212.533 78.4979 212.533 76.5926 214.438 66.7942C217.16 52.6408 211.988 58.0844 217.976 36.5822C219.337 31.9551 218.52 27.6003 218.793 24.6063C219.337 21.3401 220.97 19.4349 221.242 16.7131C222.059 9.36423 224.236 8.27551 231.857 6.09806C233.218 5.82589 234.851 5.55371 236.212 5.55371C240.295 5.55371 244.378 7.45896 247.372 11.8138C251.182 17.2574 252.815 19.9792 252.815 23.2454C252.815 27.3281 249.821 28.689 249.821 34.1326C249.821 39.304 248.46 44.4754 246.011 49.919C244.65 52.6408 244.378 54.8182 244.378 56.4513L244.65 61.0784C244.65 62.7115 244.378 64.8889 243.561 67.6107C242.744 70.3325 243.017 73.8708 243.017 76.5926C243.017 79.8588 240.567 84.758 240.567 86.6633C240.567 91.5625 241.928 95.9174 241.656 100.817C241.111 106.805 238.934 108.165 240.023 113.337C241.656 120.958 235.668 119.597 237.029 138.377C237.573 144.093 233.218 150.353 231.857 155.797C230.496 161.513 228.591 163.418 223.148 163.69H222.331C219.609 163.69 216.887 162.601 214.982 161.513C210.083 159.063 204.911 156.069 202.462 149.537C199.74 142.46 197.563 136.472 192.119 131.301C188.853 128.035 188.309 126.402 187.22 122.591C184.77 113.609 175.516 108.982 170.889 100C167.895 94.0121 161.363 93.4678 159.73 89.6573C156.463 81.2197 149.659 77.9535 141.494 73.5986C136.322 70.8769 134.689 66.2498 130.334 63.528L130.062 70.3325C130.062 73.0543 130.879 76.3204 130.879 81.2197C130.879 90.746 127.612 89.6573 128.973 108.982C129.245 114.698 127.885 120.414 127.068 126.402C126.796 128.579 126.252 130.484 126.252 132.662C126.252 134.295 126.524 135.656 127.068 137.289C127.612 139.466 128.157 141.644 128.157 143.821C128.157 146.271 127.612 148.72 126.524 151.442C125.435 154.708 124.346 158.519 124.618 161.785C125.435 170.222 131.423 174.033 129.245 186.009C127.885 193.902 126.252 197.713 119.991 197.713Z" fill="white"/>
<path d="M18.0988 194.987C14.2883 194.987 11.5665 193.626 8.57251 189.815C4.76199 185.46 1.49583 181.922 1.49583 175.662C1.49583 172.94 4.21763 168.585 4.21763 160.964C4.21763 154.704 2.31237 143.273 3.94545 131.297C5.03417 123.948 2.31237 111.7 2.31237 106.8C2.31237 101.901 4.48981 92.9193 3.12891 85.5704C2.04019 79.5825 4.48981 74.411 3.12891 68.6953C-0.953785 51.8201 4.76199 46.1044 1.49583 34.1285C-0.137245 28.4127 -0.137245 24.33 0.134935 20.2473C0.679295 13.4428 4.48981 10.9932 9.38905 10.9932C13.1996 10.9932 17.8266 12.8984 21.6371 15.0759C24.9033 16.9811 29.2582 21.6082 29.2582 27.0518L28.986 34.945C28.986 38.4833 31.1634 39.2999 31.1634 45.2878C31.1634 47.1931 30.6191 49.9149 30.8912 53.7254C31.4356 62.4351 27.8973 60.5299 31.1634 83.6652C32.2521 90.4697 30.6191 94.2802 30.6191 100.812C30.6191 107.617 31.7078 112.244 31.98 116.055C32.2521 120.954 31.1634 124.22 32.7965 131.569C33.613 135.651 31.98 140.279 31.7078 144.361C31.4356 147.083 32.7965 156.882 32.7965 161.781C32.7965 164.503 30.8912 166.68 30.6191 170.218V171.035C30.6191 173.757 31.4356 176.478 31.4356 178.384C31.4356 186.821 25.7198 194.987 18.0988 194.987Z" fill="white"/>
</svg>
