<svg width="1731" height="429" viewBox="0 0 1731 429" fill="none" xmlns="http://www.w3.org/2000/svg">
<path d="M1597.9 419.551C1585.65 419.551 1578.85 411.114 1578.85 401.315C1578.85 392.061 1575.58 392.061 1575.85 385.801C1576.12 376.275 1578.57 368.926 1578.57 366.204C1578.57 362.122 1576.94 358.311 1576.94 354.228C1576.94 341.708 1580.75 329.188 1578.57 316.123C1577.21 307.413 1580.75 297.343 1578.85 288.905C1577.49 282.645 1580.48 276.657 1580.48 270.397L1579.93 258.693V254.338C1579.93 246.99 1585.65 242.635 1592.18 242.635C1595.18 242.635 1597.9 243.451 1598.72 243.996C1601.16 245.356 1601.71 248.078 1603.61 249.711C1607.42 252.977 1613.14 254.611 1615.59 258.965C1618.04 263.32 1627.84 267.403 1632.47 272.302C1635.73 275.568 1635.73 277.746 1639.27 279.923C1646.62 284.55 1656.14 291.083 1661.32 297.887C1663.22 300.337 1662.13 303.603 1665.94 305.78C1670.84 308.774 1675.74 314.762 1681.19 322.111C1684.45 326.738 1686.08 330.821 1690.17 332.998C1690.17 330.821 1690.44 330.004 1690.44 328.916C1690.44 327.555 1689.9 325.649 1689.9 324.016C1689.9 319.934 1691.8 317.756 1690.98 313.129C1690.44 309.319 1690.44 305.508 1690.44 303.059C1690.44 300.337 1690.44 298.432 1692.34 288.633C1695.07 274.48 1689.9 279.923 1695.88 258.421C1697.24 253.794 1696.43 249.439 1696.7 246.445C1697.24 243.179 1698.88 241.274 1699.15 238.552C1699.97 231.203 1702.14 230.114 1709.76 227.937C1711.13 227.665 1712.76 227.393 1714.12 227.393C1718.2 227.393 1722.28 229.298 1725.28 233.653C1729.09 239.096 1730.72 241.818 1730.72 245.084C1730.72 249.167 1727.73 250.528 1727.73 255.971C1727.73 261.143 1726.37 266.314 1723.92 271.758C1722.56 274.48 1722.28 276.657 1722.28 278.29L1722.56 282.917C1722.56 284.55 1722.28 286.728 1721.47 289.45C1720.65 292.171 1720.92 295.71 1720.92 298.431C1720.92 301.698 1718.47 306.597 1718.47 308.502C1718.47 313.401 1719.84 317.756 1719.56 322.656C1719.02 328.643 1716.84 330.004 1717.93 335.176C1719.56 342.797 1713.57 341.436 1714.94 360.216C1715.48 365.932 1711.13 372.192 1709.76 377.636C1708.4 383.352 1706.5 385.257 1701.05 385.529H1700.24C1697.52 385.529 1694.79 384.44 1692.89 383.352C1687.99 380.902 1682.82 377.908 1680.37 371.376C1677.65 364.299 1675.47 358.311 1670.03 353.14C1666.76 349.873 1666.22 348.24 1665.13 344.43C1662.68 335.448 1653.42 330.821 1648.8 321.839C1645.8 315.851 1639.27 315.307 1637.64 311.496C1634.37 303.059 1627.57 299.792 1619.4 295.438C1614.23 292.716 1612.6 288.089 1608.24 285.367L1607.97 292.171C1607.97 294.893 1608.79 298.159 1608.79 303.059C1608.79 312.585 1605.52 311.496 1606.88 330.821C1607.15 336.537 1605.79 342.252 1604.98 348.24C1604.7 350.418 1604.16 352.323 1604.16 354.501C1604.16 356.134 1604.43 357.495 1604.98 359.128C1605.52 361.305 1606.06 363.482 1606.06 365.66C1606.06 368.11 1605.52 370.559 1604.43 373.281C1603.34 376.547 1602.25 380.358 1602.53 383.624C1603.34 392.061 1609.33 395.872 1607.15 407.848C1605.79 415.741 1604.16 419.551 1597.9 419.551Z" fill="white"/>
<path d="M1448.54 417.913C1440.65 417.913 1432.48 414.919 1428.67 410.292C1422.69 403.216 1415.61 403.488 1410.71 395.323C1406.9 389.062 1403.63 390.423 1398.73 383.619C1394.92 378.72 1395.2 375.726 1392.75 372.187C1389.48 367.832 1387.3 364.294 1386.21 359.395C1385.4 355.04 1387.85 350.413 1382.95 335.987C1379.14 325.1 1385.67 321.834 1384.85 310.402C1384.31 303.326 1394.11 290.533 1396.56 274.475C1397.65 266.854 1402.82 261.138 1406.63 257.327C1409.08 254.878 1412.07 256.239 1418.33 248.618C1424.59 240.997 1426.22 245.351 1433.57 240.452C1437.11 238.003 1442.83 237.73 1447.73 237.73C1459.16 237.73 1469.77 243.446 1476.31 248.073C1479.84 250.523 1481.21 250.795 1484.74 251.339C1491.28 252.428 1496.45 258.688 1502.16 269.303C1503.8 272.297 1503.8 274.475 1506.25 279.374C1508.15 282.912 1511.96 283.184 1513.32 292.983C1514.41 300.604 1519.04 301.693 1519.04 310.947C1519.04 316.39 1520.94 324.011 1520.94 326.733C1520.94 331.36 1519.85 335.715 1517.68 340.342C1515.5 344.969 1515.23 347.691 1514.96 350.957C1514.68 354.496 1514.41 358.306 1511.69 365.383C1510.6 368.649 1504.07 375.726 1502.16 386.068C1501.07 392.056 1496.72 396.411 1492.36 398.589C1488.28 400.766 1486.92 402.671 1485.56 404.304C1483.93 406.754 1482.84 408.115 1480.93 409.204C1478.48 410.565 1476.31 410.837 1474.13 411.109C1471.13 411.653 1468.14 411.653 1464.33 413.559C1459.98 415.736 1455.08 417.913 1448.54 417.913ZM1450.99 390.423C1453.71 390.423 1455.89 389.607 1458.07 388.518C1462.42 386.341 1463.24 383.619 1469.77 381.441C1473.86 380.08 1477.39 377.086 1478.48 370.826C1479.57 364.838 1482.29 365.383 1485.02 358.85C1486.92 353.951 1484.74 350.141 1488.83 343.064C1492.91 335.987 1493.73 329.727 1492.36 323.467C1488.55 305.775 1492.91 310.402 1488.83 297.61C1486.65 290.533 1482.84 284.545 1478.48 279.102C1475.49 275.563 1472.77 274.475 1469.23 273.386C1466.24 272.569 1464.06 271.753 1459.98 268.487C1458.07 266.854 1456.71 265.221 1451.81 265.221C1446.37 265.221 1444.73 271.481 1438.47 275.291C1431.12 279.646 1421.87 279.646 1420.78 295.705C1419.96 307.136 1412.07 304.415 1413.7 318.84C1414.52 325.645 1409.62 333.538 1412.07 341.159C1413.98 347.419 1412.07 351.229 1414.52 360.211C1416.97 369.193 1421.6 370.01 1423.5 373.548C1426.5 379.264 1429.22 377.086 1432.76 379.808C1435.75 381.986 1436.57 386.068 1441.47 388.518C1443.92 389.879 1448.82 390.423 1450.99 390.423Z" fill="white"/>
<path d="M1312.91 414.099C1304.47 414.099 1293.31 406.206 1293.31 395.863V390.148C1293.31 388.514 1293.31 386.337 1294.4 381.71C1296.03 374.633 1295.21 364.563 1296.03 354.22C1296.3 348.504 1297.12 342.244 1297.66 338.706C1298.48 333.806 1299.03 331.901 1299.03 328.907C1299.03 326.457 1297.94 324.28 1298.48 320.47C1298.75 318.564 1299.3 314.754 1299.3 311.488C1299.3 307.677 1297.94 304.683 1297.39 297.334C1297.12 292.707 1296.85 287.808 1297.12 283.181C1297.66 273.927 1297.66 272.294 1295.49 258.685C1294.94 254.33 1294.94 252.152 1294.94 250.519C1294.94 243.987 1298.48 239.904 1303.92 239.904C1307.46 239.904 1309.37 242.626 1313.18 243.715C1319.71 245.62 1322.71 249.158 1322.71 257.868L1322.16 264.673C1322.16 265.761 1322.43 266.85 1322.71 267.667C1324.07 270.933 1324.61 274.199 1324.61 277.465C1324.61 280.459 1324.34 283.181 1324.07 285.903C1323.79 288.897 1323.52 291.618 1323.52 294.34C1323.52 296.79 1323.79 299.239 1324.88 301.689C1325.15 302.506 1325.43 303.594 1325.43 304.683L1325.15 313.665C1325.15 316.931 1325.7 320.197 1326.79 323.736C1327.06 325.097 1327.33 326.457 1327.33 330.54C1327.33 336.256 1326.24 344.694 1324.07 353.403C1323.25 356.669 1322.98 359.663 1322.98 362.93C1322.98 365.379 1322.98 367.557 1323.52 370.006C1324.07 372.184 1324.34 374.905 1324.34 377.355C1324.34 381.438 1322.71 385.248 1322.43 389.331C1322.16 393.686 1322.98 398.041 1322.71 402.668C1322.43 405.117 1321.89 407.839 1320.8 410.017C1319.44 413.283 1316.72 414.099 1312.91 414.099Z" fill="white"/>
<path d="M1165.83 320.203C1165.56 312.854 1169.64 307.139 1168.82 300.334C1167.74 290.536 1168.01 281.282 1169.64 276.382C1170.46 274.205 1170.19 271.755 1170.46 270.122C1169.37 269.85 1168.55 270.122 1167.46 270.122C1165.83 270.122 1164.2 270.667 1161.75 271.755C1146.78 277.471 1151.13 286.181 1141.88 288.086C1132.62 289.991 1134.26 296.796 1123.64 294.346C1118.2 292.985 1114.93 290.536 1111.67 286.453C1110.85 285.092 1110.31 283.731 1110.31 282.37C1110.31 279.921 1112.76 275.022 1114.66 273.116C1122.01 264.951 1127.45 260.596 1138.34 256.785C1142.7 255.425 1144.6 250.525 1148.41 247.804C1152.49 245.082 1157.66 245.898 1167.46 240.455C1169.91 239.094 1172.36 239.366 1175.08 239.366C1177.53 239.366 1180.26 239.91 1182.71 240.455C1200.12 243.449 1191.96 244.265 1201.49 247.259C1204.48 248.076 1208.56 248.076 1213.73 249.981C1221.63 252.703 1222.44 258.691 1231.15 259.235C1234.96 259.507 1237.96 263.318 1242.31 263.318C1246.94 263.318 1250.48 271.211 1252.66 275.566C1253.74 277.743 1254.56 279.649 1254.56 281.009C1254.56 286.725 1248.57 294.891 1243.4 294.074C1236.6 292.985 1230.06 291.08 1227.34 286.725C1225.17 283.459 1223.53 281.554 1218.91 280.737C1213.19 279.649 1215.37 277.199 1211.28 275.566C1207.2 273.933 1206.11 271.483 1201.21 271.483C1200.4 271.483 1199.04 271.483 1197.95 271.755C1197.68 272.844 1197.95 274.205 1197.68 276.11C1196.86 280.465 1195.23 284.548 1194.41 289.175C1192.5 298.701 1197.13 306.867 1195.23 312.31C1191.14 324.014 1194.95 335.99 1191.42 348.782C1189.24 356.948 1187.88 362.391 1187.88 365.385C1187.88 367.835 1188.42 370.557 1188.42 372.734C1188.42 375.728 1187.88 378.994 1186.52 381.988C1185.16 384.71 1184.88 387.432 1184.88 390.154L1185.16 397.775C1185.16 402.129 1182.43 404.307 1182.43 407.573C1182.43 409.751 1184.07 410.567 1184.07 414.105C1184.07 416.555 1182.71 420.638 1178.08 422.543C1176.17 423.359 1173.45 423.904 1171.27 423.904C1170.19 423.904 1169.1 423.904 1165.56 422.543C1162.84 421.182 1158.75 418.46 1155.76 413.833C1154.94 412.744 1154.67 411.111 1154.67 409.478C1154.67 402.129 1159.03 399.135 1159.03 384.438C1159.03 368.924 1163.65 358.309 1162.84 349.871C1161.48 335.445 1166.37 338.984 1165.83 320.203Z" fill="white"/>
<path d="M1003 421.721C1000.28 421.721 997.283 421.449 994.29 419.816C988.846 417.094 983.402 415.733 978.231 414.917C975.237 414.372 971.971 413.011 969.521 411.923C959.451 406.751 948.563 397.225 944.753 388.787C943.12 385.521 942.031 381.983 940.67 379.805C937.132 374.09 933.593 370.824 930.327 359.936C928.694 354.493 927.605 348.777 927.605 343.333C927.605 338.979 927.878 334.624 928.694 329.997C929.239 325.642 932.777 319.654 933.593 316.66C934.954 312.033 934.682 306.589 936.315 303.051C939.854 295.158 942.848 288.625 945.569 283.998C947.475 281.004 952.374 274.472 953.735 271.75C959.178 261.135 967.072 252.698 976.87 249.431C981.497 247.798 985.035 240.994 990.479 238.816C996.195 236.367 1002.18 235.006 1007.9 235.006C1013.34 235.006 1022.32 236.095 1028.58 239.361C1038.65 244.532 1041.65 243.988 1049.54 248.615C1053.62 251.064 1054.44 255.419 1058.52 258.958C1063.42 263.313 1066.42 266.034 1068.32 270.934C1070.5 276.649 1075.4 282.909 1075.4 288.897C1075.4 291.891 1073.49 294.885 1071.86 297.335C1070.5 299.24 1069.14 301.146 1066.69 301.146C1064.78 301.146 1057.98 299.24 1056.07 298.424C1053.35 297.335 1052.26 296.246 1050.36 294.341C1047.91 291.891 1048.18 287.537 1042.47 282.909C1039.2 280.46 1035.12 274.2 1033.76 270.934C1032.67 268.484 1031.58 267.395 1029.13 266.307C1026.95 265.218 1025.59 265.49 1022.32 263.857C1020.96 263.313 1019.33 262.768 1017.7 262.768C1015.79 262.768 1013.89 263.313 1012.25 264.401C1006.81 268.212 1002.73 270.389 999.189 270.934C996.195 271.206 994.562 272.294 992.656 275.016C990.479 278.282 985.852 278.555 983.13 285.359C981.225 290.258 977.687 289.442 975.237 294.613C971.971 300.873 971.699 304.956 968.432 310.127C962.717 319.109 965.438 325.37 962.989 331.085C960.539 336.801 958.906 341.7 958.906 347.96C958.906 361.297 963.533 363.203 966.255 369.735C968.432 375.178 969.793 379.261 976.053 383.616C981.225 387.154 988.574 391.781 995.65 391.781C1000.28 391.781 1001.91 390.693 1004.9 390.148C1008.99 389.332 1011.98 390.965 1017.97 390.965C1037.29 390.965 1033.76 386.066 1044.64 384.16C1052.26 382.799 1050.9 378.989 1056.35 378.989C1062.61 378.989 1069.14 383.616 1072.41 387.699C1074.58 390.42 1075.94 392.598 1075.94 395.048C1075.94 396.136 1075.67 397.225 1074.85 398.314C1073.22 401.308 1070.5 400.763 1068.87 405.663C1068.05 408.112 1066.42 410.017 1063.15 411.651C1049.81 418.727 1037.57 420.36 1031.03 420.36C1026.13 420.36 1020.96 419.816 1019.33 419.816C1013.61 419.816 1008.99 421.721 1003 421.721Z" fill="white"/>
<path d="M838.836 321.833C841.014 321.833 843.191 321.56 844.552 321.016C843.191 315.028 842.375 309.584 842.919 305.23C844.008 297.881 839.108 289.987 838.02 284.272C835.298 269.846 834.481 269.03 832.576 263.858C831.487 269.03 829.854 269.846 828.493 272.84C827.132 274.473 825.227 282.094 822.505 286.721C817.606 296.52 818.695 303.324 815.701 310.945C814.884 313.395 813.796 315.572 813.251 317.75C813.796 317.75 815.156 318.839 817.606 319.111C824.411 320.199 825.772 319.383 829.31 320.199C832.304 320.472 835.57 321.833 838.836 321.833ZM830.671 345.512C829.038 345.512 827.405 345.24 826.316 344.968C821.689 343.607 816.245 343.063 812.163 343.063H805.086C804.814 343.879 804.269 344.423 802.364 350.684C800.731 356.399 796.92 363.204 793.654 370.825C792.021 374.363 793.11 377.357 791.749 379.262C786.85 386.067 792.293 388.789 792.293 394.505C792.293 400.22 783.856 404.303 778.684 404.303C767.797 404.303 761.537 399.132 761.537 389.061C761.537 384.434 762.081 379.262 764.531 374.908C773.241 359.121 772.152 344.151 782.767 325.099C784.945 321.016 786.578 316.661 787.666 312.306C791.205 297.609 796.92 283.455 802.092 271.479C803.997 266.852 805.902 264.947 806.991 263.042C809.441 257.87 810.802 252.427 811.89 246.711C812.979 240.995 814.884 235.279 819.239 230.924C823.05 227.114 827.677 226.842 832.032 226.842C834.209 226.842 837.203 228.747 839.38 230.652C840.469 231.741 841.83 232.558 842.919 233.646C844.552 235.552 845.368 237.457 846.457 240.451C847.274 242.9 850.812 245.894 853.262 249.433C860.611 260.048 857.617 264.13 860.611 269.03C862.516 272.024 863.332 275.562 864.693 284.272C866.054 293.798 868.232 297.609 868.232 302.236C868.232 304.957 868.232 306.318 869.32 309.584C871.226 315.572 872.314 320.744 872.314 326.46C872.314 337.891 875.58 353.95 875.58 358.305C875.58 362.115 874.764 363.748 874.764 369.464C874.764 373.819 876.669 375.18 876.669 384.162C876.669 387.156 876.669 391.511 875.853 394.505C874.764 398.587 870.137 403.759 866.054 404.031C857.617 404.575 849.451 399.676 849.451 391.511C849.451 390.422 849.451 389.333 849.723 388.244C850.54 384.706 850.812 383.073 850.812 381.984C850.812 378.446 846.185 370.008 846.457 345.512H830.671Z" fill="white"/>
<path d="M636.069 428.806C629.537 428.806 622.188 422.545 621.1 417.374C618.922 406.215 615.384 405.398 617.289 393.694C619.466 379.269 617.017 380.902 617.017 371.92C617.017 365.66 618.106 356.134 618.106 351.234C618.106 346.063 616.745 342.525 615.384 334.359C614.295 325.922 612.934 315.851 612.934 307.958C612.934 296.254 609.94 294.893 608.579 286.728C607.763 282.373 609.124 276.929 604.497 267.947C601.231 261.687 601.503 254.611 601.503 250.256C601.503 244.812 603.408 242.362 604.497 241.274L611.845 234.197C613.751 232.292 617.561 230.387 620.827 229.842C626.543 229.026 630.898 226.576 634.436 224.671C642.057 220.588 651.312 219.499 660.021 218.683C666.281 218.138 671.453 218.955 676.896 222.221L682.884 226.032C686.423 228.209 686.967 229.842 692.955 232.836C702.481 237.463 700.576 242.907 709.014 250.8C716.09 257.605 718.268 264.953 718.268 268.764C718.268 277.474 714.729 275.296 714.729 285.367C714.729 288.905 713.096 295.438 710.647 298.159C707.653 301.698 702.481 310.952 698.126 313.129C689.961 317.212 688.6 318.028 685.878 319.662C688.6 321.567 689.145 323.744 690.505 324.289C693.772 325.922 695.677 326.466 696.221 326.738C697.854 327.555 699.487 328.643 700.848 330.277C703.842 333.815 703.026 335.992 705.748 338.986C710.375 343.886 709.014 343.069 711.191 348.24C712.008 350.146 715.546 352.867 716.362 354.773L719.356 360.761C720.717 363.482 720.445 365.932 721.534 368.654C722.078 369.743 723.439 371.104 723.711 372.192C725.072 376.003 725.617 379.541 725.617 383.352C725.617 388.523 723.711 391.245 717.996 393.694C716.362 394.239 715.002 394.783 713.369 394.783C712.28 394.783 707.108 394.783 704.387 391.517C698.127 383.896 695.677 387.162 694.316 376.275C692.411 361.577 689.961 366.749 686.423 359.128C685.062 356.406 686.423 354.501 681.523 351.507C672.542 346.063 673.902 340.892 663.832 339.531C658.933 338.986 659.205 334.631 654.306 334.631C652.945 334.631 651.039 335.176 649.406 335.72C647.229 336.537 642.602 335.72 640.969 334.631C641.785 340.892 642.874 346.063 643.418 349.057C643.691 350.69 643.963 352.595 643.963 354.773C643.963 359.672 642.602 368.654 642.602 371.648C642.602 376.003 644.779 376.547 644.507 381.991C644.235 386.346 642.874 387.979 643.146 399.138C643.418 408.392 644.507 411.114 645.051 412.203C645.596 413.564 645.868 414.924 645.868 416.285C645.868 422.273 641.785 428.806 636.069 428.806ZM659.205 304.964C664.104 304.964 668.187 302.514 671.725 298.159C673.903 295.438 676.352 292.716 679.074 290.266C680.979 288.633 683.157 286.728 684.245 281.829C686.695 271.214 688.872 270.941 688.872 266.042C688.872 263.865 687.511 261.959 686.423 261.143C682.884 257.877 677.985 252.161 674.447 249.439C672.269 247.534 669.82 246.717 666.826 246.717C665.465 246.717 664.104 246.99 662.471 247.262C660.293 247.534 658.116 248.078 655.939 248.623L649.406 250.256C644.235 251.072 640.152 253.25 635.797 257.877C632.531 261.415 631.442 264.409 631.442 267.403C631.442 268.492 631.442 269.853 631.987 271.214C633.075 274.48 634.709 280.195 634.436 282.917C633.62 289.177 635.525 295.438 638.519 307.413C641.241 307.141 645.596 302.786 650.223 302.786C654.85 302.786 655.666 304.964 659.205 304.964Z" fill="white"/>
<path d="M484.903 414.644C483.814 414.644 482.453 414.644 479.731 413.828C476.737 412.739 468.572 409.473 467.211 406.207C466.122 403.213 465.578 400.763 465.578 397.497C465.578 393.686 467.483 388.243 467.483 384.16C467.483 381.71 466.122 375.722 468.028 370.007C468.844 367.829 469.933 363.746 469.933 361.297C469.933 357.759 468.844 352.859 468.844 346.599V327.819C468.844 324.008 467.483 320.198 467.483 318.02C467.483 310.671 470.75 310.944 470.477 303.323C469.933 290.53 473.199 283.181 473.199 277.465C473.199 272.838 471.294 270.661 472.383 266.306C474.832 257.052 472.11 253.514 472.11 250.52C472.11 247.798 473.471 244.804 474.56 243.715C479.459 238.544 486.808 237.455 491.98 237.455C503.683 237.455 520.014 241.538 524.913 241.538C529.54 241.538 530.629 240.993 533.895 240.993C542.605 240.993 549.137 246.981 554.037 252.697C556.486 255.419 556.758 257.052 556.758 258.685C556.758 261.407 555.67 264.129 553.22 265.49C551.043 266.578 548.865 266.85 547.232 266.85C545.871 266.85 543.422 266.85 540.972 267.395C538.794 267.939 537.161 268.211 534.984 268.211C531.718 268.211 528.452 267.667 520.558 265.762C517.02 264.945 511.576 266.85 505.861 264.945C504.5 264.401 502.595 263.857 499.328 263.857C498.784 265.762 498.512 268.484 498.512 272.838C498.512 274.472 499.056 276.105 499.056 277.738C499.056 280.187 497.695 282.365 497.695 285.631C497.695 289.169 499.328 292.98 499.328 295.429C499.328 298.151 499.056 301.417 497.968 305.5C499.056 305.5 500.145 305.772 505.589 305.772H511.304C516.748 305.772 518.925 306.861 522.191 306.861L528.179 306.589C536.617 306.589 542.877 313.121 542.877 321.286C542.877 325.097 541.516 329.996 534.167 329.996C530.357 329.996 527.907 329.18 525.73 329.18C520.831 329.18 520.286 330.541 513.754 330.541C508.583 330.541 504.228 328.363 496.334 329.18C496.334 331.085 495.79 332.446 495.518 335.168C494.701 343.605 496.607 346.599 496.062 357.214C495.79 361.569 493.34 368.646 494.429 374.906C499.601 372.184 506.133 375.178 509.943 375.178C514.298 375.178 518.925 375.178 523.008 376.539C531.718 379.261 536.073 380.349 540.428 380.894C543.694 381.166 545.871 382.527 546.688 385.521C548.049 390.42 550.226 393.414 550.226 396.68C550.226 402.668 540.155 405.118 534.44 405.118C531.446 405.118 528.724 404.846 525.458 403.757C510.76 399.946 506.133 399.674 502.05 399.674C498.512 399.674 496.879 400.491 496.334 401.035C494.974 402.396 493.068 406.207 492.252 408.928C490.891 413.011 488.169 414.644 484.903 414.644Z" fill="white"/>
<path d="M327.063 421.727C324.069 421.727 320.258 419.55 317.536 417.917C313.182 414.923 311.276 411.112 309.643 407.574C308.555 405.396 307.466 402.674 309.371 399.408C314.542 390.971 308.827 391.243 314.542 378.723C316.992 373.551 316.992 368.108 316.992 362.664C316.992 358.854 318.081 355.587 318.625 351.777C319.17 349.327 321.075 346.605 321.075 338.984C321.619 315.305 327.063 316.393 327.063 302.512C327.063 294.891 330.601 293.53 330.601 288.087C330.601 282.643 331.69 280.194 331.69 277.472C331.69 275.567 332.234 273.933 332.234 271.756C330.057 271.212 326.518 270.395 322.164 270.667C311.548 270.939 302.567 274.75 296.579 274.75C289.774 274.75 290.046 271.484 284.058 270.939C274.804 270.123 267.728 264.679 267.728 259.508C267.728 254.336 273.171 251.07 273.988 245.899C274.532 241.816 281.609 238.822 286.78 238.822C290.591 238.822 298.756 241.272 302.839 242.905C306.105 243.994 309.371 244.266 312.637 244.266C315.631 244.266 318.353 242.633 323.524 243.449C329.785 244.538 333.323 241.816 339.583 242.633C345.299 243.449 346.388 245.627 353.464 245.627C359.997 245.627 364.351 249.437 370.611 249.437C380.41 249.437 386.942 247.804 397.829 252.431C402.457 254.336 404.362 254.609 407.9 254.336C413.616 253.792 419.06 255.97 422.598 257.875C425.047 259.508 425.864 259.78 427.497 260.052C433.757 261.141 430.763 266.857 435.662 270.667C436.751 271.756 437.296 273.117 437.296 274.75C437.296 277.472 435.662 280.738 432.941 282.371C430.491 283.732 428.586 282.915 424.503 286.182C422.598 287.815 419.604 287.815 416.882 287.815C410.894 287.815 407.356 285.637 403.273 282.915C399.19 280.194 394.836 278.016 390.481 279.105C380.138 281.554 380.41 278.288 367.89 278.288C365.984 278.288 364.079 277.472 361.902 277.472C361.357 279.649 361.085 282.643 361.085 284.821C361.085 293.258 357.003 294.891 356.73 306.323C356.73 309.045 356.73 311.766 354.825 313.672C352.103 316.393 355.369 318.299 352.103 323.742C348.565 329.73 350.742 335.446 350.742 341.978C350.742 345.245 349.381 347.966 347.476 350.96C345.843 353.682 346.388 357.493 346.115 361.031L345.843 373.279C345.571 376.817 345.299 380.084 344.21 383.35C342.033 389.338 338.766 396.142 340.127 402.402C341.488 408.935 333.867 421.727 327.063 421.727Z" fill="white"/>
<path d="M106.93 418.728C99.8535 418.728 95.4986 415.19 93.5933 411.651C92.7768 410.018 92.2324 408.113 92.2324 406.48C92.2324 401.309 94.682 396.682 95.4986 392.599C95.7708 391.238 96.5873 388.788 96.5873 386.611C96.5873 384.433 96.0429 381.44 96.0429 379.534C96.0429 377.901 96.5873 376.54 97.1317 375.452C99.8535 367.831 101.214 361.57 102.031 355.038C103.12 345.24 100.126 334.897 104.753 321.288C109.38 307.679 106.93 306.59 109.108 297.064C112.374 283.183 110.468 275.562 112.918 270.118C114.007 267.396 114.279 265.491 114.279 263.041L114.007 257.053C114.007 255.148 114.279 253.243 114.551 251.065C115.64 243.444 121.628 238.273 129.249 238.273C134.692 238.273 142.858 244.533 144.219 252.426C145.035 257.326 145.852 261.408 147.757 264.13C149.935 267.396 152.929 270.662 153.201 275.834C153.473 282.366 158.372 289.171 159.461 294.886C161.366 304.957 164.904 306.862 166.537 310.673C168.443 314.211 167.626 319.11 173.614 327.82C177.969 334.08 174.703 334.897 178.241 344.151C179.058 346.328 179.602 346.873 181.235 349.867C181.78 346.873 183.957 345.512 183.957 332.992C183.957 324.554 187.768 313.939 187.495 303.596C187.223 293.525 194.572 282.91 193.483 272.023C192.395 259.775 195.933 259.231 194.844 246.438C194.028 236.64 198.655 229.291 210.358 229.291C213.08 229.291 216.074 230.108 218.252 231.741C220.429 233.374 222.062 235.823 222.062 239.089C222.062 242.9 220.429 246.711 220.429 250.793C220.429 254.876 221.79 259.231 221.79 263.041C221.79 266.58 221.246 270.118 219.34 278.556C217.435 288.082 220.157 294.886 214.713 308.495C212.264 314.755 214.713 322.921 211.447 328.364C210.086 330.814 209.542 333.536 209.542 335.985C209.542 337.074 210.358 339.796 210.358 342.518C210.358 343.607 210.086 345.24 208.453 348.506C206.004 354.222 205.187 358.032 204.915 362.659C204.37 370.552 200.288 371.913 198.655 380.623C197.566 386.067 191.034 389.061 185.862 389.061C181.507 389.061 180.146 386.339 176.608 384.161C173.614 382.256 167.898 381.712 166.81 377.085C161.91 355.31 156.195 358.576 155.65 350.683C155.106 344.151 151.023 341.429 150.479 336.802C149.39 327.276 145.035 327.548 143.13 319.655C138.775 303.324 137.686 302.235 134.148 294.07C132.787 302.235 131.971 305.774 131.971 315.844C131.971 320.471 131.698 326.459 130.065 330.27C128.977 332.991 128.16 335.441 128.16 338.707C128.16 340.068 128.16 341.429 128.432 342.79C129.249 347.961 126.527 352.861 126.527 358.304C126.527 367.831 123.261 388.516 120.811 395.321C119.723 398.587 120.267 402.942 120.267 406.752C120.267 414.373 114.007 418.728 106.93 418.728Z" fill="white"/>
<path d="M21.9134 414.099C13.4758 414.099 2.31641 406.206 2.31641 395.863V390.148C2.31641 388.514 2.31641 386.337 3.40513 381.71C5.0382 374.633 4.22166 364.563 5.03821 354.22C5.31039 348.504 6.12692 342.244 6.67128 338.706C7.48782 333.806 8.03218 331.901 8.03218 328.907C8.03218 326.457 6.94346 324.28 7.48782 320.47C7.76 318.564 8.30436 314.754 8.30436 311.488C8.30436 307.677 6.94346 304.683 6.3991 297.334C6.12692 292.707 5.85474 287.808 6.12692 283.181C6.67128 273.927 6.67128 272.294 4.49385 258.685C3.94949 254.33 3.94948 252.152 3.94948 250.519C3.94948 243.987 7.48782 239.904 12.9314 239.904C16.4698 239.904 18.375 242.626 22.1855 243.715C28.7178 245.62 31.7118 249.158 31.7118 257.868L31.1675 264.673C31.1675 265.761 31.4396 266.85 31.7118 267.667C33.0727 270.933 33.6171 274.199 33.6171 277.465C33.6171 280.459 33.3449 283.181 33.0727 285.903C32.8005 288.897 32.5284 291.618 32.5284 294.34C32.5284 296.79 32.8005 299.239 33.8893 301.689C34.1614 302.506 34.4336 303.594 34.4336 304.683L34.1614 313.665C34.1614 316.931 34.7058 320.197 35.7945 323.736C36.0667 325.097 36.3389 326.457 36.3389 330.54C36.3389 336.256 35.2502 344.694 33.0727 353.403C32.2562 356.669 31.984 359.663 31.984 362.93C31.984 365.379 31.984 367.557 32.5284 370.006C33.0727 372.184 33.3449 374.905 33.3449 377.355C33.3449 381.438 31.7118 385.248 31.4396 389.331C31.1675 393.686 31.984 398.041 31.7118 402.668C31.4396 405.117 30.8953 407.839 29.8066 410.017C28.4457 413.283 25.7239 414.099 21.9134 414.099Z" fill="white"/>
<path d="M1457.66 106.969C1456.03 108.058 1454.66 108.058 1453.3 108.602C1455.21 110.235 1456.3 110.235 1458.2 112.413C1467.73 123.028 1462.01 122.211 1474.26 134.731C1486.24 146.707 1483.52 149.429 1494.4 159.5C1496.58 161.677 1498.76 162.494 1501.21 163.038C1507.74 163.855 1509.1 172.02 1507.47 176.919C1505.83 182.635 1503.39 182.907 1500.94 188.351C1499.03 193.25 1494.95 194.067 1491.14 193.522C1488.69 193.25 1486.51 191.889 1483.79 189.44C1481.34 187.806 1482.97 185.085 1477.53 182.091C1476.44 181.546 1472.36 175.286 1471.54 174.197C1468.55 171.203 1463.65 170.115 1463.37 167.121C1463.1 163.038 1460.65 163.855 1459.29 161.677C1445.96 135.276 1442.96 144.53 1432.35 123.3C1430.71 119.762 1427.45 118.945 1423.91 118.673C1422.82 118.401 1420.91 117.312 1419.28 115.951C1419.55 117.312 1419.55 118.128 1419.55 118.945C1419.55 124.389 1418.19 130.104 1418.19 136.364C1418.19 140.175 1419.01 150.518 1419.01 151.607L1419.28 155.961C1419.28 158.683 1417.1 160.861 1417.1 163.855C1417.1 168.754 1420.37 172.292 1420.37 176.647C1420.37 186.173 1419.01 189.984 1420.1 200.599C1420.64 206.859 1418.74 208.22 1418.19 210.67C1417.38 216.113 1415.47 217.474 1410.57 217.202C1405.4 216.657 1398.87 216.113 1397.51 208.492C1397.23 207.403 1396.42 207.131 1395.6 206.587C1393.15 205.226 1391.79 202.504 1392.61 198.149C1393.7 192.434 1391.79 186.173 1391.79 180.458C1391.79 177.464 1392.06 174.47 1392.61 170.931C1393.7 164.671 1391.25 160.044 1391.25 153.24C1391.25 150.79 1392.06 149.429 1392.06 146.979C1392.06 144.53 1390.16 142.08 1390.16 139.086C1390.16 133.915 1391.52 128.471 1389.61 121.939C1386.89 112.685 1386.89 103.431 1386.89 96.8984V93.3601C1386.89 92.2714 1386.62 90.9105 1385.53 87.6443C1381.18 76.7571 1381.72 63.1481 1377.91 49.5391C1377.09 46.8173 1377.09 44.6399 1377.09 42.7346C1377.09 36.4745 1379.82 32.9362 1386.62 26.676C1392.34 21.7768 1398.6 16.8776 1405.67 15.5167C1417.38 13.067 1418.74 9.5287 1426.09 7.07909C1429.9 5.71818 1434.25 5.17383 1437.79 5.17383C1445.14 5.17383 1452.22 7.07909 1458.48 11.434C1461.2 13.3392 1462.56 14.7001 1463.65 16.8776C1466.37 21.2324 1469.36 25.8595 1472.9 29.1256C1478.62 34.2971 1482.97 38.9241 1486.24 44.3677C1489.78 51.1722 1489.5 54.4384 1490.86 59.6098C1491.95 63.4203 1492.23 64.7812 1492.23 66.6865C1492.23 69.9526 1489.23 72.6744 1487.05 76.2127C1485.42 79.7511 1483.24 83.2894 1480.25 85.4669C1476.98 87.9165 1479.16 89.0052 1476.71 91.1826C1473.45 93.9044 1470.45 95.8097 1469.36 99.0758C1468.27 101.253 1465.55 103.159 1462.01 105.064C1460.93 105.608 1458.48 106.425 1457.66 106.969ZM1403.77 53.894C1404.58 57.9767 1404.86 62.3316 1405.94 64.2368C1406.49 65.3256 1407.03 67.2308 1407.03 70.7692C1407.03 75.9406 1411.93 83.5616 1413.02 86.5556C1414.65 90.6383 1414.93 92.2714 1414.93 94.721C1417.92 90.9105 1423.09 90.9105 1426.36 91.4548C1429.35 91.9992 1430.99 92.2713 1433.16 91.727C1436.16 90.9105 1436.43 90.6383 1439.15 89.5496C1441.6 88.733 1443.51 87.3721 1444.87 85.739C1448.95 79.7511 1451.13 76.7571 1456.84 72.4022C1460.65 69.4082 1461.74 66.6864 1461.74 62.0594C1461.74 59.0654 1463.65 55.5271 1460.38 53.0775C1455.48 49.5391 1456.84 46.273 1450.58 41.6459C1446.77 38.9241 1447.59 35.3858 1441.87 34.2971C1440.24 33.7527 1434.25 33.4805 1431.8 35.9301C1429.9 37.8354 1425.54 37.0189 1423.91 37.8354C1420.1 39.4685 1420.91 41.1016 1418.47 42.4625C1416.56 43.279 1414.11 43.0068 1412.48 44.3677C1408.39 47.906 1408.94 48.1782 1403.77 53.894Z" fill="white"/>
<path d="M1259.56 194.337C1251.67 194.337 1243.5 191.343 1239.69 186.716C1233.7 179.64 1226.63 179.912 1221.73 171.746C1217.92 165.486 1214.65 166.847 1209.75 160.043C1205.94 155.143 1206.21 152.149 1203.76 148.611C1200.5 144.256 1198.32 140.718 1197.23 135.819C1196.41 131.464 1198.86 126.837 1193.96 112.411C1190.15 101.524 1196.69 98.2578 1195.87 86.8263C1195.32 79.7496 1205.12 66.9572 1207.57 50.8986C1208.66 43.2775 1213.83 37.5618 1217.64 33.7512C1220.09 31.3016 1223.09 32.6625 1229.35 25.0415C1235.61 17.4205 1237.24 21.7753 1244.59 16.8761C1248.13 14.4265 1253.84 14.1543 1258.74 14.1543C1270.17 14.1543 1280.79 19.8701 1287.32 24.4971C1290.86 26.9467 1292.22 27.2189 1295.76 27.7633C1302.29 28.852 1307.46 35.1121 1313.18 45.7271C1314.81 48.7211 1314.81 50.8986 1317.26 55.7978C1319.17 59.3361 1322.98 59.6083 1324.34 69.4068C1325.43 77.0278 1330.05 78.1165 1330.05 87.3707C1330.05 92.8143 1331.96 100.435 1331.96 103.157C1331.96 107.784 1330.87 112.139 1328.69 116.766C1326.52 121.393 1326.24 124.115 1325.97 127.381C1325.7 130.919 1325.43 134.73 1322.7 141.807C1321.62 145.073 1315.08 152.149 1313.18 162.492C1312.09 168.48 1307.74 172.835 1303.38 175.013C1299.3 177.19 1297.94 179.095 1296.58 180.728C1294.94 183.178 1293.85 184.539 1291.95 185.628C1289.5 186.988 1287.32 187.261 1285.14 187.533C1282.15 188.077 1279.16 188.077 1275.35 189.982C1270.99 192.16 1266.09 194.337 1259.56 194.337ZM1262.01 166.847C1264.73 166.847 1266.91 166.031 1269.09 164.942C1273.44 162.764 1274.26 160.043 1280.79 157.865C1284.87 156.504 1288.41 153.51 1289.5 147.25C1290.59 141.262 1293.31 141.807 1296.03 135.274C1297.94 130.375 1295.76 126.565 1299.84 119.488C1303.92 112.411 1304.74 106.151 1303.38 99.8909C1299.57 82.1992 1303.92 86.8263 1299.84 74.0338C1297.66 66.9572 1293.85 60.9692 1289.5 55.5256C1286.51 51.9873 1283.78 50.8986 1280.24 49.8099C1277.25 48.9933 1275.07 48.1768 1270.99 44.9106C1269.09 43.2775 1267.72 41.6445 1262.83 41.6445C1257.38 41.6445 1255.75 47.9046 1249.49 51.7151C1242.14 56.07 1232.89 56.07 1231.8 72.1286C1230.98 83.5601 1223.09 80.8383 1224.72 95.2639C1225.54 102.068 1220.64 109.962 1223.09 117.583C1224.99 123.843 1223.09 127.653 1225.54 136.635C1227.99 145.617 1232.61 146.434 1234.52 149.972C1237.51 155.688 1240.23 153.51 1243.77 156.232C1246.77 158.41 1247.58 162.492 1252.48 164.942C1254.93 166.303 1259.83 166.847 1262.01 166.847Z" fill="white"/>
<path d="M1075.82 198.419C1071.19 198.419 1068.75 197.602 1066.57 195.969C1063.03 193.52 1060.04 190.254 1058.67 185.899C1055.95 178.006 1053.78 169.84 1053.78 161.675C1053.78 153.782 1055.68 150.515 1055.68 144.527C1055.68 142.622 1055.14 140.717 1055.14 137.723C1055.14 132.824 1058.13 123.57 1058.13 119.759C1058.13 114.315 1057.04 93.6298 1057.59 85.4644C1057.86 81.6539 1058.67 77.8434 1058.67 74.0329C1058.67 70.2224 1057.86 66.684 1057.86 62.8735C1057.86 56.6134 1058.4 50.0811 1059.22 43.8209C1059.49 40.827 1060.04 38.1052 1061.12 35.3834C1062.49 32.3894 1063.57 29.3954 1063.85 26.1293C1065.21 16.0586 1070.38 9.25411 1076.64 4.89924C1079.09 3.26616 1084.8 0 1090.25 0C1095.15 0 1099.5 0.816545 1103.86 1.63307C1107.12 2.17744 1110.12 1.3609 1115.83 1.3609C1125.36 1.3609 1134.07 4.89924 1142.51 9.52628C1149.85 13.609 1156.93 17.6917 1162.65 24.4962C1165.1 27.4902 1167.55 31.5728 1166.46 34.2946C1163.46 42.1879 1161.01 45.7262 1157.2 45.7262C1154.21 45.7262 1149.58 46.8149 1145.77 39.7382C1143.59 35.9277 1138.97 37.833 1127.54 29.9398C1122.64 26.6736 1116.38 26.6736 1110.66 26.6736C1107.67 26.6736 1104.95 26.9458 1101.95 27.4902C1097.05 28.5789 1094.87 31.5728 1092.97 36.1999C1091.88 39.1939 1089.16 41.9157 1087.53 44.6375C1086.44 46.5427 1085.08 48.9924 1085.89 53.6194C1086.16 54.9803 1086.16 56.3412 1086.16 57.4299C1086.16 61.7848 1084.8 64.2344 1084.8 69.4058L1085.08 75.1216C1089.43 75.3938 1093.24 75.666 1096.24 77.5712C1102.77 81.6539 1107.67 79.2043 1118.01 84.6479C1121.28 86.281 1124.27 87.0975 1128.35 86.5532C1134.61 85.7366 1138.7 90.3637 1141.69 95.2629C1142.23 96.3516 1142.51 97.4404 1142.51 98.5291C1142.51 99.6178 1141.96 100.707 1141.42 101.795C1140.06 105.061 1137.88 109.144 1135.43 111.866C1134.34 113.227 1132.44 113.227 1131.07 113.227C1126.99 113.227 1123.45 113.227 1119.92 111.322C1112.02 106.967 1103.86 108.6 1099.5 106.15C1092.97 102.34 1087.8 102.884 1084.8 102.884C1083.44 107.511 1083.99 114.043 1083.99 116.493C1083.99 123.57 1083.44 127.924 1082.08 132.552C1081.81 134.457 1081.54 136.634 1081.54 138.539C1081.54 141.533 1082.63 145.344 1082.63 150.243C1082.63 156.503 1080.99 163.58 1080.99 170.929C1080.99 175.828 1082.08 180.183 1083.17 182.633C1084.8 185.899 1084.8 187.532 1084.8 189.165C1084.8 191.887 1082.08 195.153 1080.99 196.242C1079.63 197.602 1077.18 198.419 1075.82 198.419Z" fill="white"/>
<path d="M764.749 204.954C754.95 204.954 747.602 198.422 747.602 187.535C747.602 180.186 754.95 176.103 760.938 176.375C763.66 176.375 765.293 176.92 768.287 176.92C772.37 176.92 779.174 173.926 788.973 173.926L796.322 174.198C800.132 174.198 804.215 171.748 808.842 171.748C814.83 171.748 818.64 167.121 824.628 166.305C832.249 165.216 831.161 160.317 836.604 156.234C842.592 151.607 845.042 144.802 844.77 139.359C844.77 137.726 843.953 135.821 842.864 134.732C838.51 130.377 832.794 126.022 825.989 125.75C818.913 125.478 814.558 124.389 813.469 123.845C809.931 121.939 810.747 120.578 807.481 119.762C806.12 119.49 805.304 118.945 805.031 118.129C804.215 115.407 802.582 114.046 800.132 112.957C793.056 109.419 790.062 103.703 787.34 96.3544C785.162 90.3665 786.795 90.6387 785.979 84.6507C785.162 78.9349 782.713 70.7696 782.713 62.0598C782.713 49.2673 785.979 36.4749 796.322 30.2148C801.221 27.2208 805.031 20.1441 808.298 15.7892C811.292 11.7065 812.108 10.6178 816.191 8.98474C819.457 7.62385 823.54 8.44039 828.711 5.99077C832.522 4.08551 836.604 2.72461 840.959 2.72461C845.042 2.72461 849.125 3.54115 853.752 5.17423C861.917 8.1682 870.082 11.7065 876.343 17.9667C879.337 20.9607 882.331 23.4103 885.869 27.2208C889.135 30.7591 890.496 38.3802 891.312 43.8238C892.129 50.3561 887.774 55.2553 880.425 55.2553C876.615 55.2553 871.716 54.1666 866.816 49.8117C862.189 45.729 861.1 41.6463 860.828 39.7411C860.556 37.0193 860.012 35.6584 858.651 34.5696C854.84 31.8478 851.846 30.7591 849.125 30.7591C845.858 30.7591 838.237 32.3922 832.794 35.9305C831.161 37.0193 830.616 38.9245 828.711 40.2854C827.622 41.102 825.989 41.6463 824.901 42.735C823.267 44.3681 822.995 46.0012 821.362 47.6343L818.368 50.0839C816.735 51.1726 815.102 52.2613 814.013 53.8944C812.652 56.0719 814.286 59.0658 811.836 61.5154C811.019 62.332 810.475 63.6929 810.475 64.7816C810.475 65.8703 810.747 66.959 811.292 68.3199C814.558 75.1244 813.197 81.3846 814.83 87.1003C815.646 89.55 815.646 90.9109 817.824 93.0883C819.457 94.7214 822.179 96.3544 823.812 98.2597C825.989 100.709 828.983 100.982 832.794 101.254C844.498 102.615 850.758 105.336 855.113 110.78C857.29 113.774 858.923 113.23 861.373 114.318C863.822 115.407 864.367 118.673 866.272 120.578C870.899 125.205 871.988 130.649 871.171 136.637L870.627 140.992C870.627 142.353 871.443 145.891 871.443 149.974C871.443 163.038 858.923 178.825 854.296 182.091C849.669 185.357 846.675 185.357 843.953 188.079C836.332 195.156 825.445 196.517 817.824 196.517C814.558 196.517 811.836 199.238 803.126 199.238C797.955 199.238 793.056 200.871 788.973 202.777C786.795 203.865 784.346 204.138 782.168 204.138C779.174 204.138 775.908 202.777 772.914 203.049C769.92 203.321 769.104 204.954 764.749 204.954Z" fill="white"/>
<path d="M713.572 193.522C709.762 193.522 707.04 192.161 700.508 188.895C695.064 186.173 692.07 185.628 689.893 185.628C686.354 185.628 683.905 186.717 675.467 183.179C672.201 181.546 671.112 181.546 670.296 181.546C667.302 181.546 664.58 183.179 661.586 185.084C657.775 187.534 655.326 188.35 652.06 188.35C645.527 188.35 639.811 185.084 636.001 179.096C634.64 176.919 634.096 174.741 634.096 172.564C634.096 170.931 634.368 169.57 634.64 168.481C634.912 167.392 634.912 166.576 634.912 165.487C634.912 162.493 634.096 160.316 634.096 157.322C634.096 149.973 637.906 147.795 637.906 138.541C637.906 134.731 636.001 132.281 636.001 127.654C636.001 124.66 636.545 120.305 637.09 118.4C639.539 108.329 635.457 109.962 640.628 95.537C641.989 91.9986 641.445 87.6437 641.445 83.8332C641.445 79.7505 641.445 75.94 641.989 72.946C642.533 70.7686 642.533 68.8634 642.533 66.9581C642.533 62.331 641.445 58.7927 641.445 56.8874C641.445 54.71 642.533 52.2604 642.533 49.2664C642.533 46.8168 640.9 44.3672 640.628 41.9175C640.084 35.6574 635.457 28.8529 635.457 21.2319C635.457 19.871 635.729 18.2379 636.273 16.3327C637.906 11.7056 640.356 8.43945 645.799 8.43945C649.066 8.43945 654.237 9.25598 656.959 10.6169C662.13 12.5221 665.941 17.6936 665.941 23.1371C665.941 24.2259 665.669 25.3146 665.396 26.4033C664.308 29.3973 667.029 32.6634 667.029 36.2018C667.029 38.9236 665.669 42.4619 665.669 46.8168C665.669 51.4439 666.213 53.8935 666.757 56.6153C667.029 58.2483 668.663 60.698 668.663 63.9641C668.663 68.5912 666.757 71.313 667.574 83.8332C667.846 86.555 668.118 89.549 668.118 92.543C668.118 97.1701 665.669 99.6197 665.941 105.608C666.213 112.14 662.675 115.95 662.675 120.577C662.675 126.565 663.491 129.015 663.491 133.098C663.491 141.263 661.041 147.523 661.041 150.789V154.872C663.219 155.417 665.669 155.961 670.84 156.233C677.372 156.777 682.272 156.777 685.538 157.322C689.62 157.866 691.526 158.683 695.336 160.588C698.602 162.221 701.868 163.854 705.679 163.854C713.3 163.582 715.75 164.943 720.377 167.665C725.548 170.659 728.542 176.102 728.542 179.913C728.542 184.268 719.832 193.522 713.572 193.522Z" fill="white"/>
<path d="M516.898 198.147L510.365 198.419C506.283 198.419 500.839 197.059 498.662 193.792C496.484 190.798 491.857 189.438 486.958 188.893C482.603 188.349 483.147 183.994 481.242 181.816C478.248 178.278 477.704 171.474 478.248 166.847C479.609 158.409 481.514 150.516 482.331 144.8C483.147 138.812 481.242 138.268 481.242 134.457C481.242 130.375 483.147 128.197 484.236 124.114C485.597 118.399 486.141 114.588 485.597 108.6C485.325 106.423 485.325 104.79 485.325 103.157C485.325 101.251 485.325 99.0739 486.141 96.6242C488.591 89.0032 486.958 78.9326 488.591 68.5897C489.68 62.8739 490.496 56.886 490.496 53.6198C490.496 45.9988 488.591 47.0875 488.591 40.283C488.591 36.4725 488.863 32.662 489.68 28.8515C490.769 23.1357 492.674 18.7808 495.396 14.6981C497.301 11.9763 498.934 10.0711 501.656 8.98235C504.105 7.89363 509.005 5.17183 513.359 5.98838C526.696 8.71017 526.424 5.44401 539.216 9.79889C549.559 13.3372 559.086 19.8695 565.074 22.8635C568.34 24.4966 570.789 25.5853 572.967 25.5853C576.505 25.5853 578.683 26.9462 580.316 29.9402C582.765 34.2951 584.398 38.3778 584.943 43.277C585.215 45.9988 587.392 46.5432 587.392 50.3537C587.392 54.9807 583.037 57.4304 578.138 60.1522C574.6 62.0574 570.789 63.1461 566.707 63.1461C563.441 63.1461 557.997 56.886 557.725 53.6198C557.453 51.4424 557.18 49.8093 557.18 47.9041C555.275 46.5432 553.098 44.9101 549.015 42.7326C544.932 40.5552 541.666 40.0108 538.672 38.3778C535.95 36.7447 532.684 34.8394 530.779 34.8394C527.785 34.8394 525.88 35.1116 523.43 35.656C521.525 36.2003 519.62 37.0169 517.986 37.8334C515.537 39.1943 514.176 41.0996 514.176 43.5492C514.176 44.0935 514.176 44.9101 514.448 45.7266C515.809 50.3537 517.17 54.9807 517.17 60.4243C517.17 66.9566 513.904 67.501 513.904 83.0152C513.904 84.9205 513.904 86.0092 514.176 87.3701C515.265 87.9145 516.898 88.1867 518.259 88.731C525.608 91.1806 528.601 89.5476 534.317 90.3641C537.583 90.9085 540.305 91.725 545.204 93.6303C548.471 94.9911 552.281 92.5415 555.819 92.5415C560.719 92.5415 560.719 95.5355 565.074 97.9851C568.884 100.163 571.334 104.517 571.334 110.233C571.334 115.677 567.251 118.671 565.074 118.943L556.364 119.487C555.003 119.487 553.098 118.399 551.192 118.399C549.287 118.399 546.838 119.76 544.66 119.76C541.122 119.76 538.128 118.943 535.406 118.126C532.956 117.31 529.418 116.221 526.424 116.221C520.436 115.949 516.626 114.86 512.271 113.227C511.726 114.316 511.454 115.677 511.182 117.854C510.91 119.76 510.91 121.937 510.91 123.842C510.91 126.564 510.093 128.197 509.277 130.647C508.188 133.913 507.371 136.09 508.188 141.534C509.277 148.338 507.099 154.871 506.555 163.308C506.283 166.03 506.283 167.935 506.283 169.568C507.644 170.113 509.005 170.657 510.365 170.657C519.075 171.201 519.892 169.024 527.241 171.201C534.589 173.379 538.128 170.385 541.666 170.385C545.749 170.385 550.648 171.474 555.275 173.923C558.541 175.556 560.991 178.55 561.535 182.633C562.352 189.438 562.08 190.254 551.737 195.97C547.11 198.419 543.027 198.419 538.672 198.419C537.039 198.419 535.134 198.419 533.501 198.147C530.779 197.875 528.057 197.603 525.335 197.603C522.341 197.603 519.62 197.875 516.898 198.147Z" fill="white"/>
<path d="M296.769 190.797C288.059 190.797 283.704 184.264 283.704 175.282C283.704 170.928 288.331 162.762 287.787 152.419C287.515 146.704 288.059 143.982 289.148 139.899C293.503 122.207 291.053 117.58 291.053 111.32C291.053 100.977 294.863 97.9834 293.503 76.4812C292.686 64.2331 294.863 61.2391 295.408 55.2512C295.952 49.8076 292.958 39.7369 296.769 33.2046C300.035 27.761 302.212 23.9505 307.928 23.9505C316.366 23.9505 323.987 28.0332 328.069 35.9264C334.057 47.9023 337.324 46.2692 345.217 54.979C351.477 61.7835 349.299 65.0496 359.642 71.8541C368.896 78.1143 364.542 81.9248 370.802 88.4571C380.328 98.2556 380.328 105.332 384.138 107.51C384.411 105.332 385.227 103.699 385.499 100.161C386.86 80.0195 391.215 89.2736 390.126 68.0436C389.038 47.6301 393.12 52.5294 393.12 34.5655V21.7731C393.12 15.2407 395.298 10.8859 400.741 9.25278C403.191 8.43625 405.368 8.16406 407.546 8.16406C411.901 8.16406 415.167 9.79715 418.433 11.7024C422.244 14.4242 423.605 18.5069 423.605 23.134C423.605 31.0272 420.611 32.6603 420.611 40.5535C420.611 41.9144 420.883 43.0031 420.883 44.6361C421.971 51.1685 419.25 52.8015 420.066 58.2451C421.427 66.4105 416.256 77.8421 415.167 88.4571L413.534 105.06C412.99 109.143 410.812 113.225 409.996 117.58C409.451 120.03 409.451 122.48 409.451 125.201L409.723 132.006C409.723 133.911 408.635 136.361 406.729 139.355C405.641 140.988 405.096 142.621 405.096 144.526C405.096 145.887 405.641 147.248 405.913 148.881C407.818 158.952 401.286 162.49 396.387 162.49C389.854 162.49 382.505 158.952 380.056 152.419C374.068 136.089 371.89 142.893 368.08 129.284C366.447 123.024 362.636 125.201 359.914 118.397C356.104 109.143 353.654 110.504 349.299 102.61C347.394 99.0721 345.761 93.0842 341.406 90.6345C335.69 87.6406 337.324 83.83 334.602 82.197C328.342 78.1143 326.981 71.582 321.809 68.8602C321.809 71.582 320.993 72.6707 321.265 74.8481C322.354 89.5458 318.815 86.824 319.632 101.25C320.176 111.32 317.182 111.592 317.182 115.675C317.182 118.397 318.815 121.663 318.815 125.474C318.815 126.562 318.543 127.651 318.271 128.74C316.366 136.905 317.182 148.881 315.277 155.413C314.46 158.679 313.916 160.585 313.916 162.218C313.916 164.667 314.733 166.3 314.733 168.206C314.733 173.105 311.466 171.744 310.922 181.27C310.65 185.625 303.029 190.797 296.769 190.797Z" fill="white"/>
<path d="M137.142 192.979C134.692 194.612 131.97 195.701 129.248 195.701C125.982 195.701 122.716 194.34 119.994 191.89C117 189.169 115.367 187.263 115.367 184.269C115.367 183.453 115.639 182.364 117.817 173.654C119.994 165.761 128.16 155.69 131.154 142.081C136.053 120.579 144.763 116.497 146.94 101.254C148.301 92.0004 154.017 85.1959 154.017 74.0365C154.017 68.0486 158.644 62.605 160.277 57.7057C161.91 52.2621 167.626 37.8366 168.442 35.6592C170.348 31.0321 171.708 28.3103 175.519 23.1389C178.785 19.3284 182.596 17.6953 186.406 17.6953C191.305 17.6953 196.205 20.6893 199.471 24.772C201.104 26.9494 202.465 30.4878 203.281 35.6592C204.914 45.1855 207.092 55.8005 209.541 62.3328C211.719 67.7764 209.541 71.0425 212.808 76.7583C214.985 80.2967 215.802 84.3794 215.802 88.4621C215.802 93.3613 217.707 97.9883 217.979 100.982C218.796 106.154 219.612 115.136 220.701 120.307C220.973 121.396 221.245 122.485 221.245 123.573C221.245 126.839 219.612 129.289 219.612 132.011C219.612 133.644 221.517 136.094 222.062 137.999C222.606 140.176 222.878 142.626 222.878 144.803C222.878 148.069 221.517 151.336 221.517 154.874C221.517 157.051 222.062 159.229 222.606 161.406C223.15 164.4 224.511 169.844 224.511 172.566C224.511 176.376 221.789 179.914 219.612 182.092C217.707 183.725 215.529 184.541 213.352 184.541C210.902 184.541 208.725 183.725 206.275 182.364C196.477 176.104 195.66 166.305 195.66 155.69L195.932 142.898C195.932 140.176 195.66 137.182 194.844 135.549C192.938 135.549 189.944 135.549 186.678 135.821C184.229 136.094 182.051 136.366 179.874 136.366C174.702 136.366 169.259 135.277 165.448 133.1L162.182 131.739C161.366 132.827 159.732 134.46 158.644 136.366C156.194 140.721 154.289 144.803 153.2 150.519C152.656 153.241 151.567 154.33 151.023 154.874C149.39 156.779 148.573 158.14 148.573 159.773C148.573 160.59 148.573 161.406 149.117 162.495C149.662 163.584 149.934 164.4 149.934 165.217C149.934 166.85 149.117 168.211 148.301 169.844C145.307 175.015 143.13 179.37 142.857 182.364C142.313 187.535 141.224 190.257 137.142 192.979ZM192.938 110.236C192.666 108.059 190.761 102.615 191.305 96.3553C191.578 92.5447 188.856 89.2786 189.4 85.7402C190.489 80.0245 187.223 74.0365 185.59 71.5869C184.773 70.226 183.684 69.1373 182.596 65.3268C180.963 69.1373 179.329 70.7704 179.329 74.3087C179.329 80.0245 176.063 89.0064 173.886 93.9056C170.348 102.071 168.17 106.698 168.17 109.42C171.436 111.597 175.791 112.686 180.146 112.686C186.406 112.686 192.122 111.325 192.938 110.236Z" fill="white"/>
<path d="M14.5671 186.176C14.2949 185.903 12.6619 184.27 10.2123 182.909C7.21828 181.276 5.85738 177.738 5.85738 172.567C5.85738 169.3 7.21828 156.78 7.21828 153.514C7.21828 149.703 6.12956 145.621 5.5852 141.538C5.31302 139.361 5.31302 137.183 5.31302 135.006C5.31302 125.207 5.04084 115.681 2.59122 105.882C0.958144 99.078 3.67994 92.8179 2.31904 86.5577C-0.130576 75.6705 -0.402755 65.0555 0.413784 54.4405C0.958144 47.3638 1.23032 40.015 1.77468 35.3879C2.8634 28.3113 6.12956 24.7729 9.6679 22.3233C15.1115 18.2406 21.0994 14.7023 28.7205 14.7023C38.5189 14.7023 42.8738 11.9805 47.2287 11.9805C51.0392 11.9805 56.4828 14.7023 62.4708 15.791C70.364 17.1519 79.0737 18.785 87.5113 28.5834C91.594 33.2105 94.8601 38.1097 94.8601 41.9202C94.8601 45.4586 96.221 47.636 97.5819 49.2691C99.215 51.4465 100.032 54.1683 100.032 57.4345C100.032 60.4285 99.215 62.6059 97.0376 66.4164C95.4045 69.4104 93.4993 74.3096 92.4105 80.0254C91.8662 83.0194 90.7775 86.2855 88.6 88.463C83.4286 93.6344 81.7955 100.167 77.4407 102.616C74.7189 103.977 73.6301 105.066 71.9971 107.243C68.7309 111.598 63.2873 114.592 58.1159 114.592C54.8497 114.592 51.5836 114.32 48.5896 114.048L35.525 113.231H34.4363C32.8032 113.231 31.1701 112.959 29.8092 113.231C29.537 114.32 29.8092 115.681 29.8092 117.314C29.8092 122.213 30.8979 128.201 31.1701 133.917C31.4423 138.272 31.9866 142.899 31.9866 145.621C31.9866 149.976 31.4423 151.881 30.3536 153.786C29.537 155.691 28.9927 157.052 28.9927 158.958C28.9927 160.863 29.537 163.04 30.0814 166.306C30.3536 167.939 30.6257 169.573 30.6257 171.478C30.6257 175.561 29.537 179.915 26.8152 183.998C24.91 186.992 22.4603 188.625 19.7385 188.625C18.1055 188.625 15.6558 187.264 14.5671 186.176ZM33.6197 88.7352H46.4122C50.2227 88.7352 53.2167 87.6464 56.2106 84.1081C66.8256 71.3157 65.7369 67.5051 69.2753 62.6059C71.7249 59.0676 71.9971 57.9789 71.9971 54.9849C71.9971 50.63 69.5474 42.4646 61.9264 40.8315C57.8437 40.015 54.0332 39.4706 50.2227 39.4706C45.8678 39.4706 41.5129 40.2872 36.3415 41.6481C31.9866 42.7368 28.4483 42.4646 26.543 44.642L25.9987 61.7894C25.9987 66.1442 28.1761 70.2269 28.1761 73.2209C28.1761 76.4871 26.8152 79.481 27.6318 84.1081C27.9039 85.469 27.9039 87.3743 28.1761 88.463C29.8092 89.0073 31.7145 88.7352 33.6197 88.7352Z" fill="white"/>
</svg>
