<svg width="3312" height="1328" viewBox="0 0 3312 1328" fill="none" xmlns="http://www.w3.org/2000/svg">
<path d="M1730.46 1324.62V1186.03H1849.12C1888.79 1186.03 1899.78 1201.31 1899.78 1217.7V1220.31C1899.78 1238.38 1884.51 1245.27 1877.8 1247.32C1887.3 1249.74 1907.61 1257.75 1907.61 1282.15V1284.76C1907.61 1306.55 1895.13 1324.62 1850.24 1324.62H1730.46ZM1841.67 1215.28H1773.86V1237.82H1841.67C1853.78 1237.82 1856.76 1232.23 1856.76 1226.64V1226.27C1856.76 1220.49 1853.78 1215.28 1841.67 1215.28ZM1845.39 1267.25H1773.86V1294.44H1845.39C1859.74 1294.44 1862.53 1286.44 1862.53 1280.85V1280.1C1862.53 1274.14 1859.74 1267.25 1845.39 1267.25Z" fill="white"/>
<path d="M1647.02 1267.99L1620.2 1216.02L1594.49 1267.99H1647.02ZM1676.08 1324.62L1663.04 1299.29H1579.03L1566.55 1324.62H1522.41L1592.44 1186.03H1648.7L1722.84 1324.62H1676.08Z" fill="white"/>
<path d="M1377.56 1186.03H1420.97V1290.16H1517.27V1324.62H1377.56V1186.03Z" fill="white"/>
<path d="M1158.73 1186.03H1301.97V1217.51H1201.94V1238H1299.55V1269.67H1201.94V1324.62H1158.73V1186.03Z" fill="white"/>
<path d="M1037.74 1183.61H1045.75C1132.92 1183.61 1143.17 1227.39 1143.17 1252.16V1257.75C1143.17 1282.15 1133.11 1327.04 1045.75 1327.04H1037.74C950.004 1327.04 940.132 1282.15 940.132 1257.75V1252.16C940.132 1227.39 950.004 1183.61 1037.74 1183.61ZM1097.72 1256.07V1253.47C1097.72 1237.63 1088.59 1217.14 1041.65 1217.14C993.965 1217.14 985.582 1237.63 985.582 1253.47V1255.7C985.582 1271.54 994.71 1293.33 1041.65 1293.33C1088.22 1293.33 1097.72 1272.09 1097.72 1256.07Z" fill="white"/>
<path d="M769.081 1324.62V1218.82H709.474V1186.03H872.649V1218.82H812.855V1324.62H769.081Z" fill="white"/>
<path d="M570.55 1217.51V1244.71H636.304C648.785 1244.71 653.814 1238.75 653.814 1231.11V1230.93C653.814 1223.66 648.971 1217.51 636.304 1217.51H570.55ZM570.55 1275.45V1324.62H527.148V1186.03H638.912C685.108 1186.03 699.078 1202.05 699.078 1221.98V1224.22C699.078 1244.15 682.5 1251.6 673.373 1254.58C687.529 1258.68 699.637 1268.55 699.637 1286.44V1306.74C699.637 1317.92 700.941 1321.45 702.245 1323.69V1324.62H658.098C656.794 1322.94 656.049 1320.9 656.049 1315.87V1299.85C656.049 1282.9 648.598 1275.45 627.177 1275.45H570.55Z" fill="white"/>
<path d="M443.708 1267.99L416.885 1216.02L391.179 1267.99H443.708ZM472.767 1324.62L459.728 1299.29H375.719L363.238 1324.62H319.092L389.13 1186.03H445.385L519.521 1324.62H472.767Z" fill="white"/>
<path d="M239.914 1324.62V1218.82H180.307V1186.03H343.482V1218.82H283.688V1324.62H239.914Z" fill="white"/>
<path d="M93.8815 1327.04H81.0286C8.38227 1327.04 0 1295.75 0 1277.5V1275.45H45.2643C45.8231 1283.83 50.6662 1297.43 86.4305 1297.43H89.0384C125.548 1297.43 129.646 1290.16 129.646 1282.71C129.646 1274.7 125.362 1269.67 93.3226 1268.74L69.4797 1268.18C17.6959 1266.69 1.86273 1249.18 1.86273 1227.57V1225.9C1.86273 1205.22 14.1567 1183.61 77.3032 1183.61H90.156C155.724 1183.61 170.626 1206.53 170.626 1227.39V1229.25H125.548C124.616 1224.04 121.822 1212.67 85.4992 1212.67H82.5188C48.9897 1212.67 46.5682 1218.63 46.5682 1224.59C46.5682 1230.55 50.2936 1235.96 78.6071 1236.52L101.891 1236.89C154.048 1237.82 175.096 1250.49 175.096 1278.05V1280.66C175.096 1303.57 163.547 1327.04 93.8815 1327.04Z" fill="white"/>
<path d="M2369.86 974.579H2349.29C2233.06 974.579 2219.65 924.509 2219.65 895.301V892.023H2292.07C2292.96 905.434 2300.71 927.191 2357.94 927.191H2362.11C2420.52 927.191 2427.08 915.568 2427.08 903.646C2427.08 890.831 2420.23 882.784 2368.96 881.293L2330.82 880.399C2247.96 878.015 2222.63 850 2222.63 815.427V812.745C2222.63 779.663 2242.3 745.091 2343.33 745.091H2363.9C2468.81 745.091 2492.65 781.749 2492.65 815.129V818.11H2420.52C2419.03 809.765 2414.56 791.584 2356.45 791.584H2351.68C2298.03 791.584 2294.16 801.122 2294.16 810.659C2294.16 820.196 2300.12 828.839 2345.42 829.733L2382.67 830.329C2466.12 831.819 2499.8 852.086 2499.8 896.195V900.368C2499.8 937.026 2481.32 974.579 2369.86 974.579Z" fill="#BFFF00"/>
<path d="M1997.14 799.334V842.847H2102.34C2122.31 842.847 2130.36 833.31 2130.36 821.091V820.793C2130.36 809.169 2122.61 799.334 2102.34 799.334H1997.14ZM1997.14 892.023V970.705H1927.7V748.966H2106.52C2180.43 748.966 2202.78 774.597 2202.78 806.487V810.063C2202.78 841.953 2176.26 853.875 2161.65 858.643C2184.3 865.2 2203.68 880.996 2203.68 909.607V942.093C2203.68 959.976 2205.76 965.638 2207.85 969.215V970.705H2137.21C2135.13 968.023 2133.94 964.744 2133.94 956.697V931.066C2133.94 903.945 2122.01 892.023 2087.74 892.023H1997.14Z" fill="#BFFF00"/>
<path d="M1662.26 748.966H1895.92V799.334H1730.81V832.118H1892.04V882.784H1730.81V919.145H1898.9V970.705H1662.26V748.966Z" fill="#BFFF00"/>
<path d="M1443.27 970.705H1373.83V748.966H1443.27V841.357L1556.82 748.966H1645.04L1517.48 850.298L1651 970.705H1560.4L1443.27 866.094V970.705Z" fill="#BFFF00"/>
<path d="M1201 974.579H1188.78C1060.33 974.579 1040.36 902.752 1040.36 863.411V854.768C1040.36 814.533 1057.65 745.091 1188.78 745.091H1201C1329.46 745.091 1349.43 806.486 1349.43 832.415V835.694H1275.81C1274.02 829.733 1265.08 798.737 1194.75 798.737C1128.28 798.737 1113.08 828.541 1113.08 856.258V859.835C1113.08 886.062 1130.67 920.634 1195.34 920.634C1267.17 920.634 1274.32 886.36 1276.11 881.293H1349.72V884.572C1349.72 912.587 1327.67 974.579 1201 974.579Z" fill="#BFFF00"/>
<path d="M1015.42 748.966V970.705H945.979V748.966H1015.42Z" fill="#BFFF00"/>
<path d="M755.048 970.705V801.42H659.677V748.966H920.757V801.42H825.087V970.705H755.048Z" fill="#BFFF00"/>
<path d="M521.391 974.579H500.826C384.592 974.579 371.181 924.509 371.181 895.301V892.023H443.604C444.498 905.434 452.247 927.191 509.47 927.191H513.642C572.057 927.191 578.614 915.568 578.614 903.646C578.614 890.831 571.759 882.784 520.497 881.293L482.348 880.399C399.494 878.015 374.161 850 374.161 815.427V812.745C374.161 779.663 393.831 745.091 494.866 745.091H515.43C620.339 745.091 644.182 781.749 644.182 815.129V818.11H572.057C570.567 809.765 566.096 791.584 507.979 791.584H503.211C449.564 791.584 445.69 801.122 445.69 810.659C445.69 820.196 451.65 828.839 496.952 829.733L534.207 830.329C617.657 831.819 651.335 852.086 651.335 896.195V900.368C651.335 937.026 632.857 974.579 521.391 974.579Z" fill="#BFFF00"/>
<path d="M262.493 899.467H205.866V951.922H155.796V899.467H99.4668V858.338H155.796V805.884H205.866V858.338H262.493V899.467Z" fill="#BFFF00"/>
<path d="M2127.07 598.16V376.421H2274C2402.45 376.421 2430.47 431.558 2430.47 481.33V490.271C2430.47 537.957 2403.94 598.16 2274.3 598.16H2127.07ZM2196.51 428.875V544.811H2268.63C2347.31 544.811 2357.75 510.239 2357.75 487.588V485.8C2357.75 463.149 2348.51 428.875 2268.63 428.875H2196.51Z" fill="#BFFF00"/>
<path d="M1893.23 426.789V470.302H1998.44C2018.41 470.302 2026.45 460.765 2026.45 448.546V448.248C2026.45 436.624 2018.71 426.789 1998.44 426.789H1893.23ZM1893.23 519.478V598.16H1823.79V376.421H2002.61C2076.52 376.421 2098.88 402.052 2098.88 433.942V437.518C2098.88 469.408 2072.35 481.33 2057.75 486.098C2080.4 492.655 2099.77 508.451 2099.77 537.063V569.548C2099.77 587.431 2101.86 593.093 2103.94 596.67V598.16H2033.31C2031.22 595.478 2030.03 592.199 2030.03 584.152V558.521C2030.03 531.4 2018.11 519.478 1983.84 519.478H1893.23Z" fill="#BFFF00"/>
<path d="M1690.29 507.557L1647.37 424.405L1606.24 507.557H1690.29ZM1736.78 598.16L1715.92 557.627H1581.5L1561.54 598.16H1490.9L1602.96 376.421H1692.97L1811.59 598.16H1736.78Z" fill="#BFFF00"/>
<path d="M1354.1 602.034H1341.88C1213.42 602.034 1193.46 530.207 1193.46 490.866V482.223C1193.46 441.988 1210.74 372.546 1341.88 372.546H1354.1C1482.55 372.546 1502.52 433.941 1502.52 459.871V463.149H1428.9C1427.12 457.188 1418.17 426.192 1347.84 426.192C1281.38 426.192 1266.18 455.996 1266.18 483.713V487.29C1266.18 513.517 1283.76 548.089 1348.43 548.089C1420.26 548.089 1427.41 513.815 1429.2 508.749H1502.82V512.027C1502.82 540.042 1480.76 602.034 1354.1 602.034Z" fill="#BFFF00"/>
<path d="M1019.61 598.16V428.875H924.242V376.421H1185.32V428.875H1089.65V598.16H1019.61Z" fill="#BFFF00"/>
<path d="M785.957 602.034H765.393C649.159 602.034 635.747 551.964 635.747 522.756V519.478H708.17C709.064 532.889 716.813 554.646 774.036 554.646H778.208C836.624 554.646 843.18 543.023 843.18 531.101C843.18 518.286 836.326 510.239 785.063 508.749L746.915 507.854C664.06 505.47 638.727 477.455 638.727 442.882V440.2C638.727 407.118 658.398 372.546 759.432 372.546H779.997C884.905 372.546 908.748 409.204 908.748 442.584V445.565H836.624C835.133 437.22 830.663 419.04 772.546 419.04H767.777C714.131 419.04 710.256 428.577 710.256 438.114C710.256 447.651 716.217 456.294 761.518 457.188L798.773 457.784C882.223 459.274 915.901 479.541 915.901 523.65V527.823C915.901 564.481 897.423 602.034 785.957 602.034Z" fill="#BFFF00"/>
<path d="M453.48 372.546H466.295C605.776 372.546 622.168 442.584 622.168 482.223V491.164C622.168 530.207 606.074 602.034 466.295 602.034H453.48C313.105 602.034 297.309 530.207 297.309 491.164V482.223C297.309 442.584 313.105 372.546 453.48 372.546ZM549.447 488.482V484.31C549.447 458.976 534.844 426.192 459.738 426.192C383.441 426.192 370.029 458.976 370.029 484.31V487.886C370.029 513.219 384.633 548.089 459.738 548.089C534.248 548.089 549.447 514.113 549.447 488.482Z" fill="#BFFF00"/>
<path d="M179.756 524.247H82.8946V598.16H13.4521V376.421H179.756C259.63 376.421 283.175 408.013 283.175 448.546V451.526C283.175 491.165 259.034 524.247 179.756 524.247ZM82.8946 426.789V474.475H178.564C200.321 474.475 210.752 466.428 210.752 451.228V450.334C210.752 435.134 200.917 426.789 178.564 426.789H82.8946Z" fill="#BFFF00"/>
<path d="M3127.01 225.614V139.78L3008.4 3.875H3094.53L3163.37 85.537L3233.41 3.875H3311.8L3196.46 139.78V225.614H3127.01Z" fill="#BFFF00"/>
<path d="M2810.92 54.2431V97.7565H2916.12C2936.09 97.7565 2944.14 88.2193 2944.14 75.9998V75.7018C2944.14 64.0783 2936.39 54.2431 2916.12 54.2431H2810.92ZM2810.92 146.932V225.614H2741.47V3.875H2920.3C2994.21 3.875 3016.56 29.5061 3016.56 61.396V64.9725C3016.56 96.8624 2990.04 108.784 2975.43 113.552C2998.08 120.109 3017.46 135.905 3017.46 164.517V197.003C3017.46 214.885 3019.54 220.547 3021.63 224.124V225.614H2950.99C2948.91 222.932 2947.72 219.653 2947.72 211.606V185.975C2947.72 158.854 2935.79 146.932 2901.52 146.932H2810.92Z" fill="#BFFF00"/>
<path d="M2547.88 0H2560.7C2700.18 0 2716.57 70.0385 2716.57 109.677V118.618C2716.57 157.661 2700.48 229.488 2560.7 229.488H2547.88C2407.51 229.488 2391.71 157.661 2391.71 118.618V109.677C2391.71 70.0385 2407.51 0 2547.88 0ZM2643.85 115.936V111.764C2643.85 86.4305 2629.25 53.6465 2554.14 53.6465C2477.85 53.6465 2464.43 86.4305 2464.43 111.764V115.34C2464.43 140.673 2479.04 175.543 2554.14 175.543C2628.65 175.543 2643.85 141.567 2643.85 115.936Z" fill="#BFFF00"/>
<path d="M2218.74 225.614V56.3294H2123.37V3.875H2384.45V56.3294H2288.78V225.614H2218.74Z" fill="#BFFF00"/>
<path d="M2041 135.011L1998.09 51.8589L1956.96 135.011H2041ZM2087.5 225.614L2066.63 185.081H1932.22L1912.25 225.614H1841.62L1953.68 3.875H2043.69L2162.3 225.614H2087.5Z" fill="#BFFF00"/>
<path d="M1541.76 3.875H1619.25L1760.82 143.356V3.875H1829.37V225.614H1760.82L1610.31 78.6821V225.614H1541.76V3.875Z" fill="#BFFF00"/>
<path d="M1507.88 3.875V225.614H1438.44V3.875H1507.88Z" fill="#BFFF00"/>
<path d="M1304.94 135.011L1262.02 51.8589L1220.89 135.011H1304.94ZM1351.43 225.614L1330.57 185.081H1196.15L1176.18 225.614H1105.55L1217.61 3.875H1307.62L1426.24 225.614H1351.43Z" fill="#BFFF00"/>
<path d="M873.799 3.875H943.241V170.477H1097.33V225.614H873.799V3.875Z" fill="#BFFF00"/>
<path d="M747.306 151.701H650.444V225.614H581.002V3.875H747.306C827.18 3.875 850.725 35.4669 850.725 75.9998V78.9802C850.725 118.619 826.584 151.701 747.306 151.701ZM650.444 54.2431V101.929H746.114C767.871 101.929 778.302 93.882 778.302 78.6821V77.788C778.302 62.5881 768.467 54.2431 746.114 54.2431H650.444Z" fill="#BFFF00"/>
<path d="M344.453 225.614H258.917L369.19 113.552L261.301 3.875H354.289L416.876 68.8469L479.464 3.875H564.702L458.303 112.062L567.087 225.614H479.762L411.81 156.768L344.453 225.614Z" fill="#BFFF00"/>
<path d="M13.4521 3.875H247.113V54.2431H82.0005V87.0271H243.238V137.693H82.0005V174.054H250.093V225.614H13.4521V3.875Z" fill="#BFFF00"/>
</svg>
